<svg id="svg2" xmlns="http://www.w3.org/2000/svg" viewBox="0 0 1032.18042 331.85538"><defs><style>.cls-1{fill:#fff;}.cls-2{fill:none;}</style></defs><title>jenkins-horizontal-white</title><path class="cls-1" d="M472.249,167.99728a36.00521,36.00521,0,0,0-1.8457-9.05224,13.9298,13.9298,0,0,0-4.08691-6.24024,10.03921,10.03921,0,0,0-6.54786-2.10937q-6.769,0-10.81054,6.85547-4.0437,6.85547-4.39453,21.70849l28.21289-.35156Q472.77637,173.5344,472.249,167.99728Z"/><path class="cls-1" d="M335.49121,115.35129q2.47192.35229,6.22656,1.144a33.97606,33.97606,0,0,1,6.40235,1.93506q3.70752,1.58349,4.68017,3.69385a12.62017,12.62017,0,0,1,.97217,5.27783v70.45459q0,15.30615-6.03857,22.87012-6.03736,7.563-16.61231,7.56347a12.5888,12.5888,0,0,1-5.37646-1.23047,6.53907,6.53907,0,0,1-3.4375-2.98828v-1.14258a60.51583,60.51583,0,0,0,8.9209-8.832,16.13706,16.13706,0,0,0,3.91113-10.416,14.97119,14.97119,0,0,0-4.52637-11.07422q-4.52782-4.48242-12.17285-4.48242-8.0874,0-12.7002,5.36133-4.61425,5.36278-4.61425,13.53515,0,13.8003,10.06347,21.709,10.06275,7.91015,26.499,7.91015a58.03553,58.03553,0,0,0,17.84179-2.68164,48.50169,48.50169,0,0,0,15.11719-7.96094A37.97414,37.97414,0,0,0,381.15039,212.718a39.51484,39.51484,0,0,0,3.82324-17.416V126.5217a14.71872,14.71872,0,0,1,1.01075-5.6294q1.00928-2.46093,4.61425-3.43017,3.07545-.791,5.53711-1.23047,2.45948-.44093,5.97656-.88037v-6.85547H335.49121Z"/><path class="cls-1" d="M488.4209,218.843a25.63121,25.63121,0,0,1-14.85352,4.52539q-15.11792,0-22.06054-9.4043-6.9441-9.40283-6.94336-27.42187h59.41406v-5.71289a44.62364,44.62364,0,0,0-2.28516-14.28174,29.97651,29.97651,0,0,0-7.29492-11.82129,35.79419,35.79419,0,0,0-13.0957-8.26172q-7.91016-2.98682-20.21485-2.98828a51.52322,51.52322,0,0,0-20.34668,3.86719A44.83165,44.83165,0,0,0,425.667,157.4509a46.21231,46.21231,0,0,0-12.65625,31.81592,54.31445,54.31445,0,0,0,3.03223,18.41406,39.72944,39.72944,0,0,0,9.18457,14.7207,44.01122,44.01122,0,0,0,15.60058,9.93164q9.44679,3.69141,22.45606,3.69141a50.69372,50.69372,0,0,0,13.84277-1.71289,54.16218,54.16218,0,0,0,11.90918-5.05469,45.08036,45.08036,0,0,0,9.8877-7.60156,53.50526,53.50526,0,0,0,7.42676-9.44922l-6.67969-4.834A42.38193,42.38193,0,0,1,488.4209,218.843ZM448.958,157.4509q4.04149-6.85548,10.81054-6.85547a10.03921,10.03921,0,0,1,6.54786,2.10937,13.9298,13.9298,0,0,1,4.08691,6.24024,36.00521,36.00521,0,0,1,1.8457,9.05224q.52736,5.53712.52735,10.81055l-28.21289.35156Q444.91358,164.3088,448.958,157.4509Z"/><path class="cls-1" d="M622.62988,224.68674a6.81274,6.81274,0,0,1-3.60351-3.07617,11.66964,11.66964,0,0,1-.9668-5.18555V173.35861q0-13.44653-7.16309-21.57666-7.16454-8.12841-21.48925-8.12988a41.11142,41.11142,0,0,0-11.25,1.49414,31.58769,31.58769,0,0,0-8.52539,3.60352,57.51194,57.51194,0,0,0-6.50391,5.00976q-3.5171,3.07764-5.97656,5.27344h-.35157V146.28879l-1.31835-1.31836-41.92383,2.28515v6.416a28.22926,28.22926,0,0,1,5.31738.9668,14.54178,14.54178,0,0,1,3.999,1.75781,12.59309,12.59309,0,0,1,3.69141,4.30664,11.291,11.291,0,0,1,1.40625,5.36133V217.216a11.39577,11.39577,0,0,1-1.05469,5.27344,6.45183,6.45183,0,0,1-3.86719,2.98828,21.463,21.463,0,0,1-3.82324.83594q-2.24121.30762-4.43847.48242v6.416h53.4375v-6.416a27.27826,27.27826,0,0,1-4.13086-.8789,16.718,16.718,0,0,1-3.51563-1.40625,6.13039,6.13039,0,0,1-2.90039-3.11914,13.14856,13.14856,0,0,1-.87891-5.14258V169.052q1.05616-1.40333,2.59961-3.25146a20.2376,20.2376,0,0,1,4.09864-3.60352,24.50737,24.50737,0,0,1,5.94824-3.07617,19.89983,19.89983,0,0,1,6.56543-1.05469q6.43359,0,9.73828,4.52637,3.30468,4.52783,3.30566,13.49072V217.216a14.45167,14.45167,0,0,1-.791,5.44922,5.589,5.589,0,0,1-2.63672,2.8125,11.08027,11.08027,0,0,1-3.60352.87891q-2.373.26367-4.043.43945v6.416h52.82226v-6.416a25.28712,25.28712,0,0,1-4.70215-.8789A29.9856,29.9856,0,0,1,622.62988,224.68674Z"/><path class="cls-1" d="M736.9082,219.5051q-7.98339-11.85937-15.2666-22.48828-7.28174-10.62891-15.87988-23.10352,4.3828-3.87891,7.75586-6.47852,3.37353-2.59936,6.97168-4.97412a79.41916,79.41916,0,0,1,10.04687-5.75683,92.15385,92.15385,0,0,1,13.38282-4.61426v-6.06445H699.27051v6.24023a41.543,41.543,0,0,1,8.35254,1.8457q2.77441,1.05469,2.77539,2.63672a14.74018,14.74018,0,0,1-.30762,1.88965q-.30908,1.53662-3.208,4.5249-4.91748,5.00978-13.03711,12.65528-8.11962,7.64647-14.61425,13.44531V98.56418l-1.32129-1.40625-43.76661,2.28515v6.416a43.47172,43.47172,0,0,1,6.06446.87891,15.78782,15.78782,0,0,1,5.00976,1.75781,9.79406,9.79406,0,0,1,3.73535,4.70215,15.90971,15.90971,0,0,1,1.27442,6.02051V217.216a11.74579,11.74579,0,0,1-1.01758,5.27344,6.30115,6.30115,0,0,1-3.84961,2.98828,24.2208,24.2208,0,0,1-3.89355.83594q-2.21191.30762-4.42285.48242v6.416H691.624v-6.416a26.30752,26.30752,0,0,1-4.21875-.70312,22.48019,22.48019,0,0,1-3.6914-1.23047,5.86054,5.86054,0,0,1-3.55957-2.98828,12.54313,12.54313,0,0,1-.92285-5.18555V197.52853l5.17675-4.3789q5.6206,7.97754,11.94336,17.31445,6.32228,9.33545,13.96289,22.74805h41.42676v-6.416a33.12984,33.12984,0,0,1-8.07617-1.75781A13.301,13.301,0,0,1,736.9082,219.5051Z"/><path class="cls-1" d="M799.99316,224.511a7.98035,7.98035,0,0,1-3.77929-3.207,9.83023,9.83023,0,0,1-1.31836-5.23046V146.28879l-1.31836-1.31836-43.06641,2.28515v6.416a31.29316,31.29316,0,0,1,5.84473,1.23047,18.70332,18.70332,0,0,1,4.79,2.02148,11.65987,11.65987,0,0,1,3.51562,3.73536,10.26339,10.26339,0,0,1,1.40625,5.40527V217.216a10.41765,10.41765,0,0,1-1.14258,5.23047,7.288,7.288,0,0,1-3.95507,3.03125,15.58049,15.58049,0,0,1-3.7793.87891q-2.19873.26367-4.48242.43945v6.416h55.54687v-6.416a26.40638,26.40638,0,0,1-4.39453-.8789A29.34235,29.34235,0,0,1,799.99316,224.511Z"/><path class="cls-1" d="M778.1084,129.41379a17.4359,17.4359,0,0,0,12.17285-4.70215,14.864,14.864,0,0,0,5.1416-11.38184A15.06224,15.06224,0,0,0,790.3252,101.904a18.1531,18.1531,0,0,0-24.47754,0,15.21729,15.21729,0,0,0,0,22.80762A17.54508,17.54508,0,0,0,778.1084,129.41379Z"/><path class="cls-1" d="M924.18262,224.68674a6.81276,6.81276,0,0,1-3.60352-3.07617,11.66964,11.66964,0,0,1-.9668-5.18555V173.35861q0-13.44653-7.16308-21.57666-7.16455-8.12841-21.48926-8.12988a41.11147,41.11147,0,0,0-11.25,1.49414,31.58782,31.58782,0,0,0-8.52539,3.60352,57.51373,57.51373,0,0,0-6.50391,5.00976q-3.51708,3.07764-5.97656,5.27344h-.35156V146.28879l-1.31836-1.31836-41.92383,2.28515v6.416a28.22911,28.22911,0,0,1,5.31738.9668,14.542,14.542,0,0,1,3.999,1.75781,12.593,12.593,0,0,1,3.6914,4.30664,11.29089,11.29089,0,0,1,1.40625,5.36133V217.216a11.3959,11.3959,0,0,1-1.05468,5.27344,6.45189,6.45189,0,0,1-3.86719,2.98828,21.46322,21.46322,0,0,1-3.82324.83594q-2.24121.30762-4.43848.48242v6.416h53.4375v-6.416a27.27852,27.27852,0,0,1-4.13086-.8789,16.71794,16.71794,0,0,1-3.51562-1.40625,6.13035,6.13035,0,0,1-2.90039-3.11914,13.14838,13.14838,0,0,1-.87891-5.14258V169.052q1.05615-1.40333,2.59961-3.25146a20.23725,20.23725,0,0,1,4.09863-3.60352,24.50773,24.50773,0,0,1,5.94824-3.07617,19.89991,19.89991,0,0,1,6.56543-1.05469q6.43361,0,9.73828,4.52637,3.30469,4.52783,3.30567,13.49072V217.216a14.45144,14.45144,0,0,1-.791,5.44922,5.589,5.589,0,0,1-2.63672,2.8125,11.0802,11.0802,0,0,1-3.60351.87891q-2.373.26367-4.043.43945v6.416h52.82227v-6.416a25.28681,25.28681,0,0,1-4.70215-.8789A29.98425,29.98425,0,0,1,924.18262,224.68674Z"/><path class="cls-1" d="M1014.72266,188.16916q-7.28467-6.9873-22.98926-11.03125a75.61357,75.61357,0,0,1-15.83692-5.625q-5.66014-2.98536-5.65918-9.66748a9.12605,9.12605,0,0,1,3.86719-7.82227q3.86572-2.81176,10.63477-2.8125,8.61182,0,16.084,6.63575a36.34282,36.34282,0,0,1,10.54688,15.77587h6.15234l-1.40625-29.97021h-6.67969l-1.8457,5.18555a74.39627,74.39627,0,0,0-11.29394-3.55957,62.62888,62.62888,0,0,0-14.72168-1.626q-16.875,0-27.29,7.64648t-10.415,20.03858a24.816,24.816,0,0,0,8.70117,19.77539,35.00065,35.00065,0,0,0,8.833,5.66992,96.49385,96.49385,0,0,0,10.23925,3.55859q5.9751,1.76075,10.06348,2.98829a44.88486,44.88486,0,0,1,7.51465,2.98828,15.051,15.051,0,0,1,4.834,3.95507,9.25134,9.25134,0,0,1,1.75782,5.80079q0,6.50683-3.91114,9.625-3.91113,3.1201-11.90918,3.11914a24.59443,24.59443,0,0,1-11.38183-2.72461,39.73037,39.73037,0,0,1-9.44824-6.67969,49.13123,49.13123,0,0,1-7.03125-8.91992,43.5346,43.5346,0,0,1-4.39454-8.92188h-6.416l1.14258,32.78321h6.85547l2.63671-5.97657a54.4441,54.4441,0,0,0,12.61231,5.31836,56.239,56.239,0,0,0,16.65527,2.50391q18.19337,0,29.48731-7.91016,11.29248-7.91014,11.29394-22.32422Q1022.00488,195.15549,1014.72266,188.16916Z"/><path class="cls-1" d="M190.27252,249.99367c-.13785-1.17854-.30568-2.35264-.50358-3.51233a35.77906,35.77906,0,0,0-3.80159-11.72079c-2.079-.47663-4.49971-.01852-6.48605.02007.55685,5.54611,1.58506,11.4355,2.4953,17.356q.25469,1.65625.48875,3.31237c.14472,1.01455.27813,2.02629.40629,3.03776,1.41663-.6158,3.15479-1.34815,4.77442-1.96792,1.13869-.43571,2.21648-.81477,3.08046-1.05707-.01871-.363-.04308-.7295-.06624-1.0957C190.56874,252.92066,190.44362,251.45665,190.27252,249.99367Z"/><path class="cls-1" d="M158.6625,192.62233c-2.92133-1.25165-5.00661,3.755-5.00661,3.755,0,2.83658,8.43288,19.52393,10.96747,24.47553,1.74864-7.72073,1.8754-15.9143,2.23416-24.16237C164.97946,195.70293,160.87014,193.56821,158.6625,192.62233Zm-1.66847,4.3808a2.29493,2.29493,0,1,1,2.29432,2.294A2.29593,2.29593,0,0,1,156.994,197.00313Zm4.58863,12.9331a2.29478,2.29478,0,1,1,2.29548-2.294A2.29453,2.29453,0,0,1,161.58266,209.93623Z"/><path class="cls-1" d="M59.72569,72.84689q-.00323.96859.02138,1.93438c.08,2.965.3401,5.87494.55278,8.45149a15.89518,15.89518,0,0,1,1.49657-.8238,15.46811,15.46811,0,0,1,7.26471-1.57576C76.617,81.05384,83.45478,86.70992,83.365,94.39c4.7573-.12639,1.77726-5.94159.91674-9.6878a32.51107,32.51107,0,0,1-.39847-10.61156c.3328-3.28529.93788-6.58087,1.42252-9.83154.235-1.57594.43908-3.141.57107-4.68919a37.65359,37.65359,0,0,0,.14468-4.12205,25.60365,25.60365,0,0,0-.2597-3.13046c-.04733-.31859-.10435-.63549-.16577-.9515a19.26723,19.26723,0,0,0-.972-3.38351,30.23793,30.23793,0,0,0-20.63277,9.7341A16.42226,16.42226,0,0,0,60.32156,65.85a33.27821,33.27821,0,0,0-.50807,4.16652C59.75581,70.95386,59.72887,71.89955,59.72569,72.84689Z"/><path class="cls-1" d="M182.87164,258.4867c.04481.35329.09112.707.13345,1.05964.183,1.52711.3495,3.04968.47271,4.55827,3.12536.09729,4.79509-1.37683,7.366-1.87259.03372-2.1009.00468-4.39751-.11731-6.77031-.864.2423-1.94177.62136-3.08046,1.05707C186.02643,257.13855,184.28827,257.8709,182.87164,258.4867Z"/><path class="cls-1" d="M156.42722,167.12332c-.83035.19893-1.66842.40067-2.50944.59081q-.63082.14265-1.26315.27485c-.84284.17508-1.6862.3315-2.52553.455a24.23662,24.23662,0,0,1-3.73334.28561,13.32255,13.32255,0,0,1-5.36654-1.07147c-.01754.358-.4844.22779-.56074.51943,4.64737,3.63231,8.09946,4.38329,14.42531,4.07036,2.85253-2.07021,5.38212-4.49091,8.35233-6.42973a33.31331,33.31331,0,0,0-4.00918.65522C158.31515,166.67231,157.37623,166.896,156.42722,167.12332Z"/><path class="cls-1" d="M101.95153,25.96573c1.31779-.63577,3.26611-.592,3.3409-2.5709-.57112-.61079-1.17251-1.07638-1.85692-.88241C90.95562,26.04964,74.96128,35.11786,69.833,46.32889c2.804-.40737,5.00712-1.51734,7.43629-2.22663a14.57119,14.57119,0,0,1,3.20862-.60083c1.48047-.0964,3.42009.6208,5.12153.19777,3.39077-.84116,6.25241-8.44364,8.81044-11.2724,2.083-2.30755,4.51042-3.51949,6.45121-5.32126A11.28767,11.28767,0,0,0,101.95153,25.96573Z"/><path class="cls-1" d="M158.6625,192.62233c2.20764.94588,6.317,3.0806,8.195,4.06811.06558-1.50742.13841-3.01652.23112-4.525-4.23931.26909-6.59116-3.83382-9.56263-4.14923-2.59218-.2791-4.79262,2.98018-8.16327,1.5708-.7723.85369-1.47449,1.77862-2.26175,2.61224,7.44484,8.972,10.82808,21.70116,16.57817,32.2449.36073-1.18406.67038-2.38248.9442-3.59138-2.53459-4.9516-10.96747-21.63895-10.96747-24.47553C153.65589,196.37728,155.74117,191.37068,158.6625,192.62233Z"/><path class="cls-1" d="M156.16158,183.60729a4.43582,4.43582,0,0,0,.58137-.97414,5.14325,5.14325,0,0,0,.33738-1.09692,5.71308,5.71308,0,0,0,.09964-1.156,5.48256,5.48256,0,0,0-.75046-2.73091,4.21348,4.21348,0,0,0-.68362-.8615,3.593,3.593,0,0,0-1.417-.84607,3.85608,3.85608,0,0,0-1.03185-.1624c-.05595-.00183-.10773-.0116-.16479-.01123a7.13793,7.13793,0,0,0-3.8283,1.39623,14.36011,14.36011,0,0,0,.618,5.47361c.1421.61018.29277,1.297.43838,2.12649C153.20114,185.65257,155.10348,184.94454,156.16158,183.60729Z"/><path class="cls-1" d="M138.72667,315.4598a81.61505,81.61505,0,0,1-10.52119,1.91005l33.33279-1.19042.2024-3.03977A86.65862,86.65862,0,0,1,138.72667,315.4598Z"/><path class="cls-1" d="M234.18113,160.29211a113.41057,113.41057,0,0,1-15.90195,58.16348,13.69006,13.69006,0,0,1,3.59082,1.00126A117.421,117.421,0,0,0,204.53318,79.11974c-.96712-.98971-1.95744-1.95561-2.95931-2.90917q.127,2.243.17578,4.51482A112.95707,112.95707,0,0,1,234.18113,160.29211Z"/><path class="cls-1" d="M16.26878,176.361l-.00182-.00636-.00505-.044q-.38352-2.73942-.637-5.52006l-1.86127-16.13086L16.073,145.654A112.58593,112.58593,0,0,1,52.40124,76.11913l.564-.64859c-.0253-1.33973-.02334-2.662.02049-3.95515q-4.28082,3.59842-8.1997,7.60435a117.24018,117.24018,0,0,0,0,163.17715q3.22656,3.30129,6.71371,6.32627-.18573-2.67776-.40517-5.34586A112.59193,112.59193,0,0,1,16.26878,176.361Z"/><path class="cls-1" d="M201.77056,86.08935a110.63229,110.63229,0,0,1,12.87327,132.20734,19.4822,19.4822,0,0,1,3.63535.1589,114.02092,114.02092,0,0,0-16.52953-137.7302Q201.81063,83.39577,201.77056,86.08935Z"/><path class="cls-1" d="M36.711,94.16215l15.69025-18.043A112.58593,112.58593,0,0,0,16.073,145.654l6.03571-23.53736Z"/><path class="cls-1" d="M49.65,237.54165A109.24974,109.24974,0,0,1,19.627,176.23541a117.1994,117.1994,0,0,0-.0217,11.80086L16.26878,176.361a112.59193,112.59193,0,0,0,34.8258,66.91634q-.19617-2.36393-.43533-4.72788C50.32237,238.214,49.98251,237.88161,49.65,237.54165Z"/><path class="cls-1" d="M16.26191,176.31058l-.637-5.52006Q15.87772,173.57092,16.26191,176.31058Z"/><path class="cls-1" d="M16.267,176.3546l.00182.00636-.00687-.05038Z"/><path class="cls-1" d="M16.073,145.654l-2.30933,9.00568,1.86127,16.13086c-.31418-3.45709-.48248-6.95745-.48248-10.49841A115.6036,115.6036,0,0,1,16.073,145.654Z"/><path class="cls-1" d="M52.96525,75.47054l-.564.64859c.18967-.1705.37574-.34511.56659-.5143Z"/><path class="cls-1" d="M19.627,176.23541a112.09041,112.09041,0,0,1-1.08312-15.52527A109.56587,109.56587,0,0,1,49.65,83.87231q1.89131-1.93345,3.877-3.76665a19.59287,19.59287,0,0,1-.53767-3.36906c-.01291-.38075-.01371-.7541-.02147-1.13177-.19085.16919-.37692.3438-.56659.5143L36.711,94.16215l-14.6023,27.95447L16.073,145.654a115.6036,115.6036,0,0,0-.93054,14.63813c0,3.541.1683,7.04132.48248,10.49841l.637,5.52006.00687.05038,3.33656,11.67531A117.1994,117.1994,0,0,1,19.627,176.23541Z"/><path class="cls-1" d="M63.5778,93.57344a5.70724,5.70724,0,0,1,1.0906-.7635A3.98176,3.98176,0,0,0,63.5778,93.57344Z"/><path class="cls-1" d="M191.82765,76.61517q2.78138,2.33025,5.40157,4.84856c-.08592-1.77535-.159-3.5447-.24379-5.2873a110.48054,110.48054,0,0,0-8.70389-7.07631C189.44516,71.6226,190.58175,74.16968,191.82765,76.61517Z"/><path class="cls-1" d="M88.47219,46.24072l4.21686-6.74145A30.1509,30.1509,0,0,0,88.47219,46.24072Z"/><path class="cls-1" d="M119.74272,19.9027q-.98768.49248-2.01455,1.02382l6.27977-2.6912A26.68994,26.68994,0,0,0,119.74272,19.9027Z"/><path class="cls-1" d="M89.60812,62.81464l-.14729.04944c-.04477.23668-.08981.47341-.13682.71023C89.41279,63.32921,89.51237,63.06937,89.60812,62.81464Z"/><path class="cls-1" d="M183.74989,70.47362a8.05976,8.05976,0,0,0-4.226,6.16157c-.63338,6.05928,7.50991,1.25166,8.76156.83494l-.29365-1.95786c-.30656-.82965-.58707-1.68343-.8216-2.57978Q185.48332,71.67153,183.74989,70.47362Z"/><path class="cls-1" d="M127.37092,76.63519c0,5.54639,9.39944,5.44929,12.84918,3.28272-1.70331-3.1589-3.37851-6.98453-3.60167-10.21159l-.06792-.163S127.37092,70.795,127.37092,76.63519Z"/><path class="cls-1" d="M109.22162,65.07457c.50844,1.40147.55994,2.53595,1.44268.93288A2.38419,2.38419,0,0,1,109.22162,65.07457Z"/><path class="cls-1" d="M174.53475,160.31213a6.49906,6.49906,0,0,1,3.52384-.72562l-1.63544-1.21488A9.99446,9.99446,0,0,0,174.53475,160.31213Z"/><path class="cls-1" d="M112.08944,168.69823c-5.19726-.91248-12.02753-.3104-15.55857-2.76243-.8978.91145-.72207,1.90514.114,2.88807,2.72773,1.08279,10.50174,4.01063,14.67757,3.96105C111.69382,171.25912,112.27748,169.85161,112.08944,168.69823Z"/><path class="cls-1" d="M111.03827,174.87136a8.45453,8.45453,0,0,1,.2842-2.08644c-4.17583.04958-11.94984-2.87826-14.67757-3.961C99.1729,171.79581,107.74994,174.66915,111.03827,174.87136Z"/><path class="cls-1" d="M129.46625,52.20266c-1.59371-.07283-3.19505-.116-4.80645-.11615-1.03354.00005-2.06259.01927-3.089.0493a34.82537,34.82537,0,0,0-5.46481,1.96961,6.3648,6.3648,0,0,0-3.07218,3.29482l1.31031,2.184c3.56369-4.72993,8.74327-7.8922,16.78913-6.0183A4.68922,4.68922,0,0,0,129.46625,52.20266Z"/><path class="cls-1" d="M131.13327,53.566V53.566a4.44577,4.44577,0,0,0,.52734-1.238c-.25684-.01717-.51359-.03471-.771-.05C131.06774,53.05709,131.13327,53.566,131.13327,53.566Z"/><path class="cls-1" d="M110.822,65.674a32.831,32.831,0,0,1,3.52211-6.08978l-1.31031-2.184C111.70509,60.24674,111.54634,63.924,110.822,65.674Z"/><polygon class="cls-1" points="110.664 66.007 110.667 66.001 110.664 66.007 110.664 66.007"/><path class="cls-1" d="M109.22162,65.07457a6.61,6.61,0,0,0-.41779-.93311A2.68555,2.68555,0,0,0,109.22162,65.07457Z"/><path class="cls-1" d="M130.012,48.40238a6.98909,6.98909,0,0,0-.75869-.51668c.09191.1654.18045.33084.26409.49745C129.68207,48.39045,129.84756,48.39424,130.012,48.40238Z"/><path class="cls-1" d="M130.88957,52.278c.25745.01525.5142.03279.771.05a3.75724,3.75724,0,0,0-1.64858-3.92559c-.16447-.00814-.33-.01193-.4946-.01923A17.64326,17.64326,0,0,1,130.88957,52.278Z"/><path class="cls-1" d="M129.46625,52.20266c-2.08691-1.05838-5.02873-.81548-7.89543-.06685,1.02639-.03,2.05544-.04925,3.089-.0493C126.2712,52.08665,127.87254,52.12983,129.46625,52.20266Z"/><path class="cls-1" d="M113.03383,57.40024a6.3648,6.3648,0,0,1,3.07218-3.29482,34.82537,34.82537,0,0,1,5.46481-1.96961q-3.8959.11422-7.71876.50784a22.99381,22.99381,0,0,0-2.37518,2.82919l.33341-.112Z"/><path class="cls-1" d="M129.46625,52.20266a4.68922,4.68922,0,0,1,1.667,1.3633s-.06553-.50887-.2437-1.28795Q130.179,52.23585,129.46625,52.20266Z"/><path class="cls-1" d="M109.22162,65.07457a2.38419,2.38419,0,0,0,1.44268.93288V66.0074l.003-.00626c.0492-.1096.10463-.21765.15473-.3271.72431-1.75009.88306-5.4273,2.2118-8.2738l-1.22354-2.03938-.33341.112a15.20278,15.20278,0,0,0-1.88826,3.47028c-.50007,1.37191-1.17883,3.58946-.78479,5.19834A6.61,6.61,0,0,1,109.22162,65.07457Z"/><path class="cls-1" d="M110.822,65.674c-.0501.10945-.10553.2175-.15473.3271A3.35721,3.35721,0,0,0,110.822,65.674Z"/><path class="cls-1" d="M129.51743,48.38315c-.08364-.16661-.17218-.33205-.26409-.49745a7.87988,7.87988,0,0,0-2.72432-.981,11.7426,11.7426,0,0,0-7.0075,1.4895c1.70387-.08055,3.41654-.12653,5.13982-.12653C126.28916,48.26766,127.90687,48.31121,129.51743,48.38315Z"/><path class="cls-1" d="M129.46625,52.20266q.71307.03247,1.42332.07535a17.64326,17.64326,0,0,0-1.37214-3.89486c-1.61056-.07194-3.22827-.11549-4.85609-.11549-1.72328,0-3.43595.046-5.13982.12653a22.73056,22.73056,0,0,0-5.66946,4.24946q3.82043-.39537,7.71876-.50784C124.43752,51.38718,127.37934,51.14428,129.46625,52.20266Z"/><path class="cls-1" d="M187.99177,75.51227c.64984,1.75883,1.40671,3.41864,2.04973,5.18332-2.73611,1.72352-8.06439.64956-11.151,1.99888-.22026,9.082,14.05238,4.60608,16.224-.4518a49.76876,49.76876,0,0,1-3.28683-5.6275q-2.04222-1.71105-4.168-3.31756Z"/><path class="cls-1" d="M187.07882,66.53685c-.179-.00748-.36045-.01375-.53946-.02128-.0268.45306-.03508.889-.03443,1.31662.59578.41775,1.1893.83849,1.77661,1.26793C187.88536,68.24138,187.487,67.38469,187.07882,66.53685Z"/><path class="cls-1" d="M186.50493,67.83219c.0008.48894.02072.96015.05361,1.41934.29028-.08452.47523-.12625.47523-.12625l.62585,4.17233q2.12453,1.60714,4.168,3.31756c-1.2459-2.44549-2.38249-4.99257-3.54611-7.51505C187.69423,68.67068,187.10071,68.24994,186.50493,67.83219Z"/><path class="cls-1" d="M187.17017,72.93249c.23453.89635.515,1.75013.8216,2.57978l-.33215-2.21466C187.49726,73.17483,187.33322,73.05438,187.17017,72.93249Z"/><path class="cls-1" d="M187.03377,69.12528s-.185.04173-.47523.12625a20.10171,20.10171,0,0,0,.61163,3.681c.163.12189.32709.24234.48945.36512Z"/><path class="cls-1" d="M140.2201,79.91791c.77436,1.43608,1.55387,2.73507,2.2047,3.7754-3.34937,3.2531-9.37249.552-13.85358.343-4.27566,6.75515,8.35,8.02434,13.76845,6.42468,1.48323-.43678,4.05286-2.661,4.40456-3.6586,1.50452-4.22935-1.53076-6.083-3.09154-7.60379-3.46584-3.37818-4.25943-8.07439-6.69767-12.54406a7.61525,7.61525,0,0,0-.33659,3.05178l4.10413,9.8503A4.23089,4.23089,0,0,1,140.2201,79.91791Z"/><path class="cls-1" d="M140.72256,79.55662l-4.10413-9.8503c.22316,3.22706,1.89836,7.05269,3.60167,10.21159A4.23089,4.23089,0,0,0,140.72256,79.55662Z"/><path class="cls-1" d="M153.88247,121.6998c13.36763,1.32177,22.46467-4.37706,30.62293-9.61768-.32415-2.0552,2.47079-5.75763,1.69475-8.848-.2691-1.06268-2.68854-2.60471-4.158-4.21185-5.98416-6.52614-14.18377-16.27774-17.44183-23.90286-.36171-.84111-.5795-5.46093-3.10156-3.63226-.30417,11.25986,8.06565,20.58221,14.30515,28.10334,3.04776,3.67114,6.72264,5.769,3.33941,11.47269-5.456,2.07527-14.28391,8.01312-21.86895,6.71516-2.59657-.44329-3.14009-2.50106-3.58689-4.57254a5.04958,5.04958,0,0,0-1.23668,1.73577c-.02985.31223-.04406.49488-.04406.49488a.95333.95333,0,0,1,.04406-.49488c.0754-.78946.25417-2.43632.57514-4.23112a4.92441,4.92441,0,0,0-.31381-.66987A9.06554,9.06554,0,0,0,153.88247,121.6998Z"/><path class="cls-1" d="M152.40677,115.43649s.01421-.18265.04406-.49488A.95333.95333,0,0,0,152.40677,115.43649Z"/><path class="cls-1" d="M153.68751,113.20584a16.33577,16.33577,0,0,0-.66154-2.49535c-.321,1.7948-.49974,3.44166-.57514,4.23112A5.04958,5.04958,0,0,1,153.68751,113.20584Z"/><path class="cls-1" d="M70.0341,92.58855a8.55535,8.55535,0,0,0-5.3657.22139,5.70724,5.70724,0,0,0-1.0906.7635,4.87459,4.87459,0,0,0-1.293,2.67151c-.11946.657-.2502,1.3-.386,1.93335,1.04809-1.06913,2.14622-2.44582,4.09215-1.49025-2.16947,4.23931-1.65017,12.494,1.303,15.175-.01717-5.0292-.79948-13.62929,3.49081-13.36894,3.00211.18275,3.6108,6.61122,6.16794,8.07069C78.44078,99.40343,74.4223,94.11351,70.0341,92.58855Z"/><path class="cls-1" d="M63.5778,93.57344a8.37158,8.37158,0,0,0-2.53488,5.35378,5.46446,5.46446,0,0,0,.85589-.74892c.13583-.63338.26657-1.27635.386-1.93335A4.87459,4.87459,0,0,1,63.5778,93.57344Z"/><path class="cls-1" d="M70.0341,92.58855a6.71028,6.71028,0,0,0-5.3657.22139A8.55535,8.55535,0,0,1,70.0341,92.58855Z"/><path class="cls-1" d="M169.38665,132.83454c11.14353-.23158,16.51563-8.19207,20.31311-15.42035-6.52235,2.9739-11.78178,7.30962-20.30058,8.12823C168.98616,126.948,169.16011,130.50019,169.38665,132.83454Z"/><path class="cls-1" d="M166.66808,133.26889a33.82264,33.82264,0,0,0-.5257-7.31219c-9.66025.28285-22.72254-.1189-29.8299-3.85636C139.56848,130.81559,154.25045,133.88838,166.66808,133.26889Z"/><path class="cls-1" d="M134.96157,129.06953v.00005c-6.278.00753-.98279,3.49834.08059,4.86516,2.202,2.83,4.78424,7.65762,8.80329,9.79421,6.33712,3.36569,18.92749,1.95632,23.49231.09888a7.61912,7.61912,0,0,0,3.67609-4.1793C156.76877,139.989,139.87645,141.40966,134.96157,129.06953Z"/><path class="cls-1" d="M214.94819,232.6416c-.70667.02072-1.39413.06221-2.07194.114q-.27708.354-.55606.70621A14.21606,14.21606,0,0,1,214.94819,232.6416Z"/><path class="cls-1" d="M202.85784,238.71346c3.14763-1.422,6.08473-3.86,9.46235-5.25166q.27973-.35172.55606-.70621a32.23819,32.23819,0,0,0-5.39868.84279Q205.24788,236.23151,202.85784,238.71346Z"/><path class="cls-1" d="M199.66044,237.55166q-.45745.41691-.8767.87544a14.03632,14.03632,0,0,0-1.12966,1.38024,10.79226,10.79226,0,0,0,5.20376-1.09388q2.38349-2.48607,4.61973-5.11508A17.82779,17.82779,0,0,0,199.66044,237.55166Z"/><path class="cls-1" d="M205.35965,241.43132c-.27593.28809-.54764.58039-.82647.86557-.50255.51425-1.01361,1.0197-1.52556,1.52431a116.17851,116.17851,0,0,0,14.78936-1.074C214.7508,241.69644,209.341,240.7557,205.35965,241.43132Z"/><path class="cls-1" d="M205.35965,241.43132c-1.926.32677-3.52225,1.02648-4.34615,2.285.65289.05369,1.3192.0869,1.99412.10487.51195-.50461,1.023-1.01006,1.52556-1.52431C204.812,242.01171,205.08372,241.71941,205.35965,241.43132Z"/><path class="cls-1" d="M200.73066,250.9984c5.62244.47177,12.97467.58964,18.89.46148C215.7843,249.67293,204.05626,247.42628,200.73066,250.9984Z"/><path class="cls-1" d="M58.52989,59.94565l2.7463-3.70739,1.42668-4.63615,2.4337-.57533,1.52178-2.05431-1.45218.12634,4.58858-8.3448,1.41841-1.41817,1.0849-2.33678L78.0598,32.49,80.226,30.324l1.18285-.455.48538-.37982L104.8411,18.22423l1.50517,2.05239.99813-.38392a62.57114,62.57114,0,0,1,7.8887-.19814,109.54513,109.54513,0,0,1,14.64113-6.89375c25.03331-9.59514,51.31809,21.69494,51.31809,21.69494l2.607,4.17074c.20141-.00262.31438.001.31438.001l.68427,1.59662,6.82564,10.91994,6.67511,12.09976.57969,10.43676q1.36893,1.22152,2.6955,2.49c-.68516-12.11023-3.0299-23.51729-7.40317-32.35744-3.83008-7.74528-14.538-18.44314-21.23683-23.5098-15.79839-11.9483-45.00413-13.26759-64.03953-6.2621-5.30639,1.95262-10.44444,3.70121-15.10552,6.43731C81.31978,27.83944,68.085,32.7372,64.38724,47.4679c-7.91171,3.54419-11.02056,12.80821-11.4015,24.04749q1.9508-1.63983,3.9734-3.19225Z"/><path class="cls-2" d="M174.95139,286.58364c-.199-.95685-.40756-1.9081-.61512-2.85487-.31127-1.4202-.62013-2.83029-.891-4.23341s-.50373-2.79955-.66281-4.19244c-1.731-.46195-4.90906,1.22039-7.06436,1.07769-.27664,6.5912.6483,17.16125.95752,24.07567,4.382.00591,6.26078-.9588,9.53131-2.06173q.03467-.76272.03174-1.51844c-.003-1.00773-.05248-2.00645-.13795-2.99714A61.94341,61.94341,0,0,0,174.95139,286.58364Z"/><path class="cls-1" d="M234.21617,244.192a115.00451,115.00451,0,0,0-6.30207-18.6111,11.86969,11.86969,0,0,0-6.04409-6.12407q-.92191,1.59068-1.888,3.15062l3.6426.47514,8.34485,24.6164-1.0415,3.21878.33057,5.95547-6.67512,10.01326-7.50992,1.66872-12.51656-.41706-3.708-4.82031-4.34265.23478-16.27156,4.58954-.82453-6.47141c-.26747.15184-.53206.30827-.80089.4579l.91453,9.34788-15.03837,1.97789,2.93859,40.16041-4.17178,2.50333-1.714.06124-.07956,1.19428-31.70764,2.5033-19.19241-4.172h0l-8.63787-35.05131-2.5033,2.92136L57.69626,269.38885l-1.38261-2.36958L54.77494,266.47l-.04376-2.582-1.19783-13.53608q-1.0269-.85235-2.0336-1.72871c.17075,2.46159.32625,4.93135.48587,7.418.32754,5.08534-.21265,10.46887,1.10741,13.2778,1.36169,2.90136,6.404,3.83222,10.049,5.522,10.52749,4.86918,21.69465,12.30133,35.50189,10.82679,3.29048,11.06487,6.40263,22.85057,10.35313,32.54057,14.157,5.09071,36.50434,4.29574,51.22256,2.52579,4.47345-.54073,9.19467-2.74871,10.24731-6.62738a39.10633,39.10633,0,0,1-.51572-7.58385c4.60358-.95237,10.86686-1.73952,11.8795-6.83026,1.41934-7.14567-4.511-17.37947-2.53462-25.21592,2.666-.86589,5.50978-1.54069,5.08428-5.745,4.49092-2.33694,9.81419-2.8627,15.49915-2.64207a12.14191,12.14191,0,0,0,2.71112,3.55593c7.96176,1.59935,15.67446,1.73073,22.28445-.42678C232.35876,266.77565,235.92967,251.47266,234.21617,244.192ZM176.207,298.39455c-3.27053,1.10293-5.14929,2.06764-9.53131,2.06173-.30922-6.91442-1.23416-17.48447-.95752-24.07567,2.1553.1427,5.33331-1.53964,7.06436-1.07769.15908,1.39289.39192,2.78928.66281,4.19244s.57971,2.81321.891,4.23341c.20756.94677.41609,1.898.61512,2.85487a61.94341,61.94341,0,0,1,1.14935,7.29533c.08547.99069.135,1.98941.13795,2.99714Q176.24091,297.63189,176.207,298.39455Z"/><path class="cls-1" d="M91.90426,38.87992l-6.255,7.29756,1.25165,5.0066C86.76729,47.571,88.57374,43.31288,91.90426,38.87992Z"/><path class="cls-1" d="M173.26836,28.77293l7.924,5.72282A24.4886,24.4886,0,0,0,173.26836,28.77293Z"/><path class="cls-1" d="M86.927,51.89614c-.0087-.23748-.01707-.46841-.0261-.71206-.13855.01731-.27045.03864-.4075.05679l.12764.76547C86.72281,51.96911,86.8251,51.93309,86.927,51.89614Z"/><polygon class="cls-1" points="87.682 91.452 86.484 96.244 88.153 94.158 87.682 91.452"/><path class="cls-1" d="M87.28107,62.86394l-.08284.75976.10113-.034C87.2937,63.35634,87.28757,63.11381,87.28107,62.86394Z"/><path class="cls-1" d="M165.78319,225.87532c2.86881-8.435,4.0967-22.55284,4.52974-33.31558a10.74111,10.74111,0,0,1,2.95262-.90238v-2.47a71.58514,71.58514,0,0,1-12.42264-2.22967l-.86248-.24351.081-.488-1.94084-.69325v-4.338a6.05983,6.05983,0,0,1-.75738,2.42337,5.14886,5.14886,0,0,1-4.62768,2.54928,8.95725,8.95725,0,0,1-2.67394-.44787l-.58183-.18186-.10562-.6004c-.1189-.676-.24122-1.25161-.35989-1.77493a11.08173,11.08173,0,0,1-1.12016.495l-.136,3.47459,5.89781-.76936,4.07247.83863h1.64507l2.14716.781,6.32155,1.30179v.99734l.70967.2581-.83353,15.43692-2.69859,15.6488c.20319.395.31914.61865.31914.61865l-.74835,1.87034-1.04528,6.06153-1.55943-3.96975-1.65355-.20712-11.5-27.12841-4.0619-5.82765a17.77108,17.77108,0,0,1,.81071-1.84186l-.47748-1.12644c-.84078.67408-1.68427,1.387-2.55345,2.12537a47.31731,47.31731,0,0,1-7.85609,5.78209c-1.69265.923-8.93954,4.018-12.41,4.018a3.85642,3.85642,0,0,1-.86735-.086,2.51085,2.51085,0,0,1-1.11474-.57066l-.14767.04444c-.00519-.06778-.011-.13546-.01619-.20315a5.899,5.899,0,0,1-1.17045-2.53277c-.08994-.32073-.18237-.65026-.29384-.97689-.27087-.796-.62486-1.70242-1.01062-2.69008-.38874-.99635-.80354-2.07176-1.20221-3.19047l1.73124,7.50172,3.755,4.58956,9.59669-3.33791-6.67634,12.9346,36.29828,17.10514.2321,2.70818,3.32022-.66407,1.93078-7.90675C166.35843,225.10624,166.07858,225.49925,165.78319,225.87532Zm-6.75019.00977q-2.0272-.611-4.06194-1.31348-2.03295-.70051-4.06283-1.48076c-2.7041-1.03789-5.39469-2.17195-8.04356-3.37177-5.29774-2.39961-10.42844-5.06195-15.16623-7.74248,1.86048-8.06195,9.15031-12.23732,15.77023-16.677a75.1227,75.1227,0,0,1,8.62849,14.509q.92433,1.95648,1.80187,3.95622.44026.99849.87258,2.00436c.86548,2.011,1.71164,4.03981,2.559,6.06751q.84735,2.02776,1.70237,4.04833Z"/><polygon class="cls-1" points="86.107 73.63 85.233 81.642 87.462 90.189 86.484 84.562 86.107 73.63"/><path class="cls-1" d="M44.35721,198.76907l-3.34905-9.903L38.92144,182.191l33.37662-22.94659,1.71561-.68633,5.79434-3.90221,1.16021,1.12008,1.76113-.70453,9.17814,11.26487v-3.387c-1.01343-.22031-1.66819-.368-1.66819-.368l-3.81347-5.958-4.11451-4.47206-1.53923-4.36111-3.88443-6.06892-.41718-6.1191-1.66907-4.729-1.66875-4.58979-10.01321-3.33693-1.32182-2.17157-2.43314-.7485L54.35784,107.093,53.5535,101.058l-.44731-1.47613.18541-.48875-.602-4.51659,3.83293-4.00034.56523-1.49011a84.97383,84.97383,0,0,0-7.11906,6.59186,38.74579,38.74579,0,0,0,5.92195,24.6564,22.11391,22.11391,0,0,0,14.75975,9.4863,31.32258,31.32258,0,0,0,3.067,11.46258c1.1647,2.55588,5.52095,7.15325,3.91736,10.4138-.80673,1.6447-7.89875,5.21564-10.25046,6.62628-7.9401,4.7638-13.69487,7.6826-21.02633,12.96083-4.74266,3.41336-12.15958,3.85136-10.99011,11.728.78862,5.31452,3.81267,11.90077,5.54339,17.23017,1.87269,5.75024,4.557,11.01607,6.097,16.98386a142.0024,142.0024,0,0,1,3.651,21.32326q.98865.9848,2.00159,1.94331l-.851-9.61651Z"/><path class="cls-1" d="M176.7987,241.17429c-.06511.04523-.1297.08981-.22414.15371l1.30778,13.36857c.19875-.1182.39558-.23949.59357-.359Z"/><path class="cls-1" d="M154.889,233.50984c.00711-.16657.0124-.28323.01539-.3488l-8.3448.35011Z"/><path class="cls-1" d="M114.25522,168.94277a10.51984,10.51984,0,0,1,2.6854-2.60644l-14.1848-.41681,11.55833,1.25665Z"/><path class="cls-1" d="M194.96045,119.1915l-9.17833,22.94659-8.76156,12.09975-6.257,6.67507-16.68964,2.5033-22.53,2.50331-3.39428.09687a35.75632,35.75632,0,0,1,6.94384,2.60172q4.88949,2.53461,9.77831,5.06919c1.69485.8789,6.15816.11516,7.84276,1.10089a4.74494,4.74494,0,0,1,3.6928,1.24689,5.93175,5.93175,0,0,1,1.71322,3.55756v-3.238l.39469-2.16985c-.01029-.02863-.02385-.05412-.03386-.08288l-.32565-.9378.58295-.20777.21671-1.1915,14.31015-8.28427v-4.6529l10.01327-10.01326,3.755,3.33824,1.11109,1.16039,17.24692,15.94466-.15856,1.90239.57538.601s-.36826,1.49156-.94589,3.84224l-.30577,3.66767-.50255-.37331c-2.44726,9.98777-6.59055,27.02729-6.59055,27.90946,0,1.25166-9.59523,25.45018-9.59523,25.45018L200.678,226.003l11.27095-3.52192q1.39315-2.05849,2.69485-4.1844c-7.57109.33847-16.29173,4.37318-22.1103,7.26575,4.91025-12.91846,9.13581-26.31271,13.46656-40.803,1.29548-4.342,3.85262-10.49766,3.27809-14.99732-.5345-4.22813-7.13319-8.67522-10.60651-12.0259-1.92882-1.86-10.92444-8.69027-11.4464-11.24737-.5069-2.47327,3.66739-8.07818,5.01039-10.87939a80.01,80.01,0,0,0,4.25686-12.26,147.62311,147.62311,0,0,0,5.278-37.26016q-1.03638-1.12211-2.10006-2.217c-.07966-.08139-.16184-.16015-.24173-.24136l.53828,9.69258Zm-40.06666,53.05639c-6.32585.31293-9.77794-.43805-14.42531-4.07036.07634-.29164.5432-.16146.56074-.51943a13.32255,13.32255,0,0,0,5.36654,1.07147,24.23662,24.23662,0,0,0,3.73334-.28561c.83933-.12348,1.68269-.2799,2.52553-.455q.63209-.13127,1.26315-.27485c.841-.19014,1.67909-.39188,2.50944-.59081.949-.22733,1.88793-.451,2.80972-.64994a33.31331,33.31331,0,0,1,4.00918-.65522C160.27591,167.757,157.74632,170.17768,154.89379,172.24789Z"/><polygon class="cls-1" points="176.318 232.876 175.401 232.925 175.437 233.101 175.769 233.092 176.318 232.876"/><polygon class="cls-1" points="175.769 233.092 176.089 236.36 176.355 237.692 175.769 233.092"/><polygon class="cls-1" points="97.414 249.108 96.914 235.594 96.914 245.607 97.414 249.108"/><path class="cls-1" d="M87.29936,63.58974l-.10113.034-.51691,4.73854.63151-4.20979C87.30866,63.97176,87.304,63.7811,87.29936,63.58974Z"/><path class="cls-1" d="M54.01315,85.15025c-.25183,1.25919-1.95912,2.87129-2.30142,3.69116a25.53938,25.53938,0,0,0-1.743,6.83649A84.97383,84.97383,0,0,1,57.08777,89.086l.60849-1.604-1.181-10.03361q-1.517,1.30207-2.98827,2.65719A13.1619,13.1619,0,0,1,54.01315,85.15025Z"/><path class="cls-1" d="M216.01405,222.08987l3.968.51761q.96985-1.55725,1.888-3.15063a13.69006,13.69006,0,0,0-3.59082-1.00126C217.54818,219.684,216.78944,220.893,216.01405,222.08987Z"/><path class="cls-1" d="M199.12459,78.15473q1.33231,1.26424,2.62506,2.57066-.05192-2.26983-.17578-4.51482-1.32922-1.26518-2.6955-2.49Z"/><path class="cls-1" d="M178.208,258.02578l.40133,4.10291c.26882-.14963.53342-.30605.80088-.45788l-.51452-4.03827C178.66778,257.76571,178.437,257.89424,178.208,258.02578Z"/><path class="cls-1" d="M86.927,51.89614c-.10188.03695-.20417.073-.306.1102l.395,2.36934Q86.97458,53.19611,86.927,51.89614Z"/><path class="cls-1" d="M53.06526,245.06274q-.99589-.88068-1.97068-1.78544.22158,2.66975.40517,5.34586,1.00676.87619,2.03359,1.72871Z"/><path class="cls-1" d="M52.96525,75.47054l.43478-.5.49053-.1647q1.08885-.944,2.2017-1.85921l.86688-4.62347q-2.02279,1.55108-3.9734,3.19225C52.94191,72.80849,52.94,74.13081,52.96525,75.47054Z"/><path class="cls-1" d="M177.88234,254.69657l.32569,3.32921c.229-.13154.45975-.26007.68769-.39324l-.41981-3.295C178.27792,254.45708,178.08109,254.57837,177.88234,254.69657Z"/><path class="cls-1" d="M199.6705,83.87231q1.06676,1.09167,2.10006,2.217.03978-2.69191-.02091-5.364-1.2907-1.30839-2.62506-2.57066l.30418,5.47622C199.50866,83.71216,199.59084,83.79092,199.6705,83.87231Z"/><path class="cls-1" d="M214.64383,218.29669q-1.30137,2.12578-2.69485,4.1844l2.08051-.65012,1.98456.2589c.77539-1.19684,1.53413-2.40583,2.26513-3.63428A19.4822,19.4822,0,0,0,214.64383,218.29669Z"/><path class="cls-1" d="M50.65925,238.54942q.24108,2.36482.43533,4.72788.97478.90453,1.97068,1.78544l-.40442-4.57Q51.6477,239.53446,50.65925,238.54942Z"/><path class="cls-1" d="M56.02658,73.29705l.06568-.35044q-1.11293.91521-2.2017,1.85921l2.22564-.74713Z"/><path class="cls-1" d="M53.89056,74.80582l-.49053.1647-.43478.5.00258.13429C53.27233,75.3349,53.58315,75.0724,53.89056,74.80582Z"/><path class="cls-1" d="M52.9893,76.7366a19.59287,19.59287,0,0,0,.53767,3.36906q1.46836-1.35813,2.98827-2.65719l-.399-3.38978-2.22564.74713c-.30741.26658-.61823.52908-.92273.799C52.97559,75.9825,52.97639,76.35585,52.9893,76.7366Z"/><path class="cls-1" d="M171.75954,28.093A59.485,59.485,0,0,1,181.901,38.81205a16.46654,16.46654,0,0,1,1.89827-.14556l-2.607-4.17074-7.924-5.72282C172.78237,28.5405,172.28183,28.31289,171.75954,28.093Z"/><path class="cls-1" d="M174.00778,50.84511a7.337,7.337,0,0,0,.10894,1.68586c6.14567-5.63246,16.6445-.06137,19.74868,6.1656,1.77516,3.55948,2.47959,8.14623,2.85842,13.14793q1.08927.92411,2.15455,1.8761l-.57969-10.43676-6.67511-12.09976-6.82564-10.91994,3.07068,7.165C183.4813,43.04084,176.97416,48.07069,174.00778,50.84511Z"/><path class="cls-1" d="M60.25167,86.59742q-1.62544,1.21543-3.1639,2.48862l-.56523,1.49011,3.85327-4.02171Z"/><polygon class="cls-1" points="53.106 99.582 53.553 101.058 53.292 99.093 53.106 99.582"/><path class="cls-1" d="M86.10664,73.63014,86.4843,84.562l.97811,5.62661L87.736,91.237l-.05384.21536.47042,2.706L86.4843,96.24364l-5.00661.83484-1.92394-4.23159.25426,3.81478s-.41082-.24809-1.10173-.62435c.37363,1.2821.67678,2.59746.93306,3.87994,3.46407.18532,8.46829-.14763,10.10621-2.85-.23472-6.59625-3.29783-11.88575-3.08762-17.945a43.99475,43.99475,0,0,1,.70293-6.1749c-.413.12816-.81514.26568-1.22321.3981Z"/><path class="cls-1" d="M182.55918,141.44727c-2.8826,4.14295-5.3033,8.66895-9.35864,11.52147-9.77293,6.86283-24.62759,13.08352-37.3466,8.81793-16.80943-5.64125-24.44652-16.84106-33.69062-29.66549.25039,7.04426,5.20554,12.82565,10.09727,18.2153,4.25863,4.69752,9.39724,10.00451,14.92459,12.19363-4.61211-1.0827-11.69033-1.42308-13.61175,2.71608a106.06055,106.06055,0,0,1-10.624-1.1117c.21469.17732.42041.36092.64007.53459.95954.75888-3.79528-.09-7.89384-.92212l7.06021,2.17256,14.1848.41681c2.64568-1.79906,7.13706-1.393,11.209-.31994l3.39428-.09687,22.53-2.50331,16.68964-2.5033,6.257-6.67507,8.76156-12.09975,9.17833-22.94659,5.0066-25.868-.53828-9.69258q-1.0836-1.10078-2.19955-2.16722c.01394.28724.02713.57426.04191.86164C198.37759,103.78873,193.34465,125.933,182.55918,141.44727Z"/><polygon class="cls-1" points="65.432 84.804 71.84 85.297 68.543 83.727 65.432 84.804"/><polygon class="cls-1" points="82.311 152.151 86.426 156.623 80.772 147.79 82.311 152.151"/><polygon class="cls-1" points="74.727 86.673 77.901 89.211 77.305 87.9 74.727 86.673"/><path class="cls-1" d="M57.69626,87.48208l-.60849,1.604q1.54091-1.27155,3.1639-2.48862Z"/><path class="cls-1" d="M87.31792,70.37694l.01843-.09037c.03209-.27654.08532-1.41808-.02352-6.13412l-.63151,4.20979-.54367,4.98327c.40807-.13242.81019-.26994,1.22321-.3981.56294-3.16849,1.34862-6.277,1.96315-9.3731a51.64583,51.64583,0,0,0-1.98766,6.71226C87.32606,70.37469,87.31792,70.37694,87.31792,70.37694Z"/><path class="cls-1" d="M196.98543,76.17643q1.08267.97462,2.13916,1.9783l-.24622-4.43413q-1.06591-.95112-2.15455-1.8761C196.83107,73.26015,196.914,74.70741,196.98543,76.17643Z"/><path class="cls-1" d="M197.22922,81.46373q1.11362,1.06872,2.19955,2.16722l-.30418-5.47622q-1.05707-1.00313-2.13916-1.9783C197.07019,77.919,197.1433,79.68838,197.22922,81.46373Z"/><path class="cls-1" d="M53.53334,250.35187l1.19781,13.53607-.21563-12.727C54.18613,250.89371,53.85978,250.62279,53.53334,250.35187Z"/><path class="cls-1" d="M98.55959,273.02562c.287,2.03682.57762,4.09183.874,6.18876-15.732-.81627-26.38974-8.03267-37.79353-13.79465a22.73891,22.73891,0,0,1-1.02391,3.13552l-4.3025-1.536,1.38262,2.36957,41.72118,14.18624,2.50331-2.92137-1.184-7.12734C100.00873,273.36582,99.28236,273.20056,98.55959,273.02562Z"/><path class="cls-1" d="M51.80982,230.87622l.851,9.61651q.842.79628,1.7006,1.57356l-.0036-.21287Z"/><polygon class="cls-1" points="38.921 182.191 74.014 158.558 72.298 159.244 38.921 182.191"/><polygon class="cls-1" points="44.357 198.769 43.511 195.126 38.921 182.191 41.008 188.866 44.357 198.769"/><path class="cls-1" d="M95.94019,202.10511l.56037.68371A1.06645,1.06645,0,0,0,95.94019,202.10511Z"/><path class="cls-1" d="M97.62456,254.79105l-.2103-5.68293-.50012-3.50068V235.59418l39.09519-2.08126,10.55023-.00177,8.3448-.35011.00318-.06918,6.25831-2.50429-36.29828-17.10514,6.67634-12.9346-9.59669,3.33791-3.755-4.58956-1.73124-7.50172c-.39651-1.11278-.77165-2.27065-1.085-3.458a41.017,41.017,0,0,1-2.84036-9.25738l-6.848-3.08168-4.182-.89448-3.85988-2.72436-.43776-.197-.2821-.31115-2.51364-1.77412.40946-.54629-2.91426-3.21372-3.10394,1.38692A16.1464,16.1464,0,0,0,90.4496,169.483l-.00009,0c6.21911,4.417,13.94423,7.90544,21.16956,11.35a83.4079,83.4079,0,0,0,3.26218,13.35894c1.9841,6.34713,3.62048,15.30622,12.008,10.73182-.79695,3.62351-5.45634,5.875-4.17055,10.10176.80589,2.65247,9.609,5.9283,12.40169,7.50266,5.15156,2.90365,9.8503,4.50981,13.80554,6.20694a473.40946,473.40946,0,0,0-47.42174,3.69041v1.50143H94.82788s-.83362-17.52317-.83362-19.6099c0-2.08626.83362-9.59621.83362-9.59621l1.11231-2.61571c-2.36887-.84246-2.81281,3.95885-2.897,5.01643-.44394,5.63246,2.67946,17.55592-.40086,24.29488-3.37112-.953-5.03107-3.491-8.192-4.64008-1.23939,3.90272,2.56688,4.09048,2.17715,6.56885-.50316,3.18809-6.3781.70237-6.66469,5.05231l16.11669-.71561v6.67483l-1.13462-.17728c.70762,7.19175,1.60574,14.26577,2.60373,21.56818.65761.17733,1.31831.34619,1.98083.51083Z"/><polygon class="cls-1" points="80.968 155.776 91.907 166.336 82.729 155.071 80.968 155.776"/><path class="cls-1" d="M97.98959,268.96177c.18659,1.34169.378,2.70074.57,4.06385.72277.17494,1.44914.3402,2.17714.50078l-.67281-4.05053C99.36936,269.31281,98.6791,269.1383,97.98959,268.96177Z"/><path class="cls-1" d="M54.43221,246.245c-.45769-.39169-.91562-.783-1.36695-1.18224l.46808,5.28913c.32644.27092.65279.54184.98218.80912Z"/><path class="cls-1" d="M97.54864,265.74762c.14608,1.06877.2908,2.13411.441,3.21415.68951.17653,1.37977.351,2.07433.5141l-.53445-3.21742C98.867,266.09381,98.20625,265.925,97.54864,265.74762Z"/><path class="cls-1" d="M54.36144,242.06629q-.85843-.77768-1.7006-1.57356l.40442,4.57c.45133.39923.90926.79055,1.36695,1.18224Z"/><polygon class="cls-1" points="104.841 18.224 81.894 29.489 81.409 29.869 106.346 20.277 104.841 18.224"/><path class="cls-1" d="M91.90426,38.87992a66.8718,66.8718,0,0,1,14.68561-13.7133c-.16633.05038-.32621.09944-.49712.15071-1.84864.55461-3.58278,1.15656-5.23169,1.78821-1.94079,1.80177-4.36822,3.01371-6.45121,5.32126-2.558,2.82876-5.41967,10.43124-8.81044,11.2724-1.70144.423-3.64106-.29417-5.12153-.19777a14.57119,14.57119,0,0,0-3.20862.60083A22.97268,22.97268,0,0,0,74.80141,48.264l-8.14306.7085-1.52178,2.05431,20.51266-4.8493Z"/><path class="cls-1" d="M61.27619,56.23826l-2.7463,3.70739-1.57075,8.37749c.25735-.19734.51882-.38926.77786-.58441Z"/><polygon class="cls-1" points="72.298 36.999 71.213 39.336 78.06 32.49 72.298 36.999"/><path class="cls-1" d="M86.621,52.00634l-.12764-.76547c-.30194.04-.60242.08083-.89734.125.06142.316.11844.63291.16577.9515C86.04672,52.21047,86.33509,52.11088,86.621,52.00634Z"/><path class="cls-1" d="M60.25167,86.59742l.12414-.043.1814-.18925C60.454,86.44162,60.35444,86.52057,60.25167,86.59742Z"/><path class="cls-1" d="M65.43177,84.80421l3.11133-1.07709L71.84,85.29736l1.29262.09949,1.59461,1.27569,2.57744,1.22757.59619,1.31129L79.391,90.40346l.16278,2.44343,1.92394,4.23159,5.00661-.83484,1.19781-4.79125-.2197-1.26382-2.22976-8.54672.874-8.01171-.00936-.27149c-.74152.241-1.48884.477-2.214.73194a32.51107,32.51107,0,0,0,.39847,10.61156c.86052,3.74621,3.84056,9.56141-.91674,9.6878.08981-7.68-6.748-13.33611-14.30384-13.55675q-3.1533,1.79665-6.04538,3.785Z"/><path class="cls-1" d="M87.28107,62.86394c-.0283-1.09776-.06409-2.35536-.10894-3.79776-.43216.16713-.86585.331-1.2953.50368-.132,1.5482-.33607,3.11325-.57107,4.68919l1.89247-.63535Z"/><path class="cls-1" d="M60.55721,86.36519,62.28484,84.562l.73091.05622q2.893-1.9863,6.04538-3.785A15.46811,15.46811,0,0,0,61.79642,82.409c.24889,1.35128.48842,2.153.48842,2.153l-4.58858,2.92012,2.55541-.88466C60.35444,86.52057,60.454,86.44162,60.55721,86.36519Z"/><path class="cls-1" d="M86.06627,72.46221l.615-4.1.51691-4.73854-1.89247.63535c-.48464,3.25067-1.08972,6.54625-1.42252,9.83154.7252-.25493,1.47252-.491,2.214-.73194Z"/><path class="cls-1" d="M57.737,67.73873c-.259.19515-.52051.38707-.77786.58441l-.86688,4.62347.05645-.04649Z"/><path class="cls-1" d="M87.016,54.37568l-.395-2.36934c-.28593.10454-.5743.20413-.85921.311a25.60365,25.60365,0,0,1,.2597,3.13046c.33968-.131.67683-.26723,1.0181-.39492C87.0319,54.83066,87.024,54.60436,87.016,54.37568Z"/><path class="cls-1" d="M56.14871,72.90012l-.05645.04649-.06568.35044Z"/><path class="cls-1" d="M87.03961,55.05289c-.34127.12769-.67842.2639-1.0181.39492a37.65359,37.65359,0,0,1-.14468,4.12205c.42945-.1727.86314-.33655,1.2953-.50368C87.13461,57.86168,87.09069,56.52789,87.03961,55.05289Z"/><polygon class="cls-1" points="87.462 90.189 87.682 91.452 87.736 91.237 87.462 90.189"/><path class="cls-1" d="M86.09728,73.35865l.00936.27149.031-.28463Z"/><path class="cls-1" d="M86.68132,68.36224l-.615,4.1.031.89644.04037-.01314Z"/><polygon class="cls-1" points="71.213 39.336 69.795 40.754 65.206 49.099 66.658 48.972 66.874 48.681 71.213 39.336"/><path class="cls-1" d="M115.2331,19.69456a62.57114,62.57114,0,0,0-7.8887.19814l-.99813.38392,2.46322,3.35887C110.84237,22.27831,112.99122,20.96136,115.2331,19.69456Z"/><polygon class="cls-1" points="80.226 30.324 78.06 32.49 81.409 29.869 80.226 30.324"/><path class="cls-1" d="M77.26926,44.10226c-2.42917.70929-4.63227,1.81926-7.43629,2.22663,5.12831-11.211,21.12265-20.27925,33.60254-23.81647.68441-.194,1.2858.27162,1.85692.88241-.07479,1.97886-2.02311,1.93513-3.3409,2.5709a11.28767,11.28767,0,0,1-1.09047,1.13981c1.64891-.63165,3.38305-1.2336,5.23169-1.78821.17091-.05127.33079-.10033.49712-.15071.7253-.51471,1.46289-1.02591,2.21962-1.53113l-2.46322-3.35887L81.40889,29.869,78.0598,32.49l-6.84664,6.84585L66.8744,48.68078l-.216.29169,8.14306-.7085A22.97268,22.97268,0,0,1,77.26926,44.10226Z"/><polygon class="cls-1" points="62.703 51.602 61.276 56.238 65.137 51.027 62.703 51.602"/><path class="cls-1" d="M85.64923,46.17748l.84415,5.06339c.13705-.01815.269-.03948.4075-.05679Z"/><path class="cls-1" d="M60.32156,65.85a16.42226,16.42226,0,0,1,3.66968-8.13357A30.23793,30.23793,0,0,1,84.624,47.98234a19.26723,19.26723,0,0,1,.972,3.38351c.29492-.04415.5954-.085.89734-.125l-.84415-5.06339-20.51266,4.8493-3.86038,5.21148L57.737,67.73873Q59.0153,66.77582,60.32156,65.85Z"/><path class="cls-1" d="M62.28484,84.562s-.23953-.80172-.48842-2.153a15.89518,15.89518,0,0,0-1.49657.8238c-.21268-2.57655-.4728-5.48652-.55278-8.45149q-1.642,1.30144-3.23183,2.6672l1.181,10.03361Z"/><path class="cls-1" d="M60.32156,65.85q-1.30545.92684-2.58456,1.88872l-1.58829,5.16139q1.80205-1.48,3.66478-2.88359A33.27821,33.27821,0,0,1,60.32156,65.85Z"/><path class="cls-1" d="M59.81349,70.01653q-1.8631,1.40262-3.66478,2.88359l-.12213.39693.08962.76164,3.60949-1.2118C59.72887,71.89955,59.75581,70.95386,59.81349,70.01653Z"/><path class="cls-1" d="M59.72569,72.84689l-3.60949,1.2118.399,3.38978q1.5903-1.36494,3.23183-2.6672Q59.721,73.81618,59.72569,72.84689Z"/><polygon class="cls-1" points="76.888 141.721 80.772 147.79 76.47 135.602 76.888 141.721"/><path class="cls-1" d="M86.42583,156.62336l3.81347,5.958s.65476.14767,1.66819.368v-.368Z"/><path class="cls-1" d="M95.69561,163.747c4.09856.83213,8.85338,1.681,7.89384.92212-.21966-.17367-.42538-.35727-.64007-.53459-6.4071-1.09149-11.87842-3.20207-15.22311-7.99408-4.01021-5.74888-8.08445-15.52181-9.91209-23.073a26.3107,26.3107,0,0,1-.85654-5.70379c.6004-3.27556,6.43666-4.71375,4.14122-9.29353h-.00009l-5.4628,5.29319.83451,12.23891,4.30161,12.188,5.65374,8.83317,5.48166,5.958Z"/><polygon class="cls-1" points="53.553 101.058 54.358 107.093 59.364 120.026 61.798 120.775 57.278 113.35 53.553 101.058"/><polygon class="cls-1" points="52.69 94.576 53.292 99.093 56.523 90.576 52.69 94.576"/><polygon class="cls-1" points="77.901 89.211 79.554 92.847 79.391 90.403 77.901 89.211"/><polygon class="cls-1" points="71.84 85.297 74.727 86.673 73.133 85.397 71.84 85.297"/><path class="cls-1" d="M60.55721,86.36519l-.1814.18925,5.056-1.75023-2.416-.186C62.18194,85.19067,61.35959,85.771,60.55721,86.36519Z"/><path class="cls-1" d="M62.28484,84.562l-1.72763,1.80318c.80238-.59423,1.62473-1.17452,2.45854-1.747Z"/><path class="cls-1" d="M116.84038,21.307l.88779-.38046q1.0245-.53022,2.01455-1.02382a26.68994,26.68994,0,0,1,4.26522-1.66738l8.78762-3.766,25.86694,3.75495,14.60586,10.5487a24.4886,24.4886,0,0,1,7.924,5.72282S154.90754,3.20567,129.87423,12.80081a109.54513,109.54513,0,0,0-14.64113,6.89375C117.21313,19.84541,118.3868,20.28018,116.84038,21.307Z"/><path class="cls-1" d="M111.57964,23.56154c-.68787.23883-1.43777.49025-2.26863.7578l.11965.16315Z"/><path class="cls-1" d="M86.90088,51.18408c.009.24365.0174.47458.0261.71206.5315-.19257,1.06179-.38786,1.59694-.57253l-.0521-5.08233.00037-.00056a30.1509,30.1509,0,0,1,4.21686-6.74145L94.816,36.099l-1.65681,1.31691-1.25488,1.46405C88.57374,43.31288,86.76729,47.571,86.90088,51.18408Z"/><path class="cls-1" d="M87.4024,63.55518l.72932-4.86217c-.1385.052-.2749.10815-.41317.16067l-.43748,4.01026c.0065.24987.01263.4924.01829.7258Z"/><path class="cls-1" d="M87.31283,64.15245l.08957-.59727-.103.03456C87.304,63.7811,87.30866,63.97176,87.31283,64.15245Z"/><path class="cls-1" d="M87.1239,55.02258c.47519-.17728.95449-.34543,1.43267-.51616l-.03265-3.18281c-.53515.18467-1.06544.38-1.59694.57253q.04757,1.29836.08906,2.47954Z"/><path class="cls-1" d="M87.71855,58.85368c.13827-.05252.27467-.10865.41317-.16067l.43786-2.91913-.013-1.26746c-.47818.17073-.95748.33888-1.43267.51616l.612,3.67141Z"/><path class="cls-1" d="M94.816,36.099l-2.1269,3.40031c6.3258-7.815,16.52261-14.16468,25.03912-18.57275l-.88779.38046a26.38524,26.38524,0,0,1-5.26074,2.25456l-2.149.92095Z"/><path class="cls-1" d="M88.47186,46.24132l.00033-.0006-.00037.00056.0521,5.08233c.4468-.15421.8978-.29875,1.34708-.44735A22.03294,22.03294,0,0,0,88.47186,46.24132Z"/><path class="cls-1" d="M168.40044,25.83934v.00005a28.29491,28.29491,0,0,1,3.3591,2.25361c.52229.21989,1.02283.4475,1.50882.67993L158.6625,18.22423l-25.86694-3.75495-8.78762,3.766C137.729,14.13067,156.71465,19.24608,168.40044,25.83934Z"/><path class="cls-1" d="M87.4024,63.55518l2.05843-.6911a48.11017,48.11017,0,0,0,.69825-4.90328c-.67833.2386-1.35539.48-2.02736.73221Z"/><path class="cls-1" d="M87.31283,64.15245c.10884,4.716.05561,5.85758.02352,6.13412A51.64583,51.64583,0,0,1,89.324,63.57431c.047-.23682.09205-.47355.13682-.71023l-2.05843.6911Z"/><path class="cls-1" d="M87.33635,70.28657l-.01843.09037S87.32606,70.37469,87.33635,70.28657Z"/><path class="cls-1" d="M90.23336,53.922a23.51151,23.51151,0,0,0-.36236-3.0457c-.44928.1486-.90028.29314-1.34708.44735l.03265,3.18281Q89.3922,54.208,90.23336,53.922Z"/><path class="cls-1" d="M88.56958,55.77388,88.13172,58.693c.672-.25216,1.349-.49361,2.02736-.73221a29.16728,29.16728,0,0,0,.07428-4.03884q-.84174.28479-1.67679.58446Z"/><path class="cls-1" d="M94.816,36.099l1.26358-2.02,13.35113-9.59645-.11965-.16315c-.82918.26694-1.74017.55021-2.72114.84728a66.8718,66.8718,0,0,0-14.68561,13.7133l1.25488-1.46405Z"/><path class="cls-1" d="M87.17213,59.06618c.04485,1.4424.08064,2.7.10894,3.79776l.43748-4.01026C87.5358,58.92319,87.3545,58.99574,87.17213,59.06618Z"/><path class="cls-1" d="M87.016,54.37568c.008.22868.01586.455.02357.67721.02793-.01043.05637-.01983.08429-.03031Z"/><path class="cls-1" d="M87.736,58.694l-.612-3.67141c-.02792.01048-.05636.01988-.08429.03031.05108,1.475.095,2.80879.13252,4.01329.18237-.07044.36367-.143.54642-.2125Z"/><polygon class="cls-1" points="96.08 34.079 94.816 36.099 109.431 24.482 96.08 34.079"/><path class="cls-1" d="M109.311,24.31934c.83086-.26755,1.58076-.519,2.26863-.7578l5.26074-2.25456c1.54642-1.0268.37275-1.46157-1.60728-1.61242-2.24188,1.2668-4.39073,2.58375-6.42361,3.94093Z"/><path class="cls-1" d="M111.57964,23.56154a26.38524,26.38524,0,0,0,5.26074-2.25456Z"/><path class="cls-1" d="M108.80949,23.63549c-.75673.50522-1.49432,1.01642-2.21962,1.53113.981-.29707,1.892-.58034,2.72114-.84728Z"/><path class="cls-1" d="M184.11366,38.66752s-.113-.00365-.31438-.001l.99865,1.59765Z"/><path class="cls-1" d="M186.56817,44.90959c-6.6289-1.96782-12.34822.90281-12.56039,5.93552,2.96638-2.77442,9.47352-7.80427,13.86083-3.416l-3.07068-7.165-.99865-1.59765a16.46654,16.46654,0,0,0-1.89827.14556C183.50544,40.87333,185.04873,42.94865,186.56817,44.90959Z"/><polygon class="cls-1" points="54.731 263.888 54.775 266.47 56.314 267.019 54.775 264.382 54.731 263.888"/><polygon class="cls-1" points="74.014 158.558 80.968 155.776 79.808 154.656 74.014 158.558"/><polygon class="cls-1" points="50.603 217.237 44.357 198.769 51.81 230.876 50.603 217.237"/><path class="cls-1" d="M61.64005,265.41973c-1.0609-.536-2.126-1.064-3.20456-1.56846q-.14-4.97508-.4438-9.98407-1.76353-1.32081-3.47617-2.70621l.21563,12.727.04378.49432,1.53871,2.637,4.3025,1.536A22.73891,22.73891,0,0,0,61.64005,265.41973Z"/><path class="cls-1" d="M42.119,183.00464c11.60226-8.95558,24.58578-18.42434,38.47126-23.90033.81112-.31971,5.56285,5.54873,8.21327,8.61894l3.10394-1.38692L80.96822,155.776l-6.95455,2.78213L38.92144,182.191l4.59,12.93459.84574,3.64344,6.24567,18.46831,1.20694,13.63884,2.548,10.9772.0036.21287c.95875.86857,1.92872,1.72427,2.91768,2.55733C55.26018,222.86076,50.663,201.33805,42.119,183.00464Z"/><path class="cls-1" d="M54.43221,246.245l.08331,4.916q1.71055,1.38759,3.47617,2.70621-.15-2.48662-.34449-4.97438Q56.01479,247.59924,54.43221,246.245Z"/><path class="cls-1" d="M57.27912,244.62362c-.989-.83306-1.95893-1.68876-2.91768-2.55733l.07077,4.17869q1.58252,1.35428,3.215,2.64784C57.5369,247.46894,57.41117,246.04628,57.27912,244.62362Z"/><path class="cls-1" d="M93.99426,214.317c0,2.08673.83362,19.6099.83362,19.6099h6.67629V232.4255c-1.35358.17307-2.70846.34281-4.0581.5265-1.989-3.08317-1.18655-7.83542-1.39586-12.74684-.20333-4.71744,1.50667-14.67055.45035-17.41634l-.56037-.68371-1.11231,2.61571S93.99426,212.23077,93.99426,214.317Z"/><path class="cls-1" d="M96.07953,237.68189l-16.11669.71561c-.00795.12091-.02858.22634-.02764.3581,4.04332.64732,10.242-1.25656,14.56259.56477q.20817,2.44334.44712,4.85907l1.13462.17728Z"/><polygon class="cls-1" points="175.437 233.101 176.089 236.36 175.769 233.092 175.437 233.101"/><path class="cls-1" d="M164.15,268.86817c.27359-.1044.54582-.2118.81847-.3183q-.14636-1.97971-.28116-3.9545c-.274.11006-.55129.21339-.82647.32134Z"/><path class="cls-1" d="M164.68726,264.59537q-.10869-1.58946-.20988-3.17705c-.28257.11722-.56285.23907-.84668.35385l.23009,3.14454C164.136,264.80876,164.41325,264.70543,164.68726,264.59537Z"/><path class="cls-1" d="M187.86861,232.25725s9.59523-24.19852,9.59523-25.45018c0-.88217,4.14329-17.92169,6.59055-27.90946l-1.50386-1.11717c-.34637,1.9253-.823,3.94575-1.07138,5.18416-2.0502,10.13464-6.65879,23.5237-11.04835,34.14378-1.59586,3.86005-3.12162,8.68536-5.22939,9.51894-5.76642,2.28327-12.76569-.22157-17.66588,2.82886,6.58746-11.4291,13.75816-22.22462,20.21423-33.78978-.98378-2.29553-3.39451-3.27308-4.09543-5.82644,3.09809-5.84907,3.10333-20.10084-.89144-26.75884l-4.7043-3.49461a6.49906,6.49906,0,0,0-3.52384.72562,9.99446,9.99446,0,0,1,1.8884-1.9405l-1.07106-.79565,7.92673-8.76161-10.01327,10.01326v4.6529l1.54456-.89415,5.00661,1.66846,2.5033,7.51a1.57044,1.57044,0,0,0-.68188-.73933,52.16543,52.16543,0,0,1,1.23537,8.9699c.09238,1.91857.09336,6.65922-1.89022,9.23685l-.312.40582-.51092-.01469c-2.38973-.07-4.68372-.22064-6.89487-.43594v2.47c4.70412-.71767,8.60314,2.20029,10.6466,5.48067-5.51865,9.45192-10.82233,19.13452-17.2632,27.5869l-1.93078,7.90675,10.21585-2.04313.46742,2.33655.91674-.04911,4.75019-1.86637Z"/><polygon class="cls-1" points="187.034 152.153 183.279 148.814 188.145 153.313 187.034 152.153"/><path class="cls-1" d="M205.8086,171.761l-.57538-.601-.37051,4.4432C205.44034,173.25257,205.8086,171.761,205.8086,171.761Z"/><polygon class="cls-1" points="168.749 233.281 175.437 233.101 175.401 232.925 168.749 233.281"/><polygon class="cls-1" points="161.398 233.296 161.414 233.48 164.532 233.395 164.718 232.632 161.398 233.296"/><path class="cls-1" d="M176.355,237.69166l-.26643-1.3315.486,4.96784c.09444-.0639.159-.10848.22414-.15371Z"/><polygon class="cls-1" points="174.934 230.589 164.718 232.632 164.532 233.395 168.749 233.281 175.401 232.925 174.934 230.589"/><polygon class="cls-1" points="164.504 233.509 168.749 233.281 164.532 233.395 164.504 233.509"/><path class="cls-1" d="M204.55694,179.27092l.30577-3.66767c-.23733.96581-.50989,2.07639-.80832,3.29436Z"/><polygon class="cls-1" points="205.392 169.258 188.145 153.313 205.233 171.16 205.392 169.258"/><path class="cls-1" d="M176.42315,158.37163c1.947-1.61725,4.53446-3.22093,5.95572-5.31907,4.88026,3.93018,7.82657,7.62886,12.50533,11.83183,2.5396,2.27555,7.53241,5.00413,8.03683,8.68405a16.03862,16.03862,0,0,1-.3705,4.212l1.50386,1.11717c.29843-1.218.571-2.32855.80832-3.29436l.37051-4.4432L188.14486,153.313l-4.866-4.49863-7.92673,8.76161Z"/><path class="cls-1" d="M178.05859,159.58651l4.7043,3.49461C181.56447,161.08378,180.00218,159.78381,178.05859,159.58651Z"/><path class="cls-1" d="M138.72667,315.4598a101.13414,101.13414,0,0,1-26.49054-4.14778,304.70106,304.70106,0,0,1-9.61731-37.38584q-.858-.17364-1.71084-.36161l1.01277,7.08917,8.63789,35.0513h0l19.19239,4.172,31.70764-2.5033.07956-1.19431-33.33279,1.19042A81.61505,81.61505,0,0,0,138.72667,315.4598Z"/><path class="cls-1" d="M146.55956,233.51115l-49.64542,2.083.50012,13.51394L99.87668,266.345q.7097.17373,1.42271.33912c-1.517-8.87293-2.75416-18.04457-3.81413-27.78911,16.44655-3.07648,39.52847-5.76567,57.32293-3.24539.03377-.99808.06287-1.72267.08078-2.13981Z"/><path class="cls-1" d="M100.33246,269.53574l.57552,4.02883q.85331.18684,1.71084.36161-.38814-2.01576-.75495-4.04949C101.35238,269.766,100.84132,269.6538,100.33246,269.53574Z"/><path class="cls-1" d="M100.33246,269.53574c.50886.11806,1.01992.23023,1.53141.341-.19126-1.06105-.38164-2.12321-.56448-3.19254q-.71349-.164-1.42271-.33912Z"/><path class="cls-1" d="M100.73673,273.5264l1.184,7.12734-1.01277-7.08917C100.85086,273.552,100.79389,273.539,100.73673,273.5264Z"/><polygon class="cls-1" points="96.914 235.594 146.56 233.511 136.009 233.513 96.914 235.594"/><path class="cls-1" d="M99.52947,266.25845c.11572.02877.23126.05819.34721.08658l-2.46242-17.23691.2103,5.68293Z"/><path class="cls-1" d="M100.06392,269.47587l.67281,4.05053c.05716.01263.11413.02563.17125.03817l-.57552-4.02883C100.24326,269.515,100.15307,269.49678,100.06392,269.47587Z"/><path class="cls-1" d="M99.52947,266.25845l.53445,3.21742c.08915.02091.17934.03915.26854.05987l-.45578-3.19071C99.76073,266.31664,99.64519,266.28722,99.52947,266.25845Z"/><path class="cls-1" d="M163.305,269.19082c-.49764.18528-.99906.36218-1.49993.54049,1.442,13.908.36859,29.59191,3.06442,42.53656-1.01745.31536-2.064.603-3.12878.87179l-.2024,3.03977,1.71407-.06123,4.17177-2.5033-2.93859-40.16044-.81637.10739Z"/><path class="cls-1" d="M161.19443,262.722c.51022-.19149,1.01576-.39277,1.52229-.592l-2.3845-28.6211-.36114,7.15391C160.7539,248.07225,160.73075,255.41578,161.19443,262.722Z"/><path class="cls-1" d="M156.57722,233.09087l-1.67286.07017c-.003.06557-.00828.18223-.01539.3488l5.44325-.00094,1.06573-.21315-.2321-2.70818Z"/><path class="cls-1" d="M161.42905,265.83692c.08172.94148.15988,1.88306.26746,2.82343.04037.354.07157.71453.10852,1.071.50087-.17831,1.00229-.35521,1.49993-.54049l-.32747-3.93064Q162.20626,265.5548,161.42905,265.83692Z"/><path class="cls-1" d="M161.42905,265.83692q.77678-.28311,1.54844-.57674l-.26077-3.13018c-.50653.19921-1.01207.40049-1.52229.592Q161.29336,264.28044,161.42905,265.83692Z"/><path class="cls-1" d="M154.90436,233.161l1.67286-.07017,4.58863-2.5033-6.25831,2.50429Z"/><path class="cls-1" d="M163.305,269.19082l.36419,4.371.81637-.10739-.33557-4.58629C163.86827,268.97566,163.58772,269.08563,163.305,269.19082Z"/><path class="cls-1" d="M162.71672,262.13c.30441-.11979.61093-.23528.914-.35783l-1.2132-16.58033-2.08528-11.68294Z"/><path class="cls-1" d="M162.97749,265.26018l.32747,3.93064c.28276-.10519.56331-.21516.845-.32265l-.28916-3.95146C163.56676,265.032,163.27273,265.14736,162.97749,265.26018Z"/><path class="cls-1" d="M162.97749,265.26018c.29524-.11282.58927-.22817.8833-.34347l-.23009-3.14454c-.303.12255-.60957.238-.914.35783Z"/><polygon class="cls-1" points="160.332 233.509 161.414 233.48 161.398 233.296 160.332 233.509"/><polygon class="cls-1" points="162.418 245.192 161.414 233.48 160.332 233.509 162.418 245.192"/><path class="cls-1" d="M154.80819,235.64965c1.58.22382,3.13355.47355,4.62156.78311.21713,1.41256.39263,2.8224.54133,4.23005l.36114-7.15391-5.44325.00094C154.87106,233.927,154.842,234.65157,154.80819,235.64965Z"/><path class="cls-1" d="M185.78212,264.80029,181.19223,266.47l-.985-5.25475q-.39726.22971-.797.45559l.82455,6.47141,16.27152-4.58956,4.34269-.23476-.46382-.60289Z"/><path class="cls-1" d="M222.67467,228.34831c1.361,2.05749,2.66833,6.4499,3.76539,10.84544a26.529,26.529,0,0,0-.18818-3.18154l4.58984,13.35117.08626,1.55442,1.04149-3.21877-8.34484-24.61641-3.64261-.47514q-.682,1.09509-1.38856,2.17246A11.28024,11.28024,0,0,1,222.67467,228.34831Z"/><path class="cls-1" d="M190.72652,255.46171a4.32229,4.32229,0,0,1,1.73067-.25665l-.3792-1.89659c-.46888.35722-.94322.70757-1.41771,1.05754C190.68344,254.73221,190.70781,255.09874,190.72652,255.46171Z"/><path class="cls-1" d="M187.86861,232.25725l-11.55043.61874-.54932.21587.58614,4.5998.66556,3.32715s-.09168.06507-.22186.15548l1.67721,13.16328q1.77105-1.06906,3.50069-2.201c-.91024-5.92045-1.93845-11.80984-2.4953-17.356,1.98634-.03859,4.40709-.4967,6.48605-.02007a35.77906,35.77906,0,0,1,3.80159,11.72079q.40834-.32527.8129-.6549Z"/><path class="cls-1" d="M187.86861,232.25725,193.292,230.172s.16063.92839.4133,2.41c4.1169-2.5898,10.39434-3.95483,15.398-6.09315q1.4664-1.96911,2.8456-4.00768L200.678,226.003Z"/><path class="cls-1" d="M179.94067,259.79364s1.23379-.56916,2.931-1.30694c-.12816-1.01147-.26157-2.02321-.40629-3.03776q-1.76409,1.12344-3.56963,2.1836l.51452,4.03827q.39917-.22656.797-.45559Z"/><path class="cls-1" d="M190.27252,249.99367c.1711,1.463.29622,2.927.38776,4.37234.47449-.35.94883-.70032,1.41771-1.05754l-.81772-4.08939C190.93106,249.47741,190.60462,249.73912,190.27252,249.99367Z"/><path class="cls-1" d="M214.78827,223.94075a6.94224,6.94224,0,0,1,3.80519.83919q.70535-1.07826,1.38856-2.17246l-3.968-.51761Q215.41,223.022,214.78827,223.94075Z"/><path class="cls-1" d="M178.47591,254.33757l.41981,3.295q1.80795-1.05609,3.56963-2.1836-.23631-1.65667-.48875-3.31237Q180.25033,253.27306,178.47591,254.33757Z"/><path class="cls-1" d="M189.76894,246.48134c.1979,1.15969.36573,2.33379.50358,3.51233.3321-.25455.65854-.51626.98775-.77459l-.67843-3.39264Q190.1768,246.15565,189.76894,246.48134Z"/><path class="cls-1" d="M211.949,222.48109q-1.37933,2.038-2.8456,4.00768a23.68421,23.68421,0,0,0,3.4504-1.77024,5.02344,5.02344,0,0,1,2.23449-.77778q.62149-.919,1.22578-1.85088l-1.98456-.2589Z"/><polygon class="cls-1" points="181.068 231.01 176.318 232.876 187.869 232.257 181.068 231.01"/><path class="cls-1" d="M176.355,237.69166l.4437,3.48263c.13018-.09041.22186-.15548.22186-.15548Z"/><path class="cls-1" d="M225.19159,262.00221a10.81994,10.81994,0,0,1-5.57474,3.5026c-4.74256,1.15142-12.01588,1.45457-15.12249-.04588,3.25848-1.78044,7.91414-2.04758,11.94974-2.98392l-15.5951.84289,3.70794,4.8203,12.51657.41705,7.50991-1.6687,6.67512-10.01326-.33056-5.95549L227.37963,261.884Z"/><path class="cls-1" d="M226.25188,236.01221a26.529,26.529,0,0,1,.18818,3.18154c.78151,3.13121,1.45718,6.2641,1.9659,8.55523a16.41807,16.41807,0,0,1-3.21437,14.25323l2.188-.11825L230.928,250.9178l-.08626-1.55442Z"/><path class="cls-1" d="M218.404,261.94547c-6.302-2.71407-15.62561-.15646-23.20316-.62879-.31255-3.19633-.59979-6.48306-.92946-9.72162q-1.086.87029-2.19337,1.71341l.3792,1.89659a4.32229,4.32229,0,0,0-1.73067.25665c.122,2.3728.151,4.66941.11731,6.77031-2.57094.49576-4.24067,1.96988-7.366,1.87259-.12321-1.50859-.28973-3.03116-.47271-4.55827q-1.38514.8559-2.79789,1.66888l.985,5.25475,4.58989-1.66968,14.60306-2.08528.46382.60289,15.5951-.84289C217.11645,262.319,217.77574,262.149,218.404,261.94547Z"/><path class="cls-1" d="M187.86861,232.25725l2.71323,13.56919q1.376-1.11817,2.71337-2.28323a65.93254,65.93254,0,0,0-1.91567-9.11172,11.78678,11.78678,0,0,1,2.32579-1.84957c-.25267-1.48156-.4133-2.41-.4133-2.41Z"/><path class="cls-1" d="M179.94067,259.79364l.26653,1.42158q1.41067-.81627,2.79789-1.66888c-.04233-.35264-.08864-.70635-.13345-1.05964C181.17446,259.22448,179.94067,259.79364,179.94067,259.79364Z"/><path class="cls-1" d="M191.26027,249.21908l.81772,4.08939q1.10715-.8435,2.19337-1.71341c-.15132-1.48628-.31082-2.96315-.48726-4.41491Q192.53767,248.21884,191.26027,249.21908Z"/><path class="cls-1" d="M191.26027,249.21908q1.27632-1.00158,2.52383-2.03893-.22473-1.84941-.48889-3.63694-1.33863,1.16337-2.71337,2.28323Z"/><polygon class="cls-1" points="161.986 226.206 163.545 230.176 164.59 224.114 163.669 226.417 161.986 226.206"/><path class="cls-1" d="M159.37343,187.20143h-1.64507l3.79223.781Z"/><path class="cls-1" d="M166.85752,196.69044c-.35876,8.24807-.48552,16.44164-2.23416,24.16237.15515.3031.2887.56331.39633.77253l2.69859-15.6488.83353-15.43692-.70967-.2581v6.92939S167.46461,197.00973,166.85752,196.69044Z"/><path class="cls-1" d="M144.77037,193.04293l4.0619,5.82765-3.25119-7.66951A17.77108,17.77108,0,0,0,144.77037,193.04293Z"/><path class="cls-1" d="M165.33883,222.244s-.11595-.22368-.31914-.61865l-.42921,2.489Z"/><polygon class="cls-1" points="167.842 189.284 161.521 187.982 167.842 190.282 167.842 189.284"/><path class="cls-1" d="M147.30352,188.42451c-.74143.50774-1.46967,1.06469-2.19992,1.65012l.47748,1.12644c.86716-1.71211,2.3677-3.99964,4.1959-3.99964h7.95138l-4.07247-.83863-5.89781.76936-.03948,1.00777Z"/><polygon class="cls-1" points="148.832 198.871 160.332 225.999 161.986 226.206 154.367 206.811 148.832 198.871"/><path class="cls-1" d="M145.58108,191.20107l3.25119,7.66951,5.53455,7.94056,7.619,19.395,1.68338.21091.92133-2.30269.42921-2.489c-.10763-.20922-.24118-.46943-.39633-.77253-.27382,1.2089-.58347,2.40732-.9442,3.59138-5.75009-10.54374-9.13333-23.27289-16.57817-32.2449.78726-.83362,1.48945-1.75855,2.26175-2.61224,3.37065,1.40938,5.57109-1.8499,8.16327-1.5708,2.97147.31541,5.32332,4.41832,9.56263,4.14923-.09271,1.50844-.16554,3.01754-.23112,4.525.60709.31929.98462.52047.98462.52047v-6.92939l-6.32155-2.29913-3.79223-.781H149.777C147.94878,187.20143,146.44824,189.489,145.58108,191.20107Z"/><path class="cls-1" d="M95.66394,168.42661s.36433.15249.981.39726c-.8361-.98293-1.01183-1.97662-.114-2.88807,3.531,2.452,10.36131,1.85,15.55857,2.76243.188,1.15338-.39562,2.56089-.767,4.08669a5.63878,5.63878,0,0,0,1.28678-.14721,10.33326,10.33326,0,0,1,1.646-3.69494l.05893-1.7666-11.55833-1.25665L95.69561,163.747c-1.43642-.29164-2.78747-.58006-3.78812-.79761v3.387l3.18617,2.851Z"/><polygon class="cls-1" points="95.094 169.187 91.907 166.336 94.822 169.55 95.094 169.187"/><polygon class="cls-1" points="97.208 172.182 97.646 172.379 96.926 171.87 97.208 172.182"/><path class="cls-1" d="M105.68763,175.99742l6.848,3.08168q-.13325-.83859-.20113-1.66Z"/><path class="cls-1" d="M91.90749,162.58137v.368c1.00065.21755,2.3517.506,3.78812.79761Z"/><polygon class="cls-1" points="99.834 173.429 100.334 173.589 99.686 173.297 99.834 173.429"/><polygon class="cls-1" points="94.412 170.096 96.926 171.87 94.822 169.55 94.412 170.096"/><polygon class="cls-1" points="99.834 173.429 99.686 173.297 97.646 172.379 101.506 175.103 105.688 175.997 100.334 173.589 99.834 173.429"/><path class="cls-1" d="M100.33447,173.58856l8.67966,2.761,3.31461.99453a15.36436,15.36436,0,0,1,.28051-4.70641,5.63878,5.63878,0,0,1-1.28678.14721,8.45453,8.45453,0,0,0-.2842,2.08644c-3.28833-.20221-11.86537-3.07555-14.39337-6.04749-.61663-.24477-.981-.39726-.981-.39726l-.57028.76075,4.59255,4.10941Z"/><polygon class="cls-1" points="95.094 169.187 94.822 169.55 96.926 171.87 97.646 172.379 99.686 173.297 95.094 169.187"/><path class="cls-1" d="M112.32874,177.34412l-3.31461-.99453-8.67966-2.761,5.35316,2.40886,6.64687,1.42173Z"/><path class="cls-1" d="M158.15574,173.16407l.32565.9378c.01.02876.02357.05425.03386.08288l.22344-1.22845Z"/><path class="cls-1" d="M172.51973,188.11556q-2.4566-.26157-4.77545-.65092-2.27992-.38386-4.42037-.89715c.33851.62234.6381,1.052.6381,1.052l-3.90061-1.39329-.081.488.86248.24351a71.58514,71.58514,0,0,0,12.42264,2.22967v-1.00286C173.0183,188.16032,172.765,188.14166,172.51973,188.11556Z"/><path class="cls-1" d="M181.87323,180.04322a22.198,22.198,0,0,1-.26442,4.88551,12.24845,12.24845,0,0,1-.45274,1.75916c-.08358.24763-.17638.481-.27531.7063a5.94019,5.94019,0,0,1-.691,1.22785l-.00005,0v0q-3.58459-.10518-6.92415-.43749v1.00286c2.21115.2153,4.50514.36592,6.89487.43594l.51092.01469.312-.40582c1.98358-2.57763,1.9826-7.31828,1.89022-9.23685a52.16543,52.16543,0,0,0-1.23537-8.9699,3.73354,3.73354,0,0,0-1.15941-.42925A48.39921,48.39921,0,0,1,181.87323,180.04322Z"/><path class="cls-1" d="M163.32391,186.56749q2.14065.513,4.42037.89715Q165.46436,187.08078,163.32391,186.56749Z"/><path class="cls-1" d="M172.51973,188.11556c.24524.0261.49857.04476.74582.069v0C173.01835,188.16023,172.765,188.14166,172.51973,188.11556Z"/><path class="cls-1" d="M173.26555,188.18455q3.3445.32774,6.92415.43749v0l.00005,0q-3.5846-.10518-6.9242-.43754Z"/><path class="cls-1" d="M119.62138,197.35123c-.09149-.26914-.19505-.55508-.30347-.84822-1.06937-2.0334-2.24595-4.33094-3.32767-6.7486l.47079,2.04c.39867,1.11871.81347,2.19412,1.20221,3.19047.38576.98766.73975,1.89411,1.01062,2.69008.11147.32663.2039.65616.29384.97689a5.899,5.899,0,0,0,1.17045,2.53277q-.1119-1.44233-.22971-2.88344C119.82041,197.98779,119.72985,197.6686,119.62138,197.35123Z"/><path class="cls-1" d="M134.2149,197.10342c-.28191.15375-.65228.33771-1.08925.5409-.717.33342-1.61776.71851-2.597,1.10632-.5128.2031-1.04393.40695-1.58834.60457-1.26728.46-2.58268.88625-3.77161,1.19019-.59446.152-1.15731.2734-1.66669.3532-.25473.0399-.496.06941-.72131.08705a3.85915,3.85915,0,0,1-1.13664-.04617l-1.34206.4039a2.51085,2.51085,0,0,0,1.11474.57066,3.85642,3.85642,0,0,0,.86735.086c3.47042,0,10.71731-3.09492,12.41-4.018A47.31731,47.31731,0,0,0,142.55015,192.2c.86918-.73839,1.71267-1.45129,2.55345-2.12537l-.40376-.95243C141.40052,191.73851,138.17576,194.94368,134.2149,197.10342Z"/><path class="cls-1" d="M146.751,187.26355l1.00707-.13139.136-3.47459c-.33229.12555-.67207.23248-1.01526.32631Q146.814,185.62385,146.751,187.26355Z"/><path class="cls-1" d="M115.376,188.33648c.31339,1.18733.68853,2.3452,1.085,3.458l-.47079-2.04C115.78083,189.28624,115.57675,188.81246,115.376,188.33648Z"/><path class="cls-1" d="M146.738,187.59823c-.6875.47065-1.36391.98929-2.03817,1.524l.40376.95243c.73025-.58543,1.45849-1.14238,2.19992-1.65012l.41508-.28458.03948-1.00777-1.00707.13139Z"/><path class="cls-1" d="M153.297,175.77936a3.85608,3.85608,0,0,1,1.03185.1624,3.593,3.593,0,0,1,1.417.84607,4.21348,4.21348,0,0,1,.68362.8615,5.48256,5.48256,0,0,1,.75046,2.73091,5.71308,5.71308,0,0,1-.09964,1.156,5.14325,5.14325,0,0,1-.33738,1.09692,4.43582,4.43582,0,0,1-.58137.97414c-1.0581,1.33725-2.96044,2.04528-5.80131,1.15717-.14561-.82951-.29628-1.51631-.43838-2.12649-.29206.18776-.5939.36461-.90767.52458.11867.52332.241,1.09894.35989,1.77493l.10562.6004.58183.18186a8.95725,8.95725,0,0,0,2.67394.44787,5.14886,5.14886,0,0,0,4.62768-2.54928,6.05983,6.05983,0,0,0,.75738-2.42337v-1.60232a5.93175,5.93175,0,0,0-1.71322-3.55756,4.74494,4.74494,0,0,0-3.6928-1.24689,1.50556,1.50556,0,0,1,.39937.31475A6.44254,6.44254,0,0,1,153.297,175.77936Z"/><path class="cls-1" d="M163.74568,170.0193c2.95192-2.0059,6.35391-4.317,9.51987-5.17738v-1.36139L158.9554,171.7648l-.21671,1.1915.35236-.12564A27.64384,27.64384,0,0,0,163.74568,170.0193Z"/><path class="cls-1" d="M158.12056,181.195v4.338l1.94084.69325.06572-.39595a13.23288,13.23288,0,0,0,.04789-2.9101,8.977,8.977,0,0,1,.23374-3.45574l.10365-.29922.25717-.18579a5.2913,5.2913,0,0,1,1.03845-.575,8.00964,8.00964,0,0,0-.93826.16918l-1.19734.29529-.043-1.23308a6.07551,6.07551,0,0,0-.67814-2.384c-.15426-.34754-.3039-.699-.436-1.06708l-.39469,2.16985v3.238A6.82221,6.82221,0,0,1,158.12056,181.195Z"/><path class="cls-1" d="M178.59393,165.25863c1.4387.83807,2.40194,3.18206,3.04421,5.76684a1.57044,1.57044,0,0,1,.68188.73933l-2.5033-7.51-5.00661-1.66846-1.54456.89415v1.36139A6.75592,6.75592,0,0,1,178.59393,165.25863Z"/><path class="cls-1" d="M159.62938,177.63581l.043,1.23308,1.19734-.29529a8.00964,8.00964,0,0,1,.93826-.16918,5.2913,5.2913,0,0,0-1.03845.575l-.25717.18579-.10365.29922a8.977,8.977,0,0,0-.23374,3.45574,13.23288,13.23288,0,0,1-.04789,2.9101l-.06572.39595,3.90061,1.39329s-.29959-.42968-.6381-1.052q-1.12388-.2692-2.20942-.57393a8.54865,8.54865,0,0,0,.09612-.85776c.01806-.28448.02372-.56724.02152-.84718-.00426-.55985-.03976-1.10843-.06927-1.6368s-.053-1.03686-.0334-1.51645a4.68692,4.68692,0,0,1,.22536-1.34375,4.10322,4.10322,0,0,1,.63221-.37078,5.68687,5.68687,0,0,1,.71575-.28042,28.85806,28.85806,0,0,1,5.18819-.7194,10.63,10.63,0,0,0-2.57319-.85271,12.0874,12.0874,0,0,0-1.89359-.22672,10.11489,10.11489,0,0,0-2.79406.25965h0c-.05506-1.59334-.76978-2.581-1.20282-3.82759.03555-.01268.07475-.0306.11118-.04453.17742-.06792.3649-.15029.56177-.24571q.18053-.08749.37158-.1894.29524-.15708.61355-.34473c3.17953-1.86922,7.98692-5.81441,12.1802-7.05946v-1.0479c-3.166.86042-6.56795,3.17148-9.51987,5.17738a27.64384,27.64384,0,0,1-4.65463,2.81136l-.35236.12564-.22344,1.22845c.13209.368.28173.71954.436,1.06708A6.07551,6.07551,0,0,1,159.62938,177.63581Z"/><path class="cls-1" d="M178.59393,165.25863a6.75592,6.75592,0,0,0-5.32838-.41671v1.0479a5.99148,5.99148,0,0,1,4.82391.23373c1.02437.59666,1.80556,2.3438,2.38927,4.47267a3.73354,3.73354,0,0,1,1.15941.42925C180.99587,168.44069,180.03263,166.0967,178.59393,165.25863Z"/><path class="cls-1" d="M161.21061,185.1358a8.54865,8.54865,0,0,1-.09612.85776q1.08437.30591,2.20942.57393-1.12373-.26935-2.20937-.57393A8.53679,8.53679,0,0,0,161.21061,185.1358Z"/><path class="cls-1" d="M159.53845,173.72912c-.03643.01393-.07563.03185-.11118.04453.433,1.24664,1.14776,2.23425,1.20282,3.82759h0c-.055-1.59334-.76972-2.581-1.20281-3.82759C159.46291,173.761,159.502,173.74305,159.53845,173.72912Z"/><path class="cls-1" d="M161.987,179.42084a4.10322,4.10322,0,0,0-.63221.37078,4.68692,4.68692,0,0,0-.22536,1.34375,4.68864,4.68864,0,0,1,.22541-1.34375A4.1027,4.1027,0,0,1,161.987,179.42084Z"/><path class="cls-1" d="M158.12056,179.59264V181.195A6.82221,6.82221,0,0,0,158.12056,179.59264Z"/><path class="cls-1" d="M114.25522,168.94277l-.35863,10.74875-.255-.11478.948,4.10815c-.0043-.074-.01595-.14809-.01932-.222l-.01955-.42046c-.24791-5.36158-.58721-12.70334,2.69836-15.55086a5.12291,5.12291,0,0,1,4.52894-1.02867,63.29193,63.29193,0,0,1,16.80494,6.14483c.71533.39211,1.3431.79989,1.94986,1.195a11.12663,11.12663,0,0,0,5.88032,2.2481l.95832.07329-.11735,3.0959-.43075.28261a12.29389,12.29389,0,0,1-4.01947,1.47851,21.95631,21.95631,0,0,1,4.53871,1.67506l.57936.28846-.02792.713a11.08173,11.08173,0,0,0,1.12016-.495c-.07362-.32447-.14608-.63333-.2146-.92006a13.89613,13.89613,0,0,1-.49334-5.16793l.043-.4772.399-.266a8.40393,8.40393,0,0,1,3.96623-1.54316c-1.6846-.98573-6.14791-.222-7.84276-1.10089q-4.889-2.53463-9.77831-5.06919a35.75632,35.75632,0,0,0-6.94384-2.60172l-11.209.31994A10.51984,10.51984,0,0,0,114.25522,168.94277Z"/><path class="cls-1" d="M120.15434,201.38782l.14767-.04444c-.05754-.05042-.11152-.10384-.16386-.15871C120.14339,201.25236,120.14915,201.32,120.15434,201.38782Z"/><path class="cls-1" d="M116.94062,166.33633l11.209-.31994C124.07768,164.94337,119.5863,164.53727,116.94062,166.33633Z"/><path class="cls-1" d="M113.64158,179.57674l-1.106-.49764a41.017,41.017,0,0,0,2.84036,9.25738,23.71015,23.71015,0,0,1-.78638-4.65159Z"/><path class="cls-1" d="M113.18566,177.60124l.45592,1.9755.255.11478.35863-10.74875a10.33326,10.33326,0,0,0-1.646,3.69494c.05314-.01323.11081-.02291.16133-.03807Z"/><path class="cls-1" d="M113.18566,177.60124l-.85116-.18209q.0691.82133.20113,1.66l1.106.49764Z"/><path class="cls-1" d="M112.32874,177.34412l.85692.25712-.41508-5.0016c-.05052.01516-.10819.02484-.16133.03807A15.36436,15.36436,0,0,0,112.32874,177.34412Z"/><path class="cls-1" d="M112.3345,177.41915l.85116.18209-.85692-.25712Z"/><path class="cls-1" d="M119.90844,198.30123q.1157,1.44149.22971,2.88344c.05234.05487.10632.10829.16386.15871l1.34206-.4039C120.55777,200.68718,120.26117,199.55606,119.90844,198.30123Z"/><path class="cls-1" d="M114.58961,183.68489a23.71015,23.71015,0,0,0,.78638,4.65159c.20076.476.40484.94976.61425,1.41793Z"/><path class="cls-1" d="M148.34932,176.59736l-.043.4772a13.89613,13.89613,0,0,0,.49334,5.16793c.06852.28673.141.59559.2146.92006.31377-.16.61561-.33682.90767-.52458a14.36011,14.36011,0,0,1-.618-5.47361,7.13793,7.13793,0,0,1,3.8283-1.39623c.05706-.00037.10884.0094.16479.01123a6.44254,6.44254,0,0,0-.18308-.67642,1.50556,1.50556,0,0,0-.39937-.31475,8.40393,8.40393,0,0,0-3.96623,1.54316Z"/><path class="cls-1" d="M159.033,225.88509v0q-2.0272-.61112-4.06194-1.31344Q157.004,225.27211,159.033,225.88509Z"/><path class="cls-1" d="M150.90823,223.09085c-2.7041-1.03789-5.39469-2.172-8.04356-3.37177C145.51354,220.9189,148.20413,222.053,150.90823,223.09085Z"/><path class="cls-1" d="M132.79556,125.44975c-4.22434-2.03391-7.24348-.92371-7.79253-.19276-1.0399,1.38815,1.11619,8.95685,1.11619,8.95685l2.08626.41812C127.789,126.28464,132.79556,125.44975,132.79556,125.44975Z"/></svg>