<?xml version="1.0" encoding="utf-8"?>
<!-- Generator: Adobe Illustrator 24.1.2, SVG Export Plug-In . SVG Version: 6.00 Build 0)  -->
<svg version="1.1" id="Layer_1" xmlns="http://www.w3.org/2000/svg" xmlns:xlink="http://www.w3.org/1999/xlink" x="0px" y="0px"
	 viewBox="0 0 463 160.7" style="enable-background:new 0 0 463 160.7;" xml:space="preserve">
<style type="text/css">
	.st0{fill:#231F20;}
	.st1{fill:#FFFFFF;}
	.st2{fill:#48494A;}
	.st3{fill:#C49A6C;}
	.st4{fill:url(#SVGID_1_);}
	.st5{fill:url(#SVGID_2_);}
	.st6{fill:url(#SVGID_3_);}
	.st7{fill:url(#SVGID_4_);}
	.st8{fill:url(#SVGID_5_);}
</style>
<g>
	<path class="st2" d="M347.2,87.8c-9.7,0-16.4,7.7-16.4,17.1v0.2c0,9.4,6.9,17.2,16.6,17.2c9.7,0,16.4-7.7,16.4-17.1V105
		C363.8,95.6,356.9,87.8,347.2,87.8z"/>
	<path class="st2" d="M463,48.9H235.1l0,57.1c-0.3,20.1-6.7,36.8-18.4,48.3c-2.4,2.4-5.1,4.5-8,6.4H463V48.9z M294.8,133.4
		c-16.1,0-28.1-12.4-28.1-28.2V105c0-15.6,11.7-28.3,28.6-28.3c10.3,0,16.5,3.4,21.6,8.5l-7.7,8.8c-4.2-3.8-8.5-6.2-14-6.2
		c-9.2,0-15.9,7.7-15.9,17.1v0.2c0,9.4,6.5,17.2,15.9,17.2c6.3,0,10.1-2.5,14.4-6.4l7.7,7.7C311.6,129.6,305.3,133.4,294.8,133.4z
		 M376.4,105c0,15.6-12.3,28.3-29.2,28.3s-29-12.6-29-28.2V105c0-15.6,12.3-28.3,29.2-28.3c16.9,0,29,12.6,29,28.2V105z
		 M431.1,132.4h-10.3l-26.5-34.8v34.8h-11.9V77.6h11.1l25.7,33.7V77.6h11.9V132.4z"/>
	<path class="st3" d="M82.9,125.8C82.9,125.8,82.9,125.8,82.9,125.8L82.9,125.8c-5.6,5.7-11.4,9.7-18.4,11.4
		c0.9-0.2,1.7-0.4,2.5-0.7C73,134.5,78.1,130.9,82.9,125.8z"/>
	
		<linearGradient id="SVGID_1_" gradientUnits="userSpaceOnUse" x1="115.4915" y1="-82.6514" x2="4.247" y2="-86.8719" gradientTransform="matrix(1 0 0 -1 0 19.8919)">
		<stop  offset="0" style="stop-color:#ED1C24"/>
		<stop  offset="1" style="stop-color:#F7941D"/>
	</linearGradient>
	<path class="st4" d="M91.3,115.6c-2.5,3.6-5.3,7-8.3,10.1l0,0c-4.9,5.1-10,8.7-15.8,10.7c-1,0.3-2,0.6-3,0.9
		c-1,0.2-2.1,0.4-3.2,0.6c1.2-0.2,2.4-0.4,3.6-0.7c-0.2,0-0.3,0.1-0.5,0.1c-1.1,0.2-2.1,0.4-3.2,0.6c-0.4,0.1-0.7,0.1-1.1,0.1
		l-0.6,0.1c-0.5,0-0.9,0.1-1.4,0.1h-0.3c-0.6,0-1.1,0-1.7,0c-2,0-4-0.2-5.9-0.7c-1.5-0.3-2.9-0.8-4.3-1.3c-1-0.4-1.9-0.8-2.9-1.3
		c-1-0.5-1.9-1-2.8-1.5c-4.3-2.5-8-5.9-11-9.9c-0.7-0.9-1.3-1.8-1.9-2.8c-0.3-0.5-0.6-1-0.8-1.5c-0.5-1-1-2-1.5-3
		c-3.2-7.5-3.2-15.9,0-23.4c0.4-1,0.9-2.1,1.5-3c0.3-0.5,0.5-1,0.8-1.5c0.6-1,1.2-1.9,1.9-2.8c3-4,6.7-7.3,11-9.9
		c0.9-0.5,1.9-1.1,2.8-1.5c0.9-0.4,1.9-0.8,2.9-1.1c1.4-0.5,2.9-1,4.4-1.3c1.9-0.4,3.9-0.7,5.9-0.7c0.6,0,1.1,0,1.7,0H58
		c0.5,0,0.9,0.1,1.4,0.1l0.7,0.1l0.7,0.1c1.2,0.2,2.3,0.4,3.4,0.6c0.5,0.1,1.1,0.3,1.6,0.4c2.7,0.8,5.2,1.9,7.6,3.3
		c1,0.6,1.9,1.2,2.8,1.9c1.9,1.4,3.7,2.9,5.4,4.6c0.9,0.8,1.7,1.7,2.6,2.7l0,0l0,0c0,0,0,0,0,0l0.1-0.1c2.5,2.8,4.9,5.8,7.1,9
		c3.5-5.5,8.8-13.8,10.6-16.5c0.8-1.1,1.5-2.2,2.3-3.3c-8.7-10.6-19.1-19.4-33.1-23.2H71c-0.7-0.2-1.4-0.3-2-0.5l-0.3-0.1
		c-0.7-0.1-1.3-0.3-2-0.4l-0.4-0.1c-0.8-0.1-1.6-0.3-2.4-0.4h-0.1c-0.4-0.1-0.9-0.1-1.3-0.2h-0.3L61,49h-0.4l-1.1-0.1h-0.4l-1.1,0
		h-0.4h-1.6C26.1,48.7,0,74.9,0,104.7c0,29.8,26.1,56,56,56h1.6H58l1.1,0h0.5l1.1-0.1h0.4l1.1-0.1h0.4l1.2-0.1l0.3,0l1.3-0.2h0.1
		c0.8-0.1,1.5-0.3,2.3-0.4l0.4-0.1c0.6-0.1,1.2-0.3,1.8-0.4l0.4-0.1c0.6-0.2,1.3-0.3,1.9-0.5l0.2,0c13.3-3.9,23.4-12.4,31.8-22.6
		c-1.3-2-2.2-3.4-2.6-4.2L91.3,115.6z M57.9,138.2L57.9,138.2h-0.1H57.9c0.5,0,0.9-0.1,1.4-0.1C58.9,138.2,58.4,138.2,57.9,138.2z"
		/>
	<path class="st3" d="M64.1,137.4c1-0.2,2-0.5,3-0.9c5.9-2,11-5.6,15.8-10.7l0,0c0,0,0,0,0,0c-4.9,5.1-10,8.7-15.8,10.7
		c-0.8,0.3-1.7,0.5-2.5,0.7c-1.2,0.3-2.4,0.5-3.6,0.7C62,137.8,63.1,137.6,64.1,137.4z"/>
	
		<linearGradient id="SVGID_2_" gradientUnits="userSpaceOnUse" x1="116.5393" y1="-110.2705" x2="5.2948" y2="-114.4909" gradientTransform="matrix(1 0 0 -1 0 19.8919)">
		<stop  offset="0" style="stop-color:#ED1C24"/>
		<stop  offset="1" style="stop-color:#F7941D"/>
	</linearGradient>
	<path class="st5" d="M64.1,137.4c1-0.2,2-0.5,3-0.9c5.9-2,11-5.6,15.8-10.7l0,0c0,0,0,0,0,0c-4.9,5.1-10,8.7-15.8,10.7
		c-0.8,0.3-1.7,0.5-2.5,0.7c-1.2,0.3-2.4,0.5-3.6,0.7C62,137.8,63.1,137.6,64.1,137.4z"/>
	
		<linearGradient id="SVGID_3_" gradientUnits="userSpaceOnUse" x1="116.76" y1="-116.0882" x2="5.5155" y2="-120.3087" gradientTransform="matrix(1 0 0 -1 0 19.8919)">
		<stop  offset="0" style="stop-color:#ED1C24"/>
		<stop  offset="1" style="stop-color:#F7941D"/>
	</linearGradient>
	<path class="st6" d="M57.9,138.2c0.5,0,0.9-0.1,1.4-0.1C58.9,138.2,58.4,138.2,57.9,138.2L57.9,138.2z"/>
	
		<linearGradient id="SVGID_4_" gradientUnits="userSpaceOnUse" x1="116.7581" y1="-116.0842" x2="5.5212" y2="-120.3122" gradientTransform="matrix(1 0 0 -1 0 19.8919)">
		<stop  offset="0" style="stop-color:#ED1C24"/>
		<stop  offset="1" style="stop-color:#F7941D"/>
	</linearGradient>
	<path class="st7" d="M57.9,138.2c0.5,0,0.9-0.1,1.4-0.1C58.9,138.2,58.4,138.2,57.9,138.2L57.9,138.2z"/>
	
		<linearGradient id="SVGID_5_" gradientUnits="userSpaceOnUse" x1="233.1073" y1="-58.4411" x2="98.8596" y2="-63.7185" gradientTransform="matrix(1 0 0 -1 0 19.8919)">
		<stop  offset="0" style="stop-color:#ED1C24"/>
		<stop  offset="1" style="stop-color:#F7941D"/>
	</linearGradient>
	<path class="st8" d="M223.8,0h-22.2v60.8c-9.6-7.7-21.5-11.9-33.8-12h-1.6h-0.4l-1.1,0l-0.4,0l-1.1,0.1h-0.4l-1.2,0.1h-0.3
		c-0.4,0-0.9,0.1-1.3,0.2h-0.1c-0.8,0.1-1.6,0.2-2.4,0.4l-0.4,0.1c-0.7,0.1-1.4,0.3-2,0.4l-0.3,0.1c-19.5,4.4-32.3,18.5-42.9,33.9
		c-0.4,0.7-0.9,1.3-1.3,2c-1.4,2.2-3.5,5.4-5.5,8.6c-2.7,4.2-5.3,8.4-6.4,10.1l13.2,20.6c0,0,14.1,26,39.6,33l0.2,0
		c0.6,0.2,1.3,0.4,1.9,0.5l0.4,0.1c0.6,0.2,1.2,0.3,1.8,0.4l0.4,0.1c0.8,0.1,1.5,0.3,2.3,0.4h0.1l1.3,0.2l0.3,0l1.2,0.1h0.4l1.1,0.1
		h0.4l1.1,0.1h0.5l1.1,0h0.4h1.6c35.1,0,55.4-19.9,55.9-54.6V0z M167.8,138.3c-0.6,0-1.1,0-1.7,0h-0.3c-0.5,0-0.9-0.1-1.4-0.1
		l-0.6-0.1c-0.4,0-0.7-0.1-1.1-0.1c-2.1-0.3-4.2-0.8-6.1-1.5c-1.5-0.5-2.9-1.1-4.3-1.8c-1.4-0.7-2.7-1.5-4-2.4
		c-0.6-0.4-1.3-0.9-1.9-1.4c-2-1.6-3.8-3.3-5.6-5.1l-0.1,0.1c-0.8-0.8-1.6-1.7-2.4-2.6c-0.1-0.1-0.2-0.2-0.3-0.3
		c-0.4-0.5-0.8-0.9-1.2-1.4c-0.4-0.5-0.7-0.9-1.1-1.3s-0.6-0.7-0.9-1.1c-1.3-1.7-2.6-3.4-3.9-5.3c-0.4-0.6-0.9-1.3-1.4-2
		c-0.2-0.4-0.5-0.8-0.8-1.1c-0.4-0.7-0.9-1.3-1.3-2l-0.2-0.3c-0.8-1.2-1.5-2.4-2.3-3.6c1.3-2,2.5-3.9,3.7-5.7
		c1.2-1.8,2.4-3.6,3.6-5.2s2.4-3.2,3.6-4.7c1.2-1.5,2.4-2.9,3.6-4.2c0.9-0.9,1.7-1.8,2.6-2.7c0.9-0.9,1.8-1.7,2.7-2.4
		c0.9-0.8,1.8-1.5,2.7-2.1c1.6-1.1,3.2-2.1,5-3c0.2-0.1,0.4-0.2,0.6-0.3l0.1-0.1c0.9-0.4,1.8-0.8,2.8-1.1l0.3-0.1
		c0.2-0.1,0.4-0.1,0.5-0.2c0.7-0.2,1.4-0.4,2.1-0.6l0.9-0.2c1-0.2,2-0.4,3-0.5l0.7-0.1l0.7-0.1c0.5,0,0.9-0.1,1.4-0.1h0.3
		c0.5,0,1.1,0,1.7,0c1,0,2,0.1,2.9,0.2c1.5,0.2,3,0.5,4.4,0.9c1,0.3,2,0.6,3,1c1,0.4,2,0.8,2.9,1.3c1,0.5,1.9,1,2.8,1.5
		c0.9,0.5,1.8,1.2,2.7,1.8s1.7,1.3,2.6,2c2.1,1.8,4,3.9,5.7,6.1c0.7,0.9,1.3,1.8,1.9,2.8c1.5,2.4,2.6,5,3.4,7.7
		c0.3,1.1,0.6,2.2,0.8,3.3c0.3,1.7,0.5,3.5,0.5,5.2C201.4,127.9,191.1,138.3,167.8,138.3z"/>
</g>
</svg>
