<svg width="143" height="143" viewBox="0 0 143 143" fill="none" xmlns="http://www.w3.org/2000/svg">
<path fill-rule="evenodd" clip-rule="evenodd" d="M107.796 105.766L107.444 106.148L106.541 105.327C106.662 105.201 106.783 105.079 106.902 104.953L107.796 105.766ZM106.559 107.027L106.195 107.398L105.324 106.545C105.448 106.426 105.57 106.303 105.693 106.183L106.559 107.027ZM105.282 108.243L104.905 108.601L104.063 107.72C104.192 107.604 104.319 107.488 104.446 107.371L105.282 108.243ZM103.959 109.418L103.571 109.762L102.762 108.852C102.895 108.742 103.027 108.631 103.158 108.518L103.959 109.418ZM102.6 110.542L102.198 110.873L101.425 109.938C101.56 109.832 101.695 109.723 101.829 109.614L102.6 110.542ZM101.201 111.618L100.789 111.935L100.046 110.972C100.188 110.871 100.328 110.772 100.465 110.668L101.201 111.618ZM99.7666 112.642L99.342 112.945L98.6359 111.957C98.7793 111.862 98.921 111.762 99.0623 111.664L99.7666 112.642ZM98.2975 113.619L97.8633 113.908L97.1896 112.893C97.3372 112.801 97.4828 112.712 97.6291 112.617L98.2975 113.619ZM96.7941 114.543L96.3501 114.816L95.7117 113.777C95.8614 113.691 96.0108 113.605 96.16 113.516L96.7941 114.543ZM95.2538 115.417L94.8039 115.674L94.1988 114.612C94.351 114.532 94.5042 114.449 94.6547 114.367L95.2538 115.417ZM93.6898 116.234L93.2287 116.477L92.6607 115.389C92.8154 115.315 92.9719 115.239 93.1275 115.161L93.6898 116.234ZM92.0981 116.996L91.629 117.222L91.0996 116.115C91.2562 116.047 91.4125 115.974 91.5706 115.902L92.0981 116.996ZM90.4848 117.698L90.0096 117.908L89.5157 116.779C89.6759 116.715 89.8364 116.652 89.9967 116.587L90.4848 117.698ZM88.844 118.347L88.3587 118.54L87.9059 117.394C88.0703 117.335 88.2303 117.273 88.3915 117.213L88.844 118.347ZM87.1816 118.937L86.6908 119.113L86.2737 117.948C86.4399 117.895 86.6035 117.844 86.768 117.79L87.1816 118.937ZM85.4981 119.471L85.004 119.629L84.6272 118.446C84.7928 118.399 84.9581 118.349 85.1244 118.3L85.4981 119.471ZM83.799 119.944L83.2973 120.086L82.9625 118.886C83.1296 118.845 83.2976 118.804 83.465 118.76L83.799 119.944ZM82.0831 120.358L81.5761 120.484L81.2824 119.271C81.451 119.236 81.6192 119.2 81.7897 119.161L82.0831 120.358ZM80.3538 120.712L79.8429 120.82L79.5931 119.596C79.7624 119.566 79.9332 119.536 80.1023 119.504L80.3538 120.712ZM78.6154 121.006L78.0993 121.097L77.8912 119.86C78.0631 119.836 78.2329 119.813 78.4045 119.787L78.6154 121.006ZM75.1174 121.405L74.5969 121.46L74.4753 120.215C74.6485 120.202 74.8211 120.192 74.9936 120.178L75.1174 121.405ZM73.3564 121.516L72.8356 121.551L72.7599 120.306C72.9325 120.3 73.1054 120.29 73.2772 120.282L73.3564 121.516ZM71.6028 121.56L71.0809 121.577L71.0467 120.333C71.2203 120.334 71.3939 120.335 71.565 120.333L71.6028 121.56ZM69.8398 121.546L69.3169 121.545L69.33 120.303C69.5005 120.308 69.6751 120.313 69.8477 120.317L69.8398 121.546ZM68.0771 121.471L67.556 121.452L67.6088 120.213C67.7809 120.225 67.9543 120.237 68.1264 120.249L68.0771 121.471ZM66.3195 121.336L65.7986 121.299L65.8941 120.064C66.0668 120.082 66.2403 120.098 66.4106 120.115L66.3195 121.336ZM64.5656 121.136L64.045 121.082L64.1836 119.854C64.354 119.879 64.5248 119.904 64.697 119.924L64.5656 121.136ZM62.8205 120.878L62.3044 120.805L62.4837 119.586C62.6536 119.616 62.8239 119.645 62.9937 119.673L62.8205 120.878ZM61.0864 120.558L60.5719 120.468L60.7941 119.26C60.9629 119.296 61.1305 119.332 61.3005 119.365L61.0864 120.558ZM59.363 120.181L58.8518 120.071L59.1157 118.875C59.2844 118.916 59.4529 118.96 59.6185 119L59.363 120.181ZM57.656 119.741L57.1491 119.613L57.4515 118.433C57.6175 118.481 57.7847 118.523 57.954 118.569L57.656 119.741ZM55.9641 119.242L55.4617 119.098L55.8058 117.928C55.9703 117.981 56.1333 118.038 56.2999 118.089L55.9641 119.242ZM54.29 118.686L53.7928 118.523L54.1764 117.37C54.3405 117.428 54.5029 117.486 54.6669 117.543L54.29 118.686ZM52.6375 118.069L52.1467 117.889L52.5707 116.751C52.7301 116.817 52.8898 116.882 53.0502 116.944L52.6375 118.069ZM50.9912 117.4L50.5071 117.204L50.9735 116.072C51.1309 116.144 51.288 116.216 51.4478 116.282L50.9912 117.4ZM49.4013 116.668L48.9229 116.455L49.4239 115.352C49.5799 115.429 49.7364 115.501 49.8922 115.576L49.4013 116.668ZM47.8202 115.885L47.3496 115.656L47.8908 114.569C48.0437 114.65 48.1958 114.732 48.3486 114.813L47.8202 115.885ZM46.2691 115.045L45.8084 114.8L46.3851 113.734C46.5349 113.823 46.6854 113.905 46.8365 113.991L46.2691 115.045ZM44.749 114.153L44.2955 113.895L44.9123 112.843C45.0583 112.936 45.2062 113.028 45.3514 113.119L44.749 114.153ZM43.2615 113.209L42.8175 112.933L43.4713 111.903C43.6157 111.999 43.7581 112.097 43.904 112.192L43.2615 113.209ZM41.8056 112.212L41.3728 111.92L42.0617 110.915C42.2007 111.017 42.3428 111.115 42.4838 111.215L41.8056 112.212ZM40.3865 111.164L39.9651 110.858L40.6904 109.873C40.8257 109.981 40.9621 110.089 41.0985 110.194L40.3865 111.164ZM39.0053 110.069L38.5933 109.747L39.3529 108.789C39.4869 108.899 39.62 109.009 39.7534 109.12L39.0053 110.069ZM37.662 108.927L37.2631 108.589L38.0567 107.657C38.1836 107.773 38.3142 107.887 38.4434 108.003L37.662 108.927ZM36.3615 107.736L35.9723 107.387L36.8014 106.48C36.9245 106.599 37.0484 106.719 37.1734 106.839L36.3615 107.736ZM35.1006 106.5L34.7246 106.138L35.5828 105.263C35.7011 105.388 35.8241 105.51 35.9462 105.632L35.1006 106.5ZM33.8872 105.224L33.5229 104.848L34.4128 104.001C34.5282 104.13 34.6458 104.258 34.7617 104.386L33.8872 105.224ZM32.7167 103.904L32.3672 103.516L33.2874 102.7C33.3956 102.833 33.5087 102.965 33.6221 103.096L32.7167 103.904ZM31.5957 102.538L31.2598 102.14L32.2067 101.356C32.3128 101.491 32.421 101.628 32.5283 101.762L31.5957 102.538ZM30.5194 101.14L30.1976 100.729L31.1785 99.9756C31.2781 100.116 31.3792 100.258 31.4821 100.396L30.5194 101.14ZM29.4941 99.7066L29.1875 99.2846L30.1897 98.5643C30.2858 98.7071 30.3871 98.8484 30.4842 98.992L29.4941 99.7066ZM28.5183 98.2368L28.226 97.8052L29.2602 97.1165C29.3523 97.2641 29.4407 97.4111 29.5341 97.5591L28.5183 98.2368ZM27.5958 96.7361L27.3195 96.2915L28.38 95.6414C28.4668 95.7904 28.5562 95.9411 28.6424 96.0908L27.5958 96.7361ZM26.7247 95.2022L26.4614 94.7468L27.5507 94.1322C27.6317 94.284 27.7124 94.4403 27.7961 94.5902L26.7247 95.2022ZM25.9105 93.638L25.6621 93.1758L26.776 92.5948C26.8518 92.7528 26.9277 92.908 27.0038 93.0622L25.9105 93.638ZM25.1476 92.047L24.9173 91.5776L26.0541 91.0336C26.1233 91.192 26.1965 91.3496 26.2691 91.5067L25.1476 92.047ZM24.419 90.4292L24.2055 89.9515L25.3879 89.4353C25.4521 89.5977 25.5166 89.7574 25.5813 89.9184L24.419 90.4292ZM23.7704 88.7884L23.5728 88.3042L24.7725 87.829C24.8322 87.9911 24.8953 88.1526 24.9545 88.3161L23.7704 88.7884ZM23.1786 87.1248L22.9995 86.6343L24.2268 86.1989C24.2772 86.3632 24.3289 86.5286 24.3833 86.6928L23.1786 87.1248ZM22.6455 85.4428L22.4825 84.9476L23.7275 84.5506C23.775 84.7184 23.8242 84.884 23.8739 85.0519L22.6455 85.4428ZM22.1719 83.7444L22.0286 83.2416L23.2916 82.8897L23.4145 83.3954L22.1719 83.7444ZM21.759 82.0303L21.63 81.5242L22.912 81.2148C22.9466 81.3841 22.9843 81.5537 23.02 81.7216L21.759 82.0303ZM21.4034 80.3031L21.292 79.7912L22.589 79.5256C22.6176 79.6964 22.6497 79.8665 22.6795 80.0388L21.4034 80.3031ZM21.1114 78.5623L21.0179 78.0477L22.3261 77.8256C22.349 77.9969 22.3731 78.1691 22.3979 78.3403L21.1114 78.5623ZM20.8994 76.8246L20.8251 76.3079L22.1221 76.1359C22.1381 76.3079 22.1602 76.4802 22.1808 76.6496L20.8994 76.8246ZM20.7295 75.0683L20.6748 74.5498L21.9769 74.4215C21.9902 74.5947 22.0002 74.7676 22.014 74.9395L20.7295 75.0683ZM20.6432 73.3178L20.6081 72.7973L21.8878 72.718C21.8942 72.8896 21.9045 73.0644 21.9132 73.2361L20.6432 73.3178ZM20.595 71.555L20.5735 71.0342L21.8621 70.9983C21.8611 71.1719 21.8594 71.345 21.8617 71.5167L20.595 71.555ZM20.6062 69.7913L20.6048 69.2709L21.8914 69.281C21.8842 69.453 21.8849 69.6245 21.8784 69.8006L20.6062 69.7913ZM20.6809 68.029L20.6986 67.5086L21.984 67.5631C21.9724 67.7355 21.9574 67.9092 21.948 68.0817L20.6809 68.029ZM20.8173 66.2722L20.8515 65.7516L22.1325 65.8501C22.1147 66.023 22.098 66.1958 22.0821 66.3684L20.8173 66.2722ZM21.0142 64.5195L21.0667 64.0007L22.3431 64.1448C22.318 64.3159 22.2946 64.4885 22.2726 64.6587L21.0142 64.5195ZM21.2959 62.7881L21.3689 62.2705L22.6117 62.4554C22.5801 62.6259 22.5531 62.7972 22.5252 62.9654L21.2959 62.7881ZM21.6167 61.053L21.7059 60.5405L22.9363 60.767C22.9001 60.9354 22.868 61.1065 22.832 61.2768L21.6167 61.053ZM21.9969 59.3319L22.1037 58.8219L23.3255 59.0906C23.2829 59.2596 23.241 59.4279 23.2004 59.5938L21.9969 59.3319ZM22.4356 57.6244L22.5599 57.1172L23.766 57.4288C23.7178 57.5948 23.6753 57.7609 23.6292 57.9292L22.4356 57.6244ZM22.9335 55.9367L23.0752 55.4345L24.2714 55.7869C24.2164 55.9513 24.1607 56.1152 24.1111 56.28L22.9335 55.9367ZM23.5127 54.2766L23.6727 53.7791L24.8284 54.1636C24.7679 54.3276 24.7132 54.4923 24.6553 54.6545L23.5127 54.2766ZM24.1274 52.6221L24.3075 52.1312L25.4485 52.5554C25.3831 52.7154 25.3174 52.8786 25.2537 53.0381L24.1274 52.6221ZM24.8009 50.9923L24.9926 50.5111L26.1195 50.977C26.0472 51.1348 25.9785 51.2961 25.9101 51.4535L24.8009 50.9923ZM25.5289 49.3906L25.7405 48.9136L26.8476 49.4168C26.7726 49.5723 26.6973 49.7281 26.6237 49.8848L25.5289 49.3906ZM26.3121 47.8095L26.542 47.3419L27.63 47.8851C27.5483 48.0366 27.4672 48.1892 27.3867 48.3428L26.3121 47.8095ZM27.1505 46.2608L27.3953 45.8013L28.4629 46.3783C28.3763 46.5288 28.2921 46.6814 28.2059 46.83L27.1505 46.2608ZM28.0425 44.74L28.3035 44.2898L29.3553 44.9078C29.2628 45.0535 29.1708 45.2014 29.0793 45.3473L28.0425 44.74ZM28.9868 43.2525L29.2647 42.8106L30.2947 43.464C30.1976 43.6076 30.0999 43.7525 30.0041 43.8966L28.9868 43.2525ZM29.9839 41.7988L30.2766 41.3679L31.2857 42.0564C31.1819 42.1968 31.0824 42.3384 30.9809 42.4802L29.9839 41.7988ZM31.0308 40.3805L31.3375 39.9588L32.3253 40.6878C32.2173 40.8236 32.1083 40.9603 32.0044 41.096L31.0308 40.3805ZM32.1252 38.9984L32.4468 38.5902L33.4071 39.3506C33.296 39.485 33.1861 39.618 33.0756 39.7518L32.1252 38.9984ZM33.2687 37.6581L33.6032 37.2583L34.5397 38.0559C34.4225 38.1836 34.3086 38.3145 34.1922 38.4433L33.2687 37.6581ZM34.4567 36.3563L34.8072 35.9709L35.7161 36.8004C35.5946 36.9256 35.4739 37.0485 35.354 37.1739L34.4567 36.3563ZM35.6914 35.0978L36.0532 34.724L36.931 35.5842C36.805 35.7028 36.6834 35.8262 36.5606 35.9486L35.6914 35.0978ZM36.9895 33.9027L37.3649 33.5419L38.1932 34.4135C38.0641 34.5296 37.9353 34.6447 37.8072 34.761L36.9895 33.9027ZM38.3067 32.735L38.6955 32.387L39.4932 33.2863C39.3599 33.3971 39.2276 33.5093 39.0953 33.6215L38.3067 32.735ZM39.6634 31.611L40.0648 31.2787L40.8301 32.2047L40.423 32.5277L39.6634 31.611ZM41.059 30.5407L41.471 30.2194L42.2081 31.1774C42.0665 31.2784 41.9257 31.3784 41.7865 31.4814L41.059 30.5407ZM42.4923 29.5154L42.9137 29.2089L43.6171 30.1914C43.4735 30.2884 43.3312 30.3889 43.1887 30.4868L42.4923 29.5154ZM43.9591 28.5411L44.3915 28.2501L45.0633 29.261C44.9157 29.3531 44.7685 29.4425 44.6221 29.5361L43.9591 28.5411ZM45.4598 27.6187L45.9021 27.3445L46.5385 28.3815C46.388 28.4671 46.2376 28.5556 46.0896 28.6432L45.4598 27.6187ZM46.9929 26.7486L47.4458 26.489L48.0485 27.5511C47.8948 27.6323 47.7405 27.7128 47.5892 27.796L46.9929 26.7486ZM48.5721 25.9549L49.0312 25.711L49.5879 26.774C49.4324 26.8496 49.2764 26.9236 49.1205 27.0018L48.5721 25.9549ZM50.1594 25.1936L50.6287 24.9662L51.1488 26.0524L50.6753 26.2659L50.1594 25.1936ZM51.7728 24.4916L52.249 24.2798L52.7335 25.3901C52.5734 25.455 52.4111 25.5191 52.2521 25.5849L51.7728 24.4916ZM53.4103 23.8427L53.8941 23.6505L54.3432 24.7776C54.1793 24.8352 54.0179 24.8983 53.8562 24.9566L53.4103 23.8427ZM55.07 23.2534L55.5604 23.0772L55.9703 24.2299C55.8037 24.2824 55.6383 24.3341 55.4747 24.3885L55.07 23.2534ZM56.7627 22.7432L57.2595 22.5832L57.6238 23.7292C57.4563 23.7757 57.2904 23.8258 57.1237 23.8741L56.7627 22.7432ZM58.4598 22.2714L58.9611 22.1298L59.2848 23.2904C59.1189 23.3335 58.9502 23.3744 58.781 23.4166L58.4598 22.2714ZM60.1719 21.858L60.6765 21.7336L60.9616 22.9106C60.7923 22.9452 60.6255 22.9817 60.4541 23.0209L60.1719 21.858ZM61.896 21.5039L62.4059 21.3978L62.6499 22.588C62.4792 22.6173 62.309 22.6487 62.139 22.6792L61.896 21.5039ZM63.6331 21.2117L64.1452 21.1232L64.3492 22.3245C64.1781 22.3494 64.0075 22.3735 63.836 22.3988L63.6331 21.2117ZM65.3773 20.979L65.8928 20.9089L66.0557 22.1192C65.8837 22.1359 65.7125 22.1566 65.5388 22.1747L65.3773 20.979ZM67.131 20.8081L67.6491 20.7559L67.7681 21.9729C67.5957 21.9852 67.4218 21.995 67.2494 22.0095L67.131 20.8081ZM68.8989 20.7198L69.4193 20.6847L69.4947 21.8826C69.3206 21.8871 69.1488 21.8986 68.9757 21.9062L68.8989 20.7198ZM70.6576 20.6723L71.1782 20.6559L71.2111 21.8595C71.0375 21.8585 70.8645 21.8568 70.69 21.8568L70.6576 20.6723ZM72.4169 20.6852L72.9381 20.6878L72.93 21.8889C72.7558 21.8816 72.5833 21.8792 72.411 21.8746L72.4169 20.6852ZM74.1682 20.7367L74.6877 20.7555L74.6346 21.9815C74.4605 21.9691 74.2901 21.9551 74.1156 21.9452L74.1682 20.7367ZM75.9239 20.8722L76.4425 20.9089L76.3496 22.1282C76.1785 22.1101 76.0047 22.0932 75.8315 22.0769L75.9239 20.8722ZM77.6724 21.0692L78.1912 21.124L78.0546 22.3392C77.8835 22.3141 77.7134 22.2899 77.5407 22.2687L77.6724 21.0692ZM79.4063 21.303L79.9197 21.3783L79.7389 22.607C79.5686 22.5773 79.3982 22.547 79.2289 22.5205L79.4063 21.303ZM81.1385 21.6225L81.6517 21.7128L81.4283 22.9325C81.2572 22.8946 81.0888 22.8613 80.9171 22.827L81.1385 21.6225ZM82.866 22.0243L83.3746 22.1323L83.1142 23.322C82.945 23.2798 82.7767 23.2379 82.609 23.1981L82.866 22.0243ZM84.5705 22.4611L85.0757 22.5878L84.7748 23.762C84.6085 23.7141 84.4415 23.6727 84.274 23.625L84.5705 22.4611ZM86.2606 22.961L86.76 23.1039L86.4129 24.2713C86.2496 24.2178 86.0843 24.1609 85.9203 24.1103L86.2606 22.961ZM87.9308 23.516L88.4252 23.6769L88.0437 24.8269C87.8813 24.7672 87.7178 24.7111 87.5532 24.6542L87.9308 23.516ZM89.5804 24.1296L90.0704 24.3107L89.6473 25.4455C89.4872 25.3803 89.3272 25.3159 89.1673 25.2524L89.5804 24.1296ZM91.2084 24.8004L91.6899 24.9988L91.23 26.1183C91.0712 26.0473 90.9126 25.9772 90.7541 25.9082L91.2084 24.8004ZM92.809 25.531L93.283 25.7435L92.7856 26.8444C92.6297 26.7691 92.4727 26.6952 92.3169 26.6199L92.809 25.531ZM94.3877 26.3122L94.8528 26.5424L94.3155 27.6289C94.1615 27.5464 94.009 27.4651 93.8555 27.3848L94.3877 26.3122ZM95.9348 27.1498L96.3931 27.396L95.8182 28.4612C95.6679 28.3742 95.5163 28.2896 95.3665 28.2042L95.9348 27.1498ZM97.4544 28.0432L97.9032 28.303L97.2882 29.352C97.1422 29.2599 96.9946 29.1676 96.8484 29.0764L97.4544 28.0432ZM98.9419 28.9875L99.3819 29.265L98.7298 30.292C98.5861 30.1942 98.4428 30.0996 98.2984 30.0041L98.9419 28.9875ZM100.394 29.9819L100.824 30.2753L100.136 31.28C99.9963 31.1786 99.8553 31.079 99.7135 30.9775L100.394 29.9819ZM101.811 31.0277L102.23 31.3355L101.503 32.321C101.367 32.2145 101.232 32.1058 101.094 32.0004L101.811 31.0277ZM103.191 32.12L103.598 32.4442L102.84 33.4008C102.707 33.2903 102.573 33.1801 102.44 33.0702L103.191 32.12ZM104.531 33.263L104.928 33.5993L104.134 34.5306C104.007 34.4153 103.877 34.301 103.748 34.1853L104.531 33.263ZM105.829 34.4522L106.215 34.8027L105.387 35.7079C105.263 35.5873 105.14 35.4672 105.014 35.3489L105.829 34.4522ZM107.086 35.6852L107.459 36.0477L106.603 36.9231C106.483 36.7983 106.36 36.6769 106.239 36.5538L107.086 35.6852ZM108.3 36.9601L108.66 37.3366L107.772 38.1829C107.657 38.0544 107.543 37.9249 107.424 37.7973L108.3 36.9601ZM109.471 38.2764L109.817 38.6634L108.899 39.4789C108.787 39.3465 108.676 39.2151 108.563 39.0846L109.471 38.2764ZM110.591 39.6338L110.924 40.0332L109.979 40.8146C109.874 40.6788 109.764 40.5444 109.657 40.4081L110.591 39.6338ZM111.665 41.0284L111.985 41.439L111.008 42.1925C110.907 42.0509 110.808 41.9107 110.704 41.7715L111.665 41.0284ZM112.691 42.461L112.995 42.8839L111.994 43.6024C111.899 43.459 111.798 43.3174 111.701 43.1738L112.691 42.461ZM113.665 43.9282L113.955 44.3609L112.924 45.0458C112.833 44.8994 112.743 44.751 112.649 44.6045L113.665 43.9282ZM114.586 45.4283L114.86 45.8706L113.805 46.5211C113.72 46.3707 113.633 46.2217 113.544 46.0725L114.586 45.4283ZM115.454 46.975L115.712 47.4261L114.64 48.0359C114.559 47.8828 114.476 47.7302 114.395 47.5781L115.454 46.975ZM116.266 48.5508L116.509 49.011L115.419 49.5827C115.344 49.4269 115.269 49.2712 115.191 49.1166L116.266 48.5508ZM117.026 50.1383L117.253 50.6071L116.139 51.1408C116.069 50.9829 115.997 50.8258 115.927 50.6679L117.026 50.1383ZM117.729 51.7506L117.939 52.226L116.801 52.7246C116.736 52.5639 116.674 52.4024 116.608 52.2425L117.729 51.7506ZM118.376 53.3864L118.57 53.8704L117.411 54.3283C117.354 54.1652 117.292 54.004 117.232 53.8413L118.376 53.3864ZM118.966 55.0451L119.143 55.5348L117.963 55.9552C117.911 55.7912 117.859 55.6265 117.805 55.4612L118.966 55.0451ZM119.499 56.723L119.657 57.2173L118.46 57.5976C118.414 57.4304 118.365 57.2651 118.315 57.1001L119.499 56.723ZM119.97 58.4172L120.11 58.9174L118.901 59.2553C118.86 59.0873 118.819 58.9189 118.776 58.752L119.97 58.4172ZM120.383 60.128L120.507 60.6318L119.278 60.9304C119.243 60.7607 119.207 60.5918 119.17 60.4237L120.383 60.128ZM120.736 61.8523L120.841 62.3588L119.601 62.6136C119.572 62.4428 119.541 62.2732 119.509 62.1027L120.736 61.8523ZM121.029 63.5879L121.117 64.0985L119.866 64.3118C119.841 64.1403 119.819 63.9683 119.793 63.7972L121.029 63.5879ZM121.258 65.3412L121.328 65.8564L120.075 66.0246C120.058 65.852 120.037 65.6809 120.016 65.5109L121.258 65.3412ZM121.429 67.0948L121.48 67.6099L120.22 67.7352C120.207 67.5628 120.197 67.389 120.183 67.2169L121.429 67.0948ZM121.539 68.8505L121.573 69.3665L120.311 69.4471C120.305 69.2751 120.294 69.1029 120.287 68.9297L121.539 68.8505ZM121.589 70.6093L121.605 71.1264L120.336 71.1643C120.336 70.9901 120.339 70.8179 120.337 70.6452L121.589 70.6093ZM121.577 72.3698L121.575 72.8868L120.308 72.879C120.314 72.7061 120.318 72.5332 120.321 72.3609L121.577 72.3698ZM121.502 74.1268L121.481 74.6442L120.216 74.5923C120.229 74.4196 120.241 74.247 120.252 74.0747L121.502 74.1268ZM121.37 75.8733L121.331 76.3889L120.07 76.2924C120.088 76.121 120.104 75.9487 120.12 75.7769L121.37 75.8733ZM121.173 77.6218L121.117 78.1366L119.862 77.9967C119.886 77.8263 119.909 77.6549 119.93 77.4824L121.173 77.6218ZM120.916 79.3629L120.842 79.875L119.597 79.6932L119.683 79.1832L120.916 79.3629ZM120.597 81.0929L120.505 81.6021L119.272 81.3768C119.307 81.2072 119.341 81.0378 119.375 80.8687L120.597 81.0929ZM120.218 82.8109L120.109 83.3171L118.885 83.05C118.927 82.8818 118.971 82.7134 119.011 82.5458L120.218 82.8109ZM119.781 84.516L119.652 85.0177L118.448 84.71C118.494 84.5429 118.536 84.3765 118.584 84.2087L119.781 84.516ZM119.281 86.2081L119.135 86.7059L117.942 86.3561C117.995 86.1918 118.051 86.0267 118.102 85.8614L119.281 86.2081ZM118.723 87.8782L118.561 88.369L117.387 87.9805C117.446 87.8169 117.502 87.6546 117.558 87.4913L118.723 87.8782ZM118.11 89.5268L117.93 90.0117L116.773 89.5827C116.837 89.4215 116.901 89.2616 116.964 89.1015L118.11 89.5268ZM117.438 91.1521L117.242 91.6327L116.103 91.1635C116.172 91.005 116.242 90.8469 116.31 90.6875L117.438 91.1521ZM116.711 92.754L116.499 93.2262L115.379 92.7198C115.455 92.5638 115.529 92.4079 115.602 92.252L116.711 92.754ZM115.929 94.3296L115.699 94.7946L114.597 94.2492C114.678 94.0961 114.762 93.9445 114.841 93.7905L115.929 94.3296ZM115.091 95.8763L114.846 96.3327L113.767 95.7511C113.853 95.6012 113.937 95.4493 114.023 95.3001L115.091 95.8763ZM114.2 97.3944L113.94 97.8411L112.881 97.2222C112.972 97.075 113.066 96.9286 113.155 96.7807L114.2 97.3944ZM113.257 98.8783L112.982 99.3175L111.944 98.6603C112.041 98.517 112.138 98.3735 112.232 98.2285L113.257 98.8783ZM112.263 100.33L111.971 100.759L110.96 100.068C111.063 99.9282 111.161 99.7858 111.262 99.6447L112.263 100.33ZM111.218 101.746L110.913 102.163L109.922 101.438C110.029 101.303 110.138 101.168 110.243 101.031L111.218 101.746ZM110.126 103.125L109.805 103.532L108.843 102.77C108.953 102.637 109.063 102.504 109.173 102.37L110.126 103.125ZM74.0214 114.22C73.518 114.257 73.0018 114.296 72.4945 114.304C72.5073 114.711 72.5205 115.12 72.5343 115.53C72.85 115.526 73.165 115.52 73.4763 115.516C73.494 115.879 73.5137 116.24 73.5319 116.605C73.0356 116.612 72.54 116.618 72.0453 116.625C71.8696 116.626 71.6972 116.628 71.5207 116.633C71.5165 116.451 71.515 116.268 71.5124 116.087L71.493 114.929C71.4876 114.544 71.4767 113.844 71.4715 113.457C71.4713 113.436 71.47 113.415 71.4676 113.396C72.3503 113.388 73.2344 113.35 74.114 113.289L74.0214 114.22ZM103.041 98.8747C103.055 98.8867 103.069 98.8978 103.083 98.9092C103.602 99.3483 104.366 99.9882 104.886 100.428C105.407 100.868 105.927 101.307 106.446 101.747C106.894 101.199 107.34 100.652 107.786 100.105L109.126 98.4631C108.649 98.1153 108.172 97.7639 107.696 97.4147C107.22 97.0655 106.679 96.663 106.203 96.3137C105.847 96.8048 105.486 97.3218 105.097 97.7991C105.418 98.0516 105.741 98.303 106.062 98.5558L106.659 97.8238C106.948 98.044 107.238 98.2639 107.528 98.4836L106.587 99.6362C106.476 99.7703 106.367 99.9067 106.257 100.041C106.116 99.9293 105.973 99.8133 105.834 99.6986C105.534 99.4552 105.233 99.2119 104.934 98.9688C104.635 98.7257 104.091 98.2819 103.792 98.0385C103.784 98.0319 103.775 98.0245 103.767 98.0176C103.811 97.9647 103.854 97.9122 103.898 97.8587C104.667 96.9167 105.386 95.9476 106.059 94.9625C106.52 94.2855 106.96 93.5997 107.378 92.9052C107.392 92.9139 107.409 92.9222 107.424 92.9307C108.012 93.2743 108.875 93.7714 109.464 94.1144C110.052 94.4573 110.641 94.8009 111.23 95.1432C111.574 94.5263 111.919 93.9099 112.264 93.2941C112.609 92.6782 112.954 92.0615 113.298 91.4439C112.767 91.1834 112.237 90.9202 111.707 90.6589C111.178 90.3975 110.575 90.0964 110.046 89.834C109.78 90.3792 109.515 90.9507 109.214 91.4891C109.575 91.6815 109.935 91.8729 110.296 92.0666C110.45 91.7909 110.604 91.5167 110.757 91.2427C111.081 91.4074 111.404 91.5733 111.728 91.7404L111.003 93.0392C110.919 93.1908 110.833 93.3441 110.747 93.4959C110.588 93.4076 110.429 93.3186 110.272 93.2323C109.934 93.0433 109.596 92.8554 109.259 92.6686C108.922 92.4809 108.311 92.1395 107.973 91.9516C107.965 91.9451 107.955 91.9416 107.945 91.9358C108.577 90.8208 109.153 89.6857 109.673 88.5303C110.009 87.7839 110.322 87.0316 110.612 86.2735C110.629 86.2798 110.648 86.2856 110.664 86.292C111.303 86.5287 112.24 86.8684 112.88 87.1031C113.519 87.3377 114.157 87.5741 114.797 87.8087C115.028 87.1414 115.261 86.4743 115.493 85.8073L116.191 83.8058C115.623 83.6416 115.055 83.4763 114.488 83.3097C113.922 83.1445 113.276 82.9525 112.71 82.7879C112.544 83.3698 112.382 83.9796 112.178 84.5578C112.567 84.6853 112.955 84.8124 113.343 84.9392C113.448 84.642 113.551 84.3447 113.656 84.0473C114.002 84.1534 114.35 84.2627 114.697 84.3695C114.534 84.8371 114.371 85.3049 114.208 85.7729L114.036 86.2675C113.863 86.2091 113.692 86.1493 113.521 86.0895C113.158 85.9647 112.79 85.8374 112.427 85.7095C112.065 85.5816 111.401 85.3538 111.037 85.227C111.025 85.2227 111.013 85.2187 111.001 85.2151C111.426 84.0096 111.793 82.7909 112.103 81.559C112.303 80.768 112.48 79.9729 112.634 79.1738C112.657 79.1783 112.681 79.1821 112.704 79.1862C113.373 79.3083 114.355 79.4801 115.025 79.6001C115.695 79.72 116.365 79.8419 117.037 79.963C117.149 79.2647 117.262 78.5673 117.375 77.8709C117.489 77.1745 117.602 76.4772 117.714 75.779C117.127 75.7156 116.54 75.6516 115.954 75.587C115.367 75.523 114.696 75.4461 114.111 75.3796C114.046 75.983 113.993 76.6111 113.895 77.2197C114.3 77.2776 114.703 77.3345 115.108 77.3927L115.26 76.4604C115.621 76.5059 115.981 76.5515 116.341 76.5973L116.103 78.0657C116.074 78.2372 116.047 78.4102 116.018 78.5816C115.839 78.5544 115.659 78.5241 115.481 78.4968C115.1 78.435 114.717 78.3742 114.337 78.3136L112.883 78.08C112.866 78.0765 112.85 78.0742 112.832 78.0715C113.03 76.8695 113.176 75.6629 113.269 74.4516C113.337 73.583 113.381 72.7121 113.394 71.8417C113.422 71.8422 113.45 71.8412 113.477 71.8414C114.158 71.8448 115.154 71.8446 115.836 71.8463C116.518 71.848 117.197 71.8515 117.879 71.8542C117.868 71.1478 117.859 70.4419 117.849 69.7366C117.84 69.0312 117.83 68.3252 117.819 67.6183C117.228 67.6565 116.639 67.6949 116.051 67.7337C115.462 67.7706 114.788 67.8124 114.199 67.8503C114.24 68.4548 114.297 69.0826 114.306 69.6982C114.713 69.6862 115.122 69.6709 115.532 69.658C115.527 69.3435 115.524 69.0284 115.519 68.7136C115.883 68.6962 116.245 68.6792 116.61 68.6608C116.617 69.1566 116.624 69.6522 116.629 70.1477C116.632 70.3224 116.634 70.497 116.637 70.6713C116.454 70.675 116.272 70.6779 116.092 70.6802C115.707 70.6861 115.321 70.6925 114.934 70.6997C114.549 70.705 113.848 70.7147 113.463 70.7205C113.44 70.7204 113.418 70.7215 113.396 70.7233C113.384 69.5063 113.321 68.2926 113.206 67.0821C113.124 66.2153 113.015 65.3513 112.879 64.4901C112.908 64.4857 112.936 64.4792 112.965 64.4739C113.637 64.3604 114.618 64.1866 115.29 64.0685C115.962 63.9505 116.632 63.837 117.305 63.7212C117.172 63.0276 117.04 62.3338 116.908 61.6398C116.776 60.9457 116.643 60.2517 116.51 59.5578C115.937 59.6996 115.361 59.8393 114.788 59.9791C114.215 60.119 113.558 60.2766 112.986 60.4151C113.133 61.0019 113.296 61.612 113.412 62.217C113.812 62.1335 114.211 62.0475 114.61 61.9633C114.551 61.6538 114.493 61.3434 114.434 61.0355L115.496 60.7934L115.773 62.2549C115.806 62.4259 115.838 62.599 115.872 62.7689C115.692 62.8038 115.514 62.8377 115.336 62.8727C114.955 62.9461 114.576 63.019 114.199 63.0916C113.82 63.1649 113.132 63.296 112.753 63.3692L112.685 63.3815C112.454 62.1305 112.168 60.8904 111.826 59.6613C111.608 58.8774 111.364 58.1008 111.101 57.3293C111.125 57.3206 111.149 57.3108 111.173 57.3018C111.814 57.0718 112.75 56.7306 113.39 56.5L115.314 55.8085L114.562 53.8274C114.311 53.1676 114.06 52.5072 113.81 51.846C113.268 52.0848 112.726 52.3226 112.186 52.5595C111.645 52.7978 111.027 53.0652 110.487 53.3031C110.733 53.8556 111.002 54.4264 111.219 55.0031C111.599 54.8514 111.977 54.6986 112.357 54.5475C112.244 54.253 112.132 53.9585 112.021 53.664L113.026 53.2412L113.554 54.6308C113.616 54.7939 113.678 54.9574 113.739 55.1204C113.569 55.1856 113.401 55.248 113.23 55.3143C112.869 55.4514 112.508 55.5899 112.148 55.7267C111.787 55.8634 111.13 56.1135 110.772 56.2516C110.755 56.2596 110.739 56.2653 110.722 56.272C110.279 55.0809 109.782 53.909 109.231 52.7564C108.88 52.023 108.507 51.2986 108.113 50.5832C108.13 50.5732 108.148 50.5629 108.165 50.5524C108.756 50.216 109.618 49.7176 110.21 49.3779C110.802 49.0382 111.392 48.7023 111.984 48.363C111.622 47.7564 111.26 47.1498 110.899 46.5431C110.538 45.9365 110.179 45.3291 109.824 44.721L108.35 45.7059C107.858 46.0344 107.296 46.4056 106.803 46.7327C107.144 47.2355 107.505 47.7513 107.821 48.2797C108.168 48.0637 108.514 47.8473 108.863 47.6318C108.7 47.3616 108.54 47.09 108.379 46.8206C108.683 46.623 108.99 46.4263 109.294 46.2283C109.548 46.6542 109.802 47.08 110.057 47.5058C110.145 47.655 110.235 47.8053 110.323 47.958C110.168 48.0521 110.012 48.1452 109.858 48.2395C109.526 48.4375 109.194 48.636 108.864 48.8352L107.598 49.5923C107.588 49.5979 107.577 49.6041 107.567 49.6108C106.926 48.5186 106.232 47.4525 105.487 46.4124C105.486 46.4123 105.486 46.412 105.485 46.4116C105.484 46.4111 105.484 46.4105 105.484 46.4099C105.009 45.7498 104.517 45.0993 104.001 44.4632L104.043 44.4293C104.565 43.9937 105.329 43.3521 105.852 42.9172L107.422 41.6096C106.961 41.0738 106.5 40.5383 106.04 40.0032C105.581 39.4681 105.119 38.9333 104.655 38.3988C104.229 38.808 103.8 39.2162 103.375 39.6253C102.95 40.0345 102.458 40.4961 102.031 40.9041C102.452 41.3404 102.899 41.785 103.302 42.2513C103.605 41.9777 103.91 41.705 104.216 41.4331C104.009 41.1955 103.804 40.9571 103.598 40.7176C103.863 40.472 104.131 40.2242 104.397 39.9764C104.721 40.3514 105.045 40.7267 105.369 41.1021C105.482 41.234 105.596 41.3667 105.71 41.5002C105.573 41.6198 105.435 41.7383 105.298 41.8577C105.007 42.1105 104.715 42.3643 104.424 42.6162C104.133 42.868 103.601 43.3274 103.311 43.5798C103.302 43.5866 103.295 43.595 103.286 43.6012C102.467 42.6405 101.595 41.7141 100.678 40.8172L100.675 40.8144C100.096 40.2486 99.4967 39.6955 98.878 39.1552C98.8891 39.1417 98.9014 39.1268 98.9131 39.1127C99.3533 38.5932 99.993 37.8297 100.433 37.31C100.873 36.7902 101.312 36.2693 101.752 35.7489C101.204 35.3024 100.657 34.8556 100.111 34.4086C99.5642 33.9616 99.0165 33.515 98.4679 33.069C98.1188 33.5469 97.7696 34.0236 97.4205 34.4992C97.0704 34.9763 96.6687 35.5166 96.3189 35.9928C96.8097 36.3495 97.3266 36.7091 97.804 37.099C98.0568 36.7775 98.3076 36.4557 98.5617 36.1341C98.3181 35.9329 98.0739 35.7357 97.8295 35.5361C98.0488 35.2469 98.2693 34.9575 98.4891 34.6676C98.8725 34.9809 99.2563 35.2942 99.6406 35.6074C99.7753 35.7188 99.9101 35.8302 100.046 35.9385C99.9324 36.0812 99.8172 36.222 99.7028 36.3625L98.9732 37.2609C98.7298 37.5604 98.2867 38.1037 98.0436 38.4035L98.0219 38.4298C97.9687 38.3858 97.9148 38.3413 97.8616 38.2973C96.9193 37.5285 95.9529 36.8108 94.9668 36.1379C94.2909 35.6765 93.603 35.236 92.9093 34.818L92.9361 34.7709C93.2797 34.1827 93.776 33.3182 94.1193 32.7303C94.4627 32.1423 94.8062 31.5534 95.1488 30.9643C94.5305 30.6191 93.9161 30.2748 93.2997 29.9306C92.6834 29.5865 92.0646 29.2397 91.4496 28.8961C91.1884 29.4275 90.926 29.9561 90.665 30.4852C90.4039 31.0144 90.1029 31.6187 89.8399 32.1474C90.3848 32.4133 90.9577 32.6791 91.4943 32.9783C91.6867 32.6178 91.8792 32.2571 92.0717 31.896C91.7978 31.7433 91.523 31.5901 91.2473 31.4363L91.7457 30.4665C92.1784 30.7078 92.6122 30.9499 93.0445 31.1909C93.1965 31.2757 93.3486 31.3619 93.5005 31.4461C93.4122 31.6058 93.3239 31.7654 93.2346 31.9242L92.6729 32.9375C92.4842 33.2735 92.1431 33.8854 91.9552 34.2227C91.9504 34.2329 91.945 34.2427 91.9389 34.2522C90.8246 33.621 89.6896 33.0454 88.5338 32.5253C87.787 32.1878 87.0347 31.8743 86.2768 31.5849C86.2821 31.5665 86.2886 31.5487 86.2942 31.53C86.5303 30.8925 86.871 29.9552 87.106 29.3161C87.341 28.6771 87.5773 28.0385 87.8123 27.3995C87.1446 27.1675 86.4779 26.935 85.8121 26.702C85.1464 26.469 84.4791 26.2365 83.8103 26.0044C83.6453 26.5728 83.4798 27.1404 83.3138 27.7072C83.1481 28.2745 82.9571 28.9208 82.7914 29.4851C83.3735 29.6533 83.9832 29.8147 84.563 30.0152L84.9444 28.8499C84.6473 28.7464 84.3502 28.6425 84.0529 28.5383C84.159 28.1917 84.268 27.8438 84.3748 27.4971C84.8415 27.6603 85.3096 27.8232 85.7788 27.9857C85.9418 28.0425 86.1083 28.1021 86.2731 28.1616C86.2143 28.3334 86.1539 28.5044 86.0948 28.6765L85.7154 29.769C85.5886 30.1335 85.3583 30.7957 85.2329 31.1607L85.2214 31.1965C84.0154 30.7714 82.7984 30.4044 81.5701 30.0954C81.5685 30.0949 81.5669 30.0946 81.5653 30.0943C80.7726 29.8929 79.9773 29.7152 79.1792 29.5612C79.1838 29.5394 79.187 29.5165 79.1905 29.4926C79.313 28.8222 79.4859 27.8411 79.6061 27.1706C79.7264 26.5001 79.848 25.8308 79.9676 25.1591C79.2694 25.0474 78.5725 24.9345 77.8767 24.8205C77.1809 24.7064 76.4835 24.5934 75.7845 24.4814C75.7198 25.0695 75.656 25.6564 75.5931 26.2421C75.5285 26.8283 75.4513 27.4995 75.3861 28.0864C75.9891 28.1498 76.6172 28.2024 77.2245 28.3013C77.2824 27.8956 77.3389 27.4916 77.3984 27.0867C77.0876 27.0364 76.7766 26.9861 76.4655 26.9357C76.5113 26.5763 76.5565 26.2148 76.6022 25.8554C77.0911 25.9344 77.5817 26.0141 78.0699 26.0919C78.2426 26.1206 78.415 26.1487 78.587 26.1761C78.5599 26.3573 78.5308 26.5367 78.5016 26.715C78.4404 27.0958 78.3803 27.4782 78.3191 27.8591C78.2579 28.24 78.1465 28.9329 78.0861 29.3127C78.0826 29.329 78.08 29.3461 78.0766 29.363C76.8705 29.1642 75.6598 29.0187 74.4446 28.9267C73.5794 28.8592 72.7135 28.8173 71.8468 28.8013C71.8454 28.774 71.8453 28.746 71.8442 28.7178C71.848 28.0377 71.8481 27.0411 71.8516 26.3607L71.8587 24.3169C71.1523 24.3274 70.447 24.3366 69.7393 24.3443C69.0316 24.3521 68.3267 24.365 67.6208 24.3748C67.6611 24.9664 67.6998 25.5562 67.7368 26.1442C67.7737 26.7329 67.8151 27.4062 67.8541 27.9966C68.4575 27.9538 69.087 27.8972 69.7019 27.8884C69.6872 27.4797 69.6753 27.0726 69.6614 26.6623C69.3453 26.6662 69.0316 26.6722 68.716 26.6748C68.6994 26.3122 68.6824 25.9492 68.6626 25.5875C69.1579 25.5799 69.6546 25.5734 70.1494 25.5665C70.3247 25.5654 70.4995 25.565 70.673 25.5584C70.6766 25.7405 70.68 25.9235 70.6818 26.1029C70.6877 26.4892 70.6949 26.8766 70.701 27.2619C70.707 27.6473 70.7164 28.3481 70.7225 28.7334C70.724 28.7562 70.7244 28.7768 70.7256 28.8C69.5092 28.8116 68.2962 28.8753 67.0865 28.991C66.2185 29.0727 65.3546 29.1817 64.495 29.318C64.4896 29.2908 64.4833 29.2618 64.4802 29.2353C64.3648 28.565 64.1913 27.5836 64.0748 26.9112C63.9583 26.2387 63.8428 25.5699 63.7272 24.897C63.0345 25.0316 62.341 25.1639 61.6467 25.2938L59.5641 25.6912C59.7051 26.266 59.8457 26.8403 59.9858 27.4143C60.1257 27.9881 60.283 28.6437 60.4225 29.2172C61.009 29.0704 61.619 28.9057 62.2234 28.7899C62.1396 28.3904 62.0551 27.9901 61.9701 27.5892C61.6626 27.6497 61.3532 27.708 61.043 27.7668C60.9629 27.4134 60.882 27.0591 60.8002 26.7039C61.2874 26.6107 61.7742 26.5177 62.2606 26.425C62.4322 26.3924 62.6046 26.3604 62.7753 26.327C62.8105 26.5053 62.845 26.684 62.8788 26.8631L63.098 27.9996C63.1711 28.3792 63.3034 29.0677 63.3753 29.4452C63.3798 29.4658 63.3846 29.4866 63.3872 29.5074C62.1365 29.7388 60.8968 30.025 59.668 30.3661C58.8836 30.5839 58.1058 30.8252 57.3346 31.09C57.3255 31.0674 57.3169 31.0446 57.3083 31.0212C57.0807 30.3819 56.7375 29.4447 56.5082 28.8046C56.2789 28.1645 56.046 27.5231 55.8159 26.8812C55.1543 27.1329 54.4954 27.3821 53.8347 27.6322C53.1739 27.8822 52.5141 28.1354 51.8537 28.3857L52.5678 30.0097C52.8059 30.5506 53.0727 31.1671 53.3104 31.7084C53.863 31.4619 54.4338 31.1934 55.0107 30.9764C54.8591 30.597 54.7063 30.219 54.5535 29.8374C54.2593 29.9495 53.9646 30.061 53.6693 30.1721C53.5289 29.8382 53.3881 29.5036 53.2469 29.1683C53.7093 28.9922 54.1739 28.8155 54.6374 28.6409C54.7998 28.578 54.9643 28.5162 55.1256 28.4547C55.1908 28.6249 55.2564 28.7954 55.3206 28.9647C55.4577 29.3258 55.5965 29.6863 55.7329 30.0468C55.8694 30.4073 56.1187 31.0634 56.2579 31.422C56.2632 31.4374 56.2704 31.4527 56.2773 31.4689C55.0855 31.911 53.9138 32.4079 52.7621 32.9596C52.0284 33.3108 51.3035 33.6832 50.5874 34.0769L50.5593 34.0293C50.2226 33.4376 49.7251 32.5759 49.3842 31.9837C49.0432 31.3914 48.7073 30.8016 48.3699 30.2106C47.7615 30.5715 47.1546 30.9329 46.549 31.2946C45.9435 31.6564 45.3369 32.0183 44.7292 32.3802C45.0589 32.8725 45.387 33.3638 45.7134 33.854C46.0409 34.345 46.4131 34.9072 46.7395 35.3996C47.244 35.0606 47.7571 34.6979 48.2872 34.3823C48.0708 34.0355 47.8541 33.689 47.6372 33.3393C47.368 33.5018 47.097 33.6623 46.8255 33.8234C46.6296 33.5185 46.4315 33.2123 46.234 32.9067C46.6591 32.6532 47.0862 32.4003 47.5106 32.1456C47.6621 32.058 47.8117 31.9677 47.9629 31.8797C48.0566 32.0347 48.1507 32.19 48.2454 32.3457C48.4414 32.6764 48.6421 33.0091 48.8401 33.3395C49.038 33.67 49.3964 34.272 49.5944 34.6025C49.6001 34.6124 49.6067 34.6214 49.6124 34.6313C48.5206 35.272 47.4553 35.9644 46.4166 36.7087L46.4146 36.7111C46.4144 36.7118 46.414 36.7125 46.4135 36.7131C46.413 36.7137 46.4124 36.7142 46.4118 36.7145C45.7515 37.1877 45.1011 37.68 44.4647 38.1962C44.4534 38.1816 44.4428 38.1699 44.432 38.1569C43.997 37.6335 43.3544 36.87 42.9194 36.3465C42.4844 35.8231 42.0488 35.301 41.6128 34.7767C41.0782 35.2393 40.5431 35.7006 40.0076 36.1605C39.4721 36.6204 38.9376 37.0822 38.4041 37.5458C38.8134 37.9723 39.2221 38.3993 39.6304 38.8266C40.0381 39.2536 40.5011 39.7432 40.9094 40.1695C41.3454 39.7495 41.7899 39.3003 42.2566 38.8987C41.9848 38.5944 41.712 38.2911 41.4399 37.9871C41.2021 38.1919 40.9625 38.3974 40.7245 38.6038C40.4786 38.3384 40.2309 38.0703 39.9834 37.8041C40.3582 37.48 40.7341 37.1574 41.1075 36.8321C41.2403 36.7192 41.3738 36.6056 41.5052 36.4915C41.6249 36.6282 41.7443 36.7652 41.8628 36.9033C42.1153 37.1951 42.3688 37.4871 42.621 37.7787C42.8732 38.0702 43.3316 38.5984 43.5852 38.8911C43.5911 38.899 43.5976 38.9063 43.6048 38.9131C42.6438 39.7327 41.7172 40.605 40.8215 41.5215L40.818 41.5256C40.2523 42.1047 39.6993 42.7036 39.1591 43.3221C39.1463 43.3115 39.1322 43.2998 39.119 43.289C38.5999 42.849 37.836 42.2078 37.316 41.7689C36.796 41.3299 36.2759 40.8891 35.7562 40.4498C35.3093 40.9976 34.8622 41.5444 34.4148 42.09C33.9691 42.6386 33.5234 43.185 33.0758 43.7344C33.554 44.0825 34.0308 44.4329 34.5056 44.7816C34.9803 45.1303 35.5248 45.5325 35.9981 45.8823C36.3561 45.3914 36.715 44.8739 37.1068 44.3998C36.7853 44.1464 36.4638 43.8959 36.1409 43.6413C35.9435 43.8852 35.746 44.129 35.5439 44.3737C35.2543 44.1542 34.9652 43.9333 34.6764 43.715C34.9886 43.3291 35.3015 42.9448 35.6152 42.562C35.7259 42.4279 35.8376 42.2928 35.9462 42.1564C36.0896 42.2707 36.2298 42.386 36.3712 42.5006C36.6673 42.7453 36.9709 42.9874 37.2693 43.2299C37.5678 43.4725 38.1121 43.9164 38.4109 44.1593C38.4199 44.1667 38.4272 44.1727 38.4365 44.1804C38.3917 44.2347 38.345 44.2862 38.3026 44.3425C37.5342 45.2845 36.8147 46.2491 36.144 47.2362C35.6814 47.911 35.2414 48.597 34.8239 49.294C34.8077 49.2847 34.793 49.2766 34.7778 49.2682C34.1896 48.9245 33.3262 48.4269 32.7378 48.0848C32.1494 47.7428 31.561 47.3979 30.9719 47.0553C30.627 47.6716 30.2817 48.2876 29.9362 48.9034C29.5906 49.5191 29.2458 50.1359 28.9019 50.7538C29.4346 51.0156 29.9648 51.2768 30.4926 51.5373C31.0219 51.8003 31.6259 52.1016 32.1542 52.3637C32.4202 51.8195 32.6857 51.2463 32.9867 50.7089C32.6243 50.5141 32.265 50.3248 31.904 50.1311C31.7525 50.406 31.5973 50.6796 31.4424 50.9557C31.1198 50.7903 30.796 50.6233 30.4737 50.4582L31.1981 49.1594C31.2823 49.0074 31.3687 48.855 31.454 48.7039C31.6124 48.7895 31.7709 48.8785 31.9302 48.9665C32.2666 49.1533 32.6072 49.3434 32.942 49.5294C33.2768 49.7153 33.8903 50.0594 34.2271 50.2464C34.2365 50.2508 34.2456 50.2558 34.2543 50.2613C33.6231 51.3752 33.0475 52.5103 32.5277 53.6667C32.1913 54.4144 31.8784 55.167 31.589 55.9245C31.5722 55.9188 31.5542 55.9138 31.536 55.9069C30.8991 55.6714 29.9611 55.3324 29.3225 55.0961C28.684 54.8597 28.0463 54.623 27.4053 54.3904C27.1713 55.0564 26.9384 55.7231 26.7069 56.3904L26.0093 58.3922C26.5767 58.556 27.1444 58.7214 27.7124 58.8883C28.2789 59.0535 28.9249 59.2449 29.4903 59.4108C29.6581 58.8291 29.8205 58.2201 30.0244 57.6385C29.6362 57.5115 29.2475 57.3842 28.8584 57.2565C28.7547 57.5551 28.6504 57.851 28.5472 58.1483C28.199 58.0426 27.8518 57.9342 27.5061 57.827L27.9843 56.4115C28.0434 56.2464 28.1004 56.0818 28.1585 55.9158C28.3313 55.9755 28.5014 56.0328 28.673 56.0933C29.0378 56.2203 29.4023 56.347 29.7658 56.4729C30.1293 56.5988 30.7929 56.8309 31.158 56.9541C31.1688 56.9591 31.1801 56.9632 31.1916 56.9662C30.781 58.1321 30.4233 59.3095 30.1184 60.4985C30.1208 60.5005 30.118 60.504 30.1184 60.5084C30.1148 60.5183 30.1118 60.5285 30.1095 60.5388C30.108 60.5478 30.1058 60.5567 30.1028 60.5653C30.1023 60.5707 30.0995 60.5742 30.0991 60.5796C30.0956 60.593 30.093 60.6066 30.0888 60.6188C29.8871 61.4113 29.7094 62.2085 29.5556 63.0106C29.534 63.0053 29.512 63.0016 29.4899 62.9994C28.8189 62.8769 27.8384 62.704 27.1684 62.5824C26.4984 62.4608 25.8273 62.3413 25.1573 62.2197C25.0449 62.9187 24.9313 63.6163 24.8167 64.3123L24.4784 66.4035C25.0661 66.4692 25.653 66.533 26.2392 66.5949C26.8254 66.6595 27.4954 66.7381 28.0827 66.8035C28.1457 66.2003 28.1987 65.5724 28.2972 64.9648C27.8937 64.9062 27.4893 64.8484 27.084 64.7914C27.035 65.0998 26.9846 65.4108 26.9329 65.7243C26.5726 65.6784 26.2104 65.6326 25.8506 65.5888C25.9302 65.0998 26.0093 64.6102 26.0882 64.1198C26.1176 63.9476 26.1443 63.776 26.1727 63.603C26.352 63.6302 26.5322 63.6605 26.7111 63.6896C27.092 63.7508 27.4737 63.811 27.8549 63.8725C28.2362 63.934 28.9286 64.0445 29.3075 64.104C29.3241 64.1078 29.3394 64.1089 29.3577 64.1135C29.1601 65.3167 29.015 66.5245 28.9222 67.7368C28.8553 68.606 28.8137 69.4761 28.7976 70.347C28.7705 70.3461 28.7432 70.3474 28.7161 70.3471C28.0352 70.3444 27.0387 70.3449 26.3596 70.342C25.6805 70.3391 24.9971 70.3372 24.3156 70.3329C24.3246 71.0408 24.3342 71.7465 24.3444 72.45C24.3546 73.1535 24.3645 73.8608 24.374 74.5718C24.9655 74.5314 25.5553 74.4925 26.1433 74.4551C26.7323 74.4185 27.4056 74.3777 27.9953 74.3375C27.9537 73.7334 27.8963 73.1056 27.8878 72.4903C27.4784 72.5044 27.0714 72.517 26.662 72.5311C26.6673 72.8456 26.6711 73.1604 26.6735 73.4756C26.3106 73.4926 25.9479 73.5093 25.5839 73.5277C25.5758 73.0314 25.5711 72.5368 25.5628 72.0409C25.5624 71.8661 25.5614 71.6908 25.5557 71.5175C25.7374 71.5136 25.9205 71.5102 26.101 71.5093C26.4865 71.5028 26.8739 71.4943 27.2597 71.4904C27.6455 71.4865 28.3447 71.4735 28.7314 71.4686C28.7527 71.4673 28.774 71.4671 28.7953 71.4679C28.8069 72.6835 28.87 73.8973 28.9844 75.1095C29.066 75.9771 29.1754 76.841 29.3123 77.7012C29.2848 77.7063 29.2568 77.7134 29.2318 77.7177C28.5585 77.8289 27.5803 78.005 26.9088 78.1195C26.2374 78.234 25.5661 78.3526 24.895 78.4673C25.0268 79.1629 25.1604 79.8548 25.2911 80.5495L25.6877 82.6316C26.2621 82.4906 26.8364 82.35 27.4109 82.2098C27.9843 82.0696 28.6394 81.9137 29.2139 81.775C29.0657 81.1874 28.9026 80.577 28.7855 79.9714L27.5873 80.2251C27.6459 80.5328 27.7032 80.8442 27.7625 81.1537C27.4091 81.2338 27.0543 81.3134 26.6998 81.3949C26.6083 80.9088 26.5161 80.4209 26.4211 79.9348C26.3893 79.7632 26.3567 79.5916 26.3232 79.4201C26.5032 79.3845 26.682 79.3503 26.8578 79.317L27.9988 79.098C28.3758 79.0252 29.0661 78.8943 29.4451 78.8191C29.4639 78.8154 29.4835 78.8113 29.503 78.8088C29.7359 80.059 30.0199 81.3014 30.3621 82.529C30.5813 83.3137 30.823 84.0916 31.0874 84.8629C31.0652 84.8707 31.0425 84.8792 31.0213 84.8879C30.3797 85.1183 29.4449 85.4588 28.8046 85.6897C28.1643 85.9206 27.522 86.151 26.8801 86.3812C27.1318 87.0427 27.381 87.7016 27.6314 88.3627C27.8818 89.0237 28.1343 89.6829 28.3846 90.3433C28.927 90.1042 29.4671 89.8673 30.0086 89.6292C30.5502 89.3911 31.1672 89.1236 31.7076 88.8869C31.4598 88.3332 31.1923 87.7633 30.9746 87.1857C30.5956 87.3377 30.2175 87.4905 29.8374 87.6415C29.9497 87.9363 30.0616 88.2307 30.1729 88.5247C29.8382 88.6656 29.5033 88.8073 29.1681 88.9498C28.9936 88.4846 28.817 88.02 28.6409 87.5576C28.5787 87.3957 28.5169 87.2313 28.4544 87.0691C28.6245 87.0039 28.795 86.9383 28.9652 86.8731C29.3253 86.7392 29.6879 86.5981 30.0473 86.4601C30.4067 86.3221 31.0615 86.0771 31.422 85.9371C31.438 85.9318 31.4514 85.9254 31.4695 85.9183C31.9114 87.109 32.4077 88.2809 32.9587 89.434C33.3094 90.1673 33.6817 90.892 34.0754 91.608C34.0611 91.6183 34.0443 91.626 34.0278 91.6368C33.4376 91.9724 32.5751 92.4715 31.984 92.8111C31.3929 93.1507 30.8012 93.4875 30.2109 93.8254C30.5719 94.4338 30.9326 95.0408 31.2931 95.6465C31.6536 96.2521 32.0155 96.8588 32.379 97.4666C32.8715 97.137 33.3633 96.8088 33.8543 96.4819C34.3459 96.1531 34.9076 95.7822 35.4 95.4558C35.061 94.9513 34.6984 94.4359 34.3814 93.9089C34.0365 94.1251 33.6883 94.3403 33.3426 94.5553C33.5038 94.8275 33.6637 95.0963 33.8252 95.3681C33.5192 95.5653 33.2153 95.7614 32.9088 95.9599C32.6555 95.5327 32.4017 95.1063 32.1475 94.6807C32.0596 94.5331 31.9694 94.3812 31.879 94.2316C32.0349 94.1365 32.1897 94.0428 32.345 93.9491C32.6778 93.7525 33.0091 93.5529 33.3392 93.3547C33.6693 93.1564 34.2718 92.7967 34.6044 92.5976C34.6125 92.5927 34.6207 92.5878 34.6302 92.5811C35.2707 93.6732 35.964 94.7386 36.7101 95.7773C36.7101 95.7773 36.7136 95.7802 36.7146 95.781C37.1885 96.4418 37.6784 97.0903 38.1937 97.7277L38.1582 97.7565C37.6321 98.194 36.8724 98.8327 36.3478 99.2691C35.8232 99.7055 35.301 100.14 34.7786 100.576C35.2392 101.112 35.6996 101.647 36.1597 102.183C36.6199 102.718 37.0819 103.253 37.5457 103.787L38.8268 102.56C39.2541 102.153 39.7441 101.69 40.1691 101.281C39.749 100.845 39.3024 100.4 38.8983 99.934C38.5956 100.206 38.292 100.479 37.9874 100.751C38.1937 100.989 38.3978 101.227 38.6041 101.467C38.3376 101.712 38.0709 101.961 37.805 102.208C37.481 101.834 37.1576 101.459 36.8348 101.082C36.7192 100.951 36.6058 100.817 36.4928 100.683C36.6278 100.566 36.7672 100.445 36.9031 100.327C37.1946 100.075 37.4863 99.8209 37.7801 99.5688C38.0738 99.3167 38.5998 98.8582 38.8917 98.6063C38.898 98.5993 38.9047 98.5929 38.9118 98.5869C39.733 99.5484 40.6038 100.477 41.5243 101.374C42.1042 101.938 42.7038 102.491 43.3232 103.03C43.3114 103.045 43.3017 103.056 43.29 103.07C42.8505 103.59 42.2111 104.353 41.7715 104.873C41.3319 105.393 40.8917 105.913 40.4524 106.433C40.9996 106.881 41.5457 107.326 42.0923 107.775C42.6389 108.223 43.1883 108.666 43.7352 109.114C44.0843 108.636 44.4337 108.159 44.7832 107.683C45.1324 107.207 45.5346 106.666 45.8854 106.189C45.3943 105.833 44.8762 105.474 44.3998 105.085L43.6435 106.048C43.8854 106.248 44.1293 106.445 44.3736 106.647C44.1573 106.933 43.9351 107.225 43.7149 107.515C43.3307 107.202 42.9466 106.888 42.5627 106.575C42.4287 106.464 42.2929 106.352 42.1568 106.243C42.271 106.102 42.385 105.961 42.4999 105.82C42.7431 105.522 42.9866 105.22 43.2295 104.921C43.4723 104.622 43.9157 104.079 44.1591 103.779L44.1785 103.755C44.2317 103.799 44.2856 103.844 44.3378 103.887C45.2804 104.656 46.2485 105.374 47.2339 106.047C47.9111 106.51 48.5972 106.95 49.2921 107.368C49.2813 107.381 49.2752 107.397 49.2668 107.413C48.9224 108 48.4269 108.863 48.083 109.452C47.7391 110.04 47.3992 110.631 47.0539 111.218C47.6713 111.564 48.2864 111.908 48.9031 112.253C49.5198 112.598 50.1367 112.941 50.7531 113.286C51.0145 112.756 51.2761 112.227 51.5377 111.697C51.8007 111.168 52.1012 110.565 52.3623 110.036C51.8185 109.768 51.2455 109.505 50.7084 109.204L50.13 110.286C50.4053 110.438 50.6789 110.594 50.9551 110.746C50.7901 111.07 50.6216 111.394 50.4568 111.717C50.0244 111.476 49.5916 111.234 49.1583 110.993C49.0061 110.909 48.853 110.822 48.7019 110.736L48.9648 110.261C49.1526 109.925 49.3421 109.584 49.5286 109.249C49.7152 108.914 50.0573 108.3 50.2441 107.961C50.2498 107.954 50.2521 107.944 50.2576 107.935C51.3737 108.566 52.51 109.142 53.6635 109.663C54.4094 109.999 55.162 110.312 55.9213 110.602L55.9046 110.654C55.6679 111.292 55.3286 112.228 55.0918 112.868L54.3861 114.785C55.0524 115.019 55.719 115.252 56.3861 115.483C57.0544 115.714 57.7213 115.947 58.387 116.181L58.8841 114.478C59.0499 113.911 59.2432 113.263 59.4083 112.699C58.825 112.531 58.2171 112.37 57.6344 112.168L57.2535 113.332C57.5515 113.436 57.8473 113.54 58.1457 113.644C58.0383 113.991 57.9306 114.338 57.8236 114.687C57.3565 114.522 56.8871 114.361 56.42 114.196L55.9249 114.025L56.1023 113.51C56.2299 113.144 56.3569 112.779 56.4825 112.416C56.6081 112.053 56.8393 111.39 56.965 111.024C56.9684 111.013 56.9721 111.002 56.9762 110.992C58.142 111.401 59.3197 111.758 60.5094 112.064C60.512 112.064 60.5145 112.065 60.5169 112.066C60.5276 112.068 60.5382 112.071 60.5486 112.074L60.588 112.084C60.6024 112.087 60.615 112.09 60.629 112.093C60.629 112.093 60.6315 112.095 60.6321 112.096C61.4236 112.296 62.219 112.474 63.0184 112.628C63.0157 112.649 63.0099 112.673 63.0075 112.694C62.8844 113.365 62.7132 114.346 62.5916 115.016L62.2293 117.028C62.9276 117.14 63.6248 117.253 64.3209 117.368C65.017 117.483 65.7142 117.595 66.4127 117.706C66.4771 117.118 66.5415 116.53 66.6061 115.943C66.6707 115.357 66.7467 114.687 66.8125 114.099C66.2093 114.037 65.5822 113.982 64.9746 113.884C64.9173 114.288 64.8593 114.693 64.8004 115.099C65.1113 115.15 65.4222 115.198 65.7336 115.249C65.6877 115.61 65.6419 115.972 65.5984 116.332C65.1086 116.253 64.6191 116.173 64.1299 116.093C63.9571 116.067 63.7849 116.038 63.6129 116.01C63.6414 115.829 63.6699 115.65 63.6986 115.472C63.7601 115.09 63.8199 114.708 63.8814 114.327C63.9429 113.946 64.0548 113.255 64.1152 112.875C64.1168 112.859 64.1198 112.843 64.1221 112.827C65.3251 113.025 66.5327 113.17 67.745 113.262C68.6137 113.33 69.4834 113.372 70.3541 113.388L70.3541 113.469C70.3515 114.148 70.3524 115.145 70.35 115.826C70.3476 116.508 70.3445 117.188 70.3422 117.87C71.0475 117.86 71.7532 117.851 72.4592 117.841L73.9727 117.82L74.179 118.907C73.6178 118.915 73.054 118.922 72.4931 118.931C71.5929 118.941 70.6926 118.953 69.7922 118.966C69.6109 118.968 69.4309 118.971 69.2475 118.973C69.2524 118.791 69.2574 118.61 69.2612 118.428C69.2742 117.748 69.2904 117.064 69.3052 116.384C69.3201 115.703 69.3349 115.021 69.3484 114.34C68.84 114.347 68.318 114.312 67.8188 114.272C67.7549 114.896 67.6817 115.576 67.6324 116.108L67.4184 118.419L67.3687 118.964C67.1906 118.933 67.0092 118.906 66.8297 118.877C65.9425 118.732 65.0521 118.589 64.1646 118.443L61.4975 118.012C61.3182 117.983 61.139 117.954 60.96 117.924C60.9971 117.745 61.032 117.566 61.0671 117.389C61.2 116.72 61.333 116.051 61.466 115.383C61.597 114.715 61.7314 114.046 61.8634 113.379C61.3618 113.297 60.8532 113.172 60.3685 113.047C60.1977 113.65 60.0073 114.307 59.8655 114.821L59.255 117.06C59.2064 117.236 59.158 117.411 59.11 117.587C58.9402 117.526 58.7678 117.467 58.5957 117.408C57.7458 117.112 56.8959 116.815 56.0459 116.519C55.1959 116.223 54.3449 115.927 53.493 115.631C53.3219 115.571 53.1508 115.511 52.9798 115.45C53.0462 115.282 53.1115 115.112 53.1774 114.945C53.4232 114.308 53.6717 113.674 53.9181 113.038C54.1646 112.402 54.4127 111.767 54.6587 111.132C54.1791 110.964 53.6986 110.753 53.2446 110.545C52.9706 111.109 52.6681 111.725 52.4404 112.207C52.1091 112.908 51.7801 113.606 51.4481 114.306C51.371 114.47 51.2939 114.634 51.2154 114.799C51.0558 114.711 50.8961 114.622 50.7373 114.533C49.9523 114.094 49.167 113.654 48.3816 113.214C47.5962 112.774 46.8098 112.334 46.0225 111.896C45.8637 111.807 45.7058 111.72 45.5473 111.63C45.6415 111.475 45.7383 111.319 45.8298 111.166L46.89 109.418C47.2426 108.836 47.596 108.253 47.9502 107.67C47.5068 107.42 47.0722 107.128 46.6595 106.847C46.2909 107.356 45.8882 107.907 45.5792 108.343C45.1316 108.973 44.6867 109.605 44.2394 110.238L43.9236 110.683C43.7837 110.568 43.6434 110.452 43.5018 110.339C42.8044 109.769 42.107 109.2 41.4094 108.632C40.7118 108.064 40.0138 107.494 39.3152 106.923C39.177 106.809 39.0364 106.693 38.8926 106.58C39.0146 106.443 39.1355 106.305 39.2544 106.17C39.7028 105.657 40.1521 105.145 40.6024 104.632C41.0526 104.12 41.5018 103.607 41.95 103.094C41.5565 102.773 41.1775 102.41 40.8211 102.058C40.3724 102.495 39.8779 102.97 39.4981 103.345C38.9481 103.889 38.3987 104.433 37.85 104.978L37.4607 105.363C37.3419 105.226 37.2222 105.089 37.1031 104.951C36.518 104.27 35.9272 103.587 35.3409 102.907C34.7547 102.227 34.1637 101.542 33.5761 100.861C33.4573 100.723 33.3385 100.585 33.2185 100.449C33.3611 100.334 33.5047 100.22 33.6472 100.105C34.1749 99.6779 34.7101 99.2533 35.2399 98.8275C35.7696 98.4017 36.3025 97.9728 36.8335 97.5463C36.502 97.1607 36.194 96.7382 35.9047 96.3305C35.3861 96.6829 34.8185 97.0652 34.3802 97.3683C33.7442 97.8073 33.1096 98.2494 32.4737 98.6904C32.3234 98.7935 32.1736 98.8959 32.0228 99.001C31.9291 98.846 31.8363 98.69 31.7443 98.533L30.3613 96.2139C29.9016 95.4404 29.4397 94.6644 28.9804 93.8924L28.7012 93.4245C28.8598 93.3381 29.0207 93.2489 29.1796 93.1622C29.7754 92.8346 30.3752 92.5063 30.9703 92.1787C31.5654 91.8512 32.1665 91.5228 32.7638 91.1947C32.5046 90.759 32.2722 90.2872 32.0568 89.8365C31.4858 90.0933 30.8601 90.37 30.3744 90.5925C29.6723 90.9153 28.97 91.2387 28.2672 91.5628C28.1013 91.6397 27.9359 91.7146 27.7697 91.7913C27.7055 91.6219 27.642 91.4532 27.5764 91.2827C27.2576 90.4413 26.9382 89.5999 26.6181 88.7586C26.298 87.9173 25.9781 87.0752 25.6583 86.2321C25.5941 86.0628 25.5306 85.894 25.4661 85.7209C25.6388 85.6653 25.8108 85.6057 25.9811 85.5488C26.6287 85.328 27.274 85.11 27.9199 84.8912C28.5658 84.6725 29.2088 84.4531 29.855 84.2341C29.676 83.7576 29.5294 83.2545 29.3958 82.7737C28.7877 82.9248 28.125 83.0901 27.6063 83.2238C26.8593 83.4206 26.1109 83.6197 25.3643 83.8133C25.1867 83.8608 25.0113 83.9054 24.8331 83.953C24.8011 83.7736 24.7671 83.5972 24.7326 83.4181C24.5638 82.5344 24.3955 81.65 24.2275 80.7649C24.0594 79.8799 23.8896 78.998 23.718 78.1192C23.6858 77.9421 23.6516 77.7632 23.6174 77.5843C23.7971 77.5583 23.9788 77.5305 24.1563 77.5028C24.8303 77.3988 25.5039 77.2947 26.177 77.1903C26.8501 77.086 27.524 76.9822 28.1985 76.879C28.1034 76.3783 28.0471 75.8567 27.9999 75.3601C27.3752 75.4039 26.6891 75.451 26.1572 75.4952C25.3861 75.5585 24.6158 75.6229 23.8462 75.6882C23.6642 75.7024 23.4821 75.7165 23.3003 75.7325C23.2982 75.5506 23.2954 75.3697 23.293 75.1875C23.2816 74.2865 23.2693 73.3866 23.256 72.4879C23.2445 71.587 23.2313 70.6847 23.2174 69.7859C23.2161 69.6052 23.2152 69.4241 23.212 69.2407C23.3938 69.2467 23.5763 69.251 23.7564 69.2533C24.4378 69.2674 25.1195 69.2829 25.8014 69.2998C26.4823 69.3118 27.1639 69.3285 27.8445 69.3437C27.838 68.8336 27.8746 68.3108 27.9124 67.8118C27.2894 67.7482 26.6091 67.6756 26.0771 67.6263C25.3072 67.5541 24.5367 67.4824 23.7656 67.4112C23.5839 67.396 23.4038 67.3797 23.2208 67.3611C23.2511 67.1837 23.2797 67.0027 23.3085 66.8236C23.4518 65.936 23.597 65.046 23.7411 64.1574C23.8852 63.2687 24.0299 62.3801 24.1736 61.4911C24.2039 61.3138 24.2322 61.1325 24.2617 60.9539L24.7954 61.0624C25.4641 61.1947 26.1328 61.3274 26.8016 61.4606C27.469 61.5923 28.1385 61.7257 28.8066 61.8573C28.8888 61.3554 29.0139 60.8465 29.1388 60.3618C28.5352 60.1916 27.8781 60.0016 27.3629 59.8608C26.6171 59.6562 25.8713 59.4524 25.1254 59.2493L24.5977 59.104C24.6576 58.9337 24.7172 58.7631 24.7766 58.5906C25.0728 57.7399 25.369 56.8901 25.665 56.0412C25.961 55.1922 26.2572 54.3413 26.5535 53.4882C26.6155 53.3174 26.6743 53.1456 26.7336 52.9754C26.9037 53.0404 27.0735 53.108 27.2418 53.1732C27.8786 53.4179 28.5129 53.6671 29.1489 53.9135C29.785 54.16 30.4193 54.4085 31.0531 54.6554C31.2219 54.1745 31.4335 53.694 31.6412 53.24C31.0786 52.9653 30.4621 52.6657 29.9807 52.4383C29.2814 52.1059 28.5822 51.7776 27.8815 51.4462C27.7147 51.3666 27.5528 51.2909 27.3874 51.2124L27.6547 50.7355L28.9725 48.3786C29.4119 47.5935 29.8511 46.8072 30.2901 46.0198C30.3808 45.8622 30.4691 45.7026 30.5574 45.5429C30.7139 45.6385 30.8705 45.7348 31.0232 45.8272C31.6068 46.1807 32.1899 46.5345 32.7727 46.8885C33.3555 47.2425 33.9377 47.5963 34.5194 47.9498C34.7675 47.5053 35.0612 47.0689 35.3439 46.6571C34.8342 46.2888 34.2843 45.8861 33.8483 45.577C33.2158 45.13 32.5857 44.6843 31.9532 44.2373C31.8036 44.1334 31.6556 44.0268 31.5068 43.9218C31.6227 43.7816 31.7383 43.6416 31.8508 43.4985C32.4208 42.8011 32.9902 42.104 33.559 41.4072C34.127 40.7101 34.6983 40.0117 35.2655 39.3133C35.3814 39.173 35.4967 39.0334 35.6102 38.8911C35.7478 39.0124 35.8854 39.133 36.0203 39.2527C36.5335 39.7012 37.0458 40.1502 37.557 40.5998C38.0682 41.0493 38.5807 41.4986 39.0946 41.9477C39.4187 41.5555 39.7787 41.1755 40.1306 40.8192C39.6943 40.3691 39.2204 39.8758 38.845 39.4963C38.3011 38.9469 37.7566 38.3974 37.2115 37.8477C37.0829 37.7176 36.9563 37.588 36.8261 37.4577L37.2378 37.1002C37.9197 36.5123 38.6012 35.9241 39.2822 35.3355C39.9631 34.7469 40.6452 34.1586 41.3284 33.5706L41.7418 33.2145C41.8564 33.3574 41.9706 33.5006 42.0812 33.6397C42.5097 34.1711 42.9351 34.7034 43.3619 35.2347C43.7888 35.7659 44.2156 36.2965 44.6428 36.8286C45.0283 36.4965 45.4509 36.1863 45.86 35.8975C45.5079 35.3792 45.1277 34.8133 44.8236 34.3742C44.3849 33.7378 43.9428 33.1032 43.5015 32.4677C43.3981 32.3177 43.2937 32.1674 43.19 32.0178C43.3458 31.925 43.503 31.8333 43.6586 31.7386C44.4309 31.2782 45.2042 30.8176 45.9784 30.3568C46.7526 29.896 47.526 29.4347 48.2984 28.9728L48.7666 28.6939C48.8546 28.8556 48.9408 29.0152 49.0281 29.1734C49.3575 29.7712 49.6837 30.3687 50.0131 30.9671C50.3426 31.5656 50.6688 32.1608 50.996 32.7591C51.4332 32.4982 51.9035 32.2675 52.3545 32.0517C52.098 31.4804 51.8211 30.855 51.5995 30.3702C51.2762 29.6665 50.9525 28.9637 50.6285 28.2618C50.5519 28.0956 50.4753 27.9294 50.4 27.7643C50.5694 27.7001 50.7381 27.6366 50.9089 27.5707C51.7488 27.2514 52.5899 26.9316 53.4322 26.6112C54.2746 26.2908 55.1159 25.9725 55.9563 25.6564C56.1259 25.5919 56.2955 25.5274 56.4649 25.4631C56.5237 25.6368 56.5837 25.8119 56.6401 25.9801C56.8588 26.626 57.0775 27.2719 57.2962 27.9178C57.515 28.5637 57.7343 29.209 57.9544 29.8537C58.4288 29.6723 58.9333 29.5269 59.4154 29.3938C59.2608 28.7858 59.0966 28.121 58.9612 27.6044C58.7666 26.8575 58.5704 26.1098 58.3725 25.3613C58.3269 25.1858 58.2797 25.0085 58.2333 24.8317C58.4127 24.7997 58.5905 24.764 58.7702 24.7316C59.6521 24.5622 60.5361 24.3933 61.4222 24.225C62.3083 24.0567 63.193 23.888 64.0762 23.7189L64.61 23.6169C64.6387 23.7982 64.6654 23.979 64.6929 24.1569C64.7979 24.8302 64.9019 25.504 65.0048 26.1783C65.1102 26.8509 65.212 27.5235 65.316 28.1978C65.8148 28.103 66.3363 28.0467 66.8349 27.9993C66.7884 27.373 66.742 26.6881 66.699 26.1554C66.6343 25.3855 66.5698 24.6151 66.5056 23.8441C66.4896 23.6622 66.4769 23.4813 66.4611 23.2991C66.6414 23.2963 66.8236 23.2946 67.0052 23.2923C67.9062 23.2809 68.8062 23.2686 69.7052 23.2555C70.6047 23.2429 71.5066 23.2323 72.4051 23.2188C72.587 23.2167 72.7681 23.2158 72.9501 23.2115C72.9452 23.3941 72.9398 23.5758 72.9367 23.7569C72.9233 24.4393 72.9085 25.121 72.8924 25.802C72.8763 26.4829 72.8616 27.1639 72.8482 27.8448C73.358 27.8393 73.8813 27.8745 74.3798 27.9131C74.4431 27.2904 74.5168 26.6093 74.5654 26.0784C74.6375 25.3085 74.7088 24.5382 74.7793 23.7676C74.7957 23.5852 74.8125 23.4044 74.8302 23.2225C75.0085 23.2511 75.1876 23.2803 75.3674 23.3099C76.2555 23.4549 77.1443 23.5989 78.0339 23.7421C78.9235 23.8852 79.8124 24.0293 80.7004 24.1743C80.8774 24.2043 81.0564 24.2318 81.2368 24.2605C81.2 24.4395 81.1646 24.6189 81.1295 24.7957L80.7313 26.8019C80.6 27.4688 80.4672 28.1368 80.3329 28.8061C80.8338 28.8874 81.3437 29.0134 81.8287 29.1379C82 28.5358 82.1897 27.8791 82.3302 27.3643C82.5343 26.6183 82.7367 25.8703 82.9412 25.1246C82.9902 24.9499 83.0373 24.7732 83.0859 24.5976C83.2568 24.6568 83.4284 24.7172 83.601 24.7772C84.4504 25.0721 85.3023 25.369 86.1515 25.6637C87.0006 25.9583 87.8532 26.2558 88.7048 26.5524C88.875 26.6124 89.0463 26.672 89.2188 26.7312C89.1515 26.9012 89.0846 27.0709 89.0198 27.2401C88.7728 27.8744 88.5258 28.5096 88.2789 29.1457C88.0321 29.7817 87.7852 30.4168 87.5384 31.051C88.0182 31.2184 88.4995 31.4311 88.9539 31.6391C89.2253 31.0755 89.527 30.4607 89.7566 29.9766C90.0871 29.2774 90.417 28.5778 90.7465 27.8779C90.8243 27.7138 90.9023 27.5491 90.9804 27.3838C91.1394 27.4728 91.2985 27.5617 91.4573 27.6511C92.2416 28.0895 93.0273 28.5288 93.8141 28.9689C94.601 29.409 95.3871 29.8486 96.1724 30.2878C96.3315 30.3768 96.4884 30.4635 96.6496 30.5548C96.5544 30.7087 96.4599 30.8632 96.3657 31.018C96.0152 31.6005 95.6588 32.1852 95.3057 32.768C94.9527 33.3508 94.5992 33.9327 94.2461 34.5155C94.6878 34.7642 95.126 35.0565 95.5368 35.3383C95.9058 34.8292 96.3074 34.2784 96.6159 33.8431C97.0641 33.2121 97.5111 32.5808 97.9571 31.9492C98.0612 31.7992 98.1675 31.6515 98.273 31.502C98.4112 31.6162 98.5519 31.7324 98.6952 31.8468C99.3924 32.4147 100.09 32.9837 100.787 33.5537C101.484 34.1238 102.182 34.6931 102.881 35.2617C103.019 35.376 103.16 35.4922 103.302 35.606C103.181 35.7425 103.061 35.8793 102.942 36.0163C102.492 36.5285 102.043 37.0409 101.594 37.5536L100.247 39.0906C100.639 39.4147 101.018 39.7756 101.376 40.1258C101.825 39.6893 102.317 39.2166 102.698 38.84C103.248 38.2958 103.798 37.7511 104.347 37.2058L104.735 36.8222C104.854 36.9599 104.973 37.0976 105.093 37.2339C105.682 37.9146 106.27 38.596 106.857 39.2779C107.444 39.9599 108.033 40.6419 108.622 41.3238C108.741 41.4619 108.86 41.5996 108.98 41.7355L108.554 42.0753C108.025 42.5048 107.49 42.9292 106.959 43.356C106.429 43.7828 105.897 44.209 105.366 44.6368C105.698 45.0217 106.009 45.4471 106.3 45.8537C106.818 45.5023 107.385 45.1221 107.823 44.8177C108.459 44.3769 109.095 43.936 109.73 43.4952L110.18 43.184C110.273 43.3399 110.366 43.4953 110.458 43.6518C110.919 44.4249 111.38 45.1984 111.841 45.9725C112.301 46.7465 112.763 47.52 113.224 48.2931L113.503 48.7614C113.342 48.8483 113.185 48.9355 113.024 49.0221C112.427 49.3515 111.828 49.6784 111.232 50.0057C110.636 50.333 110.037 50.6622 109.44 50.99C109.699 51.4276 109.931 51.8981 110.147 52.3488C110.718 52.0926 111.344 51.815 111.829 51.5921C112.532 51.2698 113.234 50.9462 113.937 50.6215C114.102 50.5463 114.267 50.4694 114.434 50.3931C114.498 50.5624 114.562 50.7311 114.628 50.9019L115.586 53.4263L116.545 55.9519C116.61 56.1213 116.674 56.2911 116.739 56.4613C116.566 56.5183 116.394 56.5767 116.222 56.6353C115.576 56.8547 114.93 57.0735 114.284 57.2918C113.639 57.51 112.994 57.7295 112.349 57.9502C112.53 58.4259 112.675 58.9298 112.81 59.4111C113.417 59.2575 114.08 59.0938 114.598 58.9574C115.346 58.7614 116.094 58.5654 116.842 58.3692L117.371 58.2291C117.404 58.4084 117.437 58.5864 117.472 58.7649C117.641 59.649 117.809 60.5333 117.977 61.4177L118.484 64.0714C118.517 64.2503 118.551 64.4279 118.586 64.6067C118.405 64.6318 118.226 64.6617 118.046 64.6883C117.372 64.7936 116.699 64.8974 116.025 64.9999C115.352 65.1056 114.678 65.2076 114.004 65.3124C114.099 65.8125 114.156 66.334 114.203 66.831C114.828 66.7853 115.51 66.7401 116.043 66.6956C116.812 66.6333 117.582 66.5688 118.354 66.5022C118.535 66.4875 118.716 66.4731 118.898 66.4577C118.9 66.639 118.903 66.8208 118.906 67.0021C118.917 67.9027 118.929 68.8029 118.942 69.7027L118.979 72.403C118.981 72.5848 118.984 72.7661 118.986 72.948C118.804 72.943 118.623 72.9386 118.44 72.9346C117.758 72.9211 117.077 72.9064 116.396 72.8905C115.716 72.8746 115.035 72.8603 114.353 72.8476C114.359 73.3561 114.325 73.8793 114.285 74.3772C114.909 74.4421 115.589 74.5134 116.12 74.5622C116.89 74.6344 117.662 74.7041 118.431 74.777C118.612 74.7932 118.793 74.8101 118.975 74.8262C118.945 75.0035 118.918 75.1854 118.888 75.3646C118.744 76.2532 118.6 77.142 118.455 78.0308L118.024 80.6976C117.994 80.8746 117.965 81.0566 117.936 81.2348C117.757 81.1986 117.579 81.1634 117.402 81.1274C116.733 80.9955 116.063 80.8611 115.396 80.7294C114.728 80.5977 114.059 80.4636 113.391 80.3314C113.309 80.8333 113.184 81.3419 113.058 81.8267C113.661 81.997 114.319 82.1872 114.833 82.3281C115.579 82.5324 116.326 82.7361 117.073 82.9391C117.247 82.9868 117.423 83.0351 117.6 83.0841C117.54 83.2538 117.48 83.4257 117.421 83.5969L116.533 86.1484L115.645 88.7007C115.585 88.872 115.525 89.0432 115.466 89.2151C115.295 89.1476 115.127 89.0824 114.957 89.016C114.321 88.7706 113.687 88.5224 113.051 88.275C112.415 88.0276 111.782 87.7815 111.145 87.5352C110.98 88.0163 110.766 88.4958 110.558 88.9496C111.121 89.2223 111.736 89.5229 112.22 89.7523C112.919 90.0832 113.619 90.4138 114.319 90.7441C114.484 90.8211 114.648 90.8988 114.813 90.9774C114.725 91.1344 114.636 91.2925 114.548 91.4522L113.229 93.8091L111.911 96.1676C111.821 96.3255 111.733 96.4852 111.644 96.6445C111.489 96.5507 111.334 96.4565 111.177 96.3606C110.594 96.0079 110.011 95.6546 109.429 95.3008C108.846 94.947 108.264 94.5938 107.681 94.2413C107.432 94.6833 107.141 95.1201 106.858 95.5309C107.367 95.9003 107.918 96.3009 108.354 96.6106C108.985 97.0575 109.617 97.5041 110.248 97.9505C110.395 98.054 110.546 98.1613 110.695 98.2671L110.351 98.6886L108.644 100.781L106.935 102.875L106.592 103.296C106.455 103.175 106.319 103.055 106.182 102.936C105.669 102.486 105.155 102.038 104.644 101.587C104.133 101.137 103.619 100.69 103.106 100.241C102.784 100.635 102.421 101.012 102.072 101.371C102.508 101.819 102.98 102.312 103.358 102.691C103.901 103.241 104.445 103.791 104.99 104.341C105.119 104.471 105.247 104.6 105.375 104.73L104.963 105.087C104.283 105.675 103.602 106.262 102.919 106.85C102.237 107.438 101.555 108.028 100.873 108.616C100.736 108.734 100.598 108.853 100.462 108.973C100.348 108.829 100.233 108.687 100.121 108.545C99.6926 108.017 99.2678 107.484 98.8399 106.952C98.4121 106.421 97.9878 105.889 97.5613 105.358C97.1754 105.689 96.7527 106 96.3457 106.289C96.6955 106.811 97.078 107.377 97.3826 107.815C97.822 108.451 98.2644 109.086 98.7047 109.722C98.8087 109.871 98.913 110.02 99.0165 110.172L98.5482 110.45L96.2284 111.832C95.4552 112.292 94.6815 112.753 93.9074 113.215L93.4392 113.494C93.3534 113.332 93.264 113.175 93.1796 113.014C92.8491 112.418 92.5222 111.82 92.1947 111.222C91.8673 110.625 91.5387 110.028 91.2106 109.431C90.7734 109.691 90.3031 109.923 89.8514 110.137C90.108 110.71 90.3852 111.334 90.6077 111.82C90.9308 112.522 91.2541 113.225 91.5778 113.929C91.6545 114.093 91.7305 114.259 91.8072 114.425C91.6378 114.489 91.4691 114.553 91.2986 114.618L88.7742 115.576L86.2473 116.536L85.7393 116.728C85.68 116.557 85.6224 116.382 85.5636 116.213C85.3442 115.566 85.1254 114.92 84.9071 114.275C84.6867 113.631 84.4697 112.983 84.2496 112.34C83.773 112.52 83.2699 112.667 82.7884 112.8C82.9425 113.406 83.1058 114.071 83.2405 114.587C83.4364 115.335 83.6324 116.084 83.8283 116.832C83.876 117.008 83.9235 117.183 83.969 117.36C83.7902 117.394 83.6113 117.428 83.4339 117.462C82.5498 117.63 81.6651 117.799 80.78 117.968L78.968 118.313L79.1367 117.181C79.6712 117.079 80.024 117.003 80.5582 116.902C81.2541 116.768 81.9486 116.635 82.6414 116.504C82.5003 115.928 82.3596 115.354 82.2194 114.781C82.0788 114.207 81.9232 113.552 81.783 112.978C81.1962 113.126 80.5865 113.289 79.9818 113.405C80.0654 113.805 80.1508 114.205 80.2338 114.606C80.5435 114.545 80.8537 114.489 81.1622 114.428C81.243 114.782 81.323 115.138 81.4044 115.492L79.9448 115.769L79.4308 115.867C79.395 115.689 79.3597 115.511 79.3258 115.333C79.2543 114.953 79.1803 114.573 79.1054 114.197C79.0304 113.82 78.9024 113.13 78.8293 112.75C78.8255 112.73 78.82 112.709 78.8166 112.686C80.0667 112.455 81.3067 112.169 82.5367 111.827C82.5367 111.827 82.5367 111.827 82.5364 111.831C83.3197 111.611 84.0969 111.368 84.868 111.104C84.8771 111.127 84.8874 111.151 84.8953 111.174C85.1246 111.815 85.4671 112.751 85.6962 113.392C85.9253 114.033 86.158 114.673 86.3885 115.315C87.0493 115.063 87.7086 114.814 88.3693 114.563L90.3507 113.811C90.1123 113.269 89.8754 112.727 89.636 112.188C89.3966 111.649 89.1309 111.028 88.8942 110.488C88.3414 110.734 87.7706 111.003 87.1943 111.22C87.3462 111.599 87.4981 111.978 87.6501 112.357L88.5313 112.022C88.6726 112.356 88.8117 112.693 88.953 113.028L87.5637 113.555C87.4012 113.617 87.2376 113.678 87.0739 113.741C87.0087 113.57 86.9441 113.401 86.8786 113.23C86.7416 112.872 86.6024 112.509 86.4659 112.148C86.3294 111.788 86.0815 111.136 85.9419 110.773C85.9353 110.758 85.9285 110.743 85.923 110.725C87.1143 110.284 88.286 109.788 89.438 109.236C90.1713 108.886 90.8954 108.514 91.6104 108.118C91.6197 108.135 91.6309 108.152 91.6411 108.169C91.9785 108.761 92.4753 109.622 92.8147 110.216C93.1542 110.809 93.4909 111.397 93.8309 111.986C94.4391 111.625 95.0461 111.264 95.6518 110.902C96.2576 110.54 96.8647 110.178 97.4733 109.816C97.1431 109.324 96.8156 108.833 96.4875 108.342C96.1593 107.851 95.7889 107.288 95.4593 106.798C94.9578 107.136 94.4421 107.498 93.9137 107.814C94.1292 108.162 94.3458 108.507 94.5613 108.856C94.8306 108.694 95.1013 108.534 95.3731 108.372C95.5696 108.677 95.7669 108.982 95.965 109.287C95.5399 109.542 95.1141 109.796 94.6876 110.05C94.5373 110.139 94.3865 110.228 94.2374 110.317L93.9578 109.849C93.76 109.519 93.5597 109.187 93.3623 108.856C93.1649 108.525 92.8055 107.922 92.6052 107.591C92.5986 107.581 92.5927 107.57 92.5866 107.559C93.6794 106.918 94.7462 106.223 95.787 105.477C96.4477 105.003 97.096 104.509 97.732 103.996C97.7428 104.009 97.7554 104.021 97.7658 104.034C98.2006 104.558 98.8418 105.321 99.2784 105.844C99.715 106.367 100.149 106.891 100.584 107.415C101.121 106.953 101.656 106.493 102.191 106.034C102.726 105.574 103.261 105.112 103.797 104.647C103.386 104.22 102.978 103.792 102.569 103.367C102.159 102.942 101.698 102.45 101.29 102.023C100.854 102.445 100.41 102.89 99.9433 103.295C100.216 103.598 100.489 103.902 100.76 104.206C100.998 104 101.236 103.794 101.475 103.59C101.721 103.855 101.969 104.121 102.217 104.389L101.091 105.36L100.693 105.701C100.573 105.565 100.454 105.427 100.336 105.289C100.084 104.998 99.83 104.705 99.5785 104.414L98.6142 103.3C98.6073 103.294 98.6007 103.285 98.5946 103.278C99.5559 102.458 100.486 101.584 101.38 100.667C101.951 100.092 102.503 99.4935 103.04 98.8751L103.041 98.8747ZM108.984 104.465L108.65 104.859L107.717 104.068C107.834 103.938 107.946 103.808 108.061 103.679L108.984 104.465Z" fill="#82231E"/>
<path fill-rule="evenodd" clip-rule="evenodd" d="M53.719 107.689V84.7807C53.719 83.7216 54.2811 83.131 54.6884 84.2715C55.4899 86.4372 55.2459 101.174 55.1334 107.972C55.1314 108.093 55.1295 108.211 55.1276 108.326C54.6533 108.123 54.1837 107.91 53.719 107.689ZM55.9075 108.652C56.1104 100.066 56.2906 83.9805 54.5948 82.292C54.0367 81.7421 53.5602 81.5506 53.1529 81.628C53.1203 80.6627 53.0958 77.7708 53.0999 76.8013C53.0999 75.2087 51.6458 74.9033 50.4646 74.8625C49.5033 74.7566 50.5175 71.8036 51.2792 71.5633C56.3503 71.0215 58.786 68.9035 59.3074 65.1847C60.1913 58.9283 54.5092 54.3298 48.5909 57.2217C42.5138 60.1951 49.487 69.0624 53.1895 65.4454C54.0042 64.6308 54.1671 63.4088 54.1997 62.415C54.1897 62.1076 54.1121 61.8062 53.9722 61.5322C53.8324 61.2583 53.6338 61.0187 53.3906 60.8304C53.1474 60.6421 52.8657 60.5097 52.5655 60.4429C52.2653 60.376 51.954 60.3762 51.6539 60.4436C49.6825 61.2582 49.821 62.3946 50.5461 62.8549C51.2048 63.126 51.4219 62.9109 51.6187 62.7159C51.821 62.5155 52.0019 62.3363 52.6193 62.7286C53.0836 63.03 53.2384 63.4781 52.8637 64.1461C52.159 65.1603 50.9452 65.478 48.8353 63.6247C45.7194 59.9588 51.043 56.9854 54.888 59.1768C57.8248 60.8672 59.4337 64.7489 57.5763 67.482C55.9298 69.8787 52.9359 69.9253 50.988 69.9556C50.9265 69.9565 50.8661 69.9574 50.8067 69.9584C48.5666 69.7694 46.4793 68.7452 44.959 67.0891C43.4387 65.433 42.5965 63.266 42.5993 61.0179C42.5575 59.0701 43.1618 57.1633 44.318 55.5952C45.4741 54.0271 47.117 52.8861 48.9901 52.3502C51.2385 51.7392 55.6823 51.6618 57.9633 51.6292C65.7023 51.5233 78.2965 51.6944 85.0783 51.8492C91.2165 52.004 98.4586 52.5416 98.4586 60.9649C98.4587 63.324 97.5286 65.5879 95.8701 67.2655C94.2115 68.9431 91.9584 69.8991 89.5995 69.9259C87.7299 69.8607 85.3675 69.5185 83.9826 67.482C82.1089 64.7489 83.6445 60.6024 86.5894 58.9283C90.4385 56.737 96.1654 60.1788 93.0494 63.8569C91.579 65.3884 89.1433 65.8405 88.4345 64.8263C88.0639 64.1542 88.0272 62.6919 88.5079 62.3824C89.0551 62.034 89.2755 62.3448 89.5285 62.7013C89.8404 63.1409 90.2016 63.6502 91.2857 63.0789C92.0108 62.6227 91.97 61.1238 89.9986 60.3132C87.3714 59.8367 85.4123 63.4658 87.9376 65.9342C91.6279 69.5471 99.041 60.191 92.9639 57.2176C87.0497 54.3297 81.3676 58.9283 82.2393 65.1847C82.7362 68.7365 84.9805 70.8301 89.5995 71.4818C90.4507 71.8443 91.0047 74.8503 90.4141 74.9277C88.9396 75.2454 87.5629 76.6466 87.6158 77.449C87.6158 78.009 87.6321 78.9387 87.6484 79.8684C87.6647 80.7981 87.681 81.7278 87.681 82.2879C87.2737 82.015 86.8216 82.125 86.2717 82.7644C84.9071 84.3528 84.4366 101.351 84.3262 109.387C83.7376 109.59 83.1429 109.78 82.5424 109.957C82.741 103.461 82.8908 87.0805 82.4511 84.4833C81.7668 80.5161 78.8993 79.2941 77.5959 84.7033C76.8335 87.8861 76.5145 106.997 76.4451 111.246C76.1119 111.29 75.7775 111.33 75.4418 111.366H74.1255C74.6795 106.519 75.0176 84.7399 73.7834 81.0048C72.3863 76.7728 68.4883 79.1434 67.5393 81.4407C66.2543 84.5606 66.3153 104.159 66.3368 111.075L66.3375 111.32C65.5191 111.224 64.7081 111.104 63.9054 110.96C64.1273 102.935 64.2643 83.1207 62.1423 81.1148C58.6391 77.7736 57.7695 99.9573 57.7617 109.35C57.1365 109.132 56.5183 108.899 55.9075 108.652ZM58.6598 109.651C58.6727 109.084 58.6862 108.454 58.7007 107.775C58.8782 99.4737 59.2158 83.6888 60.7045 82.96C62.766 81.9223 63.0563 98.1884 63.2192 107.316C63.2436 108.678 63.265 109.881 63.2891 110.844C61.7113 110.536 60.1663 110.136 58.6598 109.651ZM77.1822 111.142C77.1987 110.5 77.2162 109.683 77.2366 108.736C77.4028 101.004 77.755 84.6213 79.2129 83.9049C81.2433 82.9129 81.5575 99.6529 81.7192 108.27C81.7322 108.964 81.7442 109.604 81.7561 110.179C80.264 110.585 78.7376 110.908 77.1822 111.142ZM85.0738 109.12C85.0772 102.715 85.3594 87.5836 85.9662 85.7134C86.6342 83.6442 87.29 84.357 87.29 85.9211V108.23C86.5622 108.547 85.8232 108.845 85.0738 109.12ZM73.1001 111.082L73.095 111.366H67.0586C67.2538 109.591 67.418 106.74 67.6052 103.489C68.1643 93.7812 68.929 80.5011 71.3395 81.6117C73.6097 82.6586 73.2139 104.737 73.1001 111.082Z" fill="#FF9D00"/>
</svg>
