<svg width="338" height="87" viewBox="0 0 338 87" fill="none" xmlns="http://www.w3.org/2000/svg">
<path d="M304.943 25.2449H337.628V86.4811H324.555V38.3641H304.943C300.733 38.3641 297.136 40.0836 294.161 43.4834C291.186 46.9 289.701 51.02 289.701 55.8602C289.701 60.6948 291.186 64.8315 294.161 68.237C297.136 71.6535 300.733 73.3563 304.943 73.3563H320.201V86.4811H304.943C297.136 86.4811 290.457 83.4944 284.93 77.5098C279.397 71.5363 276.633 64.3291 276.633 55.8658C276.633 47.4136 279.397 40.1897 284.93 34.2218C290.463 28.2483 297.136 25.2505 304.943 25.2505V25.2449Z" fill="#86ACBC"/>
<path d="M257.032 25.2449H270.099V86.4811H257.032V25.2449Z" fill="#86ACBC"/>
<path d="M193.862 43.8463C193.862 38.7103 195.675 34.3223 199.29 30.6936C202.904 27.0648 207.258 25.2449 212.374 25.2449H250.498V38.3697H212.374C210.872 38.3697 209.577 38.9056 208.52 39.9664C207.464 41.0438 206.93 42.3222 206.93 43.8463C206.93 45.3536 207.464 46.6544 208.52 47.7151C209.577 48.7758 210.872 49.3117 212.374 49.3117H231.986C237.086 49.3117 241.456 51.1205 245.071 54.7437C248.685 58.3836 250.498 62.7604 250.498 67.8964C250.498 73.0325 248.685 77.4037 245.071 81.0324C241.456 84.6611 237.086 86.4811 231.986 86.4811H193.862V73.3563H231.986C233.488 73.3563 234.767 72.8203 235.84 71.7596C236.896 70.6989 237.43 69.4037 237.43 67.8908C237.43 66.3668 236.896 65.0827 235.84 64.022C234.772 62.9446 233.493 62.4254 231.986 62.4254H212.374C207.258 62.4254 202.904 60.6055 199.29 56.9767C195.675 53.348 193.862 48.96 193.862 43.8407V43.8463Z" fill="#86ACBC"/>
<path d="M174.266 71.179C174.266 69.359 173.627 67.8182 172.348 66.5342C171.069 65.2502 169.523 64.6082 167.721 64.6082H130.698V51.4833H167.721C169.523 51.4833 171.069 50.8413 172.348 49.5573C173.627 48.2733 174.266 46.7381 174.266 44.9293C174.266 43.1205 173.627 41.5685 172.348 40.2845C171.069 39.0005 169.523 38.3585 167.721 38.3585H130.698V25.2336H167.721C173.132 25.2336 177.742 27.1597 181.579 31.0117C185.415 34.8637 187.334 39.4918 187.334 44.9237C187.334 49.9704 185.655 54.3416 182.324 58.043C185.655 61.7443 187.334 66.1211 187.334 71.1678V86.4699H174.266V71.1678V71.179Z" fill="#86ACBC"/>
<path d="M87.1249 61.8166C81.4752 60.728 76.4651 58.16 72.1055 54.0679C66.1444 48.5299 63.1694 41.8419 63.1694 33.987V25.239H76.2426V33.987C76.2426 38.2243 77.9386 41.8251 81.3418 44.8118C84.7338 47.8097 88.8487 49.3059 93.6698 49.3059C98.4854 49.3059 102.589 47.8153 105.998 44.8118C109.39 41.8251 111.097 38.2299 111.097 33.987V25.239H124.17V33.987C124.17 41.8419 121.179 48.5299 115.234 54.0679C110.88 58.16 105.864 60.728 100.204 61.8166V86.4808H87.1305V61.8166H87.1249Z" fill="url(#paint0_linear_150_70)"/>
<path d="M37.0286 64.6079H13.0732V86.4808H0V51.4887H37.0231C38.8247 51.4887 40.3706 50.8467 41.6496 49.5627C42.9285 48.2787 43.568 46.7434 43.568 44.9346C43.568 43.1259 42.9285 41.5739 41.6496 40.2899C40.3706 39.0059 38.8247 38.3639 37.0231 38.3639H0V25.239H37.0231C42.4336 25.239 47.0434 27.165 50.8803 31.0171C54.7172 34.8691 56.6356 39.4971 56.6356 44.9291C56.6356 50.3498 54.7172 54.989 50.8803 58.8299C47.0434 62.6819 42.4336 64.6079 37.0231 64.6079H37.0286Z" fill="#86ACBC"/>
<path d="M101.705 43.3103C101.705 43.3103 105.581 38.5539 100.237 31.0061C94.893 23.4584 83.3101 11.8799 93.8698 0C93.8698 0 92.5353 6.92809 104.168 19.9524C115.796 32.9768 101.705 43.3103 101.705 43.3103Z" fill="#EE9B15"/>
<path d="M79.9134 30.258C79.9134 30.258 81.8818 35.0981 84.5232 37.5768C86.0412 39.0004 89.55 39.4079 86.6473 34.9139C83.7391 30.4143 79.0236 22.9726 85.9411 15.2183C85.9411 15.2183 87.12 21.884 95.917 32.8986C104.72 43.9076 94.3267 48.2341 88.0709 46.1071C81.9486 44.0248 79.1571 37.9397 79.9189 30.2635L79.9134 30.258Z" fill="url(#paint1_linear_150_70)"/>
<path d="M320.213 62.8716V69.7327H313.707V62.8716H320.213Z" fill="white"/>
<path d="M320.213 53.387V60.2481H313.707V53.387H320.213Z" fill="white"/>
<path d="M320.213 43.936V50.7971H313.707V43.936H320.213Z" fill="white"/>
<defs>
<linearGradient id="paint0_linear_150_70" x1="106.515" y1="32.9877" x2="106.515" y2="79.6141" gradientUnits="userSpaceOnUse">
<stop stop-color="#CC635E"/>
<stop offset="1" stop-color="#70130E"/>
</linearGradient>
<linearGradient id="paint1_linear_150_70" x1="85.8577" y1="12.7172" x2="100.452" y2="38.3593" gradientUnits="userSpaceOnUse">
<stop stop-color="#FFEC87"/>
<stop offset="1" stop-color="#EA8C00"/>
</linearGradient>
</defs>
</svg>
