<svg width="175" height="272" viewBox="0 0 175 272" fill="none" xmlns="http://www.w3.org/2000/svg">
<path d="M68.4714 193.786C52.323 190.374 38.0026 182.323 25.5417 169.495C8.5033 152.134 0 131.168 0 106.545V79.1211H37.3668V106.545C37.3668 119.828 42.2145 131.116 51.9416 140.479C61.6369 149.877 73.3985 154.567 87.1786 154.567C100.943 154.567 112.673 149.894 122.416 140.479C132.111 131.116 136.99 119.845 136.99 106.545V79.1211H174.357V106.545C174.357 131.168 165.806 152.134 148.816 169.495C136.371 182.323 122.034 190.374 105.854 193.786V271.105H68.4872V193.786H68.4714Z" fill="url(#paint0_linear_264_333)"/>
<path d="M110.146 135.771C110.146 135.771 121.224 120.86 105.95 97.1993C90.6755 73.5383 57.5684 37.2417 87.751 0C87.751 0 83.9365 21.7185 117.187 62.5478C150.421 103.377 110.146 135.771 110.146 135.771Z" fill="#EE9B15"/>
<path d="M47.8571 94.854C47.8571 94.854 53.4836 110.027 61.0332 117.798C65.3723 122.26 75.4014 123.538 67.1047 109.45C58.7921 95.3441 45.314 72.0155 65.0861 47.7069C65.0861 47.7069 68.4557 68.6029 93.6 103.132C118.76 137.643 89.0543 151.207 71.1736 144.539C53.6743 138.011 45.6955 118.935 47.873 94.8715L47.8571 94.854Z" fill="url(#paint1_linear_264_333)"/>
<defs>
<linearGradient id="paint0_linear_264_333" x1="123.894" y1="103.412" x2="123.894" y2="249.579" gradientUnits="userSpaceOnUse">
<stop stop-color="#CC635E"/>
<stop offset="1" stop-color="#70130E"/>
</linearGradient>
<linearGradient id="paint1_linear_264_333" x1="64.8478" y1="39.8666" x2="112.653" y2="116.449" gradientUnits="userSpaceOnUse">
<stop stop-color="#FFEC87"/>
<stop offset="1" stop-color="#EA8C00"/>
</linearGradient>
</defs>
</svg>
