<svg width="140" height="140" viewBox="0 0 140 140" fill="none" xmlns="http://www.w3.org/2000/svg">
<path fill-rule="evenodd" clip-rule="evenodd" d="M28.6711 40.0352L28.9708 39.6104L29.9732 40.3059C29.8693 40.4466 29.7662 40.5835 29.6641 40.7248L28.6711 40.0352ZM29.7326 38.6229L30.0452 38.2078L31.0201 38.939C30.9124 39.0731 30.8075 39.211 30.7015 39.3467L29.7326 38.6229ZM30.8392 37.25L31.1661 36.8459L32.1161 37.6092C32.004 37.741 31.8926 37.8731 31.7819 38.0055L30.8392 37.25ZM31.9968 35.9122L32.3368 35.5201L33.2578 36.3164C33.1405 36.4429 33.024 36.5699 32.9091 36.6994L31.9968 35.9122ZM33.1974 34.6198L33.5523 34.2386L34.4408 35.0648C34.3207 35.1874 34.2017 35.3133 34.0825 35.4386L33.1974 34.6198ZM34.4433 33.37L34.8099 33.0014L35.6726 33.8585C35.5454 33.9772 35.4192 34.0944 35.2969 34.2146L34.4433 33.37ZM35.7306 32.1663L36.1119 31.8105L36.9414 32.6971C36.8117 32.8106 36.6844 32.9286 36.557 33.0435L35.7306 32.1663ZM37.0592 31.0057L37.4517 30.6624L38.2525 31.5796C38.1183 31.6902 37.9857 31.7981 37.853 31.9113L37.0592 31.0057ZM38.4285 29.8924L38.8329 29.5639L39.6019 30.5099C39.4648 30.615 39.3279 30.7197 39.1917 30.8275L38.4285 29.8924ZM39.841 28.8241L40.2533 28.51L40.9923 29.4838C40.8519 29.5831 40.711 29.6858 40.5724 29.7863L39.841 28.8241ZM41.2844 27.8095L41.7098 27.5084L42.4153 28.512C42.2718 28.6062 42.1265 28.7014 41.9825 28.7989L41.2844 27.8095ZM42.7625 26.8452L43.198 26.5599L43.8678 27.5877C43.7216 27.676 43.5762 27.7689 43.4288 27.8608L42.7625 26.8452ZM44.27 25.9378L44.7135 25.6676L45.3511 26.7223C45.2007 26.8063 45.0499 26.8902 44.8995 26.9758L44.27 25.9378ZM45.8116 25.0799L46.2674 24.8247L46.8666 25.9019C46.7112 25.9812 46.5607 26.0637 46.4088 26.1442L45.8116 25.0799ZM47.3824 24.2766L47.8459 24.0379L48.412 25.1383C48.2542 25.213 48.0987 25.2849 47.9427 25.3602L47.3824 24.2766ZM48.9813 23.5265L49.4504 23.305L49.979 24.429C49.8211 24.4972 49.6637 24.5679 49.5053 24.6385L48.9813 23.5265ZM50.6038 22.8349L51.0825 22.6285L51.5718 23.7749C51.4114 23.8368 51.2503 23.8999 51.0901 23.9657L50.6038 22.8349ZM52.2507 22.1999L52.7368 22.0086L53.1869 23.1728C53.0244 23.2298 52.8623 23.2869 52.6984 23.3477L52.2507 22.1999ZM53.9187 21.6225L54.411 21.4483L54.8191 22.629C54.6552 22.6814 54.4897 22.7328 54.3263 22.787L53.9187 21.6225ZM55.6036 21.1032L56.1033 20.9453L56.4717 22.1446C56.3045 22.1912 56.1391 22.2358 55.9724 22.2842L55.6036 21.1032ZM59.0191 20.2488L59.5279 20.1262L59.8116 21.3449C59.6417 21.3808 59.4718 21.4131 59.3026 21.4494L59.0191 20.2488ZM60.7504 19.9082L61.2621 19.8054L61.5004 21.0301C61.3299 21.0582 61.1598 21.0909 60.9906 21.1214L60.7504 19.9082ZM62.4831 19.6346L62.9983 19.5499L63.1953 20.7788C63.023 20.8006 62.8508 20.8223 62.6813 20.8464L62.4831 19.6346ZM64.2328 19.4183L64.7513 19.3503L64.901 20.583C64.7313 20.6006 64.5576 20.6188 64.3859 20.6372L64.2328 19.4183ZM65.99 19.261L66.5091 19.2114L66.6192 20.4474C66.4471 20.4581 66.2735 20.4684 66.1014 20.4797L65.99 19.261ZM67.7502 19.1648L68.2714 19.133L68.3386 20.3701C68.1651 20.3752 67.9909 20.3815 67.82 20.3876L67.7502 19.1648ZM69.5152 19.133L70.0383 19.1182L70.0619 20.354C69.8897 20.352 69.7172 20.3497 69.5437 20.3522L69.5152 19.133ZM71.279 19.1602L71.8003 19.1654L71.7822 20.3967C71.6099 20.3899 71.4372 20.3828 71.2653 20.3778L71.279 19.1602ZM73.0401 19.2502L73.562 19.2722L73.5 20.4993C73.328 20.4853 73.1571 20.4719 72.9843 20.4616L73.0401 19.2502ZM74.7981 19.3985L75.3193 19.4402L75.2144 20.6606C75.0418 20.6424 74.869 20.621 74.6996 20.6028L74.7981 19.3985ZM76.548 19.6111L77.0674 19.6717L76.9222 20.8806C76.7513 20.8545 76.5801 20.8357 76.4062 20.812L76.548 19.6111ZM78.2907 19.8842L78.8077 19.9613L78.6199 21.1657C78.4498 21.1349 78.2807 21.0993 78.109 21.0712L78.2907 19.8842ZM80.0232 20.2159L80.5376 20.3125L80.3083 21.5053C80.138 21.469 79.9694 21.4333 79.7994 21.3983L80.0232 20.2159ZM81.7423 20.6106L82.2525 20.7247L81.9813 21.9092C81.8146 21.8647 81.6478 21.8211 81.4806 21.7799L81.7423 20.6106ZM83.462 21.0581L83.9678 21.1896L83.6537 22.3726C83.4882 22.3219 83.323 22.2714 83.156 22.2266L83.462 21.0581ZM85.1342 21.5758L85.6364 21.724L85.2842 22.8832C85.1194 22.8271 84.9549 22.7766 84.7906 22.7223L85.1342 21.5758ZM86.8043 22.145L87.3008 22.3098L86.9067 23.4591C86.7446 23.3989 86.5831 23.3375 86.4209 23.2773L86.8043 22.145ZM88.4521 22.7743L88.9409 22.9565L88.5088 24.0889C88.3487 24.021 88.1888 23.959 88.0277 23.8936L88.4521 22.7743ZM90.076 23.4595L90.5594 23.6563L90.0857 24.7791C89.9287 24.7063 89.7701 24.6345 89.6142 24.5634L90.076 23.4595ZM91.6744 24.2007L92.1506 24.4157L91.6374 25.5223C91.4817 25.4465 91.3277 25.3681 91.1706 25.2931L91.6744 24.2007ZM93.2483 24.998L93.7157 25.2312L93.1644 26.3176C93.0131 26.234 92.8595 26.1559 92.7065 26.075L93.2483 24.998ZM94.7925 25.8511L95.2504 26.0996L94.6604 27.1708C94.5121 27.0817 94.3628 26.9924 94.2138 26.9061L94.7925 25.8511ZM96.3053 26.7561L96.7559 27.0206L96.1285 28.0705C95.981 27.9782 95.8347 27.8867 95.6881 27.7949L96.3053 26.7561ZM97.7867 27.7122L98.2263 27.9942L97.5618 29.023C97.4207 28.9241 97.2762 28.8279 97.133 28.7298L97.7867 27.7122ZM99.2321 28.7225L99.6636 29.0173L98.9605 30.0251C98.8228 29.9231 98.6843 29.8201 98.5446 29.7179L99.2321 28.7225ZM100.644 29.7821L101.064 30.0916L100.328 31.0718C100.194 30.9634 100.056 30.8585 99.9193 30.7532L100.644 29.7821ZM102.014 30.888L102.425 31.2131L101.653 32.1693C101.522 32.057 101.389 31.9449 101.257 31.8334L102.014 30.888ZM103.347 32.0434L103.745 32.3819L102.939 33.3115C102.815 33.1938 102.685 33.0785 102.556 32.963L103.347 32.0434ZM104.638 33.2507L105.023 33.6017L104.187 34.5025C104.064 34.3828 103.939 34.2611 103.815 34.1423L104.638 33.2507ZM105.888 34.4958L106.261 34.8607L105.387 35.7364C105.27 35.6102 105.151 35.483 105.031 35.3591L105.888 34.4958ZM107.092 35.7824L107.452 36.1605L106.552 37.006C106.438 36.877 106.319 36.7502 106.204 36.6206L107.092 35.7824ZM108.252 37.1117L108.599 37.5013L107.664 38.3195C107.553 38.1853 107.446 38.0512 107.334 37.9166L108.252 37.1117ZM109.363 38.4785L109.696 38.8831L108.729 39.6665C108.624 39.5302 108.515 39.3925 108.41 39.2554L109.363 38.4785ZM110.428 39.8851L110.749 40.3021L109.749 41.0541C109.649 40.9142 109.549 40.7699 109.446 40.6321L110.428 39.8851ZM111.44 41.3291L111.747 41.7548L110.719 42.4767C110.623 42.33 110.527 42.1861 110.432 42.0432L111.44 41.3291ZM112.405 42.8064L112.695 43.2416L111.639 43.9298C111.55 43.7819 111.456 43.6352 111.364 43.489L112.405 42.8064ZM113.339 44.3148L113.614 44.7604L112.509 45.427C112.424 45.2745 112.339 45.1246 112.254 44.9735L113.339 44.3148ZM114.197 45.8564L114.457 46.3106L113.33 46.9389C113.249 46.786 113.165 46.6342 113.085 46.4799L114.197 45.8564ZM115.002 47.4282L115.244 47.891L114.084 48.4835C114.013 48.3272 113.94 48.17 113.864 48.0143L115.002 47.4282ZM115.751 49.0258L115.977 49.4954L114.795 50.0521C114.726 49.892 114.656 49.7342 114.584 49.5743L115.751 49.0258ZM116.443 50.6475L116.651 51.1272L115.445 51.6416L115.257 51.1563L116.443 50.6475ZM117.077 52.2927L117.271 52.7775L116.041 53.2523C115.984 53.089 115.925 52.9258 115.867 52.764L117.077 52.2927ZM117.656 53.9584L117.833 54.4513L116.582 54.8846C116.531 54.719 116.477 54.5546 116.425 54.3877L117.656 53.9584ZM118.173 55.646L118.333 56.1439L117.066 56.5355C117.02 56.3687 116.974 56.2011 116.927 56.0347L118.173 55.646ZM118.611 57.3409L118.753 57.8434L117.489 58.1839C117.451 58.0155 117.406 57.8475 117.364 57.6823L118.611 57.3409ZM119.01 59.0598L119.132 59.5667L117.858 59.8645C117.822 59.6945 117.789 59.5244 117.753 59.3558L119.01 59.0598ZM119.325 60.7839L119.428 61.2953L118.169 61.5416C118.141 61.3723 118.108 61.2004 118.076 61.0313L119.325 60.7839ZM119.603 62.5252L119.693 63.0386L118.42 63.2431C118.398 63.0709 118.377 62.8991 118.353 62.7292L119.603 62.5252ZM119.823 64.2751L119.893 64.7909L118.616 64.9495C118.601 64.778 118.578 64.608 118.561 64.4327L119.823 64.2751ZM119.98 66.0321L120.031 66.5502L118.75 66.6647C118.738 66.4922 118.731 66.3181 118.717 66.1459L119.98 66.0321ZM120.075 67.7916L120.11 68.3122L118.827 68.3824C118.822 68.2086 118.816 68.0351 118.809 67.8619L120.075 67.7916ZM120.11 69.5549L120.126 70.0762L118.841 70.1005C118.844 69.9276 118.844 69.7535 118.844 69.5818L120.11 69.5549ZM120.057 71.3083L120.053 71.8311L118.797 71.8106C118.805 71.6374 118.81 71.4641 118.815 71.2936L120.057 71.3083ZM119.967 73.0706L119.945 73.5903L118.696 73.527C118.71 73.3553 118.719 73.1814 118.733 73.0079L119.967 73.0706ZM119.815 74.8266L119.776 75.3462L118.53 75.2399C118.55 75.0668 118.569 74.8945 118.588 74.7247L119.815 74.8266ZM119.604 76.5769L119.547 77.096L118.311 76.9451C118.337 76.7742 118.357 76.604 118.381 76.4311L119.604 76.5769ZM119.332 78.3152L119.257 78.8317L118.025 78.6391C118.058 78.4689 118.092 78.2991 118.119 78.1292L119.332 78.3152ZM118.975 80.0369L118.882 80.5511L117.685 80.3213C117.724 80.1508 117.757 79.9804 117.793 79.812L118.975 80.0369ZM118.582 81.7577L118.468 82.2679L117.281 81.9969C117.325 81.8298 117.369 81.6594 117.411 81.4928L118.582 81.7577ZM118.128 83.4618L118.001 83.9639L116.823 83.6496C116.874 83.4837 116.921 83.3149 116.968 83.1498L118.128 83.4618ZM117.616 85.145L117.469 85.6456L116.306 85.2918C116.36 85.1279 116.414 84.9635 116.466 84.7986L117.616 85.145ZM117.047 86.815L116.88 87.3087L115.731 86.9128C115.792 86.7519 115.852 86.5901 115.912 86.4271L117.047 86.815ZM116.419 88.4603L116.236 88.9479L115.102 88.5158C115.169 88.3552 115.232 88.1929 115.298 88.0343L116.419 88.4603ZM115.734 90.0848L115.534 90.5653L114.41 90.0905C114.483 89.934 114.555 89.7753 114.626 89.6187L115.734 90.0848ZM114.993 91.6833L114.775 92.1578L113.668 91.645C113.746 91.4899 113.824 91.3334 113.9 91.178L114.993 91.6833ZM114.195 93.2551L113.961 93.7206L112.87 93.1703C112.955 93.0175 113.035 92.864 113.117 92.7102L114.195 93.2551ZM113.343 94.7983L113.094 95.2566L112.019 94.6633C112.108 94.5146 112.198 94.3647 112.284 94.2166L113.343 94.7983ZM112.439 96.3119L112.173 96.7587L111.122 96.1307C111.214 95.9829 111.306 95.8366 111.398 95.6896L112.439 96.3119ZM111.481 97.7905L111.201 98.2307L110.169 97.5626C110.268 97.4207 110.364 97.2761 110.462 97.133L111.481 97.7905ZM110.474 99.2367L110.177 99.6648L109.167 98.9615C109.271 98.8214 109.374 98.6837 109.477 98.5437L110.474 99.2367ZM109.414 100.646L109.105 101.064L108.122 100.326C108.231 100.192 108.336 100.054 108.441 99.9166L109.414 100.646ZM108.284 102.001L107.959 102.408L107.024 101.652C107.137 101.52 107.249 101.389 107.361 101.257L108.284 102.001ZM107.131 103.331L106.791 103.727L105.883 102.94C106 102.813 106.117 102.684 106.233 102.556L107.131 103.331ZM105.933 104.623L105.579 105.005L104.699 104.188L105.06 103.814L105.933 104.623ZM104.69 105.867L104.324 106.24L103.468 105.387C103.595 105.268 103.721 105.15 103.846 105.03L104.69 105.867ZM103.404 107.072L103.026 107.431L102.2 106.549C102.329 106.434 102.457 106.316 102.586 106.2L103.404 107.072ZM102.077 108.23L101.687 108.575L100.888 107.661C101.022 107.55 101.157 107.442 101.289 107.33L102.077 108.23ZM100.71 109.341L100.308 109.671L99.5409 108.726C99.6788 108.621 99.8164 108.514 99.9516 108.408L100.71 109.341ZM99.3044 110.404L98.8894 110.721L98.1526 109.747C98.2944 109.646 98.4369 109.546 98.576 109.444L99.3044 110.404ZM97.8428 111.398L97.4196 111.7L96.7284 110.719C96.8726 110.624 97.0175 110.53 97.1618 110.432L97.8428 111.398ZM96.3689 112.361L95.9334 112.648L95.2755 111.639L95.7169 111.365L96.3689 112.361ZM94.8614 113.268L94.4171 113.541L93.7913 112.503C93.9414 112.418 94.0939 112.333 94.2429 112.247L94.8614 113.268ZM93.3231 114.126L92.8686 114.38L92.2756 113.321C92.4306 113.243 92.5824 113.159 92.735 113.08L93.3231 114.126ZM91.7548 114.928L91.2917 115.167L90.7343 114.078C90.8927 114.004 91.0499 113.931 91.2049 113.855L91.7548 114.928ZM90.1436 115.655L89.672 115.879L89.1607 114.791C89.3207 114.723 89.4786 114.651 89.6375 114.581L90.1436 115.655ZM88.523 116.345L88.0445 116.552L87.5715 115.443C87.7303 115.379 87.8922 115.316 88.0544 115.252L88.523 116.345ZM86.8798 116.98L86.3959 117.169L85.9589 116.04C86.1222 115.983 86.2829 115.925 86.4476 115.864L86.8798 116.98ZM85.2169 117.557L84.7254 117.729L84.3275 116.581C84.4929 116.529 84.6575 116.476 84.8221 116.423L85.2169 117.557ZM83.5332 118.074L83.037 118.229L82.6774 117.064C82.8438 117.017 83.0097 116.971 83.1764 116.924L83.5332 118.074ZM81.8344 118.533L81.3326 118.67L81.0125 117.492C81.1808 117.453 81.3478 117.41 81.5176 117.369L81.8344 118.533ZM80.1183 118.932L79.6114 119.052L79.3341 117.861C79.5033 117.826 79.6744 117.794 79.8435 117.757L80.1183 118.932ZM78.3772 119.251L77.8659 119.355L77.6342 118.177C77.8061 118.15 77.9749 118.116 78.1456 118.085L78.3772 119.251ZM76.6399 119.529L76.1259 119.614L75.9356 118.425C76.1078 118.403 76.2796 118.382 76.4526 118.359L76.6399 119.529ZM74.894 119.747L74.377 119.812L74.2276 118.621C74.4013 118.605 74.5726 118.585 74.7441 118.567L74.894 119.747ZM73.1511 119.925L72.6337 119.975L72.5256 118.752C72.6998 118.742 72.8706 118.733 73.0448 118.72L73.1511 119.925ZM71.3928 120.021L70.8738 120.053L70.8061 118.832C70.9781 118.827 71.1527 118.821 71.3265 118.815L71.3928 120.021ZM69.6335 120.055L69.112 120.068L69.0882 118.846C69.2612 118.848 69.433 118.85 69.6069 118.848L69.6335 120.055ZM67.884 120.05L67.3651 120.043L67.3834 118.801C67.5561 118.808 67.729 118.816 67.9003 118.82L67.884 120.05ZM66.1249 119.96L65.6042 119.938L65.6659 118.7C65.8404 118.715 66.0118 118.726 66.1865 118.737L66.1249 119.96ZM64.3595 119.788L63.8412 119.748L63.9434 118.534C64.1167 118.554 64.2891 118.574 64.4606 118.591L64.3595 119.788ZM62.6125 119.579L62.0951 119.519L62.2396 118.316C62.4107 118.341 62.5816 118.361 62.754 118.386L62.6125 119.579ZM60.8715 119.305L60.3576 119.228L60.5488 118.026C60.7177 118.057 60.889 118.092 61.0582 118.121L60.8715 119.305ZM59.143 118.973L58.6317 118.879L58.8593 117.688C59.0281 117.726 59.1976 117.761 59.3682 117.795L59.143 118.973ZM57.4272 118.581L56.9176 118.466L57.1884 117.285C57.3557 117.329 57.5228 117.372 57.6896 117.414L57.4272 118.581ZM55.7253 118.129L55.222 117.996L55.5312 116.826C55.6979 116.875 55.8644 116.924 56.0306 116.972L55.7253 118.129ZM54.0428 117.615L53.5451 117.466L53.8939 116.31C54.0583 116.364 54.2236 116.417 54.388 116.471L54.0428 117.615ZM52.3753 117.047L51.8841 116.88L52.2744 115.732C52.4378 115.794 52.5998 115.855 52.7624 115.914L52.3753 117.047ZM50.7318 116.42L50.2452 116.236L50.6756 115.104C50.836 115.171 50.9974 115.235 51.1571 115.3L50.7318 116.42ZM49.1082 115.733L48.6293 115.534L49.1015 114.414C49.2583 114.486 49.4168 114.558 49.5737 114.629L49.1082 115.733ZM47.5098 114.992L47.0373 114.774L47.5492 113.671C47.7044 113.749 47.859 113.824 48.0146 113.9L47.5098 114.992ZM45.9402 114.196L45.4751 113.962L46.0259 112.875C46.1775 112.958 46.3303 113.038 46.4841 113.12L45.9402 114.196ZM44.3978 113.345L43.9421 113.095L44.5344 112.023C44.6831 112.11 44.8313 112.2 44.9813 112.287L44.3978 113.345ZM42.8869 112.443L42.4408 112.175L43.0668 111.127C43.2138 111.219 43.3605 111.311 43.5068 111.403L42.8869 112.443ZM41.4091 111.485L40.9707 111.204L41.6358 110.177C41.7773 110.274 41.9211 110.371 42.0646 110.468L41.4091 111.485ZM39.9661 110.477L39.538 110.18L40.2399 109.174C40.3788 109.277 40.5164 109.38 40.6563 109.481L39.9661 110.477ZM38.5583 109.419L38.1414 109.108L38.8746 108.128C39.0101 108.237 39.1479 108.341 39.2845 108.447L38.5583 109.419ZM37.1874 108.314L36.7812 107.988L37.551 107.033C37.6816 107.145 37.8122 107.258 37.9463 107.369L37.1874 108.314ZM35.8543 107.163L35.4606 106.824L36.2638 105.896C36.3918 106.012 36.5193 106.128 36.6491 106.242L35.8543 107.163ZM34.5661 105.964L34.1832 105.611L35.0178 104.713C35.14 104.834 35.2665 104.953 35.3907 105.074L34.5661 105.964ZM33.3186 104.722L32.948 104.357L33.8176 103.482C33.9363 103.609 34.0531 103.735 34.1741 103.859L33.3186 104.722ZM32.1139 103.436L31.7569 103.057L32.6549 102.213C32.7678 102.343 32.8871 102.47 33.0021 102.6L32.1139 103.436ZM30.956 102.109L30.6117 101.718L31.5441 100.904C31.6538 101.037 31.762 101.173 31.8746 101.305L30.956 102.109ZM29.8463 100.743L29.5165 100.34L30.4772 99.5569C30.5818 99.6948 30.6873 99.8312 30.7951 99.9674L29.8463 100.743ZM28.7835 99.3229L28.4685 98.9095L29.4513 98.1645C29.5517 98.3057 29.6537 98.4461 29.7542 98.5863L28.7835 99.3229ZM27.7713 97.8672L27.4706 97.4427L28.4762 96.7332C28.5713 96.8778 28.6654 97.0223 28.763 97.1654L27.7713 97.8672ZM26.8098 96.3931L26.5242 95.9579L27.5579 95.2828C27.6481 95.4302 27.7406 95.5764 27.8308 95.7238L26.8098 96.3931ZM25.9017 94.8867L25.6311 94.4429L26.6948 93.7994C26.7796 93.9503 26.8627 94.1022 26.9493 94.2521L25.9017 94.8867ZM25.0461 93.3498L24.7906 92.8954L25.8799 92.2895C25.9574 92.4437 26.0401 92.5954 26.1212 92.7488L25.0461 93.3498ZM24.2437 91.7827L24.0043 91.3204L25.1191 90.7489C25.1918 90.9048 25.2656 91.0611 25.3406 91.218L24.2437 91.7827ZM23.4961 90.189L23.2742 89.7197L24.411 89.1858C24.4786 89.3456 24.5493 89.503 24.6203 89.66L23.4961 90.189ZM22.8069 88.5712L22.6023 88.0937L23.7572 87.6002C23.8197 87.7614 23.8819 87.9231 23.947 88.0827L22.8069 88.5712ZM22.173 86.9292L21.9847 86.446L23.1632 85.989C23.2202 86.1526 23.2782 86.3153 23.3374 86.4771L22.173 86.9292ZM21.5973 85.2661L21.427 84.7777L22.6227 84.3627C22.6741 84.5281 22.7269 84.6922 22.7807 84.8571L21.5973 85.2661ZM21.0791 83.5838L20.9249 83.0892L22.1375 82.7138C22.1843 82.8806 22.2291 83.0482 22.2774 83.2143L21.0791 83.5838ZM20.6225 81.8757L20.4859 81.3741L21.7061 81.0431C21.7453 81.212 21.7889 81.3789 21.8316 81.5447L20.6225 81.8757ZM20.2232 80.1596L20.105 79.6556L21.3384 79.3662C21.3731 79.5355 21.4056 79.7066 21.4429 79.8753L20.2232 80.1596ZM19.8842 78.4335L19.7827 77.9263L21.0234 77.6811C21.052 77.8508 21.0851 78.0201 21.1147 78.1909L19.8842 78.4335ZM19.6044 76.6963L19.521 76.1857L20.7738 75.9819C20.7963 76.1547 20.8161 76.3257 20.8408 76.4966L19.6044 76.6963ZM19.3857 74.9494L19.3201 74.4366L20.5771 74.2784C20.5937 74.4505 20.6124 74.6225 20.6317 74.7937L19.3857 74.9494ZM19.2297 73.1977L19.1823 72.6821L20.443 72.5679C20.4533 72.7407 20.464 72.9133 20.4753 73.0857L19.2297 73.1977ZM19.1317 71.449L19.1026 70.9327L20.3655 70.8632C20.3703 71.0355 20.3763 71.2084 20.3837 71.3807L19.1317 71.449ZM19.0978 69.6898L19.086 69.1721L20.3485 69.1463C20.3465 69.3185 20.3463 69.4914 20.3479 69.6652L19.0978 69.6898ZM19.1241 67.93L19.1306 67.4127L20.3889 67.4298L20.37 67.9467L19.1241 67.93ZM19.2141 66.1732L19.2388 65.6562L20.4903 65.7181C20.4774 65.8909 20.4663 66.0632 20.4549 66.2353L19.2141 66.1732ZM19.3645 64.4203L19.4067 63.9042L20.6543 64.0086C20.6348 64.1809 20.614 64.3535 20.5956 64.525L19.3645 64.4203ZM19.574 62.6727L19.6368 62.1583L20.8709 62.3055C20.8463 62.4774 20.8264 62.6479 20.8014 62.8205L19.574 62.6727ZM19.8484 60.9296L19.9281 60.4169L21.1568 60.6073C21.125 60.7773 21.0915 60.9483 21.0625 61.1189L19.8484 60.9296ZM20.1826 59.2008L20.2794 58.6929L21.4941 58.9243C21.4571 59.0941 21.4226 59.2624 21.3881 59.4317L20.1826 59.2008ZM20.574 57.4861L20.6892 56.9818L21.8928 57.2554C21.8499 57.4237 21.8073 57.5906 21.7658 57.7576L20.574 57.4861ZM21.0273 55.7868L21.1585 55.2847L22.3494 55.6005C22.3015 55.7667 22.2532 55.9327 22.2064 56.0995L21.0273 55.7868ZM21.5387 54.1034L21.6868 53.6074L22.863 53.9628C22.8083 54.1274 22.7552 54.2917 22.7036 54.4558L21.5387 54.1034ZM22.1076 52.4389L22.2743 51.9478L23.4382 52.3441C23.3783 52.5065 23.3149 52.6677 23.2562 52.8309L22.1076 52.4389ZM22.7351 50.7958L22.9189 50.3111L24.0647 50.7463C23.9984 50.9063 23.9354 51.0678 23.8696 51.2271L22.7351 50.7958ZM23.4195 49.174L23.619 48.6971L24.7496 49.1719C24.6789 49.3297 24.6052 49.4872 24.5363 49.6455L23.4195 49.174ZM24.1599 47.5793L24.3757 47.1078L25.4902 47.6234C25.413 47.7781 25.3361 47.9331 25.2611 48.0892L24.1599 47.5793ZM24.9549 46.0098L25.1888 45.5465L26.2811 46.0994C26.1979 46.251 26.1195 46.405 26.038 46.558L24.9549 46.0098ZM25.8053 44.4692L26.0539 44.0162L27.1307 44.6049C27.0422 44.753 26.9523 44.9009 26.8661 45.0505L25.8053 44.4692ZM26.708 42.9592L26.973 42.5137L28.0264 43.1423C27.9344 43.2893 27.8431 43.4352 27.7511 43.5823L26.708 42.9592ZM61.0472 27.2288C61.5413 27.1261 62.0479 27.0196 62.5499 26.945C62.4839 26.5435 62.4172 26.1402 62.3498 25.7353C62.0373 25.7809 61.7258 25.8276 61.4178 25.8728C61.3526 25.5147 61.2858 25.1593 61.2199 24.7998C61.7111 24.7286 62.2015 24.6572 62.6912 24.5857C62.8651 24.5613 63.0358 24.537 63.2102 24.5092C63.2381 24.6885 63.2636 24.8699 63.2898 25.0487L63.4609 26.1948C63.5167 26.5755 63.6192 27.2684 63.675 27.6507C63.678 27.6722 63.6821 27.6927 63.687 27.7111C62.8128 27.8345 61.9413 27.9877 61.0773 28.1634L61.0472 27.2288ZM34.2887 46.2442C34.2727 46.2342 34.2579 46.225 34.2427 46.2155C33.6703 45.8483 32.8292 45.314 32.2557 44.9461C31.6822 44.5782 31.1091 44.2105 30.5363 43.8431C30.1643 44.4444 29.7933 45.0454 29.4233 45.6462L28.3095 47.4497C28.8281 47.732 29.3473 48.0178 29.865 48.3016C30.3828 48.5854 30.9722 48.9135 31.4893 49.1975C31.7783 48.6639 32.0677 48.1042 32.391 47.58C32.0396 47.3717 31.6869 47.1647 31.3351 46.9562L30.8394 47.7602C30.5236 47.5798 30.2077 47.3997 29.8916 47.2199L30.6732 45.954C30.7654 45.8066 30.8559 45.6569 30.9478 45.5093C31.1014 45.6017 31.2585 45.6979 31.4119 45.7934C31.7407 45.9955 32.0714 46.1971 32.3998 46.399C32.7283 46.6008 33.3251 46.9695 33.6533 47.1717C33.662 47.1772 33.6719 47.1834 33.681 47.1891C33.6446 47.2472 33.6085 47.305 33.5717 47.3639C32.9332 48.3984 32.3476 49.4533 31.8092 50.5181C31.4405 51.2498 31.0947 51.9873 30.7716 52.7306C30.7557 52.7238 30.7384 52.7177 30.7223 52.7113C30.0941 52.4477 29.1737 52.068 28.545 51.8051C27.9163 51.5423 27.2881 51.2787 26.6589 51.0167C26.3985 51.6733 26.1377 52.3295 25.8764 52.9853C25.6152 53.641 25.3541 54.2976 25.0932 54.955C25.6541 55.1437 26.2143 55.3351 26.7735 55.5248C27.3327 55.7145 27.97 55.9341 28.5284 56.1249C28.7209 55.5495 28.9084 54.9482 29.1365 54.375C28.7535 54.2316 28.3711 54.089 27.9878 53.9444C27.8719 54.2377 27.7547 54.5298 27.6388 54.8215C27.2967 54.7006 26.9543 54.5785 26.6116 54.4553L27.1595 53.0728C27.2235 52.9114 27.2881 52.7482 27.3533 52.5865C27.5231 52.6531 27.6925 52.7205 27.8596 52.7854C28.2191 52.9286 28.5785 53.0706 28.9377 53.2115C29.2956 53.3536 29.9467 53.6119 30.3062 53.7539C30.315 53.7593 30.3258 53.7614 30.3357 53.766C29.8559 54.954 29.4336 56.1549 29.069 57.3685C28.8336 58.1525 28.622 58.9393 28.4342 59.7288C28.4161 59.7249 28.3965 59.7216 28.3796 59.7174C27.7158 59.5664 26.7419 59.3524 26.0773 59.2036C25.4127 59.0547 24.7487 58.9041 24.0841 58.7552C23.942 59.4471 23.7992 60.1389 23.6557 60.8307L23.226 62.9064C23.8109 62.9946 24.3954 63.0842 24.9794 63.1751C25.5627 63.2646 26.2284 63.3703 26.8109 63.4593C26.8995 62.8606 26.9802 62.2348 27.1066 61.6349C26.7043 61.5595 26.3026 61.4843 25.9014 61.4095C25.8358 61.718 25.773 62.0261 25.7084 62.3347C25.3509 62.2749 24.992 62.2121 24.6337 62.1518C24.7341 61.6668 24.8345 61.1816 24.9348 60.6963L25.0405 60.1834C25.2194 60.2187 25.3967 60.2556 25.5746 60.2924C25.9499 60.3686 26.3322 60.4465 26.7082 60.5258C27.0842 60.6052 27.7725 60.744 28.1499 60.8221C28.1625 60.8247 28.1748 60.8271 28.1872 60.8291C27.9237 62.0799 27.7192 63.3362 27.5736 64.5981C27.4789 65.4085 27.4075 66.2199 27.3595 67.0324C27.3361 67.0309 27.3122 67.0302 27.2885 67.0292C26.6098 66.9958 25.6138 66.9541 24.9337 66.923C24.2536 66.8918 23.5731 66.8589 22.8915 66.8268C22.872 67.5338 22.8516 68.2399 22.83 68.9452C22.8085 69.6506 22.7879 70.3566 22.7683 71.0635C23.3587 71.0494 23.9487 71.036 24.5384 71.0232C25.1285 71.0097 25.8037 70.9981 26.3931 70.9873C26.3777 70.3807 26.3483 69.7509 26.3658 69.1348C25.9566 69.1304 25.5496 69.1269 25.14 69.1223L25.1118 70.0664C24.7484 70.0686 24.3853 70.0705 24.0226 70.0722L24.0657 68.5854C24.0719 68.4116 24.0762 68.2366 24.0824 68.0628C24.2637 68.0662 24.4463 68.0727 24.6264 68.0764C25.0122 68.0878 25.3993 68.0979 25.7841 68.1082L27.2559 68.1494C27.2737 68.1505 27.2894 68.1507 27.3077 68.1511C27.2687 69.3687 27.2825 70.584 27.349 71.797C27.3957 72.667 27.4663 73.5361 27.5671 74.4008C27.5392 74.4039 27.512 74.4086 27.4845 74.412C26.8095 74.4977 25.8219 74.6284 25.1457 74.7161C24.4696 74.8038 23.7952 74.8894 23.1191 74.976C23.2221 75.675 23.3244 76.3735 23.4258 77.0716C23.5273 77.7696 23.6298 78.4683 23.7333 79.1676C24.3141 79.0523 24.8936 78.9369 25.4717 78.8214C26.0505 78.7077 26.7134 78.5779 27.2923 78.4632C27.1722 77.8693 27.0329 77.2545 26.9441 76.6452C26.5415 76.7106 26.1384 76.7793 25.7335 76.8458C25.7794 77.1569 25.8242 77.4689 25.8699 77.7804C25.5121 77.8452 25.1545 77.9096 24.796 77.9755C24.7236 77.485 24.6522 76.9945 24.5815 76.5041C24.5565 76.3312 24.5309 76.1585 24.5049 75.986C24.6861 75.9584 24.8659 75.9317 25.0442 75.9058C25.4253 75.8495 25.8073 75.7925 26.1904 75.7347C26.5711 75.6789 27.2649 75.5775 27.6458 75.5213C27.6683 75.5184 27.6898 75.5145 27.7118 75.5097C27.8831 76.7147 28.1047 77.9097 28.3766 79.0947C28.5721 79.9433 28.7936 80.7855 29.0411 81.6215C29.0127 81.6296 28.9858 81.6397 28.9573 81.6489C28.3068 81.8493 27.3571 82.1502 26.7063 82.3553C26.0555 82.5604 25.4056 82.7607 24.754 82.9637C24.9766 83.6339 25.1988 84.3043 25.4206 84.9751C25.6424 85.6459 25.8646 86.3165 26.0873 86.9871C26.6374 86.7714 27.1895 86.5575 27.7394 86.3437C28.2893 86.13 28.9195 85.8877 29.4691 85.6753C29.2463 85.1129 29.0043 84.5295 28.8102 83.9448C28.4247 84.08 28.0404 84.2176 27.6557 84.3533C27.7551 84.6524 27.8528 84.9526 27.9522 85.2501L26.9307 85.6293L26.4647 84.2167C26.4094 84.0515 26.3556 83.884 26.2996 83.72C26.473 83.6618 26.6456 83.6049 26.8173 83.5468C27.1848 83.4243 27.5509 83.3023 27.9156 83.1808C28.2813 83.0586 28.9469 82.8384 29.3126 82.7162L29.3786 82.6951C29.771 83.9052 30.2174 85.097 30.7178 86.2706C31.0361 87.0193 31.3796 87.7572 31.7422 88.4875C31.7189 88.4994 31.6972 88.5122 31.6743 88.5243C31.0692 88.8362 30.1859 89.2971 29.581 89.6097L27.7644 90.5473L28.7698 92.4127C29.1051 93.0339 29.4401 93.6559 29.7749 94.2785C30.2812 93.9707 30.7865 93.6641 31.2908 93.3585C31.7961 93.0513 32.3738 92.7053 32.8782 92.3986C32.5615 91.8831 32.2205 91.3524 31.9296 90.8092C31.5733 91.0093 31.2185 91.2103 30.8615 91.4099C31.012 91.6871 31.1614 91.9644 31.3096 92.2418L30.3689 92.7927L29.6638 91.4842C29.5807 91.3307 29.4984 91.1766 29.4162 91.0231C29.5764 90.9362 29.7346 90.8522 29.8955 90.7642C30.2355 90.5809 30.5752 90.3963 30.9143 90.2135C31.2534 90.0308 31.8722 89.6968 32.2088 89.5129C32.2253 89.5026 32.2402 89.495 32.2563 89.4861C32.8513 90.6089 33.4973 91.7055 34.1945 92.776C34.639 93.4571 35.1036 94.1264 35.5882 94.784C35.5721 94.7961 35.5558 94.8087 35.5405 94.8213C34.9983 95.2323 34.2097 95.8392 33.667 96.2536C33.1242 96.668 32.5835 97.0784 32.0416 97.4922C32.48 98.0462 32.918 98.6002 33.3556 99.1543C33.7932 99.7084 34.228 100.264 34.6601 100.82L35.9927 99.6502C36.4366 99.2602 36.9451 98.8185 37.391 98.4297C36.9876 97.9758 36.5615 97.5119 36.1792 97.0294C35.8639 97.289 35.549 97.5488 35.2318 97.8082C35.428 98.0547 35.6228 98.303 35.8173 98.549C35.5418 98.7848 35.2629 99.02 34.9877 99.2561C34.6801 98.8672 34.3722 98.4784 34.0642 98.0896C33.957 97.9533 33.8484 97.816 33.7413 97.676C33.8827 97.5625 34.0252 97.4497 34.1656 97.3361C34.4686 97.0963 34.7711 96.8561 35.073 96.6153L36.2281 95.6989C36.2379 95.692 36.2474 95.6845 36.2564 95.6765C37.0355 96.6752 37.8627 97.6413 38.738 98.5747C38.7387 98.5747 38.7394 98.5749 38.74 98.5753C38.7406 98.5757 38.7411 98.5762 38.7414 98.5768C39.2983 99.1691 39.8716 99.7494 40.4663 100.312L40.4297 100.351C39.9686 100.852 39.2953 101.588 38.834 102.088L37.4494 103.59C37.9765 104.06 38.503 104.531 39.0291 105.001C39.5551 105.471 40.0831 105.941 40.613 106.41C40.9817 105.949 41.3531 105.488 41.7211 105.027C42.0891 104.565 42.5157 104.043 42.8859 103.583C42.4113 103.205 41.9103 102.823 41.4495 102.414C41.1843 102.725 40.9181 103.035 40.6506 103.345C40.8866 103.553 41.1209 103.763 41.3573 103.973C41.126 104.251 40.8927 104.532 40.6616 104.812C40.2914 104.483 39.921 104.154 39.5507 103.824C39.4212 103.708 39.2906 103.591 39.1605 103.474C39.2803 103.337 39.4017 103.202 39.5219 103.065C39.7771 102.777 40.0336 102.487 40.2894 102.199C40.5451 101.911 41.0123 101.386 41.2666 101.098C41.2742 101.09 41.2806 101.081 41.2883 101.073C42.2263 101.918 43.2115 102.723 44.2384 103.492L44.2422 103.494C44.8905 103.979 45.5567 104.449 46.241 104.903C46.2317 104.918 46.2215 104.935 46.2117 104.95C45.8433 105.523 45.3092 106.364 44.9412 106.936C44.5732 107.509 44.206 108.083 43.8381 108.657C44.4393 109.028 45.0402 109.399 45.6407 109.771C46.2412 110.142 46.8426 110.513 47.445 110.883C47.7285 110.364 48.0121 109.845 48.296 109.328C48.5805 108.809 48.9079 108.221 49.1923 107.703C48.659 107.414 48.0995 107.125 47.5751 106.801C47.3666 107.153 47.1601 107.505 46.9504 107.857C47.2182 108.025 47.4861 108.188 47.7546 108.354C47.5751 108.669 47.3944 108.985 47.2145 109.301C46.7933 109.041 46.3718 108.781 45.9498 108.52C45.8016 108.428 45.6534 108.335 45.5043 108.245C45.5984 108.089 45.6942 107.934 45.7891 107.78L46.3947 106.794C46.5968 106.465 46.9649 105.868 47.1666 105.539L47.1847 105.51C47.2432 105.547 47.3024 105.584 47.361 105.621C48.3959 106.259 49.448 106.844 50.5137 107.382C51.2442 107.751 51.9839 108.098 52.7264 108.421L52.7061 108.471C52.4425 109.099 52.0638 110.022 51.8004 110.649C51.5371 111.277 51.2736 111.906 51.0112 112.535C51.6694 112.796 52.3237 113.057 52.9798 113.317C53.6359 113.578 54.2948 113.841 54.9496 114.101C55.1388 113.54 55.3297 112.981 55.5192 112.422C55.7086 111.864 55.9279 111.225 56.1194 110.666C55.5443 110.474 54.9415 110.286 54.3704 110.059C54.2268 110.442 54.0833 110.825 53.9397 111.208C54.2312 111.324 54.5237 111.44 54.8172 111.556L54.4502 112.583C53.9896 112.4 53.5279 112.217 53.0677 112.035C52.9059 111.97 52.7438 111.905 52.5822 111.841C52.6488 111.671 52.7154 111.502 52.7831 111.333L53.2073 110.254C53.3503 109.896 53.6082 109.245 53.7504 108.886C53.7537 108.875 53.7579 108.865 53.7626 108.855C54.95 109.335 56.1507 109.756 57.3646 110.121C58.1492 110.357 58.9361 110.57 59.7254 110.757C59.7226 110.776 59.7184 110.795 59.7154 110.814C59.5648 111.477 59.3499 112.451 59.2007 113.115C59.0514 113.779 58.9008 114.443 58.7516 115.108C59.4439 115.25 60.1354 115.393 60.8259 115.537C61.5164 115.681 62.2084 115.824 62.9019 115.966C62.991 115.381 63.0807 114.797 63.1709 114.213C63.2609 113.629 63.3656 112.963 63.4559 112.382C62.8568 112.292 62.2312 112.212 61.6301 112.089L61.4047 113.294C61.7128 113.358 62.021 113.422 62.3294 113.486C62.2695 113.844 62.2071 114.203 62.1467 114.56C61.6625 114.46 61.1772 114.36 60.6907 114.26C60.5217 114.225 60.3488 114.188 60.1776 114.15C60.2134 113.972 60.2509 113.795 60.287 113.617L60.52 112.484C60.5979 112.106 60.7394 111.419 60.8159 111.041L60.8227 111.004C62.0739 111.267 63.3286 111.472 64.5867 111.617C64.5883 111.617 64.59 111.618 64.5917 111.618C65.4038 111.713 66.2156 111.785 67.027 111.833C67.0253 111.856 67.0251 111.879 67.0248 111.903C66.9912 112.584 66.9484 113.579 66.917 114.259C66.8856 114.94 66.8527 115.619 66.8223 116.301C67.529 116.32 68.2347 116.341 68.9395 116.363C69.6442 116.384 70.3504 116.405 71.0581 116.425C71.0451 115.833 71.0314 115.243 71.0171 114.654C71.0043 114.064 70.9929 113.389 70.9806 112.798C70.3745 112.815 69.745 112.845 69.1299 112.826C69.1257 113.236 69.1226 113.644 69.1167 114.053C69.4314 114.062 69.7463 114.071 70.0613 114.081C70.0631 114.443 70.0656 114.807 70.0673 115.17C69.5723 115.155 69.0755 115.141 68.5814 115.127C68.4063 115.122 68.2318 115.116 68.0577 115.112C68.0607 114.929 68.0661 114.747 68.0717 114.566C68.0825 114.181 68.0919 113.794 68.1027 113.408C68.1135 113.023 68.1332 112.321 68.1432 111.937C68.1446 111.92 68.1449 111.903 68.1461 111.885C69.3678 111.925 70.5871 111.91 71.8039 111.842C72.6705 111.796 73.5345 111.724 74.3958 111.626C74.4007 111.653 74.4044 111.681 74.4092 111.708C74.4946 112.383 74.6251 113.371 74.7108 114.046L74.9715 116.073C75.6705 115.97 76.3685 115.869 77.0691 115.768C77.7697 115.668 78.4668 115.563 79.1653 115.461C79.0478 114.879 78.9322 114.3 78.8184 113.722C78.7047 113.143 78.5754 112.481 78.4595 111.901C77.8669 112.022 77.2502 112.161 76.6418 112.25C76.7099 112.653 76.7751 113.055 76.8426 113.46C77.1554 113.415 77.4656 113.368 77.7782 113.324C77.8422 113.681 77.9066 114.039 77.9736 114.395C77.4835 114.467 76.992 114.539 76.5024 114.61C76.3287 114.635 76.1555 114.658 75.9844 114.687C75.9569 114.507 75.9295 114.326 75.9043 114.148C75.8479 113.766 75.7899 113.383 75.7334 113.002C75.6769 112.621 75.5758 111.927 75.5193 111.546C75.5148 111.524 75.5117 111.503 75.5075 111.48C76.7118 111.309 77.9061 111.087 79.0902 110.814C79.94 110.619 80.7821 110.398 81.6164 110.15C81.6254 110.177 81.6354 110.205 81.642 110.23C81.8442 110.88 82.1448 111.83 82.3484 112.481C82.552 113.133 82.7542 113.781 82.9569 114.433C83.626 114.208 84.2962 113.986 84.9675 113.767L86.9801 113.1C86.7649 112.548 86.5503 111.997 86.3362 111.447C86.1223 110.896 85.8805 110.267 85.667 109.717C85.1048 109.939 84.5217 110.182 83.9376 110.376C84.0731 110.761 84.2093 111.147 84.3461 111.533C84.6431 111.433 84.9421 111.335 85.242 111.236C85.3677 111.576 85.4943 111.916 85.6219 112.258C85.1512 112.414 84.6808 112.57 84.2107 112.726C84.0448 112.78 83.8781 112.835 83.7133 112.89C83.655 112.718 83.5973 112.545 83.5404 112.372L83.1741 111.274C83.052 110.908 82.8306 110.242 82.7099 109.878C82.7027 109.858 82.6952 109.838 82.6899 109.817C83.8994 109.424 85.091 108.978 86.2645 108.479C87.0136 108.16 87.753 107.819 88.4829 107.455C88.495 107.477 88.5064 107.498 88.518 107.52C88.8274 108.124 89.2905 109.008 89.6017 109.613C89.9129 110.217 90.2278 110.823 90.5401 111.429C91.1629 111.093 91.7835 110.759 92.4058 110.425C93.0281 110.09 93.649 109.753 94.2709 109.418L93.3501 107.902C93.0433 107.397 92.698 106.821 92.3914 106.315C91.8759 106.632 91.3452 106.973 90.8016 107.264C91.0017 107.62 91.2027 107.975 91.4042 108.333C91.6811 108.183 91.9587 108.034 92.2369 107.885C92.4199 108.198 92.6033 108.511 92.7872 108.825C92.3519 109.06 91.9144 109.296 91.4778 109.53C91.325 109.614 91.17 109.696 91.0182 109.779C90.9312 109.618 90.8439 109.458 90.7581 109.298C90.5748 108.959 90.39 108.619 90.2075 108.28C90.0249 107.94 89.6918 107.322 89.5068 106.985C89.4996 106.971 89.4905 106.956 89.4814 106.941C90.605 106.347 91.7016 105.701 92.771 105.003C93.4524 104.558 94.1222 104.094 94.7805 103.61L94.8146 103.654C95.226 104.196 95.8321 104.985 96.2477 105.528C96.6633 106.07 97.0737 106.611 97.4855 107.153C98.0414 106.715 98.5958 106.277 99.1487 105.839C99.7016 105.401 100.256 104.963 100.811 104.525C100.419 104.08 100.03 103.636 99.6417 103.192C99.2527 102.749 98.8101 102.24 98.422 101.795C97.9662 102.197 97.505 102.624 97.0209 103.006C97.2809 103.321 97.5411 103.637 97.802 103.955C98.0476 103.758 98.2952 103.564 98.5433 103.369C98.7774 103.645 99.014 103.923 99.2498 104.2C98.8615 104.507 98.4713 104.814 98.0839 105.122C97.9452 105.228 97.8087 105.338 97.6703 105.444C97.5572 105.303 97.4435 105.161 97.3293 105.02C97.0916 104.717 96.849 104.414 96.6095 104.112C96.3699 103.811 95.9357 103.261 95.6961 102.959C95.6892 102.95 95.6815 102.942 95.6745 102.933C96.673 102.155 97.6383 101.329 98.5705 100.455L98.5722 100.452C98.5723 100.451 98.5726 100.45 98.573 100.45C98.5734 100.449 98.574 100.449 98.5746 100.448C99.1671 99.8925 99.7474 99.3192 100.311 98.7241C100.324 98.7371 100.336 98.7473 100.348 98.7587C100.848 99.2207 101.585 99.8934 102.085 100.355C102.585 100.817 103.085 101.278 103.586 101.74C104.056 101.212 104.526 100.684 104.996 100.158C105.467 99.6321 105.936 99.1042 106.404 98.5748C105.943 98.2055 105.481 97.8358 105.021 97.4657C104.561 97.0958 104.037 96.6711 103.577 96.3019C103.2 96.7755 102.818 97.279 102.408 97.7383C102.717 98.0044 103.027 98.2693 103.337 98.535C103.546 98.3009 103.756 98.0657 103.965 97.83C104.244 98.0609 104.524 98.2942 104.805 98.5256C104.476 98.896 104.145 99.2651 103.818 99.6365C103.701 99.7659 103.583 99.896 103.468 100.026C103.331 99.9065 103.195 99.7863 103.06 99.665C102.771 99.4087 102.481 99.1524 102.193 98.8964C101.905 98.6405 101.381 98.1769 101.092 97.9199C101.085 97.9129 101.077 97.9065 101.069 97.9007C101.915 96.9623 102.719 95.9761 103.487 94.9501L103.49 94.9456C103.975 94.2973 104.444 93.6312 104.899 92.9472C104.913 92.956 104.929 92.9657 104.943 92.9748C105.515 93.343 106.357 93.8785 106.93 94.2455C107.503 94.6126 108.076 94.9814 108.649 95.3489C109.02 94.7471 109.392 94.1465 109.764 93.547C110.134 92.9447 110.504 92.3446 110.876 91.7413C110.356 91.4589 109.837 91.174 109.321 90.8905C108.805 90.607 108.212 90.2796 107.697 89.9949C107.407 90.5285 107.119 91.0885 106.792 91.6098C107.144 91.8189 107.496 92.0252 107.849 92.2353C108.013 91.9676 108.177 91.7 108.345 91.431C108.661 91.6106 108.977 91.7917 109.292 91.9703C109.033 92.3938 108.773 92.8158 108.512 93.2364C108.42 93.3838 108.327 93.5324 108.237 93.6819C108.08 93.5873 107.926 93.4913 107.77 93.3963C107.445 93.1925 107.112 92.9923 106.784 92.7909C106.457 92.5896 105.859 92.2208 105.531 92.0192C105.521 92.013 105.513 92.008 105.503 92.0016C105.54 91.9419 105.58 91.8847 105.614 91.8234C106.253 90.7888 106.84 89.7382 107.375 88.6718C107.745 87.9421 108.092 87.2044 108.414 86.4587C108.431 86.4658 108.447 86.4719 108.463 86.4783C109.091 86.7419 110.013 87.1221 110.641 87.3841C111.269 87.6461 111.897 87.9109 112.526 88.1733C112.788 87.5172 113.049 86.8612 113.311 86.2055C113.573 85.5498 113.834 84.8932 114.094 84.2355C113.531 84.0458 112.972 83.8563 112.414 83.6672C111.855 83.4759 111.217 83.2562 110.659 83.0656C110.466 83.6401 110.278 84.2431 110.05 84.8153C110.435 84.9609 110.816 85.1015 111.199 85.2462C111.313 84.9539 111.431 84.6623 111.549 84.3683C111.89 84.49 112.233 84.6131 112.574 84.7346L112.026 86.1171C111.963 86.2787 111.897 86.4412 111.832 86.6021C111.664 86.5381 111.495 86.4706 111.326 86.4042C110.968 86.2632 110.605 86.1193 110.249 85.9788C109.893 85.8383 109.239 85.5776 108.881 85.4363C108.871 85.4332 108.862 85.4294 108.852 85.4251C109.332 84.2381 109.754 83.0373 110.118 81.8228C110.353 81.0375 110.565 80.2504 110.752 79.4615C110.77 79.465 110.788 79.4675 110.807 79.472C111.469 79.622 112.444 79.8352 113.108 79.9858C113.772 80.1364 114.435 80.2876 115.101 80.4342C115.246 79.7432 115.389 79.0518 115.531 78.3599L115.961 76.284C115.377 76.1959 114.792 76.1063 114.207 76.0153C113.624 75.9257 112.958 75.8207 112.376 75.7303C112.286 76.329 112.205 76.9539 112.079 77.5573C112.48 77.6323 112.882 77.7076 113.285 77.7832C113.349 77.4735 113.413 77.1666 113.477 76.8583C113.836 76.9175 114.194 76.9794 114.551 77.0404L114.262 78.5063C114.225 78.6778 114.19 78.8484 114.154 79.0206C113.975 78.9841 113.799 78.9495 113.621 78.9121C113.243 78.834 112.865 78.7561 112.488 78.6789C112.111 78.6017 111.423 78.4586 111.045 78.3843C111.033 78.3808 111.022 78.3782 111.01 78.3768C111.264 77.1671 111.465 75.9529 111.611 74.7342C111.608 74.7326 111.611 74.7288 111.61 74.7244C111.612 74.7141 111.614 74.7036 111.614 74.6931C111.615 74.684 111.616 74.6749 111.618 74.666C111.617 74.6605 111.62 74.6567 111.62 74.6513C111.621 74.6375 111.622 74.6237 111.625 74.6111C111.721 73.7991 111.792 72.9854 111.84 72.17C111.862 72.1724 111.884 72.1733 111.906 72.1726C112.588 72.2061 113.582 72.249 114.262 72.2818C114.943 72.3145 115.624 72.3451 116.304 72.3778C116.324 71.6701 116.345 70.9637 116.367 70.2586L116.429 68.1411C115.837 68.153 115.247 68.1666 114.658 68.1821C114.068 68.1949 113.394 68.2048 112.803 68.2168C112.82 68.8232 112.849 69.4525 112.831 70.0678C113.239 70.073 113.647 70.0773 114.057 70.0807C114.065 69.7685 114.074 69.4537 114.084 69.1361C114.447 69.1344 114.813 69.1323 115.175 69.1286C115.16 69.6238 115.146 70.1196 115.132 70.6161C115.125 70.7906 115.121 70.9643 115.116 71.1395C114.935 71.1361 114.752 71.1296 114.571 71.1242C114.185 71.1134 113.799 71.1038 113.413 71.0928C113.027 71.0818 112.326 71.0629 111.942 71.0536C111.926 71.0519 111.91 71.0529 111.891 71.0507C111.93 69.832 111.915 68.6156 111.848 67.4016C111.801 66.5311 111.728 65.6631 111.63 64.7976C111.657 64.795 111.684 64.7901 111.711 64.7868C112.386 64.7003 113.374 64.5692 114.048 64.4831C114.721 64.397 115.399 64.3093 116.075 64.2243C115.973 63.5237 115.871 62.8253 115.769 62.1292C115.667 61.4331 115.564 60.7332 115.462 60.0296C114.881 60.1471 114.301 60.2629 113.723 60.3771C113.144 60.4906 112.482 60.6193 111.902 60.7363C112.023 61.3298 112.162 61.9447 112.251 62.5535C112.655 62.4859 113.057 62.4201 113.461 62.3525C113.414 62.0414 113.369 61.7298 113.326 61.4176C113.683 61.3532 114.041 61.2892 114.399 61.2232C114.472 61.7142 114.542 62.2039 114.615 62.6944C114.638 62.8676 114.662 63.0413 114.69 63.2124C114.511 63.2401 114.33 63.2674 114.151 63.292C113.77 63.3489 113.387 63.4081 113.005 63.4625C112.623 63.5169 111.931 63.6214 111.549 63.677C111.528 63.6811 111.506 63.6841 111.485 63.686C111.314 62.4825 111.093 61.2873 110.821 60.1006C110.626 59.2512 110.404 58.4091 110.156 57.5743C110.183 57.5656 110.209 57.5548 110.234 57.5473C110.887 57.3489 111.833 57.0461 112.484 56.8446C113.135 56.6432 113.785 56.4376 114.435 56.2359C114.213 55.5636 113.99 54.8952 113.769 54.2236L113.103 52.2114C112.552 52.4265 112.001 52.6411 111.45 52.8553C110.9 53.0695 110.271 53.3099 109.72 53.5226C109.944 54.0858 110.185 54.6696 110.381 55.2546L111.535 54.8461C111.437 54.5487 111.339 54.2475 111.24 53.9484C111.58 53.8227 111.921 53.6973 112.262 53.5701C112.416 54.04 112.572 54.5116 112.73 54.981C112.784 55.147 112.838 55.3129 112.894 55.4785C112.72 55.5374 112.547 55.5947 112.378 55.6507L111.275 56.0173C110.911 56.1389 110.244 56.3591 109.878 56.4834C109.86 56.4895 109.841 56.4961 109.822 56.5011C109.427 55.2923 108.983 54.0978 108.483 52.9256C108.163 52.1764 107.821 51.4369 107.458 50.7069C107.479 50.6962 107.5 50.6848 107.52 50.6734C108.126 50.3609 109.008 49.9009 109.613 49.5881C110.217 49.2753 110.824 48.9627 111.43 48.6504C111.094 48.0276 110.76 47.407 110.425 46.7845C110.09 46.1619 109.754 45.5415 109.419 44.9195C108.913 45.2277 108.408 45.5334 107.903 45.8403C107.397 46.1473 106.82 46.4934 106.316 46.7989C106.634 47.3153 106.974 47.8453 107.265 48.3893C107.621 48.189 107.976 47.988 108.333 47.7884C108.183 47.5109 108.033 47.2337 107.885 46.9569C108.198 46.7733 108.511 46.5889 108.825 46.4038C109.059 46.842 109.295 47.2795 109.53 47.7148C109.613 47.8672 109.696 48.0221 109.779 48.1747C109.619 48.2616 109.458 48.349 109.298 48.4359C108.959 48.6158 108.618 48.8033 108.28 48.9872C107.941 49.171 107.324 49.4998 106.985 49.6858C106.97 49.6932 106.958 49.7012 106.941 49.7107C106.347 48.5881 105.701 47.4913 105.004 46.4204C104.56 45.7394 104.096 45.0697 103.612 44.4114C103.625 44.3994 103.64 44.3896 103.655 44.3767C104.196 43.9666 104.986 43.3588 105.527 42.9447C106.069 42.5306 106.611 42.1192 107.152 41.7068C106.715 41.151 106.278 40.5965 105.841 40.0433C105.404 39.49 104.966 38.936 104.526 38.3811C104.081 38.7724 103.636 39.1622 103.192 39.5506C102.748 39.941 102.24 40.3823 101.794 40.7704C102.197 41.2262 102.624 41.6896 103.007 42.1705C103.32 41.911 103.637 41.652 103.952 41.3936C103.757 41.1449 103.563 40.8993 103.367 40.651C103.645 40.4154 103.92 40.1812 104.198 39.9442C104.505 40.3345 104.813 40.724 105.12 41.1126C105.227 41.2475 105.336 41.3862 105.445 41.5227C105.303 41.6374 105.162 41.7506 105.02 41.8638C104.716 42.1023 104.414 42.3436 104.113 42.5834C103.811 42.8232 103.261 43.2588 102.958 43.4997C102.95 43.5057 102.943 43.5116 102.934 43.5194C102.156 42.5207 101.329 41.5553 100.453 40.6233C100.453 40.6233 100.45 40.621 100.448 40.6203C99.892 40.0272 99.3214 39.4486 98.727 38.8842L98.7584 38.8509C99.2226 38.3483 99.8921 37.6155 100.355 37.1142C100.818 36.6128 101.279 36.1132 101.739 35.6126C101.213 35.1419 100.686 34.6714 100.16 34.201C99.6334 33.7307 99.1053 33.2611 98.5755 32.7924L97.4662 34.1763C97.0959 34.6363 96.6708 35.1592 96.303 35.6202C96.7766 35.9974 97.2776 36.3797 97.7394 36.7892C98.0038 36.4795 98.2691 36.1696 98.5353 35.8596C98.2997 35.6514 98.0661 35.4417 97.8302 35.2306C98.0622 34.9528 98.294 34.6711 98.5252 34.3912C98.8955 34.7199 99.2653 35.0497 99.6346 35.3806C99.7664 35.4953 99.8963 35.613 100.026 35.7312C99.9076 35.8654 99.7852 36.0035 99.6658 36.1377C99.4098 36.4259 99.154 36.7164 98.8958 37.0048C98.6376 37.2932 98.1762 37.8167 97.9199 38.1046C97.9146 38.1123 97.9088 38.1196 97.9025 38.1265C96.9624 37.2809 95.9773 36.4741 94.9474 35.7061C94.2984 35.2221 93.6316 34.7532 92.9469 34.2993C92.9567 34.2838 92.9648 34.2709 92.9745 34.2553C93.3422 33.6821 93.8761 32.8424 94.2438 32.2693C94.6115 31.6961 94.9797 31.1228 95.3472 30.5501C94.7459 30.1775 94.1462 29.8075 93.5455 29.4348C92.9449 29.0621 92.3422 28.6944 91.7413 28.3221C91.4578 28.8416 91.1739 29.3602 90.8898 29.8779C90.606 30.3957 90.2782 30.9853 89.9929 31.5037C90.5264 31.7921 91.087 32.08 91.6104 32.4038L92.2339 31.3499C91.968 31.1835 91.7003 31.0197 91.4317 30.8515C91.6086 30.5392 91.7906 30.2206 91.971 29.9052C92.3929 30.165 92.8147 30.4252 93.2364 30.686C93.3838 30.7782 93.5331 30.8717 93.6822 30.9613C93.5876 31.1167 93.493 31.2712 93.3976 31.4262C93.1955 31.7534 92.9936 32.0844 92.792 32.4125C92.5904 32.7406 92.2221 33.3376 92.0202 33.667L92.004 33.6929C91.9455 33.6562 91.8862 33.6191 91.8288 33.5832C90.7935 32.9444 89.7397 32.3589 88.6746 31.8208C87.9426 31.4509 87.2048 31.1044 86.4611 30.7815C86.4701 30.767 86.474 30.7499 86.4804 30.7338C86.7447 30.106 87.1229 29.1857 87.3867 28.5571C87.6505 27.9285 87.9101 27.2983 88.1756 26.6713C87.518 26.4089 86.8633 26.1488 86.2067 25.8876C85.55 25.6263 84.8934 25.3666 84.2372 25.1056C84.0475 25.6651 83.8576 26.2245 83.6676 26.7839C83.4763 27.3431 83.2573 27.9802 83.0679 28.539C83.642 28.7328 84.2446 28.919 84.8164 29.1468L85.2481 27.9982C84.9552 27.8831 84.6636 27.7652 84.3698 27.65C84.491 27.3076 84.6155 26.9641 84.7366 26.6227C85.1969 26.805 85.6576 26.9875 86.1188 27.1704C86.2807 27.2336 86.4439 27.2998 86.6048 27.3646L86.4065 27.8708C86.2643 28.2281 86.1212 28.5911 85.9801 28.9476C85.839 29.304 85.5804 29.958 85.4396 30.3183C85.4348 30.3259 85.4339 30.3359 85.4297 30.3459C84.2404 29.8661 83.0385 29.4444 81.8266 29.0784C81.0431 28.8433 80.256 28.6317 79.4653 28.4436L79.4751 28.3899C79.626 27.7261 79.8398 26.7542 79.9908 26.0888L80.4391 24.0956C79.748 23.9512 79.0566 23.8077 78.3648 23.6653C77.6721 23.5242 76.9805 23.3806 76.2897 23.2355L76.0202 24.9895C75.93 25.5729 75.8233 26.2411 75.7336 26.8221C76.3338 26.9117 76.9576 26.9922 77.5618 27.1159L77.7867 25.9115C77.4778 25.8483 77.1709 25.7836 76.8615 25.7195C76.9225 25.3617 76.9837 25.0028 77.0441 24.6435C77.5287 24.7454 78.0153 24.8441 78.4999 24.946L79.0132 25.0509L78.9049 25.5849C78.8263 25.964 78.7481 26.3423 78.6712 26.7188C78.5942 27.0952 78.452 27.783 78.3752 28.1617C78.3733 28.1732 78.371 28.1845 78.3684 28.1955C77.1591 27.9428 75.9447 27.7428 74.7251 27.5955C74.7225 27.5955 74.7199 27.5951 74.7174 27.5943C74.7065 27.5936 74.6957 27.5923 74.6849 27.5904L74.6446 27.5864C74.6299 27.5845 74.6171 27.5839 74.6027 27.5823C74.6027 27.5823 74.6001 27.5807 74.5993 27.5802C73.7884 27.4852 72.9766 27.4136 72.1639 27.3654C72.1638 27.3436 72.1664 27.3199 72.1661 27.2985C72.2001 26.6171 72.2413 25.6218 72.2741 24.9417L72.3697 22.8996C71.6627 22.8802 70.9566 22.8592 70.2515 22.8368C69.5465 22.8143 68.8404 22.7939 68.1335 22.7756C68.1467 23.3673 68.1598 23.9584 68.1728 24.5489C68.1856 25.1386 68.1979 25.8125 68.2097 26.4037C68.8159 26.3865 69.4447 26.3585 70.06 26.3766C70.0638 25.9683 70.0683 25.5592 70.0735 25.1493C69.7586 25.1395 69.444 25.1319 69.1286 25.1222C69.1268 24.7583 69.1249 24.3938 69.1207 24.0312C69.6167 24.0458 70.1125 24.0606 70.6079 24.0756C70.7827 24.0792 70.9572 24.0853 71.1313 24.0901C71.1268 24.273 71.122 24.4548 71.1169 24.6353C71.1059 25.0213 71.0967 25.4078 71.0857 25.7938C71.0747 26.1798 71.0543 26.8799 71.0442 27.2643C71.0447 27.2805 71.0438 27.2963 71.0436 27.3126C69.8251 27.2741 68.6089 27.2886 67.3949 27.3559C66.5248 27.4022 65.6572 27.4745 64.7919 27.5729L64.7812 27.4927C64.6948 26.8189 64.5633 25.8308 64.4764 25.1551C64.3895 24.4794 64.3034 23.8042 64.2165 23.1285C63.5184 23.23 62.8201 23.3319 62.1214 23.4344L60.6237 23.6536L60.2767 22.6026C60.8321 22.5213 61.39 22.44 61.945 22.3585C62.8361 22.2301 63.7271 22.1003 64.618 21.969C64.7974 21.9433 64.9755 21.9172 65.1571 21.8907C65.176 22.0718 65.1949 22.2528 65.2149 22.4329C65.2912 23.1094 65.3647 23.7889 65.4392 24.4658C65.5137 25.1427 65.5883 25.8203 65.6642 26.4975C66.1673 26.4237 66.6894 26.3903 67.1895 26.3644C67.171 25.7373 67.1544 25.0532 67.1337 24.5194L67.0431 22.2011L67.021 21.6543C67.2015 21.6615 67.3849 21.6642 67.5666 21.6695C68.4652 21.6972 69.3667 21.7226 70.2656 21.7505L72.9662 21.8288C73.1478 21.8339 73.3293 21.8394 73.5106 21.8453C73.4973 22.0279 73.4862 22.2097 73.4746 22.3896C73.4304 23.0702 73.3862 23.7504 73.3419 24.4302C73.2995 25.1096 73.254 25.7907 73.2105 26.4694C73.7185 26.4849 74.2392 26.5426 74.7361 26.6029C74.8264 25.9821 74.9291 25.3066 75.0022 24.7776L75.3141 22.4785C75.3393 22.2979 75.3642 22.1173 75.3888 21.9367C75.5651 21.9751 75.7437 22.0108 75.9221 22.0468C76.8035 22.2292 77.6849 22.4116 78.5664 22.5938C79.4479 22.776 80.3303 22.9581 81.2137 23.14C81.3912 23.177 81.5686 23.2142 81.7461 23.2517C81.7023 23.4273 81.66 23.6049 81.6165 23.7791C81.4563 24.4424 81.293 25.1038 81.132 25.7666C80.9711 26.4294 80.8082 27.0911 80.6475 27.7525C81.145 27.8566 81.649 28.0027 82.1263 28.1492C82.3241 27.5543 82.5433 26.9041 82.7058 26.3967C82.9425 25.6586 83.1771 24.9229 83.4145 24.1852C83.4695 24.0129 83.5245 23.8405 83.5807 23.6663C83.7505 23.7329 83.9203 23.7995 84.0894 23.8672C84.9252 24.1996 85.7613 24.5326 86.5977 24.8664C87.4341 25.2001 88.2712 25.5326 89.1092 25.8638C89.2783 25.9316 89.4462 25.997 89.6151 26.0651C89.542 26.2309 89.4665 26.3989 89.3959 26.5625L88.5739 28.4345C88.3006 29.0577 88.0266 29.6814 87.7518 30.3058C88.2242 30.4957 88.6933 30.7279 89.1393 30.9531C89.438 30.3998 89.765 29.8012 90.0143 29.3284C90.3754 28.6449 90.7336 27.9601 91.0942 27.2742L91.3489 26.7911C91.5028 26.8874 91.657 26.9839 91.8122 27.0773C92.5783 27.5511 93.3442 28.0237 94.1102 28.4953C94.8762 28.9669 95.6429 29.4402 96.4103 29.9151C96.5622 30.0102 96.7169 30.107 96.8742 30.1996C96.7712 30.3514 96.6694 30.504 96.5692 30.6539C96.1919 31.2208 95.8136 31.7878 95.4344 32.3549C95.0552 32.9221 94.677 33.4892 94.2999 34.0562C94.7321 34.323 95.1553 34.6328 95.5548 34.9357C95.9424 34.4432 96.3704 33.9078 96.6978 33.4861C97.1718 32.8746 97.6451 32.2631 98.1177 31.6515L98.4532 31.2184C98.589 31.3394 98.7256 31.4592 98.8616 31.5798C99.531 32.179 100.206 32.7781 100.877 33.3758C101.547 33.9735 102.222 34.5745 102.894 35.1731C103.03 35.2941 103.166 35.415 103.303 35.5345C103.176 35.6669 103.049 35.7987 102.923 35.9312C102.456 36.4241 101.981 36.9153 101.511 37.4068C101.042 37.8983 100.57 38.3934 100.099 38.8858C100.478 39.2246 100.839 39.6031 101.179 39.9694C101.647 39.552 102.16 39.0987 102.555 38.7408C103.128 38.2222 103.699 37.7008 104.272 37.1803C104.407 37.0584 104.542 36.9372 104.678 36.8133C104.791 36.9546 104.903 37.0971 105.015 37.2407L106.69 39.3586C107.247 40.0652 107.807 40.7739 108.363 41.4791L108.702 41.9064C108.556 42.0129 108.408 42.1223 108.262 42.2292C107.714 42.632 107.162 43.0361 106.615 43.4388C106.068 43.8415 105.515 44.2458 104.966 44.6493C105.28 45.0474 105.572 45.4846 105.845 45.9032C106.377 45.5738 106.962 45.2175 107.414 44.9332C108.068 44.5213 108.721 44.1086 109.376 43.6952C109.53 43.5973 109.684 43.5013 109.839 43.4035C109.925 43.563 110.01 43.722 110.097 43.8824C110.524 44.6748 110.95 45.467 111.378 46.2591C111.806 47.0512 112.233 47.8442 112.661 48.6381C112.746 48.7975 112.832 48.9565 112.918 49.1197C112.754 49.1974 112.592 49.2791 112.43 49.3578C111.817 49.6616 111.206 49.9623 110.594 50.2637C109.983 50.5652 109.374 50.8669 108.762 51.1688C109.002 51.6177 109.213 52.0973 109.409 52.5564C109.992 52.3269 110.627 52.0763 111.124 51.8758C111.838 51.5828 112.554 51.2873 113.269 50.9975C113.439 50.9272 113.607 50.8599 113.777 50.7895C113.833 50.9631 113.889 51.1335 113.947 51.3065C114.23 52.1605 114.513 53.0152 114.796 53.8706C115.078 54.726 115.362 55.5781 115.647 56.4268C115.702 56.5982 115.76 56.771 115.817 56.9439C115.642 56.9932 115.466 57.0446 115.293 57.0953C114.639 57.2867 113.985 57.4782 113.331 57.6699C112.678 57.8615 112.023 58.0527 111.368 58.2434C111.528 58.7273 111.652 59.237 111.764 59.7232C112.377 59.5979 113.051 59.4613 113.573 59.3478C114.329 59.184 115.084 59.0192 115.839 58.8536C116.017 58.8157 116.196 58.7779 116.374 58.7382C116.4 58.9183 116.427 59.0972 116.453 59.2775C116.582 60.1693 116.712 61.0598 116.843 61.949C116.973 62.8406 117.104 63.7334 117.235 64.6226C117.26 64.8016 117.285 64.981 117.312 65.1624C117.131 65.1803 116.95 65.2 116.771 65.2213C116.094 65.2966 115.416 65.3705 114.737 65.4431C114.061 65.5205 113.383 65.5933 112.706 65.6674C112.78 66.1722 112.812 66.6953 112.84 67.1949C113.466 67.1764 114.15 67.1591 114.683 67.1384C115.456 67.1091 116.229 67.0792 117.003 67.0487C117.185 67.04 117.366 67.0325 117.55 67.027C117.543 67.2068 117.538 67.39 117.533 67.5714C117.508 68.4701 117.48 69.3714 117.454 70.2713C117.427 71.1711 117.4 72.0711 117.374 72.9712C117.368 73.151 117.363 73.3344 117.357 73.5153L116.814 73.4777C116.134 73.4342 115.454 73.3902 114.773 73.3458C114.094 73.3027 113.413 73.2582 112.733 73.2152C112.718 73.7236 112.66 74.2445 112.6 74.7414C113.221 74.8311 113.897 74.9333 114.426 75.0054C115.192 75.1105 115.959 75.2148 116.725 75.3184L117.267 75.3933C117.23 75.57 117.193 75.7469 117.157 75.9257C116.974 76.8079 116.792 77.6892 116.61 78.5696C116.428 79.45 116.246 80.3324 116.064 81.2169C116.025 81.3944 115.989 81.5724 115.952 81.749C115.775 81.7068 115.598 81.6621 115.423 81.6195C114.759 81.4603 114.098 81.2964 113.435 81.1354C112.772 80.9744 112.111 80.8112 111.45 80.6494C111.346 81.1483 111.199 81.6524 111.052 82.1297C111.646 82.3284 112.297 82.5445 112.804 82.7069C113.54 82.9448 114.277 83.1787 115.015 83.4154C115.191 83.4725 115.361 83.5263 115.535 83.5824L115.333 84.0902L114.335 86.5995C114.002 87.4354 113.67 88.2724 113.338 89.1106C113.269 89.2787 113.202 89.4486 113.135 89.6184C112.968 89.5441 112.8 89.4692 112.636 89.3976C112.012 89.1236 111.387 88.8493 110.763 88.5747C110.139 88.3001 109.515 88.0257 108.892 87.7514C108.705 88.2246 108.47 88.6958 108.244 89.1411C108.798 89.4394 109.396 89.7665 109.868 90.0158C110.554 90.3761 111.237 90.7354 111.923 91.0957C112.085 91.1791 112.245 91.2654 112.407 91.3499C112.31 91.5042 112.214 91.658 112.121 91.8147C111.647 92.5807 111.174 93.3464 110.702 94.1117C110.23 94.8773 109.755 95.6446 109.284 96.4112C109.188 96.5655 109.092 96.719 108.998 96.8749C108.845 96.7727 108.693 96.6712 108.544 96.5702C107.976 96.1928 107.41 95.8148 106.844 95.4361C106.278 95.0574 105.711 94.6791 105.143 94.3013C104.873 94.7325 104.566 95.1564 104.264 95.5558C104.755 95.9448 105.29 96.3718 105.712 96.6988C106.323 97.1722 106.935 97.6457 107.547 98.1192C107.692 98.2313 107.834 98.3432 107.98 98.4553L107.619 98.8637C107.02 99.5359 106.421 100.208 105.823 100.881C105.225 101.554 104.626 102.226 104.026 102.899L103.663 103.306C103.531 103.179 103.399 103.052 103.271 102.929C102.776 102.458 102.285 101.986 101.792 101.516C101.299 101.045 100.807 100.575 100.313 100.103C99.9747 100.483 99.5963 100.846 99.2287 101.186C99.6456 101.653 100.097 102.165 100.456 102.56C100.974 103.134 101.495 103.705 102.016 104.277C102.138 104.412 102.262 104.547 102.384 104.682C102.242 104.795 102.098 104.906 101.956 105.02C101.251 105.578 100.544 106.136 99.8373 106.694C99.1301 107.252 98.4239 107.811 97.7187 108.37L97.291 108.708C97.1826 108.559 97.0762 108.412 96.9689 108.267C96.5641 107.718 96.1624 107.168 95.7574 106.618C95.3524 106.068 94.9509 105.52 94.5481 104.97C94.1489 105.286 93.7129 105.576 93.2941 105.849C93.6232 106.382 93.9797 106.966 94.2629 107.418C94.6756 108.073 95.0886 108.727 95.5018 109.38C95.5995 109.535 95.6972 109.69 95.7935 109.844C95.634 109.93 95.475 110.015 95.3144 110.102C94.5236 110.529 93.7316 110.956 92.9385 111.384C92.1454 111.812 91.353 112.238 90.5613 112.662C90.4016 112.748 90.242 112.834 90.0825 112.92C90.0013 112.755 89.919 112.59 89.841 112.43C89.5395 111.819 89.2381 111.207 88.9366 110.595C88.6352 109.984 88.3331 109.373 88.0304 108.762C87.584 109.004 87.1028 109.214 86.6423 109.41C86.8753 109.992 87.1251 110.63 87.3271 111.124C87.6178 111.839 87.9103 112.555 88.2046 113.271C88.2729 113.439 88.3428 113.608 88.412 113.778C88.2384 113.833 88.0668 113.891 87.8929 113.947C87.0408 114.231 86.1865 114.514 85.3301 114.797C84.4737 115.08 83.6188 115.363 82.7653 115.646L82.2495 115.817C82.1973 115.641 82.1471 115.466 82.0966 115.293C81.9042 114.639 81.7129 113.985 81.5224 113.33C81.3299 112.677 81.1407 112.023 80.9493 111.368C80.4673 111.528 79.9576 111.652 79.4696 111.764C79.5977 112.379 79.7334 113.052 79.8459 113.575C80.0109 114.329 80.1758 115.085 80.3404 115.841C80.3801 116.019 80.4165 116.196 80.456 116.375C80.2776 116.401 80.0972 116.427 79.9174 116.453C79.0257 116.582 78.1351 116.713 77.2456 116.843C76.3555 116.974 75.4627 117.102 74.5738 117.234C74.3937 117.259 74.2143 117.284 74.0344 117.312C74.0154 117.13 73.9968 116.95 73.9762 116.77C73.9001 116.091 73.8254 115.414 73.7522 114.736C73.6789 114.059 73.6043 113.382 73.5283 112.705C73.0236 112.778 72.5002 112.811 72.001 112.838C72.0198 113.464 72.0359 114.149 72.0574 114.682C72.0867 115.454 72.117 116.227 72.1482 117.001C72.1558 117.183 72.1628 117.365 72.169 117.548C71.9886 117.543 71.8072 117.537 71.6251 117.531C70.7256 117.504 69.8256 117.478 68.9249 117.452C68.0242 117.427 67.1242 117.401 66.2247 117.373C66.0453 117.367 65.8643 117.363 65.6817 117.358C65.6947 117.176 65.7063 116.993 65.7179 116.813L65.8499 114.772C65.8926 114.094 65.9367 113.414 65.9822 112.733C65.475 112.718 64.9529 112.66 64.4558 112.6C64.3649 113.22 64.2628 113.895 64.191 114.424C64.0864 115.191 63.9838 115.959 63.8788 116.725C63.8531 116.904 63.8295 117.086 63.8044 117.266C63.6272 117.23 63.4491 117.192 63.2702 117.156C62.3894 116.974 61.506 116.792 60.6255 116.611C59.7451 116.43 58.8609 116.247 57.9778 116.064C57.8012 116.027 57.6236 115.991 57.4448 115.955C57.4892 115.777 57.5334 115.6 57.5754 115.424C57.7372 114.763 57.8988 114.101 58.0601 113.438C58.2215 112.775 58.383 112.113 58.5446 111.452C58.047 111.349 57.5421 111.201 57.0643 111.054C56.869 111.649 56.6506 112.298 56.4863 112.808C56.2504 113.544 56.0149 114.281 55.78 115.018C55.7243 115.191 55.6686 115.364 55.6129 115.538C55.4435 115.471 55.2742 115.404 55.1051 115.336C54.27 115.004 53.4336 114.672 52.5958 114.338C51.7581 114.005 50.9212 113.672 50.0851 113.34C49.9157 113.272 49.7488 113.207 49.577 113.138C49.6512 112.973 49.7247 112.807 49.7978 112.641C50.069 112.018 50.3457 111.391 50.6193 110.767C50.893 110.143 51.1672 109.52 51.4408 108.896C50.9703 108.707 50.4976 108.475 50.0534 108.249C49.7544 108.803 49.4284 109.401 49.1795 109.873C48.8179 110.558 48.4575 111.242 48.0981 111.927C48.0145 112.089 47.9285 112.249 47.8435 112.411C47.6915 112.316 47.5368 112.219 47.3798 112.125C46.6142 111.653 45.8484 111.18 45.0824 110.707C44.3164 110.233 43.5498 109.76 42.7829 109.288C42.6309 109.193 42.4762 109.096 42.3199 109.002C42.4224 108.85 42.5236 108.699 42.6236 108.548C43.0018 107.981 43.38 107.414 43.7582 106.847L44.8926 105.147C44.4613 104.877 44.0381 104.569 43.6369 104.268C43.2489 104.76 42.8239 105.293 42.4956 105.716C42.0212 106.328 41.5476 106.94 41.0747 107.552L40.7398 107.984C40.6039 107.863 40.4681 107.742 40.3314 107.622C39.658 107.025 38.9857 106.426 38.3144 105.827C37.6431 105.228 36.9704 104.629 36.2964 104.03C36.1608 103.909 36.025 103.788 35.888 103.669L36.2653 103.276C36.7338 102.781 37.2086 102.29 37.6787 101.798C38.1488 101.305 38.6202 100.813 39.0904 100.319C38.7108 99.9811 38.347 99.6001 38.0054 99.2351C37.5382 99.6513 37.0257 100.103 36.6306 100.462C36.0583 100.982 35.4859 101.502 34.9135 102.023L34.508 102.39C34.3962 102.248 34.2835 102.106 34.1715 101.963C33.6129 101.257 33.0546 100.55 32.4966 99.8434C31.9386 99.1364 31.38 98.43 30.821 97.7241L30.4832 97.2964C30.6312 97.1891 30.776 97.082 30.9237 96.9751C31.4726 96.5704 32.0233 96.1678 32.5714 95.7652C33.1194 95.3626 33.6699 94.9578 34.2194 94.5546C33.9049 94.1547 33.6136 93.7186 33.3404 93.3001C32.8079 93.6289 32.2237 93.9862 31.7717 94.2707C31.1175 94.6823 30.4635 95.0951 29.8096 95.5091C29.6558 95.6053 29.5021 95.7031 29.3463 95.8008C29.2605 95.6413 29.1754 95.4823 29.0877 95.3217L27.8072 92.9446L26.5251 90.5665C26.4391 90.4069 26.3527 90.2471 26.2657 90.0869C26.4306 90.0077 26.5936 89.9272 26.7555 89.8467C27.3677 89.5445 27.9794 89.2429 28.5908 88.9419C29.2022 88.641 29.813 88.3388 30.4234 88.0355C30.1818 87.5877 29.9717 87.1072 29.7748 86.6477C29.193 86.8795 28.5569 87.1287 28.0618 87.3318C27.3459 87.624 26.6301 87.9164 25.9144 88.2088L25.4082 88.4171C25.3517 88.2437 25.2955 88.0716 25.2379 87.8991C24.9547 87.0447 24.6718 86.1902 24.3892 85.3354L23.5394 82.771C23.4827 82.598 23.4257 82.4264 23.3677 82.2537C23.5435 82.2051 23.718 82.1519 23.8925 82.102C24.5464 81.9095 25.2007 81.7182 25.8554 81.5283C26.5086 81.3353 27.1633 81.1459 27.8177 80.9537C27.658 80.4704 27.5332 79.9608 27.4215 79.4742C26.8078 79.6015 26.1375 79.7356 25.6157 79.8496C24.8614 80.0121 24.1061 80.177 23.3497 80.3441C23.1718 80.3825 22.9942 80.4204 22.8159 80.4595C22.7902 80.28 22.7631 80.1002 22.7368 79.9209C22.6079 79.0295 22.478 78.1386 22.347 77.2483L21.957 74.5761C21.9306 74.3962 21.9043 74.2168 21.8784 74.0367C22.0595 74.0178 22.2397 73.9985 22.4209 73.9786C23.0987 73.9025 23.7762 73.8278 24.4531 73.7544C25.1301 73.681 25.8072 73.6059 26.4845 73.5292C26.4119 73.0258 26.377 72.5027 26.3513 72.0039C25.7243 72.0213 25.0413 72.0396 24.5082 72.0609C23.7348 72.0903 22.9612 72.1223 22.1888 72.1508C22.0068 72.1585 21.8253 72.1655 21.6427 72.1734C21.6495 71.9936 21.653 71.8096 21.6587 71.6281C21.6853 70.7283 21.7118 69.8283 21.7382 68.9282L21.8169 66.2278C21.8234 66.0484 21.8276 65.8644 21.8338 65.6837C22.0152 65.6963 22.1968 65.7078 22.3772 65.7203C23.0578 65.7633 23.7389 65.8089 24.4179 65.852C25.0968 65.8951 25.7776 65.9404 26.4579 65.9838C26.473 65.4755 26.5307 64.9549 26.5916 64.4579C25.9715 64.368 25.2942 64.2657 24.7663 64.1934C23.9995 64.0886 23.2327 63.9845 22.4658 63.8811C22.2865 63.8567 22.1059 63.8318 21.924 63.8064C21.9619 63.6302 21.9983 63.4521 22.0348 63.2745L22.5801 60.6287L23.1259 57.9821C23.1637 57.8043 23.2002 57.6268 23.2366 57.4486C23.4144 57.4932 23.5898 57.5358 23.7666 57.5794C24.4295 57.7393 25.0912 57.9022 25.7539 58.0642C26.4166 58.2262 27.0768 58.3871 27.7403 58.5479C27.8408 58.0493 27.9897 57.546 28.1371 57.0688C27.5426 56.8722 26.8934 56.6548 26.3837 56.4908C25.6476 56.2543 24.9107 56.0182 24.173 55.7825C23.9999 55.7278 23.8267 55.6723 23.6533 55.6159C23.7199 55.4487 23.7871 55.2804 23.8538 55.1105L24.852 52.6012L25.8495 50.0903C25.9184 49.9219 25.9851 49.7521 26.0521 49.5825C26.2181 49.6552 26.3838 49.7283 26.5519 49.8028C27.1762 50.076 27.8003 50.3499 28.4241 50.6243C29.048 50.8988 29.672 51.1726 30.296 51.4457C30.4849 50.9748 30.7163 50.5036 30.9426 50.0593C30.3897 49.7599 29.7909 49.4349 29.318 49.185C28.6336 48.8247 27.9491 48.4647 27.2643 48.1049C27.105 48.0216 26.9419 47.9349 26.7801 47.8495L27.0662 47.3866L28.4844 45.0882L29.9037 42.7889L30.1888 42.3265C30.34 42.428 30.491 42.5298 30.6425 42.6299C31.2097 43.0087 31.7781 43.3856 32.3439 43.765C32.9097 44.1444 33.4773 44.5208 34.0449 44.8982C34.3125 44.4655 34.623 44.0438 34.9226 43.6427C34.4309 43.2557 33.8984 42.8289 33.4742 42.5021C32.8634 42.0282 32.252 41.5543 31.6402 41.0804C31.4956 40.9689 31.3516 40.8572 31.2079 40.7454L31.5692 40.337C32.1657 39.6654 32.7643 38.9937 33.3649 38.3219C33.9631 37.6498 34.5626 36.9748 35.161 36.3034C35.282 36.1676 35.4029 36.0317 35.5224 35.895C35.6542 36.0224 35.7866 36.1487 35.9158 36.2744C36.4102 36.7425 36.9012 37.2152 37.395 37.686C37.8887 38.1568 38.3791 38.6281 38.8715 39.0986C39.2106 38.7197 39.589 38.3568 39.9546 38.0167C39.5394 37.5453 39.086 37.0337 38.7267 36.6396C38.2077 36.0663 37.6859 35.4949 37.1661 34.9227C37.0435 34.7883 36.9205 34.6537 36.798 34.5173L37.2258 34.1801L39.3445 32.5057C40.0507 31.9483 40.7573 31.3898 41.4642 30.8303L41.8919 30.4925C41.9982 30.642 42.1074 30.786 42.2122 30.9346C42.6179 31.482 43.0204 32.0327 43.4233 32.582C43.8262 33.1312 44.2302 33.6796 44.6337 34.2288C45.0331 33.9134 45.4689 33.6225 45.8887 33.3506C45.5592 32.8166 45.2026 32.2339 44.9183 31.7815C44.506 31.1273 44.0934 30.4728 43.6803 29.8181C43.5827 29.6656 43.4856 29.5106 43.3879 29.3559C43.5473 29.2701 43.7063 29.185 43.8667 29.0977L46.2439 27.8171L48.6232 26.5348L49.1016 26.2773C49.1829 26.4398 49.2629 26.6051 49.3434 26.7655C49.6456 27.3776 49.9472 27.9894 50.2481 28.6007C50.551 29.2101 50.851 29.8241 51.1535 30.4332C51.6024 30.1917 52.082 29.9805 52.5419 29.7855C52.3096 29.2044 52.0606 28.5664 51.8594 28.0724C51.5671 27.3565 51.2749 26.6406 50.9826 25.9247C50.9123 25.7565 50.8422 25.5889 50.7739 25.4192C50.9467 25.3618 51.1195 25.3045 51.291 25.2484C52.1454 24.9653 53.0003 24.6819 53.8557 24.3983L55.607 23.8195L55.588 24.9636C55.0714 25.1342 54.7317 25.2563 54.2153 25.4265C53.543 25.6509 52.8719 25.8734 52.2022 26.0941C52.4175 26.6463 52.6323 27.1971 52.8464 27.7467C53.0609 28.2971 53.301 28.9265 53.5151 29.4766C54.0776 29.2538 54.6606 29.0116 55.2449 28.8173C55.1097 28.4318 54.9726 28.0467 54.8378 27.6604C54.5387 27.7615 54.2385 27.8576 53.9406 27.9577C53.8141 27.6173 53.6883 27.2758 53.5611 26.935L54.9719 26.4695L55.4686 26.3044C55.5274 26.4766 55.5857 26.6479 55.6426 26.8205C55.7633 27.1879 55.8864 27.5547 56.0101 27.9182C56.1338 28.2816 56.3511 28.9491 56.4733 29.3158C56.4798 29.3358 56.488 29.3557 56.4943 29.3776C55.2852 29.7702 54.0934 30.2166 52.9188 30.7168C52.9188 30.7168 52.9188 30.7168 52.9186 30.7129C52.1709 31.034 51.4322 31.3759 50.7024 31.7388C50.6903 31.7176 50.677 31.6949 50.6662 31.6734C50.3548 31.0682 49.8926 30.1845 49.5815 29.579C49.2703 28.9734 48.9558 28.37 48.6432 27.7635C48.0211 28.1002 47.4001 28.4334 46.778 28.7685L44.9123 29.7742C45.2197 30.2801 45.5256 30.7867 45.8334 31.2892C46.1413 31.7918 46.4862 32.373 46.7916 32.8777C47.3074 32.5606 47.838 32.2196 48.381 31.9291C48.1807 31.5732 47.9804 31.2173 47.7801 30.8614L46.9504 31.3093C46.7665 30.9964 46.5845 30.6805 46.4005 30.3671L47.7087 29.6623C47.8618 29.58 48.016 29.4983 48.1701 29.4144C48.257 29.5745 48.3432 29.7342 48.4305 29.8946C48.6133 30.2321 48.7989 30.5735 48.9814 30.913C49.1639 31.2525 49.4952 31.8664 49.6812 32.2081C49.6896 32.2224 49.6984 32.2363 49.7061 32.2528C48.5829 32.8461 47.4864 33.4919 46.4166 34.1902C45.7354 34.6325 45.0664 35.0969 44.4095 35.5833C44.3979 35.5671 44.3845 35.5513 44.3723 35.5363C43.9603 34.994 43.3548 34.2047 42.9405 33.661C42.5263 33.1172 42.1155 32.5789 41.7012 32.0394C41.1455 32.4767 40.5911 32.9144 40.038 33.3527C39.4849 33.7909 38.9304 34.2292 38.3745 34.6674C38.7664 35.1125 39.1553 35.5558 39.545 35.9995C39.9346 36.4432 40.3757 36.9535 40.7667 37.3959C41.2195 36.995 41.6833 36.5683 42.1658 36.186C41.9065 35.8693 41.6466 35.5554 41.3872 35.2382C41.1415 35.4339 40.8941 35.6281 40.6458 35.8238C40.4111 35.5472 40.1755 35.2708 39.9391 34.9945C40.3272 34.6864 40.716 34.3786 41.1056 34.071C41.2429 33.9623 41.3807 33.8545 41.5168 33.7467L41.8554 34.1749C42.0948 34.4759 42.3369 34.7786 42.5759 35.081C42.815 35.3834 43.2502 35.9334 43.4923 36.2361C43.5001 36.2447 43.5074 36.2551 43.5149 36.2651C42.5155 37.0441 41.5488 37.872 40.6149 38.7487C40.022 39.3052 39.4439 39.8794 38.8807 40.4713C38.8683 40.4598 38.8542 40.4494 38.8422 40.4382C38.3425 39.9759 37.6068 39.3029 37.1054 38.8416C36.6041 38.3803 36.1048 37.9183 35.6048 37.4557C35.1335 37.9835 34.6629 38.5102 34.193 39.0358C33.7231 39.5613 33.2531 40.0896 32.7829 40.6206C33.2462 40.9899 33.7066 41.361 34.1682 41.7287C34.6298 42.0963 35.151 42.524 35.612 42.8934C35.9892 42.4183 36.3702 41.9185 36.7804 41.4566C36.4698 41.1917 36.1602 40.926 35.8514 40.6595C35.6423 40.8956 35.4329 41.1306 35.223 41.3645C34.9443 41.134 34.6641 40.9023 34.3826 40.6694L35.3718 39.5593L35.7215 39.1695C35.859 39.2878 35.9946 39.4092 36.1299 39.5309C36.4178 39.7866 36.7079 40.0438 36.9953 40.2993L38.0973 41.277C38.1049 41.2818 38.1125 41.2898 38.1196 41.2963C37.2741 42.2351 36.4669 43.2232 35.7001 44.2499C35.2097 44.8942 34.7411 45.5602 34.2896 46.2437L34.2887 46.2442ZM27.6642 41.481L27.9438 41.0469L28.9723 41.7085C28.8738 41.8525 28.779 41.9963 28.6822 42.1392L27.6642 41.481Z" fill="#82231E"/>
<path fill-rule="evenodd" clip-rule="evenodd" d="M31.9722 86.6684C31.9654 86.6054 31.9588 86.5406 31.9525 86.4739C31.8837 85.7037 31.9303 84.9227 32.0896 84.1771C32.2488 83.4315 32.5176 82.7363 32.88 82.1325L33.0443 78.9589C32.8483 78.6369 32.597 78.0341 32.5254 76.961C32.4209 75.3844 33.1523 73.3092 33.3719 72.7268L33.7441 65.66L33.3273 64.2397C33.8896 53.9156 47.3441 41.9218 47.3441 41.9218L52.3913 50.6836L53.3798 50.5415L55.0235 52.096L54.5856 57.3243L57.6568 65.2386L61.9362 63.4017C61.9362 63.4017 62.9236 63.9667 66.1052 68.2071C103.3 64.1071 107.69 79.5159 107.69 79.5159L107.902 84.7297C107.485 85.8182 107.022 86.8843 106.516 87.9257V86.4849C106.516 85.8379 106.406 85.314 106.265 85.314C106.125 85.314 106.013 85.8379 106.013 86.4849V88.9225C105.887 89.164 105.759 89.4041 105.628 89.6427V86.152C105.628 85.4386 105.513 84.8595 105.352 84.8595C105.191 84.8595 105.074 85.4386 105.074 86.152V89.9552L105.447 89.9701C104.122 92.3358 102.564 94.5566 100.804 96.6024C100.613 96.0381 100.341 95.6854 100.038 95.6854C99.4596 95.6854 98.9899 96.9763 98.9899 98.5702V98.5757C98.5749 98.9986 98.1506 99.4125 97.7173 99.8173V98.1173C97.7173 96.4145 97.0774 95.0368 96.285 95.0368C95.4925 95.0368 94.8526 96.4145 94.8526 98.1173V102.257C94.4668 102.557 94.0754 102.849 93.6786 103.135V97.9311C93.6786 96.1952 92.9824 94.7748 92.1324 94.7748C91.2824 94.7748 90.5885 96.1857 90.5885 97.9311V103.928C89.2466 103.953 87.8718 103.982 86.4712 104.012V97.2257C86.4712 95.4897 85.3735 94.0694 84.0175 94.0694C82.6615 94.0694 81.5614 95.4787 81.5614 97.2257V104.109L79.0525 104.165V97.9311C79.0525 95.799 77.7058 94.0631 76.0458 94.0631C74.3857 94.0631 73.0414 95.7943 73.0414 97.9311V104.304L69.8457 104.379V96.5849C69.8457 94.2872 68.4028 92.4234 66.6171 92.4234C64.8314 92.4234 63.3873 94.2872 63.3873 96.5849V104.539C59.7349 104.63 56.1822 104.72 52.8574 104.807V97.7054C52.8574 95.6791 51.9064 94.0363 50.7347 94.0363C49.563 94.0363 48.6132 95.6791 48.6132 97.7054V104.908L48.0942 104.922C47.5111 104.568 46.9376 104.2 46.3743 103.819V98.0242C46.3743 96.2725 45.6429 94.8522 44.7436 94.8522C43.8443 94.8522 43.1129 96.2741 43.1129 98.0242V101.367C42.5161 100.87 41.934 100.357 41.3671 99.8279V98.7959C41.3671 97.2178 40.8212 95.9553 40.1473 95.9553C39.6745 95.9553 39.2652 96.5829 39.0631 97.4981C37.8863 96.2088 36.7923 94.8444 35.7894 93.4131C46.4714 88.4485 72.1597 88.7638 72.1597 88.7638L72.2642 87.5549H73.1013L72.8923 86.0746C49.936 87.0261 39.6644 90.3664 35.2552 92.6316C33.9997 90.7477 32.8994 88.754 31.9722 86.6684ZM103.782 84.1619C103.524 84.1619 103.313 84.8232 103.313 85.6375V89.9079L104.252 89.9316V85.6375C104.252 84.8232 104.041 84.1619 103.782 84.1619ZM101.628 83.0446C101.239 83.0446 100.924 83.8368 100.924 84.8121L100.918 89.8637L102.332 89.8858V84.8121C102.332 83.8337 102.017 83.0446 101.628 83.0446ZM98.9911 81.9115C98.5015 81.9115 98.1059 82.8489 98.1059 84.0041V89.9174L99.8752 89.941V84.0041C99.8752 82.8489 99.4807 81.9115 98.9911 81.9115ZM95.5054 81.3118C94.8879 81.3118 94.3854 82.3187 94.3854 83.5623V89.8748L96.6231 89.8969V83.5623C96.6231 82.3187 96.1229 81.3118 95.5054 81.3118ZM91.3916 80.6664C90.666 80.6664 90.079 81.7395 90.079 83.0604L90.0778 89.7722H92.7065V83.0604C92.7065 81.7395 92.1171 80.6664 91.3916 80.6664ZM86.8504 79.9105C85.9934 79.9105 85.3007 81.1745 85.3007 82.7322V86.2435H88.4001V82.7322C88.4001 81.173 87.7075 79.9105 86.8504 79.9105ZM75.9037 76.0535C74.3234 76.0535 73.0414 77.7043 73.0414 79.7416V84.3182H78.7625V79.7416C78.7625 77.7043 77.484 76.0535 75.9037 76.0535ZM68.4627 76.7921C67.2968 76.7921 66.3494 78.0136 66.3494 79.5207L66.3459 82.9136H70.5759V79.5207C70.5759 78.0136 69.6285 76.7921 68.4627 76.7921ZM52.538 53.6315L52.1647 51.6431C52.1647 51.6431 39.3888 58.2728 33.6795 71.8952C39.7164 60.0213 52.538 53.6315 52.538 53.6315ZM52.2328 67.4875V62.9283H52.2293C52.2293 61.175 51.31 59.7641 50.1735 59.7641C49.0371 59.7641 48.1131 61.1828 48.1131 62.9361L48.1401 69.3134L52.2328 67.4875ZM46.5845 70.4038V65.9851C46.5845 64.2697 45.8625 62.8793 44.9502 62.8793C44.038 62.8793 43.3066 64.2697 43.3066 65.9851L43.3312 72.2692L46.5845 70.4038ZM41.8332 72.7332V68.9078C41.8332 67.4527 41.2931 66.2723 40.6239 66.2723C39.9547 66.2723 39.4123 67.4527 39.4123 68.9078L39.4323 74.3712L41.8332 72.7332ZM38.2911 75.3418V72.1729C38.2911 70.9136 37.9412 69.8894 37.4939 69.8894C37.0466 69.8894 36.6944 70.9104 36.6944 72.1729L36.7026 76.9641L38.2911 75.3418ZM35.7928 77.6395V74.3649C35.7928 73.1419 35.5521 72.1508 35.255 72.1508C34.958 72.1508 34.7162 73.1372 34.7162 74.3602L34.722 79.0078L35.7928 77.6395ZM60.5884 67.6737C60.5884 66.4743 60.6354 65.6852 60.6354 65.6852L60.6342 65.6868C60.6342 65.6868 38.2336 72.7347 33.4318 82.9815C37.7534 76.4149 50.0127 70.6863 60.5884 67.6737ZM60.4475 83.0746V76.9468C60.4475 74.7468 59.2042 72.9636 57.6686 72.9636C56.1329 72.9636 54.8873 74.7468 54.8873 76.9468V83.8795L60.4475 83.0746ZM52.2293 84.8468V78.4318C52.2293 76.6816 51.3065 75.2534 50.17 75.2534C49.0335 75.2534 48.1096 76.6753 48.1096 78.4255L48.0896 85.8111L52.2293 84.8468ZM46.1125 86.6696V81.1146L46.1161 81.113C46.1161 79.3992 45.3799 78.0088 44.4748 78.0088C43.5696 78.0088 42.837 79.3992 42.837 81.113L42.8605 87.4018L46.1125 86.6696ZM41.3671 87.8453V83.1204C41.3671 81.6638 40.8294 80.4849 40.1602 80.4849C39.491 80.4849 38.9509 81.6638 38.9509 83.1204L38.9627 88.4245L41.3671 87.8453ZM37.8227 88.8679V84.7837C37.8227 83.5228 37.4728 82.5081 37.0255 82.5081C36.5782 82.5081 36.226 83.5291 36.226 84.7916L36.2354 89.5812L37.8227 88.8679ZM35.3231 90.0199V86.0588C35.3231 84.8358 35.0907 83.8495 34.789 83.8495C34.4872 83.8495 34.2524 84.8358 34.2524 86.0588V90.7064L35.3231 90.0199Z" fill="#FF9D00"/>
</svg>
