<?xml version="1.0" encoding="UTF-8"?>
<!DOCTYPE svg PUBLIC "-//W3C//DTD SVG 1.1//EN" "http://www.w3.org/Graphics/SVG/1.1/DTD/svg11.dtd">
<!-- Creator: CorelDRAW 2020 (64-Bit) -->
<svg xmlns="http://www.w3.org/2000/svg" xml:space="preserve" width="96.2415mm" height="24.555mm" version="1.1" style="shape-rendering:geometricPrecision; text-rendering:geometricPrecision; image-rendering:optimizeQuality; fill-rule:evenodd; clip-rule:evenodd"
viewBox="0 0 797.04 203.36"
 xmlns:xlink="http://www.w3.org/1999/xlink"
 xmlns:xodm="http://www.corel.com/coreldraw/odm/2003">
 <defs>
  <style type="text/css">
   <![CDATA[
    .fil0 {fill:#460300;fill-rule:nonzero}
    .fil3 {fill:url(#id0);fill-rule:nonzero}
    .fil1 {fill:url(#id1);fill-rule:nonzero}
    .fil2 {fill:url(#id2);fill-rule:nonzero}
   ]]>
  </style>
  <linearGradient id="id0" gradientUnits="userSpaceOnUse" x1="202.67" y1="29.9" x2="236.93" y2="90.31">
   <stop offset="0" style="stop-opacity:1; stop-color:#FFEC87"/>
   <stop offset="1" style="stop-opacity:1; stop-color:#EA8C00"/>
  </linearGradient>
  <linearGradient id="id1" gradientUnits="userSpaceOnUse" x1="251.45" y1="77.58" x2="251.45" y2="187.21">
   <stop offset="0" style="stop-opacity:1; stop-color:#CC635E"/>
   <stop offset="1" style="stop-opacity:1; stop-color:#460300"/>
  </linearGradient>
  <linearGradient id="id2" gradientUnits="userSpaceOnUse" xlink:href="#id0" x1="229.93" y1="-7.54" x2="268.55" y2="55.96">
  </linearGradient>
 </defs>
 <g id="Layer_x0020_1">
  <metadata id="CorelCorpID_0Corel-Layer"/>
  <path class="fil0" d="M719.88 59.36l77.16 0 0 144 -30.86 0 0 -113.14 -46.3 0c-9.93,0 -18.43,4.04 -25.45,12.04 -7.02,8.04 -10.53,17.73 -10.53,29.1 0,11.37 3.51,21.1 10.53,29.1 7.02,8.04 15.52,12.04 25.45,12.04l36.02 0 0 30.86 -36.02 0c-18.43,0 -34.19,-7.02 -47.25,-21.1 -13.06,-14.04 -19.59,-31 -19.59,-50.9 0,-19.87 6.53,-36.86 19.59,-50.9 13.06,-14.04 28.82,-21.1 47.25,-21.1z"/>
  <polygon class="fil0" points="606.77,59.36 637.63,59.36 637.63,203.36 606.77,203.36 "/>
  <path class="fil0" d="M457.65 103.1c0,-12.08 4.28,-22.4 12.81,-30.93 8.53,-8.53 18.82,-12.81 30.89,-12.81l90.01 0 0 30.86 -90.01 0c-3.54,0 -6.6,1.26 -9.09,3.76 -2.49,2.53 -3.76,5.55 -3.76,9.13 0,3.55 1.26,6.6 3.76,9.09 2.49,2.49 5.55,3.76 9.09,3.76l46.3 0c12.04,0 22.36,4.25 30.89,12.78 8.53,8.56 12.81,18.85 12.81,30.93 0,12.08 -4.28,22.36 -12.81,30.89 -8.53,8.53 -18.85,12.81 -30.89,12.81l-90.01 0 0 -30.86 90.01 0c3.55,0 6.56,-1.26 9.09,-3.76 2.49,-2.49 3.76,-5.55 3.76,-9.09 0,-3.58 -1.26,-6.6 -3.76,-9.09 -2.53,-2.53 -5.55,-3.76 -9.09,-3.76l-46.3 0c-12.08,0 -22.36,-4.28 -30.89,-12.81 -8.53,-8.53 -12.81,-18.85 -12.81,-30.89z"/>
  <path class="fil0" d="M411.38 167.37c0,-4.28 -1.51,-7.9 -4.53,-10.92 -3.02,-3.02 -6.67,-4.53 -10.92,-4.53l-87.41 0 0 -30.86 87.41 0c4.25,0 7.9,-1.51 10.92,-4.53 3.02,-3.02 4.53,-6.63 4.53,-10.88 0,-4.25 -1.51,-7.9 -4.53,-10.92 -3.02,-3.02 -6.67,-4.53 -10.92,-4.53l-87.41 0 0 -30.86 87.41 0c12.78,0 23.66,4.53 32.72,13.59 9.06,9.06 13.58,19.94 13.58,32.72 0,11.87 -3.97,22.15 -11.83,30.86 7.86,8.71 11.83,18.99 11.83,30.86l0 35.98 -30.86 0 0 -35.98z"/>
  <path class="fil1" d="M205.67 145.36c-13.34,-2.56 -25.17,-8.6 -35.46,-18.22 -14.08,-13.02 -21.1,-28.75 -21.1,-47.22l0 -20.57 30.86 0 0 20.57c0,9.97 4,18.43 12.04,25.45 8,7.06 17.73,10.57 29.1,10.57 11.37,0 21.06,-3.51 29.1,-10.57 8,-7.02 12.04,-15.48 12.04,-25.45l0 -20.57 30.86 0 0 20.57c0,18.46 -7.06,34.19 -21.1,47.22 -10.28,9.62 -22.12,15.66 -35.49,18.22l0 57.99 -30.86 0 0 -57.99z"/>
  <path class="fil0" d="M87.41 151.93l-56.55 0 0 51.43 -30.86 0 0 -82.28 87.41 0c4.25,0 7.9,-1.51 10.92,-4.53 3.02,-3.02 4.53,-6.63 4.53,-10.88 0,-4.25 -1.51,-7.9 -4.53,-10.92 -3.02,-3.02 -6.67,-4.53 -10.92,-4.53l-87.41 0 0 -30.86 87.41 0c12.78,0 23.66,4.53 32.72,13.59 9.06,9.06 13.59,19.94 13.59,32.72 0,12.74 -4.53,23.66 -13.59,32.68 -9.06,9.06 -19.94,13.59 -32.72,13.59z"/>
  <path class="fil2" d="M240.08 101.84c0,0 9.15,-11.18 -3.47,-28.93 -12.62,-17.75 -39.95,-44.97 -15.03,-72.92 0,0 -3.15,16.29 24.31,46.91 27.45,30.63 -5.81,54.93 -5.81,54.93z"/>
  <path class="fil3" d="M188.64 71.15c0,0 4.65,11.38 10.88,17.21 3.58,3.35 11.87,4.31 5.01,-6.27 -6.86,-10.58 -17.99,-28.08 -1.67,-46.31 0,0 2.78,15.68 23.56,41.57 20.78,25.89 -3.75,36.07 -18.53,31.05 -14.45,-4.89 -21.04,-19.21 -19.25,-37.25z"/>
 </g>
</svg>
