<svg width="132" height="132" viewBox="0 0 132 132" fill="none" xmlns="http://www.w3.org/2000/svg">
<path fill-rule="evenodd" clip-rule="evenodd" d="M20.173 43.8037L20.393 43.3327L21.5025 43.8403C21.4251 43.9972 21.3478 44.1501 21.2722 44.3072L20.173 43.8037ZM20.9685 42.2263L21.2029 41.7625L22.2916 42.31C22.2093 42.461 22.1304 42.6153 22.05 42.7676L20.9685 42.2263ZM21.8153 40.6795L22.0657 40.2241L23.1356 40.8076C23.0485 40.9572 22.9622 41.1069 22.8766 41.2567L21.8153 40.6795ZM22.7186 39.1584L22.984 38.7124L24.0311 39.3335C23.938 39.4788 23.8458 39.6243 23.7555 39.7721L22.7186 39.1584ZM23.6721 37.6743L23.9541 37.2364L24.9745 37.8927C24.8779 38.0346 24.7831 38.1796 24.6879 38.324L23.6721 37.6743ZM24.6777 36.2242L24.9735 35.7966L25.974 36.488C25.8698 36.6273 25.7662 36.7649 25.6671 36.9048L24.6777 36.2242ZM25.7323 34.812L26.0448 34.3946L27.0178 35.1208C26.9102 35.2553 26.8057 35.394 26.7006 35.5296L25.7323 34.812ZM26.8351 33.4352L27.1609 33.0279L28.111 33.7894C27.9984 33.9219 27.887 34.0515 27.7764 34.1863L26.8351 33.4352ZM27.9863 32.0976L28.3264 31.7028L29.2504 32.4982C29.134 32.6258 29.0177 32.753 28.9027 32.8832L27.9863 32.0976ZM29.1881 30.7967L29.5384 30.4147L30.4377 31.2427C30.3171 31.3653 30.1965 31.4912 30.0779 31.6146L29.1881 30.7967ZM30.4297 29.5432L30.7952 29.1716L31.6668 30.0349C31.5422 30.153 31.416 30.2723 31.2914 30.3938L30.4297 29.5432ZM31.7143 28.333L32.0926 27.9753L32.9333 28.8687C32.805 28.9814 32.6783 29.0986 32.5494 29.215L31.7143 28.333ZM33.0379 27.1737L33.4267 26.8294L34.2405 27.755C34.1073 27.8643 33.9737 27.9734 33.8408 28.0843L33.0379 27.1737ZM34.4037 26.0571L34.8073 25.7254L35.5873 26.6799C35.4483 26.7855 35.3148 26.8932 35.1795 26.9992L34.4037 26.0571ZM35.808 24.9891L36.2221 24.6723L36.9737 25.6555C36.8315 25.7569 36.6912 25.8551 36.5509 25.9567L35.808 24.9891ZM37.2494 23.9684L37.672 23.6676L38.3908 24.6806C38.2474 24.7757 38.1049 24.8731 37.9615 24.9705L37.2494 23.9684ZM38.7243 23.0013L39.1591 22.7135L39.8431 23.7556C39.6961 23.8449 39.5487 23.9354 39.4027 24.0285L38.7243 23.0013ZM40.2332 22.0855L40.678 21.8114L41.3265 22.8778C41.1766 22.9626 41.0271 23.0474 40.8765 23.1362L40.2332 22.0855ZM41.7731 21.2226L42.2269 20.9643L42.837 22.0544C42.6849 22.1349 42.5312 22.2147 42.3798 22.2969L41.7731 21.2226ZM43.3399 20.4141L43.8038 20.1704L44.3781 21.2858C44.2218 21.3612 44.0669 21.4342 43.9113 21.5114L43.3399 20.4141ZM46.5508 18.97L47.0299 18.7595L47.5244 19.909C47.3635 19.9743 47.202 20.036 47.0418 20.1017L46.5508 18.97ZM48.1948 18.3291L48.6803 18.1376L49.131 19.3009C48.9682 19.3587 48.8066 19.4209 48.6454 19.4808L48.1948 18.3291ZM49.8519 17.7539L50.3441 17.5795L50.755 18.7544C50.5893 18.8062 50.4236 18.858 50.261 18.9116L49.8519 17.7539ZM51.536 17.232L52.0343 17.0736L52.3993 18.2605C52.2354 18.3077 52.0677 18.3563 51.9019 18.4047L51.536 17.232ZM53.2378 16.7669L53.74 16.6265L54.0666 17.8236C53.899 17.8645 53.73 17.9054 53.5627 17.9469L53.2378 16.7669ZM54.9534 16.3615L55.4608 16.2382L55.7453 17.4439C55.5755 17.4796 55.4051 17.5165 55.2379 17.5528L54.9534 16.3615ZM56.685 16.0185L57.1973 15.9117L57.4387 17.1238C57.2689 17.1522 57.0986 17.1805 56.9284 17.2136L56.685 16.0185ZM58.4259 15.7339L58.94 15.647L59.1395 16.8622C58.9687 16.8859 58.7975 16.9094 58.6274 16.9348L58.4259 15.7339ZM60.1753 15.5116L60.6928 15.4411L60.8485 16.6599C60.6766 16.6764 60.5061 16.6934 60.3342 16.7138L60.1753 15.5116ZM61.9318 15.3472L62.4521 15.2962L62.5644 16.5159C62.3912 16.5285 62.2174 16.5379 62.0475 16.5499L61.9318 15.3472ZM63.6917 15.2474L64.2137 15.2154L64.2842 16.4309C64.1114 16.4355 63.9396 16.4471 63.7642 16.4545L63.6917 15.2474ZM65.4553 15.2086L65.9778 15.1932L66.0055 16.4118C65.8327 16.4115 65.6599 16.4064 65.486 16.409L65.4553 15.2086ZM67.2192 15.2292L67.7425 15.2335L67.7274 16.4479C67.5534 16.4423 67.3811 16.437 67.2076 16.4325L67.2192 15.2292ZM68.9809 15.3142L69.5032 15.3364L69.4455 16.5502C69.2735 16.5357 69.1016 16.5223 68.9298 16.5113L68.9809 15.3142ZM70.7526 15.451L71.2737 15.4911L71.1733 16.711C71.0015 16.6903 70.83 16.6698 70.6577 16.6552L70.7526 15.451ZM72.49 15.6653L73.0104 15.7225L72.8685 16.9257C72.6964 16.8996 72.5255 16.8789 72.3541 16.8545L72.49 15.6653ZM74.2343 15.9307L74.7521 16.0052L74.5672 17.2061C74.3969 17.1754 74.2271 17.1435 74.0569 17.1129L74.2343 15.9307ZM75.9673 16.2592L76.4806 16.3522L76.2552 17.5431C76.0857 17.5046 75.9173 17.4717 75.7472 17.4358L75.9673 16.2592ZM77.6867 16.6469L78.1972 16.7552L77.9292 17.9441C77.7619 17.9001 77.593 17.8574 77.427 17.815L77.6867 16.6469ZM79.3909 17.0943L79.8975 17.2218L79.5878 18.4016C79.4212 18.3545 79.2558 18.3045 79.0878 18.2584L79.3909 17.0943ZM81.0808 17.6011L81.582 17.7482L81.2312 18.9148C81.0675 18.8593 80.9025 18.8095 80.7377 18.7568L81.0808 17.6011ZM82.7514 18.1682L83.2459 18.332L82.8544 19.4905C82.6926 19.4289 82.5299 19.3675 82.368 19.3088L82.7514 18.1682ZM84.4002 18.7919L84.8904 18.9726L84.4582 20.1168C84.2968 20.052 84.1366 19.9877 83.976 19.9233L84.4002 18.7919ZM86.0271 19.4714L86.5096 19.6713L86.0372 20.8013C85.8808 20.7289 85.7216 20.6597 85.5633 20.5884L86.0271 19.4714ZM87.6281 20.2106L88.1049 20.4247L87.5908 21.5408C87.4373 21.4647 87.2827 21.3877 87.1273 21.3117L87.6281 20.2106ZM89.2049 21.0043L89.6731 21.2347L89.1217 22.3296C88.971 22.2464 88.8167 22.1676 88.6631 22.0881L89.2049 21.0043ZM90.7488 21.851L91.2102 22.0985L90.6198 23.1758C90.4709 23.0884 90.3197 23.0017 90.1704 22.9152L90.7488 21.851ZM92.2652 22.7528L92.716 23.0158L92.0874 24.0729C91.9439 23.9791 91.7963 23.8885 91.6483 23.7977L92.2652 22.7528ZM93.7484 23.7132L94.1896 23.9908L93.5257 25.025C93.3837 24.9289 93.2389 24.8312 93.0959 24.7361L93.7484 23.7132ZM95.1989 24.718L95.6303 25.0114L94.9249 26.0276C94.7873 25.9241 94.648 25.8199 94.5078 25.7191L95.1989 24.718ZM96.6113 25.7718L97.0317 26.0806L96.2959 27.0715C96.161 26.9647 96.0216 26.8609 95.8854 26.7536L96.6113 25.7718ZM97.9879 26.8754L98.3975 27.1978L97.6216 28.1682C97.489 28.0556 97.3601 27.9425 97.2261 27.8298L97.9879 26.8754ZM99.3229 28.0246L99.7213 28.3642L98.9086 29.3059C98.7806 29.1903 98.6496 29.074 98.522 28.9575L99.3229 28.0246ZM100.619 29.2211L101.008 29.5749L100.157 30.4916C100.034 30.3716 99.9097 30.2472 99.7844 30.1298L100.619 29.2211ZM101.87 30.4637L102.247 30.8286L101.363 31.7207C101.243 31.5932 101.123 31.4684 101.004 31.3447L101.87 30.4637ZM103.081 31.7475L103.443 32.1246L102.525 32.9885C102.411 32.8587 102.293 32.7307 102.177 32.6032L103.081 31.7475ZM104.267 33.0673L104.615 33.4574L103.646 34.3086C103.535 34.1735 103.425 34.0409 103.315 33.9072L104.267 33.0673ZM105.383 34.4332L105.719 34.8344L104.72 35.6518C104.614 35.5155 104.505 35.3809 104.399 35.2431L105.383 34.4332ZM106.453 35.8381L106.773 36.2509L105.736 37.0389C105.638 36.8977 105.538 36.7558 105.437 36.616L106.453 35.8381ZM107.472 37.2784L107.778 37.7006L106.713 38.4573C106.616 38.312 106.519 38.1691 106.421 38.0243L107.472 37.2784ZM108.44 38.7525L108.729 39.1879L107.633 39.9071L107.362 39.4627L108.44 38.7525ZM109.354 40.2599L109.631 40.7028L108.504 41.3874C108.419 41.2366 108.332 41.0865 108.247 40.9374L109.354 40.2599ZM110.218 41.7972L110.48 42.251L109.325 42.8984C109.246 42.7444 109.163 42.5921 109.083 42.437L110.218 41.7972ZM111.025 43.3669L111.271 43.8287L110.092 44.438C110.018 44.2818 109.943 44.125 109.867 43.9695L111.025 43.3669ZM111.756 44.9579L111.984 45.4275L110.8 45.9857C110.733 45.8267 110.659 45.6693 110.588 45.5142L111.756 44.9579ZM112.451 46.5794L112.661 47.0567L111.46 47.5748C111.394 47.4138 111.332 47.2522 111.267 47.0926L112.451 46.5794ZM113.066 48.2209L113.258 48.706L112.063 49.1706C112.004 49.009 111.941 48.8457 111.881 48.6847L113.066 48.2209ZM113.648 49.8855L113.826 50.3751L112.61 50.8011C112.558 50.6354 112.507 50.47 112.453 50.3071L113.648 49.8855ZM114.173 51.5691L114.333 52.0645L113.104 52.446C113.059 52.28 113.006 52.1168 112.958 51.9471L114.173 51.5691ZM114.638 53.2708L114.779 53.7719L113.538 54.1108C113.497 53.943 113.458 53.773 113.415 53.6058L114.638 53.2708ZM115.042 54.9859L115.168 55.4922L113.917 55.7879C113.882 55.6177 113.845 55.448 113.808 55.2787L115.042 54.9859ZM115.387 56.7154L115.495 57.2257L114.235 57.4764C114.207 57.3058 114.177 57.1343 114.146 56.9654L115.387 56.7154ZM115.645 58.4505L115.733 58.9659L114.493 59.1675C114.471 58.9955 114.445 58.8241 114.42 58.6554L115.645 58.4505ZM115.867 60.2011L115.938 60.7164L114.697 60.8747C114.68 60.7033 114.659 60.5305 114.641 60.3573L115.867 60.2011ZM116.028 61.9563L116.081 62.4746L114.836 62.59C114.825 62.4161 114.814 62.2431 114.802 62.0727L116.028 61.9563ZM116.129 63.7163L116.165 64.2374L114.921 64.3072C114.917 64.1343 114.907 63.9632 114.899 63.7888L116.129 63.7163ZM116.168 65.4755L116.186 65.997L114.939 66.025C114.941 65.8516 114.945 65.6786 114.942 65.5064L116.168 65.4755ZM116.121 67.2331L116.12 67.7557L114.902 67.7407C114.91 67.5661 114.912 67.3926 114.917 67.2205L116.121 67.2331ZM116.038 68.9962L116.016 69.5186L114.8 69.4614C114.814 69.2891 114.827 69.1136 114.839 68.9423L116.038 68.9962ZM115.892 70.7536L115.856 71.2703L114.641 71.169C114.661 70.9967 114.678 70.8222 114.695 70.6514L115.892 70.7536ZM115.686 72.5008L115.629 73.0195L114.421 72.8768C114.445 72.7058 114.47 72.5345 114.492 72.3629L115.686 72.5008ZM115.42 74.2451L115.343 74.7605L114.142 74.5738C114.173 74.4047 114.204 74.2346 114.234 74.0638L115.42 74.2451ZM115.092 75.9755L114.999 76.4876L113.806 76.2626C113.843 76.0928 113.877 75.9219 113.914 75.7541L115.092 75.9755ZM114.705 77.6954L114.593 78.2036L113.403 77.9347C113.447 77.7678 113.49 77.599 113.532 77.4321L114.705 77.6954ZM114.257 79.3996L114.127 79.9051L112.947 79.5958C112.996 79.4294 113.045 79.2617 113.092 79.0953L114.257 79.3996ZM113.749 81.0876L113.602 81.5871L112.431 81.238C112.487 81.0727 112.539 80.9075 112.592 80.7416L113.749 81.0876ZM113.183 82.7571L113.019 83.2521L111.857 82.8579C111.918 82.6957 111.98 82.5323 112.038 82.3715L113.183 82.7571ZM112.561 84.4065L112.379 84.8931L111.233 84.4607C111.297 84.2989 111.362 84.1387 111.426 83.9777L112.561 84.4065ZM111.879 86.031L111.682 86.5136L110.547 86.0384C110.62 85.8811 110.689 85.7218 110.76 85.5637L111.879 86.031ZM111.143 87.6323L110.926 88.1061L109.808 87.5921C109.886 87.4359 109.963 87.2821 110.04 87.1262L111.143 87.6323ZM110.349 89.2066L110.118 89.6727L109.02 89.1201C109.104 88.9688 109.183 88.8143 109.262 88.6603L110.349 89.2066ZM109.476 90.7398L109.228 91.1977L108.174 90.6191C108.262 90.4693 108.349 90.3205 108.436 90.1708L109.476 90.7398ZM108.576 92.2527L108.311 92.7024L107.278 92.0882C107.371 91.9421 107.463 91.795 107.555 91.6478L108.576 92.2527ZM107.625 93.7359L107.344 94.1746L106.333 93.5251L106.623 93.0936L107.625 93.7359ZM106.621 95.1799L106.326 95.6112L105.333 94.9227C105.437 94.7834 105.541 94.6453 105.642 94.5049L106.621 95.1799ZM105.567 96.5923L105.259 97.0125L104.29 96.2904C104.398 96.1542 104.503 96.0153 104.609 95.8786L105.567 96.5923ZM104.466 97.9665L104.143 98.3752L103.195 97.6163C103.308 97.4837 103.421 97.3538 103.532 97.2201L104.466 97.9665ZM103.317 99.3015L102.979 99.6971L102.057 98.9027C102.175 98.7754 102.291 98.6454 102.405 98.5169L103.317 99.3015ZM102.121 100.596L101.768 100.981L100.871 100.153C100.993 100.029 101.116 99.9051 101.234 99.7799L102.121 100.596ZM100.858 101.833L100.495 102.205L99.641 101.361C99.7662 101.242 99.8922 101.124 100.017 101.002L100.858 101.833ZM99.577 103.04L99.199 103.4L98.3734 102.523L98.7596 102.176L99.577 103.04ZM98.2534 104.2L97.8642 104.546L97.0651 103.636C97.1978 103.525 97.3329 103.415 97.4644 103.304L98.2534 104.2ZM96.8907 105.316L96.4882 105.646L95.7177 104.709C95.8563 104.604 95.991 104.495 96.1272 104.39L96.8907 105.316ZM95.4887 106.382L95.075 106.699L94.3341 105.725C94.4769 105.624 94.6188 105.525 94.7581 105.423L95.4887 106.382ZM94.0312 107.382L93.6066 107.686L92.9111 106.705C93.0566 106.61 93.1993 106.511 93.3435 106.415L94.0312 107.382ZM92.5579 108.348L92.1233 108.635L91.4621 107.628C91.6071 107.536 91.7553 107.446 91.9037 107.354L92.5579 108.348ZM91.0525 109.262L90.6096 109.534L89.9801 108.499C90.1309 108.415 90.2788 108.329 90.4301 108.24L91.0525 109.262ZM89.5176 110.124L89.0642 110.38L88.4698 109.32C88.6236 109.24 88.7762 109.159 88.9289 109.078L89.5176 110.124ZM87.9516 110.93L87.4906 111.17L86.9311 110.088C87.0866 110.012 87.2417 109.937 87.3974 109.861L87.9516 110.93ZM86.3607 111.682L85.8909 111.906L85.3678 110.802C85.5265 110.734 85.6833 110.662 85.8433 110.592L86.3607 111.682ZM84.742 112.378L84.2642 112.585L83.7809 111.462C83.9414 111.398 84.104 111.336 84.2639 111.269L84.742 112.378ZM83.0846 113L82.5995 113.191L82.1635 112.073C82.328 112.016 82.4881 111.953 82.6507 111.893L83.0846 113ZM81.4236 113.579L80.9326 113.753L80.5353 112.617C80.701 112.565 80.8664 112.514 81.0326 112.461L81.4236 113.579ZM79.7436 114.102L79.2463 114.258L78.8888 113.111C79.057 113.065 79.2221 113.015 79.3877 112.967L79.7436 114.102ZM78.0596 114.585L77.559 114.725L77.2368 113.541C77.4064 113.5 77.573 113.462 77.7422 113.418L78.0596 114.585ZM76.3457 114.99L75.8405 115.113L75.5583 113.923C75.7268 113.888 75.8976 113.851 76.0675 113.814L76.3457 114.99ZM74.6201 115.334L74.1092 115.439L73.8699 114.24C74.0406 114.212 74.21 114.184 74.3809 114.151L74.6201 115.334ZM72.8972 115.638L72.3852 115.723L72.184 114.497C72.3552 114.474 72.5267 114.451 72.6961 114.425L72.8972 115.638ZM71.1499 115.861L70.6335 115.931L70.4756 114.701C70.65 114.685 70.8206 114.665 70.9946 114.646L71.1499 115.861ZM69.382 116.003L68.8647 116.055L68.751 114.842C68.925 114.831 69.0981 114.82 69.27 114.807L69.382 116.003ZM67.6254 116.105L67.1055 116.138L67.0353 114.928C67.2083 114.923 67.3799 114.912 67.554 114.906L67.6254 116.105ZM65.8633 116.143L65.344 116.158L65.3198 114.941C65.4917 114.942 65.6664 114.946 65.8381 114.944L65.8633 116.143ZM64.1034 116.122L63.5835 116.119L63.5974 114.907C63.7702 114.915 63.9431 114.918 64.1172 114.923L64.1034 116.122ZM62.3453 116.039L61.8235 116.015L61.8816 114.805C62.0539 114.819 62.2259 114.831 62.3976 114.843L62.3453 116.039ZM60.5904 115.895L60.0714 115.852L60.1692 114.645C60.3421 114.665 60.5145 114.683 60.6865 114.701L60.5904 115.895ZM58.8435 115.685L58.3274 115.627L58.4666 114.427C58.6379 114.451 58.8099 114.474 58.9813 114.498L58.8435 115.685ZM57.1021 115.421L56.589 115.343L56.7705 114.144C56.9423 114.176 57.1124 114.207 57.283 114.237L57.1021 115.421ZM55.3735 115.093L54.8621 114.998L55.086 113.808C55.2556 113.846 55.4257 113.88 55.5944 113.916L55.3735 115.093ZM53.6542 114.704L53.1477 114.593L53.4147 113.407C53.5818 113.45 53.7505 113.493 53.9175 113.535L53.6542 114.704ZM51.9501 114.257L51.4466 114.126L51.7556 112.949C51.9222 112.999 52.0875 113.045 52.2541 113.092L51.9501 114.257ZM50.2646 113.751L49.7655 113.602L50.1158 112.436C50.2795 112.49 50.4441 112.542 50.61 112.595L50.2646 113.751ZM48.5962 113.185L48.1035 113.019L48.4971 111.859C48.659 111.919 48.8208 111.982 48.9837 112.041L48.5962 113.185ZM46.9498 112.564L46.4633 112.379L46.8945 111.237C47.0555 111.302 47.216 111.366 47.3762 111.431L46.9498 112.564ZM45.3261 111.883L44.8449 111.683L45.3182 110.554C45.4747 110.625 45.6333 110.695 45.7917 110.766L45.3261 111.883ZM43.7276 111.144L43.2538 110.928L43.7671 109.814C43.9221 109.891 44.0757 109.968 44.2312 110.042L43.7276 111.144ZM42.1552 110.352L41.69 110.12L42.2387 109.026C42.3911 109.108 42.5452 109.186 42.6984 109.267L42.1552 110.352ZM40.6108 109.506L40.1535 109.257L40.7425 108.181C40.8909 108.268 41.0393 108.357 41.191 108.442L40.6108 109.506ZM39.0953 108.608L38.648 108.345L39.2747 107.289C39.4213 107.381 39.5672 107.472 39.7151 107.562L39.0953 108.608ZM37.6157 107.656L37.1766 107.377L37.8395 106.345C37.9811 106.442 38.1266 106.537 38.2702 106.634L37.6157 107.656ZM36.1685 106.654L35.7393 106.36L36.4407 105.345C36.58 105.449 36.7172 105.552 36.8583 105.653L36.1685 106.654ZM34.7557 105.601L34.3374 105.29L35.0724 104.302C35.2063 104.409 35.3462 104.513 35.4823 104.621L34.7557 105.601ZM33.3818 104.499L32.9738 104.175L33.7479 103.209C33.8793 103.321 34.0098 103.435 34.144 103.546L33.3818 104.499ZM32.0482 103.35L31.6525 103.012L32.4599 102.072C32.5872 102.189 32.7151 102.304 32.8453 102.419L32.0482 103.35ZM30.7514 102.14L30.3684 101.789L31.2042 100.882C31.328 101.003 31.4531 101.124 31.5769 101.244L30.7514 102.14ZM29.4981 100.886L29.1272 100.521L29.9917 99.6454C30.1109 99.771 30.229 99.8967 30.3504 100.02L29.4981 100.886ZM28.2914 99.6049L27.9335 99.227L28.8318 98.38C28.9466 98.5092 29.0635 98.6367 29.1783 98.7659L28.2914 99.6049ZM27.1317 98.2826L26.7869 97.8935L27.7203 97.0722C27.8305 97.2058 27.9391 97.3407 28.0507 97.4729L27.1317 98.2826ZM26.0181 96.9208L25.6864 96.5186L26.6516 95.73C26.7551 95.8681 26.8633 96.0028 26.9703 96.1394L26.0181 96.9208ZM24.9517 95.52L24.6344 95.1072L25.6308 94.3479C25.7299 94.4885 25.8302 94.6294 25.9316 94.7705L24.9517 95.52ZM23.9344 94.0834L23.6332 93.6606L24.6578 92.9344C24.7526 93.0797 24.85 93.2222 24.9476 93.3642L23.9344 94.0834ZM22.9704 92.6127L22.6848 92.1787L23.7344 91.4891C23.8243 91.6368 23.9141 91.7849 24.0064 91.9306L22.9704 92.6127ZM22.0566 91.1084L21.7859 90.666L22.8653 90.0081C22.9502 90.1591 23.0361 90.309 23.1229 90.4578L22.0566 91.1084ZM21.1963 89.573L20.9425 89.1224L22.0461 88.5027C22.1259 88.6565 22.2068 88.8087 22.2889 88.9615L21.1963 89.573ZM20.3892 88.0087L20.1501 87.549L21.2774 86.9655C21.3529 87.1214 21.4266 87.2784 21.5035 87.4334L20.3892 88.0087ZM19.6382 86.408L19.4151 85.9384L20.5578 85.3972C20.6262 85.5565 20.6986 85.7131 20.7699 85.8687L19.6382 86.408ZM18.9422 84.7893L18.7368 84.3142L19.8998 83.8116C19.9638 83.9721 20.0261 84.1347 20.0925 84.2942L18.9422 84.7893ZM18.3037 83.1502L18.1143 82.669L19.2922 82.2086C19.3503 82.3705 19.4128 82.5313 19.4721 82.6942L18.3037 83.1502ZM17.7216 81.4898L17.5494 81.0019L18.7465 80.5801C18.7991 80.7462 18.8489 80.911 18.9034 81.0749L17.7216 81.4898ZM17.1979 79.8089L17.0428 79.3158L18.2522 78.938C18.2988 79.1046 18.3477 79.2705 18.3968 79.4356L17.1979 79.8089ZM16.7351 78.1123L16.5974 77.6131L17.8181 77.2781C17.8588 77.4464 17.8998 77.6144 17.9414 77.7821L16.7351 78.1123ZM16.3299 76.4084L16.2101 75.9053L17.4408 75.6139C17.476 75.7826 17.5124 75.9518 17.5502 76.1201L16.3299 76.4084ZM15.986 74.6827L15.8829 74.1753L17.121 73.9269C17.1495 74.0968 17.1798 74.2671 17.2121 74.4378L15.986 74.6827ZM15.7011 72.946L15.6161 72.4357L16.8578 72.2303L16.9304 72.7424L15.7011 72.946ZM15.4795 71.2008L15.4126 70.6876L16.6553 70.5276C16.6731 70.6999 16.6926 70.8715 16.7117 71.0429L15.4795 71.2008ZM15.3181 69.4489L15.2685 68.9335L16.5149 68.816C16.5261 68.9891 16.5362 69.1626 16.5483 69.3346L15.3181 69.4489ZM15.2158 67.6918L15.1867 67.1744L16.4274 67.1015C16.4336 67.2749 16.444 67.4462 16.4499 67.6206L15.2158 67.6918ZM15.178 65.9277L15.166 65.4089L16.409 65.3794C16.4077 65.5523 16.4049 65.7265 16.4065 65.8996L15.178 65.9277ZM15.2017 64.167L15.2074 63.65L16.4438 63.6633C16.4374 63.837 16.4332 64.0087 16.4291 64.1814L15.2017 64.167ZM15.2843 62.4101L15.3086 61.8934L16.5416 61.9502C16.5291 62.1234 16.5167 62.2952 16.5052 62.4669L15.2843 62.4101ZM15.4304 60.6575L15.4709 60.1401L16.6989 60.2407C16.681 60.4128 16.6628 60.5846 16.6462 60.7572L15.4304 60.6575ZM15.6366 58.9102L15.6947 58.3959L16.9152 58.5381C16.8904 58.7097 16.8671 58.8808 16.8454 59.0515L15.6366 58.9102ZM15.9027 57.1715L15.98 56.6586L17.1956 56.8432C17.1653 57.0136 17.1314 57.1835 17.1024 57.3545L15.9027 57.1715ZM16.2302 55.4433L16.3255 54.9339L17.5301 55.1599C17.4932 55.3291 17.4597 55.4992 17.423 55.6676L16.2302 55.4433ZM16.6175 53.7262L16.7297 53.2216L17.9263 53.4894C17.8846 53.6571 17.8399 53.8251 17.8 53.9931L16.6175 53.7262ZM17.0647 52.0259L17.1938 51.5237L18.3819 51.8344C18.3332 52.0003 18.2849 52.1664 18.2387 52.3333L17.0647 52.0259ZM17.5701 50.3407L17.7185 49.8433L18.8912 50.1947C18.8361 50.3586 18.7861 50.524 18.7329 50.6891L17.5701 50.3407ZM18.1352 48.6741L18.2999 48.1843L19.4637 48.5736C19.4027 48.7351 19.3403 48.8965 19.2819 49.059L18.1352 48.6741ZM18.7571 47.0284L18.9392 46.5432L20.0871 46.9759C20.0225 47.1369 19.9583 47.2966 19.8937 47.4576L18.7571 47.0284ZM49.7794 25.4823C50.2477 25.2939 50.7275 25.0997 51.2084 24.9377C51.0726 24.5541 50.9357 24.1689 50.7979 23.7823C50.4984 23.8823 50.1999 23.9832 49.9048 24.0821C49.7774 23.7412 49.6489 23.4032 49.5206 23.0609C49.9915 22.9041 50.4616 22.7473 50.9309 22.5905C51.0978 22.5357 51.2615 22.4816 51.4283 22.4235C51.4874 22.595 51.5446 22.7691 51.6019 22.9404L51.9727 24.0383C52.0948 24.4032 52.318 25.0671 52.4405 25.4336C52.4472 25.4542 52.4548 25.4737 52.4629 25.4909C51.6243 25.7668 50.7935 26.0714 49.974 26.3969L49.7794 25.4823ZM26.7987 48.9234C26.7812 48.9164 26.765 48.9099 26.7483 48.9032C26.1201 48.6429 25.1979 48.2655 24.5684 48.0046C23.9389 47.7438 23.3099 47.4831 22.6813 47.2226C22.4212 47.88 22.1622 48.5371 21.9041 49.1938L21.1262 51.1657C21.6866 51.3519 22.248 51.5415 22.8077 51.7295C23.3674 51.9174 24.0055 52.1363 24.5647 52.3245C24.7549 51.7483 24.9409 51.1463 25.1666 50.5733C24.784 50.4303 24.4002 50.2889 24.0172 50.1457L23.6712 51.0246C23.3285 50.9028 22.9858 50.7813 22.6428 50.6601L23.1887 49.2761C23.2535 49.1147 23.3161 48.9515 23.3804 48.7899C23.548 48.8538 23.7196 48.9207 23.8875 48.9876C24.2468 49.1284 24.6079 49.2685 24.9668 49.4092C25.3257 49.5499 25.9782 49.8074 26.337 49.9485C26.3465 49.9524 26.3574 49.9567 26.3673 49.9607C26.3418 50.0244 26.3164 50.0876 26.2905 50.1521C25.8448 51.2831 25.4547 52.4248 25.1127 53.568C24.879 54.3532 24.6688 55.1402 24.482 55.9288C24.4652 55.925 24.4471 55.922 24.4301 55.9186C23.7652 55.7701 22.7922 55.5588 22.127 55.4111C21.4618 55.2634 20.7969 55.1148 20.1314 54.968C19.991 55.6603 19.8501 56.3522 19.7087 57.0438C19.5674 57.7354 19.4263 58.4278 19.2856 59.1209C19.871 59.2076 20.4562 59.2971 21.0401 59.3851C21.624 59.4731 22.29 59.5767 22.8734 59.6659C22.9613 59.0656 23.0396 58.4406 23.163 57.8361C22.7607 57.7626 22.3591 57.6898 21.9563 57.6151C21.894 57.9243 21.8302 58.2324 21.7676 58.5401C21.4096 58.4814 21.051 58.4217 20.6919 58.361L20.9871 56.9034C21.0216 56.7332 21.0563 56.5612 21.092 56.3905C21.2709 56.4261 21.4495 56.4626 21.6255 56.497C22.0046 56.5744 22.3834 56.6508 22.7618 56.726C23.1392 56.8026 23.8257 56.942 24.2046 57.0182C24.2142 57.0221 24.2253 57.0222 24.2358 57.0249C23.9733 58.2791 23.7697 59.5356 23.625 60.7945C23.5317 61.6078 23.4624 62.4196 23.417 63.2299C23.3984 63.2292 23.3785 63.2294 23.3611 63.2282C22.6811 63.1968 21.6847 63.1581 21.0043 63.129C20.3239 63.0998 19.6437 63.0688 18.9633 63.0396C18.9455 63.7457 18.9271 64.4518 18.908 65.1581L18.8516 67.277C19.4429 67.2606 20.034 67.2456 20.6249 67.2319C21.2148 67.217 21.8887 67.2035 22.4778 67.1883C22.4593 66.5834 22.4283 65.9532 22.4467 65.3404C22.0375 65.3372 21.6288 65.3341 21.2206 65.3313C21.2105 65.6465 21.2032 65.9609 21.1941 66.276C20.8316 66.2803 20.4672 66.2818 20.1039 66.2857C20.1171 65.7907 20.1303 65.2954 20.1434 64.7999L20.1569 64.2765C20.3392 64.2796 20.5202 64.2846 20.7018 64.2894C21.0847 64.2982 21.4746 64.3074 21.8588 64.3191C22.2429 64.3308 22.9449 64.3459 23.3301 64.3561C23.343 64.3564 23.3555 64.3566 23.3681 64.3564C23.3296 65.6341 23.3501 66.9068 23.4296 68.1745C23.4794 68.9889 23.5525 69.8002 23.6486 70.6084C23.6253 70.6111 23.6017 70.6147 23.5782 70.6178C22.9043 70.7047 21.9165 70.8396 21.2416 70.929C20.5667 71.0185 19.8911 71.1061 19.2145 71.1949C19.3202 71.8942 19.4247 72.5929 19.5281 73.2909C19.6314 73.989 19.7358 74.6876 19.8412 75.3868C20.4199 75.2687 20.9983 75.1513 21.5765 75.0347C22.1549 74.9171 22.8174 74.7865 23.3957 74.6718C23.2735 74.0774 23.1333 73.4628 23.0418 72.8532C22.6382 72.9212 22.237 72.9896 21.833 73.0573L21.9719 73.9917C21.6146 74.0579 21.2576 74.1239 20.9008 74.1897L20.6808 72.7185C20.6562 72.5464 20.6295 72.3734 20.6049 72.2012C20.784 72.1726 20.9649 72.1467 21.1428 72.1186C21.5245 72.0617 21.9073 72.0033 22.288 71.9455L23.7439 71.7261C23.7616 71.7241 23.7771 71.7216 23.7951 71.7187C23.9718 72.924 24.1999 74.1178 24.4795 75.3C24.6791 76.1481 24.9021 76.991 25.154 77.8244C25.1271 77.8324 25.1011 77.8418 25.0746 77.85C24.4254 78.0536 23.4764 78.3566 22.8263 78.5623C22.1762 78.7679 21.5276 78.9713 20.8774 79.1759C21.1022 79.8458 21.3262 80.5152 21.5493 81.1844C21.7724 81.8536 21.9966 82.5232 22.222 83.1932C22.7733 82.9772 23.3233 82.7613 23.872 82.5456C24.4216 82.3315 25.0511 82.0866 25.6007 81.8715C25.3776 81.3082 25.132 80.7276 24.937 80.1436C24.5523 80.279 24.1676 80.4178 23.7808 80.5548C23.881 80.8529 23.9802 81.1521 24.0801 81.4506C23.7394 81.5775 23.3988 81.7041 23.0575 81.8323C22.8997 81.3622 22.7427 80.8921 22.5866 80.4218C22.5314 80.256 22.4758 80.0905 22.4197 79.9254C22.5932 79.8662 22.7654 79.8082 22.9364 79.7512C23.3015 79.6285 23.6675 79.505 24.0343 79.3804C24.3992 79.2583 25.0642 79.0359 25.4293 78.9134C25.4508 78.9066 25.4713 78.8989 25.4921 78.8904C25.8735 80.0461 26.3026 81.1833 26.7795 82.3017C27.1217 83.1024 27.4885 83.8923 27.8797 84.6714C27.8532 84.6844 27.8284 84.6991 27.802 84.7132C27.1971 85.0253 26.3154 85.4892 25.7111 85.8059C25.1067 86.1227 24.5024 86.4346 23.8969 86.7495C24.2343 87.3698 24.5714 87.9905 24.9081 88.6116C25.2449 89.2326 25.5821 89.8535 25.9196 90.4743C26.423 90.1648 26.9287 89.8568 27.4322 89.5493C27.9357 89.2418 28.5132 88.8921 29.0166 88.586C28.698 88.0717 28.3569 87.5402 28.0626 86.999C27.707 87.2002 27.353 87.4034 26.9983 87.605C27.149 87.8818 27.2981 88.16 27.4485 88.4353L26.51 88.9889L25.8019 87.6807C25.7184 87.5279 25.6358 87.3725 25.5518 87.2209C25.7121 87.1332 25.8719 87.0466 26.0307 86.9591C26.3708 86.7737 26.7096 86.5889 27.0472 86.405C27.3856 86.2201 28.0018 85.8859 28.3402 85.701L28.4015 85.6686C29.0013 86.7903 29.6511 87.8846 30.3508 88.9515C30.7963 89.6322 31.2648 90.2979 31.7506 90.9527C31.7298 90.9685 31.7106 90.9849 31.6902 91.0009C31.1498 91.4148 30.3617 92.0244 29.8215 92.4388L28.1989 93.6824L29.5179 95.341C29.9576 95.8933 30.3972 96.4463 30.8366 97.0001C31.2807 96.6077 31.7239 96.2166 32.1663 95.8268C32.6094 95.4352 33.1169 94.9927 33.5593 94.6017C33.1565 94.1503 32.7272 93.6881 32.3449 93.2048C32.0296 93.4647 31.7159 93.7252 31.3997 93.9846C31.5968 94.2309 31.7928 94.4775 31.9876 94.7244L31.159 95.4327L30.234 94.2693C30.125 94.1328 30.0168 93.9957 29.9088 93.8591C30.0511 93.7453 30.1921 93.6347 30.3349 93.5196C30.6372 93.2792 30.9389 93.0375 31.2404 92.7978C31.542 92.558 32.0921 92.12 32.3909 91.8796C32.4054 91.8665 32.4186 91.8564 32.4329 91.8448C33.2168 92.8449 34.0463 93.8103 34.9215 94.7408C35.4793 95.3327 36.0547 95.9095 36.6478 96.4712C36.6342 96.486 36.6203 96.5012 36.6075 96.5163C36.1464 97.0166 35.4774 97.7532 35.0163 98.257C34.5552 98.7607 34.0954 99.26 33.6351 99.7631C34.1645 100.231 34.6934 100.699 35.222 101.167C35.7505 101.635 36.2765 102.105 36.8 102.576L37.9052 101.19C38.2733 100.727 38.6958 100.203 39.066 99.7413C38.5889 99.3658 38.0875 98.9844 37.626 98.577C37.3615 98.8881 37.0974 99.1995 36.831 99.5108C37.0677 99.7188 37.3032 99.9288 37.5381 100.137C37.3085 100.417 37.0755 100.698 36.8464 100.979C36.4749 100.651 36.1033 100.322 35.7314 99.9939C35.6019 99.8787 35.4707 99.7627 35.3406 99.6439C35.4597 99.5072 35.5801 99.371 35.6982 99.2344C35.9541 98.9449 36.2094 98.655 36.4641 98.3647L37.4392 97.2588C37.4477 97.2502 37.4557 97.2411 37.4632 97.2317C38.4064 98.0771 39.3911 98.882 40.4175 99.6462C40.4182 99.6461 40.4189 99.6462 40.4196 99.6464C40.4202 99.6467 40.4208 99.6471 40.4212 99.6477C41.0739 100.132 41.7407 100.602 42.4254 101.052L42.3963 101.096C42.0307 101.67 41.498 102.514 41.1322 103.087L40.0345 104.81C40.6364 105.18 41.2378 105.55 41.8386 105.92C42.4394 106.29 43.042 106.659 43.6465 107.028C43.9278 106.508 44.212 105.989 44.4928 105.47C44.7736 104.951 45.1013 104.362 45.3844 103.843C44.8507 103.556 44.29 103.268 43.7641 102.946C43.5581 103.299 43.3508 103.651 43.1422 104.003C43.4113 104.167 43.6788 104.332 43.9487 104.497C43.7702 104.812 43.5901 105.129 43.4122 105.446C42.9896 105.188 42.5669 104.929 42.1441 104.669C41.9963 104.578 41.8471 104.486 41.6983 104.394C41.7921 104.238 41.8876 104.083 41.9819 103.928C42.1821 103.599 42.3834 103.268 42.5843 102.94C42.7852 102.611 43.1524 102.012 43.3518 101.683C43.3579 101.674 43.3625 101.664 43.3689 101.655C44.4413 102.321 45.5531 102.939 46.6996 103.515L46.7037 103.516C47.4275 103.879 48.1662 104.224 48.9199 104.551C48.9134 104.567 48.9062 104.585 48.8994 104.602C48.6379 105.231 48.2606 106.152 47.9995 106.781C47.7384 107.41 47.4784 108.04 47.2176 108.669C47.8748 108.928 48.5318 109.188 49.1884 109.447C49.8451 109.707 50.5026 109.966 51.1608 110.224C51.3482 109.663 51.5358 109.102 51.7239 108.543C51.9123 107.982 52.1307 107.345 52.3193 106.786C51.7432 106.595 51.1415 106.409 50.5682 106.183C50.4251 106.566 50.2839 106.949 50.1397 107.333C50.4329 107.45 50.7255 107.564 51.019 107.68C50.898 108.022 50.776 108.365 50.6547 108.708C50.1942 108.526 49.7332 108.344 49.2719 108.162C49.1097 108.097 48.9475 108.032 48.7849 107.97C48.8499 107.8 48.9169 107.631 48.9831 107.462L49.405 106.384C49.5459 106.025 49.8029 105.373 49.9433 105.013L49.956 104.982C50.02 105.007 50.0849 105.033 50.149 105.059C51.2804 105.505 52.4193 105.895 53.5632 106.236C54.3474 106.47 55.1366 106.681 55.9246 106.868L55.9134 106.921C55.7649 107.586 55.5549 108.56 55.4066 109.225C55.2582 109.889 55.1099 110.555 54.9627 111.22C55.6567 111.361 56.3467 111.502 57.0385 111.643C57.7303 111.783 58.4252 111.926 59.1156 112.066C59.2028 111.48 59.2921 110.897 59.3799 110.313C59.4678 109.73 59.5708 109.063 59.6607 108.479C59.0607 108.391 58.4341 108.312 57.832 108.191C57.7583 108.592 57.6846 108.995 57.6109 109.397C57.9182 109.459 58.2266 109.522 58.536 109.584L58.356 110.66C57.8705 110.562 57.3837 110.463 56.8985 110.365C56.7279 110.33 56.5568 110.294 56.3865 110.26C56.4221 110.081 56.4576 109.902 56.4945 109.724L56.7215 108.588C56.7992 108.21 56.938 107.524 57.0146 107.145C57.016 107.134 57.0182 107.123 57.0211 107.112C58.2746 107.375 59.5309 107.578 60.79 107.722C61.6041 107.817 62.4161 107.887 63.2261 107.932C63.2267 107.951 63.2258 107.97 63.2262 107.989C63.1951 108.669 63.1555 109.665 63.1259 110.345C63.0963 111.026 63.0653 111.706 63.0357 112.386C63.7423 112.404 64.4482 112.423 65.1532 112.442C65.8583 112.462 66.5647 112.481 67.2724 112.498C67.2567 111.907 67.2419 111.316 67.2277 110.725C67.2131 110.134 67.1986 109.461 67.1849 108.873C66.5793 108.889 65.9493 108.921 65.336 108.906L65.3269 110.132C65.6414 110.141 65.9561 110.149 66.271 110.158C66.2752 110.521 66.2772 110.885 66.2808 111.248C65.7865 111.234 65.2911 111.221 64.7947 111.209C64.6221 111.205 64.4454 111.198 64.2703 111.192C64.2741 111.01 64.2797 110.829 64.2837 110.647L64.313 109.491C64.3229 109.105 64.341 108.404 64.3495 108.019L64.3497 107.981C65.6277 108.019 66.8988 107.999 68.1628 107.92C68.1645 107.92 68.1661 107.92 68.1678 107.92C68.9841 107.87 69.7959 107.798 70.603 107.702C70.6052 107.724 70.6091 107.747 70.6131 107.771C70.7002 108.447 70.8338 109.434 70.923 110.109C71.0123 110.785 71.0999 111.459 71.1902 112.135C71.8893 112.03 72.5876 111.925 73.2851 111.822C73.9826 111.719 74.6814 111.615 75.3814 111.509C75.2641 110.929 75.1465 110.351 75.0284 109.774C74.9117 109.196 74.7812 108.533 74.6649 107.954C74.0712 108.077 73.4568 108.218 72.8482 108.308C72.9164 108.712 72.9854 109.114 73.0518 109.518C73.3632 109.471 73.6747 109.425 73.9864 109.378C74.0521 109.735 74.1189 110.093 74.1846 110.449C73.6948 110.522 73.2032 110.596 72.7145 110.67C72.5412 110.695 72.3685 110.721 72.1963 110.747C72.167 110.566 72.1401 110.386 72.1138 110.208C72.0563 109.826 71.9973 109.444 71.9398 109.062C71.8823 108.681 71.7779 107.987 71.7199 107.606C71.7183 107.59 71.7155 107.573 71.7137 107.556C72.9231 107.378 74.1207 107.149 75.3063 106.867C76.1512 106.668 76.9888 106.445 77.8194 106.197C77.8289 106.222 77.8375 106.249 77.8472 106.276C78.0503 106.925 78.3532 107.874 78.5568 108.523L79.1713 110.473C79.8411 110.248 80.5103 110.025 81.1821 109.802C81.8539 109.58 82.5215 109.353 83.191 109.129C82.9728 108.578 82.7566 108.028 82.5426 107.479C82.3285 106.929 82.0843 106.3 81.8677 105.75C81.3058 105.974 80.7234 106.219 80.1403 106.414C80.2785 106.799 80.4136 107.183 80.5516 107.57C80.8515 107.47 81.1486 107.369 81.4484 107.271C81.5745 107.611 81.7011 107.952 81.8298 108.29C81.3603 108.448 80.8891 108.605 80.4198 108.762C80.2531 108.817 80.0868 108.87 79.9235 108.929C79.8647 108.757 79.8058 108.584 79.7495 108.413C79.6265 108.047 79.5019 107.68 79.3789 107.315C79.256 106.95 79.034 106.285 78.9111 105.92C78.9027 105.898 78.8961 105.879 78.8879 105.857C80.0432 105.476 81.1794 105.047 82.2967 104.569C83.0988 104.227 83.8886 103.861 84.6661 103.47C84.6795 103.494 84.6943 103.519 84.7054 103.544C85.019 104.147 85.4827 105.029 85.7981 105.635C86.1135 106.24 86.4269 106.842 86.7416 107.448C87.3606 107.109 87.981 106.772 88.6029 106.437L90.4662 105.426C90.1571 104.921 89.8485 104.416 89.5406 103.912C89.2328 103.408 88.8838 102.831 88.5765 102.327C88.0624 102.646 87.5313 102.988 86.9907 103.282C87.192 103.637 87.3942 103.993 87.5971 104.349C87.8717 104.198 88.1486 104.048 88.4263 103.898C88.61 104.21 88.7948 104.523 88.9807 104.837C88.5449 105.074 88.1095 105.31 87.6743 105.546C87.5206 105.63 87.3661 105.712 87.2137 105.796C87.1259 105.637 87.0387 105.477 86.9521 105.317L86.3977 104.301C86.2128 103.961 85.8774 103.346 85.6942 103.008C85.6836 102.99 85.6727 102.971 85.6639 102.952C86.785 102.352 87.879 101.702 88.946 101.004C89.627 100.558 90.2946 100.091 90.9488 99.6045C90.9645 99.6233 90.9795 99.6424 90.9948 99.662C91.406 100.202 92.0179 100.99 92.4309 101.53C92.844 102.071 93.2609 102.611 93.6752 103.152C94.2289 102.711 94.7809 102.274 95.3344 101.835C95.8878 101.396 96.4395 100.954 96.9925 100.515L95.8184 99.1845C95.4272 98.7416 94.9856 98.2354 94.5946 97.792C94.1431 98.1948 93.681 98.6242 93.1973 99.0062C93.4571 99.3216 93.7176 99.6353 93.9792 99.9523C94.2253 99.7562 94.4722 99.5603 94.7197 99.3647C94.955 99.6401 95.1909 99.9161 95.4274 100.193C95.0404 100.501 94.6514 100.81 94.263 101.118C94.1273 101.227 93.9894 101.336 93.8545 101.444C93.7406 101.301 93.6263 101.159 93.5137 101.017C93.2732 100.715 93.0315 100.413 92.7918 100.111C92.5522 99.8095 92.1153 99.2603 91.8737 98.9609C91.864 98.9478 91.8525 98.9355 91.8409 98.9222C92.8419 98.1386 93.8071 97.309 94.7366 96.4334C95.3288 95.8757 95.9061 95.3005 96.4686 94.7077L96.5099 94.7446C97.0106 95.2059 97.7464 95.8756 98.2513 96.3361C98.7562 96.7967 99.2555 97.2565 99.7566 97.717C100.226 97.1881 100.695 96.6593 101.162 96.1306C101.629 95.6019 102.097 95.0727 102.565 94.5432C102.102 94.1745 101.64 93.8062 101.18 93.4383C100.718 93.0701 100.193 92.6477 99.7323 92.2778C99.3547 92.7542 98.9761 93.2557 98.5672 93.7175C98.8787 93.9822 99.1905 94.2464 99.5035 94.5135C99.7105 94.2769 99.9199 94.0417 100.13 93.8056C100.409 94.0365 100.691 94.268 100.972 94.4991C100.644 94.8698 100.314 95.2407 99.987 95.6123C99.8693 95.7418 99.7542 95.8733 99.6369 96.0031C99.5005 95.8839 99.3636 95.7646 99.2261 95.645C98.9389 95.3896 98.6465 95.1336 98.3575 94.879C98.0684 94.6244 97.5439 94.1598 97.2549 93.9052C97.2464 93.8974 97.2374 93.8909 97.2289 93.8832C98.0744 92.9409 98.8787 91.9574 99.642 90.9326L99.6431 90.9297C99.6431 90.9289 99.6432 90.9282 99.6435 90.9275C99.6438 90.9267 99.6442 90.9261 99.6448 90.9255C100.13 90.274 100.6 89.6073 101.049 88.9221C101.064 88.9325 101.078 88.9404 101.092 88.9495C101.666 89.316 102.51 89.848 103.084 90.2144C103.657 90.5808 104.231 90.9458 104.806 91.3127C105.174 90.7095 105.544 90.1074 105.914 89.5064C106.285 88.9054 106.653 88.303 107.021 87.6992C106.501 87.4173 105.982 87.1348 105.463 86.8519C104.945 86.569 104.355 86.2433 103.836 85.9613C103.549 86.494 103.262 87.057 102.939 87.5815C103.291 87.7888 103.643 87.9948 103.994 88.2016C104.159 87.9343 104.325 87.6657 104.488 87.3967C104.803 87.5748 105.121 87.7549 105.438 87.9332C105.179 88.3559 104.919 88.7776 104.662 89.2009C104.57 89.3489 104.477 89.4977 104.387 89.6463C104.231 89.5525 104.076 89.4583 103.921 89.3628C103.592 89.1616 103.261 88.9604 102.933 88.7593C102.604 88.5583 102.006 88.1944 101.676 87.9927C101.668 87.987 101.659 87.982 101.651 87.9777C102.317 86.9048 102.934 85.792 103.509 84.6466L103.511 84.6416C103.874 83.9179 104.219 83.1793 104.545 82.4258C104.561 82.432 104.578 82.4389 104.594 82.4452C105.222 82.7066 106.145 83.0851 106.773 83.3452C107.402 83.6053 108.032 83.8672 108.66 84.1277C108.92 83.4699 109.179 82.8131 109.44 82.1573C109.698 81.4991 109.956 80.8431 110.215 80.1836C109.654 79.9974 109.093 79.8086 108.535 79.6207C107.977 79.4328 107.336 79.2152 106.778 79.0258C106.587 79.6023 106.402 80.2044 106.173 80.7752C106.556 80.9189 106.939 81.0598 107.324 81.2042C107.438 80.9118 107.552 80.6195 107.67 80.3249C108.012 80.446 108.355 80.5686 108.697 80.6887C108.516 81.1513 108.335 81.6125 108.153 82.0726C108.088 82.234 108.023 82.3966 107.961 82.5596C107.789 82.4942 107.621 82.427 107.451 82.3609C107.095 82.2178 106.732 82.0795 106.374 81.9391C106.016 81.7988 105.362 81.5413 105.004 81.4008C104.993 81.3965 104.984 81.393 104.973 81.3885C104.999 81.3231 105.028 81.2598 105.051 81.1934C105.497 80.0623 105.889 78.9246 106.228 77.7804C106.463 76.9968 106.674 76.2096 106.86 75.4186C106.878 75.4225 106.895 75.4258 106.912 75.4292C107.576 75.5778 108.55 75.7894 109.215 75.9364C109.879 76.0833 110.545 76.233 111.21 76.3803C111.351 75.6883 111.493 74.9965 111.635 74.3049C111.777 73.6132 111.918 72.9208 112.058 72.2276C111.471 72.1401 110.886 72.0525 110.304 71.9647C109.72 71.8752 109.053 71.7717 108.47 71.6826C108.382 72.282 108.303 72.9087 108.18 73.5122C108.584 73.5876 108.984 73.6587 109.387 73.7334C109.448 73.4255 109.512 73.1177 109.576 72.8076C109.934 72.8671 110.293 72.9277 110.65 72.9871L110.355 74.4446C110.321 74.6149 110.285 74.7865 110.25 74.9563C110.073 74.923 109.895 74.8863 109.716 74.8509C109.339 74.7753 108.957 74.6977 108.581 74.6223C108.206 74.5469 107.517 74.4056 107.139 74.3299C107.129 74.3285 107.118 74.3265 107.108 74.3239C107.371 73.0708 107.574 71.8145 107.718 70.5548C107.811 69.7402 107.88 68.9281 107.926 68.1185C107.944 68.1188 107.962 68.1181 107.982 68.1191C108.66 68.1499 109.657 68.1877 110.337 68.2187C111.017 68.2497 111.697 68.2814 112.378 68.3081C112.398 67.6024 112.418 66.8966 112.435 66.1905L112.491 64.0713C111.901 64.0878 111.31 64.1028 110.718 64.1164C110.128 64.1313 109.454 64.1454 108.865 64.1592C108.882 64.7644 108.913 65.3939 108.895 66.01C109.304 66.0129 109.713 66.0161 110.122 66.0194C110.13 65.7034 110.14 65.3899 110.148 65.0752C110.512 65.0701 110.875 65.0678 111.237 65.0648L111.212 66.5587C111.206 66.734 111.202 66.9081 111.197 67.0839C111.014 67.0796 110.834 67.0766 110.653 67.0712C110.266 67.0611 109.881 67.0512 109.496 67.0418C109.112 67.0323 108.409 67.013 108.023 67.0066C108.012 67.0051 108 67.0047 107.988 67.0054C108.025 65.7698 108.007 64.5393 107.936 63.3139C107.933 63.3127 107.935 63.3086 107.933 63.3045C107.934 63.2939 107.934 63.2833 107.933 63.2728C107.931 63.2638 107.931 63.2547 107.931 63.2456C107.93 63.2402 107.931 63.2361 107.93 63.2308C107.929 63.2169 107.928 63.2032 107.928 63.1903C107.879 62.3741 107.806 61.5605 107.709 60.7496C107.731 60.7481 107.753 60.745 107.775 60.7404C108.451 60.653 109.438 60.5197 110.113 60.4318C110.788 60.344 111.464 60.2539 112.139 60.166C112.034 59.4659 111.93 58.7668 111.828 58.0688L111.514 55.9738C110.934 56.0898 110.356 56.2075 109.779 56.3268C109.2 56.4435 108.538 56.5723 107.959 56.6885C108.082 57.2823 108.223 57.8965 108.313 58.5054C108.716 58.4385 109.119 58.3706 109.522 58.3017C109.475 57.993 109.428 57.6814 109.382 57.367C109.74 57.3013 110.099 57.2348 110.455 57.1671C110.527 57.6571 110.601 58.1477 110.675 58.6388C110.699 58.8118 110.726 58.9834 110.751 59.1569C110.572 59.1855 110.391 59.2114 110.212 59.238C109.831 59.2955 109.449 59.3542 109.067 59.4115C108.685 59.4688 107.992 59.5741 107.613 59.6326C107.596 59.6339 107.581 59.6376 107.562 59.6387C107.384 58.4324 107.156 57.2377 106.875 56.0546C106.675 55.2062 106.45 54.3647 106.201 53.5301C106.227 53.5227 106.252 53.5131 106.278 53.5052C106.928 53.3008 107.877 52.9973 108.525 52.7936C109.173 52.59 109.824 52.384 110.475 52.1809C110.251 51.5092 110.027 50.8399 109.804 50.1728C109.58 49.5057 109.356 48.8349 109.13 48.1604C108.579 48.3787 108.029 48.595 107.48 48.8095C106.93 49.0234 106.301 49.267 105.752 49.4845C105.975 50.0474 106.221 50.628 106.416 51.2116C106.801 51.0737 107.185 50.938 107.571 50.8001C107.47 50.5021 107.371 50.2033 107.273 49.9038C107.614 49.7772 107.954 49.6511 108.295 49.5229C108.454 49.9932 108.609 50.463 108.767 50.9329C108.821 51.0993 108.875 51.266 108.933 51.4294C108.761 51.4884 108.588 51.5473 108.416 51.603C108.051 51.7263 107.684 51.8522 107.318 51.9732C106.952 52.0942 106.29 52.3192 105.923 52.4414C105.903 52.4491 105.883 52.4558 105.862 52.4615C105.481 51.307 105.052 50.1697 104.575 49.0498C104.233 48.2481 103.866 47.4583 103.474 46.6805C103.499 46.6672 103.524 46.6519 103.546 46.6402C104.154 46.3296 105.032 45.8644 105.637 45.5512C106.242 45.2381 106.845 44.921 107.45 44.6076C107.113 43.985 106.775 43.3665 106.439 42.7444L105.429 40.8815C104.924 41.1904 104.42 41.499 103.915 41.8071C103.412 42.115 102.835 42.4627 102.33 42.7695C102.65 43.2843 102.991 43.8162 103.286 44.3575L104.351 43.7516C104.201 43.4762 104.052 43.197 103.901 42.9202C104.214 42.7364 104.527 42.5527 104.84 42.3673C105.075 42.8026 105.312 43.2394 105.55 43.6736C105.632 43.8274 105.716 43.9809 105.8 44.1341C105.639 44.2228 105.479 44.3097 105.322 44.3949L104.301 44.9504C103.964 45.1343 103.346 45.4689 103.008 45.6558C102.991 45.665 102.974 45.6749 102.956 45.6832C102.354 44.563 101.706 43.4658 101.007 42.4003C100.559 41.7194 100.092 41.0517 99.6061 40.3974C99.6249 40.3831 99.644 40.3681 99.6615 40.3534C100.203 39.9388 100.99 39.3303 101.53 38.9157C102.069 38.501 102.611 38.0863 103.153 37.6719C102.712 37.1182 102.274 36.5662 101.835 36.0126C101.395 35.4589 100.954 34.9077 100.515 34.3546C100.071 34.7473 99.6284 35.1372 99.1849 35.5287C98.7413 35.9201 98.2348 36.3626 97.792 36.7524C98.1964 37.2045 98.6245 37.6661 99.0074 38.1502C99.3223 37.8902 99.636 37.6297 99.9522 37.3702C99.7556 37.1235 99.5596 36.8771 99.3641 36.6309C99.6401 36.3949 99.9161 36.158 100.192 35.9204C100.5 36.3105 100.809 36.6994 101.118 37.0864C101.226 37.2217 101.335 37.3596 101.444 37.4951C101.302 37.6089 101.159 37.7232 101.017 37.8371C100.714 38.0741 100.412 38.3188 100.111 38.5595C99.811 38.8002 99.2617 39.2327 98.9608 39.4757C98.9472 39.4856 98.9363 39.4958 98.9212 39.5081C98.1383 38.508 97.3092 37.5425 96.4338 36.6115C95.8767 36.0195 95.3018 35.4423 94.709 34.8798C94.7195 34.8657 94.7332 34.8533 94.7456 34.838C95.2058 34.3388 95.8757 33.6011 96.3356 33.0979C96.7955 32.5947 97.2568 32.094 97.7165 31.5926C97.1876 31.1227 96.6594 30.6541 96.1319 30.1867C95.6043 29.7193 95.075 29.2513 94.544 28.7829C94.175 29.2466 93.8063 29.7088 93.4378 30.1695C93.0696 30.6322 92.6472 31.1562 92.2773 31.6168C92.7537 31.9945 93.2558 32.3752 93.7179 32.7809C93.9808 32.4701 94.2471 32.1592 94.5111 31.8493C94.2748 31.639 94.0407 31.4315 93.8043 31.2217C94.0358 30.9408 94.2657 30.6616 94.4974 30.3793C94.8685 30.7092 95.2399 31.0383 95.6115 31.3665C95.7401 31.4804 95.8723 31.5977 96.0038 31.7128C95.8842 31.8507 95.7653 31.987 95.6457 32.1236C95.3884 32.412 95.1336 32.7029 94.8793 32.9921C94.6251 33.2812 94.1605 33.8072 93.9042 34.098C93.8979 34.1051 93.8917 34.1123 93.8846 34.1215C92.9425 33.2758 91.9581 32.4716 90.9314 31.7089C90.9314 31.7089 90.9273 31.7072 90.926 31.7067C90.2737 31.2213 89.6098 30.7525 88.9252 30.3018L88.9502 30.2636C89.3184 29.6868 89.848 28.8474 90.2151 28.2722C90.5821 27.697 90.9474 27.1239 91.3126 26.5498C90.7109 26.1796 90.1096 25.8094 89.5085 25.4393C88.9074 25.0693 88.3047 24.7003 87.7005 24.3326L86.8529 25.8906C86.5697 26.4086 86.2436 26.9984 85.963 27.5171C86.4957 27.8048 87.0564 28.0926 87.5832 28.4142C87.7887 28.0626 87.9951 27.7108 88.2025 27.3586C87.9338 27.1953 87.6668 27.0302 87.3973 26.864C87.5767 26.5496 87.7551 26.2314 87.9332 25.9151C88.3558 26.1732 88.778 26.4325 89.1999 26.693C89.3499 26.7827 89.4985 26.8757 89.647 26.9691C89.5542 27.1221 89.4581 27.2796 89.3643 27.4328C89.1632 27.7616 88.9627 28.0927 88.7595 28.4222C88.5563 28.7516 88.1946 29.3483 87.9931 29.6771C87.9892 29.6856 87.9848 29.6938 87.9798 29.7017C86.9052 29.0353 85.7932 28.4151 84.6438 27.8411C83.9196 27.4792 83.1805 27.1354 82.4264 26.8096C82.4333 26.7925 82.4389 26.7784 82.4458 26.7613C82.7065 26.1323 83.0838 25.2114 83.3445 24.5824C83.6051 23.9534 83.8664 23.324 84.1269 22.6954C83.4693 22.4349 82.8137 22.1766 82.1567 21.9158C81.4997 21.655 80.8415 21.3995 80.1843 21.1391C79.997 21.7005 79.8092 22.2611 79.6209 22.8208C79.433 23.3805 79.2145 24.0188 79.0252 24.5794C79.6012 24.769 80.2038 24.9534 80.7762 25.1798L81.2038 24.0323C80.9127 23.9155 80.6203 23.8015 80.3262 23.6835C80.4452 23.3448 80.568 22.9991 80.69 22.6568C81.1511 22.838 81.6122 23.0197 82.0733 23.2018C82.2347 23.2666 82.3982 23.3322 82.5608 23.3941C82.4951 23.5638 82.4293 23.7326 82.3627 23.9019C82.2216 24.2597 82.0813 24.6212 81.9408 24.9797C81.8003 25.3382 81.5431 25.9909 81.4025 26.3508L81.3912 26.3791C81.3271 26.3534 81.2622 26.3273 81.1994 26.3021C80.0676 25.8561 78.9269 25.4658 77.7835 25.1243C76.9978 24.8894 76.2104 24.6787 75.4213 24.4921C75.4277 24.4763 75.4285 24.4587 75.4319 24.4417C75.5812 23.7772 75.791 22.8046 75.9397 22.1393C76.0884 21.474 76.2326 20.8078 76.3832 20.1438C75.6897 20.0016 74.9993 19.8612 74.3068 19.72C73.6144 19.5787 72.9223 19.4391 72.2302 19.298C72.1423 19.8822 72.0542 20.4664 71.9659 21.0505C71.8763 21.6347 71.7733 22.3005 71.6855 22.884C72.2848 22.9733 72.9108 23.0502 73.5139 23.1735L73.7359 21.9667C73.4274 21.9052 73.1196 21.8405 72.81 21.7791C72.8688 21.4207 72.9308 21.0606 72.9897 20.7031C73.4749 20.8013 73.9606 20.8996 74.4468 20.9982C74.6173 21.0318 74.7897 21.0682 74.9595 21.1035L74.8537 21.6367C74.7768 22.0135 74.7001 22.3962 74.6241 22.7719C74.5482 23.1476 74.4091 23.8371 74.3341 24.2165C74.3308 24.2249 74.3316 24.2349 74.3292 24.2455C73.0739 23.9832 71.8164 23.7803 70.559 23.634C69.7463 23.541 68.9341 23.4716 68.1226 23.4261L68.1228 23.3716C68.1542 22.6915 68.193 21.6972 68.2241 21.0156L68.3135 18.9745C67.6077 18.9543 66.9019 18.9352 66.1959 18.9172C65.4891 18.9006 64.783 18.8814 64.0775 18.8605L64.1218 20.6345C64.1361 21.2247 64.149 21.9012 64.1633 22.489C64.7699 22.4711 65.3981 22.4403 66.0147 22.4554L66.0234 21.2301C65.7082 21.2224 65.3947 21.213 65.0788 21.2046C65.0757 20.8416 65.0726 20.4776 65.0686 20.1132C65.5636 20.1279 66.0599 20.1392 66.5549 20.1539L67.0787 20.1665L67.0663 20.7112C67.0559 21.0983 67.0458 21.4845 67.0365 21.8686C67.0272 22.2527 67.0087 22.9548 67 23.3411C67.0001 23.3528 66.9999 23.3642 66.9992 23.3756C65.7643 23.3404 64.5336 23.3579 63.3072 23.4282C63.3046 23.4287 63.302 23.4287 63.2994 23.4285C63.2886 23.4297 63.2777 23.4303 63.2668 23.4303L63.2264 23.4335C63.2116 23.4343 63.1988 23.4359 63.1844 23.4369C63.1844 23.4369 63.1815 23.4357 63.1807 23.4354C62.3658 23.4851 61.5541 23.5579 60.7456 23.654C60.7416 23.6326 60.7401 23.6087 60.7359 23.5878C60.6492 22.911 60.514 21.9241 60.4261 21.2489L60.1597 19.222C59.4604 19.3277 58.7617 19.4318 58.0637 19.5342C57.3658 19.6366 56.6672 19.7411 55.9681 19.8479C56.0856 20.428 56.2029 21.0075 56.3199 21.5864C56.4366 22.1645 56.5678 22.8257 56.6838 23.4055C57.2774 23.2815 57.8913 23.143 58.5002 23.0522C58.4318 22.6496 58.364 22.2461 58.2967 21.8418C57.9851 21.8877 57.6741 21.9358 57.3619 21.9819C57.2959 21.6241 57.2297 21.2657 57.1616 20.9094C57.6524 20.8362 58.1429 20.7633 58.6332 20.6906C58.806 20.6633 58.9787 20.6385 59.1509 20.6124C59.1788 20.7933 59.2062 20.973 59.2331 21.1516C59.2904 21.5335 59.3495 21.9156 59.4068 22.2975C59.4642 22.6793 59.5677 23.372 59.6257 23.7522C59.629 23.768 59.6309 23.7837 59.6336 23.7998C58.4274 23.9771 57.2329 24.206 56.0499 24.4866C55.2017 24.6858 54.3604 24.9102 53.526 25.1598L53.5014 25.0828C53.2973 24.4348 52.9935 23.4854 52.7886 22.8357C52.5838 22.186 52.3798 21.5366 52.175 20.8868C51.5058 21.1099 50.8364 21.3336 50.1668 21.5579L48.7314 22.038L48.2043 21.0648C48.7365 20.8867 49.2714 20.7082 49.8032 20.5299C50.6577 20.2463 51.5117 19.9612 52.3654 19.6746C52.5375 19.6176 52.7082 19.5606 52.8823 19.5024C52.9328 19.6773 52.9834 19.8521 53.0349 20.0259C53.2295 20.6783 53.4217 21.3341 53.6146 21.9872C53.8074 22.6404 54.0005 23.2941 54.1948 23.9473C54.6769 23.7858 55.185 23.6608 55.6726 23.5469C55.5437 22.933 55.4066 22.2626 55.2919 21.7408L54.7934 19.475L54.6751 18.9406C54.8541 18.9158 55.0351 18.8861 55.2149 18.8593C56.1042 18.7279 56.9961 18.5937 57.8858 18.4624L60.5578 18.0627C60.7374 18.0356 60.917 18.009 61.0965 17.9829C61.1157 18.1649 61.1368 18.3458 61.1572 18.525C61.2339 19.2027 61.3104 19.88 61.3868 20.5569C61.4651 21.2331 61.5406 21.9116 61.6176 22.5873C62.1204 22.5128 62.643 22.4777 63.1427 22.4493C63.122 21.8223 63.1039 21.1393 63.0824 20.6057L62.9835 18.2877C62.9764 18.1055 62.969 17.9233 62.9613 17.7412C63.1417 17.7479 63.3238 17.7514 63.5058 17.7554C64.4055 17.7793 65.3052 17.8032 66.205 17.8269C67.1049 17.8506 68.0056 17.874 68.9072 17.8972C69.0884 17.9023 69.2697 17.9076 69.451 17.913C69.4389 18.0936 69.4285 18.2759 69.4165 18.4551C69.3759 19.1363 69.332 19.8161 69.2906 20.4969C69.2492 21.1777 69.2057 21.8577 69.1643 22.5372C69.6724 22.5517 70.1942 22.6066 70.6899 22.6665C70.7795 22.046 70.8805 21.3674 70.9509 20.8392C71.0535 20.0709 71.1546 19.3053 71.258 18.5373C71.2817 18.358 71.3054 18.1787 71.3299 17.9972C71.5088 18.0328 71.6877 18.0684 71.8662 18.1052C72.7475 18.2848 73.6293 18.465 74.5114 18.6458C75.3936 18.8266 76.2763 19.0061 77.1596 19.1841C77.338 19.221 77.5148 19.2557 77.6931 19.293C77.6504 19.469 77.6058 19.6477 77.5651 19.8212L77.0866 21.8089C76.9276 22.4706 76.768 23.1329 76.6078 23.796C77.1063 23.8995 77.609 24.0453 78.0878 24.1882C78.2841 23.5908 78.5003 22.9438 78.6622 22.4345C78.8969 21.698 79.1286 20.9607 79.3624 20.2219L79.5278 19.7014C79.6963 19.769 79.8652 19.8368 80.0344 19.9013C80.872 20.2324 81.7095 20.5624 82.5466 20.8913C83.3838 21.2203 84.222 21.5507 85.0612 21.8827C85.2276 21.9495 85.3969 22.0175 85.5681 22.0808C85.4935 22.2485 85.4203 22.4166 85.3482 22.5818C85.0769 23.2064 84.8046 23.8313 84.5315 24.4565C84.2583 25.0817 83.9863 25.7067 83.7152 26.3314C84.1877 26.5176 84.659 26.7479 85.1057 26.9755C85.4002 26.4223 85.727 25.8198 85.9748 25.3468C86.3333 24.6613 86.6912 23.9758 87.0484 23.2903L87.3022 22.8049C87.4572 22.8999 87.6128 22.9938 87.768 23.0884C88.5326 23.56 89.303 24.0305 90.0683 24.5005C90.8337 24.9704 91.6048 25.4427 92.3717 25.9133C92.5268 26.0084 92.6818 26.1035 92.8375 26.1969C92.7366 26.3496 92.6345 26.5018 92.5336 26.6545C92.1609 27.2221 91.7801 27.7894 91.4048 28.3561C91.0296 28.9227 90.6523 29.4934 90.2761 30.0611C90.7092 30.3277 91.131 30.6365 91.5306 30.937C91.9174 30.4436 92.342 29.9069 92.6674 29.4849C93.1399 28.8733 93.61 28.2592 94.0817 27.6458C94.1936 27.5019 94.3052 27.3587 94.4169 27.2128C94.5532 27.3319 94.6891 27.4523 94.8245 27.5739L96.847 29.3628C97.5202 29.96 98.1961 30.5588 98.8684 31.1546L99.2766 31.5155C99.1517 31.6461 99.0255 31.7799 98.9005 31.9109C98.4326 32.4041 97.961 32.8992 97.4936 33.3922C97.0262 33.8851 96.5534 34.3807 96.0842 34.8749C96.4636 35.2112 96.8284 35.5899 97.1706 35.9538C97.6365 35.5356 98.1485 35.0818 98.5436 34.7221C99.1142 34.2012 99.685 33.6796 100.256 33.1572C100.391 33.0335 100.525 32.9118 100.661 32.7883C100.773 32.9301 100.885 33.0715 100.999 33.214C101.559 33.9187 102.119 34.6231 102.68 35.3273C103.24 36.0315 103.801 36.7365 104.362 37.4424C104.475 37.5842 104.586 37.7257 104.701 37.871C104.553 37.9764 104.407 38.0855 104.262 38.1916C103.712 38.5988 103.164 39.0027 102.615 39.4074C102.066 39.8121 101.52 40.2166 100.971 40.6217C101.287 41.0212 101.579 41.456 101.853 41.8734C102.386 41.5445 102.967 41.1857 103.421 40.9006C104.073 40.486 104.725 40.0688 105.377 39.6573C105.532 39.5581 105.686 39.4623 105.841 39.3628C105.926 39.524 106.012 39.6816 106.099 39.8418C106.529 40.6324 106.958 41.4237 107.387 42.2158C107.816 43.0079 108.246 43.7964 108.677 44.5814C108.761 44.7404 108.848 44.9004 108.935 45.0604C108.772 45.1398 108.607 45.2215 108.447 45.3019C107.836 45.6059 107.226 45.9099 106.617 46.2139C106.007 46.518 105.397 46.8217 104.786 47.1251C105.028 47.5732 105.241 48.0529 105.436 48.5117C106.018 48.2801 106.658 48.0266 107.151 47.8228C107.866 47.528 108.58 47.2325 109.294 46.9363C109.463 46.8675 109.632 46.7987 109.8 46.7282C109.858 46.9009 109.915 47.0723 109.973 47.2452C110.258 48.1001 110.543 48.9536 110.829 49.8057C111.114 50.6605 111.401 51.5161 111.687 52.3681C111.743 52.5399 111.799 52.7121 111.858 52.8859C111.683 52.9354 111.508 52.9868 111.336 53.0394C110.682 53.2331 110.028 53.4255 109.373 53.6168C108.721 53.8124 108.067 54.0037 107.414 54.1961C107.575 54.6801 107.699 55.1892 107.815 55.6761C108.427 55.5473 109.098 55.4096 109.619 55.2949C110.375 55.1296 111.131 54.9637 111.887 54.7971C112.065 54.7564 112.241 54.7171 112.421 54.6792C112.446 54.8574 112.474 55.0385 112.501 55.2179C112.634 56.1071 112.767 56.9991 112.899 57.8895C113.032 58.7798 113.165 59.6705 113.298 60.561C113.323 60.7392 113.351 60.9205 113.377 61.0996L112.836 61.1585C112.159 61.2357 111.481 61.3126 110.804 61.389C110.128 61.4665 109.449 61.5429 108.773 61.6206C108.847 62.1238 108.883 62.6466 108.911 63.1463C109.538 63.125 110.222 63.1063 110.755 63.0837C111.528 63.0519 112.3 63.0194 113.073 62.9861L113.62 62.9641C113.614 63.1445 113.609 63.3252 113.605 63.5075C113.582 64.408 113.558 65.3076 113.534 66.2064C113.51 67.1052 113.487 68.0059 113.464 68.9086C113.457 69.0902 113.453 69.2717 113.448 69.4519C113.266 69.4417 113.084 69.429 112.904 69.418C112.223 69.3784 111.543 69.3339 110.862 69.2925C110.181 69.2511 109.501 69.2072 108.822 69.1646C108.808 69.6741 108.752 70.1961 108.692 70.6918C109.312 70.7825 109.99 70.8805 110.518 70.9508C111.285 71.0549 112.051 71.1551 112.819 71.2577C113.003 71.2829 113.18 71.3057 113.361 71.3302L113.252 71.8658L112.713 74.5118C112.533 75.3933 112.353 76.2759 112.174 77.1595C112.136 77.3373 112.1 77.5162 112.065 77.6951C111.887 77.6516 111.708 77.6075 111.535 77.5659C110.871 77.4065 110.208 77.2468 109.545 77.0867C108.882 76.9266 108.22 76.7666 107.559 76.6066C107.457 77.1055 107.31 77.6106 107.166 78.0889C107.764 78.2848 108.41 78.5012 108.919 78.6631C109.658 78.8967 110.394 79.1297 111.132 79.3633C111.306 79.4168 111.48 79.4733 111.653 79.5281C111.585 79.697 111.518 79.8654 111.454 80.036C111.123 80.8736 110.793 81.7108 110.463 82.5476C110.133 83.3844 109.801 84.2234 109.473 85.0612C109.406 85.23 109.338 85.3981 109.273 85.5682C109.105 85.4945 108.938 85.4214 108.773 85.3484C108.147 85.0772 107.523 84.8051 106.899 84.5322C106.276 84.2594 105.651 83.9872 105.025 83.7156C104.835 84.1877 104.608 84.6591 104.381 85.1056C104.933 85.4018 105.535 85.7277 106.008 85.975C106.693 86.3331 107.379 86.6911 108.065 87.049C108.227 87.1339 108.387 87.2189 108.551 87.3034L108.267 87.7692C107.796 88.5365 107.326 89.3041 106.856 90.0718C106.386 90.8396 105.915 91.6074 105.443 92.3753L105.158 92.8402C105.005 92.7389 104.853 92.6372 104.705 92.5383C104.135 92.1623 103.568 91.7845 103 91.4082C102.432 91.0319 101.864 90.6561 101.295 90.2791C101.029 90.7127 100.721 91.1366 100.419 91.5362C100.912 91.9229 101.446 92.3464 101.869 92.6723C102.481 93.1452 103.095 93.6153 103.708 94.0867C103.852 94.1981 103.998 94.3095 104.142 94.4205C104.022 94.5563 103.9 94.6914 103.78 94.829C103.185 95.5024 102.588 96.1762 101.99 96.8506C101.393 97.5249 100.796 98.1995 100.201 98.8744L99.8397 99.2824C99.7068 99.1551 99.5762 99.0293 99.4449 98.9051C98.9493 98.4358 98.457 97.9657 97.9612 97.4958C97.4654 97.0258 96.9736 96.5579 96.48 96.0874C96.1428 96.4689 95.7649 96.8316 95.4009 97.1743C95.8189 97.6406 96.2729 98.1522 96.6313 98.5467C97.1533 99.1188 97.6753 99.6899 98.1973 100.26C98.3208 100.395 98.4444 100.53 98.5662 100.665C98.4244 100.777 98.283 100.889 98.1403 101.004C97.4373 101.563 96.7332 102.124 96.0281 102.685C95.3231 103.246 94.6183 103.805 93.9138 104.362C93.7718 104.475 93.6299 104.588 93.488 104.701C93.3792 104.553 93.2688 104.404 93.1639 104.261C92.7592 103.713 92.3545 103.164 91.9498 102.615C91.5451 102.066 91.1399 101.518 90.7342 100.971C90.3375 101.288 89.901 101.58 89.4822 101.853C89.8144 102.385 90.1728 102.969 90.4589 103.42C90.8713 104.072 91.2856 104.725 91.7017 105.378C91.7985 105.531 91.8973 105.686 91.9953 105.84C91.8341 105.925 91.6756 106.013 91.5143 106.098C90.7256 106.528 89.9347 106.958 89.1418 107.387C88.3488 107.817 87.5573 108.247 86.7672 108.676L86.2897 108.936C86.2073 108.772 86.1268 108.608 86.0466 108.446C85.7419 107.837 85.438 107.227 85.1349 106.616C84.8301 106.007 84.5285 105.397 84.2245 104.786C83.7782 105.028 83.2984 105.24 82.8379 105.437C83.0726 106.02 83.3249 106.658 83.5279 107.152C83.8236 107.866 84.1192 108.581 84.4148 109.296C84.4853 109.464 84.5524 109.632 84.6228 109.801C84.452 109.859 84.2788 109.916 84.1066 109.973C83.2517 110.258 82.398 110.543 81.5456 110.829C80.6925 111.114 79.8365 111.399 78.9847 111.685C78.812 111.742 78.6398 111.798 78.4676 111.857C78.4168 111.682 78.3667 111.507 78.3146 111.334C78.1199 110.68 77.9267 110.026 77.7351 109.372C77.5434 108.718 77.3504 108.065 77.1561 107.412C76.6721 107.573 76.1629 107.698 75.6763 107.813C75.8053 108.426 75.9421 109.097 76.0572 109.617C76.2225 110.373 76.3888 111.128 76.556 111.884C76.5958 112.062 76.6347 112.24 76.6731 112.419C76.4946 112.445 76.3152 112.472 76.1348 112.499C75.2447 112.63 74.3541 112.763 73.4631 112.897C72.5721 113.032 71.6816 113.165 70.7914 113.296C70.6137 113.322 70.4348 113.35 70.2542 113.377C70.2349 113.196 70.2141 113.014 70.1937 112.835L69.9632 110.803C69.8855 110.127 69.8089 109.451 69.7335 108.772C69.2316 108.847 68.7075 108.882 68.2076 108.911C68.2274 109.536 68.2463 110.22 68.269 110.753C68.3013 111.526 68.3359 112.3 68.3678 113.072C68.3743 113.254 68.3831 113.436 68.3902 113.618C68.2094 113.614 68.0275 113.609 67.8449 113.604C66.946 113.581 66.0441 113.557 65.1456 113.535C64.2471 113.512 63.3444 113.488 62.443 113.464C62.2626 113.459 62.0813 113.454 61.899 113.45C61.9113 113.268 61.9235 113.086 61.9338 112.905C61.9763 112.225 62.0184 111.545 62.0603 110.864C62.1021 110.183 62.1441 109.503 62.1865 108.824C61.6785 108.81 61.1554 108.754 60.6593 108.694C60.572 109.313 60.4715 109.991 60.3999 110.522C60.2977 111.288 60.196 112.055 60.0949 112.822C60.0707 113.002 60.0465 113.183 60.0223 113.364C59.8438 113.328 59.6652 113.291 59.4868 113.254C58.6062 113.075 57.7242 112.896 56.8408 112.715C55.9574 112.535 55.0748 112.356 54.1932 112.176C54.0146 112.139 53.8387 112.105 53.6574 112.067C53.7013 111.891 53.7444 111.715 53.7871 111.539C53.9439 110.878 54.1057 110.212 54.2648 109.55C54.424 108.887 54.5839 108.225 54.743 107.563C54.2467 107.46 53.7403 107.315 53.2633 107.171C53.0666 107.768 52.8514 108.415 52.6898 108.924C52.4547 109.661 52.2208 110.398 51.988 111.136C51.9343 111.31 51.8779 111.483 51.8229 111.658C51.6565 111.591 51.4872 111.523 51.3159 111.458C50.479 111.129 49.6418 110.798 48.8042 110.467C47.9665 110.136 47.1286 109.806 46.2903 109.477C46.1239 109.41 45.9546 109.342 45.7841 109.277C45.8582 109.11 45.9311 108.943 46.0028 108.777C46.2751 108.152 46.5473 107.527 46.8193 106.902L47.6357 105.028C47.1635 104.839 46.6926 104.61 46.2447 104.386C45.9496 104.938 45.6253 105.538 45.3769 106.012C45.018 106.698 44.6598 107.384 44.3026 108.07L44.049 108.554C43.894 108.459 43.7389 108.364 43.5832 108.271C42.815 107.801 42.0475 107.331 41.281 106.86C40.5144 106.388 39.7466 105.918 38.9774 105.447C38.8225 105.352 38.6675 105.257 38.5116 105.164L38.8137 104.711C39.1875 104.14 39.5681 103.574 39.9438 103.006C40.3196 102.438 40.6967 101.87 41.0724 101.301C40.639 101.035 40.2136 100.725 39.8129 100.426C39.4266 100.918 39.0018 101.452 38.6764 101.876C38.2049 102.489 37.7334 103.102 37.2619 103.715L36.9276 104.149C36.7924 104.028 36.6564 103.908 36.521 103.787C35.8464 103.191 35.1722 102.594 34.4981 101.997C33.824 101.4 33.1495 100.803 32.4746 100.207L32.0666 99.8455C32.1934 99.7138 32.317 99.5827 32.4435 99.4515C32.9123 98.9562 33.3833 98.4627 33.8517 97.9697C34.32 97.4766 34.7904 96.981 35.2601 96.487C34.8799 96.149 34.5162 95.7712 34.1734 95.4075C33.7073 95.8251 33.1953 96.2799 32.8007 96.6398C32.2295 97.1605 31.6586 97.6822 31.0881 98.2051C30.9537 98.327 30.8196 98.4505 30.6835 98.5741C30.5709 98.4323 30.4591 98.2908 30.3444 98.1482L28.6643 96.0345L26.9825 93.9201C26.8697 93.7783 26.7564 93.6362 26.6425 93.4939C26.7908 93.3868 26.937 93.2788 27.0822 93.1709C27.6314 92.7654 28.1803 92.3605 28.7289 91.9564C29.2775 91.5522 29.8255 91.1469 30.3727 90.7406C30.0558 90.3425 29.7641 89.9066 29.4893 89.4891C28.9575 89.82 28.3754 90.1776 27.924 90.4649C27.2709 90.879 26.618 91.2931 25.9652 91.7073L25.5036 92.0017C25.4174 91.841 25.3317 91.6815 25.2446 91.5219C24.815 90.731 24.3857 89.9397 23.9566 89.1483L22.6674 86.7742C22.581 86.614 22.4946 86.4552 22.407 86.2954C22.5715 86.2165 22.7338 86.1334 22.8968 86.0534C23.5064 85.7484 24.1166 85.4447 24.7275 85.1421C25.3364 84.8369 25.9474 84.5349 26.5575 84.2301C26.315 83.7826 26.1022 83.3031 25.9064 82.8439C25.3248 83.0775 24.6887 83.3279 24.1952 83.5321C23.4815 83.8253 22.7671 84.1209 22.0521 84.419C21.8838 84.4881 21.7157 84.5569 21.5471 84.6268C21.4901 84.4547 21.4317 84.2825 21.3741 84.1106C21.0899 83.256 20.8047 82.402 20.5186 81.5488L19.663 78.9875C19.6051 78.815 19.5476 78.6432 19.4904 78.4705C19.6652 78.4199 19.8392 78.369 20.014 78.3174C20.6678 78.1229 21.3214 77.9298 21.9747 77.738C22.6281 77.5462 23.2813 77.3527 23.9344 77.1576C23.7741 76.675 23.6474 76.1663 23.534 75.6798C22.92 75.8077 22.251 75.9463 21.73 76.0613C20.9739 76.2268 20.2181 76.3949 19.4629 76.5593C19.2851 76.5991 19.1077 76.638 18.9294 76.678C18.9043 76.4998 18.8753 76.3182 18.8488 76.1385C18.7162 75.248 18.5833 74.3575 18.4504 73.467L18.0511 70.7951C18.0258 70.6174 17.9974 70.4354 17.9716 70.2565C18.1524 70.2369 18.3332 70.2162 18.513 70.1966C19.1904 70.1188 19.8689 70.0434 20.5448 69.9659C21.2207 69.8885 21.8988 69.8128 22.5761 69.7355C22.5012 69.2326 22.4661 68.7099 22.4383 68.2099C21.812 68.231 21.1273 68.2498 20.5949 68.2718C19.8217 68.3041 19.0486 68.3371 18.2755 68.3707C18.0947 68.3783 17.9125 68.3857 17.729 68.3928C17.7351 68.2127 17.7395 68.0309 17.7441 67.8497L17.8137 65.1492L17.8837 62.4478C17.8895 62.2661 17.8941 62.0849 17.8985 61.9031C18.0813 61.9157 18.2614 61.9266 18.4432 61.9382C19.1239 61.9787 19.8039 62.0222 20.4848 62.0646C21.1658 62.107 21.844 62.1488 22.5254 62.19C22.5363 61.6814 22.594 61.1598 22.6549 60.664C22.035 60.5756 21.3576 60.4761 20.827 60.4047C20.0607 60.3019 19.2936 60.1996 18.5259 60.0979C18.3459 60.0746 18.1656 60.0505 17.985 60.0257C18.021 59.8493 18.0575 59.6717 18.0931 59.4928L18.6326 56.8466L19.1711 54.1991C19.2092 54.0212 19.2448 53.8422 19.2808 53.6635C19.457 53.7057 19.6331 53.7484 19.8117 53.792C20.4744 53.9508 21.137 54.1102 21.7996 54.2702C22.4621 54.4302 23.1246 54.5895 23.787 54.7481C23.8898 54.2513 24.0344 53.7467 24.1787 53.2694C23.5816 53.0722 22.9348 52.8581 22.4253 52.6956C21.688 52.4618 20.9507 52.2283 20.2132 51.9951C20.0416 51.9412 19.8658 51.8847 19.6915 51.8292L19.8913 51.323L20.8814 48.8103L21.8725 46.2966L22.0715 45.7911C22.2382 45.8643 22.4048 45.9379 22.5716 46.0097C23.1968 46.2823 23.8228 46.5529 24.4467 46.8265C25.0706 47.1001 25.6958 47.3703 26.3211 47.6416C26.5081 47.1685 26.7392 46.6985 26.9633 46.2509C26.4109 45.9567 25.8115 45.6307 25.3363 45.3839C24.6514 45.0253 23.9659 44.6668 23.28 44.3084C23.1181 44.2241 22.9565 44.1396 22.7954 44.0549L23.0789 43.5892C23.5475 42.8228 24.0181 42.056 24.4906 41.2886C24.9608 40.5215 25.4317 39.7513 25.9021 38.9847C25.9972 38.8297 26.0923 38.6747 26.1857 38.5189C26.3379 38.6211 26.4906 38.722 26.6399 38.823C27.2092 39.1964 27.7759 39.575 28.3451 39.9512C28.9142 40.3275 29.4801 40.7048 30.0478 41.0809C30.3147 40.6481 30.623 40.2241 30.9229 39.8248C30.431 39.4341 29.8944 39.0106 29.4711 38.6861C28.859 38.2134 28.2446 37.7432 27.632 37.2718C27.4875 37.1611 27.3427 37.0503 27.198 36.9377L27.5596 36.5303L29.3493 34.5081C29.9461 33.8347 30.543 33.1603 31.14 32.4848L31.5013 32.0768C31.6323 32.2052 31.7653 32.3276 31.8946 32.4554C32.3906 32.9225 32.884 33.3934 33.3776 33.863C33.8711 34.3325 34.3656 34.801 34.8597 35.2703C35.1971 34.8893 35.5748 34.526 35.9399 34.1843C35.5214 33.7168 35.0675 33.2062 34.7078 32.8112C34.1864 32.24 33.6647 31.6687 33.1425 31.0972C33.0196 30.9643 32.8966 30.8289 32.7731 30.6939C32.9149 30.5812 33.0564 30.4694 33.1988 30.3552L35.3125 28.675L37.4281 26.9927L37.8535 26.6549C37.9622 26.8004 38.0701 26.949 38.1777 27.0926C38.5832 27.6418 38.9881 28.1907 39.3922 28.7393C39.7979 29.2857 40.2017 29.837 40.607 30.3832C41.0061 30.0662 41.4409 29.7736 41.8591 29.5005C41.5279 28.9696 41.1702 28.3855 40.8849 27.9349C40.4709 27.2818 40.0568 26.6287 39.6427 25.9757C39.5438 25.8225 39.4452 25.6699 39.348 25.5149C39.508 25.428 39.668 25.341 39.8269 25.2556C40.6179 24.826 41.4093 24.3961 42.2012 23.9659L43.8227 23.0871L44.006 24.2165C43.5277 24.4756 43.2148 24.6558 42.7367 24.9145C42.1145 25.2541 41.4933 25.5916 40.8731 25.9271C41.1825 26.4325 41.4911 26.9368 41.7989 27.44C42.1072 27.9439 42.4547 28.5209 42.7626 29.0246C43.2768 28.706 43.808 28.3647 44.3488 28.0703C44.1476 27.7147 43.9446 27.3599 43.7438 27.0035C43.4673 27.1557 43.1888 27.3033 42.9132 27.4545C42.7286 27.1418 42.5445 26.8278 42.3591 26.5148L43.6655 25.8075L44.1252 25.5573C44.2135 25.7164 44.3011 25.8748 44.3877 26.0346C44.5713 26.3749 44.7573 26.7142 44.9432 27.0502C45.1291 27.3861 45.4609 28.0047 45.6458 28.3441C45.6558 28.3626 45.6674 28.3807 45.6775 28.4012C44.5567 29.0011 43.4624 29.6509 42.3946 30.3506C42.3946 30.3506 42.3946 30.3506 42.3937 30.3468C41.7144 30.7949 41.0477 31.2619 40.3934 31.7479C40.3778 31.7291 40.3607 31.7092 40.3462 31.6899C39.9329 31.1492 39.3219 30.361 38.9088 29.8199C38.4956 29.2788 38.0795 28.7404 37.6647 28.1986C37.1118 28.6398 36.5594 29.0774 36.0062 29.5171L34.3474 30.8365C34.7393 31.2802 35.1298 31.7248 35.5216 32.1651C35.9134 32.6053 36.3554 33.1165 36.7452 33.5594C37.1968 33.1562 37.659 32.7268 38.1421 32.345C37.8821 32.0301 37.6221 31.7151 37.3621 31.4002L36.6245 31.9876C36.3883 31.7121 36.1534 31.4333 35.9169 31.1573L37.0801 30.2326C37.2163 30.1245 37.3537 30.0169 37.4905 29.9071C37.6043 30.0494 37.7174 30.1913 37.8317 30.3338C38.0711 30.6337 38.3141 30.937 38.5537 31.2389C38.7933 31.5409 39.2277 32.0867 39.4711 32.3901C39.482 32.4027 39.493 32.4149 39.5035 32.4297C38.5027 33.212 37.5374 34.0413 36.6078 34.9175C36.0154 35.4731 35.4389 36.0483 34.8782 36.6431C34.8639 36.6292 34.848 36.616 34.8333 36.6033C34.332 36.1423 33.5967 35.4724 33.0929 35.0103C32.5891 34.5483 32.0897 34.0909 31.5867 33.633C31.1169 34.1615 30.6486 34.6903 30.1815 35.2193C29.7145 35.7483 29.2461 36.2776 28.7763 36.8071C29.2407 37.176 29.7017 37.5436 30.1635 37.9116C30.6254 38.2795 31.1496 38.7039 31.6126 39.0704C31.9875 38.5959 32.3687 38.0939 32.7761 37.6324C32.465 37.3665 32.1538 37.1034 31.8425 36.837C31.6352 37.073 31.426 37.3079 31.2161 37.5443C30.9362 37.3135 30.6555 37.083 30.3741 36.8528C30.7017 36.481 31.03 36.1094 31.3591 35.7378C31.4751 35.6066 31.5917 35.4762 31.7067 35.346L32.1155 35.7077C32.4043 35.9617 32.696 36.2169 32.9847 36.4724C33.2734 36.7279 33.7989 37.1924 34.0906 37.4476C34.0999 37.4547 34.1088 37.4636 34.118 37.4721C33.2719 38.4153 32.4665 39.4009 31.702 40.4287C31.2167 41.0811 30.7491 41.7483 30.2992 42.4304C30.285 42.4213 30.2693 42.4136 30.2555 42.4046C29.6821 42.0378 28.839 41.5053 28.2641 41.1398C27.6892 40.7743 27.1162 40.4076 26.5424 40.0406C26.1717 40.6434 25.8015 41.2449 25.4317 41.8451C25.062 42.4454 24.6927 43.0483 24.3236 43.654C24.8448 43.9357 25.3635 44.2197 25.8828 44.5001C26.402 44.7804 26.9906 45.1094 27.5096 45.3916C27.797 44.8573 28.0837 44.2981 28.4059 43.771C28.0535 43.5652 27.7018 43.3584 27.3508 43.1505C27.1867 43.4198 27.022 43.6881 26.8568 43.9554C26.5417 43.7778 26.225 43.5991 25.9068 43.4196L26.6845 42.1523L26.9599 41.7069C27.1161 41.7991 27.271 41.8946 27.4257 41.9905C27.7541 42.1914 28.0851 42.3933 28.4131 42.594L29.6704 43.3618C29.6787 43.3652 29.6877 43.3717 29.6957 43.3769C29.0293 44.4502 28.4092 45.5653 27.8358 46.7112C27.4668 47.432 27.1232 48.1703 26.7994 48.9228L26.7987 48.9234ZM19.4373 45.4047L19.6358 44.928L20.765 45.3976C20.6934 45.5567 20.6255 45.715 20.5554 45.8728L19.4373 45.4047Z" fill="#82231E"/>
<rect x="43" y="15.6463" width="45" height="46" fill="black"/>
<g clip-path="url(#clip0_269_2001)">
<path d="M44.0148 15.6463H88.3679V43.9154C88.3139 43.9185 88.2594 43.9251 88.2045 43.9355C87.2088 44.1231 87.0882 45.1488 87.0651 45.9601C87.0465 46.6159 87.0729 47.2837 87.1008 47.9392C87.1239 48.4821 87.1529 49.0247 87.1761 49.5676C87.1875 49.8329 87.2168 50.1911 87.195 50.453L87.1894 50.5021L87.1883 50.5552C87.1736 51.222 87.2443 51.9177 87.1917 52.5771L87.1418 53.2035L87.2281 53.2724C87.165 54.3001 86.348 55.7387 85.7907 56.7065V18.2283H45.3034V58.7908L45.3707 59.2175L45.3678 60.3744C45.367 60.7129 45.3442 61.0442 45.3061 61.3728H42.7262V15.6463H44.0148L44.0148 15.6463Z" fill="#FF9D00"/>
<path fill-rule="evenodd" clip-rule="evenodd" d="M66.6927 65.0694C67.31 63.8093 67.5272 61.9713 67.4642 60.3911C67.3325 57.3674 65.0298 54.5965 61.5998 56.0561C54.5756 59.0453 61.8058 73.8589 66.6927 65.0694L66.6927 65.0694V65.0694ZM88.3717 52.6741C88.9035 55.6811 84.3189 59.3 84.3189 64.5097C84.3189 65.3571 84.4793 67.27 84.8851 67.7854C85.4681 68.507 86.2852 68.5358 87.3426 68.335C88.1884 67.3501 89.7314 64.5272 89.9942 62.8262C90.4311 59.9746 89.3887 58.2974 90.086 55.2794C90.2954 54.3532 90.4713 53.6343 90.6601 53.0204L90.8536 52.6846C90.8705 52.6801 90.8875 52.6755 90.9043 52.6708H90.8616L91.8539 50.9489C91.9302 50.6524 92.0173 50.3481 91.9971 50.043C91.9485 49.3069 92.0828 49.2502 91.1282 48.5932C90.7927 48.1673 90.5898 48.2218 90.4986 48.7576C90.6455 49.3783 90.4626 50.0887 90.2801 50.0164C90.2982 49.3321 89.6865 46.5707 88.7166 45.4934C87.8372 43.4782 88.462 49.7433 88.368 50.5813C88.3531 51.2601 88.4199 52.0196 88.368 52.6712L88.3718 52.6742L88.3717 52.6741ZM70.9279 95.2631C71.6538 96.0585 75.2031 100.033 74.5114 101.642C73.8423 101.407 74.2886 101.842 73.9109 100.851L72.6706 98.6C71.9278 97.6032 71.3679 96.9791 70.539 96.046C69.8704 95.3018 68.9098 94.128 68.1726 93.5208C66.8581 92.4396 65.7607 93.6653 66.315 95.3944C66.7613 96.7971 67.6527 97.3067 67.2182 99.2253C66.9686 100.347 66.2582 101.785 66.6296 103.096C66.9099 104.069 67.9405 105.375 68.8699 105.524C70.3393 105.753 72.0252 105.742 72.7106 104.768C72.3792 103.835 72.3049 104.293 71.7506 103.812C71.265 103.394 71.5733 103.374 71.1164 102.701C69.3062 100.021 69.6077 100.788 69.0927 97.2604C68.7182 94.6783 68.0241 96.3099 67.5441 95.2336C69.8536 93.8704 69.6701 98.0278 70.0534 99.4592C70.9216 102.769 75.5688 106.187 78.0376 104.775C79.5694 103.893 80.6667 102.902 80.7297 100.48C80.8839 94.9204 77.796 89.2346 74.9059 85.0259C74.391 84.2811 73.9109 83.7314 73.4197 82.9985C72.9166 82.2543 72.665 81.2237 72.1794 80.7196C72.1906 78 72.7849 76.8424 73.2655 74.5011C71.8535 74.9019 70.9734 75.5204 69.0833 75.1996C68.0378 75.0164 66.2313 74.3466 66.1802 73.3904C67.7176 73.5624 71.2437 77.5647 76.771 69.5082C77.3534 68.6608 78.5594 66.8854 79.6055 66.8229L79.0437 67.9567C81.221 67.1437 81.2609 67.1719 83.8557 67.4126C83.8046 66.287 83.5705 65.202 83.5243 64.0801C83.4619 62.5567 83.8102 62.0414 83.9188 60.7988C81.8383 60.1459 81.2097 59.6194 78.5981 59.7626C75.5057 59.9283 76.7879 61.4117 74.6768 62.0183C75.0713 61.1196 75.5226 60.8301 75.9252 60.0171C74.6506 57.9384 70.8904 57.4 67.9236 57.9096C68.0097 60.206 68.9529 61.4598 67.4435 65.0556C66.9691 66.1894 66.3293 66.7792 65.6259 67.3345C63.0666 69.3387 62.7458 69.2875 60.5854 67.5177C57.2871 64.8099 58.4132 60.5893 58.676 57.904C52.9957 56.2893 50.7829 60.0052 50.1999 60.2572C49.5202 60.5549 47.4341 60.3604 46.5477 60.3773C46.5421 62.6224 45.7418 64.2258 45.6451 66.6015C48.1769 66.4014 49.9484 67.0143 52.2979 66.6078C52.2635 65.8573 52.0482 66.0062 52.2748 65.5253C53.3322 66.3501 53.6349 67.4495 54.2067 68.8347C55.5269 72.0647 58.3333 74.4123 61.8083 73.8626C62.6822 73.725 63.0142 73.2372 63.6028 73.5018C62.7627 75.042 60.1111 74.7331 58.422 74.4179C58.5705 76.6167 58.5137 77.4472 59.5768 78.621C56.1817 77.424 51.0607 75.1396 48.5003 78.9011C47.2887 80.6821 46.8542 82.6977 46.6826 85.2229C46.4142 89.0826 45.2994 95.7877 44.3106 99.326C43.6021 101.874 41.8644 101.582 39.4524 102.659C38.4693 103.096 37.6635 103.627 36.6691 103.972C35.5318 104.35 34.1317 104.098 34 105.318C34.8976 105.793 42.996 105.495 44.8649 105.535C46.8767 105.575 48.3174 105.558 47.7574 103.062C47.3055 101.029 46.9341 101.046 47.74 98.6581C48.323 96.929 49.0202 96.2705 49.8716 95.1255C55.7248 87.2691 52.743 84.2917 53.2498 83.2836C54.09 83.5757 54.3528 86.805 54.5813 87.7331C57.5075 88.7293 62.229 88.4835 65.2064 89.7886C64.3151 88.5517 63.3775 87.2522 62.9949 85.6313C63.823 87.2801 64.9698 88.9269 66.4355 90.5716C67.2239 91.2476 68.2457 92.3126 69.1502 93.2919V93.2919C69.893 94.1049 70.5559 94.8553 70.9279 95.2618V95.2631V95.2631Z" fill="#FF9D00"/>
<path fill-rule="evenodd" clip-rule="evenodd" d="M45.5509 64.4966C46.7112 57.6939 44.3023 58.4315 43.7368 53.0265C43.7081 52.7801 42.552 50.6548 42.535 50.4542L41.5553 51.8266C41.5426 52.4704 42.0371 54.0051 41.9592 54.6454C41.3087 59.993 39.8993 61.0354 42.1933 66.3434C42.7307 67.586 44.0796 67.4259 44.6901 67.1339C45.5471 66.7274 45.3873 65.4454 45.5528 64.4999L45.5509 64.4966L45.5509 64.4966Z" fill="#FF9D00"/>
<path fill-rule="evenodd" clip-rule="evenodd" d="M43.0316 53.0812L42.809 48.0462C42.6189 48.1164 42.5997 47.843 42.7444 47.2235C42.6581 46.6849 42.4475 46.6284 42.1169 47.0514C41.4286 48.2496 41.0375 49.2095 40.9507 49.9406C40.9797 50.3376 41.0541 50.7323 41.1711 51.1129C41.2781 51.355 41.3859 51.5771 41.4925 51.7732L43.0316 53.0812H43.0316Z" fill="#FF9D00"/>
</g>
<defs>
<clipPath id="clip0_269_2001">
<rect width="58" height="90" fill="white" transform="translate(34 15.6463)"/>
</clipPath>
</defs>
</svg>
