<svg width="395" height="101" viewBox="0 0 395 101" fill="none" xmlns="http://www.w3.org/2000/svg">
<path d="M356.138 29.4832H394.311V101H379.043V44.8049H356.138C351.222 44.8049 347.02 46.8131 343.546 50.7837C340.071 54.7739 338.337 59.5856 338.337 65.2383C338.337 70.8846 340.071 75.7158 343.546 79.693C347.02 83.6832 351.222 85.6717 356.138 85.6717H373.958V101H356.138C347.02 101 339.22 97.5119 332.765 90.5225C326.303 83.5462 323.076 75.129 323.076 65.2449C323.076 55.3737 326.303 46.9369 332.765 39.9672C339.227 32.9909 347.02 29.4897 356.138 29.4897V29.4832Z" fill="white"/>
<path d="M300.183 29.4832H315.445V101H300.183V29.4832Z" fill="white"/>
<path d="M226.409 51.2075C226.409 45.2092 228.526 40.0845 232.748 35.8466C236.969 31.6086 242.054 29.4832 248.029 29.4832H292.553V44.8115H248.029C246.275 44.8115 244.762 45.4374 243.528 46.6761C242.294 47.9345 241.671 49.4276 241.671 51.2075C241.671 52.9679 242.294 54.487 243.528 55.7258C244.762 56.9646 246.275 57.5905 248.029 57.5905H270.934C276.889 57.5905 281.993 59.7029 286.215 63.9343C290.436 68.1853 292.553 73.2969 292.553 79.2953C292.553 85.2936 290.436 90.3987 286.215 94.6366C281.993 98.8745 276.889 101 270.934 101H226.409V85.6717H270.934C272.687 85.6717 274.181 85.0458 275.434 83.807C276.668 82.5682 277.292 81.0556 277.292 79.2887C277.292 77.5088 276.668 76.0092 275.434 74.7704C274.187 73.5121 272.694 72.9057 270.934 72.9057H248.029C242.054 72.9057 236.969 70.7803 232.748 66.5423C228.526 62.3044 226.409 57.1797 226.409 51.201V51.2075Z" fill="white"/>
<path d="M203.523 83.1289C203.523 81.0035 202.776 79.204 201.283 77.7044C199.789 76.2048 197.984 75.455 195.88 75.455H152.641V60.1267H195.88C197.984 60.1267 199.789 59.3769 201.283 57.8773C202.776 56.3778 203.523 54.5848 203.523 52.4723C203.523 50.3599 202.776 48.5473 201.283 47.0478C199.789 45.5482 197.984 44.7984 195.88 44.7984H152.641V29.4701H195.88C202.198 29.4701 207.582 31.7195 212.063 36.2182C216.544 40.7169 218.785 46.1219 218.785 52.4658C218.785 58.3598 216.824 63.4649 212.933 67.7876C216.824 72.1103 218.785 77.2219 218.785 83.1159V100.987H203.523V83.1159V83.1289Z" fill="white"/>
<path d="M101.752 72.195C95.1535 70.9236 89.3022 67.9245 84.2107 63.1454C77.2488 56.6776 73.7744 48.8668 73.7744 39.6933V29.4766H89.0424V39.6933C89.0424 44.6419 91.0231 48.8472 94.9976 52.3354C98.9591 55.8365 103.765 57.5839 109.395 57.5839C115.019 57.5839 119.812 55.8431 123.793 52.3354C127.755 48.8472 129.748 44.6484 129.748 39.6933V29.4766H145.016V39.6933C145.016 48.8668 141.522 56.6776 134.58 63.1454C129.495 67.9245 123.637 70.9236 117.026 72.195V101H101.758V72.195H101.752Z" fill="url(#paint0_linear_269_1910)"/>
<path d="M43.2452 75.455H15.268V101H0V60.1332H43.2387C45.3428 60.1332 47.1482 59.3834 48.6419 57.8838C50.1356 56.3842 50.8824 54.5912 50.8824 52.4788C50.8824 50.3663 50.1356 48.5538 48.6419 47.0542C47.1482 45.5547 45.3428 44.8049 43.2387 44.8049H0V29.4766H43.2387C49.5576 29.4766 54.9413 31.7259 59.4224 36.2247C63.9034 40.7234 66.1439 46.1284 66.1439 52.4723C66.1439 58.8031 63.9034 64.2211 59.4224 68.7068C54.9413 73.2056 49.5576 75.455 43.2387 75.455H43.2452Z" fill="white"/>
<path d="M118.779 50.5814C118.779 50.5814 123.306 45.0265 117.065 36.2116C110.824 27.3967 97.2965 13.8744 109.629 0C109.629 0 108.07 8.09121 121.656 23.3022C135.236 38.5131 118.779 50.5814 118.779 50.5814V50.5814Z" fill="#EE9B15"/>
<path d="M93.3289 35.3381C93.3289 35.3381 95.6279 40.9908 98.7126 43.8857C100.486 45.5482 104.583 46.0242 101.193 40.7757C97.7969 35.5206 92.2898 26.8296 100.369 17.7734C100.369 17.7734 101.745 25.5582 112.019 38.422C122.3 51.2792 110.162 56.3322 102.856 53.8481C95.7058 51.4162 92.4457 44.3095 93.3354 35.3446L93.3289 35.3381Z" fill="url(#paint1_linear_269_1910)"/>
<path d="M373.971 73.4274V81.4403H366.373V73.4274H373.971Z" fill="white"/>
<path d="M373.971 62.3499V70.3628H366.373V62.3499H373.971Z" fill="white"/>
<path d="M373.971 51.3118V59.3247H366.373V51.3118H373.971Z" fill="white"/>
<defs>
<linearGradient id="paint0_linear_269_1910" x1="124.397" y1="38.5262" x2="124.397" y2="92.9805" gradientUnits="userSpaceOnUse">
<stop stop-color="#CC635E"/>
<stop offset="1" stop-color="#70130E"/>
</linearGradient>
<linearGradient id="paint1_linear_269_1910" x1="100.271" y1="14.8525" x2="117.316" y2="44.7995" gradientUnits="userSpaceOnUse">
<stop stop-color="#FFEC87"/>
<stop offset="1" stop-color="#EA8C00"/>
</linearGradient>
</defs>
</svg>
