<svg width="127" height="127" viewBox="0 0 127 127" fill="none" xmlns="http://www.w3.org/2000/svg">
<path fill-rule="evenodd" clip-rule="evenodd" d="M51.5245 13.9245L52.0293 13.7999L52.3308 14.9822C52.1602 15.0204 51.9925 15.0563 51.8228 15.0961L51.5245 13.9245ZM53.2518 13.5531L53.7599 13.4444L54.0173 14.6355C53.8481 14.6662 53.6785 14.7018 53.5095 14.7348L53.2518 13.5531ZM54.9873 13.2411L55.499 13.15L55.7166 14.3491C55.5455 14.3752 55.3748 14.402 55.2045 14.4295L54.9873 13.2411ZM56.7384 12.9889L57.2522 12.9155L57.4261 14.1205C57.2547 14.1392 57.0835 14.1588 56.9118 14.1814L56.7384 12.9889ZM58.4921 12.7993L59.0101 12.7438L59.1399 13.9501C58.9688 13.964 58.7964 13.9812 58.6243 13.9978L58.4921 12.7993ZM60.2522 12.6714L60.7707 12.6332L60.8608 13.846C60.6869 13.8523 60.5148 13.8582 60.3437 13.8688L60.2522 12.6714ZM62.0134 12.6056L62.5346 12.5867L62.5803 13.8C62.408 13.8007 62.2344 13.8065 62.0629 13.8098L62.0134 12.6056ZM63.7775 12.5994L64.299 12.5972L64.3029 13.8148C64.1291 13.8104 63.9582 13.8051 63.7838 13.8036L63.7775 12.5994ZM65.5414 12.6556L66.0622 12.6723L66.0232 13.8909C65.8508 13.8804 65.6788 13.8698 65.5053 13.862L65.5414 12.6556ZM67.3084 12.774L67.8257 12.8069L67.7459 14.0267C67.5748 14.0098 67.401 13.995 67.2305 13.9802L67.3084 12.774ZM69.0636 12.9534L69.5823 13.0045L69.4577 14.225C69.2875 14.2021 69.1154 14.1788 68.9427 14.1581L69.0636 12.9534ZM70.8121 13.1933L71.328 13.2632L71.1606 14.4784C70.9923 14.4493 70.8215 14.4243 70.65 14.3971L70.8121 13.1933ZM72.5454 13.4956L73.0575 13.5821L72.8481 14.7966C72.6794 14.7615 72.5106 14.726 72.3408 14.6922L72.5454 13.4956ZM74.2721 13.8575L74.7837 13.9634L74.5305 15.1698C74.3611 15.1279 74.1934 15.0916 74.0259 15.0529L74.2721 13.8575ZM75.9851 14.28L76.4916 14.4033L76.1983 15.6056C76.0302 15.5586 75.8656 15.511 75.6984 15.4657L75.9851 14.28ZM77.6845 14.7609L78.184 14.901L77.8469 16.0965C77.6828 16.0445 77.5176 15.9948 77.3516 15.9443L77.6845 14.7609ZM79.3633 15.3016L79.8602 15.4593L79.4787 16.6459C79.3169 16.5876 79.1539 16.5297 78.9897 16.4745L79.3633 15.3016ZM81.0235 15.901L81.5161 16.075L81.0933 17.2494C80.9332 17.1859 80.7733 17.1229 80.6096 17.0614L81.0235 15.901ZM82.6619 16.5576L83.1479 16.7487L82.6826 17.908C82.5244 17.8402 82.3658 17.7706 82.2068 17.7044L82.6619 16.5576ZM84.275 17.2694L84.7559 17.4775L84.2484 18.6249C84.0916 18.5505 83.9375 18.4758 83.7797 18.4032L84.275 17.2694ZM87.415 18.8619L87.8797 19.1026L87.2955 20.2092C87.1436 20.1249 86.9941 20.038 86.8425 19.9546L87.415 18.8619ZM88.946 19.7389L89.3999 19.9965L88.7775 21.0778C88.6303 20.9874 88.4804 20.9006 88.3326 20.8128L88.946 19.7389ZM90.4342 20.6676L90.879 20.9411L90.2225 21.9986C90.0781 21.9022 89.9338 21.8057 89.79 21.7129L90.4342 20.6676ZM91.8978 21.6506L92.334 21.9389L91.6394 22.9683C91.4997 22.8704 91.3566 22.7703 91.2148 22.6717L91.8978 21.6506ZM93.3283 22.6831L93.7529 22.9858L93.0263 23.9917C92.8892 23.8869 92.7513 23.781 92.6139 23.6768L93.3283 22.6831ZM94.7211 23.7638L95.1356 24.0813L94.3758 25.0598C94.2414 24.95 94.1057 24.8406 93.9725 24.7332L94.7211 23.7638ZM96.0752 24.8962L96.4801 25.2278L95.6882 26.1768C95.5595 26.0624 95.4306 25.9477 95.2979 25.8359L96.0752 24.8962ZM97.3899 26.0725L97.7802 26.418L96.9598 27.3363C96.8341 27.2182 96.7082 27.0997 96.5816 26.9833L97.3899 26.0725ZM98.6613 27.2944L99.0411 27.6529L98.1902 28.5393C98.0695 28.416 97.9492 28.2939 97.8254 28.1729L98.6613 27.2944ZM99.8921 28.5582L100.259 28.9312L99.3797 29.7844C99.2612 29.6576 99.1447 29.5282 99.0287 29.4035L99.8921 28.5582ZM101.075 29.8654L101.427 30.2515L100.526 31.0696C100.414 30.938 100.297 30.8116 100.181 30.6797L101.075 29.8654ZM102.212 31.2136L102.552 31.6106L101.621 32.3973C101.513 32.2627 101.409 32.125 101.297 31.9912L102.212 31.2136ZM103.304 32.5994L103.629 33.0094L102.674 33.7602C102.569 33.6212 102.465 33.4838 102.36 33.3459L103.304 32.5994ZM104.344 34.0239L104.654 34.4444L103.674 35.1616C103.577 35.0187 103.479 34.8765 103.38 34.7358L104.344 34.0239ZM105.35 35.4888L105.646 35.9195L104.633 36.6073C104.541 36.4606 104.45 36.3143 104.353 36.1709L105.35 35.4888ZM106.274 36.9755L106.556 37.4165L105.531 38.0615C105.443 37.9111 105.352 37.7651 105.263 37.6165L106.274 36.9755ZM107.162 38.4998L107.43 38.9496L106.379 39.5597C106.296 39.4079 106.214 39.2557 106.131 39.104L107.162 38.4998ZM107.995 40.0549L108.245 40.5128L107.176 41.0851C107.1 40.929 107.02 40.7773 106.941 40.6223L107.995 40.0549ZM108.773 41.6365L109.009 42.1019L107.915 42.6397C107.845 42.4819 107.772 42.3237 107.701 42.1678L108.773 41.6365ZM109.495 43.2438L109.713 43.7182L108.601 44.2178C108.533 44.0586 108.468 43.8985 108.398 43.7389L109.495 43.2438ZM110.161 44.8773L110.361 45.3597L109.233 45.8192C109.174 45.6569 109.109 45.4972 109.046 45.3359L110.161 44.8773ZM110.769 46.5336L110.952 47.0213L109.804 47.444C109.751 47.2794 109.696 47.1142 109.64 46.9513L110.769 46.5336ZM111.319 48.2085L111.486 48.7035L110.324 49.0855C110.273 48.9192 110.222 48.7542 110.172 48.5887L111.319 48.2085ZM111.811 49.9014L111.959 50.4024L110.783 50.7442C110.741 50.577 110.695 50.4097 110.651 50.2417L111.811 49.9014ZM112.241 51.6116L112.374 52.1171L111.182 52.4177C111.145 52.2505 111.108 52.0818 111.07 51.9131L112.241 51.6116ZM112.613 53.3371L112.728 53.8463L111.53 54.1045C111.5 53.935 111.464 53.7654 111.43 53.596L112.613 53.3371ZM112.924 55.0703L113.021 55.5849L111.812 55.8018C111.786 55.631 111.759 55.4589 111.732 55.2884L112.924 55.0703ZM113.174 56.8168L113.252 57.3329L112.035 57.5074C112.018 57.3368 111.996 57.165 111.974 56.9927L113.174 56.8168ZM113.358 58.5743L113.419 59.0919L112.197 59.2246C112.183 59.0537 112.168 58.8796 112.152 58.7087L113.358 58.5743ZM113.487 60.3341L113.529 60.8541L112.295 60.9431C112.289 60.771 112.283 60.5971 112.273 60.4248L113.487 60.3341ZM113.553 62.0951L113.577 62.6162L112.344 62.6656C112.342 62.4936 112.335 62.3199 112.333 62.1466L113.553 62.0951ZM113.559 63.8593L113.565 64.3806L112.322 64.386C112.327 64.2122 112.334 64.0408 112.338 63.8657L113.559 63.8593ZM113.502 65.62L113.488 66.1433L112.245 66.102C112.255 65.9299 112.263 65.7548 112.273 65.5824L113.502 65.62ZM113.385 67.3801L113.354 67.9053L112.106 67.8185C112.122 67.6472 112.141 67.4723 112.154 67.301L113.385 67.3801ZM113.204 69.1341L113.156 69.6567L111.907 69.5284C111.93 69.3548 111.952 69.1835 111.974 69.0128L113.204 69.1341ZM112.964 70.8823L112.898 71.4009L111.65 71.2291C111.679 71.0588 111.705 70.8869 111.731 70.7158L112.964 70.8823ZM112.682 72.634L112.597 73.1503L111.326 72.9301C111.362 72.7593 111.396 72.5904 111.43 72.4204L112.682 72.634ZM112.32 74.3607L112.218 74.8738L110.955 74.6099C110.995 74.4417 111.031 74.2722 111.071 74.1031L112.32 74.3607ZM111.898 76.0754L111.777 76.5834L110.513 76.2711C110.562 76.1063 110.609 75.9397 110.654 75.7727L111.898 76.0754ZM111.417 77.773L111.28 78.2761L110.022 77.922C110.075 77.7558 110.125 77.5904 110.176 77.423L111.417 77.773ZM110.877 79.4515L110.72 79.9501L109.472 79.5485L109.648 79.0587L110.877 79.4515ZM110.278 81.1097L110.107 81.6032L108.867 81.1557C108.931 80.9954 108.993 80.833 109.055 80.6731L110.278 81.1097ZM109.624 82.7473L109.435 83.236L108.206 82.7437C108.276 82.5853 108.343 82.4256 108.413 82.2654L109.624 82.7473ZM108.909 84.3613L108.704 84.8423L107.49 84.3075C107.565 84.1519 107.64 83.9949 107.713 83.8383L108.909 84.3613ZM108.129 85.9286L107.907 86.4008L106.73 85.8304C106.811 85.678 106.887 85.5219 106.963 85.3692L108.129 85.9286ZM107.304 87.4883L107.064 87.9513L105.907 87.3415C105.991 87.1896 106.078 87.0397 106.161 86.8886L107.304 87.4883ZM106.412 88.9971L106.155 89.4509L105.043 88.8126C105.132 88.6657 105.22 88.5142 105.307 88.366L106.412 88.9971ZM105.482 90.4952L105.213 90.9417L104.118 90.2623C104.214 90.1179 104.311 89.9744 104.404 89.8297L105.482 90.4952ZM104.502 91.9613L104.216 92.3965L103.148 91.6797C103.249 91.5401 103.343 91.3965 103.445 91.2531L104.502 91.9613ZM103.469 93.3914L103.168 93.816L102.125 93.0628C102.229 92.9253 102.338 92.7885 102.44 92.6497L103.469 93.3914ZM102.388 94.7828L102.073 95.1986L101.058 94.411C101.168 94.2764 101.277 94.1414 101.385 94.0061L102.388 94.7828ZM101.259 96.1374L100.929 96.5417L99.9429 95.7186C100.058 95.5895 100.173 95.4584 100.285 95.3284L101.259 96.1374ZM100.07 97.4277L99.7242 97.8196L98.7886 96.981C98.9088 96.8561 99.0257 96.7279 99.1416 96.6029L100.07 97.4277ZM98.847 98.6995L98.4904 99.0783L97.588 98.2117C97.7109 98.0911 97.832 97.9659 97.9558 97.8436L98.847 98.6995ZM97.5821 99.9269L97.2121 100.294L96.3402 99.3968C96.4687 99.2792 96.5963 99.1618 96.7216 99.0456L97.5821 99.9269ZM96.2757 101.111L95.8927 101.466L95.0574 100.542C95.1891 100.43 95.316 100.314 95.4471 100.199L96.2757 101.111ZM94.9308 102.245L94.5361 102.587L93.7315 101.634C93.8679 101.527 94.0047 101.421 94.1369 101.311L94.9308 102.245ZM93.5333 103.312L93.1259 103.64L92.3728 102.682C92.5136 102.579 92.65 102.471 92.7875 102.368L93.5333 103.312ZM92.1092 104.355L91.6887 104.666L90.9697 103.683C91.1124 103.586 91.257 103.486 91.3981 103.388L92.1092 104.355ZM90.6497 105.345L90.2247 105.641L89.5406 104.632C89.6877 104.54 89.8339 104.443 89.9777 104.349L90.6497 105.345ZM89.1601 106.281L88.7208 106.563L88.0737 105.533C88.2219 105.445 88.3705 105.356 88.5182 105.266L89.1601 106.281ZM87.6358 107.17L87.1864 107.433L86.5772 106.381C86.7288 106.299 86.8806 106.217 87.0323 106.133L87.6358 107.17ZM86.0832 108.001L85.6259 108.25L85.0523 107.18C85.2075 107.102 85.3618 107.021 85.5155 106.945L86.0832 108.001ZM84.5012 108.779L84.0355 109.011L83.4977 107.916C83.6552 107.846 83.8133 107.773 83.9701 107.701L84.5012 108.779ZM82.894 109.501L82.4186 109.717L81.9186 108.604C82.0787 108.538 82.24 108.471 82.3994 108.403L82.894 109.501ZM81.2612 110.166L80.7796 110.364L80.3163 109.234C80.4803 109.174 80.6413 109.11 80.8041 109.048L81.2612 110.166ZM79.6063 110.773L79.1182 110.956L78.6949 109.804C78.8599 109.75 79.0261 109.696 79.1876 109.64L79.6063 110.773ZM77.9318 111.324L77.4386 111.488L77.0557 110.325C77.2224 110.274 77.3874 110.223 77.5533 110.172L77.9318 111.324ZM76.2393 111.814L75.7399 111.963L75.3974 110.782C75.5654 110.74 75.7326 110.693 75.9007 110.65L76.2393 111.814ZM74.5309 112.246L74.0261 112.375L73.724 111.182C73.8944 111.144 74.0629 111.108 74.232 111.07L74.5309 112.246ZM72.8072 112.617L72.2994 112.73L72.0403 111.528C72.2107 111.499 72.3802 111.463 72.5501 111.428L72.8072 112.617ZM71.0656 112.9L70.5535 112.994L70.3421 111.811C70.5137 111.785 70.6846 111.76 70.8555 111.733L71.0656 112.9ZM69.3231 113.149L68.807 113.226L68.6362 112.036C68.8085 112.017 68.9807 111.996 69.1529 111.975L69.3231 113.149ZM67.5717 113.341L67.0536 113.397L66.9246 112.203L67.4423 112.157L67.5717 113.341ZM65.8174 113.466L65.2965 113.507L65.2087 112.302C65.3825 112.295 65.5551 112.289 65.728 112.28L65.8174 113.466ZM64.0564 113.533L63.5359 113.557L63.4896 112.349C63.6629 112.347 63.837 112.342 64.0099 112.338L64.0564 113.533ZM62.2955 113.538L61.7743 113.543L61.7701 112.329C61.944 112.334 62.1161 112.34 62.2899 112.343L62.2955 113.538ZM60.5349 113.482L60.0147 113.467L60.0544 112.251C60.2271 112.263 60.4014 112.272 60.5732 112.28L60.5349 113.482ZM58.776 113.364L58.255 113.332L58.3366 112.113C58.5096 112.13 58.6829 112.148 58.855 112.162L58.776 113.364ZM57.0208 113.157L56.5032 113.108L56.6237 111.914C56.7952 111.937 56.9662 111.961 57.1393 111.982L57.0208 113.157ZM55.2766 112.919L54.7596 112.85L54.9235 111.657L55.4363 111.74L55.2766 112.919ZM53.5432 112.617L53.0291 112.531L53.236 111.338C53.4053 111.372 53.5761 111.407 53.745 111.44L53.5432 112.617ZM51.819 112.257L51.3093 112.151L51.5549 110.963C51.7235 111.005 51.893 111.041 52.06 111.081L51.819 112.257ZM50.109 111.835L49.6026 111.712L49.8951 110.524C50.0631 110.572 50.2297 110.62 50.3962 110.665L50.109 111.835ZM48.415 111.329L47.9123 111.189L48.2391 110.032C48.4045 110.085 48.5706 110.135 48.7364 110.186L48.415 111.329ZM46.7386 110.788L46.2421 110.63L46.6109 109.483C46.7732 109.539 46.9365 109.597 47.101 109.655L46.7386 110.788ZM45.0818 110.191L44.5921 110.017L45.0021 108.877C45.1624 108.942 45.3219 109.003 45.4865 109.065L45.0818 110.191ZM43.4476 109.537L42.9636 109.345L43.4151 108.217C43.5738 108.287 43.7332 108.354 43.8919 108.422L43.4476 109.537ZM41.8366 108.825L41.3604 108.616L41.8515 107.501C42.0081 107.575 42.1638 107.649 42.3208 107.722L41.8366 108.825ZM40.2524 108.058L39.7835 107.833L40.314 106.733C40.4667 106.814 40.621 106.891 40.776 106.971L40.2524 108.058ZM38.6944 107.236L38.2332 106.994L38.804 105.912C38.9546 105.997 39.1051 106.085 39.2571 106.167L38.6944 107.236ZM37.17 106.336L36.7163 106.079L37.3129 105.037C37.4606 105.129 37.6104 105.214 37.7591 105.303L37.17 106.336ZM35.6757 105.407L35.2321 105.134L35.8673 104.111C36.0117 104.208 36.1552 104.305 36.3009 104.401L35.6757 105.407ZM34.2142 104.428L33.7806 104.139L34.4486 103.14C34.59 103.243 34.7327 103.339 34.874 103.438L34.2142 104.428ZM32.7806 103.421L32.3573 103.119L33.0767 102.125C33.2152 102.231 33.3497 102.336 33.4899 102.441L32.7806 103.421ZM31.3896 102.341L30.9768 102.025L31.7257 101.058C31.8586 101.167 31.9944 101.277 32.13 101.386L31.3896 102.341ZM30.0384 101.214L29.6355 100.882L30.4186 99.9431C30.5477 100.058 30.6763 100.172 30.8088 100.285L30.0384 101.214ZM28.7197 100.064L28.3326 99.7183L29.1601 98.7922C29.2859 98.9108 29.4114 99.0298 29.5382 99.1452L28.7197 100.064ZM27.4497 98.8434L27.071 98.4855L27.929 97.5903C28.051 97.7161 28.1732 97.8367 28.2976 97.9598L27.4497 98.8434ZM26.2288 97.5569L25.8637 97.1867L26.7361 96.3369C26.8541 96.4653 26.9715 96.593 27.0896 96.7185L26.2288 97.5569ZM25.0464 96.2538L24.6944 95.8698L25.5922 95.0553C25.7046 95.1869 25.8212 95.3134 25.9348 95.4455L25.0464 96.2538ZM23.9108 94.9059L23.5725 94.5116L24.5051 93.7282C24.6119 93.8629 24.7186 94.0013 24.8276 94.1339L23.9108 94.9059ZM22.8221 93.5231L22.4979 93.1165L23.4497 92.3666C23.5523 92.5058 23.658 92.6427 23.764 92.7808L22.8221 93.5231ZM21.7829 92.1025L21.4735 91.6816L22.4516 90.9672C22.5493 91.1098 22.6474 91.2517 22.7459 91.3928L21.7829 92.1025ZM20.7932 90.6463L20.5005 90.2155L21.5008 89.5342C21.5942 89.6809 21.6881 89.8267 21.7824 89.9716L20.7932 90.6463ZM19.8593 89.155L19.5807 88.7167L20.602 88.0716C20.6906 88.2203 20.781 88.3684 20.8697 88.517L19.8593 89.155ZM18.9716 87.6338L18.7101 87.1855L19.7568 86.5744C19.8399 86.728 19.9225 86.8799 20.0064 87.0314L18.9716 87.6338ZM18.1413 86.0827L17.8942 85.6249L18.9606 85.0522C19.0382 85.2075 19.1182 85.3616 19.1962 85.5154L18.1413 86.0827ZM17.3646 84.5002L17.133 84.0363L18.224 83.4992C18.2951 83.6565 18.3675 83.8148 18.4394 83.9714L17.3646 84.5002ZM16.6428 82.893L16.4283 82.4191L17.5381 81.9208C17.6042 82.0815 17.6718 82.2394 17.7398 82.3986L16.6428 82.893ZM15.9783 81.2635L15.7806 80.7817L16.9084 80.3219C16.969 80.4834 17.0319 80.6441 17.0944 80.8069L15.9783 81.2635ZM15.3707 79.61L15.1905 79.1224L16.3406 78.7003C16.3954 78.864 16.4483 79.0293 16.505 79.1929L15.3707 79.61ZM14.8205 77.9385L14.6591 77.4437L15.8184 77.0624C15.8692 77.2283 15.9198 77.3938 15.9704 77.5588L14.8205 77.9385ZM14.3315 76.2469L14.1846 75.7471L15.3602 75.4068C15.4031 75.5732 15.4487 75.7402 15.493 75.9081L14.3315 76.2469ZM13.9024 74.5392L13.7736 74.0344L14.9629 73.7344C15.0001 73.9035 15.0366 74.0714 15.0762 74.2393L13.9024 74.5392ZM13.5318 72.8178L13.4204 72.3101L14.6164 72.0502C14.6479 72.2206 14.6838 72.3896 14.7174 72.5593L13.5318 72.8178ZM13.2201 71.085L13.127 70.5726L14.3345 70.3551C14.3596 70.5256 14.3839 70.6968 14.4125 70.8685L13.2201 71.085ZM12.9675 69.3416L12.8918 68.828L14.1072 68.6528C14.1275 68.8247 14.1479 68.9956 14.1709 69.1672L12.9675 69.3416ZM12.78 67.5918L12.7216 67.0748L13.9408 66.9429C13.9539 67.1142 13.9716 67.287 13.9861 67.4597L12.78 67.5918ZM12.6513 65.8363L12.6106 65.3176L13.8408 65.2264C13.8472 65.4002 13.8529 65.5719 13.8628 65.7451L12.6513 65.8363ZM12.5837 64.0756L12.5626 63.5551L13.7937 63.5063C13.7939 63.6783 13.8008 63.8524 13.8028 64.0257L12.5837 64.0756ZM12.5784 62.3145L12.5745 61.7935L13.8123 61.7895C13.8079 61.962 13.8009 62.1352 13.7989 62.3093L12.5784 62.3145ZM12.6355 60.5551L12.6501 60.0349L13.889 60.0728C13.8776 60.2455 13.868 60.4177 13.8602 60.5912L12.6355 60.5551ZM12.7628 58.7862L12.7957 58.2675L14.0263 58.3487C14.0097 58.5212 13.9946 58.6941 13.9788 58.8658L12.7628 58.7862ZM12.9519 57.0233L13.0029 56.5057L14.2275 56.6285C14.2046 56.8001 14.181 56.9709 14.161 57.143L12.9519 57.0233ZM13.1915 55.2797L13.2609 54.7639L14.4841 54.9312C14.4557 55.1017 14.4298 55.2727 14.4013 55.4432L13.1915 55.2797ZM13.4925 53.5468L13.5788 53.0342L14.8041 53.245C14.7693 53.4146 14.7325 53.5838 14.6997 53.7537L13.4925 53.5468ZM13.8532 51.8251L13.9579 51.3144L15.1778 51.5704C15.1352 51.7377 15.0983 51.9065 15.0592 52.0756L13.8532 51.8251ZM14.2738 50.1155L14.3959 49.6094L15.6124 49.9082C15.5653 50.0735 15.5186 50.24 15.4724 50.4076L14.2738 50.1155ZM14.7532 48.4217L14.8931 47.9218L16.1017 48.2634C16.0481 48.4284 15.9984 48.5936 15.9491 48.7587L14.7532 48.4217ZM15.2926 46.748L15.451 46.2532L16.6468 46.6371C16.5883 46.7999 16.5294 46.9628 16.4739 47.126L15.2926 46.748ZM15.8896 45.0923L16.064 44.6038L17.2537 45.0308C17.1895 45.1918 17.1268 45.3527 17.0655 45.5137L15.8896 45.0923ZM16.5445 43.4587L16.7358 42.9782L17.911 43.448C17.8415 43.6067 17.7738 43.7653 17.7064 43.9251L16.5445 43.4587ZM17.2552 41.8483L17.4628 41.3735L18.6248 41.8845C18.5509 42.0412 18.4749 42.1972 18.4026 42.3543L17.2552 41.8483ZM18.0295 40.2587L18.255 39.7903L19.3936 40.3398C19.3126 40.493 19.2362 40.6477 19.1598 40.8009L18.0295 40.2587ZM18.8523 38.7007L19.0932 38.2425L20.2146 38.832C20.1299 38.9827 20.0424 39.1332 19.9599 39.285L18.8523 38.7007ZM19.7272 37.1746L19.9828 36.725L21.0807 37.3527C20.9912 37.4996 20.9052 37.6492 20.8157 37.7976L19.7272 37.1746ZM20.654 35.679L20.9256 35.2386L22.0055 35.9055C21.9093 36.0507 21.8122 36.1929 21.7189 36.3383L20.654 35.679ZM21.6335 34.216L21.9198 33.7856L22.9732 34.4897C22.8728 34.6306 22.7744 34.7728 22.6767 34.9147L21.6335 34.216ZM22.6633 32.7905L22.9653 32.3699L23.9926 33.1096C23.8871 33.2469 23.7821 33.3844 23.6777 33.522L22.6633 32.7905ZM23.735 31.4052L24.0514 30.9962L25.0509 31.7711C24.9417 31.9044 24.8329 32.039 24.7257 32.174L23.735 31.4052ZM24.8622 30.0541L25.1925 29.6552L26.1631 30.4629C26.0488 30.5917 25.9353 30.7223 25.8227 30.8546L24.8622 30.0541ZM26.035 28.7419L26.3789 28.3553L27.3184 29.1927L26.9653 29.5708L26.035 28.7419ZM27.2542 27.4736L27.6116 27.0993L28.5165 27.9661C28.3935 28.0881 28.2722 28.211 28.1508 28.3335L27.2542 27.4736ZM28.5163 26.248L28.8864 25.8858L29.7604 26.7821C29.6328 26.8995 29.504 27.0163 29.3778 27.1337L28.5163 26.248ZM29.8197 25.0651L30.2041 24.7177L31.0399 25.6375C30.9088 25.7512 30.782 25.8669 30.65 25.9809L29.8197 25.0651ZM31.169 23.9281L31.5652 23.593L32.3686 24.5419C32.2333 24.6495 32.0959 24.7567 31.9622 24.8666L31.169 23.9281ZM32.5543 22.8411L32.9602 22.5208L33.7262 23.4915C33.5869 23.5955 33.4506 23.7001 33.3136 23.8053L32.5543 22.8411ZM33.9735 21.8022L34.3909 21.4967L35.1209 22.492C34.9782 22.591 34.8367 22.6892 34.6959 22.7881L33.9735 21.8022ZM35.4293 20.8154L35.8575 20.5221L36.5501 21.541C36.405 21.6352 36.2598 21.7289 36.1151 21.8243L35.4293 20.8154ZM36.9187 19.8788L37.3555 19.6012L38.0112 20.6403C37.862 20.7288 37.7142 20.8182 37.5677 20.9083L36.9187 19.8788ZM38.4391 18.9942L38.8868 18.7324L39.5063 19.7943C39.3547 19.8778 39.2011 19.9581 39.0499 20.0429L38.4391 18.9942ZM39.9897 18.164L40.4461 17.9183L41.0265 18.9979C40.8716 19.0753 40.7182 19.1561 40.5641 19.2332L39.9897 18.164ZM41.5693 17.3873L42.0325 17.1578L42.5755 18.2573C42.4187 18.3301 42.2599 18.4008 42.1041 18.4752L41.5693 17.3873ZM43.1735 16.6678L43.6455 16.453L44.1496 17.5728C43.9899 17.639 43.8303 17.7057 43.6713 17.7745L43.1735 16.6678ZM44.8025 16.003L45.2827 15.8063L45.7456 16.9397C45.5835 16.9996 45.4233 17.0646 45.2614 17.1268L44.8025 16.003ZM46.4544 15.3964L46.939 15.2171L47.3667 16.3673C47.2027 16.4213 47.038 16.4741 46.8748 16.5306L46.4544 15.3964ZM48.1257 14.8471L48.6177 14.6843L49.0017 15.8493C48.8358 15.9001 48.6712 15.9505 48.5054 16.0013L48.1257 14.8471ZM84.3736 25.4636C84.8142 25.7098 85.2667 25.9613 85.6947 26.2339C85.908 25.8873 86.1219 25.539 86.3362 25.1889C86.0703 25.0186 85.8044 24.8497 85.5421 24.682C85.7275 24.3689 85.9098 24.0566 86.0957 23.7419C86.5134 24.0099 86.9306 24.2773 87.3473 24.5441C87.4947 24.6396 87.6396 24.7331 87.7896 24.8264C87.6932 24.9801 87.5936 25.1339 87.4963 25.2861L86.8746 26.264C86.6672 26.5882 86.2907 27.1788 86.0823 27.5042C86.0705 27.5223 86.0602 27.5405 86.0518 27.5576C85.3106 27.0781 84.5518 26.6228 83.7839 26.1894L84.3736 25.4636ZM51.7 22.2958C51.6945 22.2778 51.6893 22.2611 51.6841 22.244C51.4923 21.5916 51.207 20.6368 51.0147 19.9831C50.8225 19.3294 50.6305 18.6761 50.4385 18.0233C49.7635 18.2337 49.0895 18.4447 48.4163 18.6561L46.3932 19.2888C46.6 19.8419 46.805 20.3979 47.0102 20.9515C47.2153 21.5052 47.4456 22.1392 47.6502 22.6926C48.2181 22.4788 48.8034 22.2457 49.3912 22.0615C49.2622 21.6739 49.1313 21.2865 49.0022 20.8985L48.101 21.181C47.9806 20.8378 47.8599 20.4948 47.7389 20.1518L49.1588 19.7076C49.3251 19.6567 49.4915 19.6029 49.6577 19.5516C49.7132 19.7221 49.7688 19.8977 49.8221 20.0703C49.9381 20.4384 50.0558 20.8074 50.1717 21.1751C50.2876 21.5428 50.4968 22.2123 50.6122 22.5802C50.6153 22.59 50.6187 22.6012 50.6218 22.6114C50.5562 22.6315 50.4911 22.6515 50.4247 22.6718C49.2645 23.035 48.131 23.4482 47.0265 23.8999C46.2686 24.211 45.5241 24.5415 44.793 24.8913C44.7855 24.8758 44.7764 24.8599 44.7684 24.8445C44.4665 24.2338 44.0201 23.3438 43.7173 22.7333C43.4146 22.1229 43.1127 21.5121 42.8092 20.9019C42.1822 21.2273 41.5552 21.5522 40.9282 21.8764C40.3011 22.2006 39.6737 22.5255 39.0459 22.8512C39.346 23.3612 39.6438 23.8729 39.9419 24.3826C40.24 24.8923 40.5776 25.4757 40.8744 25.9858C41.3968 25.6772 41.9324 25.3459 42.4803 25.0623C42.285 24.703 42.0895 24.3447 41.8948 23.9843C41.615 24.13 41.3351 24.2738 41.0563 24.4183C40.8772 24.1028 40.6985 23.7862 40.5203 23.4685L41.8401 22.7831C41.9942 22.7031 42.1499 22.6222 42.3051 22.5428C42.3898 22.7044 42.4736 22.8662 42.5573 23.0248C42.735 23.3685 42.9134 23.7113 43.0925 24.0531C43.2698 24.3949 43.5924 25.0166 43.771 25.3595C43.774 25.3693 43.7809 25.378 43.7853 25.3879C42.6444 25.971 41.5386 26.6015 40.468 27.2794C39.7764 27.7175 39.101 28.1732 38.4419 28.6466C38.4308 28.6317 38.4181 28.6164 38.4081 28.6021C38.0056 28.0531 37.41 27.2534 37.0055 26.7055C36.601 26.1576 36.1981 25.6087 35.7936 25.0608C35.2329 25.4903 34.6717 25.9194 34.11 26.3479L32.4254 27.6345C32.8094 28.0844 33.1923 28.5351 33.574 28.9864C33.9559 29.4362 34.3896 29.9522 34.7713 30.4011C35.2305 30.0069 35.7015 29.587 36.19 29.2166C35.9356 28.8961 35.6813 28.5761 35.4272 28.2567C35.1756 28.4467 34.9263 28.6384 34.6753 28.8291C34.4444 28.5497 34.2144 28.2671 33.9832 27.9867C34.3769 27.6862 34.7706 27.3855 35.1644 27.0845L35.5803 26.7664C35.6923 26.9102 35.8021 27.0543 35.9124 27.1987C36.146 27.5022 36.3836 27.8114 36.6157 28.1178C36.8478 28.4241 37.2768 28.9799 37.5107 29.2861C37.5186 29.2964 37.5263 29.3062 37.5344 29.3159C36.5158 30.0882 35.5381 30.9033 34.6013 31.7611C33.9987 32.3113 33.4132 32.8775 32.8445 33.4598C32.8278 33.4433 32.8102 33.4271 32.793 33.4108C32.3022 32.9409 31.577 32.2568 31.0837 31.7877C30.5903 31.3186 30.0978 30.8477 29.6039 30.3769C29.126 30.8983 28.6479 31.4183 28.1695 31.937C27.6911 32.4557 27.2129 32.9756 26.7349 33.4967C27.1901 33.873 27.6447 34.2495 28.0985 34.6262C28.5532 35.0026 29.0708 35.4362 29.5232 35.8143C29.909 35.3459 30.2993 34.8509 30.7163 34.3969C30.4101 34.1255 30.1049 33.8561 29.7985 33.5843L29.1585 34.2791C28.8827 34.0426 28.6071 33.8061 28.3319 33.5698L29.3388 32.4748C29.4573 32.3476 29.5752 32.2182 29.6938 32.0909C29.8284 32.2124 29.9622 32.3369 30.0958 32.4577C30.3797 32.7191 30.6655 32.9803 30.9495 33.2403L32.0344 34.2357C32.0471 34.2482 32.0588 34.2587 32.0724 34.2709C31.2452 35.1652 30.4593 36.0923 29.7147 37.0523C29.18 37.7401 28.6639 38.4429 28.1735 39.1622C28.1503 39.1463 28.1267 39.1319 28.1037 39.1165C27.5376 38.739 26.7059 38.1907 26.1376 37.8138C25.5694 37.437 25.0039 37.0598 24.4364 36.6823C24.0562 37.2778 23.6757 37.8725 23.295 38.4663C22.9143 39.0601 22.5339 39.6551 22.1539 40.2512C22.6682 40.5447 23.1816 40.8372 23.694 41.1287C24.2057 41.4221 24.7915 41.7584 25.304 42.051C25.6024 41.5237 25.9001 40.9679 26.2322 40.4495C25.8852 40.2351 25.5357 40.0229 25.1862 39.8078C25.0171 40.0729 24.8465 40.338 24.6769 40.6032C24.3641 40.4177 24.0518 40.2321 23.7378 40.047C24.0045 39.629 24.2719 39.2116 24.5399 38.7949C24.6343 38.6478 24.7281 38.5006 24.8215 38.3533C24.9764 38.4512 25.1298 38.5488 25.2814 38.6461C25.6062 38.8532 25.9321 39.0605 26.2594 39.2678C26.5835 39.4751 27.1741 39.8531 27.4987 40.0603C27.5175 40.0728 27.5364 40.0839 27.5561 40.0947C26.896 41.1172 26.2804 42.1652 25.7094 43.2385C25.3011 44.0077 24.9166 44.7891 24.5558 45.5827C24.529 45.5703 24.502 45.5603 24.4745 45.5485C23.8518 45.2737 22.9371 44.8787 22.3112 44.6073C21.6852 44.3358 21.0629 44.0613 20.4377 43.7877C20.1667 44.4398 19.8953 45.0919 19.6234 45.7439C19.3514 46.396 19.0799 47.0483 18.8087 47.7007C19.3656 47.8982 19.9229 48.0984 20.4783 48.2972C21.0338 48.496 21.6686 48.7259 22.2229 48.9256C22.4231 48.3547 22.6226 47.7554 22.8591 47.1866C22.4792 47.0362 22.0988 46.8883 21.7192 46.7387C21.5983 47.0298 21.4755 47.3206 21.3556 47.6104L20.3355 47.2276L20.9091 45.8551C20.9755 45.6941 21.0446 45.5323 21.1098 45.3717C21.2788 45.4414 21.4465 45.5115 21.6143 45.5801C21.9722 45.7283 22.3287 45.8761 22.6838 46.0233C23.0402 46.1706 23.6872 46.4403 24.0436 46.5876L24.1073 46.615C23.6108 47.7861 23.1671 48.979 22.7762 50.1935C22.5261 50.9676 22.3021 51.7501 22.0975 52.5394C22.0722 52.5331 22.0473 52.5285 22.0221 52.5227C21.3606 52.3619 20.3914 52.1313 19.7296 51.9711L17.7429 51.4891L17.2801 53.557C17.1264 54.246 16.972 54.9354 16.8169 55.6251C17.4011 55.7244 17.9838 55.8238 18.5649 55.9234C19.148 56.0224 19.8111 56.1395 20.3931 56.2383C20.4916 55.6414 20.5817 55.017 20.7178 54.4161C20.3176 54.3338 19.9179 54.2532 19.5174 54.17C19.4495 54.478 19.3806 54.7854 19.3108 55.0921L18.2393 54.8919L18.5639 53.4414C18.6017 53.271 18.6405 53.1006 18.679 52.9309C18.857 52.9701 19.0315 53.0104 19.2108 53.0493C19.5877 53.1336 19.9652 53.2167 20.3412 53.3009C20.7171 53.385 21.4034 53.5381 21.7782 53.6198C21.7974 53.6228 21.8136 53.6268 21.8316 53.6306C21.5454 54.8687 21.3149 56.1204 21.1402 57.3859C21.0297 58.1917 20.9421 59.0017 20.8773 59.816C20.8572 59.8146 20.8367 59.8134 20.8168 59.8129C20.1379 59.7681 19.1446 59.71 18.463 59.6674C17.7815 59.6248 17.1041 59.5805 16.4236 59.5381C16.3918 60.2438 16.3597 60.9493 16.3273 61.6546C16.2948 62.3599 16.2595 63.0642 16.2214 63.7675L17.9944 63.7571C18.5854 63.7534 19.2589 63.7529 19.8505 63.7513C19.8432 63.1441 19.8252 62.5144 19.8525 61.8994C19.4443 61.889 19.0362 61.8789 18.6265 61.867C18.6133 62.1819 18.5977 62.497 18.5835 62.8103C18.2208 62.8079 17.856 62.8029 17.4935 62.8009C17.5159 62.3056 17.5381 61.8101 17.5601 61.3146C17.5685 61.1414 17.5763 60.9665 17.5872 60.7906C17.7684 60.7975 17.95 60.8057 18.1304 60.8118C18.5164 60.8292 18.9024 60.8459 19.2882 60.8618L20.7612 60.9264C20.7732 60.9276 20.7853 60.9282 20.7973 60.928C20.7315 62.193 20.7234 63.4648 20.7731 64.7434C20.7736 64.7439 20.774 64.7445 20.7742 64.7452C20.7744 64.7459 20.7744 64.7466 20.7743 64.7473C20.8069 65.5596 20.8597 66.3736 20.9401 67.1886L20.8869 67.1941C20.2107 67.2699 19.2197 67.3849 18.5438 67.4602L16.5137 67.6875C16.6034 68.3886 16.6929 69.089 16.7822 69.7889C16.8715 70.4888 16.9626 71.1896 17.0556 71.8912C17.6364 71.7841 18.2189 71.6793 18.7992 71.572C19.3795 71.4646 20.0438 71.3498 20.6252 71.2444C20.5139 70.6484 20.3859 70.0313 20.3061 69.4201C19.902 69.4813 19.4975 69.5413 19.0926 69.5999C19.1343 69.912 19.174 70.2238 19.2147 70.5376C18.8577 70.5963 18.4975 70.6555 18.1391 70.716C18.0752 70.2246 18.0114 69.733 17.9477 69.2412C17.9258 69.0689 17.9036 68.8952 17.8822 68.7213C18.0622 68.6966 18.2427 68.6737 18.4228 68.6495C18.8047 68.5986 19.1885 68.5477 19.5703 68.4978C19.9521 68.4479 20.6491 68.3573 21.0301 68.3063C21.041 68.3053 21.0519 68.3024 21.0625 68.302C21.2174 69.555 21.4347 70.808 21.7066 72.0618L21.7079 72.0661C21.8799 72.8572 22.0753 73.6487 22.2944 74.4405C22.2776 74.4456 22.2592 74.4512 22.2416 74.4566C21.5881 74.6478 20.6338 74.933 19.9804 75.1246C19.327 75.3163 18.6735 75.5094 18.0198 75.7016C18.231 76.3757 18.4416 77.0499 18.6518 77.724C18.862 78.3981 19.0733 79.0724 19.2857 79.7468C19.8403 79.5401 20.3942 79.3344 20.9475 79.1296C21.5024 78.9241 22.1352 78.6942 22.6894 78.4893C22.4761 77.9213 22.2427 77.3365 22.0588 76.7482C21.6708 76.8774 21.2842 77.0079 20.895 77.1365C20.9876 77.4386 21.0829 77.7376 21.177 78.0388C20.8347 78.1596 20.4913 78.2797 20.1482 78.4007C20.0006 77.928 19.8527 77.4552 19.7044 76.9821C19.6532 76.815 19.602 76.6478 19.5481 76.4824C19.7216 76.426 19.8954 76.3719 20.0681 76.3176L21.1719 75.9693C21.54 75.8533 22.209 75.6437 22.577 75.5273L22.6096 75.5173C22.6298 75.5833 22.6503 75.6502 22.6705 75.7162C23.0338 76.8767 23.4454 78.008 23.898 79.1126C24.2082 79.8699 24.5399 80.6164 24.8889 81.3472L24.8406 81.3718C24.2299 81.6737 23.3396 82.1221 22.7293 82.4239C22.119 82.7256 21.5079 83.028 20.8976 83.3312C21.2237 83.9598 21.547 84.5856 21.872 85.2122C22.1971 85.8388 22.5227 86.469 22.8469 87.0945C23.3575 86.7947 23.8676 86.4978 24.3768 86.1999C24.8861 85.9019 25.4701 85.5632 25.9808 85.2666C25.6723 84.7446 25.3404 84.2073 25.0572 83.6621C24.6981 83.8571 24.3388 84.0523 23.9792 84.2477C24.1238 84.5259 24.2689 84.8052 24.4143 85.0853L23.4644 85.6204C23.236 85.1808 23.0072 84.7399 22.779 84.3007C22.6988 84.1461 22.6193 83.9905 22.5389 83.8365C22.7004 83.7519 22.862 83.6672 23.024 83.5839L24.0509 83.0472C24.3934 82.8706 25.015 82.5476 25.3576 82.3696C25.3672 82.3637 25.3772 82.3584 25.3875 82.3539C25.9701 83.4943 26.6007 84.5997 27.2791 85.6702C27.7167 86.3632 28.1721 87.0391 28.6454 87.698C28.6309 87.7104 28.6156 87.7216 28.6007 87.7342C28.0526 88.1364 27.2522 88.7312 26.7041 89.1353C26.1561 89.5394 25.6072 89.9423 25.0592 90.3464C25.4889 90.9077 25.9175 91.4689 26.3449 92.0299C26.7724 92.591 27.2014 93.1525 27.6319 93.7144C28.0826 93.3308 28.5333 92.9481 28.9839 92.5663C29.4346 92.1841 29.9499 91.7497 30.3989 91.3698C30.0056 90.909 29.5854 90.4385 29.2119 89.9519L28.2519 90.7147C28.4428 90.9647 28.6337 91.215 28.8245 91.4656C28.5451 91.6965 28.2626 91.927 27.9826 92.1576C27.6828 91.7643 27.3817 91.3707 27.0795 90.9766C26.9747 90.8395 26.8686 90.6981 26.7637 90.5577C26.9074 90.4466 27.052 90.3372 27.1961 90.226L28.1143 89.5229C28.4208 89.2884 28.9776 88.8625 29.2833 88.6268L29.3127 88.6033C30.0853 89.6221 30.8992 90.5986 31.7544 91.5328C31.7555 91.534 31.7566 91.5353 31.7578 91.5364C32.3086 92.1409 32.8747 92.7272 33.4562 93.2951C33.4403 93.3108 33.425 93.3281 33.409 93.3461C32.9376 93.8383 32.2531 94.5622 31.7835 95.0557C31.314 95.5492 30.8439 96.041 30.3743 96.5359C30.8956 97.0135 31.4153 97.4915 31.9333 97.9698C32.4514 98.448 32.9713 98.9264 33.4931 99.4048C33.8709 98.9494 34.2473 98.4946 34.6223 98.0403C34.999 97.5865 35.433 97.0687 35.8106 96.6147C35.3421 96.2298 34.8468 95.84 34.3942 95.4231C34.1225 95.7299 33.8529 96.036 33.5803 96.3413C33.8121 96.5544 34.044 96.7676 34.2759 96.981C34.0399 97.2558 33.8031 97.5327 33.567 97.8075C33.2024 97.4724 32.8368 97.1357 32.4721 96.802C32.3437 96.6829 32.2153 96.5646 32.0868 96.447C32.2091 96.3106 32.3322 96.1769 32.4547 96.0442C32.7155 95.7599 32.9762 95.4738 33.237 95.1896C33.4978 94.9053 33.9723 94.3883 34.2318 94.1044C34.2438 94.0928 34.2553 94.0799 34.2675 94.0677C35.1648 94.8977 36.0954 95.6857 37.0592 96.4316C37.7442 96.9643 38.4441 97.476 39.1587 97.9666C39.1448 97.9901 39.1295 98.0136 39.1149 98.0377C38.7372 98.6034 38.1885 99.4352 37.811 100.001L36.6797 101.703C37.2752 102.084 37.8691 102.464 38.4641 102.848C39.0591 103.231 39.6547 103.608 40.2494 103.988C40.5414 103.472 40.8338 102.959 41.1267 102.448C41.42 101.936 41.7561 101.351 42.0487 100.837C41.5214 100.54 40.9647 100.241 40.4466 99.9096C40.2338 100.259 40.0197 100.605 39.8053 100.955C40.0714 101.126 40.3365 101.294 40.6014 101.465C40.4156 101.777 40.23 102.09 40.0473 102.403C39.6297 102.136 39.2114 101.868 38.7946 101.602C38.6477 101.506 38.5016 101.41 38.3531 101.32C38.4503 101.166 38.5483 101.011 38.6455 100.861C38.8533 100.535 39.0606 100.207 39.2677 99.8825C39.4748 99.5575 39.8528 98.9673 40.0599 98.6423C40.0712 98.6225 40.0822 98.605 40.0939 98.585C41.1158 99.245 42.1635 99.8597 43.237 100.429C44.0065 100.839 44.7877 101.224 45.5803 101.583C45.5699 101.609 45.5591 101.636 45.5472 101.66C45.2744 102.283 44.879 103.198 44.6059 103.824C44.3329 104.449 44.0611 105.071 43.7871 105.696C44.4395 105.965 45.0913 106.237 45.7423 106.511L47.6997 107.326C47.8984 106.768 48.0973 106.211 48.2963 105.655C48.4955 105.099 48.7252 104.465 48.9244 103.909C48.354 103.709 47.7541 103.511 47.1858 103.275C47.0358 103.654 46.886 104.035 46.7362 104.416C47.0262 104.535 47.3166 104.657 47.608 104.779C47.4802 105.118 47.3527 105.458 47.2254 105.8C46.7674 105.609 46.3098 105.419 45.8527 105.228C45.6915 105.161 45.5299 105.093 45.3691 105.027C45.4379 104.858 45.5075 104.69 45.5779 104.522L46.0206 103.453C46.1686 103.096 46.4373 102.448 46.5851 102.093C46.5927 102.074 46.6001 102.054 46.6093 102.035C47.7808 102.53 48.9733 102.974 50.1868 103.366C50.9616 103.616 51.7437 103.843 52.5333 104.046C52.5285 104.07 52.5231 104.094 52.5174 104.118C52.3554 104.777 52.1259 105.748 51.9649 106.409C51.8039 107.07 51.6452 107.733 51.4838 108.396C52.1746 108.55 52.8619 108.705 53.5512 108.86C54.2404 109.015 54.9306 109.167 55.6197 109.321L55.9177 107.573C56.0168 106.99 56.1335 106.328 56.2331 105.746C55.6361 105.647 55.0118 105.557 54.4107 105.421C54.3284 105.821 54.2478 106.22 54.1653 106.623C54.4725 106.692 54.78 106.761 55.0876 106.831C55.021 107.187 54.9543 107.543 54.8876 107.901C54.4046 107.794 53.9195 107.685 53.4364 107.576C53.2662 107.539 53.0949 107.5 52.9264 107.462C52.9656 107.284 53.0048 107.106 53.0444 106.929C53.1287 106.552 53.2114 106.175 53.296 105.799C53.3805 105.423 53.5336 104.738 53.6149 104.362C53.619 104.346 53.6214 104.329 53.6245 104.312C54.8628 104.599 56.1146 104.83 57.3797 105.003C58.1855 105.114 58.9957 105.202 59.8103 105.268L59.8075 105.323C59.7628 106.002 59.7037 106.995 59.6622 107.678C59.6208 108.36 59.5764 109.037 59.5326 109.716C60.2392 109.75 60.9449 109.782 61.6496 109.814C62.3542 109.845 63.0599 109.877 63.7664 109.91C63.7622 109.317 63.7588 108.726 63.7563 108.137C63.7532 107.547 63.7521 106.873 63.7507 106.282C63.1429 106.287 62.5148 106.308 61.8986 106.279C61.8883 106.688 61.8784 107.096 61.867 107.508C62.1811 107.52 62.4957 107.536 62.8111 107.551C62.8067 107.913 62.8035 108.278 62.8001 108.642C62.3057 108.619 61.8099 108.595 61.3154 108.574C61.1407 108.564 60.966 108.557 60.7914 108.547C60.7985 108.366 60.8055 108.184 60.8122 108.002C60.8306 107.618 60.8462 107.23 60.8629 106.845C60.8796 106.461 60.9119 105.761 60.9286 105.376C60.9293 105.364 60.9287 105.353 60.9294 105.342C62.1936 105.408 63.4641 105.417 64.741 105.367L64.744 105.366C64.7446 105.366 64.7452 105.365 64.746 105.365C64.7467 105.365 64.7475 105.365 64.7483 105.365C65.5599 105.333 66.374 105.281 67.1894 105.2C67.1908 105.218 67.1932 105.234 67.1951 105.251C67.27 105.927 67.386 106.919 67.461 107.595C67.5359 108.271 67.612 108.947 67.6874 109.625C68.3884 109.533 69.089 109.443 69.7893 109.353C70.4896 109.264 71.19 109.173 71.8905 109.08C71.7838 108.499 71.6776 107.917 71.572 107.336C71.4668 106.755 71.3499 106.091 71.2438 105.51C70.6485 105.621 70.0302 105.751 69.4194 105.829C69.4788 106.233 69.5395 106.636 69.5994 107.04C69.9106 107 70.2238 106.96 70.536 106.919C70.5952 107.276 70.6543 107.636 70.7144 107.995C70.2231 108.059 69.7317 108.121 69.2409 108.187C69.0678 108.208 68.8939 108.23 68.7213 108.253C68.6967 108.073 68.6725 107.893 68.6496 107.712C68.5994 107.329 68.5486 106.946 68.4986 106.564C68.4486 106.182 68.3568 105.488 68.3062 105.104C68.3056 105.094 68.3042 105.085 68.302 105.075C69.5554 104.92 70.8092 104.702 72.0615 104.43L72.0667 104.429C72.8578 104.257 73.6492 104.061 74.4406 103.842C74.4455 103.858 74.4509 103.876 74.4558 103.892C74.6469 104.545 74.9317 105.501 75.124 106.154C75.3164 106.806 75.5079 107.461 75.6998 108.114C76.3746 107.902 77.0488 107.692 77.7227 107.483C78.3969 107.27 79.0697 107.06 79.7459 106.847C79.5383 106.294 79.3332 105.739 79.1289 105.186C78.9245 104.634 78.6915 103.998 78.489 103.445C77.9199 103.658 77.3353 103.893 76.7473 104.073C76.8761 104.461 77.0065 104.847 77.1359 105.238C77.435 105.143 77.7341 105.048 78.0375 104.955C78.1584 105.298 78.2781 105.641 78.3991 105.982C77.9259 106.133 77.4531 106.281 76.9805 106.428C76.8142 106.479 76.6467 106.53 76.4809 106.584C76.4242 106.41 76.3706 106.237 76.3156 106.063C76.2031 105.696 76.083 105.327 75.9674 104.96C75.8518 104.593 75.6419 103.923 75.5261 103.555C75.5227 103.544 75.52 103.535 75.5164 103.524C75.5837 103.503 75.6511 103.486 75.7174 103.462C76.8775 103.099 78.0092 102.69 79.1126 102.235C79.8704 101.926 80.6154 101.596 81.3476 101.244C81.356 101.261 81.3639 101.276 81.3718 101.291C81.6737 101.902 82.1204 102.792 82.4233 103.402C82.7262 104.011 83.0275 104.623 83.3306 105.234C83.9579 104.909 84.5852 104.585 85.2127 104.261C85.8402 103.937 86.4676 103.612 87.0949 103.286C86.7944 102.774 86.4956 102.264 86.1984 101.756C85.9013 101.245 85.5631 100.661 85.2664 100.151C84.7447 100.459 84.2075 100.792 83.6603 101.074C83.8555 101.437 84.0513 101.792 84.246 102.153C84.5238 102.007 84.804 101.864 85.0853 101.719C85.2636 102.034 85.4419 102.352 85.62 102.667L84.3003 103.353C84.1463 103.433 83.9902 103.513 83.8358 103.592C83.7507 103.433 83.6675 103.272 83.583 103.111C83.4049 102.769 83.2253 102.423 83.0482 102.084C82.871 101.744 82.5484 101.119 82.3702 100.778C82.3648 100.769 82.36 100.76 82.3557 100.75C83.4959 100.168 84.6014 99.5371 85.672 98.858C86.3645 98.419 87.0401 97.963 87.6987 97.4901C87.7096 97.5041 87.7219 97.5182 87.7333 97.5339C88.1352 98.0812 88.7316 98.8807 89.1346 99.4295C89.5375 99.9784 89.9394 100.527 90.3465 101.074C90.9086 100.647 91.47 100.219 92.0307 99.7892L93.7152 98.5022C93.3317 98.053 92.9489 97.6024 92.5667 97.1503C92.1847 96.7005 91.7507 96.1851 91.3702 95.7353C90.9098 96.1285 90.4389 96.5474 89.9485 96.9207C90.2027 97.2404 90.457 97.5607 90.7115 97.8815C90.9625 97.6894 91.2125 97.4998 91.4623 97.3085C91.6948 97.5884 91.9249 97.87 92.1546 98.1499L90.976 99.0682C90.8357 99.1735 90.6975 99.2795 90.5577 99.3861C90.4462 99.2412 90.3359 99.0996 90.2258 98.9547C89.9912 98.6478 89.7567 98.3413 89.5226 98.036C89.2885 97.7308 88.8623 97.1718 88.6253 96.8679C88.6191 96.8577 88.6119 96.8482 88.6039 96.8393C89.5887 96.0921 90.5356 95.3061 91.4447 94.4815C91.4438 94.4785 91.4481 94.4771 91.4502 94.4732C91.4587 94.4669 91.4667 94.46 91.4744 94.4527C91.4805 94.446 91.4873 94.4398 91.4945 94.4343C91.4979 94.43 91.5022 94.4287 91.5055 94.4244C91.5158 94.4151 91.5254 94.4052 91.5357 94.3973C92.1403 93.8469 92.7276 93.2792 93.2976 92.6943C93.3128 92.7106 93.329 92.7258 93.3463 92.7399C93.839 93.2115 94.5623 93.8957 95.0547 94.3661C95.547 94.8365 96.0414 95.3058 96.5337 95.7762C97.0125 95.2545 97.4914 94.7347 97.9703 94.2168L99.404 92.6574C98.9497 92.279 98.4949 91.9026 98.0396 91.5282C97.5858 91.1515 97.0697 90.717 96.6155 90.339C96.2308 90.8079 95.8409 91.3028 95.4241 91.7558C95.7287 92.0269 96.0345 92.2978 96.3414 92.5685C96.5521 92.3381 96.7654 92.1062 96.9811 91.8729C97.2566 92.1097 97.5338 92.3473 97.81 92.582C97.4744 92.9464 97.1387 93.3115 96.8029 93.6775C96.6835 93.805 96.5667 93.9336 96.4477 94.0624C96.313 93.9409 96.1793 93.8164 96.046 93.6936C95.7618 93.4328 95.4763 93.1724 95.1919 92.9112C94.9075 92.6499 94.3903 92.1764 94.1068 91.9182C94.0951 91.9058 94.0828 91.8965 94.0701 91.8825C94.8975 90.9869 95.6837 90.0586 96.4285 89.0977C96.963 88.409 97.4767 87.7055 97.9697 86.9873C97.9918 87.0031 98.0153 87.017 98.0378 87.0321C98.6047 87.4093 99.4369 87.9576 100.002 88.3339C100.567 88.7102 101.137 89.0881 101.703 89.4668C102.086 88.871 102.466 88.2766 102.845 87.6837C103.224 87.0908 103.605 86.495 103.989 85.8962C103.473 85.6042 102.959 85.3119 102.447 85.0195C101.935 84.7257 101.351 84.389 100.837 84.0979C100.539 84.6251 100.241 85.1808 99.9093 85.6991C100.259 85.9128 100.605 86.1263 100.955 86.3399C101.124 86.0745 101.294 85.8096 101.465 85.5452C101.778 85.7308 102.09 85.9166 102.404 86.1017C102.137 86.5203 101.869 86.9358 101.603 87.3544C101.507 87.5005 101.411 87.6474 101.32 87.7952C101.167 87.6984 101.012 87.6004 100.861 87.5019C100.535 87.2949 100.207 87.0888 99.8831 86.8796C99.5589 86.6704 98.968 86.2963 98.6425 86.0875C98.624 86.0769 98.6061 86.0653 98.5888 86.0529C99.2484 85.0318 99.8641 83.9838 100.436 82.9089C100.845 82.1397 101.23 81.3584 101.589 80.5649C101.615 80.5757 101.642 80.5852 101.665 80.5954C102.289 80.8733 103.202 81.2649 103.826 81.539C104.449 81.8131 105.075 82.0837 105.698 82.3574C105.971 81.7042 106.241 81.0531 106.514 80.4012L107.329 78.4447C106.772 78.2462 106.216 78.0473 105.659 77.8481C105.103 77.6493 104.47 77.4188 103.914 77.2183C103.714 77.7904 103.515 78.3898 103.279 78.9598L104.419 79.4077C104.539 79.1186 104.663 78.8271 104.784 78.536C105.123 78.6638 105.463 78.7927 105.804 78.9199C105.612 79.376 105.421 79.8341 105.232 80.2921C105.164 80.4529 105.097 80.6141 105.031 80.7757C104.861 80.7063 104.693 80.6364 104.528 80.5674L103.455 80.122C103.1 79.9752 102.452 79.7044 102.094 79.5585C102.076 79.5513 102.057 79.5439 102.04 79.5352C102.534 78.3634 102.981 77.1699 103.371 75.9567C103.62 75.181 103.847 74.3985 104.05 73.6091C104.073 73.6148 104.097 73.6202 104.119 73.6245C104.782 73.7855 105.75 74.016 106.411 74.1758C107.073 74.3356 107.736 74.4968 108.399 74.6581C108.553 73.9673 108.707 73.28 108.862 72.5903C109.017 71.9007 109.17 71.2113 109.324 70.5222C108.74 70.4232 108.158 70.3237 107.575 70.2242C106.992 70.1248 106.33 70.0084 105.748 69.9085C105.65 70.5071 105.56 71.1302 105.424 71.7321C105.824 71.814 106.223 71.8946 106.624 71.9777C106.692 71.6699 106.761 71.3625 106.83 71.0558C107.187 71.1224 107.545 71.1886 107.903 71.2542C107.792 71.7385 107.684 72.2236 107.576 72.7066C107.539 72.876 107.5 73.0473 107.463 73.2171C107.285 73.1778 107.107 73.1387 106.929 73.0994C106.555 73.0129 106.174 72.9311 105.798 72.8484C105.422 72.7657 104.741 72.6097 104.363 72.5281C104.346 72.5237 104.332 72.5217 104.313 72.5177C104.599 71.2804 104.83 70.0288 105.005 68.7629C105.116 67.9577 105.204 67.1478 105.27 66.3332C105.288 66.3325 105.306 66.3354 105.325 66.3354C106.003 66.3802 106.998 66.4384 107.678 66.4804C108.359 66.5224 109.038 66.567 109.717 66.61C109.75 65.9034 109.784 65.198 109.816 64.4939C109.849 63.7898 109.88 63.0841 109.912 62.3767C109.319 62.3806 108.728 62.3838 108.138 62.3863C107.547 62.3902 106.873 62.3905 106.283 62.3919C106.288 62.9997 106.307 63.6296 106.281 64.244C106.688 64.2535 107.097 64.2655 107.504 64.2764C107.52 63.9604 107.534 63.648 107.549 63.3322C107.913 63.336 108.275 63.3397 108.64 63.3427C108.616 63.8388 108.593 64.3344 108.571 64.8297C108.563 65.0013 108.555 65.1778 108.548 65.3525C108.365 65.346 108.185 65.339 108.003 65.3317C107.617 65.3125 107.231 65.2968 106.846 65.2805C106.461 65.2642 105.76 65.2328 105.373 65.2159C105.364 65.2155 105.354 65.2152 105.343 65.2154C105.409 63.9512 105.417 62.6801 105.366 61.4022C105.366 61.4022 105.365 61.3979 105.364 61.3966C105.333 60.584 105.281 59.773 105.201 58.9572L105.247 58.9526C105.927 58.8771 106.913 58.7622 107.591 58.6867C108.269 58.6113 108.945 58.5357 109.621 58.4595C109.531 57.7587 109.442 57.0583 109.352 56.3581C109.263 55.6579 109.172 54.9572 109.078 54.256L107.334 54.5746C106.753 54.6794 106.089 54.7959 105.509 54.9032C105.62 55.4984 105.748 56.1155 105.828 56.7275C106.231 56.6667 106.634 56.6065 107.038 56.5467C106.997 56.2351 106.958 55.9236 106.918 55.6095C107.275 55.5517 107.635 55.4908 107.993 55.4308C108.057 55.9217 108.121 56.4132 108.183 56.9051C108.207 57.0781 108.228 57.2522 108.249 57.4264C108.071 57.4503 107.888 57.4744 107.71 57.4975C107.328 57.5475 106.944 57.5993 106.56 57.648C106.176 57.6967 105.485 57.7899 105.103 57.8394C105.093 57.8418 105.084 57.8435 105.075 57.8446C104.919 56.5898 104.703 55.3349 104.429 54.0799C104.255 53.2891 104.059 52.4979 103.839 51.7064C103.857 51.701 103.871 51.6966 103.889 51.6912C104.542 51.4991 105.496 51.2146 106.149 51.0225C106.802 50.8305 107.456 50.6387 108.109 50.4468C107.899 49.7713 107.688 49.0989 107.479 48.4238C107.269 47.7487 107.055 47.076 106.845 46.401C106.29 46.6077 105.736 46.8135 105.182 47.0184C104.628 47.2236 103.994 47.4543 103.439 47.659C103.653 48.2263 103.888 48.8111 104.071 49.3987L105.233 49.0111C105.141 48.7111 105.046 48.412 104.953 48.109C105.292 47.989 105.638 47.8675 105.981 47.7475C106.129 48.2202 106.278 48.6931 106.425 49.1664C106.476 49.3327 106.528 49.5011 106.582 49.6665C106.408 49.7219 106.236 49.7766 106.062 49.8312C105.695 49.946 105.326 50.0638 104.958 50.1795C104.591 50.2953 103.922 50.5049 103.553 50.6215L103.524 50.6304C103.504 50.5644 103.483 50.4976 103.464 50.4328C103.1 49.2719 102.688 48.139 102.236 47.0347C101.925 46.2756 101.595 45.5305 101.244 44.7992C101.261 44.7942 101.275 44.7838 101.29 44.7758C101.901 44.4748 102.79 44.0273 103.401 43.7253C104.012 43.4233 104.621 43.1173 105.233 42.8176C104.908 42.1885 104.584 41.5631 104.259 40.9355C103.934 40.3078 103.608 39.6815 103.283 39.0543C102.773 39.3526 102.263 39.6509 101.753 39.9489C101.242 40.246 100.66 40.5839 100.15 40.8819C100.457 41.4044 100.79 41.9399 101.073 42.4867L102.152 41.9018C102.006 41.623 101.863 41.3429 101.716 41.0633C102.032 40.8841 102.351 40.7062 102.667 40.5276C102.895 40.9668 103.123 41.4066 103.352 41.847C103.433 42.0008 103.513 42.1578 103.592 42.3121L103.11 42.5646C102.769 42.7414 102.423 42.9218 102.083 43.0987C101.743 43.2755 101.119 43.6001 100.776 43.78C100.768 43.7826 100.76 43.7895 100.751 43.7944C100.167 42.6527 99.5349 41.5466 98.8593 40.476C98.4214 39.7851 97.9655 39.1095 97.4914 38.4493L97.5339 38.4151C98.0829 38.0126 98.8812 37.4185 99.4312 37.0147L101.076 35.8028C100.648 35.2408 100.22 34.6794 99.7909 34.1186C99.36 33.5581 98.9316 32.9964 98.5049 32.4342L97.152 33.5826C96.7017 33.9643 96.1832 34.3992 95.7347 34.7793C96.1295 35.2402 96.548 35.7098 96.9233 36.1991L97.8824 35.4366C97.6905 35.1865 97.501 34.9365 97.3092 34.6854C97.5898 34.455 97.8711 34.224 98.1522 33.9922C98.4516 34.3866 98.7544 34.78 99.0538 35.1745L99.3728 35.5901L98.9411 35.9225C98.6333 36.1574 98.3264 36.392 98.0216 36.626C97.7168 36.8599 97.1587 37.2863 96.8526 37.5221C96.8436 37.5295 96.8345 37.5366 96.8253 37.5431C96.0773 36.5599 95.2909 35.6131 94.4662 34.7027C94.4642 34.701 94.4625 34.699 94.4611 34.6968C94.4533 34.6891 94.446 34.6811 94.4391 34.6726L94.4114 34.6431C94.4014 34.6321 94.3921 34.6232 94.3823 34.6126C94.3823 34.6126 94.3814 34.6096 94.3812 34.6088C93.8308 34.0057 93.2645 33.4196 92.6821 32.8507C92.6963 32.8342 92.7138 32.818 92.7276 32.8017C93.1998 32.3092 93.883 31.5843 94.3534 31.092L95.7636 29.6119C95.2423 29.134 94.7226 28.6556 94.2047 28.1767C93.6867 27.6977 93.1667 27.2197 92.6447 26.7426C92.267 27.1983 91.8896 27.6534 91.5125 28.108C91.1358 28.5618 90.7035 29.0791 90.3251 29.5334C90.7943 29.9176 91.2876 30.3084 91.7406 30.7252C92.011 30.4193 92.2825 30.1132 92.555 29.8069C92.3236 29.5932 92.0909 29.3813 91.8589 29.1673C92.096 28.8913 92.3333 28.6147 92.5678 28.338C92.933 28.6741 93.2977 29.01 93.6622 29.346C93.7919 29.4633 93.9197 29.5822 94.0481 29.6999C93.9248 29.8351 93.8021 29.9693 93.68 30.1023C93.4188 30.3867 93.1585 30.6726 92.8973 30.957C92.6361 31.2414 92.162 31.7569 91.9025 32.0408C91.8922 32.0533 91.8812 32.0646 91.8704 32.0769C90.9751 31.2494 90.0468 30.4634 89.0857 29.7188C88.398 29.1837 87.6952 28.6698 86.9771 28.1772L87.0215 28.1096C87.3977 27.5439 87.9458 26.7114 88.3229 26.144C88.7 25.5766 89.0773 25.0101 89.4544 24.4427C88.8606 24.062 88.2662 23.6815 87.6713 23.3011L86.3963 22.4853L86.8228 21.464C87.2956 21.7665 87.7703 22.0707 88.243 22.3727C89.0003 22.8596 89.7584 23.3453 90.5175 23.8298C90.6699 23.928 90.8215 24.025 90.976 24.124C90.8717 24.2731 90.7673 24.4223 90.6644 24.5714C90.2788 25.1325 89.8891 25.6939 89.5019 26.2541C89.1146 26.8143 88.7271 27.375 88.3406 27.9364C88.769 28.2102 89.1853 28.5271 89.5802 28.8352C89.9771 28.3494 90.4127 27.8217 90.7468 27.4049L92.1974 25.5942L92.539 25.1666C92.6706 25.2903 92.8074 25.4125 92.9412 25.5356C93.6019 26.1453 94.2663 26.7552 94.9271 27.3652L96.9159 29.1939C97.0497 29.3167 97.1832 29.4398 97.3163 29.5631C97.1867 29.6923 97.0591 29.8223 96.9324 29.9506C96.4532 30.4359 95.9741 30.9207 95.4952 31.4052C95.018 31.8907 94.5374 32.3754 94.0598 32.8597C94.4334 33.2042 94.7889 33.589 95.1248 33.9601C95.5998 33.5502 96.12 33.1073 96.5219 32.7555L98.2639 31.2231C98.4012 31.1032 98.5384 30.9831 98.6753 30.8627C98.7833 31.0073 98.8949 31.1513 99.0061 31.2954C99.5523 32.0107 100.099 32.7259 100.645 33.4411C101.192 34.1564 101.739 34.8721 102.287 35.5884C102.397 35.7326 102.507 35.877 102.616 36.0216C102.468 36.1256 102.32 36.2319 102.173 36.3351C101.617 36.7312 101.06 37.1239 100.504 37.5191C99.9486 37.9143 99.392 38.3074 98.8373 38.7019C99.1449 39.1064 99.4299 39.547 99.6945 39.9704C100.234 39.6506 100.825 39.3031 101.281 39.0263C101.943 38.6237 102.602 38.2217 103.265 37.82C103.419 37.7258 103.574 37.6316 103.73 37.5368C103.815 37.6984 103.9 37.86 103.983 38.022C104.397 38.8207 104.81 39.6201 105.223 40.4203C105.636 41.2204 106.051 42.0201 106.467 42.8193C106.55 42.9813 106.634 43.1408 106.717 43.3029C106.554 43.3802 106.386 43.4577 106.226 43.535L104.378 44.4106C103.764 44.7023 103.148 44.9939 102.531 45.2856C102.764 45.7385 102.966 46.2213 103.155 46.6837C103.743 46.4614 104.383 46.2234 104.881 46.0297C105.601 45.7499 106.321 45.4673 107.042 45.1854L107.551 44.9873C107.605 45.1609 107.658 45.3349 107.714 45.5071C107.982 46.3669 108.251 47.2259 108.521 48.084C108.79 48.9422 109.06 49.802 109.328 50.6636C109.381 50.8351 109.434 51.0095 109.492 51.1825C109.315 51.2298 109.138 51.2783 108.964 51.3259C108.308 51.5069 107.65 51.6874 106.992 51.8674C106.334 52.0473 105.677 52.228 105.02 52.4093C105.172 52.894 105.289 53.4053 105.392 53.8959C106.008 53.7777 106.682 53.6538 107.205 53.5497C107.964 53.3983 108.722 53.2465 109.48 53.0941L110.017 52.9868C110.041 53.1672 110.065 53.3471 110.089 53.5274C110.202 54.4186 110.32 55.3136 110.434 56.2044C110.549 57.0951 110.666 57.9918 110.781 58.8842C110.805 59.0646 110.828 59.2449 110.853 59.4248C110.671 59.4421 110.488 59.4582 110.306 59.4756C109.63 59.5419 108.949 59.6017 108.273 59.6654C107.596 59.7292 106.915 59.7938 106.237 59.8575C106.302 60.3619 106.326 60.8841 106.343 61.3838C106.97 61.3751 107.654 61.3686 108.187 61.3569C108.96 61.3406 109.733 61.3209 110.506 61.3029C110.689 61.2996 110.87 61.2966 111.054 61.2919C111.047 61.4728 111.038 61.6541 111.029 61.8359L110.906 64.5332C110.864 65.4321 110.823 66.3342 110.781 67.2315L110.756 67.7758C110.576 67.7606 110.393 67.7465 110.213 67.7314C109.535 67.6769 108.853 67.6207 108.176 67.5664C107.499 67.5122 106.816 67.4554 106.137 67.4004C106.114 67.9069 106.048 68.4286 105.98 68.9235C106.598 69.0235 107.272 69.1371 107.8 69.2187C108.564 69.3358 109.328 69.4525 110.094 69.5689C110.274 69.596 110.454 69.6245 110.635 69.6521C110.595 69.8288 110.555 70.0046 110.516 70.183C110.319 71.061 110.122 71.9392 109.926 72.8177C109.73 73.6963 109.534 74.5754 109.336 75.4552C109.297 75.6319 109.257 75.8078 109.215 75.9878C109.041 75.9391 108.864 75.8942 108.691 75.848C108.029 75.6757 107.37 75.5024 106.71 75.3294C106.051 75.1563 105.393 74.9854 104.733 74.8125C104.62 75.3088 104.466 75.8095 104.312 76.2844C104.903 76.4931 105.547 76.7201 106.054 76.894C106.786 77.141 107.52 77.3868 108.25 77.6363C108.425 77.6945 108.595 77.7537 108.77 77.8122C108.698 77.9796 108.63 78.1455 108.56 78.314C108.214 79.1446 107.868 79.9756 107.521 80.8069C107.174 81.6383 106.83 82.468 106.489 83.2961C106.419 83.4616 106.349 83.6298 106.279 83.7979C106.115 83.7207 105.948 83.6439 105.784 83.5692C105.164 83.285 104.545 83.0011 103.925 82.7176C103.306 82.4341 102.686 82.1497 102.066 81.8645C101.87 82.3348 101.63 82.8012 101.396 83.2418C101.941 83.5491 102.54 83.8876 103.008 84.1435C103.687 84.5152 104.365 84.8856 105.044 85.2548C105.204 85.3432 105.363 85.4317 105.524 85.5184C105.425 85.6714 105.328 85.824 105.23 85.9774C104.743 86.7358 104.258 87.4938 103.775 88.2513C103.288 89.0097 102.802 89.7702 102.319 90.5281C102.221 90.6797 102.122 90.8314 102.023 90.9862C101.875 90.8811 101.725 90.7771 101.576 90.676C101.015 90.289 100.454 89.9007 99.8943 89.5112C99.3325 89.1263 98.7727 88.7371 98.2129 88.3497C97.9375 88.7791 97.6192 89.1953 97.3128 89.591C97.7979 89.9872 98.3258 90.4223 98.7427 90.7564C99.3457 91.2406 99.9494 91.7247 100.554 92.2087C100.697 92.3214 100.839 92.4342 100.981 92.5504C100.858 92.6818 100.735 92.8172 100.612 92.9508C100.004 93.6129 99.3924 94.2759 98.7829 94.9384C98.1733 95.6008 97.5632 96.263 96.9538 96.9259C96.8309 97.0573 96.7075 97.1931 96.5845 97.3259L96.1987 96.9415C95.7133 96.4629 95.2282 95.9839 94.7432 95.5045C94.2586 95.0271 93.7731 94.5471 93.2879 94.0694C92.943 94.4432 92.5583 94.7991 92.1872 95.1349C92.5974 95.6094 93.0413 96.1298 93.3938 96.5309C93.9037 97.1123 94.4141 97.6931 94.9249 98.2733L95.2854 98.6852C95.1417 98.7944 94.998 98.904 94.8535 99.0153C94.1378 99.5623 93.4227 100.109 92.7082 100.654C91.9936 101.2 91.2779 101.747 90.5609 102.296C90.415 102.405 90.2714 102.516 90.1282 102.625C90.0219 102.477 89.9174 102.327 89.8128 102.18C89.416 101.625 89.0236 101.068 88.6284 100.512C88.2332 99.9563 87.8405 99.3996 87.4473 98.8445C87.0416 99.153 86.6004 99.4376 86.1771 99.7023C86.4955 100.241 86.8452 100.831 87.1218 101.286C87.5225 101.948 87.9255 102.607 88.328 103.27C88.4234 103.428 88.5169 103.58 88.6117 103.737L88.126 103.988L85.7283 105.23C84.9292 105.643 84.1296 106.058 83.3296 106.473C83.1671 106.555 83.0055 106.64 82.8439 106.724C82.7659 106.558 82.6882 106.392 82.6116 106.231C82.3191 105.614 82.0271 104.998 81.7355 104.381C81.4439 103.765 81.1527 103.149 80.8617 102.534C80.4099 102.768 79.9244 102.971 79.4616 103.159C79.6844 103.747 79.9217 104.386 80.1155 104.884C80.3974 105.605 80.678 106.324 80.9598 107.046C81.0276 107.215 81.0924 107.385 81.1589 107.555C80.9849 107.608 80.8113 107.661 80.6386 107.719C79.7788 107.987 78.9196 108.256 78.0612 108.524C77.2032 108.793 76.3418 109.062 75.4838 109.333C75.3098 109.386 75.1366 109.439 74.9635 109.495C74.9154 109.318 74.867 109.142 74.8203 108.968C74.6388 108.311 74.4584 107.654 74.2792 106.997C74.1 106.34 73.9195 105.683 73.7377 105.025C73.2513 105.174 72.7416 105.293 72.2516 105.397C72.368 106.013 72.492 106.685 72.5965 107.209C72.748 107.967 72.8999 108.726 73.0523 109.485C73.088 109.664 73.1224 109.842 73.1593 110.022L72.6188 110.094C71.7259 110.209 70.8331 110.325 69.9406 110.442C69.048 110.558 68.1548 110.674 67.2608 110.788L66.7195 110.858C66.7026 110.676 66.6861 110.493 66.6703 110.316C66.6052 109.637 66.5432 108.958 66.4794 108.28C66.4156 107.601 66.3514 106.923 66.2877 106.244C65.7831 106.309 65.2595 106.335 64.759 106.351C64.7676 106.977 64.7733 107.659 64.7854 108.193C64.8013 108.966 64.821 109.739 64.8394 110.512C64.8431 110.695 64.8475 110.877 64.8517 111.06C64.6706 111.051 64.4889 111.041 64.3069 111.035C63.4086 110.994 62.5095 110.952 61.6095 110.911C60.7095 110.869 59.81 110.829 58.9109 110.789L58.3664 110.764C58.382 110.58 58.3979 110.4 58.4122 110.22C58.4663 109.539 58.523 108.861 58.5775 108.18C58.632 107.499 58.6873 106.822 58.7436 106.143C58.235 106.12 57.7154 106.054 57.2201 105.985C57.1197 106.603 57.0065 107.278 56.9245 107.805C56.807 108.57 56.6902 109.335 56.5743 110.099C56.5467 110.28 56.5191 110.461 56.491 110.641C56.3144 110.601 56.1385 110.561 55.9597 110.522C55.0828 110.326 54.2045 110.13 53.325 109.934C52.4454 109.737 51.5678 109.54 50.6922 109.341C50.5151 109.301 50.3381 109.262 50.1613 109.222C50.2077 109.045 50.2541 108.866 50.2996 108.694C50.4727 108.035 50.6457 107.375 50.8188 106.715C50.9918 106.056 51.164 105.396 51.3352 104.737C50.8394 104.627 50.3382 104.471 49.8624 104.316C49.6567 104.909 49.4277 105.555 49.2563 106.06C49.0075 106.791 48.7597 107.523 48.5128 108.257C48.4542 108.429 48.3959 108.603 48.3374 108.776C48.17 108.704 48.0019 108.636 47.8341 108.564C47.0046 108.22 46.1737 107.874 45.3413 107.526C44.509 107.179 43.6776 106.833 42.8471 106.488L42.3454 106.279C42.4212 106.112 42.4985 105.946 42.5735 105.782C42.8566 105.163 43.1407 104.543 43.4261 103.923C43.7084 103.304 43.9937 102.686 44.2783 102.066C43.8096 101.871 43.3432 101.631 42.901 101.396C42.595 101.944 42.2566 102.541 41.9992 103.01C41.6293 103.688 41.259 104.367 40.8881 105.046C40.8013 105.206 40.7123 105.364 40.6251 105.525C40.4731 105.428 40.32 105.329 40.1672 105.231C39.4087 104.745 38.6507 104.259 37.8931 103.775C37.1352 103.291 36.3765 102.803 35.619 102.319C35.466 102.221 35.3143 102.122 35.16 102.025C35.2647 101.876 35.3692 101.727 35.4715 101.577C35.8585 101.015 36.2461 100.454 36.6345 99.8947C37.0229 99.3351 37.4101 98.7748 37.7961 98.2137C37.3675 97.9376 36.9501 97.6201 36.5552 97.3134C36.1595 97.7984 35.7229 98.3263 35.3901 98.7428C34.906 99.3458 34.4223 99.9495 33.9393 100.554C33.8252 100.697 33.7115 100.839 33.5966 100.981C33.4635 100.859 33.3301 100.736 33.1963 100.612C32.5348 100.002 31.8721 99.3927 31.2083 98.7834C30.5445 98.1741 29.8818 97.5644 29.2203 96.9544C29.0891 96.8319 28.9548 96.7104 28.82 96.5871C28.9493 96.458 29.0777 96.3277 29.2043 96.1994L30.6413 94.744C31.118 94.2596 31.5967 93.775 32.0774 93.2903C31.704 92.9466 31.3477 92.5607 31.0114 92.1897C30.5369 92.598 30.0169 93.0418 29.6162 93.3942C29.0351 93.9045 28.4543 94.4175 27.873 94.9274C27.736 95.0463 27.5993 95.1678 27.462 95.2877C27.352 95.1442 27.242 94.9992 27.131 94.8541C26.5842 94.1403 26.0366 93.4234 25.4899 92.7099C24.9433 91.9964 24.3954 91.2787 23.8478 90.5622C23.7388 90.4184 23.6286 90.2743 23.5172 90.13C23.6669 90.025 23.8163 89.9202 23.9635 89.8147C24.519 89.4211 25.0748 89.0268 25.6311 88.6318C26.1874 88.2367 26.7431 87.8425 27.2983 87.449C26.9899 87.0451 26.7053 86.6026 26.4406 86.1788C25.9036 86.4997 25.3133 86.8469 24.855 87.1246C24.1942 87.5263 23.5336 87.9287 22.8732 88.3315C22.7179 88.4256 22.5622 88.5202 22.4059 88.6152C22.3222 88.4534 22.2384 88.2915 22.155 88.1295C21.7416 87.3317 21.3276 86.5324 20.9131 85.7318C20.4985 84.9312 20.0844 84.1313 19.6707 83.3323C19.5869 83.1705 19.5036 83.0117 19.4193 82.8468C19.5835 82.7707 19.7475 82.6938 19.9113 82.6164C20.5247 82.3231 21.1441 82.0312 21.7597 81.7391C22.3753 81.447 22.9908 81.1559 23.6064 80.8638C23.3746 80.413 23.1697 79.9277 22.982 79.4662C22.3936 79.6881 21.7551 79.9268 21.2579 80.1203C20.5364 80.4003 19.8156 80.6812 19.0956 80.9629C18.926 81.0308 18.756 81.0955 18.5856 81.1622C18.5331 80.9908 18.4797 80.8163 18.423 80.6419C18.1538 79.784 17.885 78.9251 17.6167 78.0653C17.3484 77.2055 17.0793 76.346 16.8093 75.4867C16.7568 75.3153 16.7034 75.1409 16.6469 74.9673C16.8235 74.9202 16.9991 74.8722 17.1738 74.8233C17.8309 74.6431 18.488 74.4626 19.1453 74.282L21.1163 73.7408C20.9673 73.2543 20.8496 72.7443 20.7432 72.2546C20.128 72.3717 19.4576 72.4959 18.9323 72.6005C18.1732 72.7517 17.4144 72.9037 16.6558 73.0566L16.1202 73.163C16.0969 72.9826 16.0735 72.8023 16.0484 72.6224C15.9314 71.7298 15.8156 70.8372 15.701 69.9447C15.5865 69.0522 15.4708 68.1589 15.3539 67.265C15.331 67.0845 15.3076 66.9041 15.2822 66.7244L15.8244 66.6751C16.5029 66.608 17.1831 66.5483 17.861 66.4841C18.5389 66.42 19.2176 66.357 19.8963 66.2922C19.831 65.7881 19.8058 65.2618 19.7869 64.7623C19.1613 64.7706 18.4784 64.7757 17.9445 64.7883C17.1712 64.8063 16.398 64.8243 15.6247 64.8423L15.0775 64.8542C15.0863 64.6734 15.0942 64.4924 15.1033 64.311C15.1439 63.4116 15.185 62.5121 15.2267 61.6124C15.2684 60.7126 15.3094 59.813 15.3496 58.9134L15.3746 58.369C15.5567 58.385 15.7363 58.3989 15.9179 58.415C16.5978 58.4689 17.2775 58.5256 17.9554 58.5805C18.6332 58.6355 19.3143 58.6904 19.9936 58.7458C20.0181 58.2377 20.0837 57.7174 20.1515 57.2222C19.5338 57.1216 18.8584 57.0088 18.3305 56.9276C17.5666 56.8099 16.8021 56.6932 16.0369 56.5775C15.8577 56.5494 15.6774 56.5226 15.4957 56.4943C15.5354 56.3176 15.5753 56.1417 15.6143 55.9629L16.2045 53.3281L16.7941 50.6916C16.8337 50.5147 16.8732 50.3373 16.9124 50.1593C17.0889 50.2075 17.2647 50.2535 17.4399 50.2988C18.1003 50.4716 18.7601 50.6446 19.4191 50.8178C20.0781 50.991 20.7376 51.1631 21.3974 51.3338C21.5083 50.8372 21.6644 50.3365 21.8168 49.8605C21.2253 49.6544 20.5816 49.4258 20.0745 49.2548C19.3421 49.0066 18.6099 48.7584 17.8776 48.5104L17.3587 48.336C17.4296 48.168 17.4999 48.0012 17.5694 47.8331C17.9153 47.0022 18.2616 46.1712 18.6081 45.3404L19.6464 42.8463C19.7169 42.6785 19.7863 42.5114 19.8556 42.343C20.0203 42.4215 20.1869 42.4956 20.3515 42.5723C20.9716 42.8552 21.5912 43.1395 22.2102 43.425C22.8301 43.7072 23.4488 43.9931 24.0691 44.2766C24.2651 43.8069 24.5048 43.3402 24.7392 42.8995C24.1922 42.5935 23.5979 42.2556 23.1291 41.9997C22.4528 41.6283 21.7742 41.258 21.0932 40.8886C20.9337 40.8011 20.7747 40.7133 20.6143 40.626C20.7125 40.4736 20.8099 40.32 20.9075 40.1673C21.3943 39.4095 21.8798 38.6514 22.3642 37.893L23.8205 35.6188C23.9184 35.4655 24.016 35.3128 24.1145 35.1598C24.2637 35.2641 24.4126 35.3676 24.5624 35.4713C25.1243 35.858 25.685 36.2454 26.2445 36.6335C26.804 37.0216 27.3647 37.4086 27.9267 37.7943C28.2016 37.3665 28.518 36.9485 28.8255 36.5548C28.3404 36.1572 27.8124 35.7235 27.3958 35.3903C26.7922 34.9057 26.1869 34.423 25.5847 33.9385C25.4422 33.8251 25.3005 33.7114 25.1574 33.5977C25.2803 33.4663 25.4035 33.3297 25.5267 33.1963C26.1365 32.5339 26.7461 31.8714 27.3558 31.2088L29.1846 29.2204C29.3071 29.0891 29.4308 28.9528 29.5539 28.8204C29.6827 28.9487 29.8123 29.0764 29.9405 29.2041C30.4264 29.6825 30.9111 30.1632 31.3958 30.6406C31.8804 31.1181 32.365 31.5983 32.8505 32.0769C33.1949 31.7028 33.5797 31.3473 33.9513 31.0118C33.5417 30.5376 33.0971 30.0165 32.7457 29.616C32.2351 29.0344 31.724 28.4534 31.2125 27.8728C31.093 27.7368 30.9729 27.5997 30.8521 27.4614C30.9961 27.353 31.1404 27.2423 31.2843 27.1321L33.4299 25.4907L35.5763 23.849C35.7213 23.7394 35.8652 23.6292 36.0095 23.5185C36.1145 23.6687 36.2191 23.8157 36.3242 23.9645C36.7202 24.5197 37.1133 25.0763 37.5078 25.6329C37.9023 26.1894 38.2956 26.7436 38.6914 27.2998C39.0941 26.989 39.5363 26.7064 39.9604 26.4424C39.64 25.9044 39.2921 25.3148 39.0145 24.8569C38.6134 24.1959 38.2114 23.5348 37.8085 22.8734C37.7136 22.7186 37.6191 22.5632 37.5251 22.407C37.6849 22.3243 37.846 22.2412 38.0076 22.1566L40.4059 20.9149L42.8047 19.6718C42.9671 19.5897 43.1287 19.505 43.2904 19.4208C43.3682 19.5845 43.4455 19.7484 43.5237 19.9148C43.8162 20.5302 44.1082 21.146 44.3997 21.7621C44.6912 22.3783 44.9832 22.9939 45.2756 23.6091C45.7268 23.3772 46.2104 23.1728 46.6724 22.9854C46.451 22.3969 46.2116 21.7591 46.0181 21.2605C45.7371 20.5399 45.4559 19.8194 45.1743 19.099C45.1086 18.9316 45.0422 18.7592 44.9759 18.5887L45.4953 18.4264L48.0726 17.6194L50.6514 16.8124L51.1698 16.6499C51.2175 16.8256 51.2648 17.0015 51.3137 17.1764C51.494 17.8342 51.6765 18.4913 51.8553 19.1487C52.034 19.806 52.2163 20.4623 52.3977 21.1193C52.8834 20.9677 53.3943 20.8526 53.8834 20.7459C53.7655 20.1313 53.6429 19.4601 53.5366 18.9352C53.3857 18.177 53.2343 17.4184 53.0826 16.6595C53.0465 16.4806 53.0109 16.3018 52.9755 16.1232L53.5161 16.0514C54.4068 15.935 55.2991 15.8197 56.193 15.7057C57.0853 15.59 57.9804 15.4729 58.8724 15.3577C59.0528 15.3344 59.2332 15.311 59.413 15.286C59.4291 15.4686 59.4464 15.6508 59.4616 15.8304C59.5284 16.5079 59.5895 17.1867 59.6541 17.8659C59.7186 18.5451 59.7802 19.2224 59.8439 19.9005C60.3484 19.8365 60.872 19.8102 61.3711 19.7929C61.3663 19.1648 61.359 18.4812 61.3457 17.948C61.3293 17.1748 61.3095 16.4013 61.2918 15.6285C61.2872 15.4466 61.2825 15.2643 61.2793 15.0811L61.8234 15.1066L64.5211 15.2299C65.4199 15.2716 66.3195 15.3127 67.2201 15.3532L67.7646 15.3782C67.7469 15.5608 67.7351 15.7411 67.7169 15.9221C67.6647 16.6014 67.608 17.2811 67.5524 17.9601C67.4969 18.639 67.4427 19.318 67.3877 19.9972C67.896 20.0206 68.4159 20.0865 68.9112 20.1561C69.0122 19.5368 69.1246 18.863 69.2063 18.335C69.3235 17.5706 69.4406 16.8058 69.5575 16.0405C69.5837 15.8614 69.6119 15.6807 69.6394 15.4997C69.8161 15.5394 69.992 15.5793 70.1704 15.6184L72.8052 16.2086L75.4428 16.7989L75.9729 16.9178C75.9279 17.0938 75.88 17.2711 75.8357 17.445C75.6629 18.1055 75.4899 18.7652 75.3167 19.4243C75.1462 20.0831 74.9706 20.7435 74.8 21.4018C75.2973 21.5135 75.798 21.6682 76.2732 21.8222C76.4784 21.231 76.7084 20.5859 76.8801 20.0809C77.1284 19.3486 77.3766 18.6163 77.6249 17.8839C77.6821 17.7108 77.7389 17.5382 77.7985 17.3653C77.9666 17.4352 78.1348 17.5051 78.3011 17.5752C79.132 17.9211 79.9635 18.2671 80.7956 18.6133L82.4977 19.3236L81.7338 20.1754C81.2317 19.9658 80.8951 19.8355 80.3935 19.6257C79.7386 19.3547 79.0858 19.0831 78.4353 18.811C78.2362 19.3692 78.0374 19.9261 77.8391 20.4815C77.6405 21.0379 77.4095 21.6707 77.2108 22.2265C77.7817 22.4268 78.3808 22.6258 78.9495 22.8619C79.1 22.482 79.2487 22.1013 79.4 21.7212C79.1079 21.6016 78.8181 21.4775 78.5274 21.3579C78.6549 21.0179 78.7837 20.6775 78.9109 20.3366L80.2816 20.9093L80.765 21.1101C80.6966 21.2787 80.6284 21.4463 80.5584 21.614C80.4088 21.9706 80.2615 22.3284 80.1167 22.684C79.972 23.0396 79.6989 23.6862 79.5509 24.0433C79.5427 24.0627 79.5359 24.0831 79.5263 24.1038C78.3557 23.6082 77.1628 23.1644 75.9478 22.7727C75.9478 22.7727 75.9478 22.7727 75.9501 22.7696C75.1749 22.5223 74.3928 22.2966 73.6037 22.0926C73.6086 22.0686 73.6133 22.0427 73.6193 22.0194C73.7806 21.3582 74.0104 20.3878 74.1721 19.7265C74.3339 19.0652 74.4916 18.4032 74.6529 17.7402C73.9623 17.5869 73.2749 17.4318 72.5853 17.2773L70.5169 16.8146C70.4176 17.3982 70.3168 17.9813 70.2201 18.5627C70.1234 19.144 70.0031 19.809 69.9032 20.3905C70.5005 20.4888 71.1249 20.5789 71.7254 20.7152C71.8073 20.3151 71.8892 19.915 71.9711 19.5149L71.0508 19.3096C71.1168 18.9528 71.1863 18.5949 71.2527 18.2376L72.7027 18.5624C72.8724 18.6004 73.0424 18.6398 73.2138 18.6773C73.1745 18.8553 73.135 19.0324 73.0958 19.2108C73.0127 19.5855 72.9293 19.965 72.8447 20.3411C72.7602 20.7171 72.6081 21.398 72.5248 21.7779C72.5218 21.7943 72.5193 21.8105 72.5143 21.828C71.2771 21.5402 70.0256 21.3096 68.7599 21.1362C67.9555 21.0241 67.1458 20.9365 66.3308 20.8736C66.3327 20.8538 66.333 20.8331 66.3336 20.8136C66.3777 20.134 66.4374 19.1411 66.4807 18.4589C66.524 17.7767 66.5664 17.1008 66.607 16.4218C65.9006 16.388 65.195 16.3555 64.49 16.3242C63.7851 16.2928 63.079 16.2606 62.372 16.2274C62.3764 16.8205 62.3797 17.4101 62.3833 18.0006C62.3869 18.5911 62.3858 19.2656 62.3913 19.856C62.996 19.8499 63.626 19.8313 64.241 19.8587C64.2526 19.4496 64.2619 19.0422 64.2739 18.6326C63.96 18.6195 63.6459 18.6041 63.33 18.5892C63.334 18.2264 63.3371 17.8632 63.3396 17.4996C63.8346 17.5212 64.3301 17.5434 64.8259 17.5663C65.0008 17.5741 65.1755 17.583 65.349 17.5908L65.3243 18.1361C65.3079 18.5203 65.2924 18.9076 65.2748 19.2927C65.2573 19.6778 65.2257 20.3785 65.2102 20.7657C65.2105 20.7774 65.2092 20.79 65.2083 20.8024C63.9429 20.7361 62.6702 20.7281 61.3902 20.7785C60.5777 20.8104 59.7648 20.8654 58.9515 20.9435C58.9496 20.9267 58.9458 20.9096 58.9441 20.8933C58.8695 20.2167 58.7547 19.2261 58.6782 18.5492C58.6017 17.8722 58.5273 17.1961 58.4526 16.519C57.7508 16.6089 57.0501 16.6985 56.3508 16.7876C55.6515 16.8767 54.9503 16.9678 54.2472 17.061C54.3552 17.6434 54.4598 18.2255 54.5676 18.8056C54.6754 19.3858 54.789 20.0505 54.8952 20.6316C55.4915 20.5198 56.1067 20.3918 56.7192 20.3116C56.6582 19.9081 56.5984 19.5045 56.5398 19.1009C56.2271 19.1422 55.9149 19.1825 55.6031 19.2217C55.5435 18.8649 55.4837 18.5064 55.4237 18.146L56.8983 17.9555L57.4179 17.8902C57.4442 18.0696 57.4671 18.2501 57.4896 18.4308C57.5395 18.8125 57.5902 19.1969 57.6399 19.5783L57.8317 21.0389C57.8343 21.0475 57.8349 21.0585 57.8359 21.0681C56.5821 21.2232 55.3249 21.4409 54.073 21.714C53.2802 21.8794 52.4899 22.0755 51.701 22.296L51.7 22.2958ZM49.8165 14.357L50.3123 14.2123L50.6557 15.386C50.4869 15.4301 50.3211 15.4767 50.1543 15.5212L49.8165 14.357Z" fill="#82231E"/>
<path fill-rule="evenodd" clip-rule="evenodd" d="M62.9519 21.5729C62.9922 21.5728 63.0326 21.5727 63.073 21.5727C63.4561 21.5727 63.8977 21.5185 64.3901 21.4178C65.6168 21.4087 66.6849 21.787 67.1667 22.9581C67.3322 23.3558 67.311 23.904 67.2897 24.4549C67.2428 25.6685 67.1954 26.895 69.1406 26.5534C69.5553 26.4785 69.8556 26.1287 70.1512 25.7844C70.3917 25.5043 70.629 25.2279 70.9223 25.106C71.4996 24.8692 72.0786 24.926 72.6409 24.9811C72.9857 25.0149 73.3243 25.0481 73.6524 25.0126C73.9944 24.9816 74.2303 24.9692 74.4097 24.9598C74.6045 24.9496 74.7328 24.9428 74.8579 24.9196C75.0991 24.8748 75.3289 24.7689 76.0014 24.4588L76.0706 24.4268C76.5576 24.2049 77.0189 23.9249 77.4839 23.6427L77.4839 23.6427C77.9081 23.3852 78.3354 23.1259 78.7879 22.9072C80.4944 22.1971 82.2823 21.6981 84.1114 21.4216L84.0003 21.5192C83.5778 21.7352 83.1845 22.0033 82.8297 22.3172C81.5326 22.6211 80.2742 23.0697 79.0784 23.6543C78.2398 24.063 77.6209 24.6928 77.0137 25.3108C76.3092 26.0277 75.6204 26.7286 74.6222 27.0501C74.229 27.1729 73.7199 27.1477 73.1913 27.1216C72.7149 27.098 72.2228 27.0737 71.7853 27.1562C71.3845 27.2319 71.0494 27.4075 70.711 27.5849C70.3279 27.7857 69.9405 27.9887 69.4482 28.0518C69.8138 28.1019 70.1743 28.1551 70.5304 28.2077L70.5305 28.2077L70.5305 28.2077L70.5306 28.2078L70.5307 28.2078L70.5308 28.2078L70.5309 28.2078L70.5309 28.2078C73.5292 28.6507 76.2089 29.0466 78.8477 27.0586C80.6379 25.7826 82.6675 24.8762 84.8164 24.3929C84.8164 24.4396 84.3623 24.6523 83.911 24.8638L83.911 24.8638L83.9109 24.8638C83.4608 25.0747 83.0134 25.2843 83.0219 25.3267C81.7186 25.7943 81.4208 26.0629 80.8664 26.5631L80.8664 26.5631L80.8663 26.5632C80.6356 26.7713 80.3605 27.0195 79.95 27.3387C76.532 30.0129 66.6583 32.3772 65.7269 27.8141C65.664 27.5095 65.6553 27.3084 65.6492 27.1697C65.644 27.0498 65.6408 26.9765 65.6065 26.9231C65.5525 26.839 65.4212 26.8046 65.083 26.7157L65.0829 26.7157L65.0829 26.7157L65.0828 26.7157L65.0825 26.7156C64.9215 26.6733 64.7137 26.6188 64.4452 26.5407C63.7081 26.3315 62.966 26.5729 62.2988 26.79C62.0997 26.8548 61.9072 26.9174 61.7236 26.9652C58.1732 27.8863 56.1053 29.5884 54.2468 32.1056V32.4621L54.7765 35.1151C56.1181 35.2424 57.1179 35.6966 57.1179 36.24C57.1179 36.7196 56.3317 37.1356 55.2123 37.3096L56.1566 42.051L55.7592 41.9407L55.0158 38.2223L55.5114 41.877L55.1226 41.7709L54.5287 37.3776H54.3322L54.4091 41.5714L53.6529 41.3676L53.7255 37.3776L53.2043 37.3436L52.4438 41.045L52.0892 40.9516L52.8368 37.2969C52.7482 37.2969 52.6657 37.2746 52.5837 37.2524C52.5471 37.2425 52.5106 37.2326 52.4737 37.2247L51.2133 40.7436L50.8587 40.6502L52.1404 37.1611H52.0977L50.5468 40.5569L50.1708 40.4635L51.7303 37.0252C51.2432 36.8172 50.9399 36.5498 50.9399 36.2569C50.9399 35.8325 51.5893 35.4419 52.542 35.2467L53.8238 32.4409L54.0012 22.5672C54.0255 22.5618 54.0497 22.5564 54.0739 22.5511L54.1399 26.1587C54.9217 25.7396 55.7169 25.2047 56.5462 24.6468C58.2368 23.5095 60.0694 22.2768 62.2192 21.7357C62.4613 21.6747 62.7066 21.6195 62.9519 21.5729ZM27.4943 41.6968C28.6563 39.7669 29.9709 37.9392 31.4214 36.2306C31.9366 36.3631 32.4641 36.4993 33.004 36.639L33.0638 36.7069C33.5195 37.2502 33.9539 37.8049 34.3669 38.3708L34.431 38.4642C34.8412 39.0387 35.2285 39.6244 35.5931 40.2215L35.6444 40.3149C36.0075 40.9177 36.3493 41.5289 36.6655 42.1571C36.678 42.1876 36.6923 42.2174 36.7082 42.2463C37.0201 42.8915 37.3149 43.5155 37.5841 44.1649C37.5875 44.1767 37.5929 44.1885 37.5982 44.2001C37.6062 44.2176 37.614 44.2345 37.614 44.2498C37.8817 44.9035 38.1253 45.5657 38.3446 46.2363C38.3506 46.264 38.3591 46.291 38.3702 46.317C38.5838 46.9919 38.7804 47.6753 38.947 48.363C38.949 48.3884 38.949 48.4139 38.947 48.4394C39.1136 49.1313 39.2589 49.8274 39.3742 50.5278V50.6042C39.4896 51.3046 39.5836 52.0134 39.6477 52.7266C39.6499 52.7491 39.6499 52.7719 39.6477 52.7945C39.716 53.5118 39.7716 54.2292 39.7716 54.9508V55.0102C39.783 55.7375 39.7702 56.4634 39.7331 57.1878C39.7353 57.2061 39.7353 57.2246 39.7331 57.243C39.6947 57.9688 39.6306 58.7032 39.5409 59.429V59.4757C39.4469 60.2058 39.3273 60.9359 39.1863 61.666C39.1844 61.6772 39.1844 61.6887 39.1863 61.7C39.041 62.43 38.8658 63.1601 38.6693 63.8817V63.9072C38.4685 64.6331 38.242 65.3589 37.9857 66.072C37.7293 66.7767 35.9221 70.8813 35.7939 71.1657C35.7726 71.2175 35.746 71.2667 35.7193 71.3162C35.6978 71.3559 35.6762 71.3958 35.6572 71.4374C35.5632 71.6284 35.4692 71.8194 35.3581 72.0062C35.294 72.1166 35.2214 72.2184 35.1488 72.3203C35.042 72.4901 34.8924 72.7066 34.8112 72.8169C34.7487 72.902 34.6911 72.9695 34.6172 73.0562C34.5952 73.082 34.5718 73.1094 34.5464 73.1395L34.5216 73.1689L34.5215 73.1689C34.4193 73.2901 34.3198 73.408 34.2131 73.5258C29.0861 73.4664 25.4332 73.4664 23.1047 73.4664C29.0861 67.2054 31.6112 57.2005 29.5433 47.739C29.0634 45.5587 28.3721 43.5318 27.4943 41.6968ZM32.1853 90.7897L33.1193 89.728L32.1415 90.7409C31.4892 90.0121 30.8622 89.2602 30.262 88.4864C33.6306 88.0142 36.9532 87.261 40.1946 86.2346C46.74 84.2226 53.012 81.6205 59.2242 79.0185C60.7026 78.3993 62.179 77.7743 63.6561 77.149C68.3858 75.1469 73.1223 73.1418 77.9505 71.3143C83.5474 69.1919 89.2683 67.2648 95.1857 66.106C93.7416 69.8668 93.1221 74.7101 95.7496 81.0093C96.5081 82.636 97.4965 84.1469 98.6848 85.496C97.8134 85.4078 96.9371 85.3766 96.0615 85.4026C93.945 85.4796 91.8399 85.7481 89.7724 86.2049C85.7506 87.1285 81.7861 88.2836 77.8992 89.6643C77.0276 89.9575 76.1589 90.2542 75.2909 90.5508L75.2904 90.551L75.2898 90.5512L75.2893 90.5514L75.2887 90.5515L75.2875 90.552L75.287 90.5521C72.2975 91.5735 69.3156 92.5924 66.2439 93.4507C64.2672 94.0217 62.2548 94.4627 60.2197 94.7708C58.1721 95.1151 56.0774 95.0719 54.046 94.6434C56.0775 95.1251 58.1825 95.2202 60.2496 94.9236C62.3087 94.6687 64.3484 94.2773 66.355 93.752C69.6389 92.9128 72.859 91.9007 76.0703 90.8914L76.0706 90.8913L76.076 90.8895C76.7609 90.6743 77.4453 90.4592 78.1299 90.2459C82.0183 88.979 85.9769 87.9359 89.9861 87.1217C91.9924 86.7316 94.0301 86.5228 96.0743 86.4978C97.3758 86.4871 98.6743 86.6224 99.9452 86.901C103.013 90.127 107.187 93.2257 111.203 94.1892C107.421 95.4163 103.86 94.3068 100.694 93.3201L100.663 93.3106C98.6592 92.6824 96.7708 92.0966 95.0789 92.1857C93.2787 92.3316 91.5052 92.7082 89.8023 93.3063C87.5764 93.9897 85.4743 94.6349 82.9664 94.0067C81.8299 93.7223 80.8301 93.3955 79.9756 93.1153L79.975 93.1151C77.194 92.1984 75.1859 91.5364 71.7169 93.5058C67.1454 96.1036 64.1589 97.2115 58.5406 96.9398C56.289 96.8337 53.9263 96.0909 51.6149 95.2929L67.8503 76.8367L50.4186 94.8896L49.9657 94.7368L64.6887 78.0083L48.8805 94.3803L48.3037 94.202L61.5271 79.1841L47.3083 93.9133C47.0733 93.8454 46.834 93.7817 46.599 93.7266L58.3697 80.3556L45.6676 93.5143C45.3771 93.4507 45.0908 93.3955 44.8131 93.353L55.2337 81.5272L43.9202 93.2427C43.557 93.213 43.1981 93.1917 42.8392 93.1875L52.0678 82.703L41.9036 93.2257C41.4181 93.2669 40.9366 93.3464 40.4637 93.4634L48.9062 83.8745L39.3401 93.7817C38.7633 93.9558 38.1951 94.1213 37.6311 94.2741L45.7488 85.0461L36.5801 94.5416C36.4333 94.578 36.2869 94.6132 36.1406 94.6474C35.9562 94.49 35.7732 94.331 35.5917 94.1704L42.5914 86.2176L35.2257 93.8429C34.9506 93.5938 34.6789 93.3411 34.4107 93.0848L39.4255 87.3934L34.1617 92.845C33.8628 92.5547 33.5683 92.26 33.2783 91.961L36.2767 88.5565L33.1341 91.8115C32.8122 91.4763 32.4959 91.1356 32.1853 90.7897ZM45.9441 100.884C43.7577 99.892 41.6726 98.7159 39.7085 97.3755C40.654 97.007 41.5367 96.4066 41.8737 95.9678C41.5105 97.7294 43.6937 99.0197 45.6463 97.4916C45.9195 97.2774 46.7102 97.4235 47.5049 97.5704C48.3006 97.7175 49.1004 97.8653 49.3889 97.6529C50.1729 97.0936 49.4266 96.6314 48.7031 96.1833L48.6498 96.1503C47.697 95.5603 53.623 97.4619 54.6783 97.8864C55.7188 98.2946 56.876 98.3469 58.0762 98.4012C59.3598 98.4593 60.6926 98.5196 61.9842 99.0197C61.1936 98.7469 59.7815 99.0395 58.4778 99.3097C57.7737 99.4557 57.1012 99.595 56.5753 99.6352C54.439 99.7965 51.2432 99.7796 49.312 99.1768C49.6483 100.395 51.7051 100.395 53.2468 100.395C53.6442 100.395 54.0074 100.395 54.298 100.416C55.7758 100.526 56.7514 100.475 57.8545 100.417H57.8547H57.8548C58.4961 100.384 59.1805 100.348 60.0317 100.34C60.7913 100.333 61.5592 100.13 62.3211 99.9286C63.372 99.651 64.4115 99.3764 65.4022 99.6225C69.6704 100.65 77.9291 102.004 83.9277 100.955C81.8555 102.7 64.8425 102.017 62.0825 101.804C61.4593 101.756 60.8399 101.713 60.2232 101.669L60.2199 101.669H60.2198C58.5375 101.55 56.8759 101.432 55.2166 101.24C54.7252 101.183 54.2034 101.245 53.6979 101.304C53.2541 101.357 52.8227 101.407 52.4352 101.376C51.9229 101.333 51.6024 101.198 51.2746 101.06C51.0173 100.952 50.7555 100.842 50.393 100.773C49.4573 100.599 46.8212 100.28 45.9453 100.883C45.9449 100.883 45.9445 100.884 45.9441 100.884ZM30.1531 88.3453C33.5144 87.8242 36.8251 87.0202 40.0493 85.9417C46.5136 83.8193 52.7129 81.1536 58.8739 78.4412C60.0472 77.9246 61.2195 77.4056 62.3921 76.8864C67.3765 74.6795 72.3668 72.4699 77.472 70.4356C83.3381 68.1138 89.3751 65.9914 95.7496 64.718C96.3684 63.4169 97.0602 62.1514 97.8218 60.9274C96.2694 60.2521 82.4848 66.56 72.9667 70.9154L72.4475 71.153C67.1326 73.5937 62.091 75.8986 58.6731 77.3036C57.4986 77.7909 56.0776 78.4123 54.5674 79.0729L54.4006 79.1459L54.3946 79.1485C47.5454 82.1453 37.5748 86.5079 29.3123 87.2125C29.5862 87.595 29.8666 87.9726 30.1531 88.3453ZM29.0255 86.8071C29.09 86.7793 29.1593 86.7479 29.2277 86.717C29.4055 86.6366 29.5771 86.5589 29.6415 86.5529L35.2599 74.1795H34.8625L28.8885 86.6098C28.934 86.6757 28.9797 86.7415 29.0255 86.8071ZM21.6201 65.0689C21.6738 66.2014 21.7728 67.3221 21.9154 68.4291C22.6978 67.4159 23.3662 66.2268 23.643 65.117C22.919 65.0435 22.246 65.0304 21.6201 65.0689ZM54.2297 31.6089L54.1314 26.2054C55.6314 27.3158 55.0181 29.1838 54.4775 30.8301L54.4775 30.8301L54.4774 30.8302C54.3898 31.097 54.3041 31.358 54.2297 31.6089ZM53.7768 35.1193H53.6657L53.7768 34.5803V35.1193ZM53.2855 35.1491H53.2385L53.3495 34.8477L53.2855 35.1491ZM86.5424 51.313L84.2182 50.9183L83.932 50.5405L86.4954 51.2282C86.5127 51.2555 86.5284 51.2839 86.5424 51.313ZM54.0588 78.5855L52.9693 79.061L53.0547 74.3663H55.003L55.0714 78.1611L54.0588 78.5855ZM38.7419 74.2092H39.1265L35.3709 84.6173L34.5164 85.67L38.7419 74.2092ZM43.3477 83.1741L44.0483 82.0068L45.6377 74.2602H45.2617L43.3477 83.1741ZM60.0317 75.2704L59.66 75.3086L59.5361 74.3875H59.9121L60.0317 75.2704ZM62.2876 74.413L62.232 74.4087V74.4215L62.2876 74.413ZM37.5072 69.9093C37.2081 70.9408 35.9563 72.5962 35.1659 73.547L45.4198 73.6277C45.5138 73.5003 45.5993 73.373 45.6847 73.2414C45.7263 73.1773 45.7781 73.1032 45.8321 73.0258L45.8321 73.0257C45.889 72.9443 45.9483 72.8593 46.0009 72.7787C46.0865 72.6476 46.1661 72.5165 46.2473 72.3829L46.2957 72.3033C46.3383 72.2334 46.3808 72.1651 46.4231 72.0974L46.4232 72.0972L46.4237 72.0964C46.4787 72.0081 46.5331 71.9208 46.5862 71.8321C46.6607 71.7077 46.7325 71.5779 46.8037 71.4491L46.8596 71.3482L46.8598 71.348C46.9494 71.1868 47.0391 71.0256 47.1245 70.8643C47.21 70.703 47.2954 70.5333 47.3809 70.3635C47.4096 70.3064 47.4374 70.2517 47.4647 70.1979L47.4654 70.1966C47.519 70.091 47.5708 69.989 47.6244 69.8796C47.681 69.7642 47.7334 69.6427 47.786 69.5207L47.786 69.5206C47.8089 69.4676 47.8318 69.4144 47.8551 69.3617C47.8844 69.2955 47.913 69.2331 47.941 69.1719C47.9866 69.0723 48.0307 68.9762 48.073 68.8736C48.1414 68.708 48.2183 68.5212 48.2866 68.3387C48.3188 68.2528 48.3501 68.1763 48.3803 68.1021L48.3804 68.102L48.3804 68.1019C48.4144 68.0186 48.4473 67.9381 48.4789 67.8506L48.5068 67.7727L48.5253 67.7207L48.5606 67.6206L48.5607 67.6204C48.5979 67.5148 48.6367 67.4047 48.6754 67.2988C48.7438 67.112 48.7908 66.9762 48.8421 66.8149C48.8923 66.6569 48.9548 66.4419 49.0095 66.2536L49.0096 66.2534L49.013 66.2418C49.0421 66.1416 49.0678 66.0588 49.0923 65.9795L49.0923 65.9795L49.0924 65.9793C49.1146 65.9076 49.1359 65.8387 49.1582 65.7622C49.1885 65.6585 49.2222 65.5249 49.2561 65.3909L49.2561 65.3909L49.2561 65.3907C49.2749 65.3163 49.2938 65.2418 49.312 65.1721C49.3633 64.9769 49.3932 64.8538 49.4317 64.6925C49.4581 64.5818 49.4905 64.4232 49.5206 64.2756C49.5344 64.2081 49.5478 64.1428 49.5599 64.0855C49.576 64.0087 49.5915 63.9409 49.6061 63.8765L49.6061 63.8764C49.6263 63.7877 49.6451 63.7053 49.6624 63.6143C49.6868 63.4859 49.7199 63.2837 49.7498 63.1005L49.7498 63.1004L49.7692 62.9819C49.7832 62.8967 49.795 62.8301 49.8056 62.7706L49.8056 62.7705C49.8209 62.6847 49.8335 62.6137 49.8461 62.5234C49.8803 62.3069 49.9059 62.0989 49.9316 61.8655C49.9316 61.7656 49.9489 61.6676 49.9655 61.5741L49.9655 61.5741C49.9736 61.5286 49.9815 61.4841 49.9871 61.441C50.0119 61.2197 50.0286 60.9944 50.0451 60.7728L50.0469 60.7491C50.0469 60.6671 50.0557 60.5866 50.0647 60.5041L50.0647 60.504C50.0711 60.4456 50.0776 60.3862 50.0811 60.3246C50.0811 60.1633 50.0925 60.002 50.1039 59.8407C50.1096 59.7601 50.1153 59.6794 50.1195 59.5988V59.2083V58.44V58.0877C50.1195 57.8075 50.1195 57.5316 50.0939 57.2387V56.9501C50.0939 56.7414 50.0755 56.5328 50.0571 56.3241C50.0489 56.2314 50.0407 56.1387 50.0341 56.0459V55.8167C50.0053 55.4818 49.9647 55.1508 49.9236 54.8161L49.9187 54.7768V54.6876C49.6676 52.765 49.2385 50.8695 48.637 49.0251C48.637 48.989 48.6205 48.9547 48.6043 48.921C48.5958 48.9033 48.5874 48.8857 48.5814 48.8681C48.4789 48.5455 48.3678 48.2271 48.2525 47.9045L48.1457 47.6329C48.1132 47.5477 48.0811 47.4625 48.049 47.3771L48.0483 47.3753L48.0481 47.3747L48.0479 47.3742L48.0477 47.3739L48.0475 47.3732C47.9743 47.179 47.9007 46.9835 47.821 46.7839C47.7848 46.6926 47.7462 46.6038 47.707 46.5137L47.6714 46.4316C47.5689 46.1812 47.4621 45.9307 47.351 45.6845C47.3306 45.6383 47.3093 45.5927 47.2877 45.5463L47.2877 45.5463C47.2457 45.4563 47.2025 45.3637 47.163 45.26C47.0562 45.0308 46.9494 44.8016 46.834 44.5682C46.7952 44.4886 46.7536 44.409 46.7116 44.3287L46.7115 44.3285C46.6796 44.2675 46.6475 44.206 46.6161 44.1437C46.5464 44.0079 46.4767 43.8754 46.405 43.739L46.4046 43.7383L46.4043 43.7377L46.404 43.7372C46.3617 43.6567 46.3186 43.5748 46.2743 43.49C46.1974 43.3414 46.112 43.1971 46.0308 43.0655C45.9839 42.9824 45.9377 42.8992 45.8917 42.8164L45.8915 42.8161C45.82 42.6875 45.7489 42.5595 45.6762 42.433C45.5846 42.2738 45.5255 42.1817 45.4607 42.0806L45.4607 42.0806L45.4606 42.0805L45.4606 42.0804C45.4408 42.0496 45.4204 42.0178 45.3985 41.9831C45.3632 41.9274 45.3208 41.8538 45.2747 41.7739L45.2744 41.7733L45.2743 41.7733L45.2743 41.7732L45.2743 41.7732C45.1976 41.6402 45.111 41.49 45.031 41.3761L44.7191 40.9049C44.5952 40.7139 44.4713 40.5229 44.3431 40.3361L44.0013 39.8522C43.926 39.7506 43.8524 39.6474 43.7783 39.5435L43.7783 39.5435L43.7781 39.5433L43.7779 39.543L43.7775 39.5425C43.7342 39.4817 43.6908 39.4208 43.6467 39.3598C41.563 38.8221 39.5238 38.2844 37.5542 37.765C36.4141 37.4644 35.2974 37.1699 34.2088 36.8852C41.5874 46.1854 43.3434 58.2787 37.5072 69.9093ZM55.3491 73.7126L46.2658 73.6319C52.9223 63.9369 52.307 50.4683 44.702 39.674L53.2555 41.9958C53.4096 42.1733 53.5636 42.3729 53.7064 42.558C53.7617 42.6296 53.8153 42.699 53.8665 42.7641C53.9216 42.8341 53.9747 42.9003 54.0276 42.9661L54.0276 42.9661C54.151 43.1198 54.2728 43.2713 54.4134 43.4645C54.5489 43.6506 54.6824 43.858 54.8061 44.0501L54.8061 44.0502C54.8658 44.1429 54.9231 44.232 54.9774 44.3135C55.0341 44.3987 55.0908 44.4806 55.1477 44.5626L55.1478 44.5628L55.1478 44.5628C55.258 44.7217 55.3688 44.8815 55.4815 45.069C55.6013 45.2684 55.7212 45.4866 55.8336 45.6914C55.8816 45.7787 55.9282 45.8635 55.9728 45.9434L56.029 46.0438C56.1582 46.2746 56.2833 46.4982 56.4215 46.7542C56.5206 46.938 56.6114 47.1368 56.698 47.3266L56.6981 47.3267L56.6982 47.3269L56.6983 47.3272L56.6984 47.3274L56.6986 47.3277L56.6987 47.328L56.6988 47.3282C56.7499 47.4403 56.7996 47.5491 56.8487 47.6498L56.8518 47.6562C56.9833 47.9259 57.1189 48.204 57.246 48.4988C57.3347 48.7042 57.411 48.9138 57.4879 49.1246C57.5222 49.2186 57.5565 49.3129 57.5921 49.4072C57.6306 49.5091 57.6705 49.6114 57.7103 49.7138C57.7901 49.9184 57.8698 50.1231 57.9382 50.324C58.0013 50.5094 58.053 50.6917 58.1064 50.8796C58.1398 50.9971 58.1738 51.1168 58.2116 51.2409C58.2391 51.3311 58.2676 51.4226 58.2961 51.5143L58.2963 51.515C58.3698 51.7512 58.4437 51.9887 58.5021 52.2087C58.5529 52.3999 58.592 52.5844 58.633 52.7779C58.6575 52.8937 58.6827 53.0127 58.7115 53.1383C58.7339 53.2361 58.7578 53.3365 58.7818 53.4372C58.84 53.6816 58.8986 53.9279 58.9379 54.1443C58.9935 54.4499 59.0319 54.7131 59.0832 55.0654C59.1034 55.2041 59.1262 55.3495 59.1489 55.4933L59.149 55.4942L59.1491 55.4947L59.1491 55.4951L59.1492 55.4957L59.1492 55.4958C59.1839 55.7164 59.2181 55.9335 59.2413 56.1181C59.2639 56.2975 59.2761 56.4637 59.2893 56.6426L59.2893 56.6429C59.2986 56.7686 59.3084 56.9006 59.3225 57.0477C59.3566 57.4043 59.3951 57.8075 59.4165 58.1174C59.4271 58.2723 59.4271 58.4155 59.4271 58.565V58.5652C59.4271 58.7148 59.4271 58.8708 59.4378 59.0512C59.4592 59.412 59.4592 59.8323 59.4592 60.1421C59.4592 60.3291 59.4498 60.4976 59.4396 60.682C59.4329 60.8032 59.4258 60.9312 59.4207 61.076C59.4179 61.1577 59.4152 61.2418 59.4125 61.3267L59.4125 61.3271C59.4032 61.6212 59.3936 61.9251 59.3737 62.1753C59.357 62.3865 59.3329 62.5885 59.3074 62.8016L59.3074 62.8017L59.3074 62.8019C59.294 62.9144 59.2802 63.03 59.2669 63.1516C59.254 63.27 59.2425 63.3908 59.231 63.5117L59.231 63.5121C59.2083 63.7509 59.1856 63.9903 59.1516 64.2128C59.1184 64.4297 59.0781 64.6466 59.0376 64.8646L59.0375 64.865L59.0375 64.8653L59.0374 64.8656L59.0373 64.8659L59.0373 64.8662L59.0372 64.8666L59.0372 64.8669C59.0152 64.9852 58.9931 65.1039 58.9721 65.2231C58.9519 65.338 58.9331 65.4533 58.9143 65.5688L58.9143 65.569L58.9143 65.5691L58.9142 65.5694L58.9142 65.5697L58.9142 65.5698C58.8775 65.7954 58.8407 66.0217 58.7927 66.2461C58.7449 66.4693 58.6861 66.6979 58.6284 66.9225L58.6283 66.9226L58.6282 66.923C58.5982 67.0399 58.5684 67.1557 58.5406 67.269C58.5135 67.3794 58.4879 67.4898 58.4623 67.6002C58.411 67.8209 58.3597 68.0416 58.2971 68.2623C58.2159 68.5539 58.121 68.8432 58.0258 69.1335L58.0258 69.1336L58.0258 69.1336L58.0257 69.1337L58.0257 69.1337L58.0257 69.1338L58.0257 69.1338L58.0257 69.1339L58.0257 69.1339L58.0257 69.134L58.0257 69.134C57.9906 69.2408 57.9556 69.3478 57.9211 69.4551C57.8903 69.5515 57.8611 69.6479 57.8321 69.7442L57.8319 69.7448C57.7804 69.9153 57.729 70.085 57.669 70.2531C57.4411 70.9125 57.1848 71.5647 56.9 72.2099C56.8357 72.3612 56.7524 72.5039 56.6522 72.6344V72.6599C56.546 72.7911 56.4303 72.9146 56.3061 73.0292L56.2676 73.0674C56.1395 73.1777 56.007 73.2838 55.866 73.3857L55.8062 73.4282C55.7056 73.4978 55.6028 73.5653 55.501 73.6322L55.5009 73.6323L55.5009 73.6323L55.5008 73.6323L55.5002 73.6327L55.4381 73.6735L55.379 73.7126H55.3491ZM64.2615 72.957C64.3181 72.8479 64.3768 72.7402 64.4353 72.6327L64.4354 72.6326C64.5226 72.4725 64.6095 72.313 64.6887 72.1505C64.7698 71.9843 64.8572 71.7815 64.9461 71.5752C65.0026 71.4444 65.0596 71.3121 65.116 71.1869L65.1463 71.1196L65.1463 71.1195L65.1465 71.1191C65.2765 70.8307 65.376 70.61 65.4791 70.338C65.5902 70.0451 65.7141 69.6758 65.8252 69.3447C65.8688 69.2147 65.9104 69.0978 65.9504 68.9858L65.9507 68.9848L65.9509 68.9842L65.9511 68.9837L65.9512 68.9835C66.0126 68.8111 66.07 68.65 66.1243 68.4703C66.1936 68.2405 66.2656 67.965 66.3361 67.6949L66.3693 67.5678L66.3977 67.4601C66.4246 67.3582 66.4504 67.2636 66.4751 67.1729L66.4753 67.1721L66.4754 67.1719L66.4755 67.1715C66.533 66.9601 66.5849 66.7694 66.6327 66.5559C66.6843 66.3253 66.7334 66.056 66.782 65.79C66.7978 65.7035 66.8135 65.6173 66.8292 65.5329C66.8496 65.4237 66.8695 65.3218 66.8887 65.2235L66.8887 65.2234L66.8888 65.2232C66.93 65.0121 66.9681 64.8176 67.0001 64.6033C67.0377 64.3519 67.0699 64.0623 67.101 63.7825L67.124 63.5761C67.1385 63.4481 67.1542 63.3267 67.1695 63.2084C67.1949 63.0127 67.2191 62.8252 67.2351 62.6295C67.2522 62.4195 67.2617 62.181 67.2713 61.942C67.276 61.8235 67.2807 61.7049 67.2864 61.5896C67.2913 61.4888 67.2966 61.3933 67.3018 61.3009L67.3019 61.2996L67.3019 61.2988L67.3019 61.2983L67.302 61.2978L67.302 61.2973L67.302 61.2968L67.302 61.2964V61.2964V61.2963V61.2962C67.3146 61.0714 67.3261 60.8646 67.3291 60.643C67.3319 60.4336 67.331 60.1902 67.33 59.9469C67.3296 59.8252 67.3291 59.7035 67.3291 59.5861C67.3291 59.2337 67.3291 58.9663 67.3077 58.6565C67.2864 58.3466 67.2479 57.9306 67.2137 57.5656C67.2017 57.448 67.1925 57.3297 67.1832 57.2112C67.1694 57.0347 67.1556 56.8579 67.1326 56.6827C67.0967 56.3861 67.0463 56.0895 66.9944 55.7842L66.9944 55.7842L66.9944 55.7841L66.9944 55.7839L66.9943 55.7838C66.972 55.6523 66.9493 55.5192 66.9275 55.3838C66.8549 54.9338 66.795 54.6367 66.7139 54.2631L66.6958 54.1792C66.5992 53.7309 66.5012 53.2764 66.3806 52.8369C66.3403 52.6846 66.2914 52.5356 66.2427 52.3869C66.214 52.2993 66.1853 52.2119 66.1584 52.1238C66.1286 52.0251 66.0994 51.9262 66.0702 51.8272C65.9862 51.5428 65.9021 51.2579 65.8038 50.9777C65.7532 50.8341 65.6959 50.6946 65.6386 50.5553C65.5943 50.4475 65.55 50.3399 65.509 50.2306L65.4622 50.1092L65.4334 50.0343L65.4334 50.0342C65.3235 49.7476 65.2139 49.4621 65.0818 49.1822C65.0077 49.0152 64.9261 48.8558 64.8444 48.6964C64.8036 48.6167 64.7628 48.537 64.7229 48.4563L64.659 48.3205C64.5229 48.0307 64.3873 47.7421 64.2358 47.4631C64.1076 47.2254 63.9624 46.9961 63.8086 46.7627C63.75 46.6639 63.6922 46.5642 63.6344 46.4643C63.5109 46.251 63.387 46.037 63.2531 45.8288C63.1764 45.7133 63.094 45.6046 63.0106 45.4945L63.0105 45.4943C62.9315 45.39 62.8515 45.2845 62.7746 45.1709C62.6166 44.9374 62.3901 44.6106 62.1765 44.322C59.613 43.6301 57.0282 42.9339 54.4518 42.2463C60.7409 50.1967 62.0312 62.1584 57.6178 72.384C57.3786 72.9156 57.0011 73.3743 56.524 73.7126L63.8128 73.7805C63.9296 73.5892 64.0371 73.3841 64.1455 73.177L64.2057 73.0623L64.2399 72.9976L64.2615 72.957ZM74.5923 69.4636L72.1143 70.5969C70.5951 71.2938 69.1021 71.9776 67.6617 72.6372L67.6324 72.6507L67.6043 72.6635L67.5938 72.6683L67.5653 72.6814C66.7142 73.0712 65.8816 73.4525 65.0732 73.8229H64.646C69.773 64.7689 69.1962 52.735 63.3001 44.67L71.2769 46.8221C71.4359 47.0338 71.5922 47.2669 71.7331 47.4769L71.7332 47.4771L71.7336 47.4777C71.7705 47.5326 71.8063 47.5861 71.8408 47.6371C71.8963 47.7191 71.9499 47.7964 72.0035 47.8737L72.0037 47.8739C72.111 48.0286 72.2182 48.1833 72.3407 48.3757C72.5244 48.6643 72.7252 49.0124 72.8577 49.2671C72.9144 49.3762 72.9743 49.4768 73.0357 49.5798C73.1175 49.7172 73.2019 49.8589 73.2849 50.0311C73.3624 50.1919 73.4423 50.3647 73.5195 50.5316L73.5196 50.5318C73.587 50.6777 73.6524 50.819 73.7122 50.9438C73.7519 51.0267 73.7909 51.106 73.8296 51.1848L73.83 51.1856C73.9161 51.3608 74.0012 51.5342 74.0924 51.7418C74.2249 52.0431 74.3445 52.3658 74.4513 52.6586C74.4984 52.7877 74.5463 52.9109 74.5939 53.0335L74.594 53.0337L74.594 53.0338L74.594 53.0339C74.6545 53.1894 74.7144 53.3439 74.7718 53.5076C74.8462 53.7201 74.9093 53.9348 74.9726 54.1502L74.9727 54.1503C74.9966 54.2317 75.0206 54.3132 75.0452 54.3947C75.0735 54.4886 75.104 54.5868 75.1346 54.6853L75.1347 54.6856C75.2009 54.8987 75.2676 55.1134 75.3144 55.2904C75.3577 55.4547 75.3925 55.6207 75.4274 55.7873C75.4475 55.8833 75.4677 55.9795 75.4895 56.0757C75.6476 56.7718 75.7758 57.4722 75.8741 58.1726C75.8857 58.255 75.8984 58.337 75.911 58.4188L75.911 58.4193C75.9354 58.5773 75.9597 58.7348 75.9766 58.8942C76.0051 59.1363 76.0195 59.411 76.032 59.6493C76.0364 59.7327 76.0405 59.8117 76.045 59.8832C76.051 59.9811 76.0598 60.0731 76.0685 60.1653V60.1653V60.1654V60.1654V60.1654V60.1655V60.1655V60.1655V60.1656C76.0845 60.3332 76.1005 60.5014 76.1005 60.7067V61.6575C76.1005 61.7505 76.1019 61.8412 76.1033 61.9322V61.9323C76.1062 62.1153 76.1091 62.2995 76.1005 62.5065C76.0906 62.7447 76.0656 62.998 76.043 63.2278L76.0429 63.228L76.0331 63.3277L76.0236 63.4276C76.0147 63.5236 76.0073 63.6196 75.9999 63.7166L75.9998 63.7168C75.9859 63.8983 75.9717 64.0829 75.9467 64.2765C75.9177 64.5003 75.8767 64.724 75.8363 64.9441L75.8362 64.9443L75.8362 64.9444L75.8362 64.9444L75.8362 64.9445L75.8362 64.9445L75.8362 64.9445L75.8362 64.9446L75.8115 65.0795L75.7972 65.1594C75.7775 65.2699 75.7598 65.3803 75.742 65.491C75.7133 65.6696 75.6845 65.8488 75.6476 66.0296C75.5944 66.2904 75.5241 66.5479 75.4581 66.79L75.458 66.7902L75.434 66.8785C75.4069 66.9781 75.3799 67.0836 75.3524 67.1908C75.3061 67.3715 75.2585 67.557 75.2076 67.7275C75.1466 67.9315 75.076 68.126 75.0029 68.3271C74.9787 68.3937 74.9543 68.4611 74.9298 68.5297C74.8947 68.6283 74.8607 68.729 74.8264 68.8305L74.8264 68.8306L74.8264 68.8306L74.8264 68.8307L74.8264 68.8307L74.8264 68.8308C74.7647 69.0134 74.7021 69.1987 74.6308 69.3787C74.6162 69.4062 74.6033 69.4345 74.5923 69.4636ZM83.3808 64.0601V64.0601V64.06C83.3723 63.9794 83.3642 63.8987 83.3561 63.8181C83.34 63.6568 83.3238 63.4955 83.3039 63.3342C83.2612 63.0158 83.2099 62.6932 83.1586 62.3749L83.1586 62.3748L83.1586 62.3747L83.1586 62.3746L83.1586 62.3745L83.1586 62.3745L83.1586 62.3744L83.1586 62.3743L83.1585 62.3742C83.1244 62.1325 83.0902 61.8907 83.0518 61.6533C83.0045 61.3912 82.9491 61.1292 82.8942 60.8693L82.8942 60.8692L82.851 60.6642L82.8318 60.5661L82.8112 60.46C82.7787 60.2922 82.7465 60.1259 82.71 59.9596C82.629 59.6077 82.5351 59.2601 82.4412 58.9124L82.4412 58.9123L82.4412 58.9123L82.4411 58.9122L82.4411 58.9121L82.4411 58.912L82.4411 58.9119L82.441 58.9119L82.4409 58.9111C82.4223 58.839 82.4048 58.7678 82.3872 58.6965C82.3521 58.5541 82.3169 58.4117 82.2742 58.2617C82.1631 57.8754 82.0392 57.4934 81.9111 57.1114C81.8886 57.0427 81.8673 56.9741 81.8461 56.9057L81.846 56.9053C81.8108 56.7919 81.7758 56.6791 81.7359 56.568C81.5693 56.0884 81.3813 55.613 81.189 55.1376C81.1681 55.0856 81.1487 55.0335 81.129 54.9805L81.129 54.9804C81.1165 54.9469 81.104 54.9131 81.0908 54.8786C80.8558 54.3183 80.5994 53.7623 80.3217 53.2062L80.2149 53.0025C79.9671 52.5228 79.7107 52.0389 79.4117 51.5592C79.3547 51.4634 79.2935 51.3689 79.2322 51.2742L79.2321 51.2741L79.2318 51.2737L79.2317 51.2735L79.2316 51.2734L79.2316 51.2733L79.2315 51.2732L79.2314 51.2731C79.1871 51.2047 79.1427 51.1361 79.0998 51.0669L79.009 50.9197L79.0089 50.9196L79.0088 50.9194L79.0087 50.9192L79.0086 50.9191L79.0085 50.9189L79.0084 50.9188L79.0083 50.9186C78.8087 50.5945 78.6093 50.2709 78.3905 49.9505C78.2783 49.785 78.1538 49.6257 78.0301 49.4673L78.03 49.4672L77.9633 49.3817L77.9316 49.3374L77.9315 49.3372C77.7117 49.0298 77.4946 48.7261 77.2541 48.4224L72.3236 47.0895C76.9422 53.7368 78.0231 62.1244 75.4981 69.0306L76.4326 68.6032C78.9687 67.443 81.3152 66.3696 83.4748 65.4311C83.4919 65.291 83.4876 65.1424 83.4748 64.9939C83.4492 64.6884 83.415 64.3744 83.3808 64.0604V64.0603V64.0603V64.0603V64.0602V64.0602V64.0601ZM82.5477 49.8613C85.5168 53.8194 87.8436 58.215 89.4435 62.8885C88.0377 63.4662 86.4827 64.144 84.791 64.8814L84.231 65.1254C83.808 59.7346 82.2571 53.8981 78.4119 48.7407L82.5477 49.8613ZM81.2488 73.5513C81.3886 73.4799 81.5588 73.3902 81.7534 73.2875C82.4155 72.9384 83.3601 72.4402 84.3507 72.0104C84.7437 72.4731 85.7948 73.0886 86.4869 72.3415C86.5688 72.2766 86.6356 72.1948 86.6826 72.1018C86.7297 72.0088 86.756 71.9068 86.7596 71.8027C86.7633 71.6987 86.7442 71.5951 86.7038 71.4991C86.6634 71.403 86.6025 71.3168 86.5254 71.2464C87.3799 71.0596 88.0891 71.0681 88.5377 71.4204C88.9137 73.0844 85.8033 73.6107 83.5261 73.9673L83.7072 73.9674C85.2431 73.9696 88.0804 73.9736 89.0205 72.7745C89.0108 73.0227 88.9808 73.2697 88.9308 73.5131C89.1999 73.98 90.4219 73.5131 90.3449 73.0886C92.0112 67.7869 83.9063 70.3125 81.2488 73.5513ZM102.325 94.5203C104.548 95.1799 106.876 95.4147 109.187 95.2122C113.455 94.8854 119.573 92.0414 119.573 92.0414C117.33 94.3632 112.25 96.978 105.756 96.978C103.88 96.978 94.0022 96.4856 94.3269 94.4312C93.9222 94.4867 93.4554 94.6173 92.9656 94.7543C91.9197 95.047 90.7693 95.3689 89.8963 95.0509C90.8952 90.8978 98.4127 93.2823 101.602 94.2938C101.878 94.3813 102.121 94.4585 102.325 94.5203ZM88.0634 95.9465V94.5118C85.6402 95.5234 83.0865 94.8475 80.5298 94.1708L80.5297 94.1707C78.795 93.7116 77.059 93.2521 75.3614 93.319C73.5402 93.3908 72.0436 94.2903 70.3866 95.2861C68.2224 96.5868 65.7846 98.0519 61.9928 98.0519C66.4704 98.8021 71.0098 99.1261 75.5493 99.0197C77.1695 98.9538 79.3421 99.272 81.6672 99.6124L81.6673 99.6125C85.9335 100.237 90.7131 100.937 93.5365 99.4782C88.9416 100.398 83.2957 98.5555 80.8109 97.7448L80.8106 97.7447L80.8099 97.7445C80.3355 97.5897 79.9764 97.4726 79.762 97.4195C79.2702 97.2973 78.2382 97.2693 77.2125 97.2414H77.2123C76.2066 97.2141 75.2071 97.187 74.729 97.0714C76.1747 95.4304 80.8541 96.4577 83.8055 97.1056C84.4651 97.2504 85.0385 97.3763 85.4701 97.4492C86.6774 97.6539 88.5957 97.9385 90.2881 98.1896C91.123 98.3134 91.9028 98.4291 92.5154 98.5231C95.6685 99.0028 103.222 98.1199 104.752 97.7293C97.1339 98.0519 90.5757 97.4025 88.0634 95.9465Z" fill="#FF9D00"/>
</svg>
