<?xml version="1.0" encoding="utf-8"?>
<!-- Generator: Adobe Illustrator 24.1.3, SVG Export Plug-In . SVG Version: 6.00 Build 0)  -->
<svg version="1.1" id="Layer_1" xmlns="http://www.w3.org/2000/svg" xmlns:xlink="http://www.w3.org/1999/xlink" x="0px" y="0px"
	 viewBox="0 0 1000 850" style="enable-background:new 0 0 1000 850;" xml:space="preserve">
<style type="text/css">
	.st0{fill:url(#SVGID_1_);}
	.st1{fill:url(#SVGID_2_);}
	.st2{fill:url(#SVGID_3_);}
	.st3{fill:url(#SVGID_4_);}
	.st4{fill:url(#SVGID_5_);}
	.st5{fill:url(#SVGID_6_);}
	.st6{fill:url(#SVGID_7_);}
	.st7{fill:url(#SVGID_8_);}
	.st8{fill:url(#SVGID_9_);}
	.st9{fill:url(#SVGID_10_);}
	.st10{fill:url(#SVGID_11_);}
	.st11{fill:#FFFFFF;}
</style>
<g>
	<polygon class="st11" points="341.7,695 301.7,695 241.3,754.9 261.7,695 219.7,695 182,805.6 122.4,805.6 130.6,781.9 
		183.4,781.9 194.3,749.7 141.5,749.7 148.7,728.5 200.5,728.5 212,695 127.4,695 116.5,695 25.1,695 13.2,729.9 43.2,729.9 
		5.4,840.2 47.7,840.2 85.4,729.9 104.6,729.9 66.8,840.2 170.1,840.2 176.2,840.2 212.1,840.2 223.6,806.6 245.8,785.6 
		252.2,840.2 300.9,840.2 286.9,748.1 	"/>
	<path class="st11" d="M619.8,737.9c-4.4,13-7.6,25.7-9.6,38.1c-0.7-8-2.7-17.4-5.7-27.9l-15.6-53.2h-42l-14,40.8
		c-0.4-8-2.4-15.1-6.2-21.2c-8.3-13.1-22.5-19.7-42.7-19.7c-1.7,0-3.3,0.1-4.9,0.1H352.9l-36,34.9h29.7l-35.4,103.8l0.9,6.6h39
		l37.7-110.3h22c-9.7,11.2-17.1,24.1-22.2,38.8c-7.6,22.5-7.5,40.2,0.8,53.6c8.2,13.4,22.6,20.1,42.9,20.1
		c20.2,0,39.2-6.8,56.8-20.7c8.6-6.6,16-14.4,22.2-23.2l-14.2,41.6h36.1l24.1-70.3c2.3-6.4,3.9-14.4,4.7-23.8
		c0.9,11.9,2.4,21.9,4.8,30.2l18.1,64h36.4L670.9,695h-36.4L619.8,737.9z M480.4,764.6c-6,17.2-11.9,29-17.4,35.6s-12,9.8-19.7,9.8
		c-14,0-16.6-13.4-7.4-40.1c9.9-28.3,22.2-42.5,36.9-42.5C486.5,727.3,489.1,739.8,480.4,764.6z"/>
	<path class="st11" d="M765.5,784.9c-4.6,12-13.9,24-27.5,24c-20,0-12.7-24.6-7.8-39.1c4.5-13.7,15.4-43.8,35-43.8
		c14.9,0,14.5,15.4,10,27.6l42-2.1c9-36-4.8-57.9-41.6-57.9c-45.5,0-76.9,34.5-90.8,76.2c-13.6,41-1.3,72.4,42,72.4
		c33.3,0,64.6-21.5,78.4-54.7L765.5,784.9z"/>
	<polygon class="st11" points="851.6,804.7 887.8,695.7 843.2,695.7 795.2,840.1 896.4,840.1 908.2,804.7 	"/>
	<polygon class="st11" points="952.2,695.7 904.2,840.1 948.8,840.1 996.8,695.7 	"/>
	<circle class="st11" cx="592.2" cy="64.1" r="5.6"/>
	<path class="st11" d="M592.2,94.3c3.1,0,5.6-2.5,5.6-5.6c0-3.1-2.5-5.6-5.6-5.6c-3.2,0-5.6,2.5-5.6,5.6
		C586.6,91.8,589.1,94.3,592.2,94.3z"/>
	<path class="st11" d="M626.6,58.5c-3.1,0-5.5,2.5-5.6,5.6c0,3.1,2.5,5.6,5.6,5.6s5.6-2.5,5.6-5.6S629.7,58.5,626.6,58.5z"/>
	<path class="st11" d="M609.3,281.4h0.1h0.3c15.1-0.1,38-7.6,35-23.1c-1.9-9.4-20.2-13.8-35.4-13.8c-15.1,0-33.4,4.4-35.3,13.8
		C571.1,273.9,594.2,281.4,609.3,281.4z"/>
	<path class="st11" d="M626.6,83.1c-3.1,0-5.5,2.5-5.6,5.6c0,3.1,2.5,5.6,5.6,5.6s5.6-2.5,5.6-5.6C632.2,85.6,629.7,83.1,626.6,83.1
		z"/>
	<path class="st11" d="M185.1,503.7l-28.6,126.9c-0.2,0.7-0.2,1.5-0.2,2.3c0,0.1,0,0.1,0,0.2v34c0,5.2,4.2,9.4,9.4,9.4h637.3
		c5.2,0,9.4-4.2,9.4-9.4v-34c0-0.1,0-0.2,0-0.3c0-0.8-0.1-1.6-0.3-2.5l-31-120c3.5-7.7,4.6-13,4.6-13.4l0.2-1.3l-0.1-1.3
		c-4.9-54.3-55.8-127.1-65.4-140.4c1-1.3,2-2.7,2.9-4.2c2.1-3.3,4-6.8,5.6-10.3c0.3-0.7,0.7-1.5,0.9-2.1c19.1-11,36.8-25.4,52-44.1
		c8.8-10.8,21.1-26.7,22.3-41.1c0.5-4.8,0.7-9.8,0.8-14.7c0.1-11.9-0.5-23.8-2-35.6c-0.8-6.6-1.9-13-3.1-19.3
		c9-10.3,16.7-21.5,23.3-33.6c10.2-18.9,16.8-39.3,19.4-60.7c2.5-21,0.8-42.4-4.7-63C835,14.8,825.7,7.7,815,7.7
		c-40.1,0-74.9,16.4-107,37.6c-60.4-37.2-136.9-37-197.2,0c-32.2-21.1-66.9-37.6-107-37.6c-10.7,0-19.9,7.1-22.9,17.4
		c-1.3,4.8-2.4,9.7-3.3,14.6H255.9c-5.2,0-9.4,4.2-9.4,9.4v213.3c-33.9,11.6-62,37.7-83.9,78c-17.3,32-19.3,76.9-5.3,117.3
		C164.1,476.9,173.6,492.5,185.1,503.7z M793.5,657.7H174.9v-15.3h618.6V657.7z M790.8,623.3H177.3l24.3-107.5
		c1.4,0.8,2.9,1.5,4.3,2.1c5.7,2.5,12.2,4.4,19.1,5.9l-3.7,20.3c-0.3,1.6,0.1,3.2,1.2,4.4c1,1.2,2.5,1.9,4.1,1.9h145
		c-3.3,9.2-4.1,19.2-1.9,28.5c4.4,18.5,19.9,31.2,42.6,34.7c3.1,0.5,6.2,0.7,9.3,0.7c15.8,0,31.4-6.1,44.2-17.1h113.1
		c1.6,0,3.1-0.7,4.1-1.9c1-1.2,1.4-2.9,1.1-4.4l-3.4-17.8c11-3,21.4-9.7,28.1-18c9.3,11.5,25.6,19.8,40.7,19.8
		c1.6,0,3.1-0.1,4.6-0.3c6.6-0.8,13.1-2.7,18.9-5.4l3.9-0.2c49.1-2.3,76-21.3,89.9-36.9c0.2-0.2,0.3-0.4,0.5-0.5L790.8,623.3z
		 M683,550.1c0.9-4.5,0.8-10.6-4.1-15.5c0,0,0.1,9.4-10.9,16c-2,1.2-4.3,2.3-7.1,3.2c-0.4,0.1-0.8,0.3-1.2,0.4
		c-2.6,0.8-5.2,1.4-8,1.7c-10.8,1.3-28.7-7.7-31.6-18.4c-0.4-1.6-1.5-5.5,7.7-9.4c8.4-3.6,16.3-4.9,23.3-4.9c7.3,0,13.4,1.4,18.1,3
		c0,0,0,0,0,0l0,0c0,0,0,0,0,0c3.2-1.7,6.1-3.5,8.9-5.5c4.9-3.5,9.1-7.3,12.7-11c2.2-2.2,4-4.4,5.7-6.3c2.2-2.6,3.8-4.9,5-6.6
		c0.6-0.9,1.2-1.7,1.7-2.7c2.4,2.6,4.6,5.2,6.4,7.8c11.7,16.3,12.6,31.1,11.9,39.2c-7,2.9-15.1,5.2-24.4,6.9c0-0.1,0.1-0.1,0.1-0.2
		C691.6,549,686.9,549.7,683,550.1z M669.3,501.8c-2.4,1.4-4.6,2.6-6.6,3.7c-11.6-1.9-26.2-1.4-42.3,5.5c-4.8,2-8.7,4.6-11.8,7.6
		c-3.1-3-7-5.5-11.8-7.6c-15.7-6.8-30.1-7.3-41.6-5.6c-2.3-1.1-4.8-2.5-7.5-4c-2.6-1.5-5.6-3.4-8.8-5.6
		c6.5-24.2,35.5-42.5,70.2-42.5c33.7,0,63.1,18,70,41.8C675.6,497.9,672.2,500.1,669.3,501.8z M548.3,526.2c9.2-3.1,24.1-5.4,41.3,2
		c9.2,3.9,8.2,7.8,7.7,9.4c-2.9,10.7-20.8,19.7-31.6,18.4c-2.6-0.3-5.1-0.9-7.4-1.6c-0.5-0.2-1-0.4-1.6-0.6c-2.8-0.9-5.1-2-7.1-3.2
		c-11-6.6-10.9-16-10.9-16c-4.9,4.9-5,11-4.1,15.5c-5.1-0.6-11.5-1.6-19.3-3.4c-0.2,0-0.4-0.1-0.6-0.1c-0.1,0-0.3-0.1-0.4-0.1
		c-0.5-0.1-0.9-0.2-1.3-0.3c-1.1-0.3-2.1-0.5-3.2-0.8c-5.5-1.5-10.5-3.3-15-5.3c0.5-5.4,0.5-10.9-0.1-16.6c1.8-5.4,4.1-9.8,6.6-13.5
		c6.3-9.3,13.7-13.5,16-14.6c4.2,6.2,8.4,11.3,11.2,14.4C529.5,511.1,539.3,521.9,548.3,526.2z M541.9,569l2.4,0.1
		c5.9,2.7,12.4,4.6,19.1,5.4c1.5,0.2,3.1,0.3,4.6,0.3c0.7,0,1.3,0,2-0.1l2.3,11.7H476c2.7-3.3,5.2-6.9,7.4-10.7
		c3-5.1,5.6-10.8,7.5-17C508.6,565.7,526.8,568.3,541.9,569z M467.3,566.3c-12,20.5-32.5,31.8-52.3,28.7
		c-15.2-2.3-24.6-9.4-27.2-20.5c-2.8-11.7,2.6-26.2,12.3-33.1c12.9-9.2,17.8-17.1,18.8-23.4c10.1-5.2,33-13.6,56.4,2.1
		C478.3,535.8,475.8,551.8,467.3,566.3z M376.6,539.6H347v-16.7c10.3-1.3,19.6-2.6,27.3-3.7c7-1,12.5-1.8,16.1-2.1
		c4.1-0.4,7-0.3,8.8,0c-1.4,2-4.4,5.1-10,9.1C384.2,529.7,380,534.4,376.6,539.6z M415.2,505.1c-6.4-7.3-19-7.4-26.7-6.6
		c-2.8,0.3-6.6,0.8-11.2,1.4c0.1-9.4,2.6-17.3,7.4-23.6c5.8-7.6,14.1-11.6,20.1-13.6c23.1,2.7,43.2,9.8,55.3,25.3
		c3.5,4.5,6.4,9.1,8.8,13.9C447,493.6,426.6,499.8,415.2,505.1z M374.2,468c-7.1,9.2-10.5,20.5-10.3,33.8c-12.4,1.7-28.6,3.8-46,5.4
		c-4.7-17.1,2.6-34.5,7.2-43.1c17.9-1.5,37.1-3,55.5-2.8C378.3,463.3,376.2,465.5,374.2,468z M336.3,524.2v15.4h-30.1l0.4-12.7
		C316.9,526.2,326.9,525.2,336.3,524.2z M304.4,508.3c-17.1,1.2-34.8,1.6-51,0.5c-3.6-16.1,3.1-33.5,7.2-42.1
		c13,1.5,29.6,0.5,49-1.2C305,476.3,300.7,492,304.4,508.3z M296,527.6l-0.4,12h-62.7l2.6-14C254.1,528.4,275.2,528.6,296,527.6z
		 M242.4,507.7c-11-1.4-21-3.6-29.1-7.1c-7.9-3.4-15.3-9.6-21.9-18c2.5-22.8,21.1-34.6,32-39.6c4.5,7.8,11.2,14.7,20.9,19.4
		c1.7,0.8,3.6,1.5,5.5,2.1C245.4,474.3,239.8,491,242.4,507.7z M767,494.5c-1.3,5.2-8,25.3-32.1,40c-0.4-10.2-3.3-23.9-13.3-38.5
		c-3.3-4.8-7.3-9.7-12.3-14.6c1.9-5.4,3.3-11.3,3.7-17.8c-0.7,0.5-1.3,1-1.9,1.7c-5.6,6.7-11.1,12.4-16.4,17.3
		c-12.3-28.2-46-47.9-85.3-47.9c-39.9,0-73.9,20.6-85.8,49.1c-6.1-5.4-12.6-11.8-19-19.5c-0.3-0.4-0.7-0.8-1.1-1.1
		c0.6,6.9,3.3,14.1,6.8,20.9c-3.4,1.8-9.7,5.8-15.8,12.9c-1.6,1.8-3.2,3.9-4.7,6.1c-3.2-8.8-8.1-17.8-14.9-26.5
		c-4.4-5.7-9.6-10.4-15.3-14.4c13.5-39.4,40-83.6,51.4-101.8c2.5,1.3,4,1.9,4,1.9c14.8,10.3,34.2,16.2,53.2,19.4
		c-21.1-7-36.2-19.8-46.8-33.8c4.7,1.7,9.5,3.3,14.4,4.8c11.5,6.4,24.2,11.2,37.2,14.3c15.4,3.7,30.5,5.2,46.1,4.1
		c12.6-0.8,25-3.1,37-7c10.3-3.2,19.4-7.2,27.4-11.5c4.8-1.5,9.6-3.1,14.4-4.8c-11.2,15-27.7,28.5-50.9,35.2
		c18.3-2.4,37.4-7.1,52.6-15.9l5.2-2.7C712.4,374.7,761.6,444.9,767,494.5z M574.6,317.1c-7,2.9-12.4,7.5-13.6,14.7
		c-0.5,2.8-0.3,5.7,0.8,8.6c0,0,0.1,0.1,0.1,0.3c-10.3-2.1-20.6-4.8-30.4-8.2c-31.2-10.8-57.1-27.9-77.7-53.2
		c-3.5-4.3-6.3-8.2-8.4-11.5c12.4,4.5,29.4,10,51.3,14.7c12.8,2.8,27.4,5.2,43.9,7c0.5,1.3,1.2,2.7,2,3.9
		C549.6,305.2,561.3,312.7,574.6,317.1z M536.5,190.9c-3.5,0-7,1.1-9.8,3.1c-3.1,2.1-5.6,5.2-7.4,8.8c-1.3,2.8-4.7,4-7.5,2.7
		s-4-4.7-2.7-7.5c2.5-5.5,6.6-10.2,11.2-13.4c4.7-3.2,10.2-5.1,16-5.1c8.7,0,16.4,3.9,21.9,10.3c5.5,6.3,8.8,14.8,8.8,24.2
		c0,3.1-2.5,5.6-5.6,5.6c-3.1,0-5.6-2.5-5.6-5.6c0-6.6-2.3-12.4-6-16.6C546.5,193.4,541.7,190.9,536.5,190.9z M644.5,336.5
		c-1.7,3.5-6.6,6.2-12.3,8c-7.5,0.9-15.2,1.5-22.9,2c-7.6-0.4-15.2-1.2-22.7-2c-6.2-2-11.1-4.9-12.6-8.8
		C568.7,321.6,652.4,321.2,644.5,336.5z M766.8,276.3c-11.6,14-24.2,27.1-39.4,37c-21.1,13.8-45.1,22.3-70.3,27.4
		c1.1-2.9,1.5-6.2,0.8-9.2c-1.3-7-6.6-11.4-13.4-14.3c13.1-4.5,24.9-12,31.8-23.8c0.8-1.3,1.3-2.5,2-3.9c16.3-1.7,31-4.1,43.9-7
		c21.8-4.7,38.8-10.2,51.1-14.6C771.3,270.7,769.1,273.5,766.8,276.3z M662.8,214c0,3.1-2.5,5.6-5.6,5.6c-3.1,0-5.6-2.5-5.6-5.6
		c0-9.4,3.5-17.9,9-24.2c5.5-6.4,13.2-10.3,21.9-10.3c5.9,0,11.4,1.9,16,5.1c4.7,3.2,8.7,7.9,11.2,13.4c1.2,2.8,0,6.2-2.8,7.5
		c-2.8,1.3-6.2,0.1-7.5-2.7c-1.7-3.6-4.3-6.7-7.4-8.8c-2.8-2-6.3-3.1-9.8-3.1c-5.2,0-10,2.5-13.5,6.6
		C665.1,201.6,662.8,207.4,662.8,214z M812.7,31.2c0.7,0,1.2,0,1.9,0c0.1,0.1,0.4,0.4,0.5,0.5c15.1,57.2-7.8,101.6-25.7,125.8
		c-6.2-19.5-15-38.1-26.6-55c-2.1-3.3-4.5-6.6-7-9.6C770.6,68.2,790.4,43.4,812.7,31.2z M781.6,35.9c-9.4,8.7-17.8,18.9-24.9,28.7
		c-3.9,5.3-7.5,10.8-11,16.4c-6.4-7-13.2-13.2-20.3-19C742.9,50.9,761.8,41.2,781.6,35.9z M614.1,40.3c50.3,1.3,100.3,25.8,133,73.3
		C789.7,175,781.4,250,781.4,250c-0.1,1.7-0.7,3.6-1.3,5.5c-12.2,4.7-32,12-60,18.1c-11.5,2.4-24.5,4.7-38.8,6.3
		c0.9-5.3,0.9-11,0.1-16.4c-0.7-4-2-7.6-3.9-11c38.1-6.3,66.6-18.3,68.2-36.2c1.7-19.9-14.8-57.8-39.6-79.7
		c-21.4-18.9-56.4-28.7-92-29.6V40.3z M609.3,235.9h0.1c25-0.3,55.5,11.2,58.4,29.6c2.9,17.5-6.8,29.4-21.8,36.4
		c-22.2,8.3-30-2.5-33.4-9.4c-1.6-3.3-2.4-5.1-3.2-5.1c-0.1,0-0.1,0-0.3,0c-0.5,0.3-1.3,1.9-3.2,4.9c-3.5,6.2-10.8,15.5-26.2,12.3
		c-18.9-6.2-32.5-18.9-29.2-39.2c3.1-18.3,33.6-29.8,58.6-29.6H609.3z M604.8,40.3v66.6c-35.6,0.7-70.6,10.6-92,29.6
		c-24.9,21.9-41.3,59.8-39.6,79.7c1.6,17.8,30.2,30,68.2,36.2c-1.9,3.3-3.2,7-3.9,11c-0.8,5.5-0.8,11.1,0.1,16.4
		c-14.4-1.6-27.3-3.9-38.9-6.3c-27.7-5.9-47.5-13.2-59.6-17.9c-1.5-3.7-1.6-5.6-1.6-5.6s-8-73.3,32.8-134.3
		C502.9,66.9,553.6,41.8,604.8,40.3z M493.4,62.1c-7.1,5.7-13.9,12-20.3,19c-3.3-5.6-7.1-11-11-16.3c-7.1-10-15.4-20.2-24.9-28.9
		C457,41.2,475.7,50.9,493.4,62.1z M403.5,31.6c0.3,0,0.5-0.3,0.7-0.4c0.7,0,1.2,0,1.9,0c22.3,12.2,42.1,37,56.8,61.8
		c-2.9,3.9-5.9,7.9-8.7,11.9c-11,16.2-19.1,34-25,52.6C411.3,133.2,388.4,88.8,403.5,31.6z M392,200c3,0,5.3,2.4,5.3,5.3
		s-2.4,5.3-5.3,5.3h-41.3c-3,0-5.3-2.4-5.3-5.3s2.4-5.3,5.3-5.3H392z M309.1,161.6c-4.4-2.6-5.9-8.4-3.3-12.8
		c2.6-4.4,8.4-5.9,12.8-3.3l30.3,18c2.7,1.6,4.5,4.5,4.6,7.7c0.1,3.2-1.4,6.2-4,8l-30.3,21.1c-1.6,1.1-3.5,1.7-5.3,1.7
		c-3,0-5.9-1.4-7.7-4c-3-4.2-1.9-10.1,2.3-13l18.3-12.8L309.1,161.6z M265.3,58.4h110.1c-0.4,5.6-0.4,11.2-0.2,16.8h-92.9v180.5
		c-5.6,0.3-11.2,0.9-16.9,1.9V58.4z M179.2,349.3c52.4-96.7,127.6-76.8,172.6-64.9c7.3,1.9,13.6,3.6,19.1,4.6
		c15.6,2.8,29.3,3.4,40.3,3.1c10.5-0.3,18.5-1.4,23.3-2.3l0.1,0c0.8,1,1.6,2,2.3,2.9c15.4,18.9,32.9,33.2,52,44.1
		c0.1,0.7,0.5,1.5,0.8,2.1c1.8,3.6,3.8,7,6.1,10.1c-11.2,17.7-38,62-52.9,103.8c-7.7-3.2-15.9-5.5-24.6-7.1
		c-6.2-33.9-25.9-56.4-44.4-70.6c-28.5-21.7-59.5-28.3-60.8-28.5c-0.6-0.1-1.2-0.2-1.7-0.2c76.1,36.9,86.8,93.4,87.3,96.6
		c0,0,0,0.1,0,0.1c0,0,0,0,0,0c0,0,0,0,0,0l-0.1,0c-26.6-2.1-55.2,0.4-80.9,2.7c-21.5,1.9-42,3.7-55.3,2.1c0,0-0.1,0-0.1,0
		c-41-4-43.6-65-43.8-72.6c-0.5,0.8-0.9,1.7-1.1,2.7c-0.4,1.8-7.3,30.6,1.5,55.3c-11,5.2-28.8,16.4-35.7,36.6
		c-3.1-5.6-5.8-11.8-8.2-18.5C162.9,416.5,164.5,376.4,179.2,349.3z"/>
</g>
</svg>
