<svg id="Layer_1" data-name="Layer 1" xmlns="http://www.w3.org/2000/svg" viewBox="0 0 360 360"><defs><style>.cls-1{fill:#fff;}</style></defs><title>jenkinsx-icon-white</title><path class="cls-1" d="M215.03156,305.31322l-.00184.07415a15.07854,15.07854,0,0,0,3.338-.64038A15.404,15.404,0,0,1,215.03156,305.31322Z"/><path class="cls-1" d="M222.5354,304.16368l-.75568-.08514a11.52309,11.52309,0,0,0-1.22784.16852,3.9655,3.9655,0,0,1,1.55786.01251l.04254-.00006c.90473,7.8977,4.034,15.89117,3.6402,24.54461-1.24206.41779-2.29425.81555-3.34589,1.15576,1.19855-.36889,2.36463-.81945,3.77161-1.29418h-.032C226.58,320.02293,223.45074,312.01878,222.5354,304.16368Z"/><path class="cls-1" d="M210.561,189.01585c.60785-.45105,1.21845-.89959,1.86292-1.31634-.06928.00616-.14136.01813-.21094.025l-.20422.14527A10.95557,10.95557,0,0,0,210.561,189.01585Z"/><path class="cls-1" d="M110.57355,181.45158c.35125-4.57678,2.9696-6.90777,6.69488-8.7066a28.45221,28.45221,0,0,1,5.148-1.98395l-.01129-.02392a28.45242,28.45242,0,0,0-5.158,1.98663c-3.72528,1.79877-6.38623,4.12976-6.69488,8.7066a16.188,16.188,0,0,0-.02369,2.46912l.0185-.00714A16.179,16.179,0,0,1,110.57355,181.45158Z"/><path class="cls-1" d="M317.74445,191.07658,293.78058,85.97551l-.04981-.19238a22.38786,22.38786,0,0,0-10.72265-13.458L255.26007,58.95164c.19586-1.12554.40918-2.35839.64362-3.7246,4.2149-7.80188,6.10955-12.85767,4.78967-18.09443s-7.26971-15.21-15.24188-20.2232c-6.514-4.08722-21.11725-11.68683-29.9303-12.05939-14.252,0-40.76563,1.73493-53.14435,9.23877-9.36658,5.68378-24.61908,18.39246-36.67853,28.387-1.92938,1.8816-6.67517,5.35859-12.02075,9.25092L71.17365,72.19035l-.18116.09375A22.3823,22.3823,0,0,0,60.26935,85.79289L36.25275,190.975l-.03662.18262a22.31942,22.31942,0,0,0,3.78173,16.78125l53.59735,67.11346c.20636,2.85334.39356,5.71588.58692,8.60083.34064,5.39637-.23413,11.12274,1.17084,14.11365s6.812,4.06592,10.6438,5.86475c11.18658,5.17285,23.05438,13.08117,37.73217,11.50592,3.50183,11.76135,6.812,24.28906,11.00568,34.59222,15.05029,5.40711,38.80719,4.56616,54.45355,2.68225,4.74713-.5747,9.771-2.91638,10.88861-7.04614a41.84462,41.84462,0,0,1-.54284-8.05731c4.88549-1.01123,11.54852-1.852,12.62353-7.2591,1.51141-7.59967-4.80035-18.4776-2.69287-26.801,2.27435-.7439,4.6684-1.35468,5.292-3.88178a22.66844,22.66844,0,0,0,9.59632-4.85907,50.01272,50.01272,0,0,1,6.9953-.17865,12.77126,12.77126,0,0,0,2.87384,3.77851c8.46179,1.70306,16.66815,1.84143,23.69305-.447,7.96155-2.59711,11.76135-18.87146,9.94128-26.60944h-.00006a121.97657,121.97657,0,0,0-6.70556-19.77612c-.22583-.48261-.469-.9347-.72388-1.36579L313.8382,208.019l.126-.168A22.37433,22.37433,0,0,0,317.74445,191.07658ZM113.91687,59.378c4.10895-2.92121,7.79474-5.53907,10.31262-7.674,1.18274-1.00238,2.28687-1.92224,3.33222-2.78082,5.41-4.44342,9.16894-7.165,13.19366-10.23321,1.62225-1.23664,3.288-2.52985,5.1236-4.01606.38812-.315.76111-.617,1.12768-.91345,8.65052-6.99573,11.63715-9.06763,24.76862-17.54284,20.04223-4.96,26.652-5.90729,38.424-6.73749h.0426c15.18866,2.597,23.04376,5.67309,32.15485,10.97369,7.8551,4.55554,10.95245,8.877,13.6134,18.00928.4151,4.65137.181,7.8977-3.72534,14.98645-.03937.39648-.10968.788-.1615,1.18268a63.65075,63.65075,0,0,0-14.38922-4.12738c-.62842-.11164-1.27124-.22022-1.93652-.32294-4.02558-.62164-7.00812-1.1344-9.775-1.46252.97492-1.44281,1.375-2.08735,1.9231-2.93219.36584-.56391.79925-1.2193,1.51892-2.26832,1.88391-2.74609,1.49011-3.02282,3.37408-5.77954a4.16167,4.16167,0,0,0,.7876-3.69336v-.00006c-.98987-3.19311-.72381-3.25695-1.7243-6.38623s-1.5008-3.02282-2.49066-6.1947a4.25751,4.25751,0,0,0-2.38416-2.94836c-3.12927-1.2027-3.05481-1.373-6.18408-2.57575l-6.20526-2.44812a6.3521,6.3521,0,0,0-4.10852.24481c-2.90576,1.67109-2.71418,1.99042-5.60926,3.67212s-3.04412,1.42627-5.93921,3.09735a4.74722,4.74722,0,0,0-2.07556,3.406c-.48517,3.259-.35461,3.314-.82855,6.51459l-.01233.08453c-.26837,1.80261-.41845,2.61139-.57812,3.51526-.13166.7453-.26978,1.555-.48627,3.04132a4.66916,4.66916,0,0,0,.96863,3.24634c.09576.11712-.15967.53222-.05322.63867,2.27777,2.43738,2.37353,2.34161,4.662,4.77905,2.098,2.23456,2.58979,2.11335,4.41968,3.9466a243.66989,243.66989,0,0,0-41.14081,9.6455c-13.76245,4.35334-35.02868,14.2627-43.20312,19.35041a137.146,137.146,0,0,0-17.79157,13.59417q-1.00278.87672-2.0423,1.8014-1.20354,1.07126-2.46142,2.21051-.7858.71192-1.5968,1.45459-1.07986.988-2.20386,2.02771c-.33527.31012-.67932.63031-1.02081.94769-.05268-.08527-.10736-.17419-.16339-.26563-.03132-.0512-.06672-.10992-.09906-.163-.05243-.08594-.105-.1723-.16016-.26349-.08307-.13739-.16827-.27869-.25794-.42853-.5064-.846-1.113-1.88226-1.8562-3.18286-9.38781-7.45068-1.49017-10.25.71314-19.15881C97.66693,70.93858,106.49255,64.65623,113.91687,59.378Zm111.448-14.83466L223.504,47.26549a2.59194,2.59194,0,0,1-1.6817.96856l-1.27893.09961c-1.05158-.01745-2.14838-.00311-3.33258.04816-2.471.10687-5.3274.37335-8.93665.83191a2.27328,2.27328,0,0,1-1.25732-.66034l-8.74073-9.29614-.13623-.1449a1.063,1.063,0,0,1-.13836-.17029,2.1288,2.1288,0,0,1-.43641-1.67108l.312-2.09143.54058-3.62372,1.05274-7.05743a2.27786,2.27786,0,0,1,1.06433-1.60718l11.26111-6.53528a2.47,2.47,0,0,1,.84088-.28741,2.30989,2.30989,0,0,1,1.13885.17029l12.13391,4.67266A2.22458,2.22458,0,0,1,227.24,22.32707l3.86365,12.3255a2.22434,2.22434,0,0,1-.28736,1.9159ZM96.26923,102.17943c-.02253.072-.04059.14313-.0705.21667-.10278.07245-.2063.14344-.30811.21729C96.00964,102.47514,96.13678,102.32964,96.26923,102.17943ZM45.661,203.82268a15.35926,15.35926,0,0,1-2.562-11.38477L67.02472,87.62932a15.42884,15.42884,0,0,1,7.28271-9.17871l14.56421-7.01294C87.35,73.5164,85.8172,76.58134,83.12323,82.57091c-3.33154,8.16375-3.55505,8.515,3.19312,14.33716,2.24877,3.1408,5.36694,7.93389,7.01867,10.50055-3.72162,10.84051-.1131,24.4367,5.00885,31.94683a23.48012,23.48012,0,0,0,15.68891,10.07965,33.26178,33.26178,0,0,0,3.257,12.18714c.53064,1.16644,2.15992,3.69134,3.7107,6.46063a43.77947,43.77947,0,0,0-5.26471,2.214c-4.41718,2.12878-7.887,4.43848-8.67468,9.57941a14.17081,14.17081,0,0,0,.23132,5.28485,32.831,32.831,0,0,0-3.50958,1.53778c-6.76947,1.42627-5.3219.36188-15.64637,1.77753-5.32189.35125-14.0072,7.589-12.77252,15.96569.8302,5.65186,5.17285,14.18811,7.01422,19.85065,1.99042,6.1095,4.843,11.70813,6.48206,18.09442a146.583,146.583,0,0,1,3.59247,20.01953Zm82.33777-33.53278a7.9032,7.9032,0,0,1,1.68542.48267c3.63495,1.55749,5.3476,5.72156,6.56214,10.33844a.977.977,0,0,0,.28351.49853c.35852.31488.94012.18988,1.55792.08686a10.53322,10.53322,0,0,0,1.86267-.50025l-.00922-.02508c.7077-.24445,1.423-.54792,2.13281-.86567,1.18134-.5288,2.34064-1.09973,3.37928-1.54669q4.928-2.10746,9.9732-3.92755c.73371-.26587,2.44556-.8139,4.65778-1.504l.05017.05317c1.18707-.36921,2.518-.78016,3.92743-1.21326l-.05652-.05213c2.16919-.666,4.5105-1.37915,6.76544-2.06359l.02918.055c4.92865-1.50165,9.44409-2.8681,10.78888-3.27942,1.554-.46832,3.08667-1.06433,4.662-1.45819l.00415-.0011a11.27755,11.27755,0,0,0,2.69147,1.65515c.01288.00531.02655.00812.03949.01343-4.00476,1.18524-10.30768,3.24664-16.83209,5.54523-1.79022.63067-3.59253,1.27783-5.37085,1.9303-1.38263.50726-2.74707,1.01641-4.07581,1.52252a110.613,110.613,0,0,0-13.72021,5.9707c-1.1659.63306-2.29675,1.32452-3.41065,2.04187-.50744.32684-1.019.64728-1.515.99109-.50549.35046-.99439.72418-1.48755,1.092l-.01855.01361c-.08057.06018-.16278.118-.24305.17865-.1206.09113-.24542.17639-.36529.26849-.20093.15455-.39874.31287-.59747.47028-.2035.16113-.40021.33069-.60138.49481-.43049.35126-.86768.69415-1.28724,1.059a6.73819,6.73819,0,0,0-1.239,1.61273,8.24886,8.24886,0,0,0-.45477.94849c-.01245.03076-.02625.06079-.03839.09174a23.68534,23.68534,0,0,0-.87415,3.036c-.04266.17511-.08429.34833-.12915.527a20.11565,20.11565,0,0,1-2.5119,6.52465c-1.47254,2.20874-2.81317,2.9748-4.54572,2.78717a9.09191,9.09191,0,0,1-2.68139-.77551,34.52428,34.52428,0,0,1-9.04908-6.09747l.06055-.02216c-.224-.20923-.4472-.4187-.66571-.63385-.49054-.48327-.97113-.97693-1.43262-1.48944l-.06762.02057a34.53633,34.53633,0,0,1-2.7995-3.539c-.21289-.30866-.40448-.61731-.59607-.93665l-2.58643.72376a35.76391,35.76391,0,0,0,2.63965,3.65082c.24616.29626.51575.6137.80524.94665-9.47522,3.43909-14.023,7.97955-17.04767,5.07776-1.73676-.86841-4.12061-1.85333-6.33807-2.71771-1.55146-.6048-3.01838-1.1499-4.12348-1.55194,1.55414-.88166,3.67774-1.22193,6.58722-1.07361a29.49545,29.49545,0,0,1,3.543-1.50379c3.48517-1.26983,8.26172-2.62847,13.30017-4.05975.22217.40851.45331.813.69782,1.21033l2.58642-.72376c-.22424-.4071-.42474-.82458-.61218-1.24707l.01117-.00317a16.389,16.389,0,0,1-1.32715-5.25226c-.00678-.08459-.01941-.16833-.02484-.25305l-.0185.00714a16.188,16.188,0,0,1,.02369-2.46912c.30865-4.57684,2.9696-6.90783,6.69488-8.7066a28.45242,28.45242,0,0,1,5.158-1.98663l.01129.02392c.334-.09344.66669-.19128,1.00415-.27252.38849-.0871.75348-.1413,1.11835-.19543.21674-.03211.43134-.06153.63995-.0824.0271-.00275.05237-.00281.07941-.00531.19342-.01813.38184-.0293.56842-.0379a9.75313,9.75313,0,0,1,2.17548.12951Zm110.05542,16.45166.31134,1.562,1.519,7.62091.05359.26874-3.90936-2.05755c-.10889-.76661-.23487-1.522-.38538-2.25721-1.50922-7.37158-5.12781-12.84228-11.2345-9.884,1.72431-2.52258,4.98127-3.74664,7.07813-6.85461a18.3365,18.3365,0,0,0,2.46228,1.68609l1.59711,3.858Zm-.90656-8.52276c2.49433.81555,4.97376,1.21392,8.51685,3.30731,2.96832.84674,5.13977,1.50018,6.76318,2.10193a10.77248,10.77248,0,0,1,3.38,1.77118l-.80408-.132-11.24438-1.8465-5.2284-1.43634ZM210.257,206.86955c-.006-.18066-.01038-.3609-.01947-.53851-.00916-.18-.01911-.35773-.02912-.53406a8.69191,8.69191,0,0,1,.19318-3.22815,4.27391,4.27391,0,0,1,.52832-.31164c1.5376-.80481,3.73151-.89124,5.828-1.08863.19855-.01867.39807-.03631.59406-.05792a12.09218,12.09218,0,0,0-7.71674-.8728c-.06353-1.68488-.81244-2.73706-1.27075-4.04883l-.00647-.01709c.33411-.14685.663-.30463.98865-.46905,3.39862-1.71552,6.38013-4.30469,9.699-6.16657.40406-.22662.81232-.44427,1.22779-.64636.18756-.09119.37933-.17322.56958-.25855.18829-.08447.37628-.1698.5675-.248a15.19244,15.19244,0,0,1,3.2218-.93939c2.85254.181,1.71369-.15967,3.55506.628v-.04255c1.13891.65986,1.99707,2.65052,2.62591,5.04908a51.94439,51.94439,0,0,1,1.3974,9.74579c.17035,3.58691-.31927,7.21643-1.78814,9.1217-.07612-.00116-.152-.00555-.22815-.0069a84.2227,84.2227,0,0,1-18.27485-2.34173c-.592-.14283-1.18426-.2843-1.77337-.44007A11.55156,11.55156,0,0,0,210.257,206.86955Zm-6.71-12.33673c-6.72687.34058-10.39893-.4577-15.33765-4.32135.07452-.21289.57477-.12775.58539-.51092l.01062-.04261c7.12671,3.16272,16.17193-1.21869,23.40765-1.93341.06958-.00689.14166-.01886.21094-.025-.64447.41675-1.25507.86529-1.86292,1.31634C208.157,190.79955,205.9682,192.78276,203.54694,194.53282Zm-2.37476,13.88538a6.02872,6.02872,0,0,1-2.50006-.53809c-.1615-.91424-.32855-1.66772-.48468-2.33441a15.00388,15.00388,0,0,1-.63294-5.7442,8.49121,8.49121,0,0,1,3.86109-1.44916c.06885-.00726.13568-.0249.20483-.03039C208.36719,199.29247,206.613,208.32768,201.17218,208.4182Zm-44.27661-6.71192c.02124.50592.05469,1.01624.1167,1.53315a.96656.96656,0,0,0-.689.38464c-.90356.94147-2.14044,3.63061-4.239,8.00262-3.47449-6.44372-4.22327-7.2857-8.37738-11.55883-.13452-.13837-.2619-.26954-.40375-.41541-.78265-1.23254-1.54816-2.36017-2.269-3.40558q-.51234-.743-.98938-1.4303c.02148-.13391.04364-.26727.06457-.4021.11316-.72711.226-1.46014.38483-2.15271a9.03367,9.03367,0,0,1,.38232-1.284v-.15967a12.3572,12.3572,0,0,1,2.182-1.41559c.42969-.27478.91394-.56262,1.438-.85974,4.63208,1.0144,10.12738,1.67419,13.49518,2.26471a19.58072,19.58072,0,0,1-.57471,4.44379,35.15659,35.15659,0,0,0-.522,4.5523c-.02.4906-.02771.98877-.016,1.49634C156.882,201.43443,156.88989,201.57072,156.89557,201.70628Zm-7.653-15.59045c4.62391-2.1886,10.61-4.66382,16.7298-7.05975a29.53819,29.53819,0,0,0,8.10193,5.19482c-4.90674-1.14947-12.43194-1.51141-14.47552,2.88446C156.02344,186.899,152.52631,186.62193,149.24261,186.11583Zm21.31751-8.83307q1.49442-.57074,2.9693-1.1261l.42786,1.112a1.06423,1.06423,0,0,0,.60668.60669l4.45978,1.61786a1.064,1.064,0,0,0,.67053,0,60.88117,60.88117,0,0,0,12.33613-5.588v-.00006l7.72741-4.31073h.05316l4.04377-2.62622c.04651-.00244.09271.00036.13922-.00281a9.84333,9.84333,0,0,0,5.22589-1.66162,16.16546,16.16546,0,0,1,1.96936.06506,1.15858,1.15858,0,0,1,.27673.05322l2.84192.97919a1.24682,1.24682,0,0,1,.33.181l6.72687,5.63055a1.06416,1.06416,0,0,0,.56408.2342l1.437.13836a1.0643,1.0643,0,0,0,1.13886-.93664l.38879-4.36371a7.00886,7.00886,0,0,0,3.81.79712,24.79375,24.79375,0,0,1-5.72083,6.004c-10.38836,7.291-26.17309,13.91143-39.70129,9.37719A53.24138,53.24138,0,0,1,170.56012,177.28276ZM164.77161,189.924l-.04255.00006a8.81352,8.81352,0,0,1,1.39057-.42328c.07806-.0177.15643-.03351.235-.04907.14685-.02918.291-.07013.43934-.0918l1.0285.09271.27008.02435a66.40509,66.40509,0,0,1,17.55157,6.3863c2.83124,1.54333,4.45972,3.45922,8.74915,3.78918l-.06384,1.71362a6.97733,6.97733,0,0,1-1.09442.56812c-2.32166.99-5.4151,1.13953-7.62281,2.2525l.03546.00214a22.73262,22.73262,0,0,1,9.34168,2.3714c-.00665.17944-.01361.3573-.02026.53662-.04676,1.25677-.09418,2.51-.15,3.72088-2.44092,1.69037-4.79645,3.85315-7.31219,5.91541-.82666.67761-1.66877,1.34338-2.54029,1.978a31.70084,31.70084,0,0,1-3.45227,2.2182c-.29388.15863-.67975.349-1.13122.55859-.11078.05139-.23523.10657-.35389.16022-.72515.328-1.58459.69153-2.51873,1.05993-3.38855,1.33637-7.66693,2.694-9.36475,2.2978a1.62966,1.62966,0,0,1-.61383-.30146,3.84483,3.84483,0,0,1-1.10413-2.111c-.128-.45544-.25262-.9342-.41076-1.40863-.06751-.199-.14166-.407-.2182-.61859-1.31189-3.62622-3.84827-9.04779-4.03931-14.187C161.56787,202.50493,160.46088,192.41466,164.77161,189.924Zm68.71631-29.08942h.00006l-.00843.01739c-.086.2-.18145.39472-.28375.585a7.42541,7.42541,0,0,1-3.63538,3.32513,4.53554,4.53554,0,0,1-3.31964-.35651,2.42677,2.42677,0,0,1-1.43817-2.55987c.20978-1.47839-1.6239-2.61884-2.52771-1.34589a1.93085,1.93085,0,0,0-.16516.2815,4.569,4.569,0,0,1-.85766,1.21478c-2.36023,2.40326-7.14979,2.09247-9.0091-1.01251a2.12284,2.12284,0,0,0-.19568-.18427,2.26829,2.26829,0,0,0-2.50189-.14538l-.001.00067a2.58525,2.58525,0,0,0-.4945.42474,5.5425,5.5425,0,0,1-.51575.72186c-2.66278,3.18219-8.51569,2.98658-10.55377-.72186-.48676-.91943-1.19892-.96295-1.68537-.51269a1.82082,1.82082,0,0,0-.52856,1.1939,2.51755,2.51755,0,0,1-.33722,1.04932,3.39975,3.39975,0,0,1-.55542.72138,5.27569,5.27569,0,0,1-2.11408,1.23577c-.02.00629-.03991.01416-.06.02027a4.3105,4.3105,0,0,1-1.98908.16638,5.57245,5.57245,0,0,1-1.198-.37122l-.04327-.01873a10.57533,10.57533,0,0,1-3.47272-2.63825c-.37549-.4093-.72735-.82593-1.04431-1.22931a1.00457,1.00457,0,0,0-1.69214-.12994,1.93662,1.93662,0,0,0-.35144.59827,4.86757,4.86757,0,0,1-1.35364,1.97229l-.03607.03118a5.45913,5.45913,0,0,1-4.25934,1.20691,4.99338,4.99338,0,0,1-4.13262-3.21038,1.5025,1.5025,0,0,0-2.44074-.69764,1.41882,1.41882,0,0,0-.316,1.017,4.29828,4.29828,0,0,1-4.87482,4.06592,7.02277,7.02277,0,0,1-3.86914-2.53778c-.1585-.19031-.3067-.38764-.45-.58728-.02972-.0409-.06353-.07977-.09259-.121a10.41676,10.41676,0,0,1-.91021-1.58619,7.876,7.876,0,0,1,.46832-5.7583,19.04133,19.04133,0,0,1,6.20532-8.00409,25.098,25.098,0,0,1,9.89868-3.99145,83.02128,83.02128,0,0,1,10.6438-1.1814c2.69287-.14905,5.439.25543,8.14246.19153s5.37512.149,8.09991.20227,5.42835-.0852,8.11054.12769a35.37242,35.37242,0,0,1,9.1004,2.001,22.76746,22.76746,0,0,1,8.09857,4.48l.00134.001C232.04034,151.649,235.41443,156.48131,233.48792,160.83458ZM104.07959,293.57c-1.02539-.51483-2.05493-1.02185-3.09607-1.5083-.07678-2.72156-.215-5.47388-.38287-8.23724q-.18667-3.07324-.44843-6.16907-.26907-3.18337-.61615-6.38007c-2.57464-23.61785-8.38367-47.57721-17.45593-67.03546.02161-.19372.05029-.37262.07526-.5592a17.21417,17.21417,0,0,1,.55114-2.68787c.89472.12763,1.78217.29187,2.66474.47711a41.57818,41.57818,0,0,1,11.26342,4.13654c.4729.2561.94764.50867,1.41114.78351,4.80029-2.90576,13.954-6.95038,13.954-6.95038l3.33539-1.219c4.861,5.0509,12.61376,11.31225,18.44177,8.329,3.03021-1.54273,4.48785-5.15363,5.46051-8.3703a46.69926,46.69926,0,0,0,5.30035,7.02917c1.72431,2.26709,7.05683,10.71826,8.30213,11.31433,1.63916.777,3.555-9.8136,5.16223-9.04724.479,3.52313,1.06439,4.42786,2.9909,10.53735,2.12879,6.74817,3.07611,15.0503,12.77259,11.41016,1.087-.40808,2.18652-.88629,3.28375-1.40265q1.27413-.59958,2.53491-1.26959c.24561-.13049.48895-.26489.733-.39844a1.89825,1.89825,0,0,0-.1228,1.54865,83.47176,83.47176,0,0,1,3.27637,19.64782c.15265,2.13556.27813,4.27533.40625,6.41468q.037.61734.0744,1.23462c-16.0669.89679-34.22779,2.57-47.88007,4.353-.71692.09363-1.444.18707-2.13482.28119a31.20786,31.20786,0,0,1-4.65137-12.35736,15.69918,15.69918,0,0,0-1.17664-4.1626c-1.08966-2.337-2.48486-2.84527-3.13409-1.34027-1.64978,3.84241-.90473.37256,4.31073,17.03,1.06439,3.555-1.90521-4.10846-5.26868-5.3219-1.31982,4.15106,1.22406,4.0127,3.19318,6.70557s-6.57788-1.19208-6.546,3.99145c.27.04322.563.07935.87482.11011,4.60577.45453,13.47656-.31726,17.77313,1.49707q.22494,2.63361.48315,5.23785c.71576,7.24408,1.613,14.37635,2.60834,21.71369q.23611,1.741.4798,3.50037c.15985,1.15557.32251,2.32452.48632,3.49407.38868,2.77576.78443,5.58082,1.18976,8.45887C127.697,307.51518,116.31494,299.71306,104.07959,293.57ZM210.376,344.44341a92.23146,92.23146,0,0,1-23.81989,2.37261,107.32317,107.32317,0,0,1-28.33044-4.41986,324.88324,324.88324,0,0,1-10.74579-42.46551q-.32117-1.73978-.62616-3.49432-.3045-1.74116-.59277-3.50037c-1.45783-8.80377-2.66919-17.89472-3.71357-27.51563,15.11414-2.72479,30.41987-4.63,45.76825-4.51294,4.91834.19519,9.859.33222,14.73908.9726,1.77337.23273,3.53924.52771,5.29248.922.09991.649.18951,1.29736.27447,1.94537,1.24335,9.48279.97846,18.86121,1.7262,28.1886q.14044,1.75131.33728,3.50037c.02338.20928.04279.41876.06757.628q.163,1.42318.29162,2.87036c1.28693,14.343.32984,30.25879,3.08246,43.48333C212.912,343.79466,211.65375,344.12932,210.376,344.44341Zm-17.90155-91.73658a7.5576,7.5576,0,0,1-.18866-1.40008,3.67617,3.67617,0,0,1,.13214-1.22992,3.26737,3.26737,0,0,1,3.31641-2.28253,8.686,8.686,0,0,1,1.50512.24743,2.215,2.215,0,0,1,1.83826,1.8407,4.87353,4.87353,0,0,1,.08392,1.105c-.07452,2.27783-.4364,3.19318-3.19311,3.438C193.66284,254.70146,192.80786,254.02171,192.47449,252.70683ZM226.2182,328.6657c-1.407.47473-2.57306.92529-3.77161,1.29418a19.97376,19.97376,0,0,1-6.35064.89844c-.3288-7.31909-1.31232-18.50458-1.06623-25.471l.00184-.07415a15.404,15.404,0,0,0,3.33618-.56623c.56634-.14239,1.13189-.28845,1.70257-.41l.02973-.006c.14984-.03168.30121-.05628.45184-.08386a11.52309,11.52309,0,0,1,1.22784-.16852l.75568.08514c.91534,7.8551,4.04462,15.85925,3.65082,24.502Zm-11.77234-29.45582c-.07062-.92608-.13721-1.84936-.205-2.77355q-.12862-1.752-.24841-3.50037c-.46417-6.74176-.82556-13.44476-.96905-20.15772-.0694-3.24633-.092-6.49524-.04609-9.75274a29.0542,29.0542,0,0,1,9.51557-1.06439,63.78714,63.78714,0,0,1,1.54376,7.52252c1.11658,7.43561,1.40015,15.64538,2.11524,23.45233q.16187,1.76733.36053,3.50037c.02673.23358.05035.47.07831.70245C222.237,298.04137,219.07928,298.56273,214.44586,299.20988Zm2.52295-43.81591.03186-.00013c-1.87244,1.10145-4.12158.7-7.394.13831-.48438-.08313-.99463-.16821-1.52643-.25409-.17151-.02771-.33771-.05548-.5144-.08282-.16681-.02588-.342-.05011-.51361-.07544a48.58751,48.58751,0,0,0-7.77973-.55652,4.68573,4.68573,0,0,0,1.13458-3.25653,4.43264,4.43264,0,0,0-.44146-1.9635,4.73163,4.73163,0,0,0-1.59809-1.95221,3.496,3.496,0,0,0-2.55859-.56531v-.00006c-2.71.40326-4.425,1.668-4.79553,3.746a5.00953,5.00953,0,0,0-.07929.884q0,.05384.00122.10761a4.958,4.958,0,0,0,1.37921,3.23291q-2.02322.08-4.11962.18109-.03205-.49173-.063-.9837-.0803-1.2627-.15912-2.526c-.52387-8.34253-1.11359-16.68518-3.66974-24.70551a2.04862,2.04862,0,0,0-2.11511-1.46851,93.844,93.844,0,0,0,7.93835-5.23614c.91089-.66858,1.7298-1.29266,2.43451-1.8493a28.39361,28.39361,0,0,0,2.6947-2.31336c1.09632-1.2453,1.57532-1.87329,2.3949-2.778a4.99844,4.99844,0,0,0,4.08112-.13324c.161-.06629.31988-.13654.47766-.209.04107-.01886.0827-.03674.12359-.05591.11847-.05542.2356-.11236.35266-.16925a6.96963,6.96963,0,0,1,3.65027-1.1037c3.19312.34064,8.07862,3.19312,15.08228,3.768s10.8247.88336,12.68738-1.83075c1.91278-3.61017,2.71325-10.23254,2.22088-16.53839l6.14508,2.00964-.26605-3.99139-1.62347-6.47864-.64368-2.5686-.337-.91755,6.59558,1.71583,11.03034,1.49981c.05365.27124.10272.55384.14569.8631a8.35388,8.35388,0,0,1-.26013,2.24786c-.89087,4.34931-3.66541,12.86878-4.06128,14.85669-2.12872,10.77149-7.07807,25.00226-11.70813,36.28467-1.703,4.10846-3.32086,9.23877-5.55609,10.12225C229.62427,254.80852,222.18427,252.14757,216.96881,255.394ZM234.416,292.21165c-.15844.00141-.3045.01661-.47039.00971-.16126-1.99-.39179-4.00244-.64722-6.02069-1.07666-8.50635-2.793-17.163-3.61029-25.155,2.83124-.149,1.06439-.06384,5.18353-.23413l1.71363.21289c3.29827,5.70361,4.64324,14.26331,5.03985,22.03809.07184,1.40753.1109,2.78448.1264,4.11877.01215,1.04718.012,2.07135-.004,3.04968h.03192C239.18011,290.72655,237.43945,292.18462,234.416,292.21165Zm47.28827-17.38226c1.28888,5.897-.29278,11.6789-3.58856,15.32861a11.44944,11.44944,0,0,1-5.77795,3.55347h.03186c-5.04511,1.22406-12.77252,1.5434-16.0827-.05322,3.22753-1.75818,7.7348-2.129,11.80712-2.97693a28.58593,28.58593,0,0,0,2.98768-.759c-6.00293-2.58222-14.56977-.67523-22.08063-.61243-.87915.00732-1.74732-.00458-2.59162-.05811q-.09942-1.02044-.1961-2.05206c-.15668-1.66437-.31092-3.34424-.47016-5.0235-.73553-7.7561-1.5877-15.48779-3.389-21.503a11.92094,11.92094,0,0,1,2.05529-1.71075c5.40735-3.6283,14.80359-5.00134,20.44568-8.61377,1.22406-.65991.479-.33,2.30969-.81952a9.30084,9.30084,0,0,1,8.45118,4.68323,10.58647,10.58647,0,0,1,.57293,1.01019,47.55354,47.55354,0,0,1,2.92682,8.55664C280.16,267.71941,281.05762,271.91429,281.70422,274.82939Zm26.593-71.08972-32.95111,41.31738c-8.969-4.55969-23.29627,1.97022-31.79974,6.21778,5.21545-13.73047,9.70709-27.97187,14.31585-43.37342a113.01564,113.01564,0,0,0,5.18354-23.576c-4.07654-5.3219-7.26972-5.3219-12.42133-6.45013-6.1662-2.55554-10.47345-3.62549-12.91553-4.78986a3.83983,3.83983,0,0,1-2.25226-2.027,2.19611,2.19611,0,0,1-.08471-.26117c-.55347-2.72486,6.38629-12.16584,7.8551-15.14612a85.38236,85.38236,0,0,0,4.52362-13.028c4.50616-19.026,7.11-38.5329,4.73-57.6889-.5498.31744-1.12848.61792-1.73523.90668-.2016.09594-.40051.19311-.60974.28643-.19781.0882-.40656.17353-.61176.25965-.5072.213-1.03192.42175-1.59039.62457.31989,3.8346.42786,7.92169.63672,12.02533,1.03528,19.98834-2.94952,40.53925-11.66486,56.38385a13.57918,13.57918,0,0,0-1.58673-4.4848h.00006a21.95769,21.95769,0,0,0-6.08825-6.07758,27.46129,27.46129,0,0,0-7.621-3.72534,38.91354,38.91354,0,0,0-8.61078-1.59656c-2.91638-.31933-5.80085-1.13891-8.78113-1.13891s-5.93927.84088-8.82373.84088c-3.08667.032-6.27979-.8089-9.4729-.64923a69.6346,69.6346,0,0,0-9.40912,1.25592,35.84845,35.84845,0,0,0-8.813,3.34216c-4.04462,1.91589-6.695,5.42835-8.73852,9.36652-1.51142,2.90576-2.19263,5.7796-.89411,8.88757.0639.05322.0426.09583.0639.17029s-.149.22351-.149.298c1.40667,2.9856,4.01178,5.65375,7.36151,6.07855-1.47608.46088-2.88849.90687-4.19812,1.32569-4.94574-5.15137-9.126-11.08338-13.66883-17.38812.254,7.11065,5.06464,13.06665,10.01825,18.57318-1.259.41644-2.307.77331-3.05712,1.04327-3.05481,1.10693-5.83283,2.90576-8.82373,4.18305-1.54261.64556-3.40094,1.66381-5.19263,2.46923-.46015.20685-.91614.40113-1.36084.56934.05652-.07825.25738-.2962.20972-.52667-1.42627-4.83222-4.25751-9.57935-9.57941-10.89917a11.70819,11.70819,0,0,0-3.21643-.322,87.49436,87.49436,0,0,1-4.88349-14.08966,27.67617,27.67617,0,0,1-.90472-6.05634c.62622-3.4126,6.573-4.96069,4.50806-9.60449-.04108-.09241-.06464-.178-.11219-.273-4.50225,0-5.51342,4.0979-9.64325,4.50232-4.48925.44671-8.41986-1.98346-11.43823-5.62781-4.17377-5.03931-6.59967-12.40466-6.31555-17.73529.40448-7.82318,7.01422-15.30573,16.05078-14.31586,5.1283.56409,7.50885,5.17182,8.91,10.156.34368,1.22265.63067,2.467.88226,3.681,3.68274.19153,9.00464-.15967,10.75024-3.03351-.18207-4.9997-1.88452-9.29151-2.76916-13.67615a23.05115,23.05115,0,0,1-.51978-5.39752c.04035-.732.10041-1.46234.17273-2.19141-.16376-.01324-.33124-.02667-.49261-.03985-.21228-.0174-.41669-.03443-.62464-.05164-.13324-.011-.26684-.022-.39819-.033l-.147-.01221q-.84943-.071-1.64063-.139c-1.3742-.11811-2.59967-.22748-3.64062-.32251q-.4814-.04395-.90692-.08338c-.32636-.03027-.63294-.05883-.90522-.08453-1.13354-.10687-1.784-.17175-1.784-.17175h-.00006s.46032-.31537,1.26348-.85321c-4.38684,1.9425-2.70214.59668-9.43786,5.51519a44.03875,44.03875,0,0,0-8.4242,1.52869c-.239.06751-.48083.124-.71881.19562a26.86156,26.86156,0,0,0-3.67669,1.53418l-.02637.01257c-.08093.00079-.16083.00391-.24231.00256-.01514-.0003-.02985.0008-.045.00049h-.00031a6.38952,6.38952,0,0,1-1.23584-.14221c.34033-.35815.70685-.736,1.08746-1.124l.04023-.04108c.07336-.07471.14355-.14709.21838-.22284l.02741-.028c4.81817-4.87177,12.55267-11.75092,20.69146-16.36182C133.5321,74.024,151.04114,67.2332,164.84613,62.40092c12.39453-4.33856,29.2713-7.63293,39.659-9.17108,1.18213-.17505,2.30206-.33325,3.29931-.46154,3.13269-.40314,5.79871-.699,8.39673-.8465a62.34651,62.34651,0,0,1,8.55878.098c3.04895.23505,6.47961.68353,10.77154,1.40845.11762.01989.222.04016.33826.06012,9.32507,1.59948,13.982,3.38269,15.72809,4.17852q-.32922,1.528-.781,3.02454c-.13867.45648-.27881.91174-.43481,1.36292.40161.188,1.15491.58117,2.05487,1.12286.25244.15192.51312.31287.78455.48767.16406.10559.33117.21722.49957.33057q.28774.19355.5791.40118a15.67832,15.67832,0,0,1,3.91577,3.74548l21.48071,10.35151a15.42731,15.42731,0,0,1,7.28223,9.14013L310.86066,192.351A15.41381,15.41381,0,0,1,308.29718,203.73967ZM128.47638,101.47423c.9154,3.98071,4.08722,10.16479-.96857,10.30316.06989-6.20306-4.11206-11.15613-9.63891-13.28424a77.29689,77.29689,0,0,1,9.756-4.88464l.21124-.04407C127.6637,97.41051,127.7644,97.14018,128.47638,101.47423Z"/><path class="cls-1" d="M145.549,178.78q4.91739-2.12868,9.97321-3.92755c.72857-.25384,2.42236-.791,4.61218-1.4721l-.05017-.05317c-2.21222.69007-3.92407,1.2381-4.65778,1.504q-5.0451,1.82007-9.9732,3.92755c-1.03864.447-2.19794,1.01789-3.37928,1.54669.01294.01551.02485.03156.03785.04706C143.31329,179.8167,144.49341,179.23436,145.549,178.78Z"/><path class="cls-1" d="M106.13544,111.02953a6.06261,6.06261,0,0,1,1.07684-.74744A4.23905,4.23905,0,0,0,106.13544,111.02953Z"/><path class="cls-1" d="M170.77075,170.05138c-2.25494.68444-4.59625,1.39758-6.76544,2.06359l.05652.05213c2.15881-.66351,4.49-1.37573,6.7381-2.06067Z"/><path class="cls-1" d="M131.16107,93.35423c-.07232.72907-.13238,1.45941-.17273,2.19141a23.05115,23.05115,0,0,0,.51978,5.39752l-.21283-7.57806Z"/><path class="cls-1" d="M127.99872,170.2899l.00348.00708a7.87947,7.87947,0,0,1,1.68194.47559A7.9032,7.9032,0,0,0,127.99872,170.2899Z"/><path class="cls-1" d="M138.109,181.7177a10.53815,10.53815,0,0,0,1.86267-.50025c.70929-.24176,1.42755-.54718,2.14014-.865-.013-.0155-.02491-.03155-.03785-.04706-.70977.31775-1.42511.62122-2.13281.86567l.00922.02508a10.53322,10.53322,0,0,1-1.86267.50025c-.6178.103-1.1994.228-1.55792-.08686C136.88611,181.94963,137.47845,181.8228,138.109,181.7177Z"/><path class="cls-1" d="M199.87012,128.85045l-.00806.0202.007-.00934Z"/><path class="cls-1" d="M140.10925,194.41447c-.02093.13483-.04309.26819-.06457.4021q.47507.68574.98938,1.4303l.309.10639Z"/><path class="cls-1" d="M167.53186,224.70445q-.49887-.97329-1.10413-2.111A3.84483,3.84483,0,0,0,167.53186,224.70445Z"/><path class="cls-1" d="M263.30719,260.15263a16.08294,16.08294,0,0,1,3.66608-1.24627q-1.44251.04275-2.80677.16882c-6.91223.62775-12.3211,2.86273-15.57507,7.45215C254.01648,266.8734,258.23187,262.52824,263.30719,260.15263Z"/><path class="cls-1" d="M261.46313,268.07817a21.60483,21.60483,0,0,0-4.6336.19678c-2.074.34357-3.79675,1.08655-4.68311,2.43536.86579.06659,1.75721.09345,2.65839.10346,1.4989.01666,3.03375-.03406,4.581-.13086,1.60254-.10022,3.20948-.24347,4.79615-.40644,1.99566-.20495,3.95569-.43347,5.8034-.63055a31.23223,31.23223,0,0,0-4.42981-1.09168A34.94547,34.94547,0,0,0,261.46313,268.07817Z"/><path class="cls-1" d="M254.34381,277.005a5.64857,5.64857,0,0,0-2.4848,1.41144c.41321.0346.85419.06323,1.284.0943,1.36291.09863,2.793.18048,4.27581.24524,4.80707.20977,10.04712.25158,14.51441.1607h-.00006a36.50044,36.50044,0,0,0-12.64875-2.49982A16.348,16.348,0,0,0,254.34381,277.005Z"/><path class="cls-1" d="M151.05609,94.56316l-.0838-.00269.02631.09113C151.01721,94.6234,151.03729,94.59178,151.05609,94.56316Z"/><path class="cls-1" d="M107.21228,110.28209a6.06261,6.06261,0,0,0-1.07684.74744,8.83361,8.83361,0,0,0-2.75714,5.73986,5.72864,5.72864,0,0,0,.91259-.79437c1.1128-1.13159,2.27814-2.592,4.34546-1.57922-2.30969,4.50232-1.80945,13.28338,1.38373,16.1253-.0213-5.3432-.8515-14.4862,3.71466-14.20941,3.1825.19153,3.83179,7.02484,6.55658,8.57886,1.5766-7.60809-2.6886-13.22681-7.34875-14.85156A7.1276,7.1276,0,0,0,107.21228,110.28209Z"/><path class="cls-1" d="M193.73334,228.71c-3.076.45764-4.87482,2.03289-4.87482,4.64062q0,.05924.00147.11853a4.75776,4.75776,0,0,0,4.87335,4.63928q.05071-.00118.10132-.00329a4.70457,4.70457,0,0,0,4.49682-4.90351C198.41663,231.46672,196.79877,228.2523,193.73334,228.71Zm.10644,7.62091c-2.98022.34057-3.51239-.926-3.68274-3.14-.149-2.2033,1.39435-3.44854,3.44861-3.50177,2.54389.22351,3.50183.90473,3.42731,3.19312S196.59656,236.07542,193.83978,236.33092Z"/><path class="cls-1" d="M237.49,90.36217l-.032-.04261a22.3343,22.3343,0,0,0,.02514,2.97394,23.95106,23.95106,0,0,0,1.62861,6.895c.66589,1.75952,1.42352,3.43323,2.07159,5.21338-2.90576,1.84137-8.56824.69183-11.8465,2.12872-.23419,9.65387,14.93317,4.8429,17.24292-.47894-3.41668-4.98132-5.7796-11.01636-8.515-16.68945Z"/><path class="cls-1" d="M258.56464,68.71269c-.1034-.192-.2229-.38189-.34876-.57062a15.67832,15.67832,0,0,0-3.91577-3.74548q-.29214-.20756-.5791-.40118c-.1684-.11335-.33551-.225-.49957-.33057-.27143-.1748-.53211-.33575-.78455-.48767-.9-.54169-1.65326-.93481-2.05487-1.12286-.09454-.04425-.17273-.07917-.226-.10047a45.98612,45.98612,0,0,0-11.6355-3.30292l-.00531-.00067c-.26337-.03637-.52857-.0722-.80255-.1054-.25672-.03107-.5246-.05909-.79126-.08735-.40662-.04309-.821-.0841-1.2525-.1203-.756-.06347-1.56-.11425-2.40155-.15557-1.45038-.07117-3.01966-.11274-4.77143-.11274-.22973,0-.45434.00409-.68347.00452-3.17041.00629-6.28076.06171-9.34772.17487-2.47223.09124-4.91931.21991-7.34015.40289q-2.31591.175-4.60571.41974c-3.7055.38965-7.37176.90552-11.01868,1.60571-9.9757,2.37116-17.628,4.4566-23.83172,6.40448-1.66022.5213-3.21778,1.0329-4.68579,1.53723-3.39881,1.16748-6.3302,2.29749-8.99115,3.42383q-.95289.40329-1.86267.80676c-2.15271.95307-4.152,1.91022-6.11628,2.89173-.80554.40252-1.60626.80865-2.40942,1.22094-1.04633.38269-2.19257.87268-3.39734,1.4336a135.65329,135.65329,0,0,0-12.44446,6.85309c-.06164.03753-.12433.07531-.18573.11279-.08679.053-.17114.10516-.25744.158-.08423.05157-.16761.10278-.25135.15423-.21386.13123-.42773.26239-.63824.39246l-.056.03467c-3.68787,2.2799-6.829,4.35187-8.488,5.46277-.80316.53784-1.26348.85321-1.26348.85321h.00006s.65045.06488,1.784.17175c.27228.0257.57886.05426.90522.08453q.4248.03937.90692.08338c1.04095.095,2.26642.2044,3.64062.32251q.79074.06793,1.64063.139l.147.01221c.13135.011.26495.022.39819.033.20795.01721.41236.03424.62464.05164.16137.01318.32885.02661.49261.03985l.13422.01087c5.93976.48047,13.374,1.001,19.677,1.19537l.0838.00269c2.57007.07818,4.95215.10272,6.95673.04583,5.25812-.14917,13.26.08753,21.76233.28894,1.603.038,3.224.07434,4.84753.10694-.06042-.371-.1026-.73511-.13153-1.09406a8.17134,8.17134,0,0,1,.34406-3.37835v-.02131a45.20885,45.20885,0,0,1,2.07708,4.53693,230.05033,230.05033,0,0,0,23.32959-.43909c13.91144-1.33044,19.47809-2.91638,29.69611-5.3219a72.01686,72.01686,0,0,0,7.99548-2.27557c.55847-.20282,1.08319-.41162,1.59039-.62457.2052-.08612.41395-.17145.61176-.25965.20923-.09332.40814-.19049.60974-.28643.60675-.28876,1.18543-.58924,1.73523-.90668a28.34875,28.34875,0,0,0,6.084-4.87525C261.40656,74.471,261.40656,72.70409,258.56464,68.71269ZM169.9339,91.14977c-4.61939,0-7.7912-.3512-13.52826-.69184l-2.734-.16546-1.78607-.1081-6.08514-.36835-9.61792-.58209c1.98345-1.42785,4.041-2.74676,6.15136-3.976,1.22467-.71332,2.46247-1.4043,3.726-2.0484a57.52569,57.52569,0,0,1,10.069-4.30152c.10357-.03308.20489-.07257.30865-.105l1.38556.99543,2.27271,1.63269,5.82708,4.18628,8.20465,5.89428S174.61713,91.67131,169.9339,91.14977Zm8.05737.38317-7.76294-6.814-4.95971-4.35339-4.16907-3.65943,5.96051-2.01166,4.46966,4.40015,4.48652,4.41669,8.14837,8.0216Z"/><path class="cls-1" d="M190.64667,108.62688c-3.56568,3.45923-9.96253.58539-14.731.36187-4.52362,7.18451,8.87689,8.53632,14.63519,6.83332,1.57526-.46833,4.31073-2.83124,4.68323-3.89563,1.59656-4.4917-1.62848-6.46082-3.28894-8.07862-2.51678-2.45135-3.70642-5.55914-5.0329-8.79974a45.20885,45.20885,0,0,0-2.07708-4.53693v.02131a8.17134,8.17134,0,0,0-.34406,3.37835c.02893.359.07111.72309.13153,1.09406a32.919,32.919,0,0,0,3.67,9.58917C189.1192,106.12761,189.95184,107.51567,190.64667,108.62688Z"/><path class="cls-1" d="M222.06714,122.6447a16.35369,16.35369,0,0,1-1.31983-1.21338c-4.20428-4.59814-9.69647-11.144-11.87847-16.27435a3.12433,3.12433,0,0,1-.11707-.51093c-.19159-.91534-.45764-2.12872-1.34113-2.5119a1.51154,1.51154,0,0,0-1.47949.30865l-.21289.15967v.25543c-.20221,7.45069,5.01325,13.74115,9.19623,18.765l.75574.894c.35119.4364.71313.83026,1.06439,1.21344,1.71362,1.852,2.85248,3.09735,1.25592,5.90729-.926.36188-1.97974.8728-3.08667,1.405-3.44861,1.67108-7.74866,3.74658-11.474,3.108-1.405-.24481-1.7243-1.25592-2.12878-2.91638a7.44942,7.44942,0,0,0-.69184-2.12873l-.40442-.69183-.33575.44763-.007.00934-.13623.18164a6.78007,6.78007,0,0,0,.8728,8.72791l.12769.10644h.17035a25.66071,25.66071,0,0,0,2.67157.13837c8.08929,0,13.92206-3.7572,18.71173-6.82263l.28741-.19159-.05322-.34064a5.321,5.321,0,0,1,.51093-2.0542,7.11012,7.11012,0,0,0,.70245-4.066C223.57855,123.94328,222.908,123.36852,222.06714,122.6447Z"/><path class="cls-1" d="M141.20636,191.30772l-.149.07453C140.65289,191.81865,141.01477,191.56316,141.20636,191.30772Z"/><path class="cls-1" d="M124.453,183.10143a22.4378,22.4378,0,0,1-5.77954,1.43688c-.29785.02735-.6297.06269-.976.09009a5.17984,5.17984,0,0,1-2.91962-.37744,1.597,1.597,0,0,0-1.60724,2.75672,7.61952,7.61952,0,0,0,3.69831.94494,23.61592,23.61592,0,0,0,8.4356-1.76452,1.60668,1.60668,0,0,0,1.05384-1.34174C126.49432,183.78618,125.70721,182.62761,124.453,183.10143Z"/><path class="cls-1" d="M123.40887,172.98723c-.87664.20093-1.69476.44549-2.34057.65185-2.68225.7876-8.22766,2.51191-8.56824,5.74762-.12775,1.14954.19153,2.12879,1.35175,2.45874.021.00183.04211,0,.06311.00177a12.76052,12.76052,0,0,0,1.87835.00324c.36835-.02368.73713-.04523,1.10267-.10083a18.74063,18.74063,0,0,0,4.15106-.40448,32.471,32.471,0,0,0,7.32415-2.52631c.02063-.01.04206-.01813.06263-.0282a2.84087,2.84087,0,0,0,1.46783-1.18365c.01569-.02582.027-.054.04187-.08032a2.83424,2.83424,0,0,0,.34235-1.663c-.14929-2.3269-1.65149-3.12805-3.47986-3.2398-.03906-.00239-.07642-.00824-.11578-.01-.21735-.00971-.43909-.00855-.66333-.00074-.21485.00751-.43146.02332-.64966.0445A15.66172,15.66172,0,0,0,123.40887,172.98723Z"/><path class="cls-1" d="M226.18585,33.87834l-.2041.00049a5.24978,5.24978,0,0,0-.71191-.00049,7.34,7.34,0,0,1-1.25782-.10644.60784.60784,0,0,1-.27343-.23877l-.02832-.04493-.2461-.05322a9.47327,9.47327,0,0,0-1.97754-6.27783l.21289-.22119-.00879-.06055a.46487.46487,0,0,1,.05762-.30664,6.66861,6.66861,0,0,1,1.0459-.81543,6.338,6.338,0,0,0,.582-.41846l.14453-.13378a.84895.84895,0,0,0-1.09472-1.29786.54818.54818,0,0,0-.04981.0459l-.15625.14551a5.12174,5.12174,0,0,0-.44238.5498,7.257,7.257,0,0,1-.86426.91407.65522.65522,0,0,1-.36719.07129l-.05371-.00537-.21289.187a9.57179,9.57179,0,0,0-6.09179-2.38282v-.26757l-.06055-.03662a.45654.45654,0,0,1-.20606-.25635,6.46665,6.46665,0,0,1,.001-1.29688V20.8886a1.556,1.556,0,0,0,0-.21338.88533.88533,0,0,0-.90234-.8667h-.01563l-.22363.02783.0625.07715a.88675.88675,0,0,0-.56543.92334l.001.19824a4.65965,4.65965,0,0,0,.15136.69238,7.20613,7.20613,0,0,1,.17676,1.25977.69892.69892,0,0,1-.168.31982l-.0332.03565v.251A9.34731,9.34731,0,0,0,206.72,26.89153l-.23437-.13575-.05567.02051a.49865.49865,0,0,1-.32715.01074,7.3346,7.3346,0,0,1-1.03808-.77685,4.504,4.504,0,0,0-.53125-.48633l-.16992-.11719a.97248.97248,0,0,0-.585-.1709.82121.82121,0,0,0-.65723.35791.9032.9032,0,0,0,.292,1.2334l.167.11084a5.65106,5.65106,0,0,0,.63672.313,7.04775,7.04775,0,0,1,1.09375.64844.78665.78665,0,0,1,.14649.33594l.00879.04687.19726.15527a9.40618,9.40618,0,0,0-1.0155,6.12116c.0216.12628.0365.25305.06335.37884l-.24316.09571-.02149.04248a.82324.82324,0,0,1-.22558.27441,6.64949,6.64949,0,0,1-1.22852.30615,5.00469,5.00469,0,0,0-.68066.106h-.19141l-.0332.0044a.89821.89821,0,0,0-.626,1.09179c.01026.02655.03125.04444.04364.06946a.88556.88556,0,0,0,.98542.47485.82963.82963,0,0,0,.08911-.0111l.20117-.05616a3.09942,3.09942,0,0,0,.37793-.1748c.082-.043.165-.08643.26367-.1294a6.27236,6.27236,0,0,1,1.17188-.45459.61951.61951,0,0,1,.35937.08985l.04395.0249.25293-.06152a9.64612,9.64612,0,0,0,4.48828,4.78222l-.08985.27832.02637.04737a.6571.6571,0,0,1,.08008.3208,7.9032,7.9032,0,0,1-.54395,1.16894,5.654,5.654,0,0,0-.34863.62012l-.0127.05469a.63043.63043,0,0,1-.07519.15332.85307.85307,0,0,0-.04889.2373.88757.88757,0,0,0,.51666.92969.85876.85876,0,0,0,.28711.0498.8705.8705,0,0,0,.63526-.286.84361.84361,0,0,0,.186-.29309.29289.29289,0,0,0,.01563-.06494.31626.31626,0,0,1,.02734-.05908.40107.40107,0,0,0,.043-.09912,6.16858,6.16858,0,0,0,.16211-.69336,5.08406,5.08406,0,0,1,.4375-1.29053.4925.4925,0,0,1,.22558-.123l.0586-.01464.11914-.26465a9.5528,9.5528,0,0,0,5.417-.03125,9.34876,9.34876,0,0,0,1.12207-.42969l.1543.22754.05957.00488a.447.447,0,0,1,.28808.13379,6.52173,6.52173,0,0,1,.57618,1.15332c.03613.0835.06543.16406.09472.24365a3.424,3.424,0,0,0,.18067.42432s.07031.1084.09863.16455a.8488.8488,0,1,0,1.54492-.70361.7852.7852,0,0,0-.0791-.13526l-.11035-.1875a5.93223,5.93223,0,0,0-.43262-.564c-.10992-.13-.21173-.26795-.31164-.40668a6.66127,6.66127,0,0,1-.4032-.62262.47965.47965,0,0,1,0-.3457l.01953-.05029-.02246-.04883s-.04688-.09766-.08985-.18408a9.50807,9.50807,0,0,0,3.6836-5.46973h.26172l.03711-.03662a.49889.49889,0,0,1,.291-.14551,6.77305,6.77305,0,0,1,1.26856.27344c.09277.02539.17773.0542.26171.083a3.0998,3.0998,0,0,0,.44239.12353l.15527-.00244a.86789.86789,0,0,0,1.02832-.67627l.00488-.03125A.88961.88961,0,0,0,226.18585,33.87834Zm-7.49707-6.63281-2.7998,2.32959a.52773.52773,0,0,1-.71289-.043.47354.47354,0,0,1-.127-.293l-.501-3.60644A7.49524,7.49524,0,0,1,218.68878,27.24553Zm-5.21484,4.7168,1.03906-.08594.70508.75293-.15235,1.03027-.89648.52442-.95312-.38135-.31348-.95264Zm-6.0293-2.20606,2.9043,2.21875a.51257.51257,0,0,1,.12012.70166.54355.54355,0,0,1-.25.19824l-3.40333,1.27784A7.37674,7.37674,0,0,1,207.44464,29.75627Zm4.13672,6.18848-.55023,1.69031-.57379,1.76281a7.47246,7.47246,0,0,1-3.03907-3.25586l.339-.0849,3.15515-.7901.14844-.00048a.50764.50764,0,0,1,.52051.36181A.501.501,0,0,1,211.58136,35.94475Zm.49023-5.97217a.45884.45884,0,0,1-.30664-.07861l-3.13867-1.88086a7.32092,7.32092,0,0,1,3.27149-2.07569,4.611,4.611,0,0,1,.57421-.14306l.07129,3.64746A.51262.51262,0,0,1,212.07159,29.97258Zm4.22168,10.03174c-.076.02374-.15442.03436-.23089.0556a7.32054,7.32054,0,0,1-3.63336.08453l.68213-1.50695.8208-1.81336a.4927.4927,0,0,1,.39843-.28027l.01953-.00342a.46509.46509,0,0,1,.22559-.00293.4725.4725,0,0,1,.24512.19629l2.041,3.061ZM218.64,38.79387l-1.65625-3.27393a.501.501,0,0,1,.19629-.67431.566.566,0,0,1,.19239-.06934l.10449-.01758v-.00293l3.67383.32715A7.36467,7.36467,0,0,1,218.64,38.79387Zm-.81738-6.50977a.513.513,0,0,1-.41016-.58545.48132.48132,0,0,1,.13575-.28027l2.5459-2.65967a7.61286,7.61286,0,0,1,.9707,2.0459,7.45128,7.45128,0,0,1,.33691,2.21582Z"/><polygon class="cls-1" points="228.943 148.786 228.942 148.785 228.943 148.786 228.943 148.786"/><path class="cls-1" d="M233.488,160.83458h-.00006l-.00837.01739Z"/><path class="cls-1" d="M209.01782,161.11137a5.56354,5.56354,0,0,1-.4837.68988,5.5425,5.5425,0,0,0,.51575-.72186,2.10915,2.10915,0,0,1,.2135-.21039c-.01966.01709-.04206.02875-.06122.0467A2.12257,2.12257,0,0,0,209.01782,161.11137Z"/><path class="cls-1" d="M168.30634,164.93706a4.23486,4.23486,0,0,1-2.43.6214q-.20727-.01017-.41284-.04059a7.001,7.001,0,0,1-3.8371-2.50586,7.02277,7.02277,0,0,0,3.86914,2.53778,4.25748,4.25748,0,0,0,4.87482-4.06592,1.41882,1.41882,0,0,1,.316-1.017,1.39386,1.39386,0,0,0-.348,1.04895A4.25153,4.25153,0,0,1,168.30634,164.93706Z"/><path class="cls-1" d="M181.54755,163.139c-.01.009-.01838.0202-.02851.02905l.03607-.03118a4.86757,4.86757,0,0,0,1.35364-1.97229,1.93662,1.93662,0,0,1,.35144-.59827,1.90224,1.90224,0,0,0-.38348.63025A4.85168,4.85168,0,0,1,181.54755,163.139Z"/><path class="cls-1" d="M195.41956,162.79906a3.33476,3.33476,0,0,1-.54578.73224,3.39975,3.39975,0,0,0,.55542-.72138,2.51755,2.51755,0,0,0,.33722-1.04932,1.82082,1.82082,0,0,1,.52856-1.1939,1.69666,1.69666,0,0,0-.56054,1.22589A2.50419,2.50419,0,0,1,195.41956,162.79906Z"/><path class="cls-1" d="M221.25208,161.99614a4.569,4.569,0,0,0,.85766-1.21478,1.93085,1.93085,0,0,1,.16516-.2815,1.80391,1.80391,0,0,0-.19714.31348A4.58629,4.58629,0,0,1,221.25208,161.99614Z"/></svg>