<?xml version="1.0" encoding="utf-8"?>
<!-- Generator: Adobe Illustrator 23.0.6, SVG Export Plug-In . SVG Version: 6.00 Build 0)  -->
<svg version="1.1" id="Layer_1" xmlns="http://www.w3.org/2000/svg" xmlns:xlink="http://www.w3.org/1999/xlink" x="0px" y="0px"
	 viewBox="0 0 725 607" style="enable-background:new 0 0 725 607;" xml:space="preserve">
<style type="text/css">
	.st0{fill:url(#SVGID_1_);}
	.st1{fill:url(#SVGID_2_);}
	.st2{fill:url(#SVGID_3_);}
	.st3{fill:url(#SVGID_4_);}
	.st4{fill:url(#SVGID_5_);}
	.st5{fill:url(#SVGID_6_);}
	.st6{fill:url(#SVGID_7_);}
	.st7{fill:url(#SVGID_8_);}
	.st8{fill:url(#SVGID_9_);}
	.st9{fill:url(#SVGID_10_);}
	.st10{fill:url(#SVGID_11_);}
	.st11{fill:url(#SVGID_12_);}
	.st12{fill:url(#SVGID_13_);}
	.st13{fill:url(#SVGID_14_);}
	.st14{fill:url(#SVGID_15_);}
	.st15{fill:url(#SVGID_16_);}
	.st16{fill:url(#SVGID_17_);}
	.st17{fill:url(#SVGID_18_);}
	.st18{fill:url(#SVGID_19_);}
	.st19{fill:url(#SVGID_20_);}
	.st20{fill:url(#SVGID_21_);}
	.st21{fill:url(#SVGID_22_);}
	.st22{fill:url(#SVGID_23_);}
	.st23{fill:url(#SVGID_24_);}
	.st24{fill:url(#SVGID_25_);}
</style>
<g>
	<g>
		<linearGradient id="SVGID_1_" gradientUnits="userSpaceOnUse" x1="-44.3727" y1="37.2251" x2="499.1089" y2="273.1057">
			<stop  offset="0" style="stop-color:#A678B4"/>
			<stop  offset="0.4892" style="stop-color:#F0535B"/>
			<stop  offset="1" style="stop-color:#2B378B"/>
		</linearGradient>
		<path class="st0" d="M153.4,120.6c-1.4,0.1-2.5,1.4-2.4,2.8c0.1,1.4,1.4,2.5,2.8,2.4c1.4-0.1,2.5-1.4,2.4-2.8
			C156.1,121.5,154.9,120.5,153.4,120.6z"/>
		<linearGradient id="SVGID_2_" gradientUnits="userSpaceOnUse" x1="-43.3139" y1="34.7857" x2="500.1676" y2="270.6662">
			<stop  offset="0" style="stop-color:#A678B4"/>
			<stop  offset="0.4892" style="stop-color:#F0535B"/>
			<stop  offset="1" style="stop-color:#2B378B"/>
		</linearGradient>
		<path class="st1" d="M136.8,115.5c1.4-0.1,2.5-1.4,2.4-2.8c-0.1-1.4-1.4-2.5-2.8-2.4c-1.4,0.1-2.5,1.4-2.4,2.8
			C134.1,114.5,135.4,115.6,136.8,115.5z"/>
		<linearGradient id="SVGID_3_" gradientUnits="userSpaceOnUse" x1="-47.3828" y1="44.1605" x2="496.0988" y2="280.0411">
			<stop  offset="0" style="stop-color:#A678B4"/>
			<stop  offset="0.4892" style="stop-color:#F0535B"/>
			<stop  offset="1" style="stop-color:#2B378B"/>
		</linearGradient>
		<path class="st2" d="M137.3,121.8c-1.4,0.1-2.5,1.4-2.4,2.8c0.1,1.4,1.4,2.5,2.8,2.4c1.4-0.1,2.5-1.4,2.4-2.8
			C140,122.8,138.7,121.7,137.3,121.8z"/>
		<linearGradient id="SVGID_4_" gradientUnits="userSpaceOnUse" x1="-40.3039" y1="27.8506" x2="503.1776" y2="263.7311">
			<stop  offset="0" style="stop-color:#A678B4"/>
			<stop  offset="0.4892" style="stop-color:#F0535B"/>
			<stop  offset="1" style="stop-color:#2B378B"/>
		</linearGradient>
		<path class="st3" d="M153,114.2c1.4-0.1,2.5-1.4,2.4-2.8c-0.1-1.4-1.4-2.5-2.8-2.4c-1.4,0.1-2.5,1.4-2.4,2.8
			C150.3,113.3,151.5,114.4,153,114.2z"/>
		<linearGradient id="SVGID_5_" gradientUnits="userSpaceOnUse" x1="-73.5812" y1="104.5231" x2="469.9004" y2="340.4036">
			<stop  offset="0" style="stop-color:#A678B4"/>
			<stop  offset="0.4892" style="stop-color:#F0535B"/>
			<stop  offset="1" style="stop-color:#2B378B"/>
		</linearGradient>
		<path class="st4" d="M41.5,242.9c5.7,0,10.8-2.5,14.3-6.4c8.1,4,15,10.1,20.7,17.5c5.5,7.2,10,15.5,13.5,24.3
			c-7.3,1.6-13.8,5.8-17.9,12.4c-2.5,4.1-3.9,8.7-4.1,13.5l-7-1.9c1.1,15,4.4,20.2,12.2,31.1c-3.1,0.3-6,1-8.4,2.2
			c-8.1,4.3-11.9,15.9-12.9,24.5c-0.3,2.4,0.4,4.6,1.9,6.4l0,0.1h0.1c1.6,1.8,3.7,2.7,6.1,2.7h20.5c0.2,0.8,0.5,1.5,0.8,2.2
			c0.6,1.6,1.6,2.9,2.9,3.8l0,0.1h0.1c1.3,0.9,2.9,1.4,4.6,1.4h49.8c1.6,0,3.1-0.4,4.5-1.1c2.9-1.5,4.5-3.9,5.3-6.7l17,0.2
			c0.8,2.8,2.4,5.1,5.2,6.6c1.4,0.7,2.9,1.1,4.5,1.1h49.8c1.7,0,3.3-0.5,4.6-1.4h0.1l0-0.1c1.3-0.9,2.3-2.2,2.9-3.8
			c0.3-0.7,0.5-1.5,0.8-2.2h20.5c2.4,0,4.5-0.9,6.1-2.7h0.1l0-0.1c1.6-1.8,2.2-4,1.9-6.4c-1.1-8.6-4.8-20.2-12.9-24.5
			c-2.3-1.2-5.1-1.9-8.2-2.2c6.2-9.7,8.9-16.9,12.3-28l-7.2,1.9c0-0.6,0.1-1.2,0.1-1.7c0-5.2-1.4-10.4-4.2-14.8
			c-4.4-7.1-11.6-11.4-19.7-12.7c-0.1-14.5-3.4-30.8-14.6-40.6c0.2-0.5,0.4-1,0.6-1.5c4.4-2.8,8.2-6.4,10.8-11
			c0.9-1.5,1.6-3,2.2-4.6c2.4-2.2,4.6-4.7,6.5-7.5c11-15.3,13.2-35.3,9.3-53.4c-1.9-8.7-5.2-17.1-9.7-24.6
			c13.6-31.2,4.4-83.8-11.7-112.6l-2.5,7.1c-11.7,22-27.7,47.1-40.5,68.7c-8.6-1.6-17.4-2-26.2-1c-9.9,1.1-19.3,4.1-27.8,8.6
			c-1-0.9-2-1.8-2.9-2.7c-5.9-5.3-12-10.4-18.1-15.4C88.4,80.3,79,73.1,70.6,65.3c-2-1.8-8.4-8.5-11.1-11.6l-2.4-3.1
			c-6.1,30.7,0.3,80,20.3,106.7c-5,18.9-2.1,38.6,9.1,56.8c0,0.1,0,0.2,0,0.2c-0.6,7,1.1,13.7,5.1,19.4c2.7,3.7,6.1,6.7,9.9,8.9
			c-4.3,5.8-6.9,12.8-8.4,20.1c-2.7-5.1-5.8-10-9.2-14.4c-6.6-8.5-14.5-15.5-23.8-20.1c0.3-1.4,0.5-2.9,0.5-4.4
			c0-10.6-8.6-19.2-19.2-19.2s-19.2,8.6-19.2,19.2C22.2,234.3,30.8,242.9,41.5,242.9z M79,361.1H60c0,0,1.8-14.7,8.7-18.3
			c4.3-2.3,13.1-1.4,19-0.3C80.9,346.5,78.6,353.8,79,361.1z M140.9,363.8c-0.1,3-0.8,4.7-2.3,4.7h-8h-1.1H88.8c0,0-0.3-0.8-0.6-2
			c-0.4-1.4-0.8-3.3-1-5.4c-0.3-4.3,0.4-9.3,5-11.9c8.6-4.8,29.5,4.5,31.4,5.3c0.1,0,0.1,0.1,0.1,0.1c0-0.1-0.1-0.1-0.1-0.2
			c-6-9.4-11-19.7-14.9-30.2c-0.7-1.9-1.3-3.8-2-5.7c2.5-0.8,5-1.3,7.4-1.6c4.4-0.5,8.7-0.1,12.7,0.7c0.1,0,0.2,0,0.2,0.1
			c2.7,0.6,5.3,1.4,7.7,2.4c0.6,0.2,1.1,0.5,1.7,0.7c0.5,0.2,1,0.5,1.5,0.7c-0.1,1.4-0.1,2.7-0.1,4.1c0,8.2,1,17,1.9,24.4
			c0.5,3.9,0.8,7.5,1,10.4c0,0.1,0,0.1,0,0.2C140.9,361.9,140.9,362.9,140.9,363.8z M167.3,332.8c-0.5,7.7-1.6,15.2-2.3,22.8
			c-0.2,1.8-0.4,3.9-0.4,5.9l-15.5-0.1c-0.1-2-0.2-4-0.4-5.8c-0.7-7.6-1.8-15.2-2.3-22.8c0-0.8-0.1-2.1-0.1-3.6
			c5,0.9,15.3,0.9,21.2,0C167.4,330.7,167.3,332,167.3,332.8z M226.5,361.1c-0.2,2.1-0.6,4.1-1,5.4c-0.3,1.2-0.6,2-0.6,2h-40.6h-1.1
			h-8c-1.6,0-2.2-1.8-2.3-4.7c0-0.9,0-1.9,0-3c0-0.1,0-0.1,0-0.2c0.1-2.9,0.5-6.5,1-10.4c0.9-7.4,1.9-16.2,1.9-24.4
			c0-1.4,0-2.8-0.1-4.1c0.5-0.3,1-0.5,1.5-0.7c0.5-0.3,1.1-0.5,1.7-0.7c2.4-1,5-1.8,7.7-2.4c0.1,0,0.2,0,0.2-0.1
			c4-0.9,8.4-1.2,12.7-0.7c2.5,0.3,5,0.8,7.4,1.6c-0.6,1.9-1.3,3.8-2,5.7c-3.8,10.5-8.8,20.8-14.9,30.2c0,0.1-0.1,0.1-0.1,0.2
			c0,0,0,0,0.1-0.1c1.9-0.8,22.8-10.1,31.4-5.3C226,351.8,226.8,356.8,226.5,361.1z M245,342.8c6.9,3.6,8.7,18.3,8.7,18.3h-19
			c0.4-7.3-1.9-14.5-8.5-18.6C231.1,341.6,240.1,340.2,245,342.8z M221.6,286.3c9.9,2,15.9,10,15.9,19.3c0,1.3-0.1,2.6-0.3,4
			l-20.8,5.5C219.1,305.6,221,295.8,221.6,286.3z M239.4,316.3c-3.9,11.3-11.7,21.3-15,25.2c-4.8-2.2-11.1-2.2-17.4-1.1
			c2.6-5.5,4.9-11.3,6.9-17.3L239.4,316.3z M155.1,227.4c0-5.6-0.1-7.2-0.7-25.3c7.5-1.4,13.3-5.6,16-11.1c0.6-1.3,0.9-2.4,0.9-3.5
			c3.6-1.1,7-2.4,10-3.9c2.3-1.2,4.5-2.5,6.4-4c11.2,4,20.2,10.6,24.2,20.1C225.9,233.3,171.1,246.4,155.1,227.4z M173.4,243.7
			c-6.1,3.3-14.2,4.6-20.8,4.4c-5-0.1-9.6-1.1-13.1-2.7c5.2-1.7,10.1-4.1,14.5-7.2C159.7,241.5,166.6,243.2,173.4,243.7z
			 M150.6,184.7c0.1-1.3,3.5-2.2,7.6-1.9c4.1,0.3,7.4,1.7,7.3,3c-0.1,1.3-3.5,2.2-7.6,1.9C153.8,187.4,150.5,186.1,150.6,184.7z
			 M182.7,156.5c-2.4-0.6-4.9-0.1-7,1.3c-2.2,1.5-3.9,3.8-4.7,6.8c-0.4,1.4-1.8,2.2-3.2,1.9c-1.4-0.4-2.2-1.8-1.9-3.2
			c1.1-4.2,3.7-7.7,6.9-9.8c3.3-2.2,7.3-3.1,11.2-2c2.7,0.7,4.9,2.2,6.7,4.2c1.7,2,2.9,4.6,3.4,7.4c0.3,1.4-0.7,2.8-2.1,3
			c-1.4,0.3-2.8-0.7-3-2.1c-0.3-1.9-1.1-3.6-2.3-4.9C185.7,157.8,184.3,156.9,182.7,156.5z M216.9,42.1c8.2,23.3,9.3,63.6,4.1,84.3
			c-4.6-5.8-10.1-10.8-16.3-15c-3.1-2.1-6.3-3.9-9.6-5.6C202.7,82.3,216.9,42.1,216.9,42.1z M201,62.8c-1.9,5.5-3.8,11.1-5.7,16.6
			c-2.6,7.7-5.2,15.4-7.8,23.1c-2.4-0.9-4.8-1.8-7.3-2.5C185.4,90.5,193.7,75.6,201,62.8z M147,105.2c19.4-2.2,38,2.9,53.1,13
			c29.6,19.7,38.4,62.3,22,87.9c-0.5-3.2-1.4-6.4-2.7-9.4c-2.5-6.1-6.5-11-11.3-15c3.1-2.5,4.8-5.3,4.9-8.3
			c0.1-8.9-8.5-25.2-20.3-34.1c-10.7-8.1-27.8-11.2-44.5-9.9l-1.8-24.2C146.6,105.2,146.8,105.2,147,105.2z M147,175.8
			c12-1.4,24.7-0.7,35.9,2.4c-1.1,0.7-2.2,1.3-3.4,1.9c-3,1.5-6.3,2.8-9.9,3.8c-6.6-6.7-31-5.3-36.6,2.1c-3.6-0.5-7-1.3-10.3-2.2
			c-0.8-0.2-1.5-0.5-2.3-0.7C128.4,179.3,137.4,176.9,147,175.8z M117.2,162c-1.7,0.2-3.1,1-4.3,2.1c-1.3,1.2-2.3,2.8-2.9,4.6
			c-0.4,1.4-1.9,2.2-3.3,1.7c-1.4-0.4-2.2-1.9-1.7-3.3c0.9-2.7,2.4-5.1,4.3-6.9c2-1.8,4.4-3,7.2-3.4c4-0.6,7.9,0.8,10.9,3.4
			c2.9,2.5,5,6.3,5.6,10.6c0.2,1.4-0.8,2.8-2.3,3c-1.4,0.2-2.8-0.8-3-2.3c-0.4-3-1.9-5.6-3.8-7.4C122,162.5,119.6,161.7,117.2,162z
			 M110.9,110.1c-2,1.3-3.9,2.8-5.7,4.3c-3.8-5.2-7.7-10.4-11.5-15.5c-2.3-3.1-4.6-6.1-6.9-9.2C95.2,96.5,104,103.7,110.9,110.1z
			 M61.6,69.9c0,0,22.7,29.7,37.5,49.9c-2.1,2.1-4.1,4.4-6,6.7c-5,6.3-9,13-12,19.8C70.1,124.4,58.9,83.4,61.6,69.9z M89.4,202.2
			c-10.9-23.5-7.1-48.8,10.2-70.5c10.9-13.8,26-22.6,42.5-25.7l1.8,23.9c-14.8,1.9-28.7,7.3-37.1,15.9c-10.3,10.6-16.4,28-14.9,36.8
			c0.5,2.8,2.4,5.1,5.5,7.1C94,193.3,91.3,197.5,89.4,202.2z M94.6,215c1-12.7,9.2-22.7,21.1-29.5c1.9,0.8,3.8,1.5,5.9,2.1
			c3.3,1,6.7,1.7,10.3,2.3c0.3,1.9,1.6,4,4.2,6.3c3.6,3.2,9,5.8,13.5,6.3c1.4,15.1,1.6,18.6,2.1,22.7c-0.1,0.3-0.3,0.7-0.5,1.2
			C141.9,247.7,92.2,244.2,94.6,215z M109.4,246c1,0.3,2,0.6,3,0.8c5.9,6.7,14.5,12,24.6,15.1c-6.5-3.3-11.8-8.1-15.4-13.9
			c0.5,0,1.1,0,1.6,0c1.8,0,3.5-0.1,5.3-0.3c5.7,6,16.5,8.3,23.9,8.5c11.6,0.3,26.6-3.2,34-12.9c2-0.3,4-0.6,6-1.1
			c0.9,0,1.8,0.1,2.6,0.1c-3.3,8.3-9.8,15.2-18.3,19.5c11.2-3.4,20.5-9.5,26.4-17.2c12.6,12.5,13.5,39.6,5.8,67.4
			c-2.8-0.9-5.7-1.5-8.7-1.8c-5-0.5-10-0.2-14.9,0.9c-0.1,0-0.2,0-0.3,0.1c-3,0.7-6,1.6-8.9,2.8c-0.2,0.1-0.5,0.2-0.7,0.3
			c-0.8-10.6-3.7-19.6-11.1-23.3c2.6,6.5,3.2,22.2,3.2,32.7l-0.8,0.1c-5.2,0.8-14.4,1-19.5,0l-1-0.2c0-10.5,0.5-26.2,3.2-32.7
			c-7.3,3.7-10.3,12.7-11.1,23.3c-0.2-0.1-0.5-0.2-0.7-0.3c-2.9-1.2-5.8-2.1-8.9-2.8c-0.1,0-0.2,0-0.3-0.1c-4.9-1-9.9-1.4-14.9-0.9
			c-3,0.3-5.9,0.9-8.7,1.8C97.4,285.2,98,259,109.4,246z M106.7,340.5c-5.7-1-11.4-1.1-16,0.5c-4.9-4.7-14.7-15.4-18.3-26.7
			l26.9,7.4C101.3,328.2,103.8,334.5,106.7,340.5z M96.4,312.1l-20.2-5.6c0-0.3,0-0.6,0-0.9c0-9.3,6-17.2,15.9-19.3
			C92.6,294.8,94.1,303.5,96.4,312.1z M41.5,212.7c6.1,0,11.1,4.9,11.1,11.1c0,6.1-4.9,11.1-11.1,11.1c-6.1,0-11.1-4.9-11.1-11.1
			C30.4,217.6,35.4,212.7,41.5,212.7z"/>
		<linearGradient id="SVGID_6_" gradientUnits="userSpaceOnUse" x1="11.657" y1="-91.8703" x2="555.1385" y2="144.0103">
			<stop  offset="0" style="stop-color:#A678B4"/>
			<stop  offset="0.4892" style="stop-color:#F0535B"/>
			<stop  offset="1" style="stop-color:#2B378B"/>
		</linearGradient>
		<path class="st5" d="M581.8,153.1c-1.4,0-2.5,1.1-2.5,2.5c0,1.4,1.1,2.5,2.5,2.5c1.4,0,2.5-1.1,2.5-2.5
			C584.2,154.2,583.1,153.1,581.8,153.1z"/>
		<linearGradient id="SVGID_7_" gradientUnits="userSpaceOnUse" x1="-18.7435" y1="-21.8259" x2="524.738" y2="214.0547">
			<stop  offset="0" style="stop-color:#A678B4"/>
			<stop  offset="0.4892" style="stop-color:#F0535B"/>
			<stop  offset="1" style="stop-color:#2B378B"/>
		</linearGradient>
		<path class="st6" d="M563.4,238.9c2.9,2.6,6.7,4,10.4,4.1l0,0c4.9,0.1,9.6-1.9,12.3-6.4C592.7,225.6,549.8,227,563.4,238.9z"/>
		<linearGradient id="SVGID_8_" gradientUnits="userSpaceOnUse" x1="7.617" y1="-82.5618" x2="551.0985" y2="153.3187">
			<stop  offset="0" style="stop-color:#A678B4"/>
			<stop  offset="0.4892" style="stop-color:#F0535B"/>
			<stop  offset="1" style="stop-color:#2B378B"/>
		</linearGradient>
		<path class="st7" d="M581.8,164.1c-1.4,0-2.5,1.1-2.5,2.5c0,1.4,1.1,2.5,2.5,2.5c1.4,0,2.5-1.1,2.5-2.5
			C584.2,165.2,583.1,164.1,581.8,164.1z"/>
		<linearGradient id="SVGID_9_" gradientUnits="userSpaceOnUse" x1="9.1965" y1="-86.201" x2="552.678" y2="149.6795">
			<stop  offset="0" style="stop-color:#A678B4"/>
			<stop  offset="0.4892" style="stop-color:#F0535B"/>
			<stop  offset="1" style="stop-color:#2B378B"/>
		</linearGradient>
		<path class="st8" d="M566.2,158.1c1.4,0,2.5-1.1,2.5-2.5c0-1.4-1.1-2.5-2.5-2.5c-1.4,0-2.5,1.1-2.5,2.5
			C563.7,156.9,564.8,158.1,566.2,158.1z"/>
		<linearGradient id="SVGID_10_" gradientUnits="userSpaceOnUse" x1="-3.7651" y1="-56.337" x2="539.7165" y2="179.5435">
			<stop  offset="0" style="stop-color:#A678B4"/>
			<stop  offset="0.4892" style="stop-color:#F0535B"/>
			<stop  offset="1" style="stop-color:#2B378B"/>
		</linearGradient>
		<path class="st9" d="M517.1,161.7c-3.4,3.8-6.3,8.1-8.5,12.7c-8.6,18.1-20.7,45-12.9,65c1.8,4.6,4.6,8.6,8.3,11.9
			c4.7,4.2,9.9,7.8,15.4,10.8c-0.6,0.7-1.2,1.5-1.8,2.3c-3.5,5.2-5.7,11.3-7.1,17.5c-8.9,1.2-16.9,5.8-21.7,13.5
			c-0.9,1.4-1.7,3-2.3,4.6c-1.1-0.5-6.4-3-7-2.6c-3,24.2,9.8,37,13.3,42.4l-2.4-0.1c-7.3-0.4-23.1-2.6-29.5,0.8
			c-8.6,4.6-12.6,16.6-13.7,25.7l-0.9,7.5c-0.1,0.8,0.1,1.5,0.7,2.1c0.5,0.6,1.2,0.9,2,0.9h96.7l12.7-0.1c1.1,0,2-0.6,2.4-1.6l1.7-4
			l0.1-0.2l0.1-0.2l0.1-0.2l0.1-0.2l0.1-0.2l0.1-0.2l0.1-0.2l0.1-0.2l0.1-0.2l0.1-0.2c5.8,1.3,11.8,1.6,17.7,0.7l0,0
			c0.2,0,0.4-0.1,0.6-0.1l0,0c0.2,0,0.4-0.1,0.6-0.1l0,0c0.4-0.1,0.8-0.2,1.2-0.2c0,0,0,0,0,0c0.2,0,0.4-0.1,0.6-0.1l0,0
			c0.2,0,0.4-0.1,0.6-0.1l0.1,0c0.2,0,0.3-0.1,0.5-0.1l0.1,0c0.2,0,0.3-0.1,0.5-0.1l0,0.1l0.1,0.3l0.1,0.2l0.1,0.2l0.1,0.2l0.1,0.2
			l0.1,0.1l0.1,0.2l0.1,0.2l0.1,0.2l0.1,0.2l1.7,4c0.4,1,1.4,1.6,2.4,1.6l12.6,0.1h96.7c0.8,0,1.5-0.3,2-0.9
			c0.5-0.6,0.7-1.3,0.7-2.1l-0.9-7.5c-1.1-9.1-5.1-21.2-13.7-25.7c-6.5-3.4-24.3-0.7-32.9-0.2c8.1-8.5,12.9-19.2,13.8-28l1-15.3
			l-3.7,1.5l-3.8,1.6c-0.6-1.6-1.4-3.1-2.3-4.6c-4.9-7.8-12.9-12.4-21.9-13.6c-1.4-6.1-3.6-12.3-7.1-17.4c-0.7-1-1.4-1.9-2.2-2.8
			c5.2-2.9,10.1-6.3,14.6-10.3c14.2-12.6,12-32.5,7-48.8c-3-9.7-7.2-18.9-11.5-28c-2.1-4.4-4.8-8.5-8.1-12.2
			c32.5-20.6,48.8-53.2,52.5-91c1.5-14.9,1-30-1-44.9c-0.9-6.6-2-13.1-3.8-19.5c-0.8-2.8-2.6-4.9-5.2-6.1c-2.6-1.2-5.4-1.1-8,0.1
			c-26.1,12.7-47.6,39.3-59.2,65.5c-5.5,12.4-9.3,25.7-10.9,39.2c-0.7,5.7-0.9,11.5-0.8,17.3c0.2,6.7,1,13.3,2.3,19.8
			c-7.5-1.9-15.5-2.8-23.2-2.2c-7.2-0.5-14.7,0.3-21.8,1.9c5.3-25.6,1.1-52.2-9.4-76C530.9,40.3,509.4,13.7,483.3,1
			c-2.6-1.2-5.4-1.3-8-0.1c-2.6,1.2-4.4,3.3-5.2,6.1c-1.8,6.4-2.9,13-3.8,19.5c-2,14.8-2.5,30-1,44.9
			C469.1,108.7,485.1,141.1,517.1,161.7z M511.6,291.1c0,0.3-0.1,0.7-0.1,1c-0.8,6.9-0.9,14.1-0.3,21.1l-16.8-7.1
			C496.1,298.4,502.4,292.3,511.6,291.1z M553.8,367.2l-8.3,0.1h-75.1c1.8-14.7,2.2-11.2,19.7-14.7c-18.9-3.4-22.2-2.5-25.8,14.6
			c0,0.1,0,0.1,0,0.2h-7.9c0,0,1.8-14.9,8.8-18.6c9.2-4.9,46.1,0.2,57.2,4.9c-15.3-10-31.2-21.9-33.1-42.3l22.7,9.6
			c2.4,15,8.4,31.2,20.7,40c2.9,2.1,6.1,3.7,9.5,4.8c3.8,1.2,7.8,1.8,11.6,1.3C553.8,367,553.8,367.1,553.8,367.2z M543.9,360.6
			c-2.9-0.9-5.6-2.3-8-4c-11.8-8.5-17.8-25.8-19.3-43.3c2.7-4.8,8.1-8.2,14.3-9.7c3.6-0.9,7.4-1.1,11.1-0.7l2.5,0.3
			c6.3,7.5,15.5,12.6,21,17.4c1.8,1.6,3.3,3.2,4.1,4.8c1.7,3.4,0.4,5.3-1.8,6.4c-3-4.8-9.3-5.5-9.3-5.5s0.3,0.3,4.1,6.5h-0.1
			C569.7,344.7,564.9,367.3,543.9,360.6z M555.8,306.5c11.6-5.7,25.9-5.6,36.7,0.5c-1,0.8-2.1,1.6-3.1,2.3c-3.2,2.4-6.6,4.6-9.6,7.3
			c-2.1,1.8-4.1,3.9-5.3,6.4c-1.2-2.5-3.2-4.6-5.3-6.4c-3-2.6-6.4-4.9-9.6-7.3C558.2,308.4,557,307.5,555.8,306.5z M584,362
			c-0.2,0.1-0.5,0.1-0.7,0.2c-0.2,0.1-0.5,0.1-0.7,0.2c-0.2,0.1-0.4,0.1-0.7,0.1c-0.3,0.1-0.5,0.1-0.8,0.2c-0.2,0-0.4,0.1-0.6,0.1
			c-0.3,0-0.6,0.1-0.8,0.1c-0.2,0-0.4,0.1-0.5,0.1c-0.3,0-0.6,0.1-0.9,0.1l-0.4,0c-0.4,0-0.7,0.1-1.1,0.1l-0.3,0
			c-0.4,0-0.8,0-1.1,0.1h0l-0.3,0l0,0c-0.4,0-0.8,0-1.2,0h0c-3.2,0-6.4-0.4-9.5-1.1c0.2-0.2,0.4-0.4,0.6-0.5
			c4.8-4.9,6.6-12.1,6.2-18.9c-0.1-2-0.4-4.1-1-6.1c1.7-0.8,3.1-1.9,4.2-3.4c0.1-0.1,0.2-0.2,0.2-0.3c0.1,0.1,0.1,0.2,0.2,0.3
			c1.1,1.5,2.5,2.6,4.2,3.4c-0.5,2-0.9,4-1,6.1c-0.4,6.7,1.4,14,6.2,18.9c0.1,0.1,0.2,0.2,0.3,0.3L584,362z M654.6,306.1l-17,7.2
			c0.6-7,0.5-14.2-0.3-21.1c0-0.3-0.1-0.7-0.1-1C646.5,292.3,652.8,298.4,654.6,306.1z M659.6,311.3c-1.9,20.4-17.8,32.3-33.1,42.3
			c11.1-4.7,48-9.8,57.2-4.9c7,3.7,8.8,18.6,8.8,18.6h-7.9c0-0.1,0-0.1,0-0.2c-3.7-17-6.9-17.9-25.8-14.6c17.5,3.5,18,0,19.7,14.7
			h-75.1l-8.3-0.1l-0.1-0.1c3.7,0.5,7.7-0.1,11.5-1.3c3.4-1.1,6.6-2.7,9.5-4.8c12.3-8.9,18.3-25,20.7-40L659.6,311.3z M612.9,356.6
			c-2.4,1.7-5.1,3.1-8,4c-21,6.7-25.8-15.9-18.7-27.8h-0.1c3.8-6.2,4.1-6.5,4.1-6.5s-6.3,0.6-9.3,5.5c-2.1-1-3.5-2.9-1.8-6.4
			c0.8-1.6,2.2-3.2,4.1-4.8c5.6-4.9,14.8-9.9,21-17.4l2.5-0.3c3.7-0.4,7.6-0.2,11.1,0.7c6.2,1.5,11.6,4.9,14.3,9.7
			C630.8,330.8,624.7,348.1,612.9,356.6z M631.6,289.8c-6.5-2.5-14.9-1.6-21.1,0.3c0.1-0.5,0.2-1,0.2-1.6c-0.1-6.6-2-12.2-2-12.2
			l-4,15.2l0,0c-0.9,2.9-2.4,5.5-4.5,8.1c0,0,0,0.1-0.1,0.1c-0.5,0.6-1,1.1-1.5,1.7c-0.5,0.6-1.1,1.1-1.7,1.7
			c-0.6-0.4-1.2-0.8-1.8-1.2c-11.2-6.6-25.4-7.3-37.5-2.7c-2.3,0.9-4.6,2-6.6,3.2c-0.3-0.3-0.7-0.7-1-1c-0.5-0.5-1-1.1-1.5-1.7
			c0,0,0-0.1-0.1-0.1c-2.1-2.6-3.7-5.3-4.5-8.2l0,0.2l-2.1-6.7l-2.7-8.6c0,0-0.4,1.5-0.8,3.9l0,0c0,0.3-0.1,0.6-0.1,0.9
			c-0.5,3.2-0.5,6.2,0,8.9c-6.2-1.9-14.6-2.8-21.1-0.3c1.3-8.6,3.7-16,7.1-20.9c1.5-2.2,3.3-3.6,5.2-4.1c1.9,2.3,4.2,4.5,6.8,6.5
			l0,0l0.2,0.1l0.1,0.1l0,0l0.2,0.2l0,0l0,0l0.3,0.2l0,0l0.2,0.2l0,0l0.1,0.1l0.2,0.1l0,0l0,0c0.2,0.1,0.3,0.2,0.5,0.3h0
			c5.2,3.5,11.6,6.2,18.8,7.9c-7.2-2.8-13.2-7.3-17.2-12.8c21.7,6.5,46.4,6.5,68,0c-4,5.6-10,10.1-17.2,12.8c5.1-1.2,9.7-2.9,13.9-5
			c1.6-0.9,4.4-2.6,6.2-3.7l0-0.1c3-2.1,5.5-4.5,7.6-7.1c2.2,0.2,4.5,1.7,6.3,4.4C627.9,273.8,630.4,281.3,631.6,289.8z
			 M637.3,244.3c-32.2,28.6-94.9,28.6-127.1,0c-3.3-2.9-5.4-6.5-6.6-10.5c5.3,2,12.4,4.3,21.4,6.3c6.7,1.5,14.5,2.8,23.4,3.5
			c0.3,0.6,0.6,1.2,1,1.8c4.7,6.6,15.4,8.7,24,8.8c8.7,0,19.8-2.1,24.5-8.8c0.4-0.6,0.8-1.2,1-1.8c8.9-0.8,16.7-2.1,23.4-3.5
			c9-2,16.1-4.4,21.4-6.3C642.7,237.8,640.6,241.4,637.3,244.3z M547,208.7c-1.6-1.8-3.7-2.9-6.1-2.9c-1.6,0-3.1,0.5-4.4,1.4
			c-1.4,1-2.5,2.3-3.3,4c-0.6,1.3-2.1,1.8-3.3,1.2c-1.3-0.6-1.8-2.1-1.2-3.3c1.2-2.5,2.9-4.6,5-6c2.1-1.4,4.6-2.3,7.2-2.3
			c3.9,0,7.4,1.8,9.9,4.7c2.4,2.8,3.9,6.6,3.9,10.8c0,1.4-1.1,2.5-2.5,2.5c-1.4,0-2.5-1.1-2.5-2.5
			C549.7,213.3,548.7,210.6,547,208.7z M595.3,218.8c-1.4,0-2.5-1.1-2.5-2.5c0-4.2,1.5-8,3.9-10.8c2.5-2.9,6-4.7,9.9-4.7
			c2.6,0,5.1,0.8,7.2,2.3c2.1,1.5,3.9,3.5,5,6c0.6,1.3,0,2.8-1.2,3.3c-1.3,0.6-2.8,0-3.3-1.2c-0.8-1.6-1.9-3-3.3-4
			c-1.3-0.9-2.8-1.4-4.4-1.4c-2.4,0-4.5,1.1-6.1,2.9c-1.7,1.9-2.7,4.5-2.7,7.5C597.8,217.6,596.7,218.8,595.3,218.8z M628.1,149
			c-1.9-3.2-4.8-5.8-8.2-7.3c-9.8-45.1,14.8-91.9,44.6-115.7c6.2,30.1,3.9,61.7-8.4,89.9c15.6-25.9,17-62.9,11.3-92.2
			c1.1-0.8,2.2-1.6,3.3-2.4C675.2,46.8,681.2,114,628.1,149z M625.8,155c-3.8-2.4-7.1-5.5-11.7-6.1c-1.3-0.2-2.2-1.4-2-2.7
			c0.2-1.3,1.4-2.2,2.7-2C620.7,146.1,623.8,149.1,625.8,155z M669.6,9.4c0,0,0.5,1.8,1.2,5c-0.5,0.2-0.9,0.4-1.2,0.7
			c-20.7,14-37.5,36.5-47.1,59.4c-8.8,21-12.4,43.8-8.7,66c-0.3,0-0.5,0-0.8,0c-2.4,0-4.7,0.5-6.8,1.4
			C594,86.1,631.7,27.8,669.6,9.4z M576.1,149.8c15.4-0.6,43.4,5.5,54.4,28.6c8.4,17.6,15.9,36.2,14.3,50.5c-5.3,2-13,4.8-23.2,7
			c-6.2,1.4-13.4,2.6-21.5,3.3c0-1,0-1.9-0.2-2.9c-0.2-0.8-0.5-1.6-0.9-2.4c16.4-2.3,28.9-7.1,29.7-14.6c0.8-8-5.7-23.4-15.6-32.3
			c-8.6-7.7-22.7-11.9-37-12.4V149.8z M573.7,228.2L573.7,228.2c9.1-0.1,20.2,3.4,21.3,8.9c1,5.3-2.5,8.9-7.9,10.9
			c-8.1,2.5-10.9-0.8-12.1-2.8c-0.6-0.9-0.8-1.4-1.1-1.5c-0.1,0-0.1,0-0.2,0c-0.3,0.1-0.6,0.6-1.2,1.5c-1.3,1.9-3.9,4.6-9.5,3.7
			c-6.9-1.8-11.8-5.7-10.6-11.8C553.6,231.6,564.6,228.1,573.7,228.2L573.7,228.2z M571.9,149.9v24.8c-14.2,0.2-28.2,4-36.8,11.5
			c-10.1,8.7-17,23.9-16.3,32c0.6,7.6,13.4,12.8,30,15.4c-0.5,0.9-0.9,1.8-1.1,2.9c-0.2,1-0.3,2-0.2,2.9c-8.1-0.8-15.3-2-21.5-3.3
			c-10.2-2.3-17.9-5-23.2-7c-1.6-14.3,5.9-32.9,14.3-50.5C528.1,155.1,556.6,149.2,571.9,149.9z M524.6,155c2-5.9,5.2-8.9,11-10.8
			c1.3-0.2,2.5,0.7,2.7,2c0.2,1.3-0.7,2.5-2,2.7C531.7,149.5,528.4,152.6,524.6,155z M479.2,9.4c37.7,18.3,75.1,75.8,63.6,131.1
			c-1.8-0.7-3.8-1-5.9-1c-0.6,0-1.2,0-1.8,0.1c3.5-21.7,0-43.9-8.4-64.5c-9.2-22.2-25-44-44.7-58.3c-0.8-0.6-1.6-1.2-2.5-1.7
			c-0.3-0.2-0.8-0.6-1.4-1C478.7,11.1,479.2,9.4,479.2,9.4z M478.6,22.1c0.8,0.6,1.7,1.2,2.5,1.8c-5.7,29.3-4.3,66.3,11.3,92.2
			c-12.3-28.3-14.6-59.8-8.4-90c29.9,23.5,54.6,70.4,44.6,115.5c-3.5,1.9-6.2,4.9-7.8,8.5C466.9,114.8,474.1,46,478.6,22.1z"/>
		<linearGradient id="SVGID_11_" gradientUnits="userSpaceOnUse" x1="5.1564" y1="-76.8926" x2="548.6379" y2="158.9879">
			<stop  offset="0" style="stop-color:#A678B4"/>
			<stop  offset="0.4892" style="stop-color:#F0535B"/>
			<stop  offset="1" style="stop-color:#2B378B"/>
		</linearGradient>
		<path class="st10" d="M566.2,169.1c1.4,0,2.5-1.1,2.5-2.5c0-1.4-1.1-2.5-2.5-2.5c-1.4,0-2.5,1.1-2.5,2.5
			C563.7,168,564.8,169.1,566.2,169.1z"/>
		<linearGradient id="SVGID_12_" gradientUnits="userSpaceOnUse" x1="-14.0478" y1="-32.645" x2="529.4337" y2="203.2355">
			<stop  offset="0" style="stop-color:#A678B4"/>
			<stop  offset="0.4892" style="stop-color:#F0535B"/>
			<stop  offset="1" style="stop-color:#2B378B"/>
		</linearGradient>
		<path class="st11" d="M349.7,127.7c1.3,0,2.4-1,2.4-2.4c0-1.3-1-2.4-2.4-2.4c-1.3,0-2.4,1.1-2.4,2.4S348.2,127.7,349.7,127.7z"/>
		<linearGradient id="SVGID_13_" gradientUnits="userSpaceOnUse" x1="-18.0806" y1="-23.3532" x2="525.4009" y2="212.5273">
			<stop  offset="0" style="stop-color:#A678B4"/>
			<stop  offset="0.4892" style="stop-color:#F0535B"/>
			<stop  offset="1" style="stop-color:#2B378B"/>
		</linearGradient>
		<path class="st12" d="M349.7,138.7c1.3,0,2.4-1.1,2.4-2.4c0-1.3-1-2.4-2.4-2.4c-1.3,0-2.4,1.1-2.4,2.4
			C347.2,137.5,348.2,138.7,349.7,138.7z"/>
		<linearGradient id="SVGID_14_" gradientUnits="userSpaceOnUse" x1="-51.456" y1="53.5455" x2="492.0255" y2="289.4261">
			<stop  offset="0" style="stop-color:#A678B4"/>
			<stop  offset="0.4892" style="stop-color:#F0535B"/>
			<stop  offset="1" style="stop-color:#2B378B"/>
		</linearGradient>
		<path class="st13" d="M261.2,163.6c2.9,5.3,6.5,10.5,10.5,15.1c-0.6,3-1,6-1.4,9c-0.6,5.2-1,10.3-0.9,15.6c0,2.3,0,4.4,0.3,6.6
			c0.4,6.2,6.2,13.6,10,18.4c6.9,8.5,14.8,14.9,23.4,19.8c0.1,0.4,0.3,0.7,0.4,1c1,2,2.2,3.9,3.6,5.6c-3,6.2-4.9,12.6-5.9,19.4
			c-1.1,5-1.7,10-2,15.1c-1.9,0.9-3.6,2-5.3,3.3c-4.6,3.6-7.9,8.6-9.8,14.2c-0.6,1.6-1,3.2-1.3,4.7l-2.7-0.7l-0.3,1.9
			c-1.3,8.5-0.7,15.8,2.7,23.2c-2.9,0.4-5.7,1.4-8,3.3c-1.7,1.4-3.2,3.3-4,5.3c-1.7,3.9-3.4,8.3-3.4,12.5c0,3.2,1,6.3,3.4,8.3
			c1.4,1.1,3.3,1.9,5.2,1.9h27.4c1.6,4.4,4.7,8.5,9.3,9.6c1.3,0.4,2.6,0.4,3.9,0.6c1.4,0.1,2.7,0.1,4.2,0.1c3.6,0,7.2,0,10.8,0
			c5.6,0,11.2-0.1,16.8-0.3c3.4-0.1,6.5-2.2,7.9-5.2c1.4,3,4.4,5,7.9,5.2c5.6,0.1,11.2,0.3,16.8,0.3c3.6,0,7.2,0,10.8,0
			c1.4,0,2.7-0.1,4.2-0.1c1.3-0.1,2.6-0.3,3.9-0.6c4.6-1.3,7.7-5.3,9.3-9.6h27.7c1.9,0,3.7-0.7,5.2-1.9c2.4-2,3.4-5.2,3.4-8.3
			c0-4.3-1.7-8.6-3.4-12.5c-2.4-5.3-7-7.9-12.3-8.6c2.6-5.6,3.6-11.2,3.3-17.2c12.2-3,21.5-9,29.4-18.8
			c17.1-21.3,19.5-52.8-1.3-72.6c-6.1-5.9-17.2-4.5-23,1.2c-7.2,7.2-4.4,17.1,1,24.5c5.2,7,6.7,8.5,5.6,17.5
			c-1.6,12.4-13.7,20.9-25.8,24.2c-0.3-0.3-0.7-0.6-1.1-0.9l-2.3-1.5c-0.2,0.3-0.3,0.5-0.3,0.5l-3.7-6l0.9-6.5
			c-0.3-1.8-0.7-3.7-1.1-5.5c-0.6-4-1.4-7.9-2.7-11.6c-0.6-1.9-1.3-3.6-2-5.3c1-1.1,2-2.3,2.9-3.7c0.9-1.4,1.7-3,2.4-4.6
			c0.1-0.4,0.3-0.7,0.4-1c8.6-4.9,16.5-11.3,23.4-19.8c4-4.9,9.5-12,10-18.5c0.1-2.2,0.3-4.3,0.3-6.6c0.1-5.4-0.1-10.8-0.9-16.1
			c-0.4-2.9-0.9-5.7-1.4-8.6c4-4.6,7.6-9.6,10.5-15.1c4.6-8.6,7.6-17.8,8.7-27.4c1.1-9.6,0.3-19.1-2.2-28.4
			c-1.3-4.7-5.4-7.9-10.3-7.9c-18.1,0-33.7,7.5-48.2,16.9c-27.2-16.8-61.7-16.6-88.8,0c-14.5-9.6-30.1-16.9-48.2-16.9
			c-4.7,0-8.9,3.3-10.2,7.9c-2.4,9.3-3.3,18.9-2.2,28.4C253.6,145.9,256.6,155.2,261.2,163.6z M287.3,222c-1.6-1.9-2.7-3.6-3.7-5.2
			c5.6,2,13.2,4.4,23.1,6.6c5.9,1.3,12.5,2.4,19.8,3.2c0.3,0.6,0.6,1.1,0.9,1.7c3.2,5.4,8.5,8.7,14.3,10.8c-3.2,1.3-5.6,3.3-6.2,6.6
			c-0.1,1.3,0,2.6,0.4,3.9v0.1c-4.6-1-9.2-2.2-13.6-3.7C308.2,241.1,296.6,233.3,287.3,222z M324.4,182.3c-1.6,0-3.2,0.6-4.4,1.4
			c-1.4,1-2.6,2.3-3.3,4c-0.6,1.3-2.2,1.9-3.3,1.1c-1.3-0.6-1.9-2.2-1.1-3.3c1.1-2.4,2.9-4.6,5-6c2.2-1.4,4.6-2.3,7.2-2.3
			c3.9,0,7.3,1.7,9.9,4.6c2.6,2.9,4.2,6.6,4.2,10.8c0,1.4-1.1,2.6-2.6,2.6c-1.4,0-2.6-1.1-2.6-2.6c0-2.9-1-5.6-2.7-7.5
			C329,183.3,326.9,182.3,324.4,182.3z M397.7,261.6c3.7,9,5.9,21.5,3.9,38c-0.6,3.9-1.1,7.6-1.9,11.2c-8.5-4.7-20.1-0.9-29,4.2
			c-1.1-16.3-4.7-28.4-6.2-32.8c-1.3-4-6.2-3.3-6.3,0.4c0.6,1.7,1,4.2,1.4,6c0.7,3.3,1.3,6.6,1.7,9.9c0.7,5.4,1.6,11.3,2,16.9
			c0,1.3,0.1,2.4,0.1,3.7c-5.3,0.7-10.6,0.7-15.9,0.1c0-1.3,0-2.6,0.1-3.9c0.1-2.3,0.4-4.4,0.7-6.7c0.4-3.4,0.9-6.9,1.4-10.3
			c0.6-3.4,1-7,1.7-10.5c0.3-1.3,0.6-3,1-4.6c0.1-3.7-2-3.9-3.3-3.7c-1.1,0.1-2,1.1-2.7,3.2c-1.4,4.7-4.7,16.3-5.9,31.8
			c-9.8-6.6-17.6-8.6-29-3.4c-0.7-3.6-1.4-7.5-1.9-11.5c-2.2-17.8,0.6-31,4.9-40.3c6.7,4.7,15.3,7.3,23.9,8.7
			c-9.5-3.2-16.3-8.9-21.1-15.2c2.2,0.7,4.4,1.6,6.6,2.2c5.3,2.9,10.9,5,16.8,6.5c6.9,1.7,13.8,2.3,20.8,1.9
			c5.6-0.4,11.2-1.4,16.6-3.2c4.6-1.4,8.7-3.2,11.9-5c2.3-0.6,4.4-1.3,6.6-2.2c-5.2,6.7-12.5,12.8-22.9,15.8
			C382.4,267.7,391,265.6,397.7,261.6z M373.3,247.8c-0.9,1.6-3,2.7-5.6,3.6c-3.4,0.3-6.9,0.6-10.3,0.9c-3.4-0.1-6.9-0.4-10.2-0.9
			c-2.9-1-5-2.3-5.7-4C339.2,241.1,376.8,240.9,373.3,247.8z M302.5,296.6c0.1,1.3,0.3,2.6,0.4,4c0.9,7.3,2.3,14.5,4.2,21.5
			c-5-2.6-11-5.3-16.5-7C291.6,307,295.7,299.9,302.5,296.6z M303.8,358.8H276c-2.7-2.3,0.3-23.4,27.7-11
			c-6-4.9-16.3-11.3-16.1-27.5c5.3,1.4,14.2,5.5,22.1,9.6c1.3,3.6,2.6,7.2,4.2,10.6c0.4,1.3,1,2.4,1.6,3.6c-2.7,0.9-5.2,2.2-7.2,4.3
			C305.4,351.2,303.9,354.9,303.8,358.8z M347.9,367.8c0,0-30.1,0.9-33,0c-2.9-0.9-6.5-9.5-1.6-14.5c2.2-2.3,5.4-2.9,8.3-2.9
			c5.9,1.3,9.6,5,13.6,10c-0.9-8.7-5.9-11-9.3-13.2c-1.1-0.7-1.6-1-2.2-2.1c-2.9-5.5-7-14.5-10.2-26.4c9-6.2,19.9-2,27,4.2
			c0.3,17.1,3.9,33,6.2,36.1C349.2,362.2,347.9,367.8,347.9,367.8z M359.6,355.1c-0.3,0.6-0.6,1-0.9,1.6c-0.9,0-1.9,0-2.7,0
			c-0.7,0-1.4,0-2.2,0c-0.3-0.6-0.7-1.3-1.1-1.9c-0.4-0.7-0.9-2.3-1.1-3.2c-0.9-3-1.6-6.2-2-9.2c-1-5.7-1.6-11.5-1.6-17.4
			c5.4,0.7,11,0.7,16.5-0.1c-0.1,6.7-0.9,13.5-2,20.1C362,347.3,360.8,353.1,359.6,355.1z M396.8,367.8c-2.9,0.9-33,0-33,0
			s-1.3-5.6,1.1-8.7c2.3-3.2,5.9-19.1,6.2-36.1c7-6.2,17.9-10.3,27-4.2c-3.2,11.9-7.3,20.9-10.2,26.4c-0.6,1.1-1,1.4-2.2,2.1
			c-3.4,2.2-8.5,4.4-9.3,13.2c4-5,7.7-8.7,13.6-10c2.9,0,6.2,0.6,8.3,2.9C403.3,358.4,399.7,367,396.8,367.8z M436,358.8h-28.2
			c-0.1-3.7-1.6-7.3-4.3-10c-2.2-2.2-4.7-3.6-7.5-4.3c2.2-4.6,4-9.3,5.4-14.1c8-4.3,17.4-8.7,22.9-10.2c0.3,16.2-10,22.7-16.1,27.5
			C435.6,335.4,438.7,356.5,436,358.8z M460.7,289.7c-1.1,0.1-2.4,0-3.8-0.3c-1.6-0.4-3.3-1-4.9-1.9c-2.1-1.2-4-3-5.2-5.3
			c1.5-2.5,2.6-5.1,3.3-8c2.5,1.5,5.3,2.2,8.1,2.4c2.3,0.1,4.6-0.1,6.6-0.7c0.7-0.2,1.4-0.4,2-0.6
			C465.5,280.3,463.4,285.2,460.7,289.7z M468.1,269.4c-0.2,0.1-0.3,0.3-0.5,0.4c-1,0.7-2.3,1.3-3.9,1.7c-1.6,0.4-3.4,0.6-5.2,0.5
			c-2.7-0.2-5.4-1-7.6-2.8c0.4-3.8,0.2-6.6-0.4-9c3.9,0,7.4-1.5,10.3-3.7c2-1.5,4.5-4.2,6-7.1C468.7,255.9,469.1,262.7,468.1,269.4z
			 M443.9,248.9c-12.1-16.5,6.4-22.2,12-16.9c3.4,3.3,6.1,6.9,8.2,10.8c0,4.1-2.6,7.6-6,10.1c-2.6,2-6,3.2-9.6,2.6
			C447.3,253.5,445.8,251.4,443.9,248.9z M444,286.3c1.5,2.2,3.5,3.9,5.7,5.2c2,1.2,4.1,2,6.2,2.4c0.6,0.1,1.2,0.2,1.7,0.3
			c-0.4,0.5-0.7,0.9-1.1,1.4c-3.7,4.7-7.6,8.1-11.7,10.6c-0.9-0.4-1.9-0.9-2.8-1.6c-1.3-1-2.6-2.3-3.6-3.8c-1.5-2.1-2.5-4.6-2.5-7.2
			C439,291.5,441.7,289,444,286.3z M431.6,296.3c0.5,2.6,1.6,5.1,3.1,7.2c1.3,1.9,3,3.5,4.6,4.8c0.3,0.2,0.5,0.4,0.8,0.6
			c-3.6,1.7-7.1,2.4-10.6,4c-1.5-6.8-3.9-9.1-6.5-12.8C426,299,428.9,297.8,431.6,296.3z M408.9,300.4c0.3-1.3,0.4-2.7,0.6-4
			c6.9,3.2,11.2,10.5,12,18.5c-5.6,1.6-11.6,4.4-16.8,7C406.6,314.9,408,307.8,408.9,300.4z M428.2,220.7
			c-5.3,6.3-10.9,12.2-17.8,16.6c-9.6,6.2-20.2,10-31.7,12.3c0.6-1.3,0.7-2.7,0.4-4.2c-0.6-3.2-3-5.2-6-6.5
			c5.9-1.9,11.2-5.3,14.3-10.6c0.3-0.6,0.6-1.1,0.9-1.7c7.5-0.9,14.1-1.9,19.8-3.2c9.8-2.2,17.4-4.6,22.9-6.6
			C430.3,218.3,429.2,219.4,428.2,220.7z M384.4,185.2c-1.7,1.9-2.7,4.6-2.7,7.5c0,1.4-1.1,2.6-2.6,2.6c-1.4,0-2.6-1.1-2.6-2.6
			c0-4.2,1.4-7.9,4.3-10.8c2.6-2.9,6-4.6,9.9-4.6c2.6,0,5,0.9,7.2,2.3c2.2,1.4,3.9,3.6,5,6c0.6,1.1,0,2.7-1.3,3.3
			c-1.1,0.7-2.7,0.1-3.3-1.1c-0.7-1.7-1.9-3-3.3-4c-1.3-0.9-2.9-1.4-4.4-1.4C388.1,182.3,385.9,183.3,384.4,185.2z M448.9,110.4
			c0.3,0,0.6,0,0.9,0c0.1,0.1,0.1,0.1,0.3,0.1c6.9,25.8-3.4,45.7-11.5,56.6c-2.9-8.7-6.7-17.1-12-24.7c-1-1.4-2-2.9-3.2-4.3
			C430,127.1,438.9,115.9,448.9,110.4z M434.8,112.6c-4.2,3.9-7.9,8.5-11.2,13c-1.7,2.3-3.3,4.7-4.9,7.3c-2.9-3.2-6-6-9.2-8.6
			C417.5,119.3,426,115,434.8,112.6z M359.6,114.6c22.7,0.6,45.2,11.5,59.8,32.8c19.2,27.7,15.5,61.4,15.5,61.4
			c0,0.7-0.3,1.6-0.6,2.4c-5.5,2.2-14.3,5.4-27,8.2c-5.2,1.1-11,2.2-17.5,2.9c0.4-2.3,0.4-4.9,0-7.3c-0.3-1.9-0.9-3.4-1.7-5
			c17.1-2.9,30-8.3,30.7-16.2c0.9-9-6.6-26-17.8-35.8c-9.8-8.6-25.4-13-41.4-13.3V114.6z M357.6,202.5c11.2-0.1,25,5,26.4,13.3
			c1.3,7.9-3.2,13.2-9.8,16.3c-10,3.7-13.5-1.1-15.1-4.2c-0.7-1.4-1-2.3-1.4-2.3c0,0,0,0-0.1,0c-0.4,0.1-0.9,0.9-1.6,2.2
			c-1.6,2.7-4.9,7-11.8,5.6c-8.5-2.7-14.6-8.5-13-17.6C332.6,207.5,346.2,202.5,357.6,202.5z M355.4,114.6v29.8
			c-16.1,0.4-31.8,4.9-41.4,13.5c-11.2,9.9-18.6,26.8-17.8,35.8c0.7,8,13.6,13.5,30.7,16.3c-0.9,1.6-1.4,3.2-1.7,5
			c-0.4,2.4-0.4,4.9,0,7.3c-6.5-0.7-12.3-1.7-17.5-2.9c-12.5-2.6-21.4-6-26.8-8c-0.7-1.7-0.7-2.6-0.7-2.6s-3.6-33,14.8-60.4
			C309.5,126.6,332.3,115.3,355.4,114.6z M305.2,124.4c-3.2,2.6-6.3,5.4-9.2,8.6c-1.6-2.6-3.2-5-4.9-7.3c-3.2-4.6-6.9-9.2-11.2-13
			C288.9,115,297.3,119.3,305.2,124.4z M265.1,110.6c-0.1,0,0,0,0.1-0.1c0.3,0,0.6,0,0.9,0c10,5.4,18.9,16.6,25.5,27.8
			c-1.3,1.7-2.6,3.6-3.9,5.3c-4.9,7.3-8.6,15.3-11.2,23.7C268.5,156.3,258.2,136.4,265.1,110.6z"/>
		<linearGradient id="SVGID_15_" gradientUnits="userSpaceOnUse" x1="-15.6257" y1="-29.0093" x2="527.8558" y2="206.8712">
			<stop  offset="0" style="stop-color:#A678B4"/>
			<stop  offset="0.4892" style="stop-color:#F0535B"/>
			<stop  offset="1" style="stop-color:#2B378B"/>
		</linearGradient>
		<path class="st14" d="M365.2,133.8c-1.3,0-2.4,1.1-2.4,2.4c0,1.3,1,2.4,2.4,2.4c1.3,0,2.4-1.1,2.4-2.4
			C367.6,135,366.6,133.8,365.2,133.8z"/>
		<linearGradient id="SVGID_16_" gradientUnits="userSpaceOnUse" x1="-11.593" y1="-38.3011" x2="531.8885" y2="197.5795">
			<stop  offset="0" style="stop-color:#A678B4"/>
			<stop  offset="0.4892" style="stop-color:#F0535B"/>
			<stop  offset="1" style="stop-color:#2B378B"/>
		</linearGradient>
		<path class="st15" d="M365.2,122.8c-1.3,0-2.4,1.1-2.4,2.4s1,2.4,2.4,2.4c1.3,0,2.4-1,2.4-2.4
			C367.6,123.9,366.6,122.8,365.2,122.8z"/>
		<linearGradient id="SVGID_17_" gradientUnits="userSpaceOnUse" x1="-45.3603" y1="39.5008" x2="498.1212" y2="275.3813">
			<stop  offset="0" style="stop-color:#A678B4"/>
			<stop  offset="0.4892" style="stop-color:#F0535B"/>
			<stop  offset="1" style="stop-color:#2B378B"/>
		</linearGradient>
		<path class="st16" d="M357.4,223h0.1c6.7,0,17.1-3.4,15.8-10.5c-0.7-4.2-9-6.2-15.9-6.2c-6.7,0-15.1,2-15.9,6.2
			C340.2,219.6,350.5,223,357.4,223z"/>
	</g>
	<g>
		<linearGradient id="SVGID_18_" gradientUnits="userSpaceOnUse" x1="-76.2235" y1="374.061" x2="360.1461" y2="563.4531">
			<stop  offset="0" style="stop-color:#A678B4"/>
			<stop  offset="0.4892" style="stop-color:#F0535B"/>
			<stop  offset="1" style="stop-color:#2B378B"/>
		</linearGradient>
		<path class="st17" d="M413.9,533.9l-11.8,32.6c-1.6,4.4-3.4,10.2-5.3,17.5h-0.4l-21.7-50.1h-38.6l-20.3,56.2h0l-5.7,15.9h0h11.5
			h14.6l11.7-32.5c1.5-4.2,3.3-10.3,5.2-18.3h0.6l21.6,50.8h38.7l26-72.1H413.9z"/>
		<linearGradient id="SVGID_19_" gradientUnits="userSpaceOnUse" x1="-90.4288" y1="406.7906" x2="345.9409" y2="596.1827">
			<stop  offset="0" style="stop-color:#A678B4"/>
			<stop  offset="0.4892" style="stop-color:#F0535B"/>
			<stop  offset="1" style="stop-color:#2B378B"/>
		</linearGradient>
		<polygon class="st18" points="310.7,590.1 296.1,590.1 275.3,590.1 280.2,576.5 313,576.5 318.6,560.9 285.8,560.9 289.9,549.6 
			325.3,549.6 331,533.9 266,533.9 240,606 284.8,606 304.9,606 305.1,606 310.8,590.1 		"/>
		<linearGradient id="SVGID_20_" gradientUnits="userSpaceOnUse" x1="-10.0039" y1="221.4875" x2="426.3657" y2="410.8796">
			<stop  offset="0" style="stop-color:#A678B4"/>
			<stop  offset="0.4892" style="stop-color:#F0535B"/>
			<stop  offset="1" style="stop-color:#2B378B"/>
		</linearGradient>
		<path class="st19" d="M685.4,390l-16,46.8c-4.8,14.1-8.3,28-10.5,41.5c-0.8-8.7-2.8-18.9-6.2-30.4L635.6,390h-45.8l-15.3,44.8
			c-0.4-8.8-2.7-16.6-6.9-23.4c-8.9-14.2-24.3-21.4-46.1-21.5l0,0H378.5l-39.1,37.9h32.4L339,523.5h46l32.7-95.6h24
			c-10.7,12.2-18.8,26.4-24.4,42.5c-7.5,21.5-8.2,39.3-2,53.1h117.1c7-6.2,13.2-13.1,18.7-20.7l-7.1,20.7h39.4l17.8-52
			c2.4-7.1,4.1-15.8,5-25.9c1,13,2.8,23.9,5.3,32.8l19.6,69.7h39.6L725,390H685.4z M517.3,465.9c-6.5,18.7-12.8,31.6-18.8,38.7
			c-6,7.1-13.2,10.6-21.4,10.6c-15.4,0-18-14.5-8-43.6c10.8-31,24.1-46.4,40.1-46.4C524,425.3,526.7,438.8,517.3,465.9z"/>
		<linearGradient id="SVGID_21_" gradientUnits="userSpaceOnUse" x1="-111.9931" y1="456.4761" x2="324.3765" y2="645.8682">
			<stop  offset="0" style="stop-color:#A678B4"/>
			<stop  offset="0.4892" style="stop-color:#F0535B"/>
			<stop  offset="1" style="stop-color:#2B378B"/>
		</linearGradient>
		<path class="st20" d="M226.7,533.9L202.1,602l-17.9-27.4c14-4.6,22.5-11,25.5-19.4c5.1-14.2-7.2-21.3-36.9-21.3
			c-34.8,0-69.6,0-104.4,0l-26,72.1h29.1l9.8-27.1h32.7l5.7-15.7H87l5-13.7h17.5h18h4L111.1,606h29.5l9.5-26.2h7.5l13.7,26.2h29.4h4
			h25.6l26-72.1H226.7z M179.7,556.1c-2.2,6-8.4,9-18.8,9h-5.5l5.9-16.4h5.9C177.2,548.7,181.4,551.1,179.7,556.1z"/>
		<linearGradient id="SVGID_22_" gradientUnits="userSpaceOnUse" x1="-61.9072" y1="341.0754" x2="374.4624" y2="530.4675">
			<stop  offset="0" style="stop-color:#A678B4"/>
			<stop  offset="0.4892" style="stop-color:#F0535B"/>
			<stop  offset="1" style="stop-color:#2B378B"/>
		</linearGradient>
		<path class="st21" d="M530.1,568.4c4-11.2,2.3-19.7-5-25.7c-7.4-5.9-19.9-8.9-37.4-8.9h-37.8l-5.6,15.7c11.7,0,39-1.7,48.8,1.5
			c2.5,0.8,4.3,1.9,5.7,3.4c2.8,3.2,3,8.1,0.6,14.7c-2.6,7.1-6.6,12.3-12,15.7c-5.4,3.4-12.6,5.2-21.6,5.2h-6.6l9-24.8h-29.5
			L423.8,606h35.4c18.2,0,33.5-3.3,45.9-9.8C517.4,589.7,525.8,580.5,530.1,568.4z"/>
		<linearGradient id="SVGID_23_" gradientUnits="userSpaceOnUse" x1="-47.4111" y1="307.6755" x2="388.9586" y2="497.0676">
			<stop  offset="0" style="stop-color:#A678B4"/>
			<stop  offset="0.4892" style="stop-color:#F0535B"/>
			<stop  offset="1" style="stop-color:#2B378B"/>
		</linearGradient>
		<path class="st22" d="M553.2,538.4c-8.7,3.7-14.2,8.9-16.6,15.5c-1.3,3.5-1.5,6.7-0.7,9.2c0.8,2.6,2.6,4.9,5.4,6.9
			c2.8,2,7.4,4.1,13.8,6.2c7,2.3,11.3,3.9,12.8,4.7c1.6,0.7,2.6,1.5,3.2,2.2c0.6,0.7,0.7,1.6,0.3,2.6c-0.6,1.6-2.1,2.9-4.5,3.9
			c-4.1,1.7-35.5,0.6-42.7,0.6l-17.7,16.3l43.9,0.5c8.7,0.1,16.7-1,23.8-2.9c7.2-1.9,13.1-4.6,17.8-8.1c4.7-3.5,7.8-7.4,9.4-11.9
			c1.8-4.9,1.4-8.9-1.1-12.1c-2.5-3.2-7.9-6.2-16.4-9c-8.8-3-14-5-15.8-6.1c-1.8-1.1-2.5-2.4-2-3.8c0.5-1.3,1.7-2.4,3.8-3.3
			c2.1-0.9,5-1.3,8.9-1.3c7.4,0,15.7,1.6,24.8,4.6l14.5-15c-10.5-3.5-21.4-5.2-32.7-5.2C572.6,532.9,561.8,534.8,553.2,538.4z"/>
		<linearGradient id="SVGID_24_" gradientUnits="userSpaceOnUse" x1="-50.4025" y1="314.5678" x2="385.9672" y2="503.96">
			<stop  offset="0" style="stop-color:#A678B4"/>
			<stop  offset="0.4892" style="stop-color:#F0535B"/>
			<stop  offset="1" style="stop-color:#2B378B"/>
		</linearGradient>
		<polygon class="st23" points="366.3,390 322.7,390 256.9,455.2 279.3,390 233.5,390 195.5,501.1 188,523.5 194.4,523.5 
			233.6,523.5 237.7,511.6 261.9,488.7 266,523.5 318.2,523.5 306.6,447.7 		"/>
		<linearGradient id="SVGID_25_" gradientUnits="userSpaceOnUse" x1="-81.0019" y1="385.0706" x2="355.3677" y2="574.4627">
			<stop  offset="0" style="stop-color:#A678B4"/>
			<stop  offset="0.4892" style="stop-color:#F0535B"/>
			<stop  offset="1" style="stop-color:#2B378B"/>
		</linearGradient>
		<polygon class="st24" points="127.5,510.4 136.3,484.6 193.8,484.6 205.5,449.5 148.3,449.5 156.2,426.5 212.5,426.5 224.9,390 
			132.8,390 121,390 21.4,390 8.4,427.9 41.1,427.9 0,548.1 45.5,548.1 48.4,541 87.1,427.9 108,427.9 75.3,523.5 180.8,523.5 
			185.2,510.4 		"/>
	</g>
</g>
</svg>
