<svg xmlns="http://www.w3.org/2000/svg" role="img" viewBox="-10.22 -10.22 1051.44 351.44"><defs><style>.cls-1,.cls-13{fill:#d33833}.cls-1,.cls-10,.cls-11,.cls-14,.cls-15,.cls-16,.cls-17,.cls-4,.cls-5,.cls-7,.cls-8{fill-rule:evenodd}.cls-14{fill:#ef3d3a}.cls-15{fill:#231f20}.cls-4{fill:#f0d6b7}.cls-5{fill:#335061}.cls-7{fill:#dcd9d8}.cls-8,.cls-9{fill:#f7e4cd}.cls-10{fill:#49728b}.cls-11,.cls-12{fill:#fff}.cls-16{fill:#81b0c4}.cls-17{fill:#1d1919}.cls-18{isolation:isolate}</style></defs><g id="g10"><g id="g3393"><path d="M232.148 160.275c0 61.786-48.97 111.874-109.375 111.874-60.406 0-109.375-50.088-109.375-111.874 0-61.787 48.97-111.876 109.375-111.876 60.406 0 109.375 50.089 109.375 111.876" class="cls-1" id="path22"/><path fill="#ef3d3a" d="M17.855 187.983s-7.918-116.667 99.583-120l-7.5-12.5-58.333 19.583L34.94 94.233 20.354 122.15l-8.334 32.5 2.5 21.666" id="path24"/><path fill="#231f20" d="M47.86 83.956a109.421 109.421 0 0 0-31.065 76.737 109.41 109.41 0 0 0 31.065 76.73 104.408 104.408 0 0 0 74.911 31.745 104.406 104.406 0 0 0 74.912-31.746 109.417 109.417 0 0 0 31.066-76.73 109.428 109.428 0 0 0-31.066-76.736 104.43 104.43 0 0 0-74.912-31.743 104.433 104.433 0 0 0-74.91 31.743zm-4.857 158.215A116.222 116.222 0 0 1 10 160.693 116.224 116.224 0 0 1 43.003 79.21a111.217 111.217 0 0 1 79.768-33.79 111.21 111.21 0 0 1 79.768 33.79 116.211 116.211 0 0 1 33.004 81.483 116.204 116.204 0 0 1-33.004 81.478 111.23 111.23 0 0 1-79.768 33.792 111.237 111.237 0 0 1-79.768-33.792" id="path26"/><path d="M168.814 160.895l-16.668 2.5-22.5 2.5-14.584.416-14.166-.416-10.834-3.334-9.583-10.416-7.5-21.25-1.667-4.584-10-3.332-5.833-9.584-4.167-13.75 4.584-12.084 10.833-3.75 8.75 4.168 4.167 9.166 5-.834 1.666-2.082-1.666-9.584-.417-12.084 2.5-16.666-.098-9.52 7.598-12.146 13.333-9.584 23.334-10 25.833 3.75 22.5 16.25 10.417 16.666 6.666 12.084 1.667 30-5 25.834-9.167 22.916-8.75 12.084" class="cls-4" id="path28"/><path d="M154.646 232.978l-59.584 2.5v10l5 35-2.5 2.917-41.666-14.167-2.917-5-4.167-47.083-9.582-28.334-2.084-6.666 33.332-22.916 10.418-4.168 9.166 11.25 7.917 7.084 9.167 2.916 4.166 1.25 5 21.667 3.75 4.583 9.584-3.333-6.668 12.917 36.25 17.083-4.582 2.5" class="cls-5" id="path30"/><path fill="#6d6b6d" fill-rule="evenodd" d="M55.896 87.561l10.832-3.75 8.75 4.168 4.168 9.166 5-.834 1.25-5-2.5-9.582 2.5-22.918-2.084-12.5 7.5-8.75 16.25-12.916-4.583-6.25-22.917 11.25-9.584 7.5-5.416 11.666-8.334 11.25-2.5 13.334 1.668 14.166" id="path32"/><path d="M72.978 48.395s6.25-15.416 31.25-22.916 1.25-5.418 1.25-5.418L78.397 30.48 67.978 40.895l-4.582 8.334 9.582-.834" class="cls-7" id="path34"/><path d="M60.478 84.645s-8.75-29.167 24.584-33.334l-1.25-5-22.916 5.418-6.668 21.666 1.668 14.166 4.582-2.916" class="cls-7" id="path36"/><path d="M73.812 123.395l5.456-5.286a3.513 3.513 0 0 1 2.878 3.202c.416 2.918 1.666 29.168 19.582 43.335 1.635 1.293-13.332-2.085-13.332-2.085L75.062 141.73" class="cls-8" id="path38"/><path d="M150.481 115.479s.971-12.63 4.373-11.659a4.682 4.682 0 0 1 3.401 4.373s-8.26 5.343-7.774 7.286" class="cls-8" id="path40"/><path d="M185.063 69.229s-6.868 1.45-7.5 7.5c-.633 6.051 7.5 1.25 8.75.834" class="cls-9" id="path42"/><path d="M134.646 69.646s-9.168 1.25-9.168 7.083c0 5.834 10.418 5.417 13.334 2.917" class="cls-9" id="path44"/><path d="M77.978 96.729s-15.833-9.584-17.5-.416c-1.666 9.166-5.417 15.833 2.5 25.416l-5.416-1.666-5-12.917-1.666-12.5 9.582-10 10.834.833 6.25 5 .416 6.25" class="cls-8" id="path46"/><path d="M85.478 70.479s7.084-36.666 42.918-43.75c29.501-5.831 44.999 1.25 50.833 7.916 0 0-26.25-31.249-51.25-21.666-25 9.584-43.333 27.084-42.917 38.332.71 19.16.416 19.168.416 19.168" class="cls-8" id="path48"/><path d="M182.146 38.811s-12.082-.416-12.5 10.418a8.283 8.283 0 0 0 .833 3.332s9.585-10.833 15.417-5" class="cls-8" id="path50"/><path d="M129.236 53.69s-2.08-16.629-16.257-6.961c-9.167 6.25-8.333 15-6.667 16.666 1.667 1.668 1.213 5.024 2.482 2.72 1.268-2.304.85-9.804 5.435-11.886 4.583-2.084 12.097-4.411 15.007-.539" class="cls-8" id="path52"/><path d="M90.062 166.311l-39.166 17.5s16.25 64.584 7.916 84.584l-5.833-2.082-.417-24.584-10.832-46.666-4.584-12.918 40.833-27.499 12.083 11.665" class="cls-10" id="path54"/><path d="M94.09 202.033l5.556 6.78v25h-6.668s-.832-17.5-.832-19.584c0-2.084.833-9.584.833-9.584" class="cls-10" id="path56"/><path d="M94.228 237.563l-18.75.832 5.418 3.75 13.332 2.084" class="cls-10" id="path58"/><path d="M158.396 233.395l15.417-.416 3.75 38.334-15.834 2.082-3.333-40" class="cls-5" id="path60"/><path d="M162.563 233.395l23.333-1.25s9.583-24.166 9.583-25.416 8.334-35 8.334-35l-18.75-19.583-3.75-3.333-10 10v38.75l-8.75 35.832" class="cls-5" id="path62"/><path d="M172.979 230.479l-14.583 2.916 2.083 11.668c5.416 2.5 14.583-4.168 14.583-4.168" class="cls-10" id="path64"/><path d="M173.396 157.563l29.166 21.666.834-10-22.084-20.416-7.916 8.75" class="cls-10" id="path66"/><path d="M108.689 315.483l-8.627-35.005-4.29-25.829-.71-19.171 39.044-2.079 24.29-.004-2.208 43.754 3.75 33.75-.417 6.25-31.665 2.5-19.167-4.166" class="cls-11" id="path68"/><path d="M152.979 232.979s-2.083 43.334 4.167 74.166a79.6 79.6 0 0 1-30.834 10l35-1.25 4.167-2.5-5-68.332-1.25-14.585" class="cls-7" id="path70"/><path d="M178.273 267.983l16.25-4.584 30.832-1.666 4.584-14.167-8.334-24.583-9.582-1.25-13.334 4.166-12.793 6.246-6.791-1.246-5.293 2.08" class="cls-11" id="path72"/><path d="M177.979 259.645s10.832-4.999 12.5-4.582l-4.583-22.918 5.416-2.082s3.75 21.666 3.75 24.166c0 0 23.333 1.25 25.417 1.25 0 0 5-9.584 3.75-19.584l4.583 13.334.417 7.5-6.667 10-7.5 1.666-12.5-.416-4.166-5.416-14.584 2.082-4.583 1.668" class="cls-7" id="path74"/><path d="M161.605 230.066l-9.166-23.333-9.584-13.75s2.083-5.834 5-5.834h9.584l9.166 3.334-.833 15.416-4.167 24.167" class="cls-12" id="path76"/><path d="M163.396 222.145s-11.667-22.499-11.667-25.832c0 0 2.082-5 5-3.75s9.167 4.582 9.167 4.582v-7.916l-14.167-2.918-9.583 1.25 16.25 38.334 3.333.418" class="cls-7" id="path78"/><path d="M112.439 167.15l-11.543-1.255-10.834-3.334v3.75l5.293 5.838 16.667 7.5" class="cls-12" id="path80"/><path d="M93.814 168.399s12.917 5.417 17.084 4.167l.414 4.995-11.665-2.495-7.084-5 1.25-1.667" class="cls-7" id="path82"/><path d="M178.227 188.568a79.17 79.17 0 0 1-19.05-2.625c.38-2.293-.33-4.543.24-6.194 1.56-1.123 4.172-1.105 6.528-1.369a11.357 11.357 0 0 0-7.251-.819c-.055-1.59-.769-2.577-1.202-3.822 3.975-1.419 13.36-10.72 18.638-7.64 2.515 1.465 3.584 9.832 3.779 13.901.162 3.375-.306 6.78-1.682 8.568" class="cls-1" id="path84"/><path d="M178.708 189.582l-.51-.014a80.476 80.476 0 0 1-19.292-2.663l-.861-.243.146-.883a13.215 13.215 0 0 0 .048-2.906 8.966 8.966 0 0 1 .234-3.45l.103-.3.257-.185a5.285 5.285 0 0 1 1.037-.575 8 8 0 0 0-.937.17l-1.196.294-.043-1.231a6.067 6.067 0 0 0-.677-2.381c-.166-.374-.33-.749-.47-1.148l-.324-.937.934-.333a27.605 27.605 0 0 0 4.648-2.808c4.73-3.213 10.615-7.213 14.829-4.754 3.568 2.079 4.212 13.43 4.274 14.717.092 1.916.093 6.65-1.888 9.225zm-18.44-4.378a79.332 79.332 0 0 0 17.441 2.347c.91-1.536 1.356-4.28 1.2-7.503-.264-5.527-1.595-12.102-3.283-13.085-3.126-1.825-8.657 1.936-12.696 4.68a42.611 42.611 0 0 1-4.148 2.618l.064.145a10.038 10.038 0 0 1 .705 1.982 12.518 12.518 0 0 1 6.835 1.095l3.074 1.51-3.404.381a60.01 60.01 0 0 1-1.442.137 11.827 11.827 0 0 0-4.337.875 9.555 9.555 0 0 0-.04 2.373 19.367 19.367 0 0 1 .031 2.445z" class="cls-13" id="path86"/><path d="M144.419 177.01c-.019.535-.041 1.074-.063 1.614-2.207 1.45-5.771 1.432-8.194 2.651a21.29 21.29 0 0 1 8.815 2.229q-.08 2.021-.157 4.041c-4.046 2.77-7.742 6.895-12.507 9.493-2.252 1.228-10.157 4.39-12.554 3.83-1.356-.314-1.478-1.997-2.02-3.583-1.154-3.396-3.813-8.802-4.045-13.915-.295-6.457-.947-17.28 6.012-15.95a62.168 62.168 0 0 1 16.49 6.033c2.657 1.452 4.193 3.247 8.223 3.557" class="cls-1" id="path88"/><path d="M120.398 201.928a3.85 3.85 0 0 1-.866-.086c-1.638-.38-2.067-1.908-2.446-3.258-.09-.32-.182-.65-.293-.975-.27-.795-.624-1.7-1.01-2.687-1.293-3.316-2.904-7.442-3.088-11.507l-.02-.42c-.247-5.354-.586-12.686 2.695-15.53a5.116 5.116 0 0 1 4.523-1.027 63.209 63.209 0 0 1 16.783 6.136c.714.392 1.341.8 1.947 1.194a11.111 11.111 0 0 0 5.873 2.245l.957.073-.118 3.092-.43.282a12.278 12.278 0 0 1-4.014 1.477 21.923 21.923 0 0 1 4.533 1.673l.578.288-.203 5.188-.414.284a59.296 59.296 0 0 0-4.747 3.77 47.255 47.255 0 0 1-7.846 5.775c-1.69.922-8.928 4.013-12.394 4.013zm-1.805-33.62a2.802 2.802 0 0 0-1.913.669c-2.549 2.209-2.222 9.26-2.007 13.926l.02.421c.17 3.735 1.713 7.692 2.954 10.87.397 1.017.76 1.95 1.039 2.77.123.36.226.725.326 1.08.331 1.18.535 1.75.973 1.85 1.846.429 9.172-2.275 11.85-3.735a45.729 45.729 0 0 0 7.508-5.543c1.525-1.295 2.972-2.525 4.497-3.607l.113-2.888a20.239 20.239 0 0 0-7.834-1.846l-3.834-.168 3.428-1.725a17.483 17.483 0 0 1 4.033-1.238 15.331 15.331 0 0 0 3.633-1.105l.005-.137a13.396 13.396 0 0 1-5.851-2.457 28.135 28.135 0 0 0-1.817-1.116 61.065 61.065 0 0 0-16.198-5.926 4.968 4.968 0 0 0-.925-.095z" class="cls-13" id="path90"/><path d="M148.438 184.715c-.618-3.517-1.332-4.521-1.055-7.59 9.38-6.255 11.142 10.744 1.054 7.59" class="cls-1" id="path92"/><path d="M150.81 186.116a8.946 8.946 0 0 1-2.67-.447l-.582-.182-.105-.6a42.633 42.633 0 0 0-.574-2.69 13.877 13.877 0 0 1-.493-5.162l.043-.476.399-.266c4.21-2.806 6.753-1.14 7.649-.296a6.43 6.43 0 0 1 .954 7.574 5.142 5.142 0 0 1-4.621 2.545zm-1.502-2.197c2.043.49 3.592.016 4.397-1.358a4.458 4.458 0 0 0-.6-5.109c-1.105-1.04-2.783-.95-4.763.247a12.18 12.18 0 0 0 .482 4.033c.15.63.318 1.329.484 2.187z" class="cls-13" id="path94"/><path d="M162.021 187.566s-2.917-4.167-.833-5.417 4.167.001 5.417-2.083 0-3.333.416-5.833 2.501-2.918 4.584-3.334 7.918-1.25 8.75.834l-2.5-7.5-5-1.667-15.834 9.167-.834 4.583v9.167" class="cls-14" id="path96"/><path d="M118.272 201.316q-.751-9.753-1.62-19.492c-.882-9.7 2.33-8.008 10.738-8.008 1.284 0 7.907 1.532 8.381 2.5 2.273 4.642-3.8 3.61 2.618 7.11 5.417 2.954 14.987-1.793 12.799-8.36-1.225-1.46-6.383-.455-8.232-1.413l-9.765-5.063c-4.142-2.149-13.713-5.281-18.129-2.279-11.188 7.61.706 26.62 4.697 34.558" class="cls-14" id="path98"/><path d="M129.236 53.69c-11.357-2.645-17 4.753-20.442 12.425-3.074-.745-1.85-4.925-1.074-7.055 2.033-5.59 10.224-13.031 16.918-12.022 2.88.433 6.778 3.067 4.598 6.652" class="cls-15" id="path100"/><path d="M184.569 66.623l.539.02c2.566 5.332 4.787 10.98 8.024 15.686-2.168 5.051-16.422 9.521-16.202.451 3.082-1.347 8.404-.275 11.136-1.996-1.58-4.336-3.86-8.028-3.497-14.161" class="cls-15" id="path102"/><path d="M135.05 66.761c2.435 4.464 3.228 9.154 6.689 12.528 1.559 1.519 4.59 3.37 3.087 7.594-.351.996-2.917 3.217-4.398 3.653-5.412 1.598-18.02.33-13.75-6.416 4.474.209 10.49 2.906 13.835-.342-2.57-4.107-7.149-12.23-5.463-17.017" class="cls-15" id="path104"/><path d="M182.537 112.129c-8.147 5.234-17.232 10.925-30.582 9.605a9.054 9.054 0 0 1-1.169-11.644c1.443 2.48.536 7.041 4.556 7.728 7.575 1.296 16.392-4.634 21.84-6.707 3.38-5.696-.29-7.79-3.335-11.457-6.23-7.511-14.59-16.821-14.286-28.066 2.519-1.827 2.736 2.787 3.098 3.627 3.253 7.615 11.442 17.354 17.418 23.871 1.468 1.605 3.884 3.145 4.153 4.207.775 3.086-2.016 6.783-1.693 8.836" class="cls-15" id="path106"/><path d="M75.127 106.619c-2.554-1.458-3.162-7.878-6.16-8.06-4.284-.26-3.503 8.329-3.486 13.351-2.95-2.677-3.468-10.921-1.301-15.155-2.47-1.212-3.572 1.338-4.942 2.236 1.76-12.787 18.706-5.93 15.889 7.628" class="cls-15" id="path108"/><path d="M187.725 117.454c-3.792 7.219-9.158 15.169-20.286 15.4-.226-2.331-.4-5.879.012-7.283 8.508-.817 13.76-5.147 20.274-8.117" class="cls-15" id="path110"/><path d="M134.408 122.134c7.098 3.732 20.143 4.134 29.79 3.851a33.78 33.78 0 0 1 .526 7.303c-12.401.618-27.064-2.45-30.316-11.154" class="cls-15" id="path112"/><path d="M133.06 129.094c4.908 12.324 21.778 10.905 36.004 10.565a7.61 7.61 0 0 1-3.671 4.174c-4.56 1.855-17.133 3.262-23.462-.1-4.013-2.133-6.592-6.954-8.791-9.78-1.062-1.365-6.35-4.852-.08-4.86" class="cls-15" id="path114"/><path d="M181.945 197.072c-5.76 9.866-11.271 19.998-18.105 28.7 2.865-8.424 4.091-22.523 4.524-33.272 5.994-2.805 11.126.631 13.581 4.572" class="cls-16" id="path116"/><path d="M212.94 232.529c-6.449 1.291-10.98 7.559-17.271 7.156 3.457-4.874 9.516-6.929 17.271-7.156" class="cls-15" id="path118"/><path d="M215.785 242.621c-5.256.555-11.43 1.406-16.761.968 2.524-3.855 12.247-2.525 16.761-.968" class="cls-15" id="path120"/><path d="M217.606 251.322c-5.907.128-13.25.01-18.865-.46 3.322-3.568 15.034-1.324 18.865.46" class="cls-15" id="path122"/><path d="M170.83 275.134c.847 7.419 3.789 14.936 3.42 23.061-3.266 1.101-5.143 2.065-9.519 2.059-.309-6.905-1.232-17.461-.956-24.044 2.153.143 5.326-1.538 7.055-1.076" class="cls-7" id="path124"/><path d="M161.306 165.794c-2.966 1.936-5.492 4.354-8.341 6.421-6.317.313-9.765-.437-14.406-4.065.076-.291.542-.161.56-.519 6.762 3.014 15.359-1.227 22.187-1.837" class="cls-4" id="path126"/><path d="M125.806 211.891c1.858-8.051 9.138-12.22 15.749-16.655 6.824 8.66 10.974 19.798 15.544 30.545-10.798-3.254-21.83-8.536-31.293-13.89" class="cls-16" id="path128"/><path d="M163.775 276.21c-.276 6.583.647 17.139.956 24.044 4.376.006 6.253-.958 9.519-2.059.369-8.125-2.573-15.642-3.42-23.061-1.729-.462-4.902 1.219-7.055 1.076zm-68.143-37.436c2.886 26.529 7.066 48.83 14.732 72.321 17.014 5.166 37.525 5.617 52.564.955-2.762-13.259-1.555-29.4-3.17-43.55-1.215-10.635-.595-21.335-2.263-32.185-18.222-3.79-43.98-.886-61.863 2.46zm66.172-2.292c-.154 11.393.51 22.632 1.38 34.04 4.375-.657 7.344-1.096 11.408-1.987-1.32-10.982-1.157-23.34-3.846-33.055-3.107.03-5.844-.036-8.942 1.002zm22.194-1.837c-2.077-.476-4.494-.018-6.478.02.932 9.288 3.195 19.536 3.991 29.285 3.121.097 4.789-1.375 7.356-1.87.138-8.557-.747-20.347-4.87-27.435zm33.605 30.704c6.506-1.58 10.597-9.549 8.777-17.733-1.221-5.5-3.396-15.856-5.724-19.375-1.72-2.602-6.383-6.01-10.107-3.625-6.058 3.88-16.729 5.005-21.146 9.7 2.215 7.376 2.902 17.505 3.816 26.85 7.567.472 16.879-2.082 23.172.628-4.394 1.423-10.095 1.435-13.891 3.509 3.102 1.498 10.366 1.196 15.102.046zm-60.504-39.568c-4.57-10.747-8.72-21.884-15.544-30.545-6.611 4.434-13.891 8.604-15.75 16.655 9.464 5.354 20.496 10.635 31.294 13.89zm11.265-33.28c-.433 10.748-1.659 24.847-4.524 33.27 6.834-8.701 12.345-18.833 18.105-28.699-2.455-3.94-7.588-7.377-13.581-4.572zm-12.77-4.538c-2.589-.28-4.787 2.976-8.153 1.568-.771.853-1.472 1.777-2.259 2.61 7.435 8.96 10.814 21.672 16.557 32.201 3.081-10.114 2.726-21.196 3.405-32.236-4.234.27-6.583-3.828-9.55-4.143zm-8.212-10.838c-.276 3.069.438 4.073 1.055 7.59 10.088 3.154 8.327-13.845-1.054-7.59zm-11.186-3.672a62.168 62.168 0 0 0-16.49-6.033c-6.96-1.331-6.308 9.493-6.012 15.95.232 5.113 2.89 10.519 4.045 13.915.542 1.586.664 3.269 2.02 3.584 2.397.558 10.302-2.603 12.554-3.831 4.764-2.598 8.46-6.723 12.507-9.493l.157-4.041a21.29 21.29 0 0 0-8.815-2.229c2.423-1.219 5.987-1.201 8.194-2.651.021-.54.044-1.079.063-1.614-4.03-.31-5.567-2.105-8.223-3.557zM94.68 165.91c-3.607 3.663 10.118 8.655 14.488 8.924-.024-2.317 1.321-4.502 1.05-6.165-5.19-.911-12.011-.31-15.538-2.759zm44.44 1.72c-.018.358-.484.228-.56.52 4.641 3.627 8.089 4.377 14.406 4.064 2.849-2.067 5.375-4.485 8.341-6.421-6.828.61-15.425 4.851-22.187 1.837zM179.91 180c-.195-4.07-1.264-12.437-3.779-13.902-5.279-3.081-14.662 6.221-18.637 7.64.432 1.245 1.146 2.231 1.2 3.822a11.357 11.357 0 0 1 7.252.82c-2.356.263-4.969.245-6.527 1.368-.572 1.651.14 3.901-.24 6.194a79.171 79.171 0 0 0 19.05 2.625c1.375-1.788 1.843-5.193 1.68-8.568zm-91.303-10.547c-1.133-.808-8.796-10.779-9.846-10.365-13.867 5.469-26.834 14.925-38.42 23.869 11.047 23.705 15.506 52.747 16.294 80.74 12.655 5.918 23.771 14.451 40.944 15.342-1.987-14.06-3.801-26.604-4.93-39.841-4.314-1.819-10.505.082-14.543-.564-.034-4.866 6.167-2.131 6.684-5.403.39-2.476-3.412-2.663-2.174-6.56 3.156 1.147 4.814 3.682 8.18 4.633 3.077-6.73-.042-18.637.401-24.262.084-1.057.528-5.852 2.893-5.01 2.094.744-.12 12.752.11 18.076.21 4.905-.592 9.65 1.394 12.73a474.19 474.19 0 0 1 51.412-4.211c-3.95-1.695-8.643-3.3-13.787-6.2-2.79-1.571-11.58-4.843-12.386-7.492-1.284-4.221 3.37-6.47 4.165-10.088-8.376 4.568-10.01-4.38-11.992-10.718a83.307 83.307 0 0 1-3.258-13.341c-7.215-3.44-14.93-6.924-21.141-11.335zm83.974-9.159c11.554-5.602 13.636 20.939 9.107 29.489.7 2.55 3.108 3.526 4.09 5.819-6.447 11.55-13.608 22.33-20.187 33.745 4.894-3.047 11.884-.545 17.643-2.825 2.105-.833 3.628-5.652 5.222-9.507 4.384-10.606 8.986-23.977 11.034-34.098.462-2.307 1.722-7.332 1.44-9.384-.504-3.675-5.49-6.4-8.027-8.673-4.672-4.197-7.615-7.89-12.488-11.816-1.977 2.918-6.218 4.878-7.834 7.25zM62.183 57.835c-5.506 6.058-4.353 17.408-3.687 25.483 9.951-6.26 23.16.495 23.035 11.142 4.75-.126 1.775-5.934.915-9.675-2.808-12.22 4.732-25.496.342-36.671a30.198 30.198 0 0 0-20.605 9.721zm39.392-35.157C89.11 26.21 73.138 35.266 68.017 46.463c3.965-.577 6.718-2.577 10.63-2.824 1.479-.096 3.416.62 5.115.197 3.387-.84 6.244-8.432 8.799-11.257 2.49-2.759 5.483-3.938 7.532-6.453 1.316-.635 3.262-.59 3.336-2.567-.57-.61-1.17-1.075-1.854-.881zM166.454 26c-12.936-7.299-34.833-12.789-48.594-5.929-11.103 5.537-26.112 14.697-31.23 26.304 4.781 11.201-1.415 21.465-1.81 32.838-.21 6.05 2.849 11.333 3.083 17.92-1.636 2.7-6.633 3.032-10.093 2.847-1.164-5.827-3.203-12.377-9.204-13.035-8.491-.929-14.7 6.099-15.085 13.443-.457 8.636 6.633 22.95 16.682 21.956 3.882-.384 4.835-4.275 9.065-4.235 2.292 4.574-3.536 6.01-4.136 9.281a26.277 26.277 0 0 0 .855 5.696c1.826 7.542 5.894 17.302 9.9 23.043 5.082 7.282 15.069 8.38 25.812 9.094 1.92-4.134 8.988-3.794 13.594-2.713-5.52-2.186-10.652-7.486-14.905-12.177-4.885-5.383-9.834-11.157-10.084-18.192 9.232 12.808 16.86 23.993 33.646 29.627 12.703 4.26 27.538-1.953 37.298-8.807 4.05-2.848 6.467-7.368 9.346-11.506 10.771-15.494 15.797-37.609 14.692-59.044-.455-8.84-.435-17.65-3.401-23.597-3.1-6.219-13.585-11.783-19.722-6.158-1.138-6.047 5.103-9.787 12.435-7.61-5.228-6.747-10.714-14.853-18.144-19.046zm24.101 199.46c10.109-5.026 28.996-13.527 35.334.018a114.847 114.847 0 0 1 6.294 18.586c1.71 7.271-1.855 22.554-9.33 24.994-6.6 2.155-14.303 2.023-22.254.426a12.124 12.124 0 0 1-2.708-3.551c-5.677-.22-10.993.305-15.478 2.638.425 4.2-2.415 4.873-5.078 5.738-1.974 7.826 3.949 18.046 2.531 25.182-1.011 5.084-7.266 5.87-11.863 6.822a39.058 39.058 0 0 0 .515 7.573c-1.052 3.874-5.767 6.079-10.234 6.619-14.699 1.768-37.017 2.562-51.155-2.522-3.945-9.678-7.053-21.448-10.34-32.498-13.788 1.473-24.94-5.95-35.454-10.812-3.64-1.688-8.676-2.618-10.036-5.515-1.318-2.805-.779-8.182-1.106-13.26-.833-12.972-1.545-25.483-4.97-38.764-1.539-5.96-4.22-11.219-6.09-16.961-1.728-5.323-4.748-11.9-5.536-17.208-1.168-7.866 6.24-8.304 10.976-11.712 7.322-5.272 13.069-8.187 20.998-12.944 2.349-1.409 9.432-4.975 10.237-6.618 1.602-3.256-2.749-7.847-3.912-10.4a31.282 31.282 0 0 1-3.063-11.447 22.085 22.085 0 0 1-14.74-9.474c-5.039-7.387-8.533-21.055-4.174-31.451.342-.819 2.047-2.429 2.299-3.686.496-2.477-.934-5.77-1.023-8.403-.458-13.512 2.287-25.155 11.383-29.23 3.693-14.711 16.91-19.602 29.363-26.914 4.655-2.732 9.786-4.478 15.085-6.428 19.01-6.997 48.178-5.68 63.955 6.253 6.69 5.06 17.384 15.744 21.209 23.48 10.102 20.42 9.385 54.55 2.319 79.39a79.913 79.913 0 0 1-4.252 12.244c-1.34 2.798-5.51 8.395-5.003 10.865.521 2.554 9.505 9.375 11.431 11.233 3.469 3.346 10.059 7.787 10.592 12.01.574 4.493-1.98 10.64-3.273 14.977-4.325 14.471-8.545 27.848-13.449 40.75" class="cls-15" id="path130"/><path d="M123.114 125.286c.548-.73 3.563-1.838 7.782.193 0 0-5 .834-4.584 9.17l-2.084-.418s-2.153-7.558-1.114-8.945" class="cls-8" id="path132"/><path d="M159.646 196.938a2.292 2.292 0 1 1-2.292-2.293 2.292 2.292 0 0 1 2.292 2.293" class="cls-17" id="path134"/><path d="M161.938 207.563a2.292 2.292 0 1 1-2.293-2.293 2.292 2.292 0 0 1 2.292 2.293" class="cls-17" id="path136"/></g><g id="text5675" class="cls-18"><path d="M402.112 114.351q-3.516.441-5.976.88-2.462.442-5.537 1.231-3.605.968-4.615 3.43a14.719 14.719 0 0 0-1.01 5.63v68.78a39.515 39.515 0 0 1-3.824 17.416 37.974 37.974 0 0 1-10.503 13.28 48.502 48.502 0 0 1-15.117 7.96 58.036 58.036 0 0 1-17.842 2.682q-16.436 0-26.499-7.91-10.064-7.91-10.063-21.71 0-8.173 4.614-13.534 4.615-5.359 12.7-5.362 7.647 0 12.173 4.483a14.971 14.971 0 0 1 4.527 11.074 16.137 16.137 0 0 1-3.911 10.416 60.517 60.517 0 0 1-8.921 8.832v1.142a6.54 6.54 0 0 0 3.437 2.989 12.589 12.589 0 0 0 5.377 1.23q10.575 0 16.612-7.563 6.038-7.565 6.038-22.87v-70.455a12.62 12.62 0 0 0-.972-5.278q-.972-2.11-4.68-3.694a33.977 33.977 0 0 0-6.402-1.935q-3.753-.79-6.227-1.144v-6.855h66.621zm104.238 96.855a53.505 53.505 0 0 1-7.426 9.45 45.08 45.08 0 0 1-9.888 7.601 54.162 54.162 0 0 1-11.909 5.055 50.694 50.694 0 0 1-13.843 1.713q-13.008 0-22.456-3.692a44.011 44.011 0 0 1-15.6-9.931 39.73 39.73 0 0 1-9.185-14.721 54.314 54.314 0 0 1-3.032-18.414 46.212 46.212 0 0 1 12.656-31.816 44.832 44.832 0 0 1 15.073-10.108 51.523 51.523 0 0 1 20.347-3.867q12.304 0 20.215 2.989a35.794 35.794 0 0 1 13.095 8.261 29.977 29.977 0 0 1 7.295 11.822 44.624 44.624 0 0 1 2.286 14.281v5.713h-59.415q0 18.02 6.944 27.422 6.942 9.407 22.06 9.404a25.631 25.631 0 0 0 14.854-4.525 42.382 42.382 0 0 0 11.25-11.47zm-33.574-33.398q0-5.274-.527-10.81a36.005 36.005 0 0 0-1.846-9.053 13.93 13.93 0 0 0-4.087-6.24 10.04 10.04 0 0 0-6.547-2.11q-6.77 0-10.811 6.856-4.044 6.855-4.395 21.708zm158.028 54.404H577.98v-6.416q1.669-.174 4.043-.44a11.08 11.08 0 0 0 3.604-.878 5.589 5.589 0 0 0 2.637-2.813 14.452 14.452 0 0 0 .79-5.449v-41.133q0-8.965-3.305-13.49-3.305-4.526-9.738-4.527a19.9 19.9 0 0 0-6.566 1.055 24.508 24.508 0 0 0-5.948 3.076 20.238 20.238 0 0 0-4.099 3.603q-1.542 1.846-2.6 3.252v47.197a13.149 13.149 0 0 0 .88 5.143 6.13 6.13 0 0 0 2.9 3.119 16.718 16.718 0 0 0 3.516 1.406 27.278 27.278 0 0 0 4.13.88v6.415h-53.437v-6.416q2.196-.174 4.439-.482a21.463 21.463 0 0 0 3.823-.836 6.452 6.452 0 0 0 3.867-2.989 11.396 11.396 0 0 0 1.055-5.273v-51.152a11.291 11.291 0 0 0-1.407-5.361 12.593 12.593 0 0 0-3.69-4.307 14.542 14.542 0 0 0-4-1.758 28.23 28.23 0 0 0-5.317-.966v-6.416l41.924-2.286 1.318 1.319v12.744h.351q2.46-2.196 5.977-5.274a57.512 57.512 0 0 1 6.504-5.01 31.588 31.588 0 0 1 8.525-3.603 41.112 41.112 0 0 1 11.25-1.494q14.325 0 21.49 8.13 7.163 8.13 7.163 21.577v43.066a11.67 11.67 0 0 0 .966 5.186 6.813 6.813 0 0 0 3.604 3.076 29.986 29.986 0 0 0 3.472 1.23 25.287 25.287 0 0 0 4.702.88zm120.937 0h-41.427q-7.64-13.412-13.962-22.748-6.323-9.335-11.944-17.314l-5.177 4.379v19.16a12.543 12.543 0 0 0 .923 5.185 5.86 5.86 0 0 0 3.56 2.989 22.48 22.48 0 0 0 3.691 1.23 26.308 26.308 0 0 0 4.219.703v6.416h-54.58v-6.416q2.213-.174 4.423-.482a24.22 24.22 0 0 0 3.893-.836 6.301 6.301 0 0 0 3.85-2.989 11.746 11.746 0 0 0 1.018-5.273v-97.998a15.91 15.91 0 0 0-1.275-6.02 9.794 9.794 0 0 0-3.735-4.702 15.788 15.788 0 0 0-5.01-1.758 43.475 43.475 0 0 0-6.064-.879v-6.416l43.766-2.285 1.321 1.406v90.699q6.496-5.8 14.615-13.445 8.12-7.645 13.037-12.656 2.9-2.987 3.208-4.525a14.74 14.74 0 0 0 .307-1.89q0-1.581-2.775-2.636a41.543 41.543 0 0 0-8.353-1.846v-6.24h44.649v6.065a92.154 92.154 0 0 0-13.383 4.614 79.42 79.42 0 0 0-10.047 5.757q-3.599 2.373-6.971 4.974-3.375 2.598-7.756 6.478 8.598 12.476 15.88 23.104 7.281 10.629 15.266 22.488a13.301 13.301 0 0 0 6.757 5.533 33.13 33.13 0 0 0 8.076 1.758zm56.514 0h-55.547v-6.416q2.284-.174 4.482-.44a15.58 15.58 0 0 0 3.78-.878 7.288 7.288 0 0 0 3.955-3.031 10.418 10.418 0 0 0 1.142-5.231v-51.152a10.263 10.263 0 0 0-1.406-5.405 11.66 11.66 0 0 0-3.515-3.735 18.703 18.703 0 0 0-4.79-2.022 31.293 31.293 0 0 0-5.845-1.23v-6.416l43.066-2.286 1.319 1.319v69.784a9.83 9.83 0 0 0 1.318 5.23 7.98 7.98 0 0 0 3.78 3.208 29.342 29.342 0 0 0 3.866 1.406 26.406 26.406 0 0 0 4.395.88zM795.423 112.33a14.864 14.864 0 0 1-5.142 11.382 18.221 18.221 0 0 1-24.433 0 15.217 15.217 0 0 1 0-22.808 18.153 18.153 0 0 1 24.477 0 15.062 15.062 0 0 1 5.098 11.426zm136.933 119.882h-52.822v-6.416q1.669-.174 4.043-.44a11.08 11.08 0 0 0 3.604-.878 5.589 5.589 0 0 0 2.636-2.813 14.451 14.451 0 0 0 .791-5.449v-41.133q0-8.965-3.305-13.49-3.305-4.526-9.739-4.527a19.9 19.9 0 0 0-6.565 1.055 24.508 24.508 0 0 0-5.948 3.076 20.237 20.237 0 0 0-4.099 3.603q-1.542 1.846-2.6 3.252v47.197a13.148 13.148 0 0 0 .88 5.143 6.13 6.13 0 0 0 2.9 3.119 16.718 16.718 0 0 0 3.515 1.406 27.279 27.279 0 0 0 4.131.88v6.415h-53.437v-6.416q2.196-.174 4.438-.482a21.463 21.463 0 0 0 3.824-.836 6.452 6.452 0 0 0 3.867-2.989 11.396 11.396 0 0 0 1.054-5.273v-51.152a11.29 11.29 0 0 0-1.406-5.361 12.593 12.593 0 0 0-3.691-4.307 14.543 14.543 0 0 0-4-1.758 28.23 28.23 0 0 0-5.317-.966v-6.416l41.924-2.286 1.319 1.319v12.744h.351q2.46-2.196 5.977-5.274a57.514 57.514 0 0 1 6.504-5.01 31.588 31.588 0 0 1 8.525-3.603 41.112 41.112 0 0 1 11.25-1.494q14.325 0 21.49 8.13 7.162 8.13 7.162 21.577v43.066a11.67 11.67 0 0 0 .967 5.186 6.813 6.813 0 0 0 3.604 3.076 29.984 29.984 0 0 0 3.471 1.23 25.287 25.287 0 0 0 4.702.88zm48.868 2.988a56.239 56.239 0 0 1-16.656-2.504 54.445 54.445 0 0 1-12.612-5.318l-2.637 5.977h-6.855l-1.143-32.784h6.416a43.535 43.535 0 0 0 4.395 8.922 49.13 49.13 0 0 0 7.031 8.92 39.73 39.73 0 0 0 9.448 6.68 24.594 24.594 0 0 0 11.382 2.725q7.997 0 11.91-3.12 3.909-3.12 3.91-9.625a9.251 9.251 0 0 0-1.757-5.8 15.051 15.051 0 0 0-4.834-3.955 44.885 44.885 0 0 0-7.515-2.989q-4.087-1.229-10.063-2.988a96.496 96.496 0 0 1-10.24-3.559 35 35 0 0 1-8.833-5.67 24.816 24.816 0 0 1-8.7-19.775q0-12.392 10.414-20.038 10.415-7.647 27.29-7.647a62.629 62.629 0 0 1 14.722 1.626 74.396 74.396 0 0 1 11.294 3.56l1.845-5.186h6.68l1.406 29.97h-6.152a36.343 36.343 0 0 0-10.547-15.776q-7.472-6.635-16.084-6.635-6.769 0-10.635 2.812a9.126 9.126 0 0 0-3.867 7.822q0 6.68 5.66 9.668a75.614 75.614 0 0 0 15.836 5.625q15.705 4.044 22.99 11.031 7.281 6.987 7.282 17.797 0 14.417-11.294 22.324-11.294 7.91-29.487 7.91z" class=""/></g></g></svg>