<?xml version="1.0" encoding="UTF-8"?>
<svg id="Layer_1" data-name="Layer 1" xmlns="http://www.w3.org/2000/svg" viewBox="0 0 705.23 234.29">
  <defs>
    <style>
      .cls-1 {
        isolation: isolate;
      }

      .cls-2 {
        fill: none;
        stroke: #000;
        stroke-miterlimit: 10;
        stroke-width: 3px;
      }

      .cls-3 {
        fill: #636363;
      }

      .cls-4 {
        fill: #3dff47;
      }
    </style>
  </defs>
  <g id="Layer_2" data-name="Layer 2">
    <path class="cls-4" d="m195.54,96.17c0,46.78-39.67,108.42-86.51,131.33-6.21,3-11.14,3.32-17.85-.14C50.4,206.36,4.45,142.36,4.45,96.17,4.45,45.53,47.23,4.48,100,4.48s95.54,41.01,95.54,91.69Z"/>
    <path d="m100.13,234.29c-3.86-.09-7.63-1.12-11-3-10.41-5.37-21.11-13.32-31.81-23.64-10.63-10.33-20.18-21.73-28.5-34-8.33-12.15-15.27-25.2-20.69-38.91C2.73,120.78,0,107.8,0,96.17c-.02-12.92,2.66-25.71,7.89-37.53,5.08-11.5,12.38-21.88,21.47-30.56,9.18-8.81,19.97-15.79,31.77-20.55,24.94-10.04,52.79-10.04,77.73,0,11.81,4.77,22.59,11.75,31.78,20.57,9.1,8.67,16.4,19.05,21.49,30.54,5.22,11.82,7.9,24.61,7.87,37.53,0,11.94-2.42,24.89-7.18,38.5-4.84,13.56-11.3,26.49-19.24,38.5-8.04,12.37-17.51,23.75-28.21,33.91-10.17,9.8-21.76,18.01-34.38,24.36-3.35,1.78-7.07,2.76-10.86,2.85Zm-.16-225.4C49.74,8.89,8.87,48.03,8.87,96.13c0,20.55,10,47,27.3,72.51,16.6,24.41,37.91,44.86,57,54.72,5.11,2.64,8.6,2.66,13.85.1,44.76-21.9,84-81.39,84-127.33S150.15,8.89,99.92,8.89h.05Z"/>
    <path d="m183.81,98.52s-9.81,58-45.38,64.16-33.17-32-14.54-44.63,59.92-19.53,59.92-19.53Z"/>
    <path class="cls-3" d="m129.72,160.17c.77-.07,1.54-.18,2.3-.34.76-.14,1.52-.31,2.26-.52,1.49-.4,2.95-.9,4.38-1.48,1.42-.59,2.81-1.26,4.16-2,1.34-.73,2.65-1.53,3.91-2.39,2.51-1.74,4.85-3.7,7-5.87.27-.26.53-.55.79-.83l.4-.41.2-.2.19-.22.77-.85c.13-.15.26-.28.38-.43l.37-.44.74-.88.71-.9.71-.91.67-.94,1.37-1.87.34-.46.33-.48.65-1,1.31-1.91,1.24-2,.63-1,.3-.49.3-.5,1.18-2c.2-.33.39-.67.57-1l.57-1,.57-1c.19-.34.36-.68.54-1l1.08-2.06,1-2.08c.18-.34.34-.7.5-1l.49-1.06c.33-.7.63-1.41.94-2.11,1.26-2.84,2.35-5.75,3.29-8.71-.55,3.08-1.36,6.11-2.41,9.06-.26.74-.5,1.48-.79,2.21l-.42,1.09c-.14.37-.28.74-.44,1.1l-.92,2.16c-.32.71-.65,1.42-1,2.13-.17.36-.33.72-.51,1.06l-.52,1.06-.53,1.05c-.18.35-.35.7-.55,1l-1.14,2.06-.29.51c-.09.18-.19.35-.29.51l-.64,1-1.23,2-1.3,1.94-.65,1-.33.49-.34.48-1.39,1.91-.69.95-.73.93c-.25.31-.49.63-.75.93l-.76.9-.39.45-.4.44-.79.87-.2.22-.21.21-.42.43-.84.83-.87.81-.44.4-.45.39c-.3.27-.6.53-.9.78l-.94.73c-.14.13-.3.26-.46.37l-.48.35c-.32.24-.63.48-1,.7l-1,.67c-.32.22-.66.42-1,.63l-.5.32-.53.29-.52.3-.26.15-.26.13-1.06.56-1.05.51c-1.43.67-2.91,1.25-4.41,1.74-1.5.48-3.04.85-4.59,1.11-1.5.3-3.02.44-4.55.42Z"/>
    <path d="m110.13,123.17v-.72c-.01-.23-.01-.46,0-.69.04-.46.12-.91.23-1.35.21-.87.53-1.72.94-2.52.82-1.59,1.9-3.03,3.19-4.26,1.27-1.23,2.67-2.31,4.18-3.23l.56-.35c.19-.12.38-.22.57-.33l.57-.32.58-.31c.78-.41,1.54-.83,2.33-1.21,3.12-1.56,6.31-2.97,9.56-4.24,1.63-.64,3.27-1.23,4.91-1.8s3.32-1.09,5-1.56c-1.66.5-3.31,1.07-5,1.67s-3.26,1.22-4.86,1.9c-3.22,1.33-6.37,2.81-9.45,4.43-.77.4-1.53.83-2.29,1.25l-.56.31-.46.33c-.19.11-.38.21-.56.33l-.54.35c-1.44.94-2.78,2.03-4,3.25-1.22,1.2-2.23,2.6-3,4.13-.36.76-.64,1.55-.82,2.37-.09.41-.15.82-.19,1.23v1.07s-.01.09,0,.13l-.89.14Z"/>
    <path d="m16.19,98.52s9.81,58,45.38,64.16c35.57,6.16,33.17-32,14.54-44.63s-59.92-19.53-59.92-19.53Z"/>
    <path class="cls-3" d="m70.29,160.17c-1.57.05-3.14-.06-4.68-.34-1.55-.26-3.09-.63-4.59-1.1-1.5-.48-2.97-1.06-4.4-1.72l-1.06-.52-1.06-.55-.26-.14-.26-.15-.53-.29-.52-.3-.5-.31-1-.64-1-.67c-.33-.21-.64-.46-1-.69l-.48-.36c-.16-.11-.31-.24-.46-.36l-.94-.74c-.3-.27-.6-.53-.9-.77l-.45-.39-.43-.41-.87-.8c-.29-.27-.57-.56-.85-.84l-.42-.42-.2-.21-.21-.22-.8-.88-.4-.43-.39-.45-.75-.92c-.27-.3-.49-.62-.74-.93l-.74-.93-.69-.95-1.38-1.91-.35-.48-.32-.48-.66-1-1.3-2-1.21-2-.61-1c-.11-.17-.2-.34-.3-.51l-.28-.51-1.15-2.06c-.19-.34-.36-.69-.55-1l-.47-1.06-.53-1.05c-.18-.35-.34-.71-.5-1.06-.34-.71-.67-1.42-1-2.13l-.92-2.17c-.16-.36-.29-.72-.43-1.09l-.44-1.06c-.29-.73-.53-1.47-.79-2.21-1.05-2.96-1.85-6-2.39-9.09.93,2.96,2.03,5.87,3.28,8.71.31.71.61,1.42.95,2.11l.48,1.06.5,1,1,2.09,1.08,2c.18.34.34.69.52,1l.57,1,.57,1c.19.33.36.67.57,1l1.19,2,.29.5.3.49.63,1,1.24,1.95,1.3,1.91.67,1c.11.16.21.32.33.48l.34.46,1.36,1.87.68.94.71.91.7.9.74.92.37.44c.12.15.26.28.38.43l.77.85.19.22.19.2.4.41c.27.27.53.56.79.83,2.15,2.17,4.49,4.13,7,5.87,1.27.86,2.57,1.66,3.92,2.4,1.35.74,2.74,1.4,4.16,2,1.43.59,2.89,1.08,4.38,1.48.74.21,1.5.38,2.26.53.78.15,1.56.27,2.35.34Z"/>
    <path d="m88.97,123.05s0-.09,0-.13v-1.06c-.04-.42-.1-.83-.19-1.24-.18-.82-.46-1.62-.83-2.37-.75-1.51-1.74-2.89-2.94-4.08-1.22-1.22-2.56-2.31-4-3.25l-.55-.35c-.18-.12-.37-.22-.55-.33l-.56-.34-.57-.31c-.76-.42-1.51-.85-2.29-1.25-3.07-1.62-6.21-3.1-9.44-4.43-1.61-.68-3.23-1.3-4.87-1.9s-3.28-1.17-4.95-1.67c1.68.47,3.34,1,5,1.56s3.29,1.16,4.91,1.8c3.25,1.27,6.44,2.69,9.57,4.24.79.38,1.55.79,2.32,1.21l.58.31.57.32c.19.11.39.21.57.33l.57.35c1.5.92,2.9,2,4.17,3.23,1.3,1.23,2.38,2.67,3.2,4.26.43.8.76,1.64,1,2.52.1.45.18.9.23,1.35v1.22c0,.06,0,.13,0,.19l-.95-.18Z"/>
  </g>
  <g id="Layer_3" data-name="Layer 3">
    <g class="cls-1">
      <g class="cls-1">
        <path class="cls-4" d="m270.59,117.73c0,2.16-.34,4.07-1.02,5.73-.68,1.66-1.63,3.06-2.85,4.2-1.22,1.14-2.7,2.01-4.44,2.61-1.74.6-3.67.9-5.79.9h-34.26c-2.08,0-3.98-.31-5.7-.93-1.72-.62-3.21-1.51-4.47-2.67-1.26-1.16-2.24-2.57-2.94-4.23-.7-1.66-1.05-3.53-1.05-5.61v-18.18c.16-1.8.61-3.48,1.35-5.04.74-1.56,1.73-2.91,2.97-4.05,1.24-1.14,2.69-2.04,4.35-2.7,1.66-.66,3.51-.99,5.55-.99h34.2c2.32,0,4.36.35,6.12,1.05,1.76.7,3.23,1.67,4.41,2.91,1.18,1.24,2.07,2.72,2.67,4.44.6,1.72.9,3.62.9,5.7v16.86Zm-11.58-15.84c0-.48-.02-.94-.06-1.38-.04-.44-.14-.83-.3-1.17-.16-.34-.41-.62-.75-.84-.34-.22-.81-.33-1.41-.33h-34.26c-.68,0-1.2.08-1.56.24-.36.16-.63.38-.81.66-.18.28-.28.59-.3.93-.02.34-.03.69-.03,1.05v14.76c0,1.08.15,1.97.45,2.67.3.7,1.03,1.05,2.19,1.05h34.2c.64,0,1.14-.09,1.5-.27.36-.18.63-.41.81-.69.18-.28.28-.61.3-.99.02-.38.03-.77.03-1.17v-14.52Z"/>
      </g>
      <g class="cls-1">
        <path class="cls-2" d="m270.59,117.73c0,2.16-.34,4.07-1.02,5.73-.68,1.66-1.63,3.06-2.85,4.2-1.22,1.14-2.7,2.01-4.44,2.61-1.74.6-3.67.9-5.79.9h-34.26c-2.08,0-3.98-.31-5.7-.93-1.72-.62-3.21-1.51-4.47-2.67-1.26-1.16-2.24-2.57-2.94-4.23-.7-1.66-1.05-3.53-1.05-5.61v-18.18c.16-1.8.61-3.48,1.35-5.04.74-1.56,1.73-2.91,2.97-4.05,1.24-1.14,2.69-2.04,4.35-2.7,1.66-.66,3.51-.99,5.55-.99h34.2c2.32,0,4.36.35,6.12,1.05,1.76.7,3.23,1.67,4.41,2.91,1.18,1.24,2.07,2.72,2.67,4.44.6,1.72.9,3.62.9,5.7v16.86Zm-11.58-15.84c0-.48-.02-.94-.06-1.38-.04-.44-.14-.83-.3-1.17-.16-.34-.41-.62-.75-.84-.34-.22-.81-.33-1.41-.33h-34.26c-.68,0-1.2.08-1.56.24-.36.16-.63.38-.81.66-.18.28-.28.59-.3.93-.02.34-.03.69-.03,1.05v14.76c0,1.08.15,1.97.45,2.67.3.7,1.03,1.05,2.19,1.05h34.2c.64,0,1.14-.09,1.5-.27.36-.18.63-.41.81-.69.18-.28.28-.61.3-.99.02-.38.03-.77.03-1.17v-14.52Z"/>
      </g>
      <g class="cls-1">
        <path class="cls-4" d="m276.29,86.83h50.7c2.8,0,4.95.24,6.45.72,1.5.48,2.6,1.26,3.3,2.34.7,1.08,1.11,2.52,1.23,4.32.12,1.8.18,4.02.18,6.66,0,1.28-.06,2.29-.18,3.03-.12.74-.28,1.36-.48,1.86-.2.5-.46.95-.78,1.35-.32.4-.68.9-1.08,1.5.32.48.65.91.99,1.29.34.38.66.8.96,1.26.3.46.54.96.72,1.5.18.54.27,1.19.27,1.95l2.1,16.56h-11.7l-1.98-16.56h-39.12v16.56h-11.64l.06-44.34Zm11.58,16.62h36.48c1.04,0,1.74-.54,2.1-1.62.36-1.08.54-2.3.54-3.66h-39.12v5.28Z"/>
      </g>
      <g class="cls-1">
        <path class="cls-2" d="m276.29,86.83h50.7c2.8,0,4.95.24,6.45.72,1.5.48,2.6,1.26,3.3,2.34.7,1.08,1.11,2.52,1.23,4.32.12,1.8.18,4.02.18,6.66,0,1.28-.06,2.29-.18,3.03-.12.74-.28,1.36-.48,1.86-.2.5-.46.95-.78,1.35-.32.4-.68.9-1.08,1.5.32.48.65.91.99,1.29.34.38.66.8.96,1.26.3.46.54.96.72,1.5.18.54.27,1.19.27,1.95l2.1,16.56h-11.7l-1.98-16.56h-39.12v16.56h-11.64l.06-44.34Zm11.58,16.62h36.48c1.04,0,1.74-.54,2.1-1.62.36-1.08.54-2.3.54-3.66h-39.12v5.28Z"/>
      </g>
      <g class="cls-1">
        <path class="cls-4" d="m342.89,86.83h62.94v11.34h-25.8v33h-11.16v-32.88h-25.98v-11.46Z"/>
        <path class="cls-4" d="m473.39,86.77v11.4h-47.94c-1.2,0-1.95.38-2.25,1.14-.3.76-.45,1.62-.45,2.58v1.44h50.64v11.46h-50.58v1.02c0,1.08.15,1.98.45,2.7.3.72,1.03,1.08,2.19,1.08h47.94v11.58h-47.94c-2.12,0-4.05-.33-5.79-.99s-3.24-1.61-4.5-2.85c-1.26-1.24-2.23-2.73-2.91-4.47-.68-1.74-1.02-3.67-1.02-5.79v-16.08c0-1.96.36-3.81,1.08-5.55.72-1.74,1.72-3.24,3-4.5,1.28-1.26,2.78-2.26,4.5-3,1.72-.74,3.6-1.11,5.64-1.11l47.94-.06Z"/>
        <path class="cls-4" d="m526.61,119.53v11.64h-34.2c-2.08,0-3.98-.31-5.7-.93-1.72-.62-3.21-1.51-4.47-2.67s-2.24-2.57-2.94-4.23c-.7-1.66-1.05-3.53-1.05-5.61v-30.96h11.46v29.04c0,1.08.15,1.97.45,2.67.3.7,1.03,1.05,2.19,1.05h34.26Z"/>
        <path class="cls-4" d="m544.79,86.77v44.4h-12.36v-44.4h12.36Z"/>
        <path class="cls-4" d="m602.21,86.77h11.52v30.96c0,2.16-.34,4.07-1.02,5.73-.68,1.66-1.63,3.06-2.85,4.2-1.22,1.14-2.7,2.01-4.44,2.61-1.74.6-3.67.9-5.79.9h-34.26c-2.08,0-3.98-.31-5.7-.93-1.72-.62-3.21-1.51-4.47-2.67-1.26-1.16-2.24-2.57-2.94-4.23-.7-1.66-1.05-3.53-1.05-5.61v-30.96h11.46v29.04c0,1.08.15,1.97.45,2.67.3.7,1.03,1.05,2.19,1.05h34.2c.64,0,1.14-.09,1.5-.27s.63-.41.81-.69c.18-.28.28-.61.3-.99.02-.38.03-.77.03-1.17l.06-29.64Z"/>
        <path class="cls-4" d="m672.17,103.51c3.28,0,5.91.36,7.89,1.08,1.98.72,3.5,1.71,4.56,2.97,1.06,1.26,1.76,2.74,2.1,4.44s.51,3.55.51,5.55-.18,3.83-.54,5.49c-.36,1.66-1.07,3.09-2.13,4.29s-2.57,2.14-4.53,2.82c-1.96.68-4.54,1.02-7.74,1.02h-50.22v-11.1h49.98c.88,0,1.57-.14,2.07-.42.5-.28.87-.66,1.11-1.14.24-.48.39-1.04.45-1.68.06-.64.09-1.32.09-2.04h-41.4c-3.16,0-5.72-.34-7.68-1.02-1.96-.68-3.49-1.63-4.59-2.85-1.1-1.22-1.85-2.68-2.25-4.38s-.6-3.55-.6-5.55c0-2.16.14-4.11.42-5.85.28-1.74.93-3.22,1.95-4.44,1.02-1.22,2.54-2.17,4.56-2.85,2.02-.68,4.75-1.02,8.19-1.02h49.86v11.28h-52.86c0,.6.02,1.21.06,1.83.04.62.15,1.2.33,1.74.18.54.47.98.87,1.32.4.34.98.51,1.74.51h37.8Z"/>
      </g>
      <g class="cls-1">
        <path class="cls-2" d="m342.89,86.83h62.94v11.34h-25.8v33h-11.16v-32.88h-25.98v-11.46Z"/>
        <path class="cls-2" d="m473.39,86.77v11.4h-47.94c-1.2,0-1.95.38-2.25,1.14-.3.76-.45,1.62-.45,2.58v1.44h50.64v11.46h-50.58v1.02c0,1.08.15,1.98.45,2.7.3.72,1.03,1.08,2.19,1.08h47.94v11.58h-47.94c-2.12,0-4.05-.33-5.79-.99s-3.24-1.61-4.5-2.85c-1.26-1.24-2.23-2.73-2.91-4.47-.68-1.74-1.02-3.67-1.02-5.79v-16.08c0-1.96.36-3.81,1.08-5.55.72-1.74,1.72-3.24,3-4.5,1.28-1.26,2.78-2.26,4.5-3,1.72-.74,3.6-1.11,5.64-1.11l47.94-.06Z"/>
        <path class="cls-2" d="m526.61,119.53v11.64h-34.2c-2.08,0-3.98-.31-5.7-.93-1.72-.62-3.21-1.51-4.47-2.67s-2.24-2.57-2.94-4.23c-.7-1.66-1.05-3.53-1.05-5.61v-30.96h11.46v29.04c0,1.08.15,1.97.45,2.67.3.7,1.03,1.05,2.19,1.05h34.26Z"/>
        <path class="cls-2" d="m544.79,86.77v44.4h-12.36v-44.4h12.36Z"/>
        <path class="cls-2" d="m602.21,86.77h11.52v30.96c0,2.16-.34,4.07-1.02,5.73-.68,1.66-1.63,3.06-2.85,4.2-1.22,1.14-2.7,2.01-4.44,2.61-1.74.6-3.67.9-5.79.9h-34.26c-2.08,0-3.98-.31-5.7-.93-1.72-.62-3.21-1.51-4.47-2.67-1.26-1.16-2.24-2.57-2.94-4.23-.7-1.66-1.05-3.53-1.05-5.61v-30.96h11.46v29.04c0,1.08.15,1.97.45,2.67.3.7,1.03,1.05,2.19,1.05h34.2c.64,0,1.14-.09,1.5-.27s.63-.41.81-.69c.18-.28.28-.61.3-.99.02-.38.03-.77.03-1.17l.06-29.64Z"/>
        <path class="cls-2" d="m672.17,103.51c3.28,0,5.91.36,7.89,1.08,1.98.72,3.5,1.71,4.56,2.97,1.06,1.26,1.76,2.74,2.1,4.44s.51,3.55.51,5.55-.18,3.83-.54,5.49c-.36,1.66-1.07,3.09-2.13,4.29s-2.57,2.14-4.53,2.82c-1.96.68-4.54,1.02-7.74,1.02h-50.22v-11.1h49.98c.88,0,1.57-.14,2.07-.42.5-.28.87-.66,1.11-1.14.24-.48.39-1.04.45-1.68.06-.64.09-1.32.09-2.04h-41.4c-3.16,0-5.72-.34-7.68-1.02-1.96-.68-3.49-1.63-4.59-2.85-1.1-1.22-1.85-2.68-2.25-4.38s-.6-3.55-.6-5.55c0-2.16.14-4.11.42-5.85.28-1.74.93-3.22,1.95-4.44,1.02-1.22,2.54-2.17,4.56-2.85,2.02-.68,4.75-1.02,8.19-1.02h49.86v11.28h-52.86c0,.6.02,1.21.06,1.83.04.62.15,1.2.33,1.74.18.54.47.98.87,1.32.4.34.98.51,1.74.51h37.8Z"/>
      </g>
    </g>
  </g>
</svg>