<svg xmlns="http://www.w3.org/2000/svg" viewBox="0 0 705.23 234.29"><defs><style>.cls-1,.cls-3{fill:#3dff47;}.cls-2{fill:#636363;}.cls-3{font-size:60px;stroke:#000;stroke-miterlimit:10;stroke-width:3px;font-family:Terminator;}.cls-4{letter-spacing:-0.01em;}</style></defs><g id="Layer_2" data-name="Layer 2"><path class="cls-1" d="M197.41,98c0,46.78-39.67,108.42-86.51,131.33-6.21,3-11.14,3.32-17.85-.14-40.78-21-86.73-85-86.73-131.19,0-50.64,42.78-91.69,95.55-91.69S197.41,47.32,197.41,98Z" transform="translate(-1.87 -1.83)"/><path d="M102,236.12a23.82,23.82,0,0,1-11-3c-10.41-5.37-21.11-13.32-31.81-23.64a218,218,0,0,1-28.5-34A196.42,196.42,0,0,1,10,136.57C4.6,122.61,1.87,109.63,1.87,98A92.38,92.38,0,0,1,9.76,60.47,95.72,95.72,0,0,1,31.23,29.91,99.94,99.94,0,0,1,63,9.36a104.06,104.06,0,0,1,77.73,0,100,100,0,0,1,31.78,20.57A95.65,95.65,0,0,1,194,60.47,92.38,92.38,0,0,1,201.87,98c0,11.94-2.42,24.89-7.18,38.5A178.83,178.83,0,0,1,175.45,175a188.19,188.19,0,0,1-28.21,33.91,140.56,140.56,0,0,1-34.38,24.36A24.41,24.41,0,0,1,102,236.12Zm-.16-225.4c-50.23,0-91.1,39.14-91.1,87.24,0,20.55,10,47,27.3,72.51,16.6,24.41,37.91,44.86,57,54.72,5.11,2.64,8.6,2.66,13.85.1,44.76-21.9,84-81.39,84-127.33,0-48.1-40.87-87.24-91.1-87.24Z" transform="translate(-1.87 -1.83)"/><path d="M185.68,100.35s-9.81,58-45.38,64.16-33.17-32-14.54-44.63S185.68,100.35,185.68,100.35Z" transform="translate(-1.87 -1.83)"/><path class="cls-2" d="M131.59,162a19.93,19.93,0,0,0,2.3-.34c.76-.14,1.52-.31,2.26-.52a37.59,37.59,0,0,0,4.38-1.48,42.7,42.7,0,0,0,4.16-2c1.34-.73,2.65-1.53,3.91-2.39a49.4,49.4,0,0,0,7-5.87c.27-.26.53-.55.79-.83l.4-.41.2-.2.19-.22.77-.85c.13-.15.26-.28.38-.43l.37-.44.74-.88.71-.9.71-.91.67-.94,1.37-1.87.34-.46.33-.48.65-1,1.31-1.91,1.24-2,.63-1,.3-.49.3-.5,1.18-2c.2-.33.39-.67.57-1l.57-1,.57-1c.19-.34.36-.68.54-1l1.08-2.06,1-2.08c.18-.34.34-.7.5-1l.49-1.06c.33-.7.63-1.41.94-2.11a84.62,84.62,0,0,0,3.29-8.71,56.81,56.81,0,0,1-2.41,9.06c-.26.74-.5,1.48-.79,2.21l-.42,1.09c-.14.37-.28.74-.44,1.1l-.92,2.16c-.32.71-.65,1.42-1,2.13-.17.36-.33.72-.51,1.06l-.52,1.06-.53,1.05c-.18.35-.35.7-.55,1l-1.14,2.06-.29.51c-.09.18-.19.35-.29.51l-.64,1-1.23,2-1.3,1.94-.65,1-.33.49-.34.48-1.39,1.91-.69.95-.73.93c-.25.31-.49.63-.75.93l-.76.9-.39.45-.4.44-.79.87-.2.22-.21.21-.42.43-.84.83-.87.81-.44.4-.45.39q-.45.41-.9.78l-.94.73a3.92,3.92,0,0,1-.46.37l-.48.35c-.32.24-.63.48-1,.7l-1,.67c-.32.22-.66.42-1,.63l-.5.32-.53.29-.52.3-.26.15-.26.13-1.06.56-1.05.51a39.58,39.58,0,0,1-4.41,1.74,32.65,32.65,0,0,1-4.59,1.11A21.52,21.52,0,0,1,131.59,162Z" transform="translate(-1.87 -1.83)"/><path d="M112,125c0-.07,0-.13,0-.19v-.53a5.32,5.32,0,0,1,0-.69,9.07,9.07,0,0,1,.23-1.35,11.42,11.42,0,0,1,.94-2.52,16.06,16.06,0,0,1,3.19-4.26,24.17,24.17,0,0,1,4.18-3.23l.56-.35c.19-.12.38-.22.57-.33l.57-.32.58-.31c.78-.41,1.54-.83,2.33-1.21q4.68-2.34,9.56-4.24c1.63-.64,3.27-1.23,4.91-1.8s3.32-1.09,5-1.56c-1.66.5-3.31,1.07-5,1.67s-3.26,1.22-4.86,1.9q-4.83,2-9.45,4.43c-.77.4-1.53.83-2.29,1.25l-.56.31L122,112c-.19.11-.38.21-.56.33l-.54.35a24.65,24.65,0,0,0-4,3.25,15.56,15.56,0,0,0-3,4.13,11.09,11.09,0,0,0-.82,2.37,10.46,10.46,0,0,0-.19,1.23c0,.21,0,.42,0,.62v.45a.25.25,0,0,0,0,.13Z" transform="translate(-1.87 -1.83)"/><path d="M18.06,100.35s9.81,58,45.38,64.16,33.17-32,14.54-44.63S18.06,100.35,18.06,100.35Z" transform="translate(-1.87 -1.83)"/><path class="cls-2" d="M72.16,162a22.21,22.21,0,0,1-4.68-.34,34.44,34.44,0,0,1-4.59-1.1,38.56,38.56,0,0,1-4.4-1.72l-1.06-.52-1.06-.55-.26-.14-.26-.15-.53-.29-.52-.3-.5-.31-1-.64-1-.67c-.33-.21-.64-.46-1-.69l-.48-.36c-.16-.11-.31-.24-.46-.36l-.94-.74c-.3-.27-.6-.53-.9-.77l-.45-.39-.43-.41-.87-.8c-.29-.27-.57-.56-.85-.84l-.42-.42-.2-.21-.21-.22-.8-.88-.4-.43-.39-.45-.75-.92c-.27-.3-.49-.62-.74-.93l-.74-.93-.69-.95-1.38-1.91-.35-.48-.32-.48-.66-1-1.3-2-1.21-2-.61-1c-.11-.17-.2-.34-.3-.51l-.28-.51-1.15-2.06c-.19-.34-.36-.69-.55-1L32,129.56l-.53-1.05c-.18-.35-.34-.71-.5-1.06q-.51-1.07-1-2.13l-.92-2.17c-.16-.36-.29-.72-.43-1.09L28.18,121c-.29-.73-.53-1.47-.79-2.21A56.78,56.78,0,0,1,25,109.7a83.69,83.69,0,0,0,3.28,8.71c.31.71.61,1.42.95,2.11l.48,1.06.5,1,1,2.09,1.08,2c.18.34.34.69.52,1l.57,1,.57,1c.19.33.36.67.57,1l1.19,2,.29.5.3.49.63,1,1.24,1.95,1.3,1.91.67,1c.11.16.21.32.33.48l.34.46,1.36,1.87.68.94.71.91.7.9L45,146l.37.44c.12.15.26.28.38.43l.77.85.19.22.19.2.4.41c.27.27.53.56.79.83a50,50,0,0,0,7,5.87c1.27.86,2.57,1.66,3.92,2.4a45.08,45.08,0,0,0,4.16,2,35.8,35.8,0,0,0,4.38,1.48c.74.21,1.5.38,2.26.53A22.34,22.34,0,0,0,72.16,162Z" transform="translate(-1.87 -1.83)"/><path d="M90.84,124.88a.59.59,0,0,0,0-.13v-.45c0-.2,0-.41,0-.61a10.31,10.31,0,0,0-.19-1.24,10.59,10.59,0,0,0-.83-2.37A15.19,15.19,0,0,0,86.88,116a24.5,24.5,0,0,0-4-3.25l-.55-.35c-.18-.12-.37-.22-.55-.33l-.56-.34-.57-.31c-.76-.42-1.51-.85-2.29-1.25q-4.6-2.43-9.44-4.43c-1.61-.68-3.23-1.3-4.87-1.9s-3.28-1.17-4.95-1.67c1.68.47,3.34,1,5,1.56s3.29,1.16,4.91,1.8q4.88,1.91,9.57,4.24c.79.38,1.55.79,2.32,1.21l.58.31.57.32c.19.11.39.21.57.33l.57.35a24.1,24.1,0,0,1,4.17,3.23,15.88,15.88,0,0,1,3.2,4.26,12,12,0,0,1,1,2.52,12.69,12.69,0,0,1,.23,1.35c0,.23,0,.46,0,.69v.53a.65.65,0,0,1,0,.19Z" transform="translate(-1.87 -1.83)"/></g><g id="Layer_3" data-name="Layer 3"><text class="cls-3" transform="translate(205.13 131.17)">O<tspan class="cls-4" x="68.04" y="0">R</tspan><tspan x="134.82" y="0">TELIUS</tspan></text></g></svg>