<svg xmlns="http://www.w3.org/2000/svg" role="img" viewBox="-2.66 -3.16 500.82 528.32"><path d="M292.102 345.747l-.002.084a16.994 16.994 0 0 0 3.762-.722 17.36 17.36 0 0 1-3.76.638zm8.457-1.295l-.852-.096a12.99 12.99 0 0 0-1.384.19 4.47 4.47 0 0 1 1.756.014h.048c1.02 8.9 4.546 17.91 4.103 27.662-1.4.47-2.586.919-3.771 1.302 1.35-.415 2.665-.923 4.25-1.458h-.036c.444-9.74-3.083-18.762-4.114-27.614zm-13.496-129.774a39.764 39.764 0 0 1 2.1-1.484c-.078.007-.16.02-.238.029l-.23.163a12.347 12.347 0 0 0-1.632 1.292zm-112.687-8.525c.396-5.158 3.347-7.785 7.545-9.813a32.066 32.066 0 0 1 5.802-2.236l-.013-.027a32.068 32.068 0 0 0-5.813 2.24c-4.198 2.027-7.197 4.654-7.545 9.812a18.242 18.242 0 0 0-.027 2.783l.02-.008a18.234 18.234 0 0 1 .03-2.751z"/><path d="M407.861 217L380.853 98.55l-.056-.217a25.232 25.232 0 0 0-12.084-15.168L337.44 68.093c.22-1.268.461-2.658.725-4.197 4.75-8.793 6.886-14.491 5.398-20.393S335.37 26.36 326.386 20.71c-7.342-4.606-23.8-13.171-33.732-13.591-16.063 0-45.944 1.955-59.895 10.412-10.556 6.406-27.746 20.729-41.337 31.993-2.175 2.12-7.523 6.039-13.548 10.426l-47.903 23.063-.204.105a25.225 25.225 0 0 0-12.085 15.225L90.615 216.886l-.041.206a25.154 25.154 0 0 0 4.262 18.913l60.405 75.638c.232 3.215.443 6.442.661 9.693.384 6.082-.264 12.535 1.32 15.906s7.677 4.583 11.996 6.61c12.607 5.83 25.982 14.743 42.524 12.967 3.947 13.256 7.678 27.375 12.404 38.986 16.962 6.094 43.736 5.147 61.37 3.023 5.35-.647 11.012-3.286 12.272-7.94a47.161 47.161 0 0 1-.612-9.082c5.506-1.14 13.015-2.087 14.227-8.18 1.703-8.566-5.41-20.825-3.035-30.206 2.563-.838 5.262-1.527 5.964-4.375a25.548 25.548 0 0 0 10.815-5.476 56.364 56.364 0 0 1 7.884-.201 14.394 14.394 0 0 0 3.24 4.258c9.536 1.92 18.784 2.075 26.702-.504 8.972-2.927 13.255-21.268 11.204-29.989a137.47 137.47 0 0 0-7.558-22.288 18.033 18.033 0 0 0-.816-1.54l37.656-47.21.142-.19A25.216 25.216 0 0 0 407.86 217zM178.144 68.574c4.63-3.293 8.785-6.243 11.622-8.649a315.844 315.844 0 0 1 3.756-3.134c6.097-5.008 10.333-8.075 14.87-11.533a245.392 245.392 0 0 0 5.774-4.526l1.27-1.03c9.75-7.884 13.116-10.219 27.915-19.77 22.588-5.59 30.038-6.658 43.305-7.594h.048c17.118 2.927 25.97 6.394 36.239 12.368 8.853 5.134 12.343 10.004 15.342 20.296.468 5.242.204 8.901-4.198 16.89-.044.447-.124.888-.182 1.333a71.736 71.736 0 0 0-16.217-4.651 97.654 97.654 0 0 0-2.183-.364c-4.536-.701-7.898-1.279-11.016-1.649 1.099-1.626 1.55-2.352 2.167-3.304.413-.636.901-1.375 1.712-2.557 2.123-3.095 1.68-3.407 3.803-6.513a4.69 4.69 0 0 0 .887-4.163c-1.115-3.599-.815-3.67-1.943-7.197s-1.691-3.407-2.807-6.982a4.798 4.798 0 0 0-2.687-3.323c-3.527-1.355-3.443-1.547-6.97-2.903l-6.993-2.759a7.159 7.159 0 0 0-4.63.276c-3.275 1.883-3.06 2.243-6.322 4.139s-3.43 1.607-6.694 3.49a5.35 5.35 0 0 0-2.339 3.84c-.547 3.672-.4 3.734-.934 7.341l-.013.095c-.303 2.032-.472 2.943-.652 3.962-.148.84-.304 1.753-.548 3.428a5.262 5.262 0 0 0 1.092 3.658c.108.132-.18.6-.06.72 2.567 2.747 2.675 2.64 5.254 5.386 2.364 2.519 2.919 2.382 4.98 4.448a274.62 274.62 0 0 0-46.366 10.87c-15.51 4.907-39.478 16.075-48.69 21.81a154.566 154.566 0 0 0-20.052 15.32q-1.13.988-2.301 2.03-1.357 1.208-2.775 2.491-.885.803-1.8 1.64-1.216 1.113-2.483 2.285c-.378.35-.766.71-1.15 1.068a98.81 98.81 0 0 1-.185-.3l-.111-.183a87.52 87.52 0 0 1-.471-.78 198.3 198.3 0 0 1-2.092-3.587c-10.58-8.397-1.68-11.552.803-21.592 6.71-7.112 16.657-14.193 25.025-20.141zm125.604-16.72l-2.098 3.069a2.921 2.921 0 0 1-1.895 1.091l-1.441.113a62.431 62.431 0 0 0-3.756.054c-2.785.12-6.004.42-10.072.937a2.562 2.562 0 0 1-1.417-.744l-9.85-10.477-.154-.163a1.198 1.198 0 0 1-.156-.192 2.4 2.4 0 0 1-.492-1.883l.351-2.357.61-4.084 1.186-7.954a2.567 2.567 0 0 1 1.2-1.811l12.691-7.366a2.784 2.784 0 0 1 .948-.324 2.603 2.603 0 0 1 1.283.192l13.675 5.266a2.507 2.507 0 0 1 1.5 1.596l4.354 13.89a2.507 2.507 0 0 1-.324 2.16zm-145.493 64.958c-.026.08-.046.161-.08.244-.116.082-.232.162-.347.245.134-.156.277-.32.427-.49zm-57.037 114.554a17.31 17.31 0 0 1-2.887-12.831l26.964-118.121a17.389 17.389 0 0 1 8.208-10.345l16.414-7.904c-1.715 2.343-3.442 5.797-6.478 12.548-3.755 9.2-4.007 9.596 3.598 16.158 2.535 3.54 6.05 8.941 7.91 11.834-4.194 12.218-.127 27.54 5.646 36.005a26.463 26.463 0 0 0 17.681 11.36 37.486 37.486 0 0 0 3.671 13.735c.598 1.314 2.434 4.16 4.182 7.281a49.338 49.338 0 0 0-5.933 2.495c-4.979 2.4-8.89 5.003-9.777 10.797a15.97 15.97 0 0 0 .26 5.956 37 37 0 0 0-3.955 1.733c-7.629 1.607-5.997.408-17.633 2.003-5.998.396-15.787 8.553-14.395 17.994.936 6.37 5.83 15.99 7.905 22.372 2.243 6.885 5.458 13.195 7.305 20.392a165.2 165.2 0 0 1 4.05 22.563zm92.796-37.792a8.906 8.906 0 0 1 1.9.544c4.096 1.755 6.027 6.448 7.395 11.651a1.101 1.101 0 0 0 .32.562c.404.355 1.06.214 1.756.098a11.871 11.871 0 0 0 2.099-.564l-.01-.028a29.655 29.655 0 0 0 2.403-.976c1.332-.596 2.638-1.24 3.809-1.743q5.554-2.375 11.24-4.426c.827-.3 2.756-.918 5.25-1.695l.056.06c1.338-.417 2.838-.88 4.426-1.368l-.064-.059c2.445-.75 5.084-1.554 7.625-2.325l.033.062c5.555-1.693 10.644-3.233 12.16-3.696 1.75-.528 3.478-1.2 5.253-1.644h.005a12.71 12.71 0 0 0 3.033 1.864l.045.016c-4.514 1.335-11.617 3.659-18.97 6.25-2.018.71-4.049 1.44-6.053 2.175a399.975 399.975 0 0 0-4.594 1.716c-6.647 2.531-12.474 4.98-15.463 6.729a59.956 59.956 0 0 0-3.843 2.3c-.572.37-1.149.73-1.708 1.118-.57.395-1.12.816-1.676 1.23l-.021.016c-.091.068-.184.133-.274.201-.136.103-.277.199-.412.303-.226.174-.45.352-.673.53-.23.181-.451.373-.678.557-.485.396-.978.783-1.45 1.194a7.594 7.594 0 0 0-1.397 1.818 9.297 9.297 0 0 0-.513 1.069c-.014.034-.03.068-.043.103a26.694 26.694 0 0 0-.985 3.422c-.048.197-.095.392-.146.594a22.671 22.671 0 0 1-2.83 7.353c-1.66 2.49-3.171 3.353-5.124 3.141a10.247 10.247 0 0 1-3.022-.874 38.91 38.91 0 0 1-10.198-6.872l.068-.025a38.935 38.935 0 0 1-2.365-2.393l-.076.023a38.926 38.926 0 0 1-3.155-3.988c-.24-.348-.456-.696-.672-1.056l-2.915.816a40.304 40.304 0 0 0 2.975 4.114c.277.334.581.692.907 1.067-10.678 3.876-15.804 8.993-19.213 5.723-1.957-.979-4.644-2.089-7.143-3.063a222.35 222.35 0 0 0-4.647-1.749c1.752-.994 4.145-1.377 7.424-1.21a33.24 33.24 0 0 1 3.993-1.695c3.928-1.43 9.311-2.962 14.99-4.575.25.46.51.916.786 1.364l2.915-.816c-.253-.459-.479-.93-.69-1.405l.013-.004a18.47 18.47 0 0 1-1.496-5.92c-.008-.095-.022-.189-.028-.284l-.02.008a18.242 18.242 0 0 1 .026-2.783c.348-5.158 3.347-7.785 7.545-9.813a32.068 32.068 0 0 1 5.813-2.239l.013.027c.376-.105.751-.215 1.132-.307.437-.098.849-.159 1.26-.22.244-.036.486-.07.721-.093l.09-.006c.218-.02.43-.033.64-.043a10.992 10.992 0 0 1 2.452.146zm124.035 18.54l.35 1.761 1.712 8.59.06.302-4.405-2.319a42.533 42.533 0 0 0-.434-2.544c-1.701-8.308-5.78-14.473-12.662-11.14 1.943-2.842 5.614-4.222 7.977-7.725a20.666 20.666 0 0 0 2.775 1.9l1.8 4.349zm-1.022-9.604c2.811.919 5.605 1.368 9.599 3.727 3.345.954 5.792 1.69 7.622 2.369a12.141 12.141 0 0 1 3.81 1.996l-.907-.149-12.673-2.08-5.892-1.62zm-30.306 32.29c-.007-.204-.012-.407-.022-.607-.01-.203-.022-.404-.033-.602a9.796 9.796 0 0 1 .218-3.639 4.817 4.817 0 0 1 .595-.35c1.733-.908 4.206-1.005 6.568-1.228.224-.02.449-.04.67-.065a13.628 13.628 0 0 0-8.697-.984c-.072-1.899-.916-3.084-1.432-4.563l-.007-.019a22.21 22.21 0 0 0 1.114-.529c3.83-1.933 7.19-4.851 10.93-6.95.456-.255.916-.5 1.384-.728.212-.103.428-.195.642-.291.213-.096.424-.192.64-.28a17.122 17.122 0 0 1 3.631-1.058c3.215.204 1.931-.18 4.007.707v-.048c1.283.744 2.25 2.987 2.959 5.69a58.542 58.542 0 0 1 1.575 10.984c.192 4.043-.36 8.133-2.015 10.28-.086 0-.172-.006-.257-.007a94.92 94.92 0 0 1-20.597-2.64c-.667-.16-1.334-.32-1.998-.495a13.02 13.02 0 0 0 .125-2.579zm-7.563-13.904c-7.58.384-11.72-.516-17.285-4.87.084-.24.647-.145.66-.576l.011-.048c8.032 3.564 18.226-1.374 26.381-2.18.079-.007.16-.02.238-.028-.726.47-1.415.976-2.1 1.484-2.709 2.01-5.176 4.245-7.905 6.218zm-2.676 15.649a6.794 6.794 0 0 1-2.818-.607 46.85 46.85 0 0 0-.546-2.63 16.91 16.91 0 0 1-.713-6.474 9.57 9.57 0 0 1 4.351-1.634c.078-.008.153-.028.231-.034 7.604 1.094 5.627 11.277-.505 11.379zm-49.9-7.565c.023.57.061 1.146.131 1.728a1.09 1.09 0 0 0-.777.434c-1.018 1.06-2.412 4.091-4.777 9.019-3.916-7.262-4.76-8.211-9.441-13.027l-.455-.468c-.882-1.39-1.745-2.66-2.558-3.838q-.577-.838-1.115-1.612c.025-.151.05-.302.073-.454.128-.82.255-1.645.434-2.426a10.18 10.18 0 0 1 .43-1.447v-.18a13.926 13.926 0 0 1 2.46-1.595c.484-.31 1.03-.634 1.62-.97 5.22 1.144 11.414 1.888 15.21 2.553a22.067 22.067 0 0 1-.648 5.008 39.62 39.62 0 0 0-.588 5.13 26.34 26.34 0 0 0-.018 1.687c.003.152.012.306.019.458zm-8.625-17.57c5.21-2.467 11.957-5.257 18.854-7.957a33.29 33.29 0 0 0 9.131 5.855c-5.53-1.296-14.01-1.704-16.314 3.25-4.03-.266-7.97-.578-11.672-1.148zm24.025-9.955q1.684-.644 3.346-1.27l.482 1.254a1.2 1.2 0 0 0 .684.683l5.026 1.824a1.2 1.2 0 0 0 .756 0 68.614 68.614 0 0 0 13.903-6.298l8.709-4.858h.06l4.557-2.96c.053-.003.105 0 .157-.003a11.094 11.094 0 0 0 5.89-1.873 18.217 18.217 0 0 1 2.22.073 1.305 1.305 0 0 1 .311.06l3.203 1.104a1.405 1.405 0 0 1 .372.204l7.581 6.346a1.2 1.2 0 0 0 .636.264l1.62.156a1.2 1.2 0 0 0 1.283-1.056l.438-4.918a7.9 7.9 0 0 0 4.294.898 27.943 27.943 0 0 1-6.447 6.767c-11.708 8.217-29.498 15.678-44.744 10.568a60.004 60.004 0 0 1-14.337-6.965zm-6.524 14.247h-.048a9.933 9.933 0 0 1 1.567-.477 9.89 9.89 0 0 1 .265-.056c.165-.033.328-.079.495-.103l1.16.104.304.028a74.84 74.84 0 0 1 19.78 7.197c3.191 1.74 5.027 3.899 9.861 4.27l-.072 1.932a7.863 7.863 0 0 1-1.233.64c-2.617 1.116-6.103 1.285-8.591 2.539l.04.002a25.62 25.62 0 0 1 10.528 2.673l-.023.605a476.314 476.314 0 0 1-.169 4.193c-2.751 1.905-5.406 4.343-8.241 6.667a63.353 63.353 0 0 1-2.863 2.23 35.726 35.726 0 0 1-3.89 2.5c-.332.178-.767.392-1.276.629-.125.058-.265.12-.399.18-.817.37-1.785.78-2.838 1.195-3.82 1.506-8.641 3.036-10.554 2.59a1.837 1.837 0 0 1-.692-.34 4.333 4.333 0 0 1-1.245-2.38c-.144-.513-.284-1.052-.463-1.587-.076-.224-.16-.459-.245-.697-1.479-4.087-4.338-10.197-4.553-15.99-.216-4.366-1.463-15.738 3.395-18.545zm77.444-32.785l-.009.02a8.422 8.422 0 0 1-.32.66 8.369 8.369 0 0 1-4.097 3.747 5.112 5.112 0 0 1-3.741-.402 2.735 2.735 0 0 1-1.621-2.885c.236-1.666-1.83-2.952-2.849-1.517a2.175 2.175 0 0 0-.186.317 5.15 5.15 0 0 1-.967 1.37c-2.66 2.708-8.057 2.358-10.153-1.142a2.392 2.392 0 0 0-.22-.207 2.556 2.556 0 0 0-2.82-.164h-.001a2.913 2.913 0 0 0-.558.48 6.247 6.247 0 0 1-.58.813c-3.002 3.586-9.598 3.366-11.895-.814-.549-1.036-1.351-1.085-1.9-.578a2.052 2.052 0 0 0-.595 1.346 2.837 2.837 0 0 1-.38 1.182 3.832 3.832 0 0 1-.626.813A5.946 5.946 0 0 1 267 187.35l-.068.023a4.858 4.858 0 0 1-2.241.188 6.28 6.28 0 0 1-1.35-.419l-.05-.02a11.918 11.918 0 0 1-3.913-2.974c-.423-.462-.82-.931-1.177-1.386a1.132 1.132 0 0 0-1.907-.146 2.182 2.182 0 0 0-.396.674 5.486 5.486 0 0 1-1.526 2.223l-.04.035a6.153 6.153 0 0 1-4.8 1.36 5.628 5.628 0 0 1-4.658-3.618 1.693 1.693 0 0 0-2.751-.786 1.599 1.599 0 0 0-.356 1.146 4.744 4.744 0 0 1-2.313 3.916 4.754 4.754 0 0 1-3.181.666 7.915 7.915 0 0 1-4.36-2.86 11.563 11.563 0 0 1-.508-.662c-.033-.046-.071-.09-.104-.136a11.741 11.741 0 0 1-1.026-1.788 8.876 8.876 0 0 1 .528-6.49 21.46 21.46 0 0 1 6.993-9.02 28.286 28.286 0 0 1 11.156-4.499 93.565 93.565 0 0 1 11.996-1.331c3.035-.168 6.13.288 9.177.216s6.058.168 9.128.228 6.118-.096 9.141.144a39.865 39.865 0 0 1 10.256 2.255 25.66 25.66 0 0 1 9.128 5.049l.001.001c3.491 3.227 7.294 8.673 5.122 13.58zM167.057 332.512a137.53 137.53 0 0 0-3.49-1.7 288.697 288.697 0 0 0-.43-9.283q-.211-3.464-.506-6.953-.303-3.587-.695-7.19c-2.901-26.618-9.448-53.62-19.673-75.55.025-.219.057-.42.085-.63a19.4 19.4 0 0 1 .621-3.03c1.009.144 2.009.33 3.003.538a46.859 46.859 0 0 1 12.694 4.662c.533.289 1.068.573 1.59.883 5.41-3.275 15.727-7.833 15.727-7.833l3.76-1.374c5.478 5.692 14.215 12.749 20.783 9.387 3.416-1.739 5.058-5.808 6.155-9.434a52.63 52.63 0 0 0 5.973 7.922c1.943 2.555 7.953 12.08 9.357 12.752 1.847.875 4.006-11.06 5.818-10.197.54 3.971 1.2 4.99 3.37 11.876 2.4 7.606 3.467 16.962 14.395 12.86a50.138 50.138 0 0 0 3.701-1.581q1.436-.676 2.857-1.431c.277-.147.551-.299.826-.449a2.14 2.14 0 0 0-.138 1.745c2.306 7.215 3.157 14.655 3.692 22.144.172 2.407.314 4.818.458 7.23l.084 1.39c-18.108 1.011-38.575 2.897-53.962 4.907-.808.105-1.627.21-2.406.316a35.172 35.172 0 0 1-5.242-13.927 17.693 17.693 0 0 0-1.326-4.69c-1.228-2.635-2.8-3.208-3.532-1.511-1.86 4.33-1.02.42 4.858 19.193 1.2 4.006-2.147-4.63-5.938-5.998-1.487 4.678 1.38 4.522 3.6 7.557s-7.414-1.343-7.378 4.499c.304.048.634.09.986.124 5.19.512 15.188-.358 20.03 1.687q.254 2.968.545 5.903c.806 8.164 1.818 16.203 2.94 24.472q.266 1.962.54 3.945c.18 1.302.364 2.62.548 3.938.438 3.128.884 6.29 1.341 9.533-19.004-.985-31.832-9.778-45.621-16.702zm119.798 57.336a103.946 103.946 0 0 1-26.845 2.674 120.956 120.956 0 0 1-31.93-4.982 366.149 366.149 0 0 1-12.11-47.86q-.362-1.96-.706-3.937-.343-1.963-.668-3.945c-1.643-9.922-3.008-20.168-4.185-31.01 17.034-3.072 34.284-5.219 51.582-5.087 5.543.22 11.11.374 16.61 1.096 2 .262 3.99.595 5.965 1.04.113.73.214 1.461.31 2.192 1.401 10.687 1.103 21.257 1.945 31.769q.159 1.973.38 3.945c.027.236.049.472.077.707q.183 1.604.328 3.235c1.45 16.165.372 34.103 3.474 49.007a74.229 74.229 0 0 1-4.227 1.156zm-20.175-103.39a8.518 8.518 0 0 1-.213-1.577 4.143 4.143 0 0 1 .149-1.386 3.682 3.682 0 0 1 3.738-2.573 9.79 9.79 0 0 1 1.696.28 2.496 2.496 0 0 1 2.072 2.074 5.493 5.493 0 0 1 .094 1.245c-.084 2.567-.492 3.599-3.599 3.875-2.598.31-3.562-.455-3.937-1.937zm38.03 85.608c-1.586.535-2.9 1.043-4.251 1.458a22.51 22.51 0 0 1-7.158 1.013c-.37-8.249-1.479-20.855-1.201-28.706 0-.027 0-.057.002-.084a17.36 17.36 0 0 0 3.76-.638c.638-.16 1.275-.325 1.919-.462l.033-.007c.169-.036.34-.063.51-.094a12.99 12.99 0 0 1 1.383-.19l.852.096c1.031 8.853 4.558 17.873 4.114 27.614zm-13.268-33.197c-.08-1.044-.155-2.085-.231-3.126q-.145-1.975-.28-3.945c-.523-7.598-.93-15.153-1.092-22.718a307.33 307.33 0 0 1-.052-10.992c3.718-1.2 6.993-1.2 10.724-1.2a71.887 71.887 0 0 1 1.74 8.479c1.258 8.38 1.578 17.632 2.384 26.43q.182 1.993.406 3.946c.03.263.057.53.088.791-4.907 1.018-8.465 1.605-13.687 2.335zm2.843-49.382h.036c-2.11 1.241-4.645.79-8.333.156-.546-.094-1.121-.19-1.72-.286-.194-.032-.381-.063-.58-.094-.188-.029-.386-.056-.58-.085a54.76 54.76 0 0 0-8.767-.627 5.28 5.28 0 0 0 1.279-3.67 4.996 4.996 0 0 0-.498-2.213 5.333 5.333 0 0 0-1.8-2.2 3.94 3.94 0 0 0-2.884-.637c-3.055.454-4.987 1.88-5.405 4.222a5.647 5.647 0 0 0-.09.996l.002.121a5.588 5.588 0 0 0 1.554 3.644q-2.28.09-4.643.204-.036-.554-.07-1.109-.091-1.423-.18-2.847c-.59-9.402-1.255-18.804-4.136-27.843a2.309 2.309 0 0 0-2.384-1.655 105.764 105.764 0 0 0 8.947-5.902 98.398 98.398 0 0 0 2.744-2.084 32.002 32.002 0 0 0 3.037-2.607c1.235-1.403 1.775-2.111 2.699-3.13a5.633 5.633 0 0 0 4.6-.151c.18-.075.36-.154.538-.235.046-.022.093-.042.139-.063.134-.063.266-.127.397-.191 1.392-.676 2.705-1.396 4.114-1.244 3.6.384 9.105 3.599 16.998 4.246s12.2.996 14.3-2.063c2.155-4.069 3.057-11.532 2.502-18.639l6.926 2.265-.3-4.498-1.83-7.302-.725-2.895-.38-1.034 7.433 1.934 12.432 1.69c.06.306.116.624.164.973a9.415 9.415 0 0 1-.293 2.533c-1.004 4.902-4.131 14.504-4.577 16.744-2.4 12.14-7.977 28.178-13.196 40.894-1.919 4.63-3.742 10.412-6.261 11.408-6.946 2.614-15.331-.384-21.209 3.274zm19.663 41.494c-.178.002-.343.02-.53.011-.182-2.242-.441-4.51-.73-6.785-1.213-9.587-3.147-19.343-4.068-28.35 3.19-.168 1.2-.072 5.842-.264l1.931.24c3.717 6.428 5.233 16.075 5.68 24.837a126.528 126.528 0 0 1 .138 8.079h.036c-2.93.559-4.891 2.202-8.299 2.232zm53.295-19.59c1.453 6.646-.33 13.163-4.044 17.276a12.904 12.904 0 0 1-6.512 4.005h.036c-5.686 1.38-14.395 1.74-18.126-.06 3.638-1.982 8.718-2.4 13.307-3.355a32.215 32.215 0 0 0 3.367-.856c-6.765-2.91-16.42-.76-24.885-.69a40.98 40.98 0 0 1-2.92-.065q-.113-1.15-.222-2.313c-.176-1.876-.35-3.77-.53-5.662-.829-8.741-1.789-17.455-3.82-24.234a13.434 13.434 0 0 1 2.317-1.928c6.094-4.09 16.684-5.637 23.043-9.708 1.38-.744.54-.372 2.603-.923a10.482 10.482 0 0 1 9.525 5.278 11.932 11.932 0 0 1 .645 1.138 53.594 53.594 0 0 1 3.299 9.644c1.177 4.44 2.188 9.168 2.917 12.453zm29.97-80.12l-37.136 46.566c-10.108-5.138-26.255 2.22-35.839 7.008 5.878-15.475 10.94-31.525 16.135-48.883a127.371 127.371 0 0 0 5.842-26.57c-4.595-5.998-8.193-5.998-14-7.27-6.949-2.88-11.803-4.086-14.555-5.398a4.328 4.328 0 0 1-2.539-2.284 2.474 2.474 0 0 1-.095-.295c-.624-3.07 7.197-13.71 8.853-17.07a96.227 96.227 0 0 0 5.098-14.683c5.078-21.442 8.013-43.427 5.33-65.016a27.81 27.81 0 0 1-1.955 1.022c-.227.108-.451.217-.687.323-.223.1-.458.195-.69.292-.571.24-1.163.476-1.792.704.36 4.322.482 8.928.717 13.553 1.167 22.527-3.324 45.688-13.146 63.546a15.304 15.304 0 0 0-1.788-5.055 24.747 24.747 0 0 0-6.862-6.85 30.95 30.95 0 0 0-8.589-4.198 43.856 43.856 0 0 0-9.704-1.8c-3.287-.36-6.538-1.283-9.897-1.283s-6.693.948-9.944.948c-3.479.036-7.078-.912-10.676-.732a78.48 78.48 0 0 0-10.605 1.416 40.403 40.403 0 0 0-9.932 3.766c-4.558 2.16-7.545 6.118-9.849 10.556-1.703 3.275-2.47 6.514-1.007 10.017.072.06.048.108.072.192s-.168.252-.168.336c1.585 3.365 4.521 6.372 8.296 6.85-1.663.52-3.255 1.022-4.731 1.494-5.574-5.805-10.285-12.49-15.405-19.596.286 8.014 5.708 14.726 11.29 20.932-1.418.47-2.6.872-3.445 1.176-3.443 1.247-6.573 3.275-9.944 4.714-1.739.728-3.833 1.875-5.852 2.783-.519.233-1.033.452-1.534.642.064-.088.29-.334.236-.594-1.607-5.446-4.798-10.796-10.796-12.283a13.195 13.195 0 0 0-3.625-.363 98.606 98.606 0 0 1-5.504-15.88 31.19 31.19 0 0 1-1.02-6.825c.706-3.846 7.409-5.591 5.081-10.825-.046-.104-.073-.2-.126-.307-5.074 0-6.214 4.618-10.868 5.074-5.06.503-9.49-2.236-12.891-6.343-4.704-5.68-7.438-13.98-7.118-19.988.456-8.817 7.905-17.25 18.09-16.134 5.78.636 8.462 5.829 10.041 11.446.388 1.378.711 2.78.995 4.148 4.15.216 10.148-.18 12.115-3.418-.205-5.635-2.124-10.472-3.12-15.414a25.98 25.98 0 0 1-.586-6.083 56.65 56.65 0 0 1 .194-2.47l-.555-.044-.704-.059-.449-.037-.165-.014-1.85-.156c-1.548-.133-2.93-.257-4.102-.364l-1.022-.094-1.02-.095c-1.278-.12-2.011-.193-2.011-.193s.518-.356 1.424-.962c-4.944 2.19-3.046.672-10.637 6.216a49.632 49.632 0 0 0-9.494 1.723c-.27.076-.542.14-.81.22a30.275 30.275 0 0 0-4.144 1.729l-.03.014c-.091.001-.181.005-.273.003h-.05a7.202 7.202 0 0 1-1.394-.16c.384-.403.797-.83 1.226-1.266l.045-.047.246-.25.031-.032c5.43-5.491 14.147-13.244 23.32-18.44 15.09-9.477 34.823-17.13 50.382-22.576 13.969-4.89 32.99-8.603 44.696-10.336 1.333-.198 2.595-.376 3.719-.52 3.53-.455 6.535-.788 9.463-.955a70.265 70.265 0 0 1 9.646.11c3.436.266 7.303.771 12.14 1.588l.38.068c10.51 1.803 15.759 3.812 17.727 4.71q-.371 1.721-.88 3.408a42.469 42.469 0 0 1-.49 1.536c.452.212 1.301.655 2.315 1.265a34.005 34.005 0 0 1 1.448.923q.324.218.652.452a17.67 17.67 0 0 1 4.413 4.22l24.21 11.667a17.387 17.387 0 0 1 8.207 10.301l26.915 118.019a17.372 17.372 0 0 1-2.89 12.835zm-202.66-115.254c1.031 4.486 4.606 11.456-1.092 11.612.079-6.991-4.634-12.573-10.863-14.972a87.115 87.115 0 0 1 10.995-5.505l.238-.05c-.194 4.335-.08 4.03.722 8.915z"/><path d="M213.794 203.142q5.542-2.4 11.24-4.426c.82-.287 2.73-.892 5.198-1.66l-.057-.06c-2.493.778-4.422 1.396-5.25 1.696q-5.685 2.05-11.24 4.426c-1.17.504-2.476 1.147-3.808 1.743l.043.053c1.354-.604 2.684-1.26 3.874-1.772zm-44.42-76.356a6.833 6.833 0 0 1 1.214-.842 4.778 4.778 0 0 0-1.214.842zm72.846 66.519c-2.542.771-5.181 1.575-7.626 2.325l.064.06c2.433-.749 5.06-1.551 7.594-2.323zm-44.642-86.439a56.405 56.405 0 0 0-.194 2.47 25.98 25.98 0 0 0 .585 6.082l-.24-8.54zm-3.564 86.707l.004.008a8.88 8.88 0 0 1 1.896.536 8.906 8.906 0 0 0-1.9-.544zm11.395 12.88a11.876 11.876 0 0 0 2.099-.564 28.91 28.91 0 0 0 2.412-.975l-.043-.053c-.8.358-1.606.7-2.403.976l.01.028a11.871 11.871 0 0 1-2.1.564c-.696.116-1.351.257-1.755-.098.401.383 1.07.24 1.78.122zm69.606-59.583l-.01.023.008-.01zm-67.352 73.892l-.073.453q.536.773 1.115 1.612l.348.12zm30.906 34.138q-.562-1.097-1.245-2.38a4.333 4.333 0 0 0 1.245 2.38zm107.941 39.95a18.126 18.126 0 0 1 4.131-1.404q-1.626.048-3.163.19c-7.79.708-13.886 3.226-17.554 8.399 6.115.39 10.865-4.507 16.585-7.185zm-2.079 8.933a24.35 24.35 0 0 0-5.222.221c-2.338.388-4.28 1.225-5.278 2.745.976.075 1.98.105 2.996.117 1.69.018 3.419-.039 5.163-.148 1.806-.113 3.617-.274 5.405-.458 2.25-.23 4.458-.488 6.54-.71a35.198 35.198 0 0 0-4.992-1.23 39.381 39.381 0 0 0-4.612-.537zm-8.024 10.06a6.366 6.366 0 0 0-2.8 1.591c.466.039.963.071 1.447.106 1.536.111 3.148.204 4.819.277a266.45 266.45 0 0 0 16.358.18 41.137 41.137 0 0 0-14.255-2.817 18.424 18.424 0 0 0-5.569.663zM220 108.228l-.094-.003.03.103.064-.1z"/><path d="M170.588 125.944a6.833 6.833 0 0 0-1.214.842 9.956 9.956 0 0 0-3.107 6.469 6.457 6.457 0 0 0 1.028-.895c1.254-1.276 2.568-2.922 4.898-1.78-2.604 5.074-2.04 14.97 1.559 18.173-.024-6.022-.96-16.326 4.186-16.014 3.587.216 4.319 7.917 7.39 9.669 1.777-8.575-3.03-14.907-8.282-16.738a8.033 8.033 0 0 0-6.458.274zm97.51 133.47c-3.466.516-5.494 2.291-5.494 5.23l.002.134a5.362 5.362 0 0 0 5.492 5.228c.038 0 .076-.002.115-.004a5.302 5.302 0 0 0 5.068-5.526c.095-1.955-1.728-5.578-5.183-5.062zm.12 8.589c-3.358.384-3.958-1.044-4.15-3.539-.168-2.483 1.571-3.886 3.886-3.946 2.867.251 3.947 1.02 3.863 3.598s-.492 3.599-3.599 3.887zm49.195-164.51l-.036-.048a25.17 25.17 0 0 0 .028 3.352 26.993 26.993 0 0 0 1.836 7.77c.75 1.984 1.604 3.87 2.334 5.876-3.274 2.076-9.656.78-13.35 2.4-.265 10.88 16.83 5.458 19.432-.54-3.85-5.614-6.513-12.416-9.596-18.81zm23.751-24.399a8.046 8.046 0 0 0-.393-.643 17.67 17.67 0 0 0-4.413-4.221q-.33-.234-.652-.452a36.29 36.29 0 0 0-.563-.373c-.306-.197-.6-.378-.885-.55a27.806 27.806 0 0 0-2.316-1.265 5.392 5.392 0 0 0-.254-.113 51.827 51.827 0 0 0-13.114-3.723h-.006a54.315 54.315 0 0 0-.904-.12c-.29-.034-.591-.066-.892-.098a64.27 64.27 0 0 0-1.411-.135 78.677 78.677 0 0 0-2.707-.176c-1.635-.08-3.403-.127-5.378-.127-.258 0-.512.005-.77.006-3.573.007-7.078.07-10.535.197-2.786.102-5.544.247-8.272.454q-2.61.197-5.191.473c-4.176.439-8.308 1.02-12.418 1.81-11.243 2.672-19.867 5.022-26.86 7.217a208.515 208.515 0 0 0-5.28 1.733 154.724 154.724 0 0 0-10.133 3.859q-1.074.454-2.1.909a161.834 161.834 0 0 0-6.893 3.259c-.908.453-1.81.911-2.715 1.376-1.18.431-2.471.983-3.829 1.615a152.886 152.886 0 0 0-14.025 7.724l-.21.127-.29.178-.283.174-.72.442-.062.04a322.85 322.85 0 0 0-9.566 6.156c-.906.606-1.424.962-1.424.962a414.568 414.568 0 0 0 3.03.288l1.023.094c1.173.107 2.554.23 4.103.364l1.849.156.165.014.449.037.704.059.555.045.151.012c6.695.541 15.073 1.128 22.177 1.347l.094.003c2.897.088 5.581.116 7.84.052 5.927-.168 14.945.098 24.527.325 1.807.043 3.634.084 5.463.12a15.293 15.293 0 0 1-.148-1.232 9.21 9.21 0 0 1 .388-3.808v-.024a50.95 50.95 0 0 1 2.34 5.114 259.272 259.272 0 0 0 26.294-.495c15.678-1.5 21.952-3.287 33.468-5.998a81.165 81.165 0 0 0 9.01-2.565c.63-.228 1.222-.464 1.793-.704.231-.097.467-.193.69-.292.235-.105.46-.215.687-.323a27.81 27.81 0 0 0 1.955-1.022 31.95 31.95 0 0 0 6.857-5.494c3.203-6.298 3.203-8.29 0-12.788zm-99.888 25.287c-5.206 0-8.78-.396-15.247-.78l-3.08-.186-2.014-.122-6.858-.415-10.84-.656a85.555 85.555 0 0 1 6.933-4.481 85.57 85.57 0 0 1 4.2-2.309 64.832 64.832 0 0 1 11.347-4.847c.117-.038.231-.082.348-.119l1.562 1.122 2.561 1.84 6.568 4.718 9.246 6.643s.552.18-4.726-.408zm9.08.432l-8.748-7.68-5.59-4.906-4.699-4.124 6.718-2.267 5.037 4.959 5.057 4.977 9.183 9.04z"/><path d="M264.62 124.078c-4.019 3.899-11.228.66-16.602.408-5.099 8.097 10.004 9.62 16.494 7.701 1.775-.528 4.858-3.19 5.278-4.39 1.8-5.062-1.836-7.282-3.707-9.105-2.836-2.763-4.177-6.265-5.672-9.917a50.95 50.95 0 0 0-2.341-5.114v.024a9.21 9.21 0 0 0-.388 3.808c.033.404.08.815.149 1.233a37.1 37.1 0 0 0 4.136 10.807 82.157 82.157 0 0 0 2.653 4.545zm35.411 15.798a18.429 18.429 0 0 1-1.487-1.367c-4.739-5.182-10.929-12.56-13.388-18.342a3.522 3.522 0 0 1-.132-.575c-.216-1.032-.515-2.4-1.511-2.831a1.704 1.704 0 0 0-1.668.348l-.24.18v.287c-.227 8.397 5.65 15.487 10.365 21.149l.852 1.008c.395.491.803.935 1.2 1.367 1.93 2.087 3.214 3.49 1.415 6.658-1.044.408-2.232.983-3.48 1.583-3.886 1.883-8.732 4.223-12.93 3.503-1.584-.276-1.944-1.416-2.4-3.287a8.396 8.396 0 0 0-.78-2.4l-.455-.779-.379.505-.008.01-.153.205a7.641 7.641 0 0 0 .984 9.836l.144.12h.192a28.92 28.92 0 0 0 3.01.156c9.117 0 15.69-4.234 21.089-7.689l.324-.216-.06-.384a5.997 5.997 0 0 1 .576-2.315 8.013 8.013 0 0 0 .791-4.582c-.168-.684-.923-1.332-1.871-2.148zM208.9 217.26l-.169.085c-.455.492-.047.204.168-.084zm-18.882-9.248a25.288 25.288 0 0 1-6.513 1.62c-.336.03-.71.07-1.1.101a5.838 5.838 0 0 1-3.291-.425 1.8 1.8 0 0 0-1.811 3.107 8.587 8.587 0 0 0 4.168 1.065 26.615 26.615 0 0 0 9.507-1.989 1.81 1.81 0 0 0 1.187-1.512c.154-1.195-.733-2.5-2.147-1.967zm-1.177-11.399a32.79 32.79 0 0 0-2.637.735c-3.023.888-9.273 2.831-9.657 6.478-.144 1.295.216 2.399 1.523 2.77.024.003.048 0 .072.003a14.382 14.382 0 0 0 2.116.003c.416-.026.831-.05 1.243-.113a21.121 21.121 0 0 0 4.679-.456 36.596 36.596 0 0 0 8.254-2.847c.023-.012.047-.02.07-.032a3.202 3.202 0 0 0 1.655-1.334c.018-.03.03-.06.047-.09a3.194 3.194 0 0 0 .386-1.875c-.168-2.622-1.861-3.525-3.922-3.651-.044-.003-.086-.01-.13-.011a9.436 9.436 0 0 0-.748-.001 11.88 11.88 0 0 0-.732.05 17.651 17.651 0 0 0-2.219.371zM304.673 39.835h-.23a5.915 5.915 0 0 0-.802 0 8.273 8.273 0 0 1-1.418-.12.685.685 0 0 1-.308-.269l-.032-.05-.277-.06a10.677 10.677 0 0 0-2.23-7.076l.24-.25-.01-.067a.524.524 0 0 1 .066-.346 7.516 7.516 0 0 1 1.179-.919 7.145 7.145 0 0 0 .656-.472l.162-.15a.957.957 0 0 0-1.233-1.463.616.616 0 0 0-.056.052l-.177.164a5.772 5.772 0 0 0-.498.62 8.18 8.18 0 0 1-.974 1.03.738.738 0 0 1-.414.08l-.06-.006-.24.21a10.788 10.788 0 0 0-6.866-2.685v-.301l-.068-.042a.514.514 0 0 1-.232-.289 7.29 7.29 0 0 1 0-1.461v-.77a1.75 1.75 0 0 0 0-.24.998.998 0 0 0-1.016-.977h-.018l-.252.032.07.087a1 1 0 0 0-.637 1.04l.001.224a5.251 5.251 0 0 0 .17.78 8.122 8.122 0 0 1 .2 1.42.788.788 0 0 1-.19.36l-.037.04v.283a10.535 10.535 0 0 0-6.407 3.717l-.264-.153-.063.023a.562.562 0 0 1-.369.012 8.267 8.267 0 0 1-1.17-.875 5.076 5.076 0 0 0-.599-.548l-.191-.133a1.096 1.096 0 0 0-.66-.192.926.926 0 0 0-.74.403 1.018 1.018 0 0 0 .329 1.39l.188.125a6.368 6.368 0 0 0 .718.353 7.942 7.942 0 0 1 1.232.73.886.886 0 0 1 .166.38l.01.052.222.175a10.6 10.6 0 0 0-1.145 6.899c.025.142.041.285.072.427l-.274.108-.025.048a.928.928 0 0 1-.254.309 7.494 7.494 0 0 1-1.384.345 5.639 5.639 0 0 0-.767.12h-.216l-.038.004a1.012 1.012 0 0 0-.705 1.23c.011.03.035.05.05.079a.998.998 0 0 0 1.11.535.933.933 0 0 0 .1-.012l.227-.064a3.494 3.494 0 0 0 .426-.197c.092-.048.186-.097.297-.146a7.068 7.068 0 0 1 1.32-.512.698.698 0 0 1 .406.101l.05.028.284-.069a10.871 10.871 0 0 0 5.059 5.39l-.102.313.03.054a.74.74 0 0 1 .09.361 8.907 8.907 0 0 1-.613 1.318 6.372 6.372 0 0 0-.393.699l-.014.061a.711.711 0 0 1-.085.173.962.962 0 0 0-.055.268 1 1 0 0 0 .583 1.047.968.968 0 0 0 .323.056.981.981 0 0 0 .716-.322.95.95 0 0 0 .21-.33.33.33 0 0 0 .017-.073.357.357 0 0 1 .031-.067.452.452 0 0 0 .049-.112 6.952 6.952 0 0 0 .182-.781 5.73 5.73 0 0 1 .493-1.455.555.555 0 0 1 .255-.138l.066-.017.134-.298a10.766 10.766 0 0 0 6.105-.035 10.535 10.535 0 0 0 1.264-.484l.174.256.068.005a.504.504 0 0 1 .324.151 7.35 7.35 0 0 1 .65 1.3c.04.094.073.185.106.275a3.86 3.86 0 0 0 .204.478s.08.122.111.185a.957.957 0 1 0 1.741-.793.884.884 0 0 0-.089-.152l-.124-.211a6.684 6.684 0 0 0-.488-.636 7.448 7.448 0 0 1-.351-.458 7.512 7.512 0 0 1-.454-.702.54.54 0 0 1 0-.39l.022-.056-.026-.055-.101-.208a10.716 10.716 0 0 0 4.151-6.164h.295l.042-.042a.562.562 0 0 1 .328-.164 7.633 7.633 0 0 1 1.43.309c.104.028.2.06.295.093a3.491 3.491 0 0 0 .499.14l.175-.003a.978.978 0 0 0 1.158-.763l.006-.035a1.003 1.003 0 0 0-.896-1.089zm-8.45-7.475l-3.155 2.625a.595.595 0 0 1-.803-.048.534.534 0 0 1-.143-.33l-.565-4.065a8.447 8.447 0 0 1 4.667 1.818zm-5.877 5.316l1.171-.097.795.849-.172 1.16-1.01.592-1.074-.43-.354-1.074zm-6.795-2.486l3.273 2.5a.578.578 0 0 1 .136.79.613.613 0 0 1-.282.224l-3.836 1.44a8.314 8.314 0 0 1 .71-4.954zm4.662 6.974l-.62 1.905-.646 1.987a8.422 8.422 0 0 1-3.425-3.67l.382-.095 3.555-.89.168-.001a.572.572 0 0 1 .586.407.565.565 0 0 1 0 .357zm.553-6.73a.517.517 0 0 1-.346-.09l-3.537-2.119a8.25 8.25 0 0 1 3.687-2.34 5.197 5.197 0 0 1 .647-.16l.08 4.11a.578.578 0 0 1-.531.598zm4.758 11.305c-.086.027-.174.04-.26.063a8.25 8.25 0 0 1-4.095.095l.768-1.698.926-2.044a.555.555 0 0 1 .449-.316l.022-.004a.524.524 0 0 1 .254-.003.533.533 0 0 1 .276.221l2.3 3.45zm2.645-1.364l-1.867-3.69a.565.565 0 0 1 .221-.76.638.638 0 0 1 .217-.078l.118-.02v-.003l4.14.369a8.3 8.3 0 0 1-2.83 4.182zm-.922-7.336a.578.578 0 0 1-.462-.66.542.542 0 0 1 .153-.316l2.87-2.998a8.58 8.58 0 0 1 1.093 2.306 8.398 8.398 0 0 1 .38 2.497zm12.533 131.299l-.001-.001.001.001zm5.123 13.579l-.01.02zm-27.579.313a6.273 6.273 0 0 1-.545.777 6.247 6.247 0 0 0 .581-.814 2.377 2.377 0 0 1 .241-.237c-.022.02-.047.032-.069.053a2.393 2.393 0 0 0-.208.22zm-45.882 4.31a4.773 4.773 0 0 1-2.739.701q-.234-.011-.465-.046a7.89 7.89 0 0 1-4.325-2.824 7.915 7.915 0 0 0 4.36 2.86 4.853 4.853 0 0 0 5.447-4.048 4.802 4.802 0 0 0 .048-.534 1.599 1.599 0 0 1 .356-1.146 1.57 1.57 0 0 0-.392 1.182 4.792 4.792 0 0 1-2.29 3.856zm14.923-2.026c-.012.01-.021.023-.032.033l.04-.035a5.486 5.486 0 0 0 1.526-2.223 2.182 2.182 0 0 1 .396-.674 2.144 2.144 0 0 0-.432.71 5.468 5.468 0 0 1-1.498 2.19zm15.634-.383a3.758 3.758 0 0 1-.615.825 3.832 3.832 0 0 0 .626-.813 2.837 2.837 0 0 0 .38-1.182 2.052 2.052 0 0 1 .595-1.346 1.912 1.912 0 0 0-.631 1.382 2.822 2.822 0 0 1-.355 1.134zm29.113-.905a5.15 5.15 0 0 0 .967-1.369 2.175 2.175 0 0 1 .186-.317 2.033 2.033 0 0 0-.222.353 5.169 5.169 0 0 1-.93 1.333zM30.366 434.367q1.648.235 4.152.763a22.655 22.655 0 0 1 4.269 1.29 5.677 5.677 0 0 1 3.12 2.463 8.415 8.415 0 0 1 .649 3.52v46.977q0 10.206-4.027 15.25a13.397 13.397 0 0 1-11.077 5.043 8.394 8.394 0 0 1-3.585-.82 4.36 4.36 0 0 1-2.292-1.993v-.762a40.351 40.351 0 0 0 5.949-5.889 10.76 10.76 0 0 0 2.608-6.945 9.983 9.983 0 0 0-3.019-7.384 11.03 11.03 0 0 0-8.116-2.989 10.586 10.586 0 0 0-8.468 3.575 13.345 13.345 0 0 0-3.077 9.025q0 9.202 6.71 14.475 6.71 5.274 17.67 5.274a38.697 38.697 0 0 0 11.896-1.788 32.34 32.34 0 0 0 10.08-5.308 25.32 25.32 0 0 0 7.003-8.854 26.348 26.348 0 0 0 2.549-11.613v-45.862a9.814 9.814 0 0 1 .674-3.753 4.203 4.203 0 0 1 3.077-2.287q2.05-.528 3.692-.82 1.64-.295 3.985-.588v-4.571H30.366zm101.971 69.007a17.09 17.09 0 0 1-9.904 3.017q-10.08 0-14.71-6.27-4.63-6.27-4.63-18.285h39.617v-3.81a29.754 29.754 0 0 0-1.524-9.522 19.988 19.988 0 0 0-4.864-7.882 23.867 23.867 0 0 0-8.732-5.51 38.651 38.651 0 0 0-13.479-1.992 34.355 34.355 0 0 0-13.567 2.579 29.893 29.893 0 0 0-10.05 6.74 30.814 30.814 0 0 0-8.44 21.214 36.216 36.216 0 0 0 2.023 12.278 26.49 26.49 0 0 0 6.124 9.815 29.346 29.346 0 0 0 10.402 6.623 41.1 41.1 0 0 0 14.973 2.461 33.802 33.802 0 0 0 9.23-1.142 36.114 36.114 0 0 0 7.941-3.37 30.058 30.058 0 0 0 6.593-5.069 35.676 35.676 0 0 0 4.952-6.3l-4.454-3.224a28.26 28.26 0 0 1-7.501 7.649zm-26.313-40.936q2.695-4.57 7.208-4.57a6.694 6.694 0 0 1 4.366 1.406 9.288 9.288 0 0 1 2.725 4.16 24.007 24.007 0 0 1 1.23 6.037q.352 3.692.352 7.208l-18.811.234q.233-9.902 2.93-14.475zm115.801 44.832a4.543 4.543 0 0 1-2.402-2.051 7.781 7.781 0 0 1-.645-3.458v-28.716q0-8.966-4.776-14.387-4.778-5.42-14.329-5.42a27.412 27.412 0 0 0-7.501.996 21.062 21.062 0 0 0-5.685 2.403 38.35 38.35 0 0 0-4.337 3.34q-2.345 2.052-3.985 3.516h-.234v-8.497l-.88-.88-27.953 1.524v4.278a18.823 18.823 0 0 1 3.545.645 9.696 9.696 0 0 1 2.667 1.172 8.397 8.397 0 0 1 2.461 2.872 7.529 7.529 0 0 1 .938 3.575v34.107a7.599 7.599 0 0 1-.703 3.516 4.302 4.302 0 0 1-2.58 1.993 14.313 14.313 0 0 1-2.548.557q-1.495.205-2.96.322v4.278h35.631v-4.278a18.19 18.19 0 0 1-2.754-.586 11.146 11.146 0 0 1-2.344-.938 4.088 4.088 0 0 1-1.934-2.08 8.767 8.767 0 0 1-.586-3.429v-31.47q.704-.936 1.733-2.168a13.494 13.494 0 0 1 2.733-2.403 16.342 16.342 0 0 1 3.966-2.051 13.269 13.269 0 0 1 4.378-.703 7.53 7.53 0 0 1 6.493 3.018q2.204 3.019 2.205 8.995v27.427a9.636 9.636 0 0 1-.528 3.633 3.727 3.727 0 0 1-1.758 1.876 7.388 7.388 0 0 1-2.403.586q-1.582.175-2.696.293v4.278h35.221v-4.278a16.862 16.862 0 0 1-3.135-.586 19.991 19.991 0 0 1-2.315-.82zm76.199-3.455q-5.323-7.907-10.18-14.995-4.855-7.087-10.588-15.405 2.923-2.586 5.172-4.32 2.25-1.733 4.648-3.316a52.955 52.955 0 0 1 6.7-3.839 61.448 61.448 0 0 1 8.923-3.076v-4.044h-29.771v4.16a27.7 27.7 0 0 1 5.57 1.232q1.85.703 1.85 1.758a9.828 9.828 0 0 1-.205 1.26 7.693 7.693 0 0 1-2.14 3.017q-3.278 3.34-8.692 8.438-5.414 5.099-9.745 8.965v-60.476l-.88-.938-29.183 1.524v4.278a28.987 28.987 0 0 1 4.043.586 10.527 10.527 0 0 1 3.34 1.172 6.53 6.53 0 0 1 2.491 3.135 10.608 10.608 0 0 1 .85 4.015v65.343a7.832 7.832 0 0 1-.678 3.516 4.202 4.202 0 0 1-2.567 1.993 16.152 16.152 0 0 1-2.596.557q-1.475.205-2.95.322v4.278h36.394v-4.278a17.542 17.542 0 0 1-2.813-.47 14.99 14.99 0 0 1-2.462-.82 3.908 3.908 0 0 1-2.373-1.992 8.364 8.364 0 0 1-.616-3.458v-12.775l3.452-2.92q3.748 5.319 7.964 11.545 4.215 6.224 9.31 15.168h27.623v-4.278a22.09 22.09 0 0 1-5.385-1.172 8.869 8.869 0 0 1-4.506-3.69zm42.064 3.338a5.321 5.321 0 0 1-2.52-2.138 6.555 6.555 0 0 1-.879-3.488v-46.531l-.879-.88-28.716 1.524v4.278a20.866 20.866 0 0 1 3.897.82 12.471 12.471 0 0 1 3.194 1.349 7.775 7.775 0 0 1 2.344 2.49 6.844 6.844 0 0 1 .938 3.605v34.107a6.946 6.946 0 0 1-.762 3.487 4.86 4.86 0 0 1-2.637 2.022 10.39 10.39 0 0 1-2.52.586q-1.466.175-2.989.293v4.278h37.038v-4.278a17.608 17.608 0 0 1-2.93-.586 19.563 19.563 0 0 1-2.579-.938zm-14.592-63.409a11.626 11.626 0 0 0 8.116-3.136 9.911 9.911 0 0 0 3.429-7.589 10.043 10.043 0 0 0-3.4-7.618 12.104 12.104 0 0 0-16.32 0 10.147 10.147 0 0 0 0 15.207 11.699 11.699 0 0 0 8.175 3.136zm97.4 63.526a4.543 4.543 0 0 1-2.403-2.051 7.781 7.781 0 0 1-.645-3.458v-28.716q0-8.966-4.776-14.387-4.777-5.42-14.329-5.42a27.412 27.412 0 0 0-7.501.996 21.062 21.062 0 0 0-5.685 2.403 38.35 38.35 0 0 0-4.336 3.34q-2.345 2.052-3.985 3.516H379v-8.497l-.879-.88-27.954 1.524v4.278a18.823 18.823 0 0 1 3.546.645 9.696 9.696 0 0 1 2.666 1.172 8.397 8.397 0 0 1 2.461 2.872 7.529 7.529 0 0 1 .938 3.575v34.107a7.599 7.599 0 0 1-.703 3.516 4.302 4.302 0 0 1-2.579 1.993 14.313 14.313 0 0 1-2.549.557q-1.494.205-2.96.322v4.278h35.632v-4.278a18.19 18.19 0 0 1-2.755-.586 11.146 11.146 0 0 1-2.344-.938 4.088 4.088 0 0 1-1.934-2.08 8.767 8.767 0 0 1-.586-3.429v-31.47q.705-.936 1.734-2.168a13.494 13.494 0 0 1 2.733-2.403 16.342 16.342 0 0 1 3.966-2.051 13.269 13.269 0 0 1 4.377-.703 7.53 7.53 0 0 1 6.494 3.018q2.203 3.019 2.204 8.995v27.427a9.636 9.636 0 0 1-.527 3.633 3.727 3.727 0 0 1-1.759 1.876 7.388 7.388 0 0 1-2.402.586q-1.583.175-2.696.293v4.278h35.22v-4.278a16.862 16.862 0 0 1-3.134-.586 19.991 19.991 0 0 1-2.315-.82zm60.37-24.35q-4.857-4.658-15.329-7.355a50.418 50.418 0 0 1-10.56-3.75 6.758 6.758 0 0 1-3.773-6.446 6.085 6.085 0 0 1 2.579-5.216 11.846 11.846 0 0 1 7.09-1.875 15.888 15.888 0 0 1 10.725 4.424 24.233 24.233 0 0 1 7.033 10.52h4.102l-.938-19.984h-4.453l-1.231 3.457a49.608 49.608 0 0 0-7.53-2.373 41.76 41.76 0 0 0-9.817-1.084q-11.252 0-18.196 5.098a15.827 15.827 0 0 0-6.945 13.362 16.547 16.547 0 0 0 5.802 13.185 23.338 23.338 0 0 0 5.89 3.781 64.343 64.343 0 0 0 6.827 2.373q3.984 1.174 6.71 1.992a29.929 29.929 0 0 1 5.01 1.993 10.036 10.036 0 0 1 3.224 2.637 6.169 6.169 0 0 1 1.172 3.868q0 4.339-2.608 6.418-2.608 2.08-7.94 2.08a16.4 16.4 0 0 1-7.59-1.817 26.492 26.492 0 0 1-6.3-4.454 32.76 32.76 0 0 1-4.688-5.948 29.028 29.028 0 0 1-2.93-5.949h-4.279l.762 21.86h4.571l1.759-3.985a36.302 36.302 0 0 0 8.41 3.546 37.5 37.5 0 0 0 11.105 1.67q12.13 0 19.661-5.275 7.53-5.274 7.53-14.886a15.734 15.734 0 0 0-4.855-11.866z"/></svg>