<?xml version="1.0" encoding="utf-8"?>
<!-- Generator: Adobe Illustrator 23.0.3, SVG Export Plug-In . SVG Version: 6.00 Build 0)  -->
<svg version="1.1" id="ARTWORK" xmlns="http://www.w3.org/2000/svg" xmlns:xlink="http://www.w3.org/1999/xlink" x="0px" y="0px"
	 viewBox="0 0 994.2 474.3" style="enable-background:new 0 0 994.2 474.3;" xml:space="preserve">
<style type="text/css">
	.st0{fill-rule:evenodd;clip-rule:evenodd;}
</style>
<g>
	<path class="st0" d="M94.5,428.5c0,5.7-4.7,10.5-10.5,10.5H31c-5.7,0-10.5-4.7-10.5-10.5V407H0v21.5c0,17.1,14,30.9,31.1,30.9H84
		c17.1,0,31.1-13.8,31.1-30.9v-84H94.5V428.5z"/>
	<path class="st0" d="M131.6,375.5v52.9c0,17.1,13.8,31.1,30.9,31.1h84V439h-84c-5.7,0-10.5-4.7-10.5-10.5v-21.7h74v-20.5h-74v-10.7
		c0-5.8,4.8-10.5,10.5-10.7h84v-20.5h-84C145.4,344.4,131.6,358.4,131.6,375.5z"/>
	<polygon class="st0" points="357.5,417.8 283.6,360.8 263,345 263,459.7 283.6,459.7 283.6,386.9 357.5,444 378.1,459.7 
		378.1,344.7 357.5,344.5 	"/>
	<polygon class="st0" points="479.2,344.5 447.1,373.9 431.8,387.9 414.9,403.4 414.9,344.5 394.3,344.5 394.3,459.6 414.9,459.6 
		414.9,431.1 444,404.7 483.8,459.6 509.1,459.6 459.3,390.7 509.6,344.5 	"/>
	<rect x="526" y="344.5" class="st0" width="20.5" height="115.1"/>
	<polygon class="st0" points="657.5,417.8 583.5,360.8 563,345 563,459.7 583.5,459.7 583.5,386.9 657.5,444 678.1,459.7 
		678.1,344.7 657.5,344.5 	"/>
	<path class="st0" d="M772.4,344.4h-46.7c-17.1,0-30.9,14-30.9,31.1v0.7c0,6.6,1.9,12.7,5.4,17.6c1.1,1.8,2.4,3.4,3.9,4.9
		c5.6,5.4,13.1,8.7,21.5,8.7H767c8.7,0,15.9,7.1,15.9,15.8S775.7,439,767,439h-36c-8.7,0-15.8-7.1-15.8-15.8h-20.5
		c0,20,16.2,36.3,36.3,36.3h36c20,0,36.3-16.2,36.3-36.3c0-8.7-3.1-16.8-8.2-23c-0.5-0.5-0.8-1-1.3-1.5
		c-6.6-7.2-16.1-11.8-26.8-11.8h-41.4c-5.7,0-10.5-4.7-10.5-10.5v-0.7c0-5.7,4.7-10.5,10.5-10.5h46.7c5.7,0,10.5,4.7,10.5,10.5v0.7
		l20.7-0.2v-0.7C803.5,358.4,789.5,344.4,772.4,344.4z"/>
	<polygon class="st0" points="815.7,460.1 816,459.7 815.7,459.7 	"/>
	<polygon class="st0" points="938.4,402.4 976.1,353.6 994.2,330.1 964.5,330.1 964.2,330.1 938.4,330.1 931.2,330.1 926.9,335.8 
		906.8,361.8 886.8,335.8 882.4,330.1 875.3,330.1 849.3,330.1 819.7,330.1 837.8,353.6 875.5,402.4 838.1,450.8 820,474.3 
		849.6,474.3 875.6,474.3 882.8,474.3 887.1,468.7 907,443 926.9,468.7 931.3,474.3 938.4,474.3 964.4,474.3 994.1,474.3 
		975.9,450.8 	"/>
	<circle class="st0" cx="432.2" cy="144.3" r="22.8"/>
	<path class="st0" d="M432.2,178.1c9.4,0,17.9-3.8,24-9.9c6.1-6.2,9.9-14.6,9.9-24s-3.8-17.8-9.9-24c-6.1-6.1-14.6-9.9-24-9.9
		s-17.9,3.8-24,9.9c-6.1,6.2-9.9,14.6-9.9,24c0,9.4,3.7,17.8,9.9,24C414.4,174.3,422.8,178.1,432.2,178.1z M411.3,123.4
		c5.4-5.3,12.8-8.6,20.9-8.6c8.2,0,15.6,3.3,20.9,8.6c5.3,5.3,8.6,12.7,8.7,20.9c0,8.2-3.4,15.6-8.7,20.9
		c-5.4,5.3-12.7,8.6-20.9,8.6c-8.2,0-15.6-3.3-20.9-8.6c-5.3-5.4-8.6-12.8-8.6-20.9C402.7,136.1,406,128.7,411.3,123.4z"/>
	<circle class="st0" cx="560.6" cy="144.3" r="22.8"/>
	<path class="st0" d="M560.6,178.1c9.4,0,17.9-3.8,24-9.9c6.1-6.2,9.9-14.6,9.9-24s-3.7-17.8-9.9-24c-6.2-6.1-14.6-9.9-24-9.9
		c-9.4,0-17.9,3.8-24,9.9c-6.1,6.2-9.9,14.6-9.9,24c0,9.4,3.8,17.8,9.9,24C542.7,174.3,551.2,178.1,560.6,178.1z M539.6,123.4
		c5.4-5.3,12.7-8.6,20.9-8.6s15.6,3.3,20.9,8.6c5.4,5.3,8.7,12.7,8.6,20.9c0,8.2-3.3,15.6-8.6,20.9c-5.4,5.3-12.8,8.6-20.9,8.6
		c-8.2,0-15.6-3.3-20.9-8.6c-5.4-5.4-8.7-12.8-8.7-20.9C530.9,136.1,534.3,128.7,539.6,123.4z"/>
	<path class="st0" d="M643.5,169.4l21.7-40.3c3.2,9.3,5.7,19.7,7,20.3c9.5,0.9,21.9-50.8,23.7-58.3c1.8-7.8,8.6-67,6.5-74.6
		c-7.8,12.9-22.2,33.9-25.2,39.5l-2-24l-39.5,41.7c-13.6-25.8-38.4-44.8-67.9-50.4c-7.4-13.1-37.3-22.6-68-23.3c-1.1,0-2.3,0-3.4,0
		c-1.1,0-2.3,0-3.4,0c-30.7,0.7-60.6,10.2-68,23.3c-29.5,5.6-54.3,24.6-67.9,50.4l-39.5-41.8l-2,24c-3-5.5-17.4-26.6-25.2-39.5
		c-2.1,7.6,4.7,66.9,6.5,74.5c1.8,7.5,14.2,59.1,23.7,58.3c1.3-0.5,3.9-10.9,7-20.3l21.7,40.3c10.1,40.3,42.9,71.9,83.8,80.3
		c-0.9,5-0.9,10.2-0.6,14.6c0.9,10.9,5.2,28.4,17.9,30.9c2.2,0.4,4.4,0.3,6.6-0.2c8.3-2.2,17.6-6.8,25.9-12c2.1,1,4.5,1.6,7.1,1.6
		h13.1c2.5,0,4.9-0.6,7.1-1.6c8.4,5.1,17.7,9.8,25.9,12c2.1,0.6,4.4,0.7,6.6,0.2c12.7-2.5,17.1-20,17.9-30.9
		c0.3-4.4,0.2-9.5-0.7-14.4C600.8,241.2,633.4,209.6,643.5,169.4z M667.5,50.4l4.5,33.5l24.2-44.3c-4.7,35.3-10.6,60.2-22.1,93.2
		l-3.9-25.5l-23.6,39.9c0.1-1.4,0.1-2.8,0.1-4.2v-24.5c0-12.8-2.5-25-7.1-36.2L667.5,50.4z M496.5,12.7c32.8,0.3,66.8,10.3,64,17.7
		l-23.1,62.2c-1.7,4.5-4,8.8-8.8,8.8h-32.2h-32.2c-4.8,0-7.1-4.3-8.8-8.8l-23.1-62.2C429.6,23,463.5,13,496.5,12.7z M346,118.5V143
		c0,1.4,0,2.8,0.1,4.2l-23.6-39.9l-3.9,25.5c-11.4-33-17.4-57.8-22.1-93.2l24.2,44.3l4.5-33.5l27.9,31.9
		C348.5,93.5,346,105.7,346,118.5z M454.5,286.2c-15.5,4.2-21.2-55.5,1.4-46.9c5,1.9,11.4,5.4,19.3,9.8c-1.3,2.4-2.1,5.1-2.1,8v1.1
		c-3.7-1.2-8.7-2.4-15.1-3.9c10.7,6.7,7.4,5,14.6,8.6c-8,4.7-4.3,2.4-15.4,10.7c6.8-2.2,12.1-4.1,16-5.7c0.1,3.2,1,6.1,2.6,8.6
		C469.4,280.4,461.7,284.3,454.5,286.2z M538.2,286.2c-7.2-1.9-14.9-5.8-21.2-9.6c1.5-2.4,2.4-5.1,2.6-8.1c3.8,1.5,8.7,3.2,14.7,5.2
		c-10.7-8-7.7-6.1-14.7-10.2v-0.8c6.2-3.1,3.6-1.7,13.9-8.2c-5.7,1.3-10.3,2.5-13.9,3.5v-0.7c0-2.9-0.8-5.6-2.1-8
		c7.8-4.5,14.3-7.9,19.3-9.8C559.4,230.7,553.7,290.4,538.2,286.2z M548.6,231.6c-4.8-2.5-10-2.3-15-0.4c-5.2,2-10.4,4.8-15.2,7.5
		c-2.4,1.3-4.9,2.7-7.3,4.1c-2.4-1.4-5.2-2.1-8.1-2.1h-13.1c-3,0-5.7,0.8-8.1,2.1c-2.4-1.4-4.9-2.8-7.3-4.1
		c-4.9-2.7-10-5.5-15.2-7.5c-4.9-1.9-10.2-2.1-15,0.4c-4,2.1-6.8,5.4-8.6,9.4c-45.9-9-80.9-49.7-80.9-98.2v-24.5
		c0-41.8,29.5-77.1,68.8-85.9c0.1,0.3,0.2,0.6,0.3,0.9L447,95.7c2.9,7.8,7.8,14.6,17.1,14.6h32.3h32.3c9.3,0,14.2-6.8,17.1-14.6
		l23.1-62.2c0.1-0.3,0.2-0.6,0.3-0.9c39.2,8.9,68.8,44.1,68.8,85.9V143c0,48.4-34.8,89.1-80.7,98.1
		C555.4,237.1,552.7,233.6,548.6,231.6z"/>
	<path class="st0" d="M591.8,199.5l-4.4-3.6c-5.3,6.1-20.9,20.4-50.1,20.4h-40.9h-40.9c-29.2,0-44.8-14.4-50.1-20.4l-4.4,3.6
		c6,6.8,23.1,22.4,54.5,22.4h40.9h40.9C568.6,221.9,585.7,206.3,591.8,199.5z"/>
</g>
</svg>
