<svg xmlns="http://www.w3.org/2000/svg" role="img" viewBox="-8.18 -4.18 581.36 529.36"><path d="M324.325 345.747c0 .027 0 .057-.002.084a16.994 16.994 0 0 0 3.762-.722 17.36 17.36 0 0 1-3.76.638zm8.457-1.295l-.851-.096a12.99 12.99 0 0 0-1.384.19 4.47 4.47 0 0 1 1.755.014h.048c1.02 8.9 4.547 17.91 4.103 27.662-1.4.47-2.586.919-3.77 1.302 1.35-.415 2.664-.923 4.25-1.458h-.036c.444-9.74-3.083-18.762-4.115-27.614zm-13.495-129.774a39.789 39.789 0 0 1 2.1-1.484c-.079.007-.16.02-.238.029l-.23.163a12.348 12.348 0 0 0-1.632 1.292zM206.6 206.153c.395-5.158 3.346-7.785 7.544-9.813a32.066 32.066 0 0 1 5.802-2.236l-.012-.027a32.068 32.068 0 0 0-5.814 2.24c-4.198 2.027-7.197 4.654-7.545 9.812a18.245 18.245 0 0 0-.026 2.783l.02-.008a18.234 18.234 0 0 1 .03-2.751z"/><path d="M440.085 217L413.077 98.55l-.056-.217a25.232 25.232 0 0 0-12.085-15.168l-31.272-15.072.725-4.197c4.75-8.793 6.885-14.491 5.398-20.393s-8.193-17.142-17.178-22.792c-7.341-4.606-23.8-13.171-33.732-13.591-16.062 0-45.944 1.955-59.895 10.412-10.556 6.406-27.746 20.729-41.337 31.993-2.174 2.12-7.523 6.039-13.548 10.426l-47.902 23.063-.204.105a25.225 25.225 0 0 0-12.086 15.225l-27.067 118.542-.04.206a25.154 25.154 0 0 0 4.261 18.913l60.405 75.638c.233 3.215.444 6.442.662 9.693.384 6.082-.264 12.535 1.32 15.906s7.677 4.583 11.995 6.61c12.608 5.83 25.983 14.743 42.525 12.967 3.947 13.256 7.677 27.375 12.404 38.986 16.962 6.094 43.736 5.147 61.37 3.023 5.35-.647 11.012-3.286 12.271-7.94a47.161 47.161 0 0 1-.611-9.082c5.506-1.14 13.015-2.087 14.226-8.18 1.704-8.566-5.41-20.825-3.034-30.206 2.563-.838 5.26-1.527 5.964-4.375a25.548 25.548 0 0 0 10.815-5.476 56.364 56.364 0 0 1 7.884-.201 14.394 14.394 0 0 0 3.239 4.258c9.536 1.92 18.785 2.075 26.702-.504 8.973-2.927 13.255-21.268 11.204-29.989a137.47 137.47 0 0 0-7.557-22.288 18.033 18.033 0 0 0-.816-1.54l37.655-47.21.142-.19a25.216 25.216 0 0 0 4.26-18.905zM210.367 68.574c4.631-3.293 8.785-6.243 11.623-8.649a315.763 315.763 0 0 1 3.755-3.134c6.097-5.008 10.334-8.075 14.87-11.533a245.392 245.392 0 0 0 5.774-4.526l1.271-1.03c9.75-7.884 13.115-10.219 27.915-19.77 22.588-5.59 30.037-6.658 43.304-7.594h.048c17.118 2.927 25.97 6.394 36.24 12.368 8.852 5.134 12.343 10.004 15.342 20.296.468 5.242.204 8.901-4.199 16.89-.044.447-.123.888-.182 1.333a71.736 71.736 0 0 0-16.217-4.651 97.654 97.654 0 0 0-2.182-.364c-4.537-.701-7.898-1.279-11.017-1.649 1.1-1.626 1.55-2.352 2.168-3.304.412-.636.9-1.375 1.712-2.557 2.123-3.095 1.679-3.407 3.802-6.513a4.69 4.69 0 0 0 .888-4.163c-1.116-3.599-.816-3.67-1.943-7.197s-1.692-3.407-2.807-6.982a4.798 4.798 0 0 0-2.687-3.323c-3.527-1.355-3.443-1.547-6.97-2.903l-6.993-2.759a7.159 7.159 0 0 0-4.63.276c-3.276 1.883-3.06 2.243-6.323 4.139s-3.43 1.607-6.693 3.49a5.35 5.35 0 0 0-2.34 3.84c-.546 3.672-.399 3.734-.933 7.341l-.014.095c-.303 2.032-.472 2.943-.652 3.962-.148.84-.304 1.753-.548 3.428a5.262 5.262 0 0 0 1.092 3.658c.108.132-.18.6-.06.72 2.567 2.747 2.675 2.64 5.254 5.386 2.365 2.519 2.919 2.382 4.981 4.448a274.62 274.62 0 0 0-46.366 10.87c-15.51 4.907-39.478 16.075-48.69 21.81a154.566 154.566 0 0 0-20.052 15.32q-1.13.988-2.302 2.03-1.356 1.208-2.774 2.491-.886.803-1.8 1.64-1.217 1.113-2.484 2.285l-1.15 1.068-.184-.3-.112-.183a87.52 87.52 0 0 1-.471-.78c-.57-.953-1.254-2.121-2.092-3.587-10.58-8.397-1.68-11.552.804-21.592 6.71-7.112 16.657-14.193 25.024-20.141zm125.604-16.72l-2.097 3.069a2.921 2.921 0 0 1-1.895 1.091l-1.442.113a62.432 62.432 0 0 0-3.756.054c-2.784.12-6.004.42-10.071.937a2.562 2.562 0 0 1-1.417-.744l-9.851-10.477-.154-.163a1.198 1.198 0 0 1-.156-.192 2.4 2.4 0 0 1-.492-1.883l.352-2.357.61-4.084 1.186-7.954a2.567 2.567 0 0 1 1.199-1.812l12.691-7.365a2.784 2.784 0 0 1 .948-.324 2.603 2.603 0 0 1 1.284.192l13.675 5.266a2.507 2.507 0 0 1 1.5 1.596l4.354 13.89a2.507 2.507 0 0 1-.324 2.16zm-145.493 64.958c-.025.08-.046.161-.08.244-.115.082-.232.162-.347.245.134-.156.278-.32.427-.49zm-57.036 114.554a17.31 17.31 0 0 1-2.888-12.831l26.965-118.121a17.389 17.389 0 0 1 8.208-10.345l16.414-7.904c-1.715 2.343-3.443 5.797-6.479 12.548-3.755 9.2-4.006 9.596 3.599 16.158 2.534 3.54 6.049 8.941 7.91 11.834-4.194 12.218-.127 27.54 5.645 36.005a26.463 26.463 0 0 0 17.682 11.36 37.487 37.487 0 0 0 3.67 13.735c.599 1.314 2.435 4.16 4.183 7.281a49.338 49.338 0 0 0-5.934 2.495c-4.978 2.4-8.889 5.003-9.776 10.797a15.97 15.97 0 0 0 .26 5.956 37 37 0 0 0-3.955 1.733c-7.63 1.607-5.998.408-17.634 2.003-5.998.396-15.786 8.553-14.395 17.994.936 6.37 5.83 15.99 7.905 22.372 2.244 6.885 5.459 13.195 7.306 20.392a165.2 165.2 0 0 1 4.049 22.563zm92.796-37.792a8.906 8.906 0 0 1 1.9.544c4.096 1.755 6.026 6.448 7.395 11.651a1.101 1.101 0 0 0 .32.562c.403.355 1.059.214 1.755.098a11.871 11.871 0 0 0 2.1-.564l-.011-.028a29.655 29.655 0 0 0 2.404-.976c1.331-.596 2.638-1.24 3.808-1.743q5.554-2.375 11.24-4.426c.827-.3 2.756-.918 5.25-1.695l.056.06c1.338-.417 2.838-.88 4.426-1.368l-.063-.059c2.444-.75 5.083-1.554 7.625-2.325l.032.062c5.555-1.693 10.644-3.233 12.16-3.696 1.751-.528 3.478-1.2 5.254-1.644h.005a12.71 12.71 0 0 0 3.033 1.864l.044.016c-4.513 1.335-11.617 3.659-18.97 6.25-2.017.71-4.049 1.44-6.053 2.175a399.975 399.975 0 0 0-4.593 1.716c-6.647 2.531-12.474 4.98-15.463 6.729a59.959 59.959 0 0 0-3.844 2.3c-.572.37-1.149.73-1.707 1.118-.57.395-1.121.816-1.677 1.23l-.02.016c-.092.068-.184.133-.275.201-.136.103-.276.199-.411.303-.227.174-.45.352-.674.53-.23.181-.45.373-.678.557-.485.396-.977.783-1.45 1.194a7.594 7.594 0 0 0-1.397 1.818 9.297 9.297 0 0 0-.512 1.069l-.044.103a26.694 26.694 0 0 0-.985 3.422l-.145.594a22.67 22.67 0 0 1-2.831 7.353c-1.66 2.49-3.17 3.353-5.123 3.141a10.247 10.247 0 0 1-3.022-.874 38.91 38.91 0 0 1-10.199-6.872l.068-.025a38.94 38.94 0 0 1-2.365-2.393l-.076.023a38.925 38.925 0 0 1-3.155-3.988c-.24-.348-.456-.696-.672-1.056l-2.914.816a40.304 40.304 0 0 0 2.974 4.114c.278.334.582.692.908 1.067-10.679 3.876-15.804 8.993-19.213 5.723-1.957-.979-4.644-2.089-7.143-3.063a222.348 222.348 0 0 0-4.647-1.749c1.751-.994 4.144-1.377 7.424-1.21a33.24 33.24 0 0 1 3.993-1.695c3.927-1.43 9.31-2.962 14.989-4.575.25.46.51.916.786 1.364l2.915-.816a19.02 19.02 0 0 1-.69-1.405l.013-.004a18.47 18.47 0 0 1-1.496-5.92c-.007-.095-.021-.189-.028-.284l-.02.008a18.245 18.245 0 0 1 .026-2.783c.348-5.158 3.347-7.785 7.546-9.813a32.068 32.068 0 0 1 5.813-2.239l.012.027c.377-.105.752-.215 1.132-.307.438-.098.85-.159 1.26-.22.245-.036.487-.07.722-.093l.09-.006c.217-.02.43-.033.64-.043a10.992 10.992 0 0 1 2.452.146zm124.034 18.54l.351 1.761 1.712 8.59.06.302-4.406-2.319a42.533 42.533 0 0 0-.434-2.544c-1.7-8.308-5.78-14.473-12.661-11.14 1.943-2.842 5.614-4.222 7.977-7.725a20.666 20.666 0 0 0 2.775 1.9l1.8 4.349zm-1.022-9.604c2.812.919 5.606 1.368 9.599 3.727 3.345.954 5.793 1.69 7.622 2.369a12.141 12.141 0 0 1 3.81 1.996l-.907-.149-12.672-2.08-5.893-1.62zm-30.306 32.29c-.007-.204-.012-.407-.022-.607-.01-.203-.021-.404-.033-.602a9.796 9.796 0 0 1 .218-3.639 4.817 4.817 0 0 1 .596-.35c1.732-.908 4.205-1.005 6.568-1.228.224-.02.448-.04.67-.065a13.628 13.628 0 0 0-8.698-.984c-.071-1.899-.915-3.084-1.432-4.563l-.007-.019a21.8 21.8 0 0 0 1.114-.529c3.83-1.933 7.19-4.851 10.931-6.95.456-.255.916-.5 1.384-.728.211-.103.427-.195.642-.291.212-.096.424-.192.64-.28a17.122 17.122 0 0 1 3.63-1.058c3.215.204 1.932-.18 4.007.707v-.048c1.284.744 2.25 2.987 2.96 5.69a58.542 58.542 0 0 1 1.574 10.984c.192 4.043-.36 8.133-2.015 10.28-.086 0-.171-.006-.257-.007a94.92 94.92 0 0 1-20.596-2.64c-.667-.16-1.335-.32-1.999-.495a13.019 13.019 0 0 0 .125-2.579zm-7.562-13.904c-7.581.384-11.72-.516-17.286-4.87.084-.24.648-.145.66-.576l.012-.048c8.032 3.564 18.226-1.374 26.38-2.18.08-.007.16-.02.238-.028-.726.47-1.414.976-2.1 1.484-2.708 2.01-5.175 4.245-7.904 6.218zm-2.677 15.649a6.794 6.794 0 0 1-2.817-.607 46.85 46.85 0 0 0-.546-2.63 16.91 16.91 0 0 1-.714-6.474 9.57 9.57 0 0 1 4.352-1.634c.077-.008.153-.028.23-.034 7.604 1.094 5.627 11.277-.505 11.379zm-49.9-7.565c.024.57.062 1.146.132 1.728a1.09 1.09 0 0 0-.777.434c-1.018 1.06-2.412 4.091-4.777 9.019-3.916-7.262-4.76-8.211-9.442-13.027l-.455-.468c-.882-1.39-1.745-2.66-2.557-3.839l-1.115-1.612.073-.453c.127-.82.254-1.645.433-2.426a10.18 10.18 0 0 1 .431-1.447v-.18a13.927 13.927 0 0 1 2.46-1.595c.484-.31 1.03-.634 1.62-.97 5.22 1.144 11.414 1.888 15.21 2.553a22.067 22.067 0 0 1-.648 5.008 39.622 39.622 0 0 0-.589 5.13 26.347 26.347 0 0 0-.018 1.687c.004.152.013.306.019.458zm-8.625-17.57c5.211-2.467 11.958-5.257 18.855-7.957a33.29 33.29 0 0 0 9.13 5.855c-5.53-1.296-14.01-1.704-16.313 3.25-4.03-.266-7.971-.578-11.672-1.148zm24.025-9.955q1.684-.644 3.347-1.27l.482 1.254a1.2 1.2 0 0 0 .684.683l5.026 1.824a1.2 1.2 0 0 0 .756 0 68.614 68.614 0 0 0 13.903-6.298l8.709-4.858h.06l4.557-2.96c.052-.003.104 0 .157-.003a11.094 11.094 0 0 0 5.89-1.873 18.217 18.217 0 0 1 2.219.073 1.305 1.305 0 0 1 .312.06l3.203 1.104a1.405 1.405 0 0 1 .372.204l7.58 6.346a1.2 1.2 0 0 0 .637.264l1.619.156a1.2 1.2 0 0 0 1.284-1.056l.438-4.918a7.9 7.9 0 0 0 4.294.898 27.943 27.943 0 0 1-6.448 6.767c-11.708 8.217-29.497 15.678-44.744 10.568a60.004 60.004 0 0 1-14.337-6.965zm-6.524 14.246h-.048a9.933 9.933 0 0 1 1.568-.476c.088-.02.176-.038.264-.056.166-.033.328-.079.496-.103l1.159.104.304.028a74.84 74.84 0 0 1 19.781 7.197c3.19 1.74 5.026 3.899 9.86 4.27l-.071 1.932a7.863 7.863 0 0 1-1.234.64c-2.616 1.116-6.103 1.284-8.59 2.539l.04.002a25.62 25.62 0 0 1 10.527 2.673l-.023.605a476.314 476.314 0 0 1-.169 4.193c-2.75 1.905-5.405 4.343-8.24 6.667a63.353 63.353 0 0 1-2.864 2.23 35.726 35.726 0 0 1-3.89 2.5c-.332.178-.766.392-1.275.629-.125.058-.265.12-.4.18-.816.37-1.785.78-2.838 1.195-3.819 1.506-8.64 3.036-10.554 2.59a1.837 1.837 0 0 1-.692-.34 4.333 4.333 0 0 1-1.244-2.38c-.144-.513-.285-1.052-.463-1.587a37.45 37.45 0 0 0-.246-.697c-1.479-4.087-4.337-10.197-4.552-15.99-.216-4.366-1.464-15.738 3.394-18.545zm77.445-32.784l-.01.02a8.418 8.418 0 0 1-.32.66 8.369 8.369 0 0 1-4.096 3.747 5.112 5.112 0 0 1-3.742-.402 2.735 2.735 0 0 1-1.62-2.885c.236-1.666-1.83-2.952-2.85-1.517a2.175 2.175 0 0 0-.185.317 5.15 5.15 0 0 1-.967 1.37c-2.66 2.708-8.058 2.358-10.153-1.142a2.392 2.392 0 0 0-.221-.207 2.556 2.556 0 0 0-2.82-.164 2.913 2.913 0 0 0-.558.48 6.247 6.247 0 0 1-.581.813c-3.001 3.586-9.598 3.366-11.895-.814-.548-1.036-1.35-1.085-1.9-.578a2.052 2.052 0 0 0-.595 1.346 2.837 2.837 0 0 1-.38 1.182 3.832 3.832 0 0 1-.626.813 5.946 5.946 0 0 1-2.382 1.393l-.068.023a4.858 4.858 0 0 1-2.242.188 6.28 6.28 0 0 1-1.35-.419l-.049-.02a11.918 11.918 0 0 1-3.914-2.974c-.423-.462-.82-.931-1.177-1.386a1.132 1.132 0 0 0-1.907-.146 2.183 2.183 0 0 0-.396.674 5.486 5.486 0 0 1-1.525 2.223l-.04.035a6.153 6.153 0 0 1-4.801 1.36 5.628 5.628 0 0 1-4.658-3.618 1.693 1.693 0 0 0-2.75-.786 1.599 1.599 0 0 0-.357 1.146 4.844 4.844 0 0 1-5.494 4.582 7.915 7.915 0 0 1-4.36-2.86 11.558 11.558 0 0 1-.507-.662c-.034-.046-.072-.09-.105-.136a11.74 11.74 0 0 1-1.026-1.788 8.876 8.876 0 0 1 .528-6.49 21.46 21.46 0 0 1 6.994-9.02 28.286 28.286 0 0 1 11.156-4.499 93.565 93.565 0 0 1 11.996-1.331c3.034-.168 6.13.288 9.176.216s6.058.168 9.129.228 6.118-.096 9.14.144a39.865 39.865 0 0 1 10.257 2.255 25.66 25.66 0 0 1 9.127 5.049l.002.001c3.49 3.227 7.293 8.673 5.122 13.58zM199.28 332.512a137.43 137.43 0 0 0-3.489-1.7 285.852 285.852 0 0 0-.431-9.283q-.21-3.464-.506-6.953-.303-3.587-.694-7.19c-2.902-26.618-9.449-53.62-19.673-75.55.024-.219.056-.42.084-.63a19.402 19.402 0 0 1 .622-3.03c1.008.144 2.008.33 3.003.538a46.859 46.859 0 0 1 12.694 4.662c.533.289 1.068.573 1.59.883 5.41-3.275 15.727-7.833 15.727-7.833l3.759-1.374c5.478 5.692 14.216 12.749 20.784 9.387 3.415-1.739 5.058-5.808 6.154-9.434a52.63 52.63 0 0 0 5.974 7.922c1.943 2.555 7.953 12.08 9.356 12.752 1.848.875 4.007-11.06 5.818-10.197.54 3.971 1.2 4.99 3.37 11.876 2.4 7.606 3.468 16.962 14.396 12.86a50.138 50.138 0 0 0 3.7-1.581q1.437-.676 2.858-1.431c.276-.147.55-.299.826-.449a2.14 2.14 0 0 0-.139 1.745c2.307 7.215 3.157 14.655 3.693 22.144.172 2.407.313 4.818.458 7.23l.083 1.39c-18.107 1.011-38.575 2.897-53.961 4.907-.808.105-1.628.21-2.406.316a35.172 35.172 0 0 1-5.242-13.927 17.694 17.694 0 0 0-1.326-4.69c-1.229-2.635-2.801-3.208-3.533-1.511-1.859 4.33-1.02.42 4.859 19.193 1.2 4.006-2.148-4.63-5.938-5.998-1.488 4.678 1.38 4.522 3.598 7.557s-7.413-1.343-7.377 4.499c.304.048.635.09.986.124 5.19.512 15.188-.358 20.03 1.687q.254 2.968.545 5.903c.807 8.164 1.818 16.203 2.94 24.472q.266 1.962.54 3.945c.18 1.302.364 2.62.549 3.938.438 3.128.884 6.29 1.34 9.533-19.003-.985-31.831-9.778-45.62-16.702zm119.798 57.336a103.946 103.946 0 0 1-26.845 2.674 120.956 120.956 0 0 1-31.929-4.982 366.15 366.15 0 0 1-12.11-47.86q-.363-1.96-.706-3.937-.344-1.963-.668-3.945c-1.643-9.922-3.009-20.168-4.186-31.01 17.034-3.072 34.284-5.219 51.582-5.087 5.543.22 11.111.374 16.611 1.096a66.37 66.37 0 0 1 5.965 1.04c.112.73.213 1.461.31 2.192 1.4 10.687 1.102 21.257 1.945 31.769q.158 1.973.38 3.945c.026.236.048.472.076.707q.184 1.604.329 3.235c1.45 16.165.371 34.103 3.474 49.007-1.37.424-2.788.802-4.228 1.156zm-20.175-103.39a8.518 8.518 0 0 1-.213-1.577 4.143 4.143 0 0 1 .15-1.386 3.682 3.682 0 0 1 3.737-2.573 9.79 9.79 0 0 1 1.696.28 2.496 2.496 0 0 1 2.072 2.074 5.492 5.492 0 0 1 .095 1.245c-.084 2.567-.492 3.599-3.6 3.875-2.598.31-3.561-.455-3.937-1.937zm38.03 85.608c-1.586.535-2.9 1.043-4.25 1.458a22.51 22.51 0 0 1-7.158 1.013c-.37-8.249-1.48-20.855-1.202-28.706l.002-.084a17.36 17.36 0 0 0 3.76-.638c.638-.16 1.276-.325 1.919-.462l.033-.007c.17-.036.34-.063.51-.094a12.99 12.99 0 0 1 1.384-.19l.851.096c1.032 8.853 4.559 17.873 4.115 27.614zm-13.268-33.197c-.08-1.044-.154-2.085-.23-3.126q-.146-1.975-.28-3.945c-.524-7.598-.931-15.153-1.093-22.718a309.79 309.79 0 0 1-.052-10.992c3.719-1.2 6.994-1.2 10.724-1.2a71.889 71.889 0 0 1 1.74 8.479c1.258 8.38 1.578 17.632 2.384 26.43q.182 1.993.406 3.946c.03.263.057.53.089.791-4.907 1.018-8.466 1.605-13.688 2.335zm2.844-49.382h.035c-2.11 1.241-4.645.79-8.333.156a147.122 147.122 0 0 0-2.3-.38c-.188-.029-.385-.056-.579-.085a54.76 54.76 0 0 0-8.768-.627 5.28 5.28 0 0 0 1.28-3.67 4.996 4.996 0 0 0-.498-2.213 5.333 5.333 0 0 0-1.801-2.2 3.94 3.94 0 0 0-2.884-.637c-3.054.454-4.987 1.88-5.405 4.222a5.646 5.646 0 0 0-.089.996l.001.121a5.588 5.588 0 0 0 1.555 3.644q-2.28.09-4.643.204l-.071-1.109-.18-2.847c-.59-9.402-1.255-18.804-4.135-27.843a2.309 2.309 0 0 0-2.384-1.655 105.766 105.766 0 0 0 8.946-5.902 98.398 98.398 0 0 0 2.744-2.084 32 32 0 0 0 3.037-2.607c1.236-1.403 1.776-2.111 2.7-3.13a5.633 5.633 0 0 0 4.599-.151c.181-.075.36-.154.538-.235.046-.022.093-.042.14-.063l.397-.191c1.391-.676 2.705-1.396 4.114-1.244 3.599.384 9.105 3.599 16.998 4.246s12.2.996 14.299-2.063c2.155-4.069 3.058-11.532 2.503-18.639l6.925 2.265-.3-4.498-1.83-7.302-.725-2.895-.38-1.034 7.434 1.934 12.431 1.69c.06.306.116.624.164.973a9.416 9.416 0 0 1-.293 2.533c-1.004 4.902-4.13 14.504-4.577 16.744-2.399 12.14-7.977 28.178-13.195 40.894-1.92 4.63-3.743 10.412-6.262 11.408-6.945 2.614-15.33-.384-21.208 3.274zm19.663 41.494c-.179.002-.343.02-.53.011-.182-2.242-.442-4.51-.73-6.785-1.213-9.587-3.148-19.343-4.069-28.35 3.191-.168 1.2-.072 5.842-.264l1.932.24c3.717 6.428 5.233 16.075 5.68 24.837.08 1.587.125 3.138.142 4.642.014 1.18.014 2.335-.004 3.437h.036c-2.93.559-4.892 2.202-8.3 2.232zm53.295-19.59c1.452 6.646-.33 13.163-4.045 17.276a12.904 12.904 0 0 1-6.512 4.005h.036c-5.686 1.38-14.395 1.74-18.125-.06 3.637-1.982 8.717-2.4 13.307-3.355a32.215 32.215 0 0 0 3.367-.856c-6.766-2.91-16.42-.76-24.886-.69a40.98 40.98 0 0 1-2.92-.065q-.112-1.15-.221-2.313c-.177-1.876-.35-3.77-.53-5.662-.83-8.741-1.79-17.455-3.82-24.234a13.435 13.435 0 0 1 2.317-1.928c6.094-4.09 16.684-5.637 23.042-9.708 1.38-.744.54-.372 2.603-.923a10.482 10.482 0 0 1 9.525 5.278 11.932 11.932 0 0 1 .646 1.138 53.594 53.594 0 0 1 3.298 9.644c1.177 4.44 2.189 9.168 2.918 12.453zm29.97-80.12l-37.136 46.566c-10.108-5.138-26.256 2.22-35.84 7.008 5.879-15.475 10.941-31.525 16.135-48.883a127.37 127.37 0 0 0 5.842-26.57c-4.594-5.998-8.193-5.998-13.999-7.27-6.95-2.88-11.804-4.086-14.556-5.398a4.328 4.328 0 0 1-2.538-2.284 2.474 2.474 0 0 1-.096-.295c-.624-3.07 7.198-13.71 8.853-17.07a96.228 96.228 0 0 0 5.098-14.683c5.079-21.442 8.013-43.427 5.331-65.016a27.81 27.81 0 0 1-1.956 1.022c-.227.108-.451.217-.687.323-.223.1-.458.195-.69.292-.57.24-1.162.476-1.792.704.36 4.322.483 8.928.718 13.553 1.167 22.527-3.324 45.688-13.147 63.546a15.304 15.304 0 0 0-1.788-5.055 24.747 24.747 0 0 0-6.861-6.85 30.95 30.95 0 0 0-8.59-4.198 43.856 43.856 0 0 0-9.704-1.8c-3.287-.36-6.538-1.283-9.896-1.283s-6.694.948-9.945.948c-3.479.036-7.077-.912-10.676-.732a78.48 78.48 0 0 0-10.604 1.416 40.402 40.402 0 0 0-9.933 3.766c-4.558 2.16-7.545 6.118-9.848 10.556-1.704 3.275-2.471 6.514-1.008 10.017.072.06.048.108.072.192s-.168.252-.168.336c1.586 3.365 4.522 6.372 8.297 6.85-1.664.52-3.256 1.022-4.732 1.494-5.574-5.805-10.285-12.49-15.405-19.596.287 8.014 5.708 14.726 11.291 20.932-1.419.47-2.6.872-3.445 1.176-3.443 1.247-6.574 3.275-9.945 4.714-1.738.728-3.833 1.875-5.852 2.783-.519.233-1.033.452-1.534.642.064-.088.29-.334.237-.594-1.608-5.446-4.799-10.796-10.797-12.283a13.195 13.195 0 0 0-3.625-.363 98.607 98.607 0 0 1-5.503-15.88 31.191 31.191 0 0 1-1.02-6.825c.706-3.846 7.408-5.591 5.08-10.825-.046-.104-.072-.2-.126-.307-5.074 0-6.213 4.618-10.868 5.074-5.06.503-9.49-2.236-12.89-6.343-4.705-5.68-7.439-13.98-7.119-19.988.456-8.817 7.906-17.25 18.09-16.134 5.78.636 8.462 5.829 10.042 11.446.387 1.378.71 2.78.994 4.148 4.15.216 10.148-.18 12.116-3.418-.206-5.635-2.124-10.472-3.121-15.414a25.98 25.98 0 0 1-.586-6.083c.045-.825.113-1.648.195-2.47l-.556-.044-.704-.059-.448-.037-.166-.014-1.849-.156c-1.549-.133-2.93-.257-4.103-.364l-1.022-.094-1.02-.095c-1.278-.12-2.01-.193-2.01-.193s.518-.356 1.423-.962c-4.944 2.19-3.045.672-10.637 6.216a49.632 49.632 0 0 0-9.494 1.723c-.27.076-.542.14-.81.22a30.274 30.274 0 0 0-4.144 1.729l-.03.014c-.09.001-.18.005-.272.003h-.051a7.202 7.202 0 0 1-1.393-.16c.383-.403.796-.83 1.225-1.266l.046-.047.246-.25.03-.032c5.43-5.491 14.148-13.244 23.32-18.44 15.09-9.477 34.824-17.13 50.382-22.576 13.97-4.89 32.99-8.603 44.697-10.336 1.332-.198 2.594-.376 3.718-.52 3.53-.455 6.535-.788 9.463-.955a70.265 70.265 0 0 1 9.646.11c3.436.266 7.303.771 12.14 1.588l.381.068c10.51 1.803 15.758 3.812 17.726 4.71q-.371 1.721-.88 3.408a42.489 42.489 0 0 1-.49 1.536 28.14 28.14 0 0 1 2.316 1.265 34.005 34.005 0 0 1 1.447.923q.324.218.653.452a17.67 17.67 0 0 1 4.413 4.22l24.209 11.667a17.387 17.387 0 0 1 8.207 10.301l26.915 118.019a17.372 17.372 0 0 1-2.889 12.835zM226.776 116.018c1.032 4.486 4.606 11.456-1.092 11.612.08-6.991-4.634-12.573-10.863-14.972a87.115 87.115 0 0 1 10.995-5.505l.238-.05c-.194 4.335-.08 4.03.722 8.915z"/><path d="M246.017 203.142q5.542-2.4 11.24-4.426c.821-.287 2.73-.892 5.198-1.66l-.056-.06c-2.494.778-4.423 1.396-5.25 1.696q-5.686 2.05-11.24 4.426c-1.17.504-2.477 1.147-3.808 1.743l.042.053c1.354-.604 2.684-1.26 3.874-1.772zm-44.42-76.356a6.833 6.833 0 0 1 1.214-.842 4.778 4.778 0 0 0-1.214.842zm72.846 66.519c-2.542.771-5.18 1.575-7.625 2.325l.063.06c2.433-.749 5.06-1.551 7.594-2.323zm-44.641-86.439a54.9 54.9 0 0 0-.195 2.47 25.98 25.98 0 0 0 .586 6.082l-.24-8.54zm-3.564 86.707l.004.008a8.88 8.88 0 0 1 1.895.536 8.906 8.906 0 0 0-1.9-.544zm11.394 12.88a11.876 11.876 0 0 0 2.1-.564 28.91 28.91 0 0 0 2.411-.975l-.042-.053c-.8.358-1.606.7-2.404.976l.01.028a11.871 11.871 0 0 1-2.099.564c-.696.116-1.352.257-1.756-.098.402.383 1.07.24 1.78.122zm69.606-59.583l-.01.023.009-.01zm-67.352 73.892c-.023.152-.048.303-.072.453l1.115 1.612.348.12zm30.906 34.138q-.562-1.097-1.244-2.38a4.333 4.333 0 0 0 1.244 2.38zm107.941 39.95a18.126 18.126 0 0 1 4.131-1.404q-1.625.048-3.163.19c-7.79.708-13.886 3.226-17.553 8.399 6.114.39 10.865-4.507 16.585-7.185zm-2.079 8.933a24.35 24.35 0 0 0-5.222.221c-2.337.388-4.279 1.225-5.278 2.745.976.075 1.98.105 2.996.117 1.69.018 3.42-.039 5.163-.148 1.806-.113 3.617-.274 5.406-.458 2.249-.23 4.458-.488 6.54-.71a35.198 35.198 0 0 0-4.992-1.23 39.381 39.381 0 0 0-4.613-.537zm-8.024 10.06a6.366 6.366 0 0 0-2.8 1.591c.466.039.963.071 1.448.106 1.536.111 3.147.204 4.818.277a266.46 266.46 0 0 0 16.358.18 41.137 41.137 0 0 0-14.255-2.817 18.424 18.424 0 0 0-5.568.663zM252.224 108.228l-.095-.003.03.103.065-.1z"/><path d="M202.811 125.944a6.833 6.833 0 0 0-1.214.842 9.956 9.956 0 0 0-3.107 6.469 6.457 6.457 0 0 0 1.029-.895c1.254-1.276 2.567-2.922 4.897-1.78-2.603 5.074-2.04 14.97 1.56 18.173-.025-6.022-.96-16.326 4.186-16.014 3.587.216 4.318 7.917 7.39 9.669 1.776-8.575-3.03-14.907-8.283-16.738a8.033 8.033 0 0 0-6.458.274zm97.511 133.47c-3.467.516-5.494 2.291-5.494 5.23l.001.134a5.362 5.362 0 0 0 5.493 5.228c.038 0 .076-.002.114-.004a5.302 5.302 0 0 0 5.068-5.526c.096-1.955-1.727-5.578-5.182-5.062zm.12 8.589c-3.359.384-3.959-1.044-4.15-3.539-.169-2.483 1.57-3.886 3.886-3.946 2.867.251 3.947 1.02 3.863 3.598s-.492 3.599-3.6 3.887zm49.194-164.51l-.036-.048a25.172 25.172 0 0 0 .029 3.352 26.994 26.994 0 0 0 1.835 7.77c.75 1.984 1.604 3.87 2.335 5.876-3.275 2.076-9.657.78-13.351 2.4-.264 10.88 16.83 5.458 19.433-.54-3.851-5.614-6.514-12.416-9.597-18.81zm23.752-24.399a8.046 8.046 0 0 0-.393-.643 17.67 17.67 0 0 0-4.413-4.221q-.33-.234-.653-.452a32.064 32.064 0 0 0-1.447-.923 27.791 27.791 0 0 0-2.316-1.265 5.387 5.387 0 0 0-.255-.113 51.827 51.827 0 0 0-13.113-3.723h-.006a54.287 54.287 0 0 0-.905-.12c-.289-.034-.59-.066-.891-.098a64.27 64.27 0 0 0-1.412-.135 78.68 78.68 0 0 0-2.707-.176c-1.634-.08-3.403-.127-5.377-.127-.259 0-.512.005-.77.006-3.573.007-7.079.07-10.535.197-2.787.102-5.545.247-8.273.454q-2.61.197-5.19.473c-4.177.439-8.309 1.02-12.419 1.81-11.243 2.672-19.867 5.022-26.859 7.217a208.501 208.501 0 0 0-5.28 1.733 154.724 154.724 0 0 0-10.134 3.859q-1.074.454-2.1.909a161.822 161.822 0 0 0-6.892 3.259c-.908.453-1.81.911-2.716 1.376-1.179.431-2.47.983-3.829 1.615a152.887 152.887 0 0 0-14.025 7.724l-.209.127-.29.178-.283.174-.72.442-.063.04a322.85 322.85 0 0 0-9.566 6.156c-.905.606-1.424.962-1.424.962a414.568 414.568 0 0 0 3.03.288l1.023.094c1.173.107 2.554.23 4.103.364l1.85.156.165.014.448.037.704.059.556.045.15.012c6.695.541 15.074 1.128 22.177 1.347l.095.003c2.896.088 5.58.116 7.84.052 5.926-.168 14.944.098 24.527.325 1.806.043 3.633.084 5.463.12a15.297 15.297 0 0 1-.148-1.232 9.21 9.21 0 0 1 .387-3.808v-.024a50.95 50.95 0 0 1 2.341 5.114 259.272 259.272 0 0 0 26.293-.495c15.679-1.5 21.952-3.287 33.468-5.998a81.165 81.165 0 0 0 9.011-2.565c.63-.228 1.221-.464 1.793-.704.23-.097.466-.193.69-.292.235-.105.46-.215.686-.323a27.808 27.808 0 0 0 1.956-1.022 31.95 31.95 0 0 0 6.857-5.494c3.203-6.298 3.203-8.29 0-12.788zm-99.889 25.287c-5.206 0-8.78-.396-15.246-.78l-3.081-.186-2.013-.122-6.858-.415-10.84-.656a85.557 85.557 0 0 1 6.933-4.481 85.57 85.57 0 0 1 4.199-2.309 64.832 64.832 0 0 1 11.348-4.847c.117-.038.23-.082.348-.119l1.561 1.122 2.562 1.84 6.567 4.718 9.247 6.643s.551.18-4.727-.408zm9.081.432l-8.749-7.68-5.59-4.906-4.698-4.124 6.717-2.267 5.038 4.959 5.056 4.977 9.184 9.04z"/><path d="M296.843 124.078c-4.019 3.899-11.228.66-16.602.408-5.098 8.097 10.004 9.62 16.494 7.701 1.775-.528 4.858-3.19 5.278-4.39 1.8-5.062-1.835-7.282-3.706-9.105-2.837-2.763-4.178-6.265-5.673-9.917a50.95 50.95 0 0 0-2.34-5.114v.024a9.21 9.21 0 0 0-.388 3.808c.032.404.08.815.148 1.233a37.1 37.1 0 0 0 4.136 10.807 82.227 82.227 0 0 0 2.653 4.545zm35.411 15.798a18.429 18.429 0 0 1-1.487-1.367c-4.738-5.182-10.928-12.56-13.387-18.342a3.522 3.522 0 0 1-.132-.575c-.216-1.032-.516-2.4-1.512-2.831a1.704 1.704 0 0 0-1.667.348l-.24.18v.287c-.228 8.397 5.65 15.487 10.364 21.149l.852 1.008c.396.491.804.935 1.2 1.367 1.93 2.087 3.214 3.49 1.415 6.658-1.044.408-2.231.983-3.479 1.583-3.886 1.883-8.733 4.223-12.931 3.503-1.583-.276-1.943-1.416-2.4-3.287a8.396 8.396 0 0 0-.779-2.4l-.456-.779-.378.505-.008.01-.154.205a7.641 7.641 0 0 0 .984 9.836l.144.12h.192a28.92 28.92 0 0 0 3.01.156c9.118 0 15.691-4.234 21.09-7.689l.323-.216-.06-.384a5.997 5.997 0 0 1 .576-2.315 8.013 8.013 0 0 0 .792-4.582c-.168-.684-.924-1.332-1.872-2.148zm-91.131 77.384l-.168.085c-.456.492-.048.204.168-.084zm-18.881-9.248a25.288 25.288 0 0 1-6.514 1.62c-.336.03-.71.07-1.1.101a5.838 5.838 0 0 1-3.29-.425 1.8 1.8 0 0 0-1.812 3.107 8.587 8.587 0 0 0 4.168 1.065 26.615 26.615 0 0 0 9.507-1.989 1.81 1.81 0 0 0 1.188-1.512c.153-1.195-.734-2.5-2.147-1.967zm-1.177-11.399c-.988.227-1.91.502-2.638.735-3.023.888-9.273 2.831-9.657 6.478-.144 1.295.216 2.399 1.524 2.77.024.003.047 0 .071.003a14.382 14.382 0 0 0 2.117.003c.415-.026.83-.05 1.243-.113a21.121 21.121 0 0 0 4.678-.456 36.596 36.596 0 0 0 8.254-2.847c.024-.012.048-.02.071-.032a3.202 3.202 0 0 0 1.654-1.334c.018-.03.03-.06.048-.09a3.194 3.194 0 0 0 .385-1.875c-.168-2.622-1.86-3.525-3.922-3.651-.044-.003-.086-.01-.13-.011a9.436 9.436 0 0 0-.748-.001 11.88 11.88 0 0 0-.732.05 17.651 17.651 0 0 0-2.218.371zM336.896 39.835h-.23a5.915 5.915 0 0 0-.802 0 8.273 8.273 0 0 1-1.418-.12.685.685 0 0 1-.308-.269l-.032-.05-.277-.06a10.677 10.677 0 0 0-2.229-7.076l.24-.25-.01-.067a.524.524 0 0 1 .065-.346 7.516 7.516 0 0 1 1.179-.919 7.145 7.145 0 0 0 .656-.472l.163-.15a.957.957 0 0 0-1.234-1.463.614.614 0 0 0-.056.052l-.176.164a5.772 5.772 0 0 0-.499.62 8.179 8.179 0 0 1-.974 1.03.738.738 0 0 1-.414.08l-.06-.006-.24.21a10.788 10.788 0 0 0-6.866-2.685v-.301l-.068-.042a.514.514 0 0 1-.232-.289 7.29 7.29 0 0 1 .001-1.461v-.77a1.75 1.75 0 0 0 0-.24.998.998 0 0 0-1.017-.977h-.018l-.252.032.07.087a1 1 0 0 0-.636 1.04v.224a5.251 5.251 0 0 0 .171.78 8.122 8.122 0 0 1 .2 1.42.788.788 0 0 1-.19.36l-.037.04v.283a10.535 10.535 0 0 0-6.408 3.717l-.264-.153-.063.023a.562.562 0 0 1-.368.012 8.266 8.266 0 0 1-1.17-.875 5.076 5.076 0 0 0-.6-.548l-.19-.133a1.096 1.096 0 0 0-.66-.192.926.926 0 0 0-.74.403 1.018 1.018 0 0 0 .329 1.39l.188.125a6.368 6.368 0 0 0 .717.353 7.942 7.942 0 0 1 1.233.73.886.886 0 0 1 .165.38l.01.052.222.175a10.6 10.6 0 0 0-1.144 6.899c.024.142.04.285.071.427l-.274.108-.024.048a.928.928 0 0 1-.254.309 7.494 7.494 0 0 1-1.385.345 5.639 5.639 0 0 0-.767.12h-.216l-.037.004a1.012 1.012 0 0 0-.706 1.23c.012.03.036.05.05.079a.998.998 0 0 0 1.11.535.932.932 0 0 0 .1-.012l.227-.064a3.494 3.494 0 0 0 .426-.197c.093-.048.186-.097.297-.146a7.068 7.068 0 0 1 1.321-.512.698.698 0 0 1 .405.101l.05.028.285-.069a10.871 10.871 0 0 0 5.058 5.39l-.101.313.03.054a.74.74 0 0 1 .09.361 8.907 8.907 0 0 1-.613 1.318 6.37 6.37 0 0 0-.393.699l-.015.061a.711.711 0 0 1-.084.173.962.962 0 0 0-.055.268 1 1 0 0 0 .582 1.047.968.968 0 0 0 .324.056.981.981 0 0 0 .715-.322.95.95 0 0 0 .21-.33.33.33 0 0 0 .018-.073.357.357 0 0 1 .03-.067.452.452 0 0 0 .049-.112 6.952 6.952 0 0 0 .183-.781 5.73 5.73 0 0 1 .493-1.455.555.555 0 0 1 .254-.138l.066-.017.134-.298a10.766 10.766 0 0 0 6.105-.035 10.535 10.535 0 0 0 1.265-.484l.174.256.067.005a.504.504 0 0 1 .325.151 7.35 7.35 0 0 1 .649 1.3c.04.094.074.185.107.275a3.86 3.86 0 0 0 .203.478s.08.122.111.185a.957.957 0 1 0 1.742-.793.884.884 0 0 0-.09-.152l-.124-.211a6.684 6.684 0 0 0-.487-.636 7.448 7.448 0 0 1-.352-.458 7.51 7.51 0 0 1-.454-.702.54.54 0 0 1 0-.39l.022-.056-.025-.055-.102-.208a10.716 10.716 0 0 0 4.152-6.164h.295l.042-.042a.562.562 0 0 1 .328-.164 7.633 7.633 0 0 1 1.43.309c.104.028.2.06.294.093a3.491 3.491 0 0 0 .499.14l.175-.003a.978.978 0 0 0 1.159-.763l.005-.035a1.003 1.003 0 0 0-.896-1.089zm-8.449-7.475l-3.155 2.625a.595.595 0 0 1-.804-.048.534.534 0 0 1-.143-.33l-.565-4.065a8.447 8.447 0 0 1 4.667 1.818zm-5.877 5.316l1.17-.097.795.849-.171 1.16-1.01.592-1.075-.43-.353-1.074zm-6.795-2.486l3.273 2.5a.578.578 0 0 1 .135.79.613.613 0 0 1-.282.224l-3.835 1.44a8.314 8.314 0 0 1 .709-4.954zm4.662 6.974l-.62 1.905-.647 1.987a8.422 8.422 0 0 1-3.425-3.67l.382-.095 3.556-.89.167-.001a.572.572 0 0 1 .587.407.565.565 0 0 1 0 .357zm.552-6.73a.517.517 0 0 1-.345-.09l-3.538-2.119a8.25 8.25 0 0 1 3.687-2.34 5.197 5.197 0 0 1 .648-.16l.08 4.11a.578.578 0 0 1-.532.598zm4.758 11.305c-.085.027-.174.04-.26.063a8.25 8.25 0 0 1-4.095.095l.769-1.698.925-2.044a.555.555 0 0 1 .449-.316l.022-.004a.524.524 0 0 1 .254-.003.533.533 0 0 1 .276.221l2.3 3.45zm2.645-1.364l-1.867-3.69a.565.565 0 0 1 .222-.76.638.638 0 0 1 .216-.078l.118-.02v-.003l4.14.369a8.3 8.3 0 0 1-2.829 4.182zm-.921-7.336a.578.578 0 0 1-.462-.66.542.542 0 0 1 .153-.316l2.869-2.998a8.58 8.58 0 0 1 1.094 2.306 8.398 8.398 0 0 1 .38 2.497zm12.533 131.299l-.002-.001.002.001zm5.122 13.579l-.01.02zm-27.578.313a6.272 6.272 0 0 1-.545.777 6.247 6.247 0 0 0 .58-.814 2.377 2.377 0 0 1 .241-.237c-.022.02-.047.032-.069.053a2.394 2.394 0 0 0-.207.22zm-45.883 4.31a4.773 4.773 0 0 1-2.739.701q-.233-.011-.465-.046a7.89 7.89 0 0 1-4.324-2.824 7.915 7.915 0 0 0 4.36 2.86 4.798 4.798 0 0 0 5.494-4.582 1.599 1.599 0 0 1 .356-1.146 1.57 1.57 0 0 0-.392 1.182 4.792 4.792 0 0 1-2.29 3.856zm14.923-2.026c-.011.01-.02.023-.032.033l.04-.035a5.486 5.486 0 0 0 1.526-2.223 2.183 2.183 0 0 1 .396-.674 2.144 2.144 0 0 0-.432.71 5.468 5.468 0 0 1-1.498 2.19zm15.634-.383a3.758 3.758 0 0 1-.615.825 3.832 3.832 0 0 0 .626-.813 2.837 2.837 0 0 0 .38-1.182 2.052 2.052 0 0 1 .596-1.346 1.912 1.912 0 0 0-.632 1.382 2.822 2.822 0 0 1-.355 1.134zm29.114-.905a5.15 5.15 0 0 0 .966-1.369 2.175 2.175 0 0 1 .187-.317 2.032 2.032 0 0 0-.223.353 5.169 5.169 0 0 1-.93 1.333zM539.784 507.68q-3.538-6.974-7.725-14.154a51.28 51.28 0 0 0-9.638-12.106q-1.695 1.855-4.278 5.189c-1.73 2.207-3.413 4.55-5.177 7.043a89.014 89.014 0 0 0-4.847 7.737c-1.502 2.662-2.617 4.767-3.356 6.292h-21.425a217.529 217.529 0 0 1 12.516-20.22q7.088-10.41 15.929-22.14l-27.307-41.224h22.756L523.16 448.3l16.282-24.201h21.47l-27.125 40.335a255.512 255.512 0 0 1 17.568 24.508q6.895 11.14 10.877 18.74zM70.405 424.098H25.94v4.55c1.07.137 2.469.41 4.13.74a20.14 20.14 0 0 1 4.278 1.275 5.598 5.598 0 0 1 3.14 2.469 7.965 7.965 0 0 1 .66 3.538v51.759c0 6.827-1.33 11.947-4.005 15.292a13.233 13.233 0 0 1-11.082 5.063 8.75 8.75 0 0 1-3.595-.796 4.29 4.29 0 0 1-2.276-2.003v-.74a40.277 40.277 0 0 0 5.94-5.87 10.673 10.673 0 0 0 2.605-6.94 10.07 10.07 0 0 0-2.992-7.42 11.048 11.048 0 0 0-8.181-2.97 10.57 10.57 0 0 0-8.477 3.596 13.21 13.21 0 0 0-3.072 9.023 17.488 17.488 0 0 0 6.747 14.484c4.472 3.539 10.343 5.268 17.693 5.268a38.39 38.39 0 0 0 11.879-1.797 33.36 33.36 0 0 0 10.08-5.337 25.59 25.59 0 0 0 7.01-8.886 26.84 26.84 0 0 0 2.537-11.617v-50.598a9.353 9.353 0 0 1 .671-3.743 4.187 4.187 0 0 1 3.072-2.276c1.332-.341 2.595-.603 3.664-.808s2.47-.398 4.005-.603zm48.835 73.832a17.34 17.34 0 0 1-9.956 3.004c-6.736 0-11.685-2.071-14.791-6.27s-4.609-10.24-4.609-18.296h39.653v-3.811a30.129 30.129 0 0 0-1.536-9.547 20.173 20.173 0 0 0-4.87-7.873 23.439 23.439 0 0 0-8.75-5.541 38.685 38.685 0 0 0-13.483-2.003 33.986 33.986 0 0 0-13.517 2.606 29.162 29.162 0 0 0-16.361 16.487 30.573 30.573 0 0 0-2.208 11.503 36.58 36.58 0 0 0 2.003 12.288 26.84 26.84 0 0 0 6.133 9.808 30.152 30.152 0 0 0 10.422 6.61 40.563 40.563 0 0 0 15.019 2.47 35.114 35.114 0 0 0 9.216-1.138 39.072 39.072 0 0 0 7.965-3.414 28.627 28.627 0 0 0 6.61-5.074 36.149 36.149 0 0 0 4.939-6.27l-4.404-3.208a26.477 26.477 0 0 1-7.475 7.669zm-26.306-40.961q2.696-4.552 7.202-4.551a6.668 6.668 0 0 1 4.347 1.399 9.103 9.103 0 0 1 2.73 4.142 25.613 25.613 0 0 1 1.206 6.076c.205 2.469.33 4.87.33 7.202L90 471.51c.102-6.69 1.103-11.526 2.912-14.575zm112.335 44.898a4.38 4.38 0 0 1-2.4-2.06 7.168 7.168 0 0 1-.672-3.413V467.55q0-9.011-4.813-14.416c-3.197-3.607-7.964-5.404-14.347-5.404a27.147 27.147 0 0 0-7.476 1.001 21.323 21.323 0 0 0-5.689 2.4 33.232 33.232 0 0 0-4.335 3.335c-1.604 1.41-2.947 2.537-4.005 3.538h-.273v-8.477l-.865-.864-27.978 1.536v4.266a18.968 18.968 0 0 1 3.538.672 11.036 11.036 0 0 1 2.674 1.206 7.885 7.885 0 0 1 2.469 2.867 8.021 8.021 0 0 1 .933 3.607v34.134a7.555 7.555 0 0 1-.728 3.539 4.108 4.108 0 0 1-2.606 2.002 16.51 16.51 0 0 1-2.537.535c-1.001.137-1.934.262-2.936.33v4.278h35.648v-4.278a22.603 22.603 0 0 1-2.742-.603 10.672 10.672 0 0 1-2.333-.933 4.187 4.187 0 0 1-1.934-2.07 8.204 8.204 0 0 1-.603-3.414v-31.45c.467-.67 1.07-1.41 1.741-2.207a13.95 13.95 0 0 1 2.73-2.4 15.087 15.087 0 0 1 3.937-2.071 13.653 13.653 0 0 1 4.415-.74 7.498 7.498 0 0 1 6.474 3.004q2.196 3.004 2.196 9.023v27.432a9.615 9.615 0 0 1-.534 3.607 3.641 3.641 0 0 1-1.73 1.866 6.509 6.509 0 0 1-2.4.603c-1.002.069-1.935.205-2.675.262v4.278h35.272v-4.323a18.398 18.398 0 0 1-3.14-.592 18.663 18.663 0 0 1-2.275-.762zm109.15-79.18a11.8 11.8 0 0 0-8.215 3.14 10.24 10.24 0 0 0 0 15.224 12.038 12.038 0 0 0 8.215 3.14 11.742 11.742 0 0 0 8.147-3.14 10.024 10.024 0 0 0 3.413-7.612 9.922 9.922 0 0 0-3.413-7.612 11.628 11.628 0 0 0-8.147-3.14zm96.008 79.18a4.403 4.403 0 0 1-2.412-2.06 7.316 7.316 0 0 1-.66-3.413V467.55q0-9.011-4.813-14.416c-3.197-3.607-7.965-5.404-14.348-5.404a27.307 27.307 0 0 0-7.486 1.001 21.403 21.403 0 0 0-5.69 2.4 32.542 32.542 0 0 0-4.346 3.335c-1.593 1.41-2.935 2.537-4.005 3.538h-.262v-8.477l-.864-.864-27.956 1.536v4.266a18.967 18.967 0 0 1 3.538.672 11.036 11.036 0 0 1 2.674 1.206 7.885 7.885 0 0 1 2.47 2.867 8.021 8.021 0 0 1 .932 3.607v34.134a7.407 7.407 0 0 1-.74 3.539 4.085 4.085 0 0 1-2.593 2.002 16.51 16.51 0 0 1-2.538.535c-1.001.137-1.934.262-2.947.33v4.278h35.66v-4.278a21.71 21.71 0 0 1-2.743-.603 10.672 10.672 0 0 1-2.276-.933 4.187 4.187 0 0 1-1.934-2.07 8.033 8.033 0 0 1-.603-3.414v-31.45c.467-.67 1.07-1.41 1.73-2.207a14.393 14.393 0 0 1 2.742-2.4 14.905 14.905 0 0 1 3.937-2.071 13.654 13.654 0 0 1 4.403-.74 7.52 7.52 0 0 1 6.485 3.004q2.208 3.004 2.196 9.023v27.432a9.614 9.614 0 0 1-.534 3.607 3.641 3.641 0 0 1-1.73 1.866 6.577 6.577 0 0 1-2.412.603c-1.001.069-1.934.205-2.662.262v4.278h35.272v-4.323a18.398 18.398 0 0 1-3.14-.592 18.022 18.022 0 0 1-2.345-.762zm59.007-24.566c-1.332-1.263-1.07-.933-.467-.398-3.265-2.867-8.203-5.211-14.882-6.94a49.815 49.815 0 0 1-10.548-3.744 6.827 6.827 0 0 1-3.811-6.474 6.133 6.133 0 0 1 2.605-5.211 11.629 11.629 0 0 1 7.077-1.866 15.93 15.93 0 0 1 10.753 4.403 24.884 24.884 0 0 1 7.009 10.548h4.141l-.933-20.026h-4.483v.068a2.355 2.355 0 0 1-.933 2.333c-1.331.671-4.005-.262-4.005-.262-1.138-.341-2.4-.74-3.8-1.07a41.108 41.108 0 0 0-9.82-1.069c-7.543 0-13.653 1.673-18.204 5.075a15.838 15.838 0 0 0-6.94 13.346 17.067 17.067 0 0 0 1.603 7.68 17.33 17.33 0 0 0 4.21 5.542 23.098 23.098 0 0 0 5.871 3.811 67.87 67.87 0 0 0 6.827 2.4l6.747 2.003a27.305 27.305 0 0 1 5.007 2.003 11.696 11.696 0 0 1 3.208 2.674 6.11 6.11 0 0 1 1.195 3.868 7.76 7.76 0 0 1-2.594 6.406c-1.741 1.4-4.415 2.071-7.965 2.071a16.521 16.521 0 0 1-7.612-1.798 28.444 28.444 0 0 1-6.269-4.471 34.396 34.396 0 0 1-4.676-5.951 28.445 28.445 0 0 1-2.936-5.94h-4.278l.535 15.93.204 5.95h4.21v-.068a2.367 2.367 0 0 1 1.002-2.537c1.866-.865 3.732.068 5.609.728 1.195.467 2.47.945 3.937 1.411.603.194 1.195.33 1.798.535a36.808 36.808 0 0 0 9.352 1.138c8.079 0 14.678-1.73 19.627-5.337a17.067 17.067 0 0 0 7.544-14.893 15.713 15.713 0 0 0-4.471-11.48c.625.614.944.944-.444-.388zm-183.722 24.907a8.636 8.636 0 0 1-4.551-3.675c-3.607-5.28-6.94-10.24-10.24-15.02l-10.593-15.428c2.002-1.73 3.743-3.197 5.21-4.335s3.073-2.276 4.677-3.334a48.539 48.539 0 0 1 14.951-6.952v-4.073h-29.094v4.142a27.66 27.66 0 0 1 5.61 1.206c1.263.466 1.866 1.001 1.866 1.73a9.99 9.99 0 0 1-.205 1.273 7.885 7.885 0 0 1-2.128 3.004c-2.139 2.276-5.074 5.075-8.681 8.477s-6.827 6.338-9.751 8.943v-60.554l-.865-.933-29.241 1.536v4.278a23.381 23.381 0 0 1 4.073.603 10.923 10.923 0 0 1 3.334 1.138 6.565 6.565 0 0 1 2.469 3.14 10.092 10.092 0 0 1 .876 4.005v65.424a7.6 7.6 0 0 1-.672 3.539 3.777 3.777 0 0 1-2.537 2.002 19.345 19.345 0 0 1-2.605.535c-1.002.137-1.935.273-2.936.33v4.278h36.41v-4.266a18.57 18.57 0 0 1-2.81-.467 11.865 11.865 0 0 1-2.47-.796 4.119 4.119 0 0 1-2.4-2.003 8.784 8.784 0 0 1-.603-3.413v-12.835l3.47-2.935c2.469 3.538 5.143 7.407 7.965 11.548s5.95 9.217 9.352 15.156h27.501v-4.073a26.328 26.328 0 0 1-5.382-1.195zm42.065-.467a5.37 5.37 0 0 1-2.537-2.139 6.212 6.212 0 0 1-.876-3.47v-46.65l-.865-.865-30.107 1.536v4.267a32.28 32.28 0 0 1 5.2.808 12.243 12.243 0 0 1 3.209 1.331 7.19 7.19 0 0 1 3.277 6.076v34.134a6.69 6.69 0 0 1-.74 3.47 4.938 4.938 0 0 1-2.674 2.003 11.548 11.548 0 0 1-2.537.603c-1.001.068-2.003.205-3.004.273v4.267h37.195v-4.165a20.785 20.785 0 0 1-2.947-.591 25.394 25.394 0 0 1-2.594-.888z"/></svg>