<svg xmlns="http://www.w3.org/2000/svg" role="img" viewBox="-1.83 -9.33 499.66 537.16"><defs><style>.cls-1{isolation:isolate}.cls-2{fill:none}</style></defs><g id="text5675" class="cls-1"><path d="M75.716 437.141q-2.338.293-3.975.586t-3.682.818a4.193 4.193 0 0 0-3.07 2.282 9.79 9.79 0 0 0-.672 3.744v45.745a26.28 26.28 0 0 1-2.542 11.583 25.256 25.256 0 0 1-6.986 8.832 32.258 32.258 0 0 1-10.054 5.295 38.6 38.6 0 0 1-11.867 1.783q-10.931 0-17.624-5.26-6.694-5.262-6.693-14.44a13.311 13.311 0 0 1 3.069-9.001 10.56 10.56 0 0 1 8.447-3.566 11.002 11.002 0 0 1 8.096 2.981 9.957 9.957 0 0 1 3.01 7.366 10.733 10.733 0 0 1-2.601 6.927 40.249 40.249 0 0 1-5.933 5.874v.76a4.35 4.35 0 0 0 2.286 1.988 8.373 8.373 0 0 0 3.576.818 13.363 13.363 0 0 0 11.049-5.03q4.015-5.031 4.016-15.211v-46.859a8.394 8.394 0 0 0-.647-3.51 5.663 5.663 0 0 0-3.113-2.457 22.598 22.598 0 0 0-4.258-1.287q-2.496-.526-4.141-.76v-4.56h44.31zm69.328 64.418a35.586 35.586 0 0 1-4.94 6.284 29.983 29.983 0 0 1-6.575 5.056 36.023 36.023 0 0 1-7.921 3.362 33.716 33.716 0 0 1-9.207 1.14 40.995 40.995 0 0 1-14.935-2.456 29.272 29.272 0 0 1-10.376-6.605 26.424 26.424 0 0 1-6.109-9.791 36.124 36.124 0 0 1-2.016-12.247 30.735 30.735 0 0 1 8.417-21.16 29.817 29.817 0 0 1 10.025-6.723 34.268 34.268 0 0 1 13.533-2.572 38.554 38.554 0 0 1 13.445 1.988 23.807 23.807 0 0 1 8.71 5.494 19.937 19.937 0 0 1 4.851 7.863 29.679 29.679 0 0 1 1.52 9.498v3.8H103.95q0 11.984 4.618 18.238 4.617 6.257 14.672 6.255a17.047 17.047 0 0 0 9.88-3.01 28.188 28.188 0 0 0 7.482-7.63zm-22.33-22.213q0-3.508-.35-7.19a23.947 23.947 0 0 0-1.228-6.02 9.265 9.265 0 0 0-2.718-4.151 6.677 6.677 0 0 0-4.355-1.403q-4.502 0-7.19 4.56-2.69 4.559-2.923 14.438zm105.103 36.184h-35.132v-4.268q1.11-.116 2.69-.292a7.37 7.37 0 0 0 2.396-.585 3.717 3.717 0 0 0 1.754-1.87 9.612 9.612 0 0 0 .526-3.624v-27.357q0-5.963-2.199-8.973a7.511 7.511 0 0 0-6.477-3.01 13.235 13.235 0 0 0-4.366.701 16.3 16.3 0 0 0-3.956 2.046 13.46 13.46 0 0 0-2.726 2.397q-1.026 1.227-1.73 2.162v31.39a8.745 8.745 0 0 0 .585 3.42 4.077 4.077 0 0 0 1.93 2.075 11.119 11.119 0 0 0 2.337.936 18.142 18.142 0 0 0 2.748.584v4.268h-35.541v-4.268q1.46-.116 2.952-.32a14.275 14.275 0 0 0 2.543-.557 4.291 4.291 0 0 0 2.572-1.987 7.58 7.58 0 0 0 .701-3.507V470.87a7.51 7.51 0 0 0-.935-3.566 8.376 8.376 0 0 0-2.455-2.864 9.672 9.672 0 0 0-2.66-1.17 18.775 18.775 0 0 0-3.536-.642v-4.267l27.883-1.52.877.877v8.476h.233q1.636-1.46 3.975-3.508a38.251 38.251 0 0 1 4.326-3.332 21.01 21.01 0 0 1 5.67-2.396 27.343 27.343 0 0 1 7.483-.994q9.527 0 14.292 5.407 4.764 5.408 4.764 14.35v28.644a7.761 7.761 0 0 0 .643 3.448 4.531 4.531 0 0 0 2.397 2.046 19.94 19.94 0 0 0 2.309.819 16.818 16.818 0 0 0 3.127.584zm80.435 0h-27.553q-5.082-8.92-9.287-15.13-4.204-6.209-7.943-11.516l-3.443 2.913v12.743a8.342 8.342 0 0 0 .614 3.449 3.898 3.898 0 0 0 2.367 1.987 14.951 14.951 0 0 0 2.455.819 17.498 17.498 0 0 0 2.806.467v4.268h-36.3v-4.268q1.471-.116 2.941-.32a16.109 16.109 0 0 0 2.59-.557 4.19 4.19 0 0 0 2.56-1.987 7.812 7.812 0 0 0 .677-3.507v-65.178a10.582 10.582 0 0 0-.848-4.004 6.514 6.514 0 0 0-2.484-3.127 10.5 10.5 0 0 0-3.332-1.17 28.914 28.914 0 0 0-4.034-.584v-4.267l29.11-1.52.878.935V486.3q4.32-3.858 9.72-8.942 5.401-5.085 8.67-8.417a7.673 7.673 0 0 0 2.134-3.01 9.803 9.803 0 0 0 .205-1.256q0-1.053-1.846-1.754a27.63 27.63 0 0 0-5.555-1.228v-4.15h29.695v4.034a61.292 61.292 0 0 0-8.9 3.068 52.82 52.82 0 0 0-6.683 3.83q-2.394 1.578-4.637 3.308-2.244 1.728-5.158 4.308 5.719 8.298 10.562 15.366 4.843 7.07 10.153 14.957a8.846 8.846 0 0 0 4.494 3.68 22.035 22.035 0 0 0 5.372 1.17zm37.586 0h-36.943v-4.268q1.518-.116 2.98-.292a10.363 10.363 0 0 0 2.514-.585 4.847 4.847 0 0 0 2.63-2.016 6.929 6.929 0 0 0 .76-3.478V470.87a6.826 6.826 0 0 0-.934-3.595 7.755 7.755 0 0 0-2.339-2.484 12.44 12.44 0 0 0-3.186-1.345 20.813 20.813 0 0 0-3.887-.818v-4.267l28.643-1.52.877.877v46.413a6.538 6.538 0 0 0 .877 3.479 5.308 5.308 0 0 0 2.514 2.133 19.514 19.514 0 0 0 2.572.935 17.563 17.563 0 0 0 2.922.584zm-8.534-79.733a9.886 9.886 0 0 1-3.42 7.57 12.119 12.119 0 0 1-16.25 0 10.12 10.12 0 0 1 0-15.17 12.073 12.073 0 0 1 16.28 0 10.018 10.018 0 0 1 3.39 7.6zm91.073 79.733h-35.131v-4.268q1.11-.116 2.689-.292a7.37 7.37 0 0 0 2.396-.585 3.717 3.717 0 0 0 1.754-1.87 9.612 9.612 0 0 0 .526-3.624v-27.357q0-5.963-2.199-8.973a7.511 7.511 0 0 0-6.476-3.01 13.235 13.235 0 0 0-4.367.701 16.3 16.3 0 0 0-3.956 2.046 13.46 13.46 0 0 0-2.726 2.397q-1.026 1.227-1.73 2.162v31.39a8.745 8.745 0 0 0 .585 3.42 4.077 4.077 0 0 0 1.93 2.075 11.118 11.118 0 0 0 2.338.936 18.143 18.143 0 0 0 2.747.584v4.268h-35.54v-4.268q1.46-.116 2.951-.32a14.275 14.275 0 0 0 2.543-.557 4.291 4.291 0 0 0 2.572-1.987 7.58 7.58 0 0 0 .702-3.507V470.87a7.51 7.51 0 0 0-.936-3.566 8.376 8.376 0 0 0-2.455-2.864 9.672 9.672 0 0 0-2.66-1.17 18.775 18.775 0 0 0-3.536-.642v-4.267l27.883-1.52.877.877v8.476h.234q1.635-1.46 3.975-3.508a38.25 38.25 0 0 1 4.325-3.332 21.01 21.01 0 0 1 5.67-2.396 27.343 27.343 0 0 1 7.483-.994q9.527 0 14.292 5.407 4.764 5.408 4.764 14.35v28.644a7.761 7.761 0 0 0 .643 3.448 4.531 4.531 0 0 0 2.397 2.046 19.942 19.942 0 0 0 2.309.819 16.818 16.818 0 0 0 3.127.584zm32.501 1.987a37.404 37.404 0 0 1-11.077-1.665 36.21 36.21 0 0 1-8.388-3.538l-1.754 3.975h-4.56l-.76-21.803h4.268a28.955 28.955 0 0 0 2.923 5.933 32.677 32.677 0 0 0 4.676 5.933 26.424 26.424 0 0 0 6.284 4.443 16.358 16.358 0 0 0 7.57 1.812q5.319 0 7.92-2.075t2.602-6.401a6.153 6.153 0 0 0-1.169-3.858 10.01 10.01 0 0 0-3.215-2.63 29.852 29.852 0 0 0-4.998-1.988q-2.718-.818-6.693-1.988a64.18 64.18 0 0 1-6.81-2.367 23.279 23.279 0 0 1-5.875-3.77 16.505 16.505 0 0 1-5.787-13.153 15.787 15.787 0 0 1 6.927-13.327q6.927-5.086 18.15-5.086a41.654 41.654 0 0 1 9.792 1.081 49.48 49.48 0 0 1 7.511 2.368l1.228-3.45h4.442l.936 19.934h-4.092a24.171 24.171 0 0 0-7.015-10.493 15.847 15.847 0 0 0-10.697-4.413 11.816 11.816 0 0 0-7.073 1.87 6.07 6.07 0 0 0-2.572 5.203 6.741 6.741 0 0 0 3.763 6.43 50.29 50.29 0 0 0 10.533 3.741q10.445 2.69 15.29 7.337a15.694 15.694 0 0 1 4.844 11.836q0 9.589-7.512 14.848-7.511 5.261-19.612 5.261z" class=""/></g><path d="M355.646 283.727c-6.529 2.79-14.72 4.571-20.092 7.95.493 2.892 1.258 7.416 2.011 12.036.26 1.59.517 3.187.762 4.733.32 2.027.618 3.957.867 5.658.433 2.959.72 5.215.72 6.004 0 0 30.487 1.633 33.21 1.633a51.73 51.73 0 0 0 5.145-21.436c-1.432-5.736-3.138-11.467-4.914-14.152a14.719 14.719 0 0 0-5.325-4.656 9.059 9.059 0 0 0-4.966-1.095 6.555 6.555 0 0 0-2.915 1.015 30.904 30.904 0 0 1-4.503 2.31zm13.724 32.584c-7.719.167-17.312.013-24.649-.602 4.34-4.662 19.643-1.73 24.65.602zm-2.38-11.37c-6.027.638-12.978 1.57-19.298 1.402-.88-.023-1.75-.067-2.602-.137 1.075-1.642 3.158-2.555 5.671-2.981 5.195-.882 12.255.346 16.23 1.717zm-3.717-13.186a18.55 18.55 0 0 0-3.43 1.07c-4.406 1.817-8.239 4.998-12.346 6.853a14.082 14.082 0 0 1-6.79 1.428 18.318 18.318 0 0 1 1.474-1.801q.548-.597 1.144-1.143a23.263 23.263 0 0 1 10.2-5.158 42.068 42.068 0 0 1 7.045-1.1 57.427 57.427 0 0 1 2.703-.149zm-78.113 51.21q-.127-2.575-.225-5.094a140.684 140.684 0 0 1-69.222 2.471q.478 2.654.985 5.284a397.596 397.596 0 0 0 12.55 48.784 131.967 131.967 0 0 0 34.566 5.412c16.247-4.049 26.56-10.574 26.56-10.574-2.93-14.448-4.458-30.998-5.214-46.283zm45.915-28.568a88.16 88.16 0 0 0-.657-4.583c-.975-5.711-2.537-11.126-4.961-15.294-2.713-.622-5.872-.024-8.463.026.726 7.237 2.068 14.922 3.256 22.648q.332 2.16.637 4.322c.19 1.324.363 2.644.53 3.964 1.849-.804 4.117-1.76 6.23-2.568 1.486-.569 2.893-1.063 4.02-1.38-.024-.473-.056-.951-.086-1.43-.12-1.885-.283-3.796-.506-5.705zm-41.247-74.862c-3.812-1.633-6.533 4.9-6.533 4.9 0 3.702 11.004 25.476 14.31 31.938 2.283-10.075 2.448-20.767 2.916-31.53-2.45-1.288-7.813-4.073-10.693-5.308zm-2.177 5.717a2.995 2.995 0 1 1 2.993 2.993 2.996 2.996 0 0 1-2.993-2.993zm5.987 16.876a2.994 2.994 0 1 1 2.995-2.994 2.994 2.994 0 0 1-2.995 2.994z" class="cls-2"/><path d="M160.728 83.244q-.004 1.264.028 2.524c.105 3.87.444 7.666.722 11.029a20.742 20.742 0 0 1 1.952-1.075 20.184 20.184 0 0 1 9.48-2.057c9.86.288 18.782 7.669 18.664 17.69 6.208-.165 2.32-7.753 1.197-12.641a42.423 42.423 0 0 1-.52-13.847c.434-4.287 1.224-8.587 1.856-12.829.307-2.056.573-4.098.745-6.118a49.135 49.135 0 0 0 .189-5.38 33.411 33.411 0 0 0-.339-4.084c-.062-.416-.136-.83-.216-1.242a25.143 25.143 0 0 0-1.269-4.415c-11.136.845-20.285 5.393-26.923 12.702a21.429 21.429 0 0 0-4.788 10.613 43.425 43.425 0 0 0-.663 5.437 63.717 63.717 0 0 0-.115 3.693zM321.417 325.48c.059.46.12.922.175 1.382.238 1.993.456 3.98.616 5.948 4.079.127 6.257-1.796 9.612-2.443a132.01 132.01 0 0 0-.153-8.834c-1.127.316-2.534.81-4.02 1.379a157.314 157.314 0 0 0-6.23 2.568zm-34.506-119.217c-1.083.26-2.177.522-3.274.77q-.824.187-1.649.36c-1.1.228-2.2.432-3.295.593a31.628 31.628 0 0 1-4.872.373 17.384 17.384 0 0 1-7.002-1.399c-.023.468-.632.298-.732.678 6.064 4.74 10.569 5.72 18.823 5.312 3.722-2.702 7.023-5.86 10.899-8.39a43.47 43.47 0 0 0-5.232.855c-1.202.26-2.428.551-3.666.848zM215.827 22.07c1.72-.829 4.262-.772 4.36-3.354-.745-.797-1.53-1.405-2.423-1.151-16.285 4.615-37.155 16.448-43.847 31.077 3.659-.532 6.534-1.98 9.703-2.906a19.015 19.015 0 0 1 4.187-.784c1.932-.125 4.463.81 6.683.259 4.425-1.098 8.159-11.018 11.497-14.71 2.718-3.01 5.885-4.592 8.418-6.943a14.727 14.727 0 0 0 1.422-1.487zm74.001 217.465c2.88 1.235 8.243 4.02 10.693 5.309.086-1.967.18-3.936.302-5.905-5.532.351-8.6-5.002-12.478-5.414-3.383-.364-6.254 3.889-10.652 2.05-1.008 1.114-1.924 2.32-2.952 3.408 9.715 11.708 14.13 28.318 21.633 42.076.47-1.545.875-3.11 1.232-4.687-3.307-6.46-14.311-28.236-14.311-31.937 0 0 2.72-6.533 6.533-4.9zm-3.264-11.763a5.788 5.788 0 0 0 .759-1.271 6.712 6.712 0 0 0 .44-1.431 7.455 7.455 0 0 0 .13-1.509 7.154 7.154 0 0 0-.979-3.563 5.498 5.498 0 0 0-.892-1.124 4.688 4.688 0 0 0-1.85-1.104 5.032 5.032 0 0 0-1.346-.212c-.073-.003-.14-.016-.215-.015a9.314 9.314 0 0 0-4.995 1.822 18.738 18.738 0 0 0 .806 7.142c.186.796.382 1.693.572 2.775 3.707 1.159 6.19.235 7.57-1.51zm-22.75 172.05a106.497 106.497 0 0 1-13.729 2.492l43.495-1.553.264-3.966a113.078 113.078 0 0 1-30.03 3.027zM388.37 197.349a147.986 147.986 0 0 1-20.75 75.895 17.864 17.864 0 0 1 4.685 1.307A153.219 153.219 0 0 0 349.683 91.43a149.438 149.438 0 0 0-3.862-3.796q.166 2.926.23 5.89A147.394 147.394 0 0 1 388.37 197.35zm-284.347 20.968l-.003-.009-.006-.057q-.5-3.575-.831-7.203l-2.429-21.049 3.013-11.751a146.91 146.91 0 0 1 47.404-90.734l.736-.846a98.112 98.112 0 0 1 .027-5.161q-5.586 4.695-10.7 9.923a152.983 152.983 0 0 0 0 212.924q4.21 4.308 8.76 8.255-.242-3.494-.528-6.976a146.918 146.918 0 0 1-45.443-87.316z"/><path d="M346.078 100.524a144.36 144.36 0 0 1 16.798 172.513 25.42 25.42 0 0 1 4.744.207 148.782 148.782 0 0 0-21.57-179.72q.08 3.485.028 7zm-215.381 10.534l20.474-23.544a146.91 146.91 0 0 0-47.404 90.734l7.876-30.713zM147.58 298.15a142.556 142.556 0 0 1-39.175-79.997 152.927 152.927 0 0 0-.028 15.398l-4.354-15.234a146.918 146.918 0 0 0 45.443 87.317q-.256-3.085-.568-6.17c-.44-.438-.883-.871-1.317-1.315zm-43.566-79.9l-.831-7.202q.33 3.628.83 7.203zm.006.058l.003.009-.01-.066zm-.253-40.06l-3.013 11.751 2.429 21.049c-.41-4.511-.63-9.079-.63-13.7a150.848 150.848 0 0 1 1.214-19.1zm48.14-91.58l-.736.846c.247-.222.49-.45.74-.67z"/><path d="M108.405 218.153a146.264 146.264 0 0 1-1.413-20.259A142.969 142.969 0 0 1 147.58 97.631q2.468-2.523 5.059-4.915a25.566 25.566 0 0 1-.702-4.396c-.017-.497-.018-.984-.028-1.477-.249.22-.492.449-.739.671l-20.474 23.544-19.054 36.477-7.876 30.713a150.848 150.848 0 0 0-1.214 19.1c0 4.621.22 9.189.63 13.7l.83 7.203.01.066 4.354 15.234a152.927 152.927 0 0 1 .028-15.398zm57.35-107.863a7.447 7.447 0 0 1 1.423-.996 5.196 5.196 0 0 0-1.423.996zm167.349-22.128q3.63 3.04 7.048 6.326c-.112-2.316-.207-4.625-.318-6.899a144.163 144.163 0 0 0-11.357-9.234c1.518 3.292 3.001 6.615 4.627 9.806zM198.239 48.527l5.502-8.797a39.343 39.343 0 0 0-5.502 8.797zm40.804-34.367q-1.29.642-2.63 1.335l8.195-3.511a34.827 34.827 0 0 0-5.565 2.175zM199.72 70.154l-.191.064c-.059.309-.117.618-.179.927.116-.32.246-.659.37-.991zm122.843 9.994a10.517 10.517 0 0 0-5.514 8.04c-.826 7.906 9.8 1.633 11.433 1.09l-.383-2.556a35.897 35.897 0 0 1-1.073-3.366q-2.2-1.645-4.463-3.208zm-73.567 8.04c0 7.237 12.265 7.11 16.767 4.283-2.223-4.122-4.409-9.114-4.7-13.325l-.088-.212s-11.979 1.633-11.979 9.254zm-23.682-15.085c.663 1.828.73 3.309 1.883 1.217a3.111 3.111 0 0 1-1.883-1.217zm85.225 124.272a8.48 8.48 0 0 1 4.598-.947l-2.134-1.585a13.042 13.042 0 0 0-2.464 2.532zm-81.483 10.943c-6.782-1.191-15.694-.405-20.302-3.605-1.171 1.19-.942 2.486.149 3.769 3.56 1.413 13.703 5.233 19.152 5.168.485-1.99 1.246-3.827 1.001-5.332z"/><path d="M227.684 216.373a11.032 11.032 0 0 1 .371-2.723c-5.449.065-15.593-3.755-19.152-5.168 3.299 3.878 14.49 7.627 18.781 7.89zM251.73 56.306a137.61 137.61 0 0 0-6.271-.151c-1.349 0-2.692.025-4.031.064a45.442 45.442 0 0 0-7.13 2.57 8.305 8.305 0 0 0-4.01 4.3l1.71 2.85c4.65-6.173 11.409-10.299 21.908-7.854a6.119 6.119 0 0 0-2.175-1.779z"/><path d="M253.906 58.085a5.801 5.801 0 0 0 .688-1.615c-.335-.022-.67-.045-1.006-.065.232 1.016.318 1.68.318 1.68zm-26.504 15.8a42.84 42.84 0 0 1 4.596-7.947l-1.71-2.85c-1.733 3.715-1.94 8.513-2.886 10.797zm-.206.435l.004-.008-.004.008zm-1.882-1.217a8.625 8.625 0 0 0-.545-1.218 3.504 3.504 0 0 0 .545 1.218zm27.129-21.755a9.123 9.123 0 0 0-.99-.675c.12.216.235.432.344.65.215.009.431.014.646.025z"/><path d="M253.588 56.405c.336.02.67.043 1.006.065.525-2.104-.538-3.869-2.151-5.122-.215-.011-.43-.016-.646-.026a23.022 23.022 0 0 1 1.79 5.083zm-1.858-.099c-2.723-1.38-6.561-1.064-10.302-.087a138.42 138.42 0 0 1 4.03-.064c2.103 0 4.193.056 6.273.151zm-21.442 6.783a8.305 8.305 0 0 1 4.01-4.3 45.442 45.442 0 0 1 7.13-2.57q-5.084.15-10.072.663a30.004 30.004 0 0 0-3.1 3.692l.436-.147z"/><path d="M251.73 56.306a6.119 6.119 0 0 1 2.176 1.78s-.086-.665-.318-1.681q-.927-.055-1.857-.099zm-26.416 16.797a3.111 3.111 0 0 0 1.883 1.217l.003-.008c.065-.143.137-.284.202-.427.945-2.284 1.153-7.082 2.886-10.796l-1.596-2.662-.435.147a19.838 19.838 0 0 0-2.464 4.528c-.653 1.79-1.538 4.684-1.024 6.783a8.625 8.625 0 0 1 .545 1.218z"/><path d="M227.402 73.885c-.065.143-.137.284-.202.427a4.372 4.372 0 0 0 .202-.427zm24.395-22.563a17.655 17.655 0 0 0-.344-.649 10.282 10.282 0 0 0-3.555-1.28 15.323 15.323 0 0 0-9.144 1.944c2.223-.105 4.458-.165 6.707-.165 2.124 0 4.235.057 6.336.15z"/><path d="M251.73 56.306q.931.043 1.858.099a23.022 23.022 0 0 0-1.79-5.083 143.27 143.27 0 0 0-6.337-.15c-2.249 0-4.484.06-6.707.165a29.66 29.66 0 0 0-7.398 5.545q4.985-.516 10.072-.663c3.74-.977 7.58-1.294 10.303.087zm76.369 30.416c.848 2.295 1.835 4.461 2.674 6.764-3.57 2.249-10.523.847-14.55 2.608-.288 11.851 18.336 6.01 21.17-.59a64.945 64.945 0 0 1-4.29-7.343q-2.664-2.232-5.438-4.329zm-1.192-11.712c-.233-.01-.47-.017-.704-.027-.035.591-.045 1.16-.045 1.718a145.41 145.41 0 0 1 2.319 1.654 225.41 225.41 0 0 0-1.57-3.344z"/><path d="M326.158 76.7a26.4 26.4 0 0 0 .07 1.853c.38-.11.62-.165.62-.165l.817 5.445q2.772 2.097 5.439 4.329c-1.626-3.191-3.109-6.515-4.627-9.807a145.41 145.41 0 0 0-2.319-1.654z"/><path d="M327.026 83.356c.306 1.17.673 2.284 1.073 3.366l-.434-2.89c-.212-.16-.426-.317-.639-.476z"/><path d="M326.849 78.388s-.242.055-.62.165a26.232 26.232 0 0 0 .797 4.803c.213.16.427.316.64.477zm-61.086 14.083a89.09 89.09 0 0 0 2.877 4.927c-4.37 4.244-12.23.72-18.077.447-5.58 8.815 10.895 10.47 17.966 8.383 1.935-.57 5.288-3.472 5.747-4.774 1.963-5.518-1.997-7.937-4.034-9.921-4.523-4.409-5.558-10.536-8.74-16.369a9.937 9.937 0 0 0-.439 3.982L266.42 92a5.524 5.524 0 0 1-.656.471z"/><path d="M266.419 92l-5.356-12.854c.291 4.211 2.477 9.203 4.7 13.325a5.524 5.524 0 0 0 .656-.471zm17.171 54.991c17.443 1.725 29.314-5.711 39.96-12.55-.424-2.682 3.223-7.513 2.21-11.545-.35-1.387-3.507-3.399-5.425-5.496-7.808-8.516-18.508-21.24-22.76-31.19-.471-1.098-.755-7.126-4.046-4.74-.397 14.693 10.524 26.857 18.666 36.671 3.977 4.79 8.772 7.528 4.358 14.97-7.12 2.709-18.64 10.457-28.537 8.763-3.388-.578-4.097-3.263-4.68-5.966a6.59 6.59 0 0 0-1.614 2.264 40.88 40.88 0 0 0-.057.646 1.244 1.244 0 0 1 .057-.646c.099-1.03.332-3.179.75-5.52a6.426 6.426 0 0 0-.409-.875c-3.62 4.763-2.2 11.974 1.527 15.214z"/><path d="M281.665 138.818s.018-.238.057-.646a1.244 1.244 0 0 0-.057.646zm1.671-2.911a21.315 21.315 0 0 0-.863-3.256 71.117 71.117 0 0 0-.75 5.521 6.59 6.59 0 0 1 1.613-2.265zM174.18 109.005c-2.6-.557-5.109-.625-7.002.289a7.447 7.447 0 0 0-1.423.996 6.36 6.36 0 0 0-1.687 3.486 81.755 81.755 0 0 1-.504 2.523c1.368-1.396 2.8-3.192 5.34-1.945-2.831 5.532-2.154 16.303 1.7 19.801-.022-6.562-1.043-17.784 4.555-17.444 3.917.238 4.712 8.626 8.048 10.53 1.942-9.344-3.302-16.246-9.028-18.236z"/><path d="M165.755 110.29a10.924 10.924 0 0 0-3.308 6.986 7.13 7.13 0 0 0 1.117-.977 83.36 83.36 0 0 0 .504-2.523 6.36 6.36 0 0 1 1.687-3.486zm8.425-1.285a8.756 8.756 0 0 0-7.002.289c1.893-.914 4.403-.846 7.001-.29zm129.641 52.515c14.541-.302 21.551-10.69 26.506-20.121-8.51 3.88-15.373 9.538-26.49 10.606-.538 1.834-.311 6.47-.016 9.515zm-3.547.567a44.134 44.134 0 0 0-.686-9.541c-12.605.369-29.65-.155-38.924-5.032 4.249 11.372 23.407 15.381 39.61 14.573zm-41.373-5.48c-8.192.01-1.282 4.565.105 6.349 2.874 3.693 6.243 9.992 11.487 12.78 8.27 4.392 24.698 2.553 30.655.13 2.205-.894 3.978-3.364 4.797-5.454-18.588.444-40.63 2.298-47.044-13.805zm104.372 135.148c-.922.027-1.819.081-2.703.15q-.362.461-.726.92a18.55 18.55 0 0 1 3.43-1.07z"/><path d="M347.497 299.678c4.107-1.855 7.94-5.036 12.347-6.852q.365-.46.726-.922a42.068 42.068 0 0 0-7.045 1.1q-2.91 3.436-6.028 6.674z"/><path d="M343.325 298.162q-.597.544-1.144 1.143a18.318 18.318 0 0 0-1.474 1.8 14.082 14.082 0 0 0 6.79-1.427q3.11-3.244 6.028-6.674a23.263 23.263 0 0 0-10.2 5.158zm7.436 5.063c-.36.376-.714.757-1.078 1.13-.656.67-1.323 1.33-1.99 1.988 6.32.168 13.27-.765 19.297-1.401-3.974-1.371-11.034-2.599-16.229-1.717z"/><path d="M350.761 303.225c-2.513.426-4.596 1.34-5.67 2.981.851.07 1.72.114 2.601.137.668-.658 1.335-1.318 1.99-1.989.365-.372.72-.753 1.08-1.13zm-6.04 12.484c7.337.615 16.93.769 24.65.602-5.007-2.332-20.31-5.264-24.65-.602zM159.168 66.41l3.584-4.838 1.861-6.05 3.176-.75 1.986-2.68-1.895.164 5.987-10.889 1.851-1.85 1.416-3.05 7.518-5.883 2.827-2.826 1.543-.594.633-.496 29.943-14.699 1.964 2.678 1.302-.5a81.65 81.65 0 0 1 10.294-.26 142.943 142.943 0 0 1 19.105-8.995c32.665-12.52 66.963 28.31 66.963 28.31l3.402 5.441c.263-.003.41.002.41.002l.893 2.083 8.907 14.25 8.71 15.788.756 13.618q1.786 1.594 3.517 3.25c-.894-15.803-3.953-30.687-9.66-42.223-4.997-10.106-18.97-24.065-27.711-30.677-20.615-15.59-58.724-17.312-83.563-8.171-6.924 2.548-13.629 4.83-19.71 8.4-16.271 9.553-33.54 15.944-38.366 35.165-10.324 4.625-14.38 16.713-14.877 31.379q2.545-2.14 5.184-4.166z"/><path d="M311.083 362.143a358.93 358.93 0 0 0-.803-3.726c-.406-1.853-.81-3.693-1.163-5.524s-.657-3.653-.865-5.47c-2.258-.603-6.405 1.592-9.218 1.406-.36 8.6.846 22.393 1.25 31.416 5.718.007 8.17-1.252 12.437-2.69q.045-.996.041-1.982a47.1 47.1 0 0 0-.18-3.911 80.82 80.82 0 0 0-1.5-9.52z" class="cls-2"/><path d="M388.415 306.827a150.062 150.062 0 0 0-8.223-24.285 15.488 15.488 0 0 0-7.887-7.991q-1.203 2.076-2.463 4.111l4.753.62 10.889 32.121-1.36 4.2.432 7.772-8.71 13.066-9.8 2.177-16.332-.544-4.838-6.29-5.667.306-21.232 5.989-1.076-8.444c-.35.198-.694.402-1.045.597l1.193 12.198-19.623 2.58 3.835 52.405-5.444 3.266-2.237.08-.104 1.559-41.374 3.266-25.043-5.444-11.272-45.737-3.266 3.812-54.44-18.511-1.805-3.092-2.008-.717-.057-3.37-1.563-17.662q-1.34-1.112-2.653-2.256c.222 3.212.425 6.435.634 9.68.427 6.635-.278 13.66 1.445 17.325 1.776 3.786 8.356 5.001 13.112 7.206 13.737 6.354 28.309 16.052 46.325 14.127 4.294 14.439 8.355 29.817 13.51 42.462 18.473 6.642 47.633 5.605 66.839 3.295 5.837-.705 11.997-3.586 13.37-8.647a51.03 51.03 0 0 1-.672-9.896c6.007-1.243 14.18-2.27 15.501-8.913 1.852-9.324-5.886-22.678-3.307-32.903 3.479-1.13 7.19-2.01 6.634-7.497 5.86-3.05 12.806-3.735 20.224-3.447a15.843 15.843 0 0 0 3.538 4.64c10.39 2.087 20.453 2.258 29.078-.557 9.766-3.188 14.425-23.157 12.19-32.657zm-75.694 70.727c-4.268 1.44-6.72 2.698-12.437 2.69-.404-9.022-1.61-22.814-1.25-31.415 2.813.186 6.96-2.01 9.218-1.406.208 1.817.512 3.64.865 5.47s.757 3.671 1.163 5.524c.27 1.236.543 2.477.803 3.725a80.82 80.82 0 0 1 1.5 9.52c.11 1.293.175 2.596.18 3.91q.002.987-.042 1.982zM202.717 38.922l-8.162 9.522 1.633 6.533c-.174-4.714 2.183-10.27 6.53-16.055zm106.169-13.188l10.34 7.467a31.955 31.955 0 0 0-10.34-7.467zM196.222 55.906c-.01-.31-.022-.61-.034-.929-.18.023-.353.05-.531.074l.166 1c.133-.05.266-.096.4-.145zm.986 51.616l-1.563 6.252 2.177-2.721-.614-3.531zm-.524-37.304l-.108.991.132-.044-.024-.947z"/><path d="M299.12 282.926c3.743-11.006 5.345-29.428 5.91-43.472a14.015 14.015 0 0 1 3.853-1.178v-3.223a93.409 93.409 0 0 1-16.21-2.91l-1.126-.317.106-.637-2.532-.904v-5.66a7.907 7.907 0 0 1-.989 3.161 6.719 6.719 0 0 1-6.038 3.327 11.688 11.688 0 0 1-3.49-.585l-.759-.237-.137-.783a47.2 47.2 0 0 0-.47-2.316 14.463 14.463 0 0 1-1.462.646l-.177 4.534 7.696-1.004 5.314 1.094h2.146l2.802 1.019 8.249 1.699v1.301l.926.337-1.088 20.143-3.521 20.42.416.807-.976 2.44-1.364 7.91-2.035-5.18-2.158-.27-15.005-35.4-5.3-7.604a23.188 23.188 0 0 1 1.057-2.403l-.623-1.47c-1.097.88-2.198 1.81-3.332 2.773a61.743 61.743 0 0 1-10.25 7.545c-2.21 1.205-11.666 5.243-16.194 5.243a5.032 5.032 0 0 1-1.132-.112 3.276 3.276 0 0 1-1.455-.745l-.192.058-.021-.265a7.697 7.697 0 0 1-1.528-3.305 23.968 23.968 0 0 0-.383-1.274c-.354-1.04-.815-2.222-1.319-3.51a149.2 149.2 0 0 1-1.569-4.164l2.26 9.789 4.9 5.989 12.522-4.356-8.712 16.878 47.364 22.32.303 3.534 4.333-.867 2.519-10.317c-.38.498-.744 1.01-1.13 1.501zm-8.809.013q-2.645-.797-5.3-1.714-2.653-.914-5.302-1.932a193.871 193.871 0 0 1-10.495-4.4c-6.913-3.131-13.608-6.605-19.79-10.103 2.427-10.52 11.94-15.968 20.578-21.761a98.025 98.025 0 0 1 11.259 18.932q1.206 2.553 2.351 5.163.575 1.303 1.139 2.615c1.129 2.624 2.233 5.272 3.339 7.917q1.106 2.646 2.221 5.283zM195.152 84.266l-1.14 10.455 2.909 11.152-1.276-7.342-.493-14.265zm-54.478 163.29l-4.37-12.922-2.722-8.71 43.552-29.942 2.238-.896 7.561-5.092 1.514 1.462 2.298-.92 11.976 14.7v-4.42c-1.322-.287-2.176-.48-2.176-.48l-4.977-7.774-5.368-5.836-2.009-5.69-5.069-7.92-.544-7.984-2.178-6.171-2.177-5.99-13.066-4.353-1.725-2.834-3.175-.977-6.533-16.876-1.05-7.875-.583-1.926.242-.638-.786-5.893 5.002-5.22.737-1.945a110.877 110.877 0 0 0-9.29 8.602 50.558 50.558 0 0 0 7.728 32.173 28.856 28.856 0 0 0 19.26 12.378 40.872 40.872 0 0 0 4.002 14.958c1.52 3.335 7.204 9.334 5.111 13.588-1.052 2.146-10.306 6.806-13.375 8.647-10.36 6.216-17.87 10.024-27.437 16.912-6.188 4.454-15.866 5.025-14.34 15.303 1.029 6.935 4.975 15.53 7.233 22.483 2.444 7.504 5.946 14.375 7.956 22.162a185.295 185.295 0 0 1 4.764 27.824q1.29 1.285 2.612 2.536l-1.11-12.548zm172.819 55.334l-.292.2 1.706 17.444c.26-.154.516-.312.775-.468zm-28.589-10.002l.02-.455-10.889.457zm-53.022-84.251a13.727 13.727 0 0 1 3.504-3.401l-18.51-.544 15.083 1.64z"/><path d="M337.192 143.718l-11.977 29.942-11.432 15.789-8.165 8.71-21.778 3.266-29.398 3.267-4.43.126a46.657 46.657 0 0 1 9.061 3.395l12.76 6.615c2.211 1.147 8.035.15 10.233 1.436a6.191 6.191 0 0 1 4.82 1.627 7.74 7.74 0 0 1 2.235 4.642v-4.225l.515-2.831c-.014-.037-.032-.07-.045-.108l-.425-1.224.761-.271.283-1.555 18.673-10.81v-6.071l13.066-13.066 4.9 4.356 1.45 1.514 22.504 20.806-.207 2.482.751.784s-.48 1.946-1.234 5.014l-.4 4.786-.655-.487c-3.193 13.032-8.6 35.267-8.6 36.418 0 1.633-12.52 33.209-12.52 33.209l16.714-8.161 14.708-4.596q1.817-2.686 3.516-5.46c-9.88.442-21.259 5.706-28.851 9.48 6.407-16.856 11.921-34.334 17.572-53.242 1.69-5.665 5.027-13.698 4.278-19.57-.698-5.516-9.308-11.32-13.84-15.691-2.517-2.427-14.255-11.34-14.937-14.677-.661-3.227 4.786-10.54 6.538-14.196a104.403 104.403 0 0 0 5.555-15.997 192.629 192.629 0 0 0 6.887-48.62q-1.352-1.464-2.74-2.893c-.104-.106-.211-.209-.316-.315l.703 12.648zM284.91 212.95c-8.254.408-12.759-.572-18.823-5.312.1-.38.709-.21.732-.678a17.384 17.384 0 0 0 7.002 1.399 31.628 31.628 0 0 0 4.872-.373 57.116 57.116 0 0 0 3.295-.594q.825-.171 1.649-.358c1.097-.249 2.19-.512 3.274-.771 1.238-.297 2.464-.589 3.666-.848a43.47 43.47 0 0 1 5.232-.855c-3.876 2.53-7.177 5.688-10.899 8.39zm27.956 79.111l-1.196.064.046.23.433-.012.717-.282zm-.717.282l.417 4.265.348 1.737-.765-6.002zm-102.242 20.899l-.653-17.634v13.066l.653 4.568zM196.708 71.165l-.132.044-.674 6.183.824-5.493-.018-.734zm-43.434 28.134c-.328 1.643-2.556 3.746-3.003 4.816a33.325 33.325 0 0 0-2.274 8.92 110.877 110.877 0 0 1 9.29-8.6l.793-2.094-1.54-13.092q-1.98 1.699-3.9 3.467c.502 2.3 1.024 4.635.634 6.583zm211.39 178.688l5.178.675q1.265-2.032 2.463-4.111a17.864 17.864 0 0 0-4.685-1.307 146.643 146.643 0 0 1-2.956 4.743zM342.625 90.17q1.739 1.65 3.426 3.355-.068-2.962-.23-5.891-1.734-1.651-3.517-3.25zm-27.293 234.708l.524 5.354c.35-.195.696-.4 1.045-.597l-.672-5.27c-.297.174-.598.342-.897.513zM196.222 55.906l-.399.144.516 3.092q-.054-1.54-.117-3.236zm-44.185 252.057q-1.3-1.149-2.571-2.33.289 3.484.529 6.976 1.313 1.143 2.653 2.256zm-.13-221.295l.567-.653.64-.214q1.421-1.232 2.873-2.426l1.131-6.033q-2.64 2.024-5.184 4.165a98.088 98.088 0 0 0-.027 5.16z"/><path d="M314.907 320.534l.425 4.344c.299-.171.6-.34.897-.513l-.547-4.3c-.259.157-.516.315-.775.47zm28.431-222.903q1.392 1.425 2.74 2.893.052-3.513-.027-7-1.684-1.706-3.426-3.354l.397 7.146c.105.106.212.209.316.315zm19.538 175.406q-1.698 2.774-3.516 5.46l2.714-.848 2.59.338a146.654 146.654 0 0 0 2.956-4.743 25.42 25.42 0 0 0-4.744-.207zm-213.978 26.427q.314 3.086.568 6.17 1.272 1.18 2.571 2.33L151.51 302q-1.322-1.25-2.612-2.536zm7.003-215.632l.086-.457q-1.452 1.194-2.873 2.426l2.904-.975zm-2.787 1.968l-.64.215-.567.653.003.175c.398-.352.803-.695 1.204-1.042z"/><path d="M151.938 88.32a25.566 25.566 0 0 0 .702 4.396q1.916-1.772 3.9-3.467l-.522-4.423-2.904.975c-.4.347-.806.69-1.204 1.042.01.493.011.98.028 1.477zm154.98-63.474c4.956 3.822 9.246 8.865 13.233 13.987a21.483 21.483 0 0 1 2.477-.19l-3.402-5.442-10.34-7.467c-.634-.304-1.287-.6-1.968-.888zm2.933 29.689a9.573 9.573 0 0 0 .142 2.2c8.02-7.35 21.72-.08 25.77 8.045 2.316 4.645 3.235 10.63 3.73 17.156q1.421 1.206 2.811 2.448l-.756-13.618-8.71-15.789-8.907-14.249 4.007 9.35c-5.725-5.727-14.216.837-18.087 4.457zm-148.436 46.652q-2.121 1.586-4.129 3.247l-.737 1.945 5.028-5.248zm-9.324 16.943l.583 1.926-.341-2.564-.242.638zm43.061-33.864l.493 14.265 1.276 7.342.357 1.368-.07.281.614 3.531-2.177 2.721-6.533 1.09-2.51-5.522.331 4.978s-.536-.324-1.438-.815c.488 1.673.884 3.39 1.218 5.063 4.52.241 11.05-.193 13.187-3.72-.306-8.606-4.303-15.509-4.029-23.415a57.41 57.41 0 0 1 .918-8.057c-.54.167-1.064.346-1.597.519zm125.858 88.493c-3.762 5.406-6.92 11.312-12.212 15.034-12.752 8.955-32.136 17.072-48.732 11.506-21.934-7.361-31.9-21.975-43.962-38.71.327 9.192 6.792 16.736 13.175 23.769 5.557 6.13 12.263 13.055 19.475 15.911-6.018-1.413-15.254-1.857-17.762 3.544a138.396 138.396 0 0 1-13.863-1.45c.28.231.55.47.836.697 1.252.99-4.953-.117-10.3-1.203l9.212 2.835 18.51.544c3.451-2.348 9.312-1.818 14.625-.418l4.43-.126 29.398-3.267 21.778-3.266 8.165-8.71 11.432-15.789 11.977-29.942 6.533-33.754-.703-12.648q-1.414-1.436-2.87-2.828l.055 1.125c1.444 28.006-5.124 56.902-19.197 77.146zM168.174 98.847l8.362.644-4.302-2.049-4.06 1.405zm22.026 87.879l5.368 5.836-7.377-11.527 2.009 5.691zm-9.897-85.441l4.142 3.313-.778-1.711-3.364-1.602z"/><path d="M158.08 102.341l-.794 2.093q2.01-1.659 4.129-3.247zm38.653-22.32l.024-.117c.041-.361.11-1.85-.031-8.005l-.824 5.494-.71 6.502c.533-.173 1.058-.352 1.597-.52.734-4.134 1.76-8.19 2.561-12.23a67.39 67.39 0 0 0-2.593 8.759c-.014.114-.024.117-.024.117zm143.101 7.568q1.413 1.272 2.791 2.581l-.32-5.786q-1.392-1.24-2.812-2.448c.14 1.848.248 3.736.341 5.653z"/><path d="M340.152 94.488q1.453 1.395 2.87 2.828l-.397-7.146q-1.379-1.309-2.79-2.581c.11 2.274.205 4.583.317 6.9zM152.648 314.865l1.563 17.663-.281-16.607c-.43-.35-.856-.703-1.282-1.056zm58.753 29.586l1.14 8.076c-20.527-1.066-34.434-10.482-49.315-18a29.671 29.671 0 0 1-1.336 4.09l-5.614-2.003 1.804 3.092 54.44 18.51 3.267-3.811-1.545-9.3c-.95-.21-1.897-.426-2.84-.654zM150.4 289.452L151.51 302q1.098 1.039 2.219 2.053l-.005-.277zm-16.818-63.528l45.79-30.838-2.238.896-43.552 29.942zm7.092 21.632l-1.103-4.754-5.989-16.878 2.722 8.71 4.37 12.922zm67.309 4.354l.732.891a1.391 1.391 0 0 0-.732-.892z"/><path d="M210.181 320.657l-.274-7.415-.653-4.568v-13.066l51.014-2.716 13.767-.002 10.889-.457.004-.09 8.166-3.268-47.364-22.32 8.712-16.878-12.523 4.356-4.9-5.989-2.259-9.789a56.231 56.231 0 0 1-1.415-4.512 53.522 53.522 0 0 1-3.707-12.08l-8.935-4.02-5.457-1.168-5.037-3.555-.571-.257-.368-.406-3.28-2.315.534-.713-3.803-4.193-4.05 1.81a21.071 21.071 0 0 0 2.148 2.296c8.115 5.763 18.195 10.315 27.623 14.81a108.835 108.835 0 0 0 4.257 17.432c2.589 8.282 4.724 19.972 15.669 14.003-1.04 4.728-7.12 7.666-5.442 13.182 1.051 3.46 12.538 7.735 16.182 9.79 6.722 3.789 12.854 5.884 18.015 8.099a617.735 617.735 0 0 0-61.88 4.815v1.96h-8.711s-1.088-22.866-1.088-25.589c0-2.722 1.088-12.521 1.088-12.521l1.451-3.414c-3.09-1.099-3.67 5.166-3.78 6.546-.579 7.35 3.497 22.908-.523 31.702-4.399-1.244-6.565-4.556-10.69-6.055-1.616 5.093 3.35 5.338 2.842 8.572-.657 4.16-8.323.916-8.697 6.592l21.03-.934v8.71l-1.48-.231c.923 9.384 2.095 18.615 3.397 28.143.858.232 1.72.452 2.585.667zm-21.734-129.201l14.274 13.78-11.976-14.699-2.298.919zm22.211 147.692c.243 1.751.493 3.524.743 5.303.944.228 1.891.444 2.841.654l-.878-5.286a142.46 142.46 0 0 1-2.706-.67zm-56.837-29.642c-.597-.511-1.195-1.022-1.784-1.543l.611 6.902c.426.353.852.707 1.282 1.056z"/><path d="M210.082 334.954c.19 1.395.38 2.785.576 4.194.9.23 1.8.458 2.706.671l-.697-4.198c-.865-.215-1.727-.435-2.585-.667zm-56.353-30.901q-1.12-1.014-2.22-2.053l.528 5.963c.59.521 1.187 1.032 1.784 1.543zm65.869-292.084l-29.943 14.699-.633.496 32.54-12.517-1.964-2.678zm-16.881 26.953c4.466-5.944 11.039-12.128 19.163-17.894l-.649.197a96.691 96.691 0 0 0-6.826 2.333c-2.533 2.351-5.7 3.933-8.418 6.944-3.338 3.69-7.072 13.611-11.497 14.709-2.22.552-4.751-.384-6.683-.258a19.015 19.015 0 0 0-4.187.784 29.977 29.977 0 0 0-3.22 5.43l-10.625.924-1.986 2.681 26.766-6.328zm-39.965 22.65l-3.584 4.838-2.05 10.932c.336-.258.677-.508 1.015-.763zm14.382-25.104l-1.416 3.049 8.934-8.933-7.518 5.884zm18.689 19.582l-.166-.999c-.394.053-.786.106-1.171.163.08.413.154.826.216 1.242.372-.14.748-.27 1.121-.406zm-34.408 45.137l.162-.056.236-.247c-.134.1-.264.203-.398.303zm6.759-2.34l4.06-1.405 4.302 2.049 1.687.13 2.08 1.664 3.364 1.602.778 1.71 1.944 1.556.212 3.189 2.51 5.521 6.534-1.089 1.563-6.252-.287-1.649-2.91-11.152 1.141-10.455-.012-.354c-.968.315-1.943.623-2.89.955a42.423 42.423 0 0 0 .52 13.847c1.124 4.888 5.012 12.476-1.195 12.641.117-10.021-8.806-17.402-18.665-17.69q-4.115 2.345-7.888 4.94zm28.51-28.629a937.658 937.658 0 0 0-.142-4.956c-.564.219-1.13.432-1.69.658-.172 2.02-.438 4.062-.745 6.118l2.47-.829z"/><path d="M161.813 100.884l2.255-2.353.953.073q3.775-2.591 7.889-4.939a20.184 20.184 0 0 0-9.48 2.057c.325 1.763.638 2.809.638 2.809l-5.988 3.81 3.335-1.154c.134-.1.264-.203.398-.303zM195.1 82.742l.802-5.35.674-6.183-2.47.83c-.631 4.241-1.421 8.541-1.855 12.828.946-.332 1.921-.64 2.889-.955zm-36.967-6.163c-.338.255-.679.505-1.015.762l-1.13 6.033.073-.06zm38.206-17.437l-.516-3.092c-.373.137-.75.267-1.121.406a33.411 33.411 0 0 1 .339 4.085c.443-.171.883-.349 1.328-.515l-.03-.884z"/><path d="M156.06 83.314l-.073.06-.086.458zm40.31-23.288c-.446.166-.886.344-1.33.515a49.135 49.135 0 0 1-.188 5.379c.56-.226 1.126-.44 1.69-.658-.049-1.571-.106-3.312-.173-5.236zm.551 45.847l.287 1.649.07-.281-.357-1.368zm-1.781-21.961l.012.354.04-.371z"/><path d="M195.902 77.393l-.803 5.35.04 1.17.053-.018zm-20.184-37.876l-1.851 1.85-5.987 10.889 1.895-.165.281-.38 5.662-12.194zm57.44-25.629a81.65 81.65 0 0 0-10.294.258l-1.302.501 3.214 4.383a132.77 132.77 0 0 1 8.382-5.142zm-45.679 13.87l-2.827 2.826 4.37-3.42-1.543.594z"/><path d="M183.62 45.736c-3.17.926-6.044 2.374-9.703 2.906 6.692-14.629 27.562-26.462 43.847-31.077.893-.254 1.678.354 2.423 1.151-.098 2.582-2.64 2.525-4.36 3.355a14.727 14.727 0 0 1-1.423 1.487 96.683 96.683 0 0 1 6.827-2.333l.649-.197c.946-.672 1.909-1.339 2.896-1.998l-3.214-4.383-32.54 12.517-4.37 3.42-8.934 8.933-5.662 12.194-.282.38 10.626-.924a29.977 29.977 0 0 1 3.22-5.43zm-19.007 9.787l-1.861 6.049 5.037-6.8-3.176.751zm29.942-7.079l1.102 6.607c.178-.023.35-.051.531-.074z"/><path d="M161.506 74.114a21.429 21.429 0 0 1 4.788-10.613c6.639-7.309 15.787-11.857 26.923-12.702a25.143 25.143 0 0 1 1.269 4.415c.385-.057.777-.11 1.17-.163l-1.1-6.607-26.767 6.328-5.037 6.8-4.619 15.007q1.668-1.257 3.373-2.465zm2.562 24.417s-.313-1.046-.638-2.81a20.742 20.742 0 0 0-1.952 1.076c-.278-3.362-.617-7.16-.722-11.028q-2.142 1.698-4.217 3.48l1.541 13.092z"/><path d="M161.506 74.114q-1.704 1.21-3.373 2.465l-2.072 6.735q2.351-1.931 4.782-3.763a43.425 43.425 0 0 1 .663-5.437z"/><path d="M160.843 79.551q-2.431 1.83-4.782 3.763l-.16.518.117.994 4.71-1.582c.004-1.236.04-2.47.115-3.693z"/><path d="M160.728 83.244l-4.71 1.582.521 4.423q2.075-1.781 4.217-3.48-.034-1.26-.028-2.525zm22.394 89.872l5.069 7.919-5.613-15.903.544 7.984zm12.446 19.446l4.977 7.774s.854.193 2.176.48v-.48z"/><path d="M207.664 201.857c5.348 1.086 11.553 2.193 10.3 1.203-.286-.226-.554-.466-.834-.697-8.36-1.425-15.5-4.179-19.865-10.432-5.232-7.501-10.549-20.254-12.934-30.107-.486-2.023-1.321-6.338-1.117-7.443.783-4.274 8.399-6.15 5.403-12.126l-7.128 6.907 1.089 15.97 5.613 15.903 7.377 11.527 7.153 7.774zm-54.99-81.801l1.05 7.875 6.533 16.876 3.175.977-5.897-9.688-4.861-16.04zm-1.127-8.457l.786 5.893 4.216-11.113-5.002 5.22zm32.898-7.001l2.156 4.744-.212-3.189-1.944-1.555zm-7.909-5.107l3.767 1.794-2.08-1.665-1.687-.129zm-14.723 1.393l-.236.247 6.597-2.284-3.153-.243a109.884 109.884 0 0 0-3.208 2.28z"/><path d="M164.068 98.531l-2.255 2.353c1.047-.775 2.12-1.533 3.208-2.28zm71.187-82.539l1.159-.497q1.337-.692 2.629-1.336a34.827 34.827 0 0 1 5.565-2.175l11.467-4.915 33.753 4.9 19.058 13.765a31.955 31.955 0 0 1 10.34 7.467s-34.298-40.83-66.963-28.309a142.943 142.943 0 0 0-19.105 8.996c2.584.196 4.115.764 2.097 2.104zm-6.865 2.942c-.897.311-1.875.64-2.96.988l.157.213zm-32.202 36.043l.034.93c.694-.252 1.386-.507 2.084-.748l-.068-6.631v-.001a39.343 39.343 0 0 1 5.503-8.797l2.775-4.437-2.161 1.719-1.638 1.91c-4.346 5.784-6.703 11.34-6.529 16.055zm.655 16.143l.951-6.345c-.18.068-.358.142-.539.21l-.57 5.233.023.947z"/><path d="M196.726 71.9l.117-.78-.135.045.018.734zm-.246-11.914c.62-.231 1.245-.45 1.869-.674l-.043-4.153c-.698.241-1.39.496-2.084.747l.117 3.236z"/><path d="M197.255 64.985c.18-.068.359-.142.54-.21l.57-3.809-.016-1.653c-.624.222-1.25.442-1.87.673l.799 4.79zm9.261-29.692l-2.775 4.437c8.254-10.197 21.56-18.483 32.673-24.235l-1.159.497a34.428 34.428 0 0 1-6.864 2.942l-2.804 1.201zm-8.278 13.235v-.001l.068 6.632c.583-.2 1.172-.39 1.758-.583a28.75 28.75 0 0 0-1.826-6.048zm104.296-26.622a36.92 36.92 0 0 1 4.384 2.94c.681.287 1.334.584 1.968.888l-19.058-13.765-33.753-4.9-11.467 4.915c17.904-5.356 42.678 1.318 57.926 9.922z"/><path d="M196.843 71.12l2.686-.902a62.775 62.775 0 0 0 .91-6.398c-.884.311-1.768.626-2.645.955z"/><path d="M196.726 71.9c.142 6.153.072 7.643.03 8.003a67.39 67.39 0 0 1 2.594-8.758c.062-.31.12-.618.179-.927l-2.686.902zm.031 8.003l-.024.118s.01-.003.024-.118zm3.78-21.353a30.678 30.678 0 0 0-.473-3.974c-.586.194-1.175.382-1.758.583l.043 4.154q1.09-.39 2.188-.763z"/><path d="M198.366 60.966l-.572 3.81c.877-.33 1.76-.645 2.646-.956a38.06 38.06 0 0 0 .097-5.27q-1.099.371-2.188.762zm8.15-25.673l1.65-2.636 17.42-12.522-.155-.213c-1.082.349-2.271.718-3.551 1.106-8.124 5.766-14.697 11.95-19.163 17.894l1.638-1.91zm-9.974 29.969c.059 1.883.106 3.524.142 4.956l.571-5.233c-.238.09-.475.185-.713.277zm-.203-6.12l.03.884.11-.04z"/><path d="M197.278 64.777l-.799-4.791-.11.04c.067 1.924.124 3.665.173 5.236.238-.092.475-.186.713-.277zm10.887-32.12l-1.649 2.636 19.071-15.158-17.422 12.522zm17.265-12.735a137.44 137.44 0 0 0 2.96-.988l6.865-2.942c2.018-1.34.487-1.908-2.097-2.104a132.612 132.612 0 0 0-8.382 5.142z"/><path d="M228.39 18.934a34.428 34.428 0 0 0 6.865-2.942zm-3.614.096c-.987.66-1.95 1.326-2.896 1.998 1.28-.388 2.469-.757 3.55-1.106zm98.262 19.615s-.147-.005-.41-.002l1.303 2.085z"/><path d="M326.241 46.79c-8.65-2.568-16.113 1.178-16.39 7.745 3.871-3.62 12.362-10.184 18.087-4.457l-4.007-9.35-1.303-2.085a21.483 21.483 0 0 0-2.477.19c2.094 2.69 4.107 5.398 6.09 7.957zm-172.03 285.738l.057 3.369 2.008.717-2.008-3.441-.057-.645zm25.161-137.442l9.075-3.63-1.514-1.462-7.561 5.092zm-30.548 76.569l-8.15-24.099 9.725 41.896-1.575-17.797z"/><path d="M163.226 334.526a153.882 153.882 0 0 0-4.181-2.046q-.183-6.492-.58-13.028-2.3-1.724-4.535-3.531l.281 16.607.057.645 2.008 3.44 5.614 2.005a29.671 29.671 0 0 0 1.336-4.092zm-25.472-107.54c15.14-11.686 32.081-24.042 50.2-31.187 1.058-.417 7.259 7.24 10.717 11.246l4.05-1.81-14.274-13.78-9.075 3.631-45.79 30.838 5.989 16.878 1.104 4.754 8.15 24.099 1.574 17.797 3.325 14.323.005.278a140.43 140.43 0 0 0 3.807 3.337c-2.635-28.397-8.633-56.482-19.782-80.404z"/><path d="M153.821 309.506l.109 6.415q2.232 1.81 4.536 3.53-.196-3.244-.45-6.49-2.13-1.688-4.195-3.455z"/><path d="M157.536 307.39a140.353 140.353 0 0 1-3.807-3.337l.092 5.453q2.065 1.767 4.195 3.455a366.787 366.787 0 0 0-.48-5.57zm47.908-39.546c0 2.723 1.088 25.588 1.088 25.588h8.712v-1.959c-1.767.226-3.534.448-5.296.687-2.595-4.023-1.548-10.224-1.821-16.633-.265-6.155 1.966-19.143.588-22.726l-.732-.892-1.451 3.413s-1.088 9.8-1.088 12.522zm2.721 30.488l-21.03.934c-.01.158-.037.295-.036.467 5.276.845 13.365-1.64 19.002.737q.272 3.188.584 6.34l1.48.232zm103.551-5.977l.85 4.253-.417-4.265-.433.012zm-14.728 46.671c.357-.136.712-.276 1.068-.415q-.19-2.583-.367-5.16c-.357.143-.72.278-1.078.42z"/><path d="M297.69 333.45q-.143-2.073-.275-4.145c-.368.153-.734.312-1.104.462l.3 4.103c.359-.14.72-.276 1.078-.42zm30.248-42.196s12.52-31.576 12.52-33.21c0-1.15 5.407-23.385 8.6-36.417l-1.962-1.458c-.452 2.512-1.074 5.148-1.398 6.764-2.675 13.225-8.689 30.696-14.417 44.554-2.082 5.036-4.073 11.333-6.823 12.42-7.525 2.98-16.658-.289-23.052 3.692 8.596-14.914 17.952-29 26.377-44.091-1.284-2.996-4.43-4.271-5.344-7.603 4.042-7.632 4.05-26.23-1.163-34.917l-6.139-4.56a8.48 8.48 0 0 0-4.598.947 13.042 13.042 0 0 1 2.464-2.532l-1.398-1.038 10.344-11.433-13.066 13.066v6.071l2.015-1.166 6.533 2.177 3.267 9.8a2.05 2.05 0 0 0-.89-.966 68.068 68.068 0 0 1 1.612 11.705c.12 2.504.122 8.69-2.467 12.053l-.407.53-.666-.02a132.844 132.844 0 0 1-8.997-.569v3.223c6.138-.936 11.226 2.871 13.892 7.152-7.2 12.333-14.121 24.968-22.526 35.997l-2.52 10.317 13.331-2.666.61 3.05 1.196-.065 6.199-2.435zm-1.089-104.526l-4.9-4.356 6.349 5.87-1.449-1.514zm24.498 25.586l-.75-.784-.484 5.798 1.234-5.014z"/><path d="M302.989 292.59l8.727-.235-.046-.23-8.681.465zm-9.592.019l.021.24 4.068-.11.244-.997-4.333.867zm19.517 5.736l-.348-1.737.635 6.482c.123-.083.207-.142.292-.2z"/><path d="M311.06 289.076l-13.33 2.666-.244.997 5.503-.149 8.681-.465-.61-3.049z"/><path d="M297.45 292.887l5.539-.297-5.503.149-.036.148zm52.264-70.773l.399-4.786-1.055 4.299zm1.089-13.066l-22.505-20.806 22.298 23.288.207-2.482z"/><path d="M313.003 194.843c2.54-2.11 5.917-4.203 7.771-6.94 6.369 5.128 10.213 9.954 16.318 15.438 3.314 2.97 9.829 6.53 10.487 11.332a20.929 20.929 0 0 1-.483 5.496l1.962 1.458 1.055-4.3.483-5.797-22.298-23.288-6.35-5.87-10.343 11.433z"/><path d="M315.137 196.428l6.139 4.56c-1.564-2.606-3.603-4.302-6.139-4.56zm-51.323 203.394a131.967 131.967 0 0 1-34.567-5.412 397.596 397.596 0 0 1-12.549-48.784q-1.12-.226-2.232-.472l1.321 9.25 11.272 45.738 25.043 5.444 41.374-3.266.104-1.559-43.495 1.553a106.497 106.497 0 0 0 13.73-2.492zm10.221-106.932l-64.78 2.718.652 17.634 3.213 22.492q.926.227 1.856.442c-1.98-11.578-3.593-23.545-4.976-36.26 21.46-4.015 51.579-7.524 74.798-4.236.044-1.302.082-2.247.106-2.792z"/><path d="M213.715 339.897l.75 5.257q1.114.244 2.233.472-.506-2.63-.985-5.284c-.667-.144-1.334-.29-1.998-.445z"/><path d="M213.715 339.897c.664.154 1.33.3 1.998.445-.25-1.384-.498-2.77-.737-4.166q-.93-.214-1.856-.442zm.527 5.208l1.545 9.3-1.321-9.25-.224-.05zm-4.988-49.497l64.781-2.718-13.767.002-51.014 2.716zm3.413 40.012l.453.114-3.213-22.492.274 7.415z"/><path d="M213.364 339.82l.878 5.285.224.05-.751-5.258c-.117-.027-.234-.05-.35-.078z"/><path d="M212.667 335.62l.697 4.2c.117.026.234.05.35.077l-.594-4.163-.453-.113zm83.219 3.827c-.65.242-1.304.473-1.958.705 1.882 18.149.481 38.614 3.999 55.505a79.771 79.771 0 0 1-4.083 1.138l-.264 3.966 2.237-.08 5.443-3.266-3.834-52.404-1.065.14zm-2.754-8.441c.665-.25 1.325-.512 1.986-.772l-3.111-37.347-.472 9.335c1.022 9.668.992 19.25 1.597 28.784z"/><path d="M287.107 292.342l-2.183.091-.02.455 7.103-.001 1.39-.278-.303-3.534zm6.331 42.728c.106 1.23.208 2.458.349 3.685.052.462.093.932.141 1.397.654-.232 1.308-.463 1.958-.705l-.428-5.129q-1.006.385-2.02.753z"/><path d="M293.438 335.07q1.013-.369 2.02-.752l-.34-4.084c-.661.26-1.32.522-1.986.772q.129 2.034.306 4.065zm-8.514-42.637l2.183-.091 5.987-3.267-8.166 3.268zm10.962 47.014l.475 5.704 1.065-.14-.438-5.985c-.367.14-.733.284-1.102.421zm-.768-9.213c.397-.157.797-.307 1.193-.467l-1.583-21.635-2.721-15.245z"/><path d="M295.458 334.318l.428 5.13c.369-.138.735-.282 1.102-.422l-.377-5.156c-.384.15-.767.301-1.153.448z"/><path d="M295.458 334.318c.386-.147.77-.297 1.153-.448l-.3-4.103c-.396.16-.796.31-1.193.467zm-3.451-41.431l1.411-.038-.021-.24-1.39.278z"/><path d="M294.728 308.132l-1.31-15.283-1.411.038 2.721 15.245zm-9.93-12.452c2.062.292 4.09.618 6.03 1.022.284 1.843.513 3.683.707 5.52l.472-9.335-7.103.001c-.024.545-.062 1.49-.106 2.792zm40.417 38.038l-5.989 2.179-1.285-6.857q-.519.3-1.04.595l1.076 8.444 21.232-5.989 5.667-.306-.606-.787zm48.14-47.565c1.776 2.685 3.482 8.416 4.913 14.152a34.616 34.616 0 0 0-.245-4.151l5.99 17.421.112 2.028 1.359-4.2-10.89-32.12-4.752-.62q-.89 1.428-1.812 2.834a14.719 14.719 0 0 1 5.325 4.656zm-41.688 35.38a5.64 5.64 0 0 1 2.258-.335l-.494-2.475c-.612.466-1.231.923-1.85 1.38.03.478.062.956.086 1.43zm-3.729-30.279l-15.072.807-.717.282.765 6.002.869 4.341-.29.203 2.189 17.177q2.31-1.395 4.568-2.872c-1.188-7.726-2.53-15.41-3.256-22.648 2.591-.05 5.75-.648 8.463-.026 2.424 4.168 3.986 9.583 4.96 15.294q.533-.424 1.061-.854zm0 0l7.077-2.721s.21 1.211.539 3.144c5.372-3.379 13.563-5.16 20.092-7.95q1.914-2.57 3.714-5.23l-14.708 4.596z"/><path d="M317.593 327.185s1.61-.743 3.825-1.705a255.4 255.4 0 0 0-.53-3.964q-2.303 1.466-4.659 2.85l.672 5.269q.52-.296 1.04-.595zm13.482-12.788c.223 1.91.386 3.82.506 5.706.619-.457 1.238-.914 1.85-1.38l-1.067-5.336c-.43.337-.856.678-1.29 1.01zm31.989-33.995a9.059 9.059 0 0 1 4.966 1.095q.92-1.407 1.812-2.835l-5.178-.675q-.788 1.216-1.6 2.415z"/><path d="M315.682 320.066l.547 4.3q2.36-1.379 4.658-2.85-.308-2.162-.637-4.322-2.253 1.483-4.568 2.872zm14.736-10.252a88.16 88.16 0 0 1 .657 4.583c.433-.332.859-.673 1.289-1.01l-.886-4.427q-.528.43-1.06.854zm28.942-31.317q-1.8 2.66-3.714 5.23a30.904 30.904 0 0 0 4.503-2.31 6.555 6.555 0 0 1 2.915-1.015q.811-1.2 1.6-2.415l-2.59-.338zm-40.296 11.129l-6.198 2.435 15.072-.807-8.874-1.628zm-6.15 8.719l.58 4.544.289-.203zm63.726 31.722a14.119 14.119 0 0 1-7.275 4.57c-6.188 1.503-15.679 1.898-19.733-.06 4.252-2.323 10.327-2.671 15.593-3.893l-20.35 1.1 4.839 6.29 16.332.544 9.8-2.178 8.71-13.066-.431-7.77-4.63 14.309z"/><path d="M378.023 296.154a34.616 34.616 0 0 1 .246 4.151c1.02 4.086 1.901 8.174 2.565 11.163 1.584 7.125-.273 14.11-4.195 18.599l2.856-.154 4.63-14.31-.113-2.028zm-10.241 33.839c-8.223-3.542-20.389-.204-30.277-.82-.407-4.171-.782-8.46-1.212-12.686q-1.417 1.136-2.862 2.236l.494 2.475a5.64 5.64 0 0 0-2.258.335c.16 3.096.197 6.093.153 8.834-3.355.647-5.533 2.57-9.612 2.443-.16-1.968-.378-3.955-.616-5.948q-1.808 1.117-3.651 2.178l1.285 6.857 5.99-2.179 19.054-2.72.606.786 20.35-1.1a31.275 31.275 0 0 0 2.556-.691zm-39.844-38.739l3.54 17.706q1.796-1.46 3.54-2.98a86.034 86.034 0 0 0-2.499-11.89 15.38 15.38 0 0 1 3.035-2.413c-.33-1.933-.54-3.144-.54-3.144z"/><path d="M317.593 327.185l.348 1.855q1.84-1.065 3.65-2.178c-.055-.46-.115-.921-.173-1.382-2.215.962-3.825 1.705-3.825 1.705zm14.771-13.798l1.067 5.336q1.444-1.1 2.862-2.236c-.198-1.94-.406-3.866-.636-5.76q-1.627 1.355-3.293 2.66z"/><path d="M332.364 313.387q1.665-1.307 3.293-2.66-.293-2.414-.638-4.747-1.747 1.518-3.54 2.98zm-38.2-30.029l2.035 5.18 1.364-7.91-1.202 3.005-2.197-.275zm-3.409-50.896h-2.146l4.948 1.019zm9.766 12.382c-.468 10.762-.633 21.454-2.915 31.528l.517 1.009 3.521-20.42 1.088-20.143-.926-.337v9.042s-.493-.263-1.285-.68zm-28.821-4.76l5.3 7.605-4.242-10.008a23.188 23.188 0 0 0-1.058 2.403zm26.84 38.104l-.417-.807-.56 3.247zm3.266-43.008l-8.249-1.699 8.249 3v-1.301zm-26.8-1.122a47.78 47.78 0 0 0-2.87 2.153l.622 1.47c1.132-2.234 3.09-5.22 5.475-5.22h10.376l-5.314-1.093-7.696 1.004-.052 1.315zm1.995 13.631l15.006 35.399 2.157.27-9.942-25.308-7.221-10.361z"/><path d="M272.758 237.68l4.243 10.009 7.221 10.361 9.942 25.308 2.197.275 1.202-3.005.56-3.247-.517-1.008a66.397 66.397 0 0 1-1.232 4.686c-7.503-13.758-11.918-30.368-21.632-42.076 1.027-1.087 1.943-2.294 2.95-3.408 4.4 1.839 7.27-2.414 10.653-2.05 3.877.412 6.946 5.765 12.478 5.414a329.926 329.926 0 0 0-.302 5.905c.792.416 1.285.679 1.285.679v-9.042l-8.249-3-4.948-1.02h-10.376c-2.385 0-4.343 2.986-5.475 5.22zm-65.135-29.717s.475.2 1.28.519c-1.091-1.283-1.32-2.58-.149-3.769 4.608 3.2 13.52 2.414 20.302 3.605.245 1.505-.516 3.341-1 5.332a7.358 7.358 0 0 0 1.678-.192 13.483 13.483 0 0 1 2.148-4.821l.077-2.305-15.082-1.64-9.213-2.835c-1.874-.38-3.637-.757-4.943-1.04v4.419l4.158 3.72z"/><path d="M206.879 208.956l-4.158-3.72 3.803 4.193.355-.473zm2.759 3.907l.571.257-.939-.663.368.406zm11.065 4.979l8.935 4.021q-.174-1.094-.262-2.166zm-17.982-17.506v.48c1.306.284 3.069.66 4.943 1.04zm10.344 14.155l.652.208-.845-.381.193.173zm-7.075-4.349l3.28 2.315-2.746-3.028-.534.713z"/><path d="M213.065 214.491l-.193-.173-2.663-1.198 5.037 3.555 5.457 1.167-6.986-3.143-.652-.208z"/><path d="M213.717 214.699l11.326 3.603 4.325 1.297a20.048 20.048 0 0 1 .366-6.14 7.358 7.358 0 0 1-1.679.191 11.032 11.032 0 0 0-.37 2.723c-4.291-.264-15.483-4.013-18.782-7.891-.805-.32-1.28-.519-1.28-.519l-.744.993 5.993 5.362z"/><path d="M206.879 208.956l-.355.473 2.746 3.028.939.663 2.663 1.198-5.993-5.362zm22.489 10.644l-4.325-1.298-11.326-3.603 6.986 3.143 8.673 1.855-.008-.098zm59.798-5.455l.425 1.224c.013.037.031.07.045.108l.291-1.603zm18.744 19.51q-3.206-.342-6.232-.85-2.975-.5-5.768-1.17c.442.812.833 1.372.833 1.372l-5.09-1.818-.106.637 1.126.318a93.409 93.409 0 0 0 16.21 2.91v-1.31c-.323-.03-.653-.055-.973-.09z"/><path d="M320.115 223.121a28.966 28.966 0 0 1-.345 6.375 15.982 15.982 0 0 1-.591 2.296c-.11.323-.23.627-.36.921a7.75 7.75 0 0 1-.901 1.603q-4.677-.138-9.035-.571v1.308c2.885.281 5.878.478 8.997.57l.666.018.407-.53c2.589-3.363 2.587-9.549 2.467-12.052a68.068 68.068 0 0 0-1.612-11.705 4.872 4.872 0 0 0-1.513-.56 63.155 63.155 0 0 1 1.82 12.327zm-24.205 8.514q2.794.67 5.768 1.17-2.975-.5-5.768-1.17z"/><path d="M307.91 233.655c.32.034.65.058.973.09-.323-.032-.653-.056-.973-.09zm.973.09q4.364.427 9.035.57-4.677-.137-9.035-.57zm-69.999 11.961c-.12-.351-.254-.724-.396-1.107-1.395-2.653-2.93-5.651-4.342-8.806l.614 2.662c.52 1.46 1.062 2.863 1.57 4.163.503 1.29.964 2.472 1.318 3.51.145.427.266.857.383 1.275a7.697 7.697 0 0 0 1.528 3.305q-.146-1.882-.3-3.762a23.222 23.222 0 0 0-.375-1.24zm19.043-.323c-.368.2-.851.44-1.421.705a65.44 65.44 0 0 1-3.39 1.444 76.84 76.84 0 0 1-2.072.789c-1.653.6-3.37 1.156-4.921 1.553-.776.198-1.51.357-2.175.46-.332.053-.647.091-.941.114a5.035 5.035 0 0 1-1.483-.06l-1.752.527a3.276 3.276 0 0 0 1.455.745 5.032 5.032 0 0 0 1.132.112c4.528 0 13.984-4.038 16.193-5.243a61.743 61.743 0 0 0 10.251-7.545 153.517 153.517 0 0 1 3.332-2.773l-.527-1.243c-4.305 3.414-8.513 7.597-13.681 10.415zm16.358-12.84l1.314-.171.177-4.534a14.77 14.77 0 0 1-1.324.425q-.085 2.14-.167 4.28zm-40.94 1.4c.409 1.55.898 3.06 1.415 4.512l-.614-2.662c-.273-.61-.54-1.229-.801-1.85z"/><path d="M274.268 232.98c-.897.614-1.78 1.29-2.66 1.988l.527 1.243a47.78 47.78 0 0 1 2.87-2.153l.542-.371.052-1.315-1.314.171zm8.558-15.422a5.032 5.032 0 0 1 1.347.212 4.688 4.688 0 0 1 1.849 1.104 5.498 5.498 0 0 1 .892 1.124 7.154 7.154 0 0 1 .98 3.563 7.455 7.455 0 0 1-.13 1.509 6.712 6.712 0 0 1-.441 1.43 5.788 5.788 0 0 1-.759 1.272c-1.38 1.745-3.863 2.669-7.57 1.51a49.952 49.952 0 0 0-.572-2.775c-.38.245-.775.476-1.184.685.155.683.315 1.434.47 2.316l.137.783.76.237a11.688 11.688 0 0 0 3.489.585 6.719 6.719 0 0 0 6.038-3.327 7.907 7.907 0 0 0 .989-3.162v-2.09a7.74 7.74 0 0 0-2.236-4.643 6.191 6.191 0 0 0-4.819-1.627 1.964 1.964 0 0 1 .522.411 8.404 8.404 0 0 1 .238.883zm13.634-7.516c3.853-2.618 8.292-5.634 12.423-6.756v-1.777l-18.673 10.81-.283 1.555.46-.164a36.07 36.07 0 0 0 6.074-3.668z"/><path d="M289.12 224.624v5.66l2.533.905.086-.516a17.267 17.267 0 0 0 .062-3.798 11.713 11.713 0 0 1 .305-4.509l.136-.39.335-.243a6.904 6.904 0 0 1 1.355-.75 10.45 10.45 0 0 0-1.224.22l-1.562.386-.057-1.609a7.928 7.928 0 0 0-.884-3.11 20.443 20.443 0 0 1-.57-1.393l-.514 2.831v4.225a8.903 8.903 0 0 1 0 2.091zm26.716-20.794c1.877 1.093 3.134 4.152 3.972 7.524a2.05 2.05 0 0 1 .89.965l-3.267-9.8-6.533-2.176-2.015 1.166v1.777a8.816 8.816 0 0 1 6.953.543z"/><path d="M291.09 219.98l.056 1.609 1.562-.385a10.45 10.45 0 0 1 1.224-.221 6.904 6.904 0 0 0-1.355.75l-.335.243-.136.39a11.713 11.713 0 0 0-.305 4.51 17.267 17.267 0 0 1-.062 3.797l-.086.516 5.09 1.818s-.391-.56-.833-1.372q-1.466-.352-2.883-.75a11.155 11.155 0 0 0 .126-1.119c.023-.37.03-.74.028-1.105-.006-.73-.052-1.446-.09-2.136-.039-.69-.07-1.353-.044-1.979a6.117 6.117 0 0 1 .294-1.753 5.354 5.354 0 0 1 .825-.484 7.419 7.419 0 0 1 .934-.366 37.656 37.656 0 0 1 6.77-.938 13.87 13.87 0 0 0-3.358-1.113 15.77 15.77 0 0 0-2.47-.296 13.198 13.198 0 0 0-3.647.339c-.072-2.08-1.004-3.368-1.57-4.995.047-.016.098-.04.146-.058.231-.088.476-.196.733-.32q.235-.114.485-.247.385-.205.8-.45c4.15-2.44 10.422-7.587 15.894-9.212v-1.367c-4.131 1.122-8.57 4.138-12.422 6.756a36.07 36.07 0 0 1-6.074 3.668l-.46.164-.291 1.603c.172.48.367.939.569 1.392a7.928 7.928 0 0 1 .884 3.111zm24.746-16.15a8.816 8.816 0 0 0-6.953-.544v1.367c2.316-.688 4.49-.748 6.294.305 1.337.779 2.356 3.058 3.118 5.836a4.872 4.872 0 0 1 1.513.56c-.838-3.372-2.095-6.431-3.972-7.525z"/><path d="M293.153 229.767a11.155 11.155 0 0 1-.126 1.119q1.415.399 2.883.749-1.466-.352-2.883-.75a11.137 11.137 0 0 0 .126-1.118zm-2.183-14.885c-.047.019-.098.042-.144.058.565 1.627 1.497 2.916 1.57 4.995-.073-2.08-1.005-3.368-1.57-4.995.046-.016.097-.04.145-.058zm3.196 7.428a5.354 5.354 0 0 0-.825.483 6.117 6.117 0 0 0-.294 1.754 6.119 6.119 0 0 1 .294-1.754 5.353 5.353 0 0 1 .825-.484zm-5.046.223v2.091a8.903 8.903 0 0 0 0-2.09zm-57.238-13.896l-.468 14.025-.333-.15 1.237 5.361c-.005-.096-.02-.193-.025-.29l-.025-.548c-.324-6.996-.767-16.576 3.52-20.292a6.685 6.685 0 0 1 5.91-1.342 82.588 82.588 0 0 1 21.929 8.018c.933.512 1.752 1.044 2.544 1.56a14.519 14.519 0 0 0 7.673 2.933l1.25.095-.153 4.04-.562.369a16.042 16.042 0 0 1-5.245 1.93 28.65 28.65 0 0 1 5.923 2.185l.756.376-.037.93a14.463 14.463 0 0 0 1.462-.645c-.096-.424-.19-.827-.28-1.2a18.133 18.133 0 0 1-.644-6.744l.056-.623.521-.347a10.966 10.966 0 0 1 5.175-2.014c-2.198-1.286-8.022-.29-10.233-1.436l-12.76-6.615a46.657 46.657 0 0 0-9.06-3.395l-14.627.418a13.727 13.727 0 0 0-3.504 3.4zm7.698 42.336l.192-.058a3.326 3.326 0 0 1-.213-.207l.02.265z"/><path d="M235.386 205.236l14.627-.418c-5.314-1.4-11.174-1.93-14.627.418zm-4.305 17.277l-1.443-.65a53.522 53.522 0 0 0 3.707 12.08 30.938 30.938 0 0 1-1.027-6.07zm-.594-2.578l.594 2.578.333.15.468-14.026a13.483 13.483 0 0 0-2.148 4.821c.07-.017.145-.03.21-.05z"/><path d="M230.487 219.935l-1.111-.238q.09 1.072.262 2.166l1.443.65zm-1.119-.335l1.119.335-.542-6.526c-.066.02-.141.032-.21.05a20.048 20.048 0 0 0-.367 6.14z"/><path d="M229.376 219.697l1.11.238-1.118-.336.008.098zm9.883 27.249l.3 3.762c.068.072.138.141.213.207l1.752-.527c-1.418-.329-1.805-1.805-2.265-3.442zm-6.941-19.073a30.938 30.938 0 0 0 1.027 6.07c.262.621.528 1.24.801 1.85zm44.052-9.248l-.056.623a18.133 18.133 0 0 0 .644 6.743c.09.374.184.777.28 1.2.41-.208.803-.439 1.184-.684a18.738 18.738 0 0 1-.806-7.142 9.314 9.314 0 0 1 4.995-1.822c.075 0 .142.012.215.015a8.404 8.404 0 0 0-.238-.883 1.964 1.964 0 0 0-.522-.41 10.966 10.966 0 0 0-5.175 2.013zm13.941 64.314q-2.645-.797-5.3-1.714 2.653.914 5.3 1.714zm-10.601-3.646zm-23.635-127.409c-5.512-2.654-9.452-1.205-10.168-.251-1.357 1.811 1.456 11.687 1.456 11.687l2.722.546c-.543-10.892 5.99-11.982 5.99-11.982zm37.565 93.368a2.995 2.995 0 1 0-2.996 2.993 2.996 2.996 0 0 0 2.996-2.993zm-.002 10.887a2.994 2.994 0 1 0 2.995 2.995 2.996 2.996 0 0 0-2.995-2.995z"/></svg>