<svg xmlns="http://www.w3.org/2000/svg" viewBox="0 0 856.13 274.32"><defs><style>.cls-1,.cls-2{fill:#fff;}.cls-2{font-size:60px;font-family:Terminator;}.cls-3{letter-spacing:-0.01em;}</style></defs><g id="Layer_2" data-name="Layer 2"><path class="cls-1" d="M102,236.12a23.82,23.82,0,0,1-11-3c-10.41-5.37-21.11-13.32-31.81-23.64a218,218,0,0,1-28.5-34A196.42,196.42,0,0,1,10,136.57C4.6,122.61,1.87,109.63,1.87,98A92.38,92.38,0,0,1,9.76,60.47,95.72,95.72,0,0,1,31.23,29.91,99.94,99.94,0,0,1,63,9.36a104.06,104.06,0,0,1,77.73,0,100,100,0,0,1,31.78,20.57A95.65,95.65,0,0,1,194,60.47,92.38,92.38,0,0,1,201.87,98c0,11.94-2.42,24.89-7.18,38.5A178.83,178.83,0,0,1,175.45,175a188.19,188.19,0,0,1-28.21,33.91,140.56,140.56,0,0,1-34.38,24.36A24.41,24.41,0,0,1,102,236.12Zm-.16-225.4c-50.23,0-91.1,39.14-91.1,87.24,0,20.55,10,47,27.3,72.51,16.6,24.41,37.91,44.86,57,54.72,5.11,2.64,8.6,2.66,13.85.1,44.76-21.9,84-81.39,84-127.33,0-48.1-40.87-87.24-91.1-87.24Z" transform="translate(-1.87 38.2)"/><path class="cls-1" d="M185.68,100.35s-9.81,58-45.38,64.16-33.17-32-14.54-44.63S185.68,100.35,185.68,100.35Z" transform="translate(-1.87 38.2)"/><path class="cls-1" d="M112,125c0-.07,0-.13,0-.19v-.53a5.32,5.32,0,0,1,0-.69,9.07,9.07,0,0,1,.23-1.35,11.42,11.42,0,0,1,.94-2.52,16.06,16.06,0,0,1,3.19-4.26,24.17,24.17,0,0,1,4.18-3.23l.56-.35c.19-.12.38-.22.57-.33l.57-.32.58-.31c.78-.41,1.54-.83,2.33-1.21q4.68-2.34,9.56-4.24c1.63-.64,3.27-1.23,4.91-1.8s3.32-1.09,5-1.56c-1.66.5-3.31,1.07-5,1.67s-3.26,1.22-4.86,1.9q-4.83,2-9.45,4.43c-.77.4-1.53.83-2.29,1.25l-.56.31L122,112c-.19.11-.38.21-.56.33l-.54.35a24.65,24.65,0,0,0-4,3.25,15.56,15.56,0,0,0-3,4.13,11.09,11.09,0,0,0-.82,2.37,10.46,10.46,0,0,0-.19,1.23c0,.21,0,.42,0,.62v.45a.25.25,0,0,0,0,.13Z" transform="translate(-1.87 38.2)"/><path class="cls-1" d="M18.06,100.35s9.81,58,45.38,64.16,33.17-32,14.54-44.63S18.06,100.35,18.06,100.35Z" transform="translate(-1.87 38.2)"/><path class="cls-1" d="M90.84,124.88a.59.59,0,0,0,0-.13v-.45c0-.2,0-.41,0-.61a10.31,10.31,0,0,0-.19-1.24,10.59,10.59,0,0,0-.83-2.37A15.19,15.19,0,0,0,86.88,116a24.5,24.5,0,0,0-4-3.25l-.55-.35c-.18-.12-.37-.22-.55-.33l-.56-.34-.57-.31c-.76-.42-1.51-.85-2.29-1.25q-4.6-2.43-9.44-4.43c-1.61-.68-3.23-1.3-4.87-1.9s-3.28-1.17-4.95-1.67c1.68.47,3.34,1,5,1.56s3.29,1.16,4.91,1.8q4.88,1.91,9.57,4.24c.79.38,1.55.79,2.32,1.21l.58.31.57.32c.19.11.39.21.57.33l.57.35a24.1,24.1,0,0,1,4.17,3.23,15.88,15.88,0,0,1,3.2,4.26,12,12,0,0,1,1,2.52,12.69,12.69,0,0,1,.23,1.35c0,.23,0,.46,0,.69v.53a.65.65,0,0,1,0,.19Z" transform="translate(-1.87 38.2)"/></g><g id="Layer_3" data-name="Layer 3"><text class="cls-2" transform="translate(205.13 171.2)">O<tspan class="cls-3" x="68.04" y="0">R</tspan><tspan x="134.82" y="0">TELIUS</tspan></text><text x="-1.87" y="38.2"/></g></svg>