<svg id="Layer_1" data-name="Layer 1" xmlns="http://www.w3.org/2000/svg" viewBox="0 0 360 360"><defs><style>.cls-1{fill:#fff;}</style></defs><title>cdfoundation-icon-white</title><path class="cls-1" d="M231.52084,299.27768c2.482-.33211,4.89413-.76908,7.25378-1.3284s4.64941-1.20605,6.99159-1.95764C259.26,291.41215,270.95345,283.0397,282.14,271.39871l-.13984-.1748C267.05564,286.71027,251.30708,296.56843,231.52084,299.27768Z"/><path class="cls-1" d="M224.23211,299.95936h.3321c1.08369,0,2.14991-.13984,3.21613-.22724-1.06622.0874-2.13244.1748-3.23362.22724Z"/><polygon class="cls-1" points="284.692 177.187 284.57 177.379 284.57 177.379 284.692 177.187"/><path class="cls-1" d="M146.14519,221.84738a150.84353,150.84353,0,0,1-12.971,15.86139c-7.58124,7.88924-15.506,13.56332-24.6509,16.66689a47.83172,47.83172,0,0,1-4.73828,1.32672c-1.64655.36721-3.23387.67521-4.916.90026-.55675.08293-1.1135.154-1.68209.21322l-.91212.08292c-.72259.05924-1.44518.11847-2.1796.154h-3.068a42.3246,42.3246,0,0,1-9.19226-1.04242,49.97659,49.97659,0,0,1-6.76392-2.00191,43.09748,43.09748,0,0,1-4.52505-1.95453c-1.49257-.77-2.96143-1.51625-4.40661-2.36915a59.50083,59.50083,0,0,1-17.10519-15.39941c-1.03058-1.38594-2.00193-2.83112-2.914-4.31183-.45014-.74629-.87658-1.49255-1.29118-2.26254a51.98478,51.98478,0,0,1-2.26253-4.73828,46.71939,46.71939,0,0,1,0-36.42553,51.986,51.986,0,0,1,2.26253-4.73828c.4146-.77.841-1.51625,1.29118-2.26253.91211-1.48071,1.88346-2.92589,2.914-4.31184a59.7141,59.7141,0,0,1,17.10519-15.39941c1.44518-.85289,2.914-1.64655,4.40661-2.36914q2.21676-1.00082,4.52505-1.77685a49.976,49.976,0,0,1,6.906-2.073,42.32522,42.32522,0,0,1,9.19226-1.04242h3.12726c.72259,0,1.44518.09477,2.15593.154l1.04243.10661,1.01873.11845c1.80055.23691,3.55371.55675,5.27133.9595.85289.20138,1.69393.42645,2.52314.66336a51.18551,51.18551,0,0,1,11.8457,5.17657c1.49255.88843,2.94959,1.84793,4.39477,2.89036a74.4847,74.4847,0,0,1,8.38675,7.10742q2.03747,1.99007,4.06307,4.19338l.08293-.13031a159.39475,159.39475,0,0,1,11.06386,13.9424c5.43718-8.57629,13.6581-21.46441,16.584-25.74071,1.18457-1.71763,2.36915-3.45895,3.66032-5.21211-13.53963-16.51291-29.82747-30.23023-51.588-36.082h-.154c-1.05427-.2843-2.10854-.5449-3.1865-.79366l-.45014-.10661c-1.04243-.22507-2.09669-.43829-3.151-.62782l-.62782-.11845c-1.18457-.21323-2.47575-.40275-3.74325-.5686h-.14214c-.687-.09477-1.37411-.16584-2.073-.23691h-.39091l-1.87162-.16584h-.56859l-1.75316-.11846h-.67521l-1.77686-.07107H91.12188c-46.447-.24877-87.12511,40.47674-87.12511,86.91189S44.7223,291.9976,91.16929,291.9976h3.1391l1.72948-.07107h.73443l1.67025-.09476h.67521l1.70578-.154h.56859l1.81239-.21322.41461-.05923,1.96639-.27245h.21322c1.18457-.18953,2.36914-.40275,3.55371-.62782l.65151-.14214c.9595-.20137,1.90716-.41461,2.85482-.63966l.58045-.14214c1.00689-.26061,2.01376-.52122,3.0088-.81736l.23691-.07107c20.73-6.07685,36.42553-19.39141,49.55057-35.2765-2.03746-3.068-3.39971-5.3661-4.03939-6.4796Z"/><path class="cls-1" d="M318.05,41.73348v94.659a85.51406,85.51406,0,0,0-52.59491-18.72805h-3.11542l-1.77686.07107-.69889.04738-1.75318.11846h-.56861l-1.8716.16583h-.39089c-.6989.07108-1.386.14216-2.073.23692h-.154c-1.25564.154-2.49943.35537-3.73139.56859l-.62782.11846c-1.06611.18953-2.10853.40275-3.151.62782l-.45014.10661c-30.34869,6.85866-50.3324,28.80874-66.82161,52.82h0c-.69889,1.01874-1.35041,2.04931-2.03746,3.068-2.25068,3.4234-5.46087,8.42229-8.63551,13.39748-4.16969,6.527-8.292,13.03027-9.93854,15.66l20.62337,32.1374h0s21.99747,40.46492,61.68057,51.48142l.23693.07107c.995.29615,2.00193.55675,3.00882.81736l.58043.14214c.93582.23691,1.89532.43829,2.85482.63966l.6515.14214c1.18457.22508,2.36914.43829,3.55371.62783h.21321l1.96639.27244.41461.05923,1.81239.21322h.56861l1.70578.154h.67521l1.67025.09477h.73443l1.72946.07107h3.1391c54.70345,0,86.35516-30.96467,87.14884-85.064h0V41.73348ZM265.4551,257.13571h-3.068c-.73443,0-1.457-.09476-2.17961-.154l-.9121-.08293c-.56861-.05923-1.12536-.1303-1.68211-.21321a49.07737,49.07737,0,0,1-9.57131-2.27437,49.61167,49.61167,0,0,1-6.6336-2.83112,55.79247,55.79247,0,0,1-6.25453-3.76693c-1.00689-.69889-2.01376-1.43334-3.0088-2.21514a82.39874,82.39874,0,0,1-8.6829-7.92478l-.09477.11847h0c-1.25564-1.303-2.4876-2.689-3.73139-4.11046-.154-.16584-.29614-.35538-.45014-.53305-.62782-.72259-1.25564-1.44518-1.88346-2.21514s-1.12534-1.39779-1.68209-2.0967-.88843-1.10164-1.33857-1.68209c-2.01376-2.59421-4.01569-5.3424-6.05315-8.292-.6989-.995-1.39779-2.02562-2.10854-3.05619-.37907-.56859-.77-1.18457-1.18457-1.72948-.67521-1.01873-1.36225-2.01377-2.0493-3.05619l-.35537-.54491c-1.18457-1.8124-2.36914-3.684-3.64848-5.603q2.94955-4.608,5.81624-8.86058c1.90716-2.83112,3.79062-5.55563,5.66225-8.138s3.71955-5.04627,5.59117-7.37987,3.71955-4.52506,5.603-6.58621q2.02565-2.20329,4.06307-4.19338c1.3741-1.33856,2.74821-2.59421,4.15783-3.77878s2.80743-2.28622,4.25261-3.32864a57.59364,57.59364,0,0,1,7.74709-4.61983c.33168-.16583.66336-.36721,1.0069-.53305l.22507-.11845c1.40964-.65152,2.843-1.18457,4.3-1.72947l.48568-.20138c.27247-.08292.55675-.14215.82921-.23691,1.08983-.35537,2.21515-.6752,3.3405-.94766l1.37411-.34353c1.55178-.33167,3.12728-.62782,4.73828-.841l1.01871-.11846,1.04243-.1066c.71075,0,1.43332-.11846,2.15592-.154h3.12725a42.43114,42.43114,0,0,1,4.57242.2606,48.01132,48.01132,0,0,1,6.92975,1.35041c1.53992.42645,3.07989.924,4.59613,1.5044a48.72438,48.72438,0,0,1,4.52507,1.95455c1.49257.72258,2.96143,1.51624,4.4066,2.36914s2.86668,1.80054,4.24075,2.78373,2.7245,2.04931,4.02753,3.17465a58.459,58.459,0,0,1,8.83688,9.47656c1.03057,1.386,2.00193,2.83113,2.914,4.31184a51.067,51.067,0,0,1,5.3187,11.91677A47.37943,47.37943,0,0,1,316.972,196.924a45.56728,45.56728,0,0,1,.71075,8.09061C317.75387,240.97818,301.62,257.13571,265.4551,257.13571Z"/></svg>