<svg xmlns="http://www.w3.org/2000/svg" role="img" viewBox="57.18 -4.82 374.64 510.64"><defs><style>.cls-1{fill:none}</style></defs><path d="M377.724 345.872c-7.868 3.362-17.739 5.509-24.213 9.581a2125.64 2125.64 0 0 1 2.424 14.504c.312 1.916.623 3.84.918 5.704.386 2.443.744 4.77 1.044 6.819.523 3.565.869 6.284.869 7.235 0 0 36.739 1.968 40.02 1.968 0 0 6.26-12.042 6.2-25.832-1.725-6.912-3.78-13.82-5.92-17.055a17.738 17.738 0 0 0-6.418-5.611 10.917 10.917 0 0 0-5.984-1.32 7.9 7.9 0 0 0-3.514 1.223 37.243 37.243 0 0 1-5.426 2.784zm16.539 39.267c-9.302.201-20.863.016-29.705-.726 5.23-5.617 23.672-2.084 29.705.726zm-2.868-13.7c-7.264.767-15.64 1.89-23.256 1.688a56.73 56.73 0 0 1-3.136-.165c1.296-1.979 3.806-3.08 6.834-3.593 6.261-1.062 14.768.417 19.558 2.07zm-4.48-15.892a22.355 22.355 0 0 0-4.132 1.29c-5.311 2.188-9.93 6.022-14.88 8.258a16.97 16.97 0 0 1-8.182 1.72 22.074 22.074 0 0 1 1.776-2.17q.661-.719 1.379-1.377a28.034 28.034 0 0 1 12.292-6.216 50.694 50.694 0 0 1 8.49-1.325 69.243 69.243 0 0 1 3.257-.18zm-94.133 61.713q-.153-3.103-.272-6.14a169.538 169.538 0 0 1-83.419 2.98q.576 3.197 1.187 6.367a479.143 479.143 0 0 0 15.123 58.789 159.033 159.033 0 0 0 41.657 6.522c19.578-4.879 32.006-12.742 32.006-12.742-3.53-17.412-5.371-37.356-6.282-55.777zm55.331-34.427c-.217-1.853-.48-3.7-.792-5.523-1.174-6.883-3.056-13.408-5.978-18.43-3.269-.75-7.076-.03-10.2.03.877 8.722 2.493 17.983 3.925 27.293q.4 2.604.768 5.209a306.8 306.8 0 0 1 .64 4.777c2.227-.969 4.96-2.12 7.507-3.095 1.79-.685 3.485-1.281 4.844-1.662-.03-.571-.068-1.147-.104-1.723-.144-2.273-.34-4.575-.61-6.876zm-49.706-90.216c-4.594-1.968-7.873 5.905-7.873 5.905 0 4.46 13.26 30.701 17.246 38.487 2.75-12.14 2.949-25.025 3.513-37.995-2.953-1.553-9.415-4.91-12.886-6.397zm-2.624 6.889a3.609 3.609 0 1 1 3.608 3.607 3.61 3.61 0 0 1-3.608-3.607zm7.215 20.337a3.609 3.609 0 1 1 3.61-3.607 3.608 3.608 0 0 1-3.61 3.607z" class="cls-1"/><path d="M142.83 104.271q-.006 1.523.033 3.042c.125 4.662.535 9.238.869 13.29a24.996 24.996 0 0 1 2.353-1.296 24.324 24.324 0 0 1 11.424-2.477c11.882.347 22.634 9.24 22.493 21.318 7.48-.2 2.794-9.344 1.441-15.234a51.123 51.123 0 0 1-.626-16.687c.523-5.166 1.474-10.348 2.237-15.46.37-2.478.69-4.94.898-7.374a59.21 59.21 0 0 0 .227-6.482 40.263 40.263 0 0 0-.408-4.922c-.075-.501-.164-1-.261-1.497a30.3 30.3 0 0 0-1.528-5.32c-13.42 1.017-24.446 6.499-32.445 15.307-3.094 3.403-4.836 7.877-5.77 12.79a52.333 52.333 0 0 0-.8 6.552 76.743 76.743 0 0 0-.138 4.45zm193.645 291.918c.07.555.144 1.111.21 1.666.288 2.401.55 4.795.743 7.168 4.915.153 7.54-2.165 11.583-2.945a159.1 159.1 0 0 0-.184-10.646c-1.359.38-3.053.977-4.844 1.662-2.547.975-5.28 2.126-7.508 3.095zM294.892 252.52c-1.306.313-2.624.63-3.946.93q-.992.224-1.987.431a68.838 68.838 0 0 1-3.971.716 38.115 38.115 0 0 1-5.87.449 20.95 20.95 0 0 1-8.44-1.685c-.027.563-.761.358-.881.817 7.308 5.712 12.736 6.893 22.683 6.4 4.486-3.255 8.464-7.061 13.134-10.11a52.387 52.387 0 0 0-6.304 1.03 205.2 205.2 0 0 0-4.418 1.022zM209.229 30.55c2.072-.999 5.136-.93 5.253-4.042-.898-.96-1.843-1.692-2.92-1.387-19.624 5.562-44.775 19.822-52.84 37.45 4.41-.64 7.874-2.385 11.694-3.5a22.914 22.914 0 0 1 5.046-.945c2.328-.152 5.378.976 8.053.31 5.332-1.322 9.832-13.277 13.855-17.725 3.275-3.629 7.092-5.534 10.144-8.368a17.748 17.748 0 0 0 1.715-1.792zm89.178 262.067c3.471 1.488 9.933 4.844 12.886 6.397.103-2.37.218-4.743.364-7.115-6.667.423-10.365-6.029-15.038-6.525-4.076-.439-7.536 4.687-12.836 2.47-1.215 1.343-2.319 2.797-3.557 4.108 11.707 14.108 17.027 34.125 26.07 50.705a80.01 80.01 0 0 0 1.484-5.648c-3.986-7.786-17.246-34.027-17.246-38.487 0 0 3.279-7.873 7.873-5.905zm-3.933-14.176a6.975 6.975 0 0 0 .914-1.532 8.089 8.089 0 0 0 .53-1.725 8.985 8.985 0 0 0 .157-1.817 8.621 8.621 0 0 0-1.18-4.295 6.626 6.626 0 0 0-1.075-1.354 5.65 5.65 0 0 0-2.228-1.33 6.065 6.065 0 0 0-1.623-.256c-.088-.003-.17-.018-.259-.018a11.224 11.224 0 0 0-6.02 2.196c-.332 3.694.247 5.492.972 8.607.223.96.46 2.04.69 3.344 4.467 1.396 7.458.283 9.122-1.82zm-27.416 207.337a128.339 128.339 0 0 1-16.545 3.004l52.416-1.872.318-4.78a136.27 136.27 0 0 1-36.19 3.648zm150.102-244a178.337 178.337 0 0 1-25.007 91.462 21.528 21.528 0 0 1 5.647 1.574 184.644 184.644 0 0 0-27.262-220.679 180.023 180.023 0 0 0-4.654-4.574q.2 3.527.277 7.1a177.624 177.624 0 0 1 50.998 125.117zM74.493 267.046l-.002-.01-.008-.069q-.604-4.308-1.002-8.68l-2.927-25.366 3.631-14.161a177.04 177.04 0 0 1 57.126-109.343l.887-1.02a118.21 118.21 0 0 1 .033-6.22q-6.732 5.659-12.894 11.958a184.36 184.36 0 0 0 0 256.595q5.073 5.191 10.557 9.948-.292-4.21-.637-8.406a177.05 177.05 0 0 1-54.764-105.226z"/><path d="M366.194 125.095a173.969 173.969 0 0 1 20.243 207.895 30.634 30.634 0 0 1 5.716.25 179.297 179.297 0 0 0-25.992-216.58q.096 4.2.033 8.435zM106.639 137.79l24.672-28.373A177.04 177.04 0 0 0 74.185 218.76l9.492-37.013zm20.346 225.463a171.795 171.795 0 0 1-47.21-96.404 184.295 184.295 0 0 0-.035 18.557l-5.247-18.36a177.05 177.05 0 0 0 54.764 105.226q-.309-3.717-.685-7.435c-.53-.527-1.064-1.05-1.587-1.584zm-52.502-96.286l-1.002-8.68q.397 4.372 1.002 8.68zm.007.069l.003.01-.01-.079zm-.305-48.276l-3.63 14.161 2.926 25.366a182.312 182.312 0 0 1-.759-16.509 181.787 181.787 0 0 1 1.463-23.018zm58.013-110.363l-.887 1.02c.299-.268.591-.543.891-.809z"/><path d="M79.774 266.849a176.263 176.263 0 0 1-1.703-24.413 172.292 172.292 0 0 1 48.914-120.827q2.974-3.04 6.097-5.923a30.809 30.809 0 0 1-.846-5.298c-.02-.599-.021-1.186-.034-1.78-.3.266-.592.54-.89.809l-24.673 28.372-22.962 43.958-9.491 37.013a181.787 181.787 0 0 0-1.464 23.018c0 5.568.265 11.073.759 16.509l1.002 8.68.01.08 5.247 18.359a184.295 184.295 0 0 1 .034-18.557zm69.112-129.985a8.975 8.975 0 0 1 1.715-1.201 6.261 6.261 0 0 0-1.715 1.2zm201.672-26.667q4.374 3.664 8.494 7.624c-.135-2.792-.25-5.574-.383-8.314a173.73 173.73 0 0 0-13.687-11.128c1.83 3.967 3.617 7.972 5.576 11.818zM188.033 62.433l6.63-10.6a47.412 47.412 0 0 0-6.63 10.6zm49.172-41.416q-1.553.774-3.167 1.61l9.874-4.232a41.97 41.97 0 0 0-6.707 2.622zm-47.386 67.479l-.232.077c-.07.372-.14.745-.215 1.117.14-.385.296-.794.447-1.194zm148.037 12.044a12.674 12.674 0 0 0-6.645 9.688c-.996 9.528 11.81 1.968 13.777 1.313l-.461-3.079a43.262 43.262 0 0 1-1.292-4.056q-2.653-1.983-5.379-3.867zm-88.656 9.688c0 8.722 14.781 8.57 20.206 5.162-2.678-4.967-5.313-10.983-5.664-16.057l-.106-.257s-14.435 1.969-14.435 11.152zM220.661 92.05c.8 2.203.88 3.987 2.269 1.466a3.75 3.75 0 0 1-2.269-1.467zm102.705 149.76a10.22 10.22 0 0 1 5.54-1.141l-2.571-1.91a15.717 15.717 0 0 0-2.97 3.05zm-98.196 13.187c-8.172-1.435-18.912-.488-24.465-4.344-1.412 1.433-1.135 2.996.18 4.541 4.289 1.703 16.513 6.307 23.08 6.23.584-2.4 1.501-4.614 1.206-6.427z"/><path d="M223.518 264.704a13.295 13.295 0 0 1 .447-3.28c-6.567.077-18.791-4.527-23.08-6.23 3.975 4.674 17.462 9.192 22.633 9.51zm28.978-192.896a165.787 165.787 0 0 0-7.558-.182c-1.626 0-3.244.03-4.858.077a54.763 54.763 0 0 0-8.593 3.097 10.009 10.009 0 0 0-4.831 5.181l2.06 3.435c5.604-7.438 13.749-12.41 26.401-9.464a7.374 7.374 0 0 0-2.621-2.144z"/><path d="M255.117 73.952a6.991 6.991 0 0 0 .83-1.947c-.405-.027-.808-.054-1.213-.078a23.57 23.57 0 0 1 .383 2.025zm-31.939 19.04a51.626 51.626 0 0 1 5.538-9.576l-2.06-3.435c-2.09 4.477-2.34 10.259-3.478 13.01zm-.248.524l.004-.01-.004.01zm-2.269-1.466a10.395 10.395 0 0 0-.657-1.468 4.223 4.223 0 0 0 .657 1.467zm32.693-26.218a10.99 10.99 0 0 0-1.193-.812c.144.26.284.52.415.782.259.012.52.018.778.03z"/><path d="M254.734 71.927c.405.024.808.051 1.212.078.633-2.535-.648-4.662-2.592-6.173-.259-.012-.519-.018-.778-.03a27.743 27.743 0 0 1 2.158 6.125zm-2.238-.119c-3.282-1.664-7.908-1.282-12.416-.105 1.614-.047 3.232-.077 4.858-.077 2.533 0 5.052.068 7.558.182zm-25.84 8.173a10.009 10.009 0 0 1 4.83-5.18 54.763 54.763 0 0 1 8.594-3.098q-6.126.18-12.138.799a36.158 36.158 0 0 0-3.735 4.449l.525-.176z"/><path d="M252.496 71.808a7.374 7.374 0 0 1 2.621 2.144s-.103-.8-.383-2.025q-1.118-.067-2.238-.119zM220.661 92.05a3.75 3.75 0 0 0 2.269 1.466l.004-.01c.078-.172.165-.342.244-.514 1.139-2.752 1.388-8.534 3.478-13.01l-1.924-3.207-.525.176a23.906 23.906 0 0 0-2.969 5.457c-.786 2.157-1.854 5.644-1.234 8.174a10.395 10.395 0 0 1 .657 1.467z"/><path d="M223.178 92.992c-.08.172-.166.342-.244.514a5.27 5.27 0 0 0 .244-.514zm29.398-27.19a19.64 19.64 0 0 0-.415-.782 12.391 12.391 0 0 0-4.284-1.543c-3.56-.536-7.385.467-11.02 2.342 2.68-.126 5.373-.199 8.083-.199 2.56 0 5.104.069 7.636.182z"/><path d="M252.496 71.808q1.12.051 2.238.119a27.743 27.743 0 0 0-2.158-6.125 171.001 171.001 0 0 0-7.636-.181c-2.71 0-5.403.072-8.082.199a35.743 35.743 0 0 0-8.916 6.682q6.008-.622 12.138-.799c4.508-1.177 9.134-1.559 12.416.105zm92.031 36.654c1.021 2.766 2.212 5.376 3.223 8.151-4.303 2.71-12.681 1.022-17.535 3.143-.346 14.282 22.097 7.243 25.512-.71a78.262 78.262 0 0 1-5.168-8.85q-3.212-2.69-6.555-5.216zm-1.436-14.113l-.848-.034a33.954 33.954 0 0 0-.054 2.07c.936.658 1.87 1.32 2.793 1.994a271.83 271.83 0 0 0-1.891-4.03z"/><path d="M342.189 96.386c0 .768.032 1.51.084 2.232.456-.133.747-.199.747-.199l.984 6.561q3.341 2.527 6.555 5.217c-1.96-3.846-3.747-7.851-5.577-11.818a172.628 172.628 0 0 0-2.793-1.993zm1.046 8.02a42.92 42.92 0 0 0 1.292 4.056l-.523-3.482c-.255-.193-.513-.383-.77-.574z"/><path d="M343.02 98.419s-.29.066-.747.199a31.612 31.612 0 0 0 .962 5.788c.256.191.514.38.77.574zm-73.614 16.971a106.96 106.96 0 0 0 3.467 5.937c-5.267 5.116-14.738.868-21.785.54-6.723 10.622 13.13 12.618 21.651 10.102 2.332-.687 6.373-4.184 6.926-5.753 2.366-6.65-2.407-9.565-4.861-11.957-5.45-5.312-6.698-12.697-10.532-19.725a11.975 11.975 0 0 0-.53 4.799l6.454 15.49a6.656 6.656 0 0 1-.79.567z"/><path d="M270.196 114.822l-6.454-15.49c.351 5.075 2.986 11.091 5.664 16.058a6.656 6.656 0 0 0 .79-.568zm20.694 66.27c21.02 2.079 35.326-6.883 48.154-15.124-.51-3.231 3.886-9.054 2.665-13.913-.423-1.671-4.227-4.096-6.538-6.623-9.41-10.262-22.304-25.597-27.427-37.587-.569-1.323-.911-8.588-4.877-5.712-.479 17.706 12.683 32.365 22.494 44.192 4.793 5.773 10.572 9.072 5.252 18.041-8.58 3.263-22.462 12.6-34.39 10.56-4.082-.697-4.937-3.933-5.64-7.19a7.94 7.94 0 0 0-1.944 2.729c-.047.49-.07.778-.07.778a1.5 1.5 0 0 1 .07-.778 85.7 85.7 0 0 1 .904-6.654 7.744 7.744 0 0 0-.493-1.053c-4.364 5.74-2.652 14.43 1.84 18.334z"/><path d="M288.57 171.243s.022-.287.069-.778a1.5 1.5 0 0 0-.07.778zm2.013-3.508a25.687 25.687 0 0 0-1.04-3.924 85.702 85.702 0 0 0-.904 6.654 7.94 7.94 0 0 1 1.944-2.73zm-131.544-32.42c-3.132-.67-6.156-.752-8.438.348a8.975 8.975 0 0 0-1.715 1.2 7.665 7.665 0 0 0-2.033 4.201 98.654 98.654 0 0 1-.607 3.04c1.648-1.68 3.375-3.845 6.435-2.343-3.411 6.667-2.595 19.647 2.05 23.863-.028-7.909-1.258-21.432 5.488-21.023 4.721.288 5.678 10.396 9.7 12.691 2.34-11.26-3.98-19.58-10.88-21.977z"/><path d="M148.886 136.864c-1.97 1.723-3.442 4.467-3.986 8.418a8.592 8.592 0 0 0 1.346-1.177c.214-.996.42-2.007.607-3.04a7.665 7.665 0 0 1 2.033-4.201zm10.153-1.549a10.552 10.552 0 0 0-8.438.348c2.282-1.1 5.306-1.019 8.438-.348zm156.231 63.286c17.523-.364 25.97-12.882 31.942-24.248-10.256 4.676-18.526 11.494-31.922 12.782-.65 2.21-.376 7.796-.02 11.466zm-4.275.683c-.031-4.058-.012-8.17-.826-11.498-15.191.445-35.731-.187-46.908-6.064 5.12 13.705 28.208 18.537 47.734 17.562zm-49.858-6.604v.001c-9.872.012-1.545 5.501.127 7.65 3.462 4.45 7.523 12.042 13.843 15.402 9.965 5.292 29.763 3.076 36.941.155 2.657-1.076 4.795-4.052 5.781-6.572-22.4.536-48.963 2.77-56.692-16.635zm125.778 162.867a69.243 69.243 0 0 0-3.258.18q-.435.556-.874 1.11a22.355 22.355 0 0 1 4.132-1.29z"/><path d="M367.903 365.095c4.95-2.236 9.569-6.07 14.88-8.258q.44-.553.874-1.11a50.694 50.694 0 0 0-8.49 1.325q-3.505 4.14-7.264 8.043z"/><path d="M362.876 363.268q-.72.656-1.38 1.377a22.074 22.074 0 0 0-1.775 2.17 16.97 16.97 0 0 0 8.182-1.72q3.748-3.91 7.265-8.043a28.034 28.034 0 0 0-12.292 6.216zm8.961 6.102c-.433.452-.86.912-1.3 1.36-.79.809-1.593 1.604-2.398 2.397 7.616.203 15.992-.921 23.256-1.689-4.79-1.652-13.297-3.131-19.558-2.069z"/><path d="M371.837 369.37c-3.028.513-5.538 1.613-6.834 3.592a56.73 56.73 0 0 0 3.136.165 174.89 174.89 0 0 0 2.399-2.397c.438-.448.866-.908 1.3-1.361zm-7.279 15.043c8.842.742 20.403.927 29.705.726-6.033-2.81-24.475-6.343-29.705-.726zM140.949 83.984l4.318-5.83 2.244-7.29 3.827-.905 2.393-3.23-2.284.198 7.216-13.122 2.23-2.23 1.706-3.674 9.06-7.09 3.407-3.407 1.86-.715.763-.598 36.084-17.714 2.367 3.228 1.57-.604a98.396 98.396 0 0 1 12.404-.311 172.26 172.26 0 0 1 23.023-10.84c39.365-15.09 80.698 34.114 80.698 34.114l4.099 6.559c.317-.004.494.001.494.001l1.076 2.511 10.734 17.172 10.496 19.026.912 16.412q2.152 1.92 4.238 3.916c-1.077-19.044-4.764-36.981-11.641-50.882-6.023-12.18-22.86-29.002-33.395-36.97C296.005 2.922 250.08.848 220.146 11.864c-8.344 3.07-16.423 5.82-23.753 10.122-19.607 11.512-40.419 19.214-46.234 42.378-12.44 5.573-17.33 20.14-17.928 37.814q3.067-2.578 6.248-5.02z"/><path d="M324.02 440.37c-.312-1.504-.64-3-.967-4.489-.489-2.233-.975-4.45-1.4-6.657s-.793-4.402-1.043-6.592c-2.722-.727-7.72 1.919-11.109 1.695-.435 10.364 1.02 26.986 1.506 37.858 6.89.01 9.845-1.507 14.988-3.242q.055-1.199.05-2.387a56.76 56.76 0 0 0-.217-4.713 97.394 97.394 0 0 0-1.807-11.472z" class="cls-1"/><path d="M417.214 373.71a180.839 180.839 0 0 0-9.91-29.266 18.665 18.665 0 0 0-9.504-9.63q-1.45 2.502-2.969 4.955l5.728.747 13.122 38.709-1.637 5.061.52 9.366-10.497 15.745-11.81 2.624-19.682-.656-5.83-7.58-6.83.37-25.586 7.217-1.297-10.176c-.42.238-.836.484-1.26.72l1.439 14.699-23.648 3.11 4.621 63.152-6.56 3.937-2.695.096-.125 1.878-49.86 3.936-30.18-6.56-13.583-55.118-3.937 4.594-65.606-22.308-2.174-3.726-2.42-.864-.069-4.06-1.883-21.285q-1.615-1.34-3.198-2.719c.268 3.871.513 7.755.764 11.665.515 7.997-.335 16.462 1.741 20.88 2.142 4.562 10.07 6.025 15.802 8.682 16.555 7.657 34.115 19.344 55.827 17.026 5.174 17.399 10.068 35.932 16.28 51.17 22.262 8.004 57.403 6.754 80.547 3.971 7.034-.85 14.459-4.322 16.114-10.421a61.497 61.497 0 0 1-.811-11.926c7.239-1.497 17.088-2.735 18.68-10.74 2.232-11.237-7.093-27.33-3.985-39.652 4.192-1.362 8.664-2.423 7.995-9.034 7.062-3.675 15.432-4.502 24.372-4.155a19.092 19.092 0 0 0 4.263 5.592c12.52 2.515 24.648 2.721 35.042-.671 11.768-3.842 17.384-27.906 14.69-39.355zm-91.219 85.233c-5.143 1.735-8.097 3.252-14.988 3.242-.486-10.872-1.94-27.494-1.506-37.858 3.39.224 8.387-2.422 11.109-1.695.25 2.19.616 4.386 1.042 6.592s.912 4.424 1.401 6.657c.327 1.49.655 2.985.968 4.49a97.394 97.394 0 0 1 1.807 11.472 56.76 56.76 0 0 1 .217 4.713q.003 1.188-.05 2.387zM193.43 50.858l-9.836 11.476 1.968 7.873c-.21-5.682 2.63-12.378 7.868-19.349zm127.944-15.893l12.46 9a38.508 38.508 0 0 0-12.46-9z"/><path d="M185.603 71.326l-.041-1.12c-.218.028-.425.061-.64.09l.2 1.204.48-.174zm1.187 62.202l-1.883 7.534 2.623-3.279-.74-4.255zm-.63-44.955l-.13 1.195.158-.054c-.008-.367-.018-.748-.028-1.14zm123.444 256.334c4.51-13.264 6.442-35.464 7.123-52.388a16.89 16.89 0 0 1 4.643-1.42v-3.883a112.566 112.566 0 0 1-19.535-3.506l-1.356-.383.127-.768-3.052-1.09v-6.821a9.53 9.53 0 0 1-1.19 3.81 8.097 8.097 0 0 1-7.278 4.01 14.085 14.085 0 0 1-4.204-.705l-.915-.286-.166-.944a56.913 56.913 0 0 0-.566-2.791 17.427 17.427 0 0 1-1.762.778l-.214 5.464 9.275-1.21 6.404 1.319h2.586l3.377 1.228 9.94 2.047v1.568l1.116.406-1.31 24.275-4.244 24.607.502.973-1.177 2.941-1.643 9.532-2.453-6.243-2.6-.325-18.083-42.66-6.388-9.163a27.944 27.944 0 0 1 1.275-2.897l-.75-1.771a185.02 185.02 0 0 0-4.016 3.342 74.406 74.406 0 0 1-12.354 9.092c-2.661 1.452-14.057 6.319-19.514 6.319a6.063 6.063 0 0 1-1.364-.136 3.948 3.948 0 0 1-1.753-.897l-.232.07-.026-.32a9.276 9.276 0 0 1-1.84-3.982 28.856 28.856 0 0 0-.462-1.537c-.426-1.251-.983-2.677-1.59-4.23a179.817 179.817 0 0 1-1.89-5.017l2.722 11.797 5.905 7.217 15.09-5.249-10.498 20.34 57.079 26.897.365 4.259 5.221-1.044 3.036-12.434c-.457.6-.897 1.218-1.361 1.81zm-10.615.016q-3.188-.961-6.387-2.066-3.197-1.101-6.389-2.328a233.633 233.633 0 0 1-12.648-5.302c-8.331-3.774-16.4-7.96-23.85-12.175 2.926-12.678 14.39-19.243 24.8-26.225a118.13 118.13 0 0 1 13.568 22.816q1.453 3.076 2.833 6.22.692 1.57 1.372 3.153c1.361 3.162 2.692 6.352 4.024 9.54q1.333 3.19 2.677 6.367zm-114.676-239.42l-1.374 12.598 3.506 13.44-1.538-8.848-.594-17.19zm-65.651 196.78l-5.266-15.572-3.281-10.497 52.484-36.083 2.698-1.08 9.111-6.136 1.825 1.762 2.77-1.108 14.432 17.714v-5.326c-1.594-.347-2.623-.579-2.623-.579l-5.997-9.369-6.47-7.032-2.42-6.858-6.109-9.543-.656-9.623-2.624-7.436-2.625-7.217-15.745-5.248-2.079-3.414-3.826-1.177-7.873-20.338-1.265-9.49-.703-2.321.292-.769-.947-7.102 6.027-6.29.889-2.344a133.62 133.62 0 0 0-11.195 10.366c-1.703 14.147 3.029 29.559 9.313 38.772a34.774 34.774 0 0 0 23.21 14.917 49.255 49.255 0 0 0 4.822 18.025c1.831 4.019 8.682 11.248 6.16 16.375-1.269 2.587-12.42 8.202-16.119 10.42-12.486 7.491-21.535 12.081-33.064 20.381-7.457 5.368-19.12 6.056-17.281 18.442 1.24 8.357 5.995 18.714 8.717 27.095 2.944 9.042 7.165 17.322 9.587 26.707a223.298 223.298 0 0 1 5.741 33.53q1.555 1.549 3.148 3.056l-1.339-15.122zm208.264 66.682l-.353.242 2.057 21.022c.312-.186.622-.377.933-.565zm-34.453-12.052c.01-.262.02-.446.024-.549l-13.122.55zm-63.897-101.532a16.543 16.543 0 0 1 4.223-4.098l-22.305-.656 18.175 1.976z"/><path d="M355.485 177.148l-14.433 36.083-13.778 19.027-9.839 10.496-26.244 3.937-35.428 3.936-5.338.153a56.227 56.227 0 0 1 10.92 4.09l15.376 7.972c2.665 1.382 9.683.181 12.332 1.731a7.461 7.461 0 0 1 5.807 1.96 9.328 9.328 0 0 1 2.694 5.595v-5.092l.62-3.412c-.015-.045-.037-.085-.052-.13l-.512-1.475.916-.326.341-1.874 22.503-13.027v-7.317l15.746-15.745 5.904 5.249 1.747 1.825 27.121 25.072-.25 2.992.905.945s-.579 2.345-1.487 6.042l-.48 5.767-.791-.587c-3.848 15.706-10.364 42.5-10.364 43.888 0 1.968-15.088 40.02-15.088 40.02l20.143-9.835 17.723-5.538q2.19-3.237 4.238-6.58c-11.906.532-25.619 6.877-34.769 11.425 7.722-20.314 14.366-41.376 21.177-64.162 2.037-6.828 6.058-16.508 5.154-23.583-.84-6.649-11.217-13.642-16.678-18.91-3.033-2.926-17.179-13.666-18-17.687-.797-3.89 5.767-12.703 7.88-17.108 3.028-6.308 5.197-14.028 6.693-19.279a232.136 232.136 0 0 0 8.3-58.591q-1.63-1.765-3.303-3.486c-.125-.128-.254-.252-.38-.38l.847 15.242zm-63.005 83.43c-9.947.493-15.375-.688-22.683-6.4.12-.459.854-.254.881-.817a20.95 20.95 0 0 0 8.44 1.685 38.115 38.115 0 0 0 5.87-.45c1.32-.193 2.646-.44 3.971-.715q.994-.206 1.986-.432c1.323-.299 2.64-.616 3.947-.929a202.37 202.37 0 0 1 4.418-1.022 52.387 52.387 0 0 1 6.304-1.03c-4.67 3.049-8.648 6.855-13.134 10.11zm33.69 95.338l-1.442.077.056.276.522-.014.864-.339zm-.864.339l.503 5.14.419 2.093-.922-7.233zm-123.212 25.186l-.786-21.251v15.746l.786 5.505zM186.188 89.714l-.159.054-.812 7.451.993-6.62-.022-.885zm-52.342 33.904c-.396 1.98-3.08 4.515-3.619 5.804a40.16 40.16 0 0 0-2.74 10.75 133.62 133.62 0 0 1 11.194-10.365l.957-2.522-1.857-15.778q-2.386 2.048-4.7 4.179c.606 2.772 1.235 5.585.765 7.932zm254.745 215.337l6.24.814q1.525-2.45 2.969-4.955a21.528 21.528 0 0 0-5.647-1.574 176.723 176.723 0 0 1-3.562 5.715zm-26.558-226.337q2.095 1.988 4.128 4.042-.082-3.57-.277-7.1-2.09-1.989-4.238-3.915zm-32.891 282.846l.63 6.452c.424-.236.84-.482 1.26-.72l-.809-6.35c-.358.209-.721.41-1.081.618zM185.603 71.326c-.16.058-.321.115-.481.174l.621 3.725q-.065-1.855-.14-3.899zM132.356 375.08q-1.566-1.385-3.1-2.808.35 4.198.638 8.406 1.583 1.378 3.198 2.719zm-.158-266.683l.684-.786.771-.26q1.713-1.484 3.463-2.923l1.363-7.27q-3.181 2.439-6.248 5.02a118.212 118.212 0 0 0-.033 6.219z"/><path d="M328.63 390.229l.512 5.235c.36-.207.723-.41 1.081-.619l-.66-5.181c-.311.188-.62.379-.933.565zm34.261-268.62q1.678 1.716 3.303 3.486.062-4.233-.033-8.435-2.03-2.057-4.128-4.042l.478 8.611c.126.128.255.252.38.38zm23.546 211.381q-2.047 3.343-4.238 6.58l3.272-1.022 3.12.407a176.723 176.723 0 0 0 3.562-5.715 30.634 30.634 0 0 0-5.716-.25zm-257.865 31.847q.38 3.719.685 7.435 1.533 1.422 3.099 2.807l-.636-7.186q-1.594-1.507-3.148-3.056zm8.44-259.857l.104-.552q-1.75 1.44-3.463 2.924l3.5-1.175zm-3.359 2.372l-.771.259-.684.786.004.211c.48-.424.968-.837 1.451-1.256z"/><path d="M132.236 110.388a30.809 30.809 0 0 0 .846 5.298q2.309-2.136 4.699-4.179l-.628-5.33-3.5 1.175c-.483.419-.972.832-1.45 1.256.012.594.013 1.181.033 1.78zm186.766-76.492c5.973 4.605 11.142 10.683 15.947 16.856a25.892 25.892 0 0 1 2.985-.23l-4.1-6.558-12.46-8.999a54.5 54.5 0 0 0-2.372-1.069zm3.535 35.778a11.537 11.537 0 0 0 .171 2.65c9.664-8.856 26.174-.096 31.055 9.696 2.791 5.597 3.899 12.81 4.495 20.675q1.713 1.453 3.388 2.95l-.912-16.412-10.496-19.026-10.734-17.172 4.829 11.267c-6.9-6.9-17.132 1.009-21.796 5.372zm-178.881 56.22q-2.556 1.911-4.975 3.913l-.889 2.343 6.06-6.324zm-11.236 20.418l.703 2.321-.411-3.09-.292.769zm51.893-40.809l.594 17.19 1.538 8.848.43 1.649-.085.338.74 4.255-2.623 3.28-7.873 1.312-3.025-6.654.4 5.999s-.647-.39-1.733-.982c.588 2.016 1.064 4.084 1.467 6.101 5.447.292 13.317-.232 15.892-4.481-.369-10.373-5.186-18.69-4.855-28.219a69.183 69.183 0 0 1 1.105-9.71c-.65.202-1.282.418-1.923.626zm151.671 106.642c-4.533 6.515-8.34 13.632-14.716 18.117-15.368 10.792-38.727 20.574-58.728 13.866-26.432-8.87-38.442-26.482-52.978-46.648.394 11.077 8.186 20.168 15.878 28.643 6.697 7.387 14.777 15.732 23.469 19.174-7.253-1.702-18.383-2.237-21.405 4.271a166.78 166.78 0 0 1-16.706-1.748c.338.28.661.568 1.007.84 1.508 1.194-5.968-.14-12.413-1.45l11.102 3.417 22.305.656c4.16-2.83 11.223-2.19 17.626-.503l5.338-.153 35.428-3.936 26.244-3.937 9.84-10.496 13.777-19.027 14.433-36.083 7.873-40.677-.847-15.242q-1.704-1.73-3.459-3.408l.066 1.355c1.74 33.751-6.174 68.573-23.134 92.969zm-184.182-89.071l10.077.775-5.185-2.469-4.892 1.694zm26.543 105.903l6.47 7.032-8.891-13.89 2.421 6.858zm-11.926-102.965l4.99 3.992-.937-2.062-4.053-1.93z"/><path d="M139.638 127.285l-.957 2.522q2.423-2 4.975-3.913zm46.58-26.898l.029-.142c.05-.435.134-2.23-.037-9.646l-.993 6.62-.855 7.836c.641-.208 1.274-.424 1.923-.626.885-4.982 2.12-9.87 3.087-14.739a81.213 81.213 0 0 0-3.125 10.555c-.017.139-.03.142-.03.142zm172.452 9.12q1.702 1.532 3.363 3.11l-.387-6.972q-1.676-1.496-3.388-2.95c.168 2.226.299 4.502.411 6.812z"/><path d="M359.052 117.821q1.752 1.68 3.46 3.408l-.48-8.611q-1.661-1.578-3.363-3.111c.133 2.74.248 5.522.383 8.314zm-225.96 265.576l1.883 21.285-.339-20.013c-.518-.42-1.031-.846-1.544-1.272zm70.803 35.653c.451 3.204.908 6.435 1.374 9.733-24.738-1.284-41.497-12.632-59.43-21.692a35.756 35.756 0 0 1-1.61 4.93l-6.765-2.415 2.174 3.726 65.606 22.308 3.937-4.594-1.862-11.208a172.198 172.198 0 0 1-3.424-.787zm-73.514-66.279l1.339 15.122q1.324 1.252 2.674 2.475l-.006-.335zm-20.266-76.557l55.182-37.162-2.698 1.079-52.484 36.083zm8.547 26.069l-1.33-5.729-7.217-20.34 3.281 10.497 5.266 15.572zm81.114 5.246l.881 1.075a1.677 1.677 0 0 0-.88-1.075z"/><path d="M202.425 390.377l-.33-8.936-.787-5.505V360.19l61.477-3.273 16.59-.002 13.122-.55.005-.11 9.841-3.938-57.079-26.897 10.499-20.34-15.091 5.249-5.905-7.217-2.722-11.797a67.766 67.766 0 0 1-1.706-5.437 64.5 64.5 0 0 1-4.467-14.557l-10.768-4.846-6.576-1.407-6.07-4.284-.688-.31-.444-.489-3.952-2.79.643-.859-4.582-5.053-4.881 2.18a25.394 25.394 0 0 0 2.588 2.768c9.78 6.946 21.927 12.431 33.29 17.848a131.157 131.157 0 0 0 5.129 21.006c3.12 9.981 5.693 24.07 18.882 16.876-1.253 5.698-8.58 9.239-6.558 15.885 1.267 4.171 15.11 9.322 19.502 11.798 8.1 4.566 15.49 7.092 21.709 9.76a744.433 744.433 0 0 0-74.57 5.804v2.36h-10.499s-1.31-27.554-1.31-30.836c0-3.28 1.31-15.09 1.31-15.09l1.75-4.113c-3.726-1.325-4.424 6.225-4.556 7.888-.698 8.857 4.213 27.607-.63 38.204-5.302-1.499-7.912-5.49-12.883-7.297-1.948 6.137 4.037 6.433 3.424 10.33-.791 5.013-10.03 1.104-10.48 7.944l25.343-1.125v10.496l-1.784-.278c1.113 11.309 2.525 22.432 4.094 33.915 1.034.28 2.073.545 3.115.804zm-26.192-155.7l17.202 16.606-14.433-17.714-2.769 1.108zm26.766 177.983c.293 2.11.594 4.247.896 6.39 1.137.276 2.279.536 3.424.788l-1.058-6.37c-1.093-.255-2.178-.53-3.262-.808zm-68.494-35.722c-.72-.615-1.44-1.23-2.15-1.859l.737 8.318c.513.426 1.026.852 1.544 1.272z"/><path d="M202.305 407.606c.23 1.68.458 3.356.694 5.054 1.084.278 2.17.552 3.262.809l-.84-5.06a152.847 152.847 0 0 1-3.116-.803zm-67.911-37.238q-1.35-1.223-2.674-2.475l.636 7.186c.71.628 1.43 1.244 2.15 1.86zm79.379-351.991l-36.084 17.714-.763.598 39.214-15.084-2.367-3.228zM193.43 50.858c5.381-7.163 13.303-14.615 23.093-21.564-.262.08-.513.157-.782.237a116.508 116.508 0 0 0-8.227 2.812c-3.052 2.834-6.869 4.74-10.144 8.368-4.023 4.448-8.523 16.403-13.855 17.726-2.675.665-5.725-.463-8.053-.311a22.914 22.914 0 0 0-5.046.944 36.125 36.125 0 0 0-3.88 6.545l-12.805 1.114-2.393 3.23 32.256-7.625zm-48.163 27.296l-4.318 5.83-2.47 13.174c.404-.31.816-.612 1.223-.92zm17.332-30.253l-1.706 3.674 10.766-10.765-9.06 7.091zM185.122 71.5l-.2-1.204a84.5 84.5 0 0 0-1.412.196c.097.497.186.996.26 1.497.449-.168.902-.325 1.352-.49zm-41.466 54.394l.195-.068.286-.297c-.163.12-.32.244-.48.365zm8.146-2.82l4.892-1.694 5.185 2.47 2.032.156 2.508 2.006 4.053 1.93.937 2.062 2.344 1.875.256 3.842 3.025 6.654 7.873-1.313 1.883-7.534-.345-1.987-3.506-13.44 1.374-12.598-.015-.427c-1.166.379-2.341.75-3.481 1.15a51.123 51.123 0 0 0 .626 16.688c1.353 5.89 6.04 15.035-1.441 15.234.14-12.077-10.611-20.971-22.493-21.318q-4.959 2.825-9.506 5.952zm34.358-34.501c-.045-1.726-.101-3.704-.172-5.972-.68.263-1.361.52-2.036.792-.208 2.435-.529 4.896-.898 7.374l2.975-1z"/><path d="M144.137 125.529l2.716-2.836 1.15.089q4.549-3.124 9.506-5.952a24.324 24.324 0 0 0-11.424 2.477c.392 2.125.768 3.386.768 3.386l-7.215 4.592 4.018-1.391c.162-.121.318-.245.48-.365zm40.113-21.863l.967-6.447.812-7.451-2.975.999c-.763 5.112-1.714 10.294-2.237 15.46 1.14-.401 2.315-.772 3.481-1.151zm-44.548-7.427c-.407.307-.819.608-1.223.919l-1.363 7.27.088-.073zm46.041-21.014l-.621-3.725c-.45.164-.903.32-1.351.489a40.263 40.263 0 0 1 .408 4.922c.534-.206 1.064-.42 1.601-.62l-.037-1.066zm-48.539 29.13l-.088.073-.104.551z"/><path d="M185.78 76.29c-.537.201-1.067.415-1.601.621a59.21 59.21 0 0 1-.228 6.482c.676-.271 1.358-.53 2.037-.792-.059-1.894-.128-3.991-.208-6.31zm.665 55.251l.345 1.987.085-.338-.43-1.649zm-2.147-26.465l.015.427.049-.448z"/><path d="M185.217 97.22l-.968 6.446.05 1.41.063-.02zm-24.324-45.645l-2.23 2.23-7.216 13.122 2.284-.198.339-.459 6.823-14.695zm69.221-30.885a98.396 98.396 0 0 0-12.404.31l-1.57.604 3.874 5.282a159.802 159.802 0 0 1 10.101-6.197zm-55.048 16.714l-3.407 3.406 5.267-4.121-1.86.715z"/><path d="M170.416 59.07c-3.82 1.116-7.284 2.861-11.693 3.502 8.064-17.63 33.215-31.89 52.84-37.451 1.076-.305 2.021.427 2.92 1.387-.118 3.112-3.182 3.043-5.254 4.043a17.748 17.748 0 0 1-1.715 1.792c2.593-.993 5.32-1.94 8.227-2.812.269-.08.52-.157.782-.237 1.14-.81 2.3-1.613 3.49-2.407l-3.873-5.282-39.214 15.084-5.267 4.121-10.766 10.765-6.823 14.695-.34.459 12.805-1.114a36.125 36.125 0 0 1 3.881-6.545zm-22.905 11.794l-2.244 7.29 6.071-8.195-3.827.905zm36.083-8.53l1.327 7.962c.216-.029.423-.062.64-.09zm-39.828 30.935c.935-4.913 2.677-9.387 5.77-12.79 8-8.808 19.025-14.29 32.446-15.307a30.3 30.3 0 0 1 1.528 5.32c.464-.069.936-.133 1.411-.196l-1.327-7.962-32.256 7.625-6.07 8.195-5.566 18.085q2.01-1.515 4.064-2.97zm3.087 29.424s-.376-1.26-.768-3.386a24.996 24.996 0 0 0-2.353 1.296c-.334-4.052-.743-8.628-.87-13.29q-2.581 2.046-5.081 4.194l1.857 15.778z"/><path d="M143.766 93.269q-2.053 1.457-4.064 2.97l-2.498 8.116q2.834-2.327 5.763-4.535a52.333 52.333 0 0 1 .8-6.551z"/><path d="M142.967 99.82q-2.93 2.206-5.763 4.535l-.192.624.141 1.198 5.676-1.906c.005-1.49.047-2.977.138-4.45zm-.137 4.451l-5.677 1.906.628 5.33q2.5-2.146 5.082-4.194-.041-1.518-.034-3.042zm26.986 108.305l6.108 9.543-6.764-19.166.656 9.623zm14.999 23.434l5.997 9.368s1.03.232 2.623.579v-.579z"/><path d="M199.392 247.21c6.445 1.31 13.921 2.644 12.413 1.45-.346-.272-.67-.56-1.007-.84-10.075-1.716-18.679-5.035-23.938-12.57-6.306-9.04-12.713-24.408-15.587-36.283-.586-2.438-1.593-7.638-1.347-8.969.944-5.15 10.122-7.412 6.512-14.614l-8.59 8.324 1.312 19.245 6.764 19.166 8.89 13.89 8.62 9.369zm-66.269-98.577l1.265 9.49 7.873 20.338 3.826 1.177-7.107-11.676-5.857-19.329zm-1.358-10.192l.947 7.102 5.08-13.393-6.027 6.291zm39.644-8.437l2.6 5.717-.256-3.842-2.344-1.875zm-9.53-6.155l4.54 2.163-2.508-2.006-2.032-.157zm-17.742 1.68l-.286.297 7.95-2.752-3.798-.292c-1.311.9-2.605 1.812-3.866 2.747z"/><path d="M146.853 122.693l-2.716 2.836a132.58 132.58 0 0 1 3.866-2.747zm85.789-99.468l1.396-.598q1.61-.834 3.167-1.61a41.97 41.97 0 0 1 6.707-2.622l13.819-5.922 40.675 5.904 22.968 16.588a38.508 38.508 0 0 1 12.46 9S292.502-5.24 253.137 9.848a172.26 172.26 0 0 0-23.023 10.84c3.114.238 4.96.921 2.528 2.536zm-8.272 3.545c-1.083.376-2.262.771-3.568 1.192l.188.256zm-38.808 43.437l.04 1.12c.837-.304 1.67-.61 2.512-.901l-.082-7.992a47.412 47.412 0 0 1 6.632-10.602l3.344-5.347-2.605 2.071-1.973 2.302c-5.238 6.971-8.078 13.667-7.868 19.349zm.788 19.453l1.147-7.646c-.217.082-.432.17-.65.253l-.687 6.306c.01.393.02.774.028 1.141zm-.14.94l.14-.94-.161.054.02.885z"/><path d="M185.913 76.243c.747-.28 1.5-.544 2.252-.812l-.05-5.005c-.842.29-1.676.597-2.512.9q.075 2.042.14 3.9z"/><path d="M186.848 82.267c.217-.083.432-.17.65-.253l.688-4.59-.02-1.993c-.752.268-1.506.533-2.253.812l.962 5.773zm11.16-35.782l-3.344 5.347c9.947-12.289 25.981-22.274 39.374-29.205l-1.396.598a41.49 41.49 0 0 1-8.273 3.545l-3.38 1.448zm-9.976 15.949l.082 7.992c.703-.243 1.412-.47 2.118-.704a34.646 34.646 0 0 0-2.2-7.288zM313.72 30.352a44.495 44.495 0 0 1 5.282 3.544c.82.346 1.608.704 2.372 1.07l-22.967-16.589-40.676-5.904-13.819 5.922c21.577-6.455 51.432 1.59 69.807 11.957z"/><path d="M186.35 89.66l3.237-1.087a75.653 75.653 0 0 0 1.098-7.71 163.21 163.21 0 0 0-3.188 1.151zm-.14.94c.17 7.415.087 9.21.037 9.645a81.213 81.213 0 0 1 3.125-10.555c.074-.372.145-.745.215-1.117l-3.236 1.087zm.037 9.645l-.03.142s.013-.003.03-.142zm4.555-25.733a36.972 36.972 0 0 0-.57-4.79c-.706.234-1.415.462-2.118.704l.051 5.005q1.314-.47 2.637-.92z"/><path d="M188.186 77.424l-.689 4.59c1.057-.396 2.122-.776 3.188-1.151a45.867 45.867 0 0 0 .117-6.351q-1.323.448-2.637.919zm9.822-30.939l1.987-3.176 20.995-15.09-.188-.257c-1.304.42-2.737.865-4.28 1.332-9.79 6.949-17.71 14.4-23.092 21.564l1.973-2.302zm-12.02 36.116c.07 2.268.127 4.246.172 5.972l.688-6.306c-.288.11-.573.223-.86.334zm-.245-7.376l.037 1.065c.044-.016.089-.03.133-.047z"/><path d="M186.875 82.016l-.962-5.773c-.044.016-.09.03-.133.047.08 2.32.15 4.417.208 6.311.287-.11.572-.225.86-.334zm13.12-38.707l-1.987 3.176 22.982-18.266-20.995 15.09zm20.807-15.347c1.306-.42 2.485-.816 3.567-1.192l8.273-3.545c2.431-1.615.586-2.298-2.528-2.535a159.783 159.783 0 0 0-10.101 6.197zm3.568-1.192a41.49 41.49 0 0 0 8.272-3.545z"/><path d="M220.013 26.887a148.4 148.4 0 0 0-3.49 2.407c1.542-.467 2.975-.912 4.279-1.332zm118.415 23.637s-.177-.005-.494-.001l1.57 2.512z"/><path d="M342.288 60.34c-10.424-3.094-19.417 1.42-19.751 9.334 4.664-4.363 14.897-12.273 21.796-5.372l-4.829-11.267-1.57-2.512a25.892 25.892 0 0 0-2.985.229c2.523 3.241 4.95 6.504 7.339 9.588zM134.975 404.682l.069 4.06 2.42.864-2.42-4.147-.069-.777zm30.322-165.63l10.936-4.375-1.825-1.762-9.111 6.137zm-36.813 92.272l-9.822-29.041 11.719 50.488-1.897-21.447z"/><path d="M145.84 407.09a184.662 184.662 0 0 0-5.04-2.466q-.22-7.823-.698-15.7-2.773-2.077-5.466-4.255l.34 20.013.068.777 2.42 4.147 6.765 2.415a35.756 35.756 0 0 0 1.61-4.93zm-30.697-129.597c18.244-14.082 38.66-28.972 60.495-37.583 1.276-.502 8.748 8.726 12.916 13.554l4.88-2.181-17.201-16.606-10.936 4.375-55.182 37.162 7.217 20.34 1.33 5.729 9.822 29.041 1.897 21.447 4.007 17.262.006.335a169.339 169.339 0 0 0 4.588 4.021c-3.175-34.222-10.404-68.066-23.84-96.896z"/><path d="M134.505 376.938l.131 7.73q2.69 2.183 5.466 4.256-.236-3.91-.541-7.822-2.567-2.034-5.056-4.163z"/><path d="M138.982 374.389a169.234 169.234 0 0 1-4.588-4.021l.111 6.57q2.489 2.13 5.056 4.164a431.874 431.874 0 0 0-.58-6.713zm57.734-47.657c0 3.281 1.311 30.836 1.311 30.836h10.498v-2.36c-2.128.272-4.259.539-6.38.827-3.129-4.848-1.867-12.32-2.196-20.044-.32-7.418 2.37-23.07.708-27.387l-.88-1.075-1.75 4.113s-1.31 11.81-1.31 15.09zm3.279 36.741l-25.343 1.125c-.013.19-.045.356-.044.564 6.358 1.017 16.106-1.976 22.9.888q.327 3.842.703 7.64l1.784.28zm124.789-7.204l1.025 5.126-.503-5.14-.522.014zm-17.748 56.244c.43-.164.858-.333 1.287-.5q-.23-3.113-.443-6.219c-.43.173-.867.336-1.3.506z"/><path d="M307.88 405.794q-.17-2.5-.33-4.996c-.444.185-.885.376-1.331.557l.362 4.945c.433-.17.869-.333 1.3-.506zm36.453-50.851s15.088-38.052 15.088-40.02c0-1.388 6.516-28.182 10.364-43.888l-2.365-1.757c-.545 3.028-1.294 6.205-1.685 8.153-3.223 15.936-10.47 36.99-17.373 53.69-2.51 6.07-4.909 13.658-8.223 14.969-9.068 3.59-20.074-.349-27.78 4.448 10.359-17.972 21.635-34.948 31.787-53.134-1.547-3.61-5.338-5.147-6.44-9.162 4.872-9.198 4.88-31.608-1.402-42.078l-7.397-5.495a10.22 10.22 0 0 0-5.541 1.14 15.717 15.717 0 0 1 2.97-3.05l-1.685-1.252 12.465-13.777-15.746 15.745v7.317l2.429-1.406 7.872 2.624 3.937 11.809a2.47 2.47 0 0 0-1.072-1.163 82.028 82.028 0 0 1 1.942 14.106c.145 3.016.147 10.471-2.972 14.524l-.49.639-.804-.024c-3.758-.11-7.365-.346-10.842-.685v3.884c7.397-1.129 13.528 3.46 16.741 8.618-8.678 14.863-17.018 30.09-27.146 43.38l-3.036 12.434 16.064-3.213.735 3.674 1.442-.077 7.47-2.935zm-1.313-125.964l-5.904-5.249 7.651 7.074-1.747-1.825zm29.523 30.834l-.904-.945-.583 6.987c.908-3.697 1.487-6.042 1.487-6.042zm-58.276 96.74l10.517-.284-.056-.276-10.461.56zm-11.559.023l.025.289 4.903-.132.293-1.201-5.221 1.044zm23.52 6.912l-.42-2.093.765 7.812c.149-.1.25-.171.353-.242z"/><path d="M323.993 352.319l-16.064 3.213-.293 1.201 6.631-.18 10.461-.56-.735-3.674z"/><path d="M307.592 356.911l6.675-.358-6.631.18-.044.178zm62.983-85.289l.481-5.767-1.271 5.18zm1.313-15.746l-27.121-25.072 26.872 28.064.249-2.992z"/><path d="M326.335 238.758c3.062-2.543 7.13-5.065 9.365-8.364 7.675 6.18 12.308 11.996 19.665 18.606 3.993 3.578 11.845 7.869 12.638 13.655a25.221 25.221 0 0 1-.583 6.623l2.365 1.757 1.271-5.18.583-6.987-26.872-28.064-7.651-7.074-12.465 13.777z"/><path d="M328.907 240.669l7.397 5.495c-1.884-3.14-4.341-5.185-7.397-5.495zm-61.849 245.109a159.033 159.033 0 0 1-41.657-6.522 479.143 479.143 0 0 1-15.123-58.789q-1.349-.273-2.69-.569l1.593 11.148 13.583 55.118 30.18 6.56 49.86-3.936.125-1.878-52.416 1.872a128.339 128.339 0 0 0 16.545-3.004zm12.317-128.863l-78.067 3.275.786 21.25 3.872 27.106q1.116.273 2.237.533c-2.385-13.953-4.33-28.375-5.997-43.698 25.862-4.838 62.158-9.067 90.14-5.104.053-1.57.099-2.708.127-3.364z"/><path d="M206.683 413.563l.905 6.335q1.342.294 2.69.569-.61-3.17-1.187-6.368a166.75 166.75 0 0 1-2.408-.536z"/><path d="M206.683 413.563c.8.186 1.604.362 2.408.536-.3-1.668-.6-3.339-.888-5.02q-1.122-.258-2.237-.533zm.636 6.275l1.862 11.208-1.593-11.148-.27-.06zm-6.011-59.648l78.067-3.275-16.59.002-61.477 3.273zm4.112 48.22l.546.136-3.872-27.105.33 8.936z"/><path d="M206.26 413.469l1.059 6.37.269.06-.905-6.336c-.14-.033-.282-.061-.422-.094z"/><path d="M205.42 408.41l.84 5.059c.14.033.283.061.423.094l-.717-5.017-.546-.136zm100.287 4.61c-.783.292-1.571.57-2.359.85 2.268 21.87.58 46.534 4.819 66.889a95.41 95.41 0 0 1-4.92 1.37l-.318 4.78 2.695-.095 6.56-3.937-4.62-63.152-1.285.17zm-3.319-10.172c.802-.3 1.597-.617 2.394-.93l-3.75-45.007-.568 11.25c1.231 11.65 1.195 23.199 1.924 34.687z"/><path d="M295.127 356.254l-2.63.11-.024.549 8.56-.002 1.675-.335-.365-4.259zm7.63 51.493c.128 1.48.251 2.96.42 4.44.064.556.113 1.123.171 1.684.788-.28 1.576-.559 2.359-.85l-.515-6.181q-1.213.463-2.435.907z"/><path d="M302.757 407.747q1.221-.445 2.435-.907l-.41-4.922c-.797.313-1.592.63-2.394.93q.156 2.451.369 4.899zm-10.26-51.383l2.63-.11 7.216-3.937-9.841 3.938zm13.21 56.656l.572 6.874 1.284-.169-.527-7.212c-.443.17-.885.342-1.33.508zm-.925-11.102c.478-.189.96-.37 1.437-.563l-1.908-26.073-3.279-18.37z"/><path d="M305.192 406.84l.515 6.18c.444-.165.886-.338 1.329-.507l-.455-6.213c-.463.181-.925.362-1.39.54z"/><path d="M305.192 406.84c.464-.178.926-.359 1.389-.54l-.362-4.945c-.477.193-.959.374-1.437.563zm-4.16-49.929l1.701-.046-.025-.289-1.676.335zm3.279 18.371l-1.578-18.417-1.701.046 3.279 18.371zm-11.965-15.005c2.484.352 4.927.745 7.267 1.232.341 2.221.617 4.438.851 6.652l.568-11.25-8.56.002c-.027.656-.073 1.795-.126 3.364zm48.706 45.84l-7.218 2.625-1.549-8.263q-.624.361-1.253.717l1.297 10.176 25.587-7.217 6.828-.37-.729-.947zm58.013-57.321c2.14 3.236 4.196 10.143 5.921 17.054a41.715 41.715 0 0 0-.296-5.002l7.218 20.994.135 2.444 1.638-5.061-13.122-38.71-5.728-.746q-1.072 1.722-2.183 3.416a17.738 17.738 0 0 1 6.417 5.611zm-50.238 42.636a6.797 6.797 0 0 1 2.721-.404l-.596-2.982c-.737.562-1.483 1.112-2.23 1.663.037.576.076 1.152.105 1.723zm-4.494-36.489l-18.163.973-.864.34.922 7.233 1.046 5.231s-.144.103-.348.245l2.637 20.699q2.785-1.681 5.505-3.461c-1.432-9.31-3.048-18.57-3.924-27.292 3.123-.06 6.93-.781 10.2-.032 2.92 5.023 4.803 11.548 5.977 18.431q.642-.511 1.279-1.03zm0 0l8.528-3.28s.253 1.46.65 3.79c6.474-4.072 16.345-6.219 24.213-9.581q2.306-3.096 4.475-6.302l-17.723 5.538z"/><path d="M331.866 398.244s1.94-.895 4.61-2.055a307.77 307.77 0 0 0-.64-4.777q-2.774 1.766-5.613 3.433l.81 6.35q.627-.356 1.252-.716zm16.247-15.411c.27 2.3.466 4.603.61 6.876.746-.55 1.492-1.101 2.23-1.663l-1.287-6.43c-.517.405-1.03.817-1.553 1.217zm38.551-40.968a10.917 10.917 0 0 1 5.984 1.32q1.109-1.696 2.183-3.416l-6.24-.814q-.95 1.466-1.927 2.91z"/><path d="M329.563 389.664l.66 5.181q2.843-1.66 5.613-3.433-.371-2.605-.768-5.21-2.715 1.788-5.505 3.462zm17.758-12.354c.311 1.824.575 3.67.792 5.523.522-.4 1.036-.812 1.553-1.218l-1.067-5.335q-.636.518-1.278 1.03zm34.879-37.74q-2.17 3.205-4.476 6.302a37.243 37.243 0 0 0 5.426-2.784 7.9 7.9 0 0 1 3.514-1.223q.977-1.445 1.927-2.91l-3.12-.407zm-48.56 13.411l-7.47 2.935 18.163-.973-10.693-1.962zm-7.412 10.507l.698 5.477c.204-.142.348-.245.348-.245zm76.795 38.229a17.014 17.014 0 0 1-8.766 5.507c-7.458 1.811-18.895 2.288-23.78-.072 5.124-2.8 12.445-3.22 18.79-4.692l-24.522 1.326 5.83 7.58 19.682.655 11.81-2.624 10.496-15.746-.52-9.365-5.58 17.245z"/><path d="M404.69 360.848a41.715 41.715 0 0 1 .296 5.002c1.23 4.924 2.292 9.85 3.092 13.454 1.91 8.585-.329 17.003-5.055 22.413l3.44-.186 5.58-17.245-.135-2.444zm-12.34 40.779c-9.91-4.267-24.572-.246-36.487-.988-.492-5.027-.943-10.195-1.462-15.288q-1.707 1.369-3.449 2.695l.596 2.982a6.797 6.797 0 0 0-2.721.404c.192 3.731.237 7.342.184 10.646-4.042.78-6.668 3.098-11.583 2.945a191.298 191.298 0 0 0-.743-7.168q-2.178 1.346-4.4 2.624l1.55 8.263 7.217-2.625 22.963-3.28.73.949 24.523-1.326a37.65 37.65 0 0 0 3.082-.833zm-48.017-46.684l4.266 21.337q2.164-1.758 4.267-3.59a103.678 103.678 0 0 0-3.012-14.328 18.535 18.535 0 0 1 3.657-2.909c-.397-2.33-.65-3.79-.65-3.79z"/><path d="M331.866 398.244l.42 2.235q2.218-1.283 4.4-2.624c-.067-.555-.14-1.11-.21-1.666a252.845 252.845 0 0 0-4.61 2.055zm17.8-16.629l1.286 6.43q1.741-1.326 3.45-2.694a360.03 360.03 0 0 0-.767-6.942q-1.96 1.633-3.969 3.206z"/><path d="M349.666 381.615q2.007-1.575 3.969-3.206-.353-2.908-.769-5.719-2.105 1.83-4.267 3.59zm-46.034-36.187l2.453 6.242 1.643-9.532-1.449 3.621-2.647-.331zm-4.108-61.335h-2.586l5.963 1.228zm11.769 14.921c-.564 12.97-.763 25.855-3.513 37.995l.623 1.215 4.244-24.607 1.31-24.275-1.116-.406v10.897s-.593-.317-1.548-.819zm-34.732-5.735l6.388 9.164-5.113-12.06a27.944 27.944 0 0 0-1.275 2.896zm32.344 45.918l-.502-.973-.675 3.914zm3.936-51.829l-9.94-2.047 9.94 3.615v-1.568zm-32.296-1.352a57.578 57.578 0 0 0-3.46 2.595l.751 1.771c1.364-2.692 3.723-6.29 6.598-6.29h12.504l-6.404-1.318-9.275 1.21-.062 1.585z"/><path d="M282.949 302.443l18.083 42.659 2.6.326-11.98-30.499-8.703-12.486z"/><path d="M277.836 290.382l5.113 12.06 8.703 12.487 11.98 30.499 2.647.331 1.45-3.62.674-3.915c-.17-.329-.38-.738-.623-1.215a80.01 80.01 0 0 1-1.485 5.648c-9.042-16.58-14.362-36.597-26.069-50.705 1.238-1.31 2.342-2.765 3.557-4.108 5.3 2.217 8.76-2.909 12.836-2.47 4.673.496 8.371 6.948 15.038 6.525-.146 2.372-.26 4.745-.364 7.115.955.502 1.548.819 1.548.819v-10.897l-9.94-3.615-5.963-1.228h-12.504c-2.875 0-5.234 3.597-6.598 6.29zm-78.494-35.812s.573.24 1.542.624c-1.314-1.545-1.59-3.108-.179-4.541 5.553 3.856 16.293 2.909 24.466 4.344.295 1.813-.622 4.027-1.206 6.426a8.867 8.867 0 0 0 2.023-.231 16.249 16.249 0 0 1 2.588-5.81l.093-2.779-18.175-1.976-11.102-3.416a451.274 451.274 0 0 1-5.957-1.254v5.326l5.01 4.483z"/><path d="M198.445 255.766l-5.01-4.483 4.582 5.053.428-.57zm3.325 4.708l.688.31-1.132-.799.444.489zm13.334 6.001l10.768 4.846q-.21-1.32-.316-2.61zm-21.669-21.097v.579c1.573.342 3.698.795 5.957 1.254zm12.465 17.059l.786.25-1.019-.459.233.209zm-8.526-5.242l3.952 2.79-3.309-3.649-.643.859z"/><path d="M205.9 262.437l-.233-.209-3.209-1.444 6.07 4.284 6.576 1.407-8.418-3.788-.786-.25z"/><path d="M206.686 262.687l13.649 4.341 5.212 1.564a24.16 24.16 0 0 1 .441-7.4 8.867 8.867 0 0 1-2.023.231 13.295 13.295 0 0 0-.447 3.281c-5.171-.318-18.658-4.836-22.634-9.51a99.697 99.697 0 0 1-1.542-.624l-.897 1.196 7.222 6.462z"/><path d="M198.445 255.766l-.428.57 3.309 3.649 1.132.799 3.209 1.444-7.222-6.462zm27.102 12.826l-5.212-1.564-13.649-4.341 8.418 3.788 10.452 2.235-.009-.118zm72.063-6.572l.512 1.474c.015.045.037.085.053.13l.351-1.931zm22.587 23.51q-3.863-.41-7.51-1.023-3.585-.604-6.95-1.41a19.398 19.398 0 0 0 1.003 1.653l-6.134-2.19-.127.767 1.356.383a112.566 112.566 0 0 0 19.535 3.506v-1.577c-.39-.038-.787-.068-1.173-.109zm14.708-12.693a34.906 34.906 0 0 1-.416 7.682 19.262 19.262 0 0 1-.711 2.766c-.132.39-.278.757-.433 1.111a9.34 9.34 0 0 1-1.087 1.93q-5.637-.165-10.888-.687v1.577c3.477.338 7.084.575 10.842.685l.803.023.49-.638c3.12-4.053 3.118-11.508 2.973-14.525a82.028 82.028 0 0 0-1.942-14.105 5.87 5.87 0 0 0-1.824-.675 76.106 76.106 0 0 1 2.193 14.856z"/><path d="M305.737 283.096q3.366.807 6.95 1.41-3.585-.603-6.95-1.41zm14.46 2.434c.386.041.784.07 1.173.109-.389-.038-.787-.068-1.173-.109zm1.173.109q5.259.515 10.888.688-5.637-.166-10.888-.688zm-84.355 14.414a54.12 54.12 0 0 0-.478-1.333c-1.681-3.198-3.531-6.81-5.232-10.613l.74 3.208c.627 1.76 1.28 3.45 1.89 5.017.607 1.554 1.164 2.979 1.59 4.23.175.514.32 1.032.462 1.537a9.276 9.276 0 0 0 1.84 3.983q-.176-2.269-.361-4.535c-.138-.493-.28-.995-.451-1.494zm22.948-.389a32.03 32.03 0 0 1-1.713.85 78.85 78.85 0 0 1-4.084 1.74 87.7 87.7 0 0 1-2.497.95c-1.993.724-4.062 1.394-5.931 1.872-.935.24-1.82.43-2.621.556-.4.062-.78.109-1.134.137a6.068 6.068 0 0 1-1.788-.073l-2.11.635a3.948 3.948 0 0 0 1.753.897 6.063 6.063 0 0 0 1.364.136c5.457 0 16.853-4.867 19.514-6.319a74.406 74.406 0 0 0 12.354-9.092 184.992 184.992 0 0 1 4.015-3.342l-.635-1.498c-5.188 4.114-10.259 9.155-16.487 12.55zm19.713-15.474l1.583-.206.214-5.464a17.79 17.79 0 0 1-1.596.513q-.102 2.58-.201 5.158z"/><path d="M230.339 285.878a67.766 67.766 0 0 0 1.706 5.437l-.74-3.208c-.33-.736-.65-1.48-.966-2.23zm49.316-1.161c-1.08.74-2.144 1.556-3.205 2.396l.635 1.498a57.578 57.578 0 0 1 3.46-2.595l.652-.447.062-1.585-1.583.207zm10.315-18.585a6.065 6.065 0 0 1 1.622.255 5.65 5.65 0 0 1 2.228 1.33 6.626 6.626 0 0 1 1.075 1.355 8.621 8.621 0 0 1 1.18 4.295 8.985 8.985 0 0 1-.156 1.817 8.089 8.089 0 0 1-.53 1.725 6.975 6.975 0 0 1-.915 1.532c-1.664 2.103-4.655 3.216-9.123 1.82a60.201 60.201 0 0 0-.689-3.344c-.46.295-.934.573-1.427.825.186.823.379 1.728.566 2.79l.166.945.915.286a14.085 14.085 0 0 0 4.204.704 8.097 8.097 0 0 0 7.277-4.008 9.53 9.53 0 0 0 1.191-3.811v-2.52a9.328 9.328 0 0 0-2.694-5.594 7.461 7.461 0 0 0-5.807-1.96 2.367 2.367 0 0 1 .628.494 10.127 10.127 0 0 1 .288 1.064zm16.43-9.058c4.642-3.154 9.991-6.788 14.97-8.141v-2.141l-22.503 13.027-.34 1.874.553-.198c1.719-.614 4.44-2.463 7.32-4.42zm-8.846 17.574v6.821l3.052 1.09.104-.622a20.809 20.809 0 0 0 .075-4.576 14.116 14.116 0 0 1 .367-5.434l.163-.471.405-.292a8.32 8.32 0 0 1 1.633-.904 12.595 12.595 0 0 0-1.476.266l-1.882.464-.068-1.939a9.554 9.554 0 0 0-1.066-3.749 24.412 24.412 0 0 1-.686-1.678l-.62 3.412v5.092a10.728 10.728 0 0 1 0 2.52z"/><path d="M329.749 249.588c2.262 1.318 3.777 5.004 4.787 9.068a2.47 2.47 0 0 1 1.072 1.163l-3.937-11.81-7.872-2.623-2.43 1.406v2.14c3.008-.817 5.88-.802 8.38.656zm-29.822 19.463l.068 1.939 1.882-.464a12.595 12.595 0 0 1 1.476-.266 8.32 8.32 0 0 0-1.633.904l-.405.292-.163.47a14.116 14.116 0 0 0-.367 5.435 20.809 20.809 0 0 1-.075 4.576l-.104.622 6.134 2.191s-.471-.675-1.003-1.654q-1.768-.423-3.475-.902a13.446 13.446 0 0 0 .151-1.35c.029-.447.038-.891.034-1.331-.006-.88-.062-1.743-.109-2.574-.046-.831-.083-1.63-.052-2.385a7.37 7.37 0 0 1 .354-2.113 6.451 6.451 0 0 1 .994-.583 8.94 8.94 0 0 1 1.126-.44c2.366-.758 5.376-.82 8.158-1.132a16.715 16.715 0 0 0-4.046-1.341 19.003 19.003 0 0 0-2.978-.357 15.905 15.905 0 0 0-4.393.409c-.087-2.506-1.211-4.059-1.892-6.02.056-.02.118-.047.175-.07.279-.106.574-.235.883-.386q.284-.137.585-.297.464-.247.964-.542c5-2.94 12.56-9.144 19.154-11.101v-1.648c-4.979 1.353-10.328 4.987-14.97 8.141-2.88 1.958-5.601 3.807-7.32 4.421l-.554.198-.351 1.931c.208.579.443 1.132.686 1.678a9.554 9.554 0 0 1 1.066 3.749z"/><path d="M329.749 249.588c-2.5-1.458-5.372-1.473-8.38-.655v1.648c2.792-.83 5.411-.902 7.586.367 1.611.938 2.84 3.686 3.757 7.033a5.87 5.87 0 0 1 1.824.675c-1.01-4.064-2.525-7.75-4.787-9.068zm-27.336 31.257a13.446 13.446 0 0 1-.15 1.349q1.704.48 3.474.902-1.767-.424-3.475-.902a13.423 13.423 0 0 0 .151-1.35zm-2.629-17.937c-.057.022-.119.05-.175.07.681 1.96 1.805 3.513 1.892 6.019-.087-2.506-1.21-4.059-1.892-6.02.056-.02.118-.047.175-.07zm3.85 8.95a6.451 6.451 0 0 0-.994.583 7.37 7.37 0 0 0-.354 2.113 7.373 7.373 0 0 1 .354-2.113 6.45 6.45 0 0 1 .994-.583zm-6.08.27v2.52a10.728 10.728 0 0 0 0-2.52zm-68.978-16.747l-.564 16.903-.4-.18 1.49 6.46c-.007-.117-.025-.234-.03-.35l-.03-.661c-.39-8.431-.924-19.976 4.242-24.454a8.056 8.056 0 0 1 7.122-1.617 99.527 99.527 0 0 1 26.426 9.662c1.124.617 2.112 1.258 3.066 1.88 2.644 1.718 4.927 3.202 9.247 3.534l1.507.116-.185 4.868-.677.444a19.332 19.332 0 0 1-6.32 2.325 34.526 34.526 0 0 1 7.136 2.634l.911.454-.044 1.121a17.427 17.427 0 0 0 1.762-.778c-.116-.51-.23-.996-.338-1.447a21.851 21.851 0 0 1-.776-8.127l.068-.75.628-.418a13.215 13.215 0 0 1 6.236-2.427c-2.649-1.55-9.667-.349-12.332-1.731l-15.377-7.971a56.227 56.227 0 0 0-10.919-4.091l-17.626.503a16.543 16.543 0 0 0-4.223 4.098zm9.277 51.019l.232-.069a4.014 4.014 0 0 1-.258-.25l.026.32z"/><path d="M232.8 251.283l17.625-.503c-6.403-1.688-13.466-2.326-17.626.503zm-5.189 20.82l-1.739-.782a64.5 64.5 0 0 0 4.467 14.557 37.283 37.283 0 0 1-1.237-7.315zm-.716-3.106l.716 3.106.401.18.564-16.902a16.249 16.249 0 0 0-2.588 5.81c.084-.02.174-.035.254-.06z"/><path d="M226.895 268.997l-1.339-.287q.109 1.292.316 2.61l1.74.783z"/><path d="M225.547 268.592l1.347.405-.652-7.865c-.08.024-.17.039-.254.06a24.16 24.16 0 0 0-.441 7.4z"/><path d="M225.556 268.71l1.339.287-1.348-.405.01.118zm11.91 32.837q.182 2.267.361 4.534c.083.087.167.17.258.25l2.11-.635c-1.708-.397-2.174-2.175-2.729-4.149zm-8.364-22.984a37.283 37.283 0 0 0 1.237 7.315c.315.748.636 1.493.966 2.23zm53.088-11.145l-.069.75a21.851 21.851 0 0 0 .776 8.127c.108.45.222.937.338 1.447.493-.252.968-.53 1.427-.825-.725-3.115-1.304-4.913-.972-8.607a11.224 11.224 0 0 1 6.02-2.196c.09 0 .171.015.26.018a10.127 10.127 0 0 0-.289-1.064 2.367 2.367 0 0 0-.628-.495 13.215 13.215 0 0 0-6.236 2.427zm16.8 77.505q-3.189-.961-6.388-2.066 3.197 1.102 6.387 2.066zm-12.777-4.394zm-28.483-153.54c-6.642-3.198-11.39-1.453-12.253-.303-1.635 2.183 1.755 14.084 1.755 14.084l3.281.658c-.655-13.126 7.218-14.44 7.218-14.44zM303 299.506a3.609 3.609 0 1 0-3.61 3.607 3.61 3.61 0 0 0 3.61-3.607zm-.002 13.12a3.609 3.609 0 1 0 3.61 3.61 3.61 3.61 0 0 0-3.61-3.61z"/></svg>