<svg xmlns="http://www.w3.org/2000/svg" role="img" viewBox="28.77 -2.23 296.21 362.96"><defs><style>.cls-3{fill:#221f1f}.cls-8{fill:#1a1715}</style></defs><path fill="none" d="M215.032 305.313l-.002.074a15.079 15.079 0 0 0 3.338-.64 15.404 15.404 0 0 1-3.336.566zm7.503-1.149l-.755-.085a11.523 11.523 0 0 0-1.228.168 3.966 3.966 0 0 1 1.558.013h.042c.905 7.897 4.034 15.89 3.64 24.544-1.242.418-2.294.816-3.345 1.156 1.198-.369 2.364-.82 3.771-1.294h-.032c.394-8.643-2.735-16.647-3.65-24.502z"/><path fill="#d23933" d="M210.561 189.016a35.3 35.3 0 0 1 1.863-1.316c-.07.006-.141.018-.211.025l-.204.145a10.956 10.956 0 0 0-1.448 1.146zm-99.987-7.564c.35-4.577 2.97-6.908 6.694-8.707a28.452 28.452 0 0 1 5.148-1.984l-.01-.024a28.452 28.452 0 0 0-5.159 1.987c-3.725 1.799-6.386 4.13-6.695 8.706a16.188 16.188 0 0 0-.023 2.47l.018-.008a16.179 16.179 0 0 1 .027-2.44z"/><path d="M317.744 191.077L293.781 85.976l-.05-.193a22.388 22.388 0 0 0-10.723-13.458L255.26 58.952c.196-1.126.41-2.359.644-3.725 4.215-7.802 6.11-12.858 4.79-18.094s-7.27-15.21-15.243-20.224c-6.514-4.087-21.117-11.686-29.93-12.059-14.252 0-40.765 1.735-53.144 9.239-9.367 5.684-24.62 18.392-36.679 28.387-1.93 1.881-6.675 5.358-12.02 9.25L71.174 72.19l-.182.094A22.382 22.382 0 0 0 60.27 85.793L36.253 190.975l-.037.183a22.32 22.32 0 0 0 3.782 16.78l53.597 67.114c.207 2.854.394 5.716.587 8.601.34 5.397-.234 11.123 1.171 14.114s6.812 4.066 10.644 5.865c11.186 5.172 23.054 13.08 37.732 11.505 3.502 11.762 6.812 24.29 11.006 34.593 15.05 5.407 38.807 4.566 54.453 2.682 4.747-.575 9.771-2.916 10.889-7.046a41.845 41.845 0 0 1-.543-8.057c4.885-1.012 11.548-1.852 12.623-7.26 1.512-7.6-4.8-18.477-2.692-26.8 2.274-.744 4.668-1.355 5.292-3.882a22.668 22.668 0 0 0 9.596-4.86 50.013 50.013 0 0 1 6.995-.178 12.771 12.771 0 0 0 2.874 3.778c8.462 1.703 16.668 1.842 23.693-.447 7.962-2.597 11.761-18.871 9.941-26.609a121.977 121.977 0 0 0-6.705-19.776 16 16 0 0 0-.724-1.366l33.411-41.89.126-.168a22.374 22.374 0 0 0 3.78-16.774zM113.917 59.378c4.109-2.921 7.795-5.54 10.312-7.674a280.28 280.28 0 0 1 3.333-2.78c5.41-4.444 9.169-7.166 13.193-10.234a217.705 217.705 0 0 0 5.124-4.016l1.128-.914c8.65-6.995 11.637-9.067 24.768-17.542 20.043-4.96 26.652-5.908 38.424-6.738h.043c15.189 2.597 23.044 5.673 32.155 10.974 7.855 4.555 10.952 8.877 13.613 18.01.415 4.65.181 7.897-3.725 14.986-.04.396-.11.788-.162 1.182a63.65 63.65 0 0 0-14.389-4.127 86.438 86.438 0 0 0-1.936-.323c-4.026-.622-7.009-1.134-9.775-1.463.974-1.442 1.375-2.087 1.923-2.932.365-.564.799-1.22 1.519-2.268 1.883-2.746 1.49-3.023 3.374-5.78a4.162 4.162 0 0 0 .787-3.693c-.99-3.193-.724-3.257-1.724-6.386s-1.5-3.023-2.49-6.195a4.258 4.258 0 0 0-2.385-2.948c-3.13-1.203-3.055-1.373-6.184-2.576l-6.205-2.448a6.352 6.352 0 0 0-4.109.245c-2.905 1.67-2.714 1.99-5.609 3.672s-3.044 1.426-5.94 3.097a4.747 4.747 0 0 0-2.075 3.406c-.485 3.259-.354 3.314-.828 6.515l-.013.084c-.268 1.803-.418 2.612-.578 3.515-.131.746-.27 1.555-.486 3.042a4.67 4.67 0 0 0 .969 3.246c.095.117-.16.532-.054.639 2.278 2.437 2.374 2.341 4.662 4.779 2.098 2.234 2.59 2.113 4.42 3.946a243.67 243.67 0 0 0-41.14 9.646c-13.763 4.353-35.03 14.263-43.204 19.35a137.146 137.146 0 0 0-17.791 13.594q-1.003.877-2.043 1.802-1.203 1.071-2.461 2.21-.786.712-1.597 1.455-1.08.988-2.204 2.028l-1.02.947a85.468 85.468 0 0 1-.164-.265l-.1-.163a80.406 80.406 0 0 1-.417-.692A183 183 0 0 1 91 96.408c-9.388-7.45-1.49-10.25.713-19.159 5.954-6.31 14.78-12.593 22.204-17.871zm111.448-14.835l-1.861 2.722a2.592 2.592 0 0 1-1.682.969l-1.279.1a55.397 55.397 0 0 0-3.332.048c-2.471.107-5.328.373-8.937.832a2.273 2.273 0 0 1-1.257-.66l-8.74-9.297-.137-.145a1.063 1.063 0 0 1-.138-.17 2.129 2.129 0 0 1-.437-1.671l.312-2.091.54-3.624 1.053-7.058a2.278 2.278 0 0 1 1.065-1.607l11.26-6.535a2.47 2.47 0 0 1 .842-.287 2.31 2.31 0 0 1 1.139.17l12.133 4.672a2.225 2.225 0 0 1 1.331 1.416l3.864 12.326a2.224 2.224 0 0 1-.288 1.915zM96.269 102.18c-.022.072-.04.144-.07.217-.103.073-.207.144-.308.217l.378-.434zM45.661 203.823a15.36 15.36 0 0 1-2.562-11.385L67.025 87.629a15.429 15.429 0 0 1 7.282-9.178l14.565-7.013c-1.522 2.078-3.055 5.143-5.749 11.133-3.331 8.164-3.555 8.515 3.193 14.337 2.25 3.14 5.367 7.934 7.019 10.5-3.722 10.841-.113 24.437 5.009 31.947a23.48 23.48 0 0 0 15.689 10.08 33.262 33.262 0 0 0 3.257 12.187c.53 1.167 2.16 3.692 3.71 6.46a43.78 43.78 0 0 0-5.264 2.215c-4.417 2.129-7.887 4.438-8.675 9.58a14.17 14.17 0 0 0 .231 5.284 32.831 32.831 0 0 0-3.51 1.538c-6.769 1.426-5.321.362-15.646 1.777-5.321.352-14.007 7.59-12.772 15.966.83 5.652 5.173 14.188 7.014 19.85 1.99 6.11 4.843 11.709 6.482 18.095a146.583 146.583 0 0 1 3.593 20.02zm82.338-33.533a7.903 7.903 0 0 1 1.685.483c3.635 1.557 5.348 5.721 6.562 10.338a.977.977 0 0 0 .284.499c.358.314.94.19 1.558.086a10.533 10.533 0 0 0 1.862-.5l-.009-.025a26.32 26.32 0 0 0 2.133-.866c1.181-.528 2.34-1.1 3.38-1.546q4.927-2.108 9.973-3.928c.733-.266 2.445-.814 4.657-1.504l.05.053c1.188-.369 2.518-.78 3.928-1.213l-.057-.052c2.17-.666 4.51-1.38 6.766-2.064l.029.055c4.929-1.501 9.444-2.868 10.789-3.28 1.554-.467 3.087-1.063 4.662-1.457l.004-.001a11.278 11.278 0 0 0 2.691 1.655l.04.013c-4.005 1.185-10.308 3.247-16.832 5.545-1.79.631-3.593 1.278-5.371 1.93a354.863 354.863 0 0 0-4.076 1.523 110.613 110.613 0 0 0-13.72 5.971 53.207 53.207 0 0 0-3.41 2.042c-.508.327-1.02.647-1.516.99-.505.351-.994.725-1.487 1.093l-.019.014c-.08.06-.163.118-.243.178-.12.091-.245.177-.365.269-.201.154-.399.313-.598.47-.203.161-.4.33-.6.495-.431.351-.869.694-1.288 1.059a6.738 6.738 0 0 0-1.24 1.613 8.249 8.249 0 0 0-.454.948c-.012.03-.026.06-.038.092a23.685 23.685 0 0 0-.874 3.036l-.13.527a20.116 20.116 0 0 1-2.512 6.524c-1.472 2.21-2.813 2.975-4.545 2.788a9.092 9.092 0 0 1-2.682-.776 34.524 34.524 0 0 1-9.049-6.097l.06-.023a34.888 34.888 0 0 1-2.097-2.123l-.068.02a34.536 34.536 0 0 1-2.8-3.538 17.338 17.338 0 0 1-.596-.937l-2.586.724a35.764 35.764 0 0 0 2.64 3.65c.246.297.515.614.805.947-9.475 3.44-14.023 7.98-17.048 5.078-1.737-.868-4.12-1.853-6.338-2.718a197.495 197.495 0 0 0-4.123-1.552c1.554-.881 3.677-1.222 6.587-1.073a29.495 29.495 0 0 1 3.543-1.504c3.485-1.27 8.261-2.628 13.3-4.06.222.409.453.813.698 1.21l2.586-.723a16.165 16.165 0 0 1-.612-1.247l.011-.003a16.389 16.389 0 0 1-1.327-5.253c-.007-.084-.02-.168-.025-.253l-.018.007a16.188 16.188 0 0 1 .023-2.469c.309-4.577 2.97-6.908 6.695-8.706a28.452 28.452 0 0 1 5.158-1.987l.012.024c.334-.093.666-.191 1.004-.273.388-.087.753-.14 1.118-.195.217-.032.431-.062.64-.082l.08-.006c.193-.018.381-.029.568-.038a9.753 9.753 0 0 1 2.175.13zm110.055 16.452l.312 1.562 1.519 7.62.053.27-3.91-2.058a37.748 37.748 0 0 0-.385-2.258c-1.509-7.371-5.127-12.842-11.234-9.884 1.724-2.522 4.981-3.746 7.078-6.854a18.337 18.337 0 0 0 2.462 1.686l1.597 3.858zm-.906-8.523c2.494.815 4.973 1.214 8.516 3.307 2.969.847 5.14 1.5 6.764 2.102a10.772 10.772 0 0 1 3.38 1.771l-.804-.132-11.245-1.846-5.228-1.437zm-26.891 28.65c-.006-.18-.01-.36-.02-.538l-.029-.534a8.692 8.692 0 0 1 .194-3.228 4.274 4.274 0 0 1 .528-.312c1.538-.805 3.731-.891 5.828-1.088.198-.02.398-.037.594-.058a12.092 12.092 0 0 0-7.717-.873c-.063-1.685-.812-2.737-1.27-4.049l-.007-.017a20.3 20.3 0 0 0 .989-.47c3.398-1.715 6.38-4.304 9.699-6.166a24.32 24.32 0 0 1 1.227-.646c.188-.091.38-.173.57-.259.188-.084.376-.17.568-.248a15.192 15.192 0 0 1 3.221-.939c2.853.181 1.714-.16 3.555.628v-.043c1.14.66 1.997 2.651 2.626 5.05a51.944 51.944 0 0 1 1.398 9.745c.17 3.587-.32 7.217-1.788 9.122-.077-.001-.152-.006-.229-.007a84.223 84.223 0 0 1-18.274-2.342c-.592-.142-1.185-.284-1.774-.44a11.552 11.552 0 0 0 .111-2.287zm-6.71-12.336c-6.727.34-10.399-.458-15.338-4.322.075-.212.575-.127.586-.51l.01-.043c7.127 3.163 16.172-1.219 23.408-1.933.07-.007.142-.02.21-.025a35.3 35.3 0 0 0-1.862 1.316c-2.404 1.784-4.593 3.767-7.014 5.517zm-2.375 13.885a6.029 6.029 0 0 1-2.5-.538 41.807 41.807 0 0 0-.484-2.334 15.004 15.004 0 0 1-.633-5.744 8.491 8.491 0 0 1 3.86-1.45c.07-.007.136-.025.205-.03 6.747.97 4.993 10.006-.448 10.096zm-44.276-6.712c.02.506.054 1.017.116 1.533a.967.967 0 0 0-.689.385c-.903.942-2.14 3.63-4.239 8.003-3.474-6.444-4.223-7.286-8.377-11.56l-.404-.415a106.575 106.575 0 0 0-2.269-3.405q-.512-.743-.99-1.43l.065-.403c.114-.727.226-1.46.385-2.152a9.034 9.034 0 0 1 .383-1.284v-.16a12.357 12.357 0 0 1 2.182-1.415c.43-.275.913-.563 1.438-.86 4.632 1.014 10.127 1.674 13.495 2.264a19.58 19.58 0 0 1-.575 4.444 35.157 35.157 0 0 0-.522 4.553c-.02.49-.028.988-.016 1.496.003.134.01.27.017.406zm-7.653-15.59c4.624-2.189 10.61-4.664 16.73-7.06a29.538 29.538 0 0 0 8.101 5.195c-4.906-1.15-12.432-1.512-14.475 2.884-3.576-.236-7.073-.513-10.356-1.02zm21.317-8.833q1.495-.571 2.97-1.126l.427 1.112a1.064 1.064 0 0 0 .607.606l4.46 1.618a1.064 1.064 0 0 0 .67 0 60.881 60.881 0 0 0 12.336-5.588l7.728-4.31h.053l4.044-2.627c.046-.002.092 0 .139-.003a9.843 9.843 0 0 0 5.226-1.661 16.165 16.165 0 0 1 1.97.065 1.159 1.159 0 0 1 .276.053l2.842.98a1.247 1.247 0 0 1 .33.18l6.727 5.63a1.064 1.064 0 0 0 .564.235l1.437.138a1.064 1.064 0 0 0 1.139-.936l.388-4.364a7.009 7.009 0 0 0 3.81.797 24.794 24.794 0 0 1-5.72 6.004c-10.389 7.291-26.173 13.912-39.702 9.377a53.241 53.241 0 0 1-12.72-6.18zm-5.788 12.641h-.043a8.814 8.814 0 0 1 1.39-.423c.079-.018.157-.034.236-.05.146-.028.29-.07.439-.091l1.028.093.27.024a66.405 66.405 0 0 1 17.552 6.386c2.831 1.544 4.46 3.46 8.75 3.79l-.065 1.713a6.977 6.977 0 0 1-1.094.568c-2.322.99-5.415 1.14-7.623 2.253l.036.002a22.733 22.733 0 0 1 9.341 2.371l-.02.537c-.047 1.257-.094 2.51-.15 3.72-2.44 1.691-4.796 3.854-7.312 5.916a56.211 56.211 0 0 1-2.54 1.978 31.7 31.7 0 0 1-3.453 2.218c-.294.159-.68.35-1.13.559l-.355.16a56.62 56.62 0 0 1-2.519 1.06c-3.388 1.336-7.666 2.694-9.364 2.298a1.63 1.63 0 0 1-.614-.302 3.845 3.845 0 0 1-1.104-2.11c-.128-.456-.253-.935-.411-1.41a33.132 33.132 0 0 0-.218-.618c-1.312-3.626-3.848-9.048-4.04-14.187-.191-3.874-1.298-13.964 3.013-16.455zm68.716-29.09l-.008.018c-.086.2-.182.395-.284.585a7.425 7.425 0 0 1-3.636 3.325 4.536 4.536 0 0 1-3.32-.356 2.427 2.427 0 0 1-1.437-2.56c.21-1.479-1.624-2.62-2.528-1.346a1.93 1.93 0 0 0-.165.281 4.569 4.569 0 0 1-.858 1.215c-2.36 2.403-7.15 2.093-9.009-1.012a2.123 2.123 0 0 0-.196-.185 2.268 2.268 0 0 0-2.502-.145 2.585 2.585 0 0 0-.495.425 5.543 5.543 0 0 1-.516.722c-2.663 3.182-8.516 2.987-10.554-.722-.486-.92-1.199-.963-1.685-.512a1.82 1.82 0 0 0-.529 1.194 2.518 2.518 0 0 1-.337 1.049 3.4 3.4 0 0 1-.555.721 5.276 5.276 0 0 1-2.114 1.236l-.06.02a4.31 4.31 0 0 1-1.99.167 5.572 5.572 0 0 1-1.197-.372l-.044-.018a10.575 10.575 0 0 1-3.472-2.639 21.27 21.27 0 0 1-1.045-1.229 1.005 1.005 0 0 0-1.692-.13 1.937 1.937 0 0 0-.351.599 4.868 4.868 0 0 1-1.354 1.972l-.036.031a5.46 5.46 0 0 1-4.26 1.207 4.993 4.993 0 0 1-4.132-3.21 1.502 1.502 0 0 0-2.44-.698 1.419 1.419 0 0 0-.317 1.017 4.298 4.298 0 0 1-4.874 4.066 7.023 7.023 0 0 1-3.87-2.538c-.158-.19-.306-.388-.45-.587-.03-.041-.063-.08-.092-.121a10.417 10.417 0 0 1-.91-1.586 7.876 7.876 0 0 1 .468-5.759 19.041 19.041 0 0 1 6.205-8.004 25.098 25.098 0 0 1 9.899-3.991 83.021 83.021 0 0 1 10.644-1.182c2.693-.149 5.439.256 8.142.192s5.375.149 8.1.202 5.428-.085 8.11.128a35.372 35.372 0 0 1 9.101 2 22.767 22.767 0 0 1 8.099 4.48v.002c3.098 2.863 6.472 7.695 4.546 12.049zM104.08 293.57a121.986 121.986 0 0 0-3.096-1.508 254.543 254.543 0 0 0-.383-8.238q-.187-3.073-.449-6.169-.269-3.183-.616-6.38c-2.575-23.618-8.384-47.577-17.456-67.035.022-.194.05-.373.075-.56a17.214 17.214 0 0 1 .552-2.687 41.52 41.52 0 0 1 2.664.477 41.578 41.578 0 0 1 11.264 4.136c.473.257.947.51 1.41.784 4.801-2.906 13.955-6.95 13.955-6.95l3.335-1.22c4.861 5.051 12.614 11.313 18.442 8.33 3.03-1.543 4.488-5.154 5.46-8.37a46.7 46.7 0 0 0 5.3 7.028c1.725 2.268 7.058 10.719 8.303 11.315 1.64.777 3.555-9.814 5.162-9.047.48 3.523 1.065 4.427 2.991 10.537 2.129 6.748 3.076 15.05 12.773 11.41a44.49 44.49 0 0 0 3.283-1.403q1.275-.6 2.535-1.27c.246-.13.49-.264.733-.398a1.898 1.898 0 0 0-.122 1.549 83.472 83.472 0 0 1 3.276 19.648c.153 2.135.278 4.275.406 6.415l.075 1.234c-16.067.897-34.228 2.57-47.88 4.353-.717.094-1.444.187-2.135.281a31.208 31.208 0 0 1-4.652-12.357 15.7 15.7 0 0 0-1.176-4.163c-1.09-2.337-2.485-2.845-3.134-1.34-1.65 3.843-.905.373 4.31 17.03 1.065 3.555-1.905-4.108-5.268-5.322-1.32 4.151 1.224 4.013 3.193 6.706s-6.578-1.192-6.546 3.991c.27.043.563.08.875.11 4.605.455 13.476-.317 17.773 1.497q.225 2.634.483 5.238c.716 7.244 1.613 14.377 2.608 21.714q.236 1.74.48 3.5l.486 3.494 1.19 8.46c-16.862-.875-28.244-8.677-40.48-14.82zm106.296 50.873a92.231 92.231 0 0 1-23.82 2.373 107.323 107.323 0 0 1-28.33-4.42 324.883 324.883 0 0 1-10.746-42.465q-.321-1.74-.626-3.495-.305-1.74-.593-3.5c-1.458-8.804-2.67-17.895-3.714-27.516 15.115-2.724 30.42-4.63 45.769-4.513 4.918.196 9.859.333 14.739.973 1.773.233 3.539.528 5.292.922.1.649.19 1.297.275 1.945 1.243 9.483.978 18.862 1.726 28.189q.14 1.751.337 3.5c.024.21.043.42.068.628q.163 1.424.291 2.87c1.287 14.344.33 30.26 3.083 43.484a65.516 65.516 0 0 1-3.751 1.025zm-17.902-91.736a7.558 7.558 0 0 1-.188-1.4 3.676 3.676 0 0 1 .132-1.23 3.267 3.267 0 0 1 3.316-2.283 8.686 8.686 0 0 1 1.505.248 2.215 2.215 0 0 1 1.839 1.84 4.874 4.874 0 0 1 .084 1.105c-.075 2.278-.437 3.194-3.193 3.438-2.306.276-3.161-.403-3.495-1.718zm33.744 75.959c-1.407.474-2.573.925-3.771 1.294a19.974 19.974 0 0 1-6.351.898c-.329-7.319-1.312-18.504-1.066-25.47l.002-.075a15.404 15.404 0 0 0 3.336-.566c.566-.142 1.132-.289 1.702-.41l.03-.006c.15-.032.301-.056.452-.084a11.523 11.523 0 0 1 1.228-.168l.755.085c.916 7.855 4.045 15.859 3.651 24.502zm-11.772-29.456c-.07-.926-.137-1.85-.205-2.774q-.129-1.752-.249-3.5c-.464-6.742-.825-13.445-.969-20.158a275.563 275.563 0 0 1-.046-9.752 29.054 29.054 0 0 1 9.516-1.065 63.787 63.787 0 0 1 1.544 7.523c1.116 7.435 1.4 15.645 2.115 23.452q.162 1.767.36 3.5c.027.234.05.47.079.703-4.354.902-7.512 1.424-12.145 2.07zm2.523-43.816H217c-1.873 1.101-4.122.7-7.394.138-.485-.083-.995-.168-1.527-.254l-.514-.083c-.167-.026-.342-.05-.514-.075a48.588 48.588 0 0 0-7.78-.557 4.686 4.686 0 0 0 1.135-3.256 4.433 4.433 0 0 0-.441-1.964 4.732 4.732 0 0 0-1.598-1.952 3.496 3.496 0 0 0-2.56-.565c-2.71.403-4.424 1.668-4.795 3.746a5.01 5.01 0 0 0-.079.884l.001.107a4.958 4.958 0 0 0 1.38 3.233q-2.024.08-4.12.181l-.063-.983-.16-2.526c-.523-8.343-1.113-16.686-3.669-24.706a2.049 2.049 0 0 0-2.115-1.468 93.844 93.844 0 0 0 7.938-5.237 85.863 85.863 0 0 0 2.435-1.849 28.394 28.394 0 0 0 2.695-2.313c1.096-1.246 1.575-1.874 2.394-2.778a4.998 4.998 0 0 0 4.082-.133c.16-.067.32-.137.477-.21l.124-.055.352-.17a6.97 6.97 0 0 1 3.65-1.103c3.194.34 8.08 3.193 15.083 3.768s10.825.883 12.687-1.831c1.913-3.61 2.714-10.233 2.221-16.538l6.145 2.01-.266-3.992-1.623-6.479-.644-2.568-.337-.918 6.596 1.716 11.03 1.5c.054.27.103.553.146.863a8.354 8.354 0 0 1-.26 2.248c-.891 4.349-3.666 12.868-4.062 14.856-2.128 10.772-7.078 25.003-11.708 36.285-1.703 4.108-3.32 9.239-5.556 10.122-6.163 2.32-13.603-.34-18.818 2.906zm17.447 36.818c-.158.001-.304.016-.47.01a135.14 135.14 0 0 0-.648-6.021c-1.076-8.507-2.793-17.163-3.61-25.155 2.831-.15 1.064-.064 5.184-.234l1.713.212c3.299 5.704 4.643 14.264 5.04 22.039a110.361 110.361 0 0 1 .123 7.168h.031c-2.599.496-4.34 1.954-7.363 1.98zm47.288-17.383c1.29 5.897-.293 11.68-3.588 15.329a11.45 11.45 0 0 1-5.778 3.553h.032c-5.045 1.225-12.773 1.544-16.083-.053 3.227-1.758 7.735-2.129 11.807-2.977a28.586 28.586 0 0 0 2.988-.759c-6.003-2.582-14.57-.675-22.08-.612-.88.007-1.748-.005-2.593-.058q-.099-1.02-.196-2.052c-.156-1.665-.31-3.345-.47-5.024-.735-7.756-1.587-15.488-3.389-21.503a11.92 11.92 0 0 1 2.056-1.71c5.407-3.629 14.803-5.002 20.445-8.614 1.224-.66.48-.33 2.31-.82a9.3 9.3 0 0 1 8.451 4.683 10.586 10.586 0 0 1 .573 1.01 47.554 47.554 0 0 1 2.927 8.557c1.044 3.94 1.942 8.135 2.588 11.05zm26.593-71.09l-32.95 41.318c-8.97-4.56-23.297 1.97-31.8 6.218 5.215-13.73 9.707-27.972 14.315-43.374a113.016 113.016 0 0 0 5.184-23.576c-4.077-5.321-7.27-5.321-12.422-6.45-6.166-2.555-10.473-3.625-12.915-4.79a3.84 3.84 0 0 1-2.252-2.027 2.196 2.196 0 0 1-.085-.26c-.553-2.726 6.386-12.167 7.855-15.147a85.382 85.382 0 0 0 4.524-13.028c4.506-19.026 7.11-38.533 4.73-57.689a24.55 24.55 0 0 1-1.736.907c-.201.096-.4.193-.61.286-.197.089-.406.174-.611.26a34.48 34.48 0 0 1-1.59.625c.32 3.834.427 7.921.636 12.025 1.036 19.988-2.95 40.54-11.665 56.384a13.58 13.58 0 0 0-1.586-4.485 21.958 21.958 0 0 0-6.088-6.078 27.461 27.461 0 0 0-7.621-3.725 38.914 38.914 0 0 0-8.611-1.597c-2.917-.319-5.801-1.138-8.781-1.138s-5.94.84-8.824.84c-3.087.032-6.28-.808-9.473-.649a69.635 69.635 0 0 0-9.41 1.256 35.848 35.848 0 0 0-8.812 3.342c-4.045 1.916-6.695 5.429-8.739 9.367-1.511 2.906-2.192 5.78-.894 8.887.064.054.043.096.064.17s-.149.224-.149.299c1.407 2.985 4.012 5.653 7.362 6.078a629.74 629.74 0 0 0-4.198 1.326c-4.946-5.151-9.126-11.083-13.67-17.388.255 7.11 5.065 13.066 10.019 18.573-1.26.416-2.307.773-3.057 1.043-3.055 1.107-5.833 2.906-8.824 4.183-1.543.646-3.4 1.664-5.193 2.47-.46.206-.916.4-1.36.569.056-.078.257-.296.21-.527-1.427-4.832-4.258-9.58-9.58-10.899a11.708 11.708 0 0 0-3.216-.322 87.494 87.494 0 0 1-4.884-14.09 27.676 27.676 0 0 1-.905-6.056c.627-3.413 6.573-4.96 4.508-9.604-.04-.093-.064-.178-.112-.273-4.502 0-5.513 4.097-9.643 4.502-4.49.447-8.42-1.984-11.438-5.628-4.174-5.04-6.6-12.405-6.316-17.735.405-7.823 7.014-15.306 16.05-14.316 5.13.564 7.51 5.172 8.91 10.156.345 1.223.632 2.467.883 3.68 3.683.192 9.005-.159 10.75-3.033-.182-5-1.884-9.291-2.769-13.676a23.051 23.051 0 0 1-.52-5.397c.04-.732.1-1.463.173-2.192l-.492-.04-.625-.051-.398-.033-.147-.012q-.85-.071-1.64-.14c-1.375-.118-2.6-.227-3.641-.322l-.907-.083-.906-.085c-1.133-.107-1.784-.172-1.784-.172s.46-.315 1.264-.853c-4.387 1.943-2.702.597-9.438 5.515a44.039 44.039 0 0 0-8.424 1.53c-.24.067-.481.123-.72.195a26.862 26.862 0 0 0-3.676 1.534l-.026.012c-.081.001-.161.004-.242.003h-.045a6.39 6.39 0 0 1-1.237-.142c.34-.358.707-.736 1.088-1.124l.04-.04.218-.224.028-.028c4.818-4.871 12.553-11.75 20.691-16.361 13.39-8.409 30.9-15.2 44.704-20.032 12.395-4.339 29.271-7.633 39.66-9.171 1.181-.175 2.301-.333 3.298-.462 3.133-.403 5.8-.699 8.397-.846a62.347 62.347 0 0 1 8.559.098c3.049.235 6.48.683 10.771 1.408l.339.06c9.325 1.6 13.982 3.383 15.728 4.179q-.33 1.528-.781 3.024a37.65 37.65 0 0 1-.435 1.363c.402.188 1.155.582 2.055 1.123a30.224 30.224 0 0 1 1.284.818q.288.194.58.402a15.678 15.678 0 0 1 3.915 3.745l21.48 10.352a15.427 15.427 0 0 1 7.283 9.14L310.86 192.35a15.414 15.414 0 0 1-2.564 11.389zm-179.82-102.265c.915 3.98 4.087 10.165-.97 10.303.07-6.203-4.111-11.156-9.638-13.284a77.297 77.297 0 0 1 9.756-4.884l.211-.045c-.172 3.847-.072 3.576.64 7.91z" class="cls-3"/><path fill="#f0d6b7" d="M145.549 178.78q4.917-2.129 9.973-3.928c.729-.253 2.423-.79 4.612-1.472l-.05-.053c-2.212.69-3.924 1.238-4.658 1.504q-5.045 1.82-9.973 3.928c-1.038.447-2.198 1.018-3.379 1.546l.038.047c1.201-.535 2.381-1.118 3.437-1.572zm-39.414-67.75a6.063 6.063 0 0 1 1.077-.748 4.239 4.239 0 0 0-1.077.748zm64.635 59.021c-2.254.685-4.596 1.398-6.765 2.064l.057.052c2.159-.663 4.49-1.376 6.738-2.06z"/><path d="M131.161 93.354a51.89 51.89 0 0 0-.173 2.192 23.051 23.051 0 0 0 .52 5.397l-.213-7.578z"/><path fill="#f6e3cd" d="M127.999 170.29l.003.007a7.88 7.88 0 0 1 1.682.476 7.903 7.903 0 0 0-1.685-.483zm10.11 11.428a10.538 10.538 0 0 0 1.863-.5 25.776 25.776 0 0 0 2.14-.866l-.038-.047a26.06 26.06 0 0 1-2.133.866l.01.025a10.533 10.533 0 0 1-1.863.5c-.618.103-1.2.228-1.558-.086.356.34.948.213 1.579.108zm61.761-52.868l-.008.02.007-.009z"/><path fill="#fff" d="M140.11 194.414l-.065.403.99 1.43.308.106z"/><path fill="#ee3e3b" d="M167.532 224.704q-.499-.973-1.104-2.11a3.845 3.845 0 0 0 1.104 2.11z"/><path d="M263.307 260.153a16.083 16.083 0 0 1 3.666-1.247q-1.442.043-2.806.17c-6.913.627-12.322 2.862-15.576 7.451 5.425.346 9.64-3.999 14.716-6.374zm-1.844 7.925a21.605 21.605 0 0 0-4.633.197c-2.074.344-3.797 1.087-4.684 2.435.866.067 1.758.094 2.659.104a62.506 62.506 0 0 0 4.58-.131c1.603-.1 3.21-.244 4.797-.407 1.996-.204 3.956-.433 5.803-.63a31.232 31.232 0 0 0-4.43-1.092 34.945 34.945 0 0 0-4.092-.476zm-7.119 8.927a5.649 5.649 0 0 0-2.485 1.411c.413.035.854.064 1.284.095 1.363.098 2.793.18 4.276.245 4.807.21 10.047.252 14.514.16a36.5 36.5 0 0 0-12.649-2.5 16.348 16.348 0 0 0-4.94.589z" class="cls-3"/><path d="M151.056 94.563l-.084-.003.027.092.057-.089z"/><path d="M107.212 110.282a6.063 6.063 0 0 0-1.077.748 8.834 8.834 0 0 0-2.757 5.74 5.729 5.729 0 0 0 .913-.795c1.113-1.132 2.278-2.592 4.345-1.58-2.31 4.503-1.81 13.284 1.384 16.126-.021-5.343-.851-14.486 3.715-14.21 3.182.192 3.832 7.026 6.556 8.58 1.577-7.609-2.688-13.227-7.348-14.852a7.128 7.128 0 0 0-5.73.243zm86.521 118.428c-3.076.458-4.874 2.033-4.874 4.64l.001.12a4.758 4.758 0 0 0 4.873 4.638q.051 0 .102-.003a4.705 4.705 0 0 0 4.496-4.903c.086-1.735-1.532-4.95-4.598-4.492zm.107 7.62c-2.98.341-3.513-.925-3.683-3.14-.149-2.202 1.394-3.448 3.449-3.5 2.544.223 3.501.904 3.427 3.192s-.436 3.193-3.193 3.449zm43.65-145.968l-.032-.042a22.334 22.334 0 0 0 .025 2.974 23.951 23.951 0 0 0 1.629 6.895c.666 1.759 1.423 3.433 2.071 5.213-2.905 1.841-8.568.692-11.846 2.129-.234 9.653 14.933 4.843 17.243-.48-3.417-4.98-5.78-11.016-8.515-16.689z" class="cls-3"/><path d="M258.565 68.713a7.147 7.147 0 0 0-.35-.57 15.678 15.678 0 0 0-3.915-3.746q-.292-.208-.579-.402a29.22 29.22 0 0 0-1.284-.818c-.9-.542-1.653-.935-2.055-1.123a4.75 4.75 0 0 0-.226-.1 45.986 45.986 0 0 0-11.635-3.303h-.006a48.266 48.266 0 0 0-.802-.106 57.123 57.123 0 0 0-4.445-.363 96.812 96.812 0 0 0-4.772-.113c-.23 0-.454.004-.684.004-3.17.007-6.28.062-9.347.175-2.473.092-4.92.22-7.34.403q-2.316.175-4.606.42c-3.706.39-7.372.905-11.019 1.606-9.976 2.37-17.628 4.456-23.832 6.404a185.31 185.31 0 0 0-4.685 1.537 137.287 137.287 0 0 0-8.991 3.424q-.953.403-1.863.807a143.57 143.57 0 0 0-6.116 2.892 248.4 248.4 0 0 0-2.41 1.22 44.105 44.105 0 0 0-3.397 1.434 135.653 135.653 0 0 0-12.445 6.853l-.185.113-.258.158-.251.154-.638.393-.056.034a286.44 286.44 0 0 0-8.488 5.463c-.804.538-1.264.853-1.264.853a367.976 367.976 0 0 0 2.69.257q.424.04.906.083c1.041.095 2.267.204 3.64.323l1.642.139.147.012.398.033.624.051.493.04.134.011c5.94.48 13.374 1.001 19.677 1.196l.084.002c2.57.078 4.952.103 6.957.046 5.258-.15 13.26.088 21.762.289 1.603.038 3.224.074 4.848.107a13.8 13.8 0 0 1-.132-1.094 8.171 8.171 0 0 1 .344-3.378v-.022a45.209 45.209 0 0 1 2.077 4.537 230.05 230.05 0 0 0 23.33-.439c13.911-1.33 19.478-2.916 29.696-5.322a72.017 72.017 0 0 0 7.995-2.275 34.538 34.538 0 0 0 1.59-.625c.206-.086.415-.171.613-.26.209-.093.408-.19.61-.286.606-.289 1.185-.59 1.735-.907a28.349 28.349 0 0 0 6.084-4.875c2.842-5.588 2.842-7.355 0-11.346zM169.934 91.15c-4.62 0-7.791-.351-13.528-.692l-2.734-.166-1.786-.108-6.086-.368-9.617-.582a75.917 75.917 0 0 1 6.15-3.976 75.934 75.934 0 0 1 3.727-2.048 57.526 57.526 0 0 1 10.069-4.302c.103-.033.205-.073.309-.105l1.385.995 2.273 1.633 5.827 4.186 8.205 5.895s.49.16-4.194-.362zm8.057.383l-7.763-6.814-4.96-4.353-4.168-3.66 5.96-2.012 4.47 4.4 4.486 4.417 8.149 8.022z" class="cls-8"/><path d="M190.647 108.627c-3.566 3.46-9.963.585-14.731.362-4.524 7.184 8.877 8.536 14.635 6.833 1.575-.468 4.31-2.831 4.683-3.896 1.597-4.491-1.628-6.46-3.289-8.078-2.517-2.452-3.706-5.56-5.033-8.8a45.209 45.209 0 0 0-2.077-4.537v.021a8.171 8.171 0 0 0-.344 3.379c.029.359.071.723.132 1.094a32.919 32.919 0 0 0 3.67 9.589 72.973 72.973 0 0 0 2.354 4.033zm31.42 14.018a16.354 16.354 0 0 1-1.32-1.214c-4.204-4.598-9.696-11.144-11.878-16.274a3.124 3.124 0 0 1-.117-.511c-.192-.915-.458-2.129-1.341-2.512a1.512 1.512 0 0 0-1.48.309l-.213.16v.255c-.202 7.45 5.014 13.741 9.196 18.765l.756.894c.351.436.713.83 1.065 1.213 1.713 1.852 2.852 3.098 1.256 5.908-.926.362-1.98.872-3.087 1.405-3.449 1.67-7.749 3.746-11.474 3.108-1.405-.245-1.724-1.256-2.129-2.917a7.45 7.45 0 0 0-.692-2.128l-.404-.692-.336.447-.007.01-.136.181a6.78 6.78 0 0 0 .873 8.728l.127.107h.17a25.66 25.66 0 0 0 2.672.138c8.09 0 13.922-3.757 18.712-6.823l.287-.191-.053-.34a5.321 5.321 0 0 1 .511-2.055 7.11 7.11 0 0 0 .703-4.066c-.15-.607-.82-1.181-1.66-1.905zm-80.861 68.663l-.149.074c-.404.437-.042.181.15-.074zm-16.753-8.207a22.438 22.438 0 0 1-5.78 1.437c-.297.028-.63.063-.976.09a5.18 5.18 0 0 1-2.92-.377 1.597 1.597 0 0 0-1.606 2.757 7.62 7.62 0 0 0 3.698.945 23.616 23.616 0 0 0 8.436-1.765 1.607 1.607 0 0 0 1.053-1.342c.136-1.06-.65-2.218-1.905-1.745zm-1.044-10.114c-.877.201-1.695.446-2.34.652-2.683.788-8.228 2.512-8.569 5.748-.128 1.15.192 2.128 1.352 2.458.02.002.042 0 .063.002a12.76 12.76 0 0 0 1.878.003c.369-.023.737-.045 1.103-.1a18.74 18.74 0 0 0 4.151-.405 32.471 32.471 0 0 0 7.324-2.526c.02-.01.042-.018.063-.028a2.84 2.84 0 0 0 1.468-1.184c.015-.026.027-.054.041-.08a2.834 2.834 0 0 0 .343-1.663c-.15-2.327-1.652-3.128-3.48-3.24-.04-.003-.076-.008-.116-.01a8.37 8.37 0 0 0-.663 0 9.586 9.586 0 0 0-.65.044 15.662 15.662 0 0 0-1.968.33z" class="cls-3"/><path d="M226.186 33.878h-.204a5.25 5.25 0 0 0-.712 0 7.34 7.34 0 0 1-1.258-.106.608.608 0 0 1-.273-.239l-.029-.045-.246-.053a9.473 9.473 0 0 0-1.977-6.278l.213-.221-.01-.06a.465.465 0 0 1 .058-.307 6.669 6.669 0 0 1 1.046-.816 6.338 6.338 0 0 0 .582-.418l.145-.134a.849.849 0 0 0-1.095-1.298.548.548 0 0 0-.05.046l-.156.146a5.122 5.122 0 0 0-.442.55 7.257 7.257 0 0 1-.865.914.655.655 0 0 1-.367.07l-.054-.005-.212.187a9.572 9.572 0 0 0-6.092-2.382v-.268l-.06-.037a.457.457 0 0 1-.207-.256 6.467 6.467 0 0 1 .001-1.297v-.682a1.556 1.556 0 0 0 0-.214.885.885 0 0 0-.902-.866h-.016l-.223.027.062.078a.887.887 0 0 0-.565.923v.198a4.66 4.66 0 0 0 .152.692 7.206 7.206 0 0 1 .177 1.26.699.699 0 0 1-.168.32l-.033.036v.25a9.347 9.347 0 0 0-5.686 3.299l-.234-.136-.056.02a.499.499 0 0 1-.327.011 7.335 7.335 0 0 1-1.038-.777 4.504 4.504 0 0 0-.532-.486l-.17-.117a.972.972 0 0 0-.584-.171.821.821 0 0 0-.658.358.903.903 0 0 0 .292 1.233l.167.11a5.651 5.651 0 0 0 .637.314 7.048 7.048 0 0 1 1.094.648.787.787 0 0 1 .146.336l.01.047.196.155a9.406 9.406 0 0 0-1.015 6.122c.021.126.036.253.063.378l-.243.096-.021.043a.823.823 0 0 1-.226.274 6.65 6.65 0 0 1-1.229.306 5.005 5.005 0 0 0-.68.106h-.192l-.033.005a.898.898 0 0 0-.626 1.091c.01.027.031.045.044.07a.886.886 0 0 0 .985.475.83.83 0 0 0 .09-.011l.2-.057a3.1 3.1 0 0 0 .378-.174c.082-.043.165-.087.264-.13a6.272 6.272 0 0 1 1.172-.454.62.62 0 0 1 .36.09l.043.024.253-.061a9.646 9.646 0 0 0 4.489 4.782l-.09.278.026.048a.657.657 0 0 1 .08.32 7.903 7.903 0 0 1-.544 1.17 5.654 5.654 0 0 0-.348.62l-.013.054a.63.63 0 0 1-.075.154.853.853 0 0 0-.05.237.888.888 0 0 0 .517.93.859.859 0 0 0 .288.05.87.87 0 0 0 .635-.287.844.844 0 0 0 .186-.293.293.293 0 0 0 .015-.065.316.316 0 0 1 .028-.059.401.401 0 0 0 .043-.099 6.169 6.169 0 0 0 .162-.693 5.084 5.084 0 0 1 .437-1.29.492.492 0 0 1 .226-.124l.059-.014.119-.265a9.553 9.553 0 0 0 5.417-.031 9.349 9.349 0 0 0 1.122-.43l.154.228.06.004a.447.447 0 0 1 .288.134 6.522 6.522 0 0 1 .576 1.154c.036.083.065.164.095.243a3.424 3.424 0 0 0 .18.425s.07.108.099.164a.849.849 0 1 0 1.545-.703.785.785 0 0 0-.08-.136l-.11-.187a5.932 5.932 0 0 0-.432-.564 6.604 6.604 0 0 1-.312-.407 6.661 6.661 0 0 1-.403-.623.48.48 0 0 1 0-.345l.02-.05-.023-.05-.09-.183a9.508 9.508 0 0 0 3.684-5.47h.261l.038-.037a.499.499 0 0 1 .29-.145 6.773 6.773 0 0 1 1.27.273c.092.026.177.054.26.083a3.1 3.1 0 0 0 .443.124l.156-.003a.868.868 0 0 0 1.028-.676l.005-.031a.89.89 0 0 0-.795-.967zm-7.497-6.632l-2.8 2.33a.528.528 0 0 1-.713-.044.474.474 0 0 1-.127-.293l-.5-3.606a7.495 7.495 0 0 1 4.14 1.613zm-5.215 4.716l1.039-.086.705.753-.152 1.03-.897.525-.953-.381-.313-.953zm-6.03-2.206l2.905 2.219a.513.513 0 0 1 .12.702.544.544 0 0 1-.25.198l-3.403 1.278a7.377 7.377 0 0 1 .629-4.397zm4.137 6.189l-.55 1.69-.574 1.763a7.472 7.472 0 0 1-3.039-3.256l.34-.085 3.154-.79h.149a.508.508 0 0 1 .52.361.501.501 0 0 1 0 .317zm.49-5.972a.459.459 0 0 1-.306-.079l-3.139-1.88a7.32 7.32 0 0 1 3.272-2.077 4.611 4.611 0 0 1 .574-.143l.071 3.648a.513.513 0 0 1-.471.53zm4.222 10.031c-.076.024-.154.035-.23.056a7.32 7.32 0 0 1-3.634.084l.682-1.506.82-1.814a.493.493 0 0 1 .4-.28l.019-.004a.465.465 0 0 1 .225-.002.472.472 0 0 1 .246.196l2.04 3.06zm2.347-1.21l-1.656-3.274a.501.501 0 0 1 .196-.674.566.566 0 0 1 .192-.07l.105-.017v-.003l3.674.327a7.365 7.365 0 0 1-2.511 3.71zm-.817-6.51a.513.513 0 0 1-.41-.585.481.481 0 0 1 .135-.28l2.546-2.66a7.613 7.613 0 0 1 .97 2.046 7.451 7.451 0 0 1 .338 2.215z" class="cls-8"/><path fill="#fff100" d="M228.943 148.786l-.001-.001.001.001zm4.545 12.049l-.008.017zm-24.47.276a5.564 5.564 0 0 1-.484.69 5.543 5.543 0 0 0 .516-.722 2.11 2.11 0 0 1 .213-.21c-.02.017-.042.029-.06.047a2.123 2.123 0 0 0-.185.195zm-40.712 3.826a4.235 4.235 0 0 1-2.43.621q-.207-.01-.413-.04a7.001 7.001 0 0 1-3.837-2.506 7.023 7.023 0 0 0 3.87 2.538 4.257 4.257 0 0 0 4.874-4.066 1.419 1.419 0 0 1 .316-1.017 1.394 1.394 0 0 0-.348 1.049 4.252 4.252 0 0 1-2.032 3.421zm13.242-1.798l-.029.03.036-.032a4.868 4.868 0 0 0 1.354-1.972 1.937 1.937 0 0 1 .351-.599 1.902 1.902 0 0 0-.383.63 4.852 4.852 0 0 1-1.33 1.943zm13.872-.339a3.335 3.335 0 0 1-.546.731 3.4 3.4 0 0 0 .555-.721 2.518 2.518 0 0 0 .337-1.05 1.82 1.82 0 0 1 .529-1.193 1.697 1.697 0 0 0-.56 1.226 2.504 2.504 0 0 1-.315 1.006zm25.832-.804a4.569 4.569 0 0 0 .858-1.215 1.93 1.93 0 0 1 .165-.281 1.804 1.804 0 0 0-.197.313 4.586 4.586 0 0 1-.826 1.183z"/></svg>