<svg id="svg2" xmlns="http://www.w3.org/2000/svg" viewBox="0 0 566.90078 518.64002"><defs><style>.cls-1{fill:#fff;}</style></defs><title>jenkinsx-stacked-white</title><path class="cls-1" d="M324.32525,345.74716c-.001.0269-.0011.05662-.00206.08358a16.99407,16.99407,0,0,0,3.762-.72172A17.36056,17.36056,0,0,1,324.32525,345.74716Z"/><path class="cls-1" d="M332.78222,344.45162l-.85166-.096a12.99059,12.99059,0,0,0-1.38381.18992,4.4694,4.4694,0,0,1,1.75574.0141l.048-.00007c1.01964,8.90086,4.54638,17.90964,4.10256,27.66223-1.39983.47085-2.58566.91914-3.77087,1.30256,1.35079-.41575,2.665-.92354,4.25067-1.45858h-.036C337.34057,362.32528,333.81383,353.30446,332.78222,344.45162Z"/><path class="cls-1" d="M319.28682,214.678c.68506-.50834,1.37321-1.01386,2.09954-1.48355-.07807.00695-.15931.02043-.23773.02821l-.23016.16371A12.34777,12.34777,0,0,0,319.28682,214.678Z"/><path class="cls-1" d="M206.5992,206.15288c.39587-5.15811,3.3468-7.78519,7.54526-9.8125a32.0655,32.0655,0,0,1,5.8019-2.23594l-.01273-.027a32.06771,32.06771,0,0,0-5.81318,2.239c-4.19846,2.02725-7.1974,4.65432-7.54526,9.8125a18.24506,18.24506,0,0,0-.02669,2.78274l.02085-.008A18.23419,18.23419,0,0,1,206.5992,206.15288Z"/><path class="cls-1" d="M440.08452,217.00043,413.07681,98.54963l-.05613-.21681A25.23153,25.23153,0,0,0,400.93605,83.1654L369.66351,68.09325c.22074-1.26851.46115-2.65795.72536-4.1977,4.75028-8.79286,6.88559-14.49082,5.39805-20.39274s-8.1931-17.14189-17.17787-22.79191c-7.34137-4.60637-23.79952-13.17127-33.732-13.59115-16.06227,0-45.94359,1.95529-59.89463,10.41226-10.5563,6.40572-27.74614,20.72863-41.33736,31.99262-2.17445,2.12059-7.523,6.03922-13.5476,10.426L162.1948,83.01352l-.20416.10565a25.22522,25.22522,0,0,0-12.08517,15.22465L122.83833,216.886l-.04128.20581a25.15438,25.15438,0,0,0,4.26209,18.91277l60.40518,75.63808c.23257,3.21575.44354,6.4419.66146,9.69329.3839,6.08179-.26387,12.53553,1.31955,15.90633s7.67726,4.58236,11.99576,6.60967c12.60748,5.8299,25.9827,14.74273,42.52484,12.96738,3.94662,13.25526,7.67726,27.37421,12.40359,38.98606,16.962,6.0939,43.7364,5.14615,61.37013,3.02294,5.3501-.6477,11.01209-3.28681,12.27166-7.94112a47.1614,47.1614,0,0,1-.6118-9.08074c5.506-1.13967,13.01539-2.08729,14.22695-8.18113,1.70339-8.565-5.41008-20.82459-3.03491-30.20523,2.56324-.83839,5.26136-1.52675,5.96417-4.37483a25.54791,25.54791,0,0,0,10.81522-5.47626,56.36373,56.36373,0,0,1,7.88383-.20135,14.39351,14.39351,0,0,0,3.23886,4.25845c9.5366,1.91938,18.78531,2.07532,26.7025-.50381,8.97281-2.927,13.25526-21.26847,11.204-29.98931h-.00007a137.47068,137.47068,0,0,0-7.55729-22.288c-.25452-.54391-.52857-1.05342-.81583-1.53927L435.6821,236.0948l.142-.18931A25.2162,25.2162,0,0,0,440.08452,217.00043ZM210.36719,68.57374c4.63085-3.29225,8.78481-6.24263,11.62251-8.64875,1.333-1.1297,2.57733-2.1664,3.75546-3.134,6.09714-5.00781,10.33357-8.07513,14.8695-11.533,1.82831-1.3937,3.70559-2.85118,5.77438-4.52616.43742-.355.85779-.69537,1.27092-1.02948,9.74929-7.88431,13.11528-10.21937,27.91468-19.7711,22.588-5.59,30.03732-6.65762,43.30455-7.59327h.048c17.11789,2.92692,25.97074,6.39368,36.23909,12.36755,8.85284,5.13418,12.34361,10.00449,15.34255,20.29678.46783,5.24217.204,8.90085-4.19853,16.89-.04437.44684-.12361.88812-.182,1.3329a71.736,71.736,0,0,0-16.21691-4.65163c-.70824-.12582-1.43271-.24819-2.1825-.364-4.53689-.7006-7.89827-1.27849-11.01656-1.64829,1.09875-1.62607,1.54965-2.35247,2.16737-3.30463.41231-.63553.90077-1.37417,1.71185-2.55643,2.1232-3.0949,1.67938-3.40678,3.80265-6.51365a4.69026,4.69026,0,0,0,.88764-4.16248V40.024c-1.1156-3.59869-.81575-3.67065-1.94332-7.19739s-1.69142-3.40678-2.807-6.98154a4.79828,4.79828,0,0,0-2.687-3.32286c-3.52674-1.35546-3.44282-1.54738-6.96957-2.90291l-6.99344-2.75908a7.159,7.159,0,0,0-4.63038.27591c-3.27484,1.88334-3.05892,2.24324-6.32173,4.13854s-3.43078,1.60743-6.69359,3.49077a5.35016,5.35016,0,0,0-2.3392,3.83863c-.54679,3.67292-.39965,3.735-.93379,7.34206l-.01389.09527c-.30246,2.03158-.47161,2.94308-.65156,3.96176-.14838.84-.304,1.75251-.548,3.42762a5.26211,5.26211,0,0,0,1.09166,3.65869c.10793.132-.17995.59982-.06.71979,2.56708,2.747,2.675,2.639,5.25414,5.38608,2.36444,2.51838,2.91873,2.38177,4.98105,4.44788a274.61959,274.61959,0,0,0-46.36642,10.87066c-15.51053,4.90628-39.478,16.07431-48.6907,21.80825A154.56647,154.56647,0,0,0,197.90767,105.643q-1.13015.98807-2.30171,2.0302-1.35642,1.20734-2.77407,2.49129-.8856.80233-1.79962,1.63935-1.217,1.11352-2.48379,2.28526c-.37785.34951-.76561.71037-1.15048,1.06807-.05936-.0961-.121-.19632-.18414-.29936-.03529-.05772-.07519-.12389-.11164-.18374-.05909-.09685-.11832-.19418-.1805-.297-.09362-.15484-.18965-.31409-.2907-.483-.57073-.95347-1.25434-2.12135-2.092-3.58714-10.58024-8.39706-1.67945-11.55194.80372-21.59233C192.05321,81.60275,201.99985,74.52243,210.36719,68.57374ZM335.97108,51.85481l-2.0972,3.06793a2.921,2.921,0,0,1-1.89531,1.0916l-1.44138.11226c-1.18514-.01967-2.42126-.00351-3.75588.05427-2.7848.12045-6.00406.42078-10.07176.93758a2.562,2.562,0,0,1-1.417-.74422l-9.851-10.47691L305.288,45.734a1.19774,1.19774,0,0,1-.15594-.19191,2.39921,2.39921,0,0,1-.49183-1.88334l.35157-2.35708.60926-4.084,1.18645-7.95385a2.56718,2.56718,0,0,1,1.19952-1.81132l12.69147-7.36538a2.78356,2.78356,0,0,1,.94769-.32392,2.60345,2.60345,0,0,1,1.28351.19192l13.67513,5.26618a2.50713,2.50713,0,0,1,1.4995,1.59539l4.3544,13.89106a2.50687,2.50687,0,0,1-.32385,2.15925ZM190.478,116.81174c-.02538.08117-.04574.16131-.07945.2442-.11583.08165-.2325.16165-.34724.24488C190.18542,117.145,190.32871,116.981,190.478,116.81174ZM133.44154,231.36551a17.31015,17.31015,0,0,1-2.88743-12.83084l26.96478-118.12116a17.38858,17.38858,0,0,1,8.20775-10.34458l16.41413-7.9037c-1.71488,2.34277-3.44242,5.797-6.47857,12.54736-3.75471,9.2007-4.00661,9.59657,3.5987,16.15823,2.53441,3.53975,6.04864,8.94165,7.91017,11.83431-4.19433,12.21745-.12746,27.5406,5.64507,36.00466a26.46252,26.46252,0,0,0,17.68167,11.35995,37.48651,37.48651,0,0,0,3.67072,13.73511c.598,1.31461,2.43426,4.16022,4.182,7.28125a49.33841,49.33841,0,0,0-5.93342,2.49528c-4.97824,2.39917-8.88882,5.00224-9.77652,10.79616a15.97066,15.97066,0,0,0,.2607,5.95612,37.00069,37.00069,0,0,0-3.95536,1.73311c-7.62932,1.60743-5.99788.40784-17.63373,2.0033-5.99788.39588-15.78637,8.553-14.39486,17.99363.93565,6.36974,5.82989,15.99026,7.90515,22.372,2.24324,6.88551,5.4581,13.19527,7.30539,20.39273a165.20017,165.20017,0,0,1,4.04878,22.56237Zm92.79614-37.792a8.9063,8.9063,0,0,1,1.89951.544c4.09665,1.75532,6.02683,6.4483,7.39564,11.65161a1.101,1.101,0,0,0,.31952.56185c.40406.35488,1.05953.214,1.7558.09789a11.87139,11.87139,0,0,0,2.09927-.56378l-.01039-.02828c.79759-.27549,1.60379-.6175,2.40372-.97561,1.33138-.596,2.63794-1.23942,3.8085-1.74315q5.55395-2.37515,11.24-4.42642c.8269-.29964,2.75619-.91729,5.2494-1.695l.05654.05991c1.33785-.41609,2.83784-.87924,4.42628-1.36736l-.06369-.05874c2.44471-.75062,5.08341-1.55433,7.62477-2.32572l.03288.062c5.55468-1.69238,10.64366-3.2324,12.15926-3.696,1.75141-.52781,3.47873-1.19952,5.25414-1.64341l.00468-.00124a12.71036,12.71036,0,0,0,3.03333,1.86539c.01452.006.02993.00914.04451.01513-4.51344,1.33579-11.61694,3.659-18.97007,6.24957-2.01761.71078-4.04885,1.44014-6.053,2.17548-1.55825.57169-3.096,1.14552-4.59351,1.71591-6.647,2.53173-12.47424,4.98119-15.46293,6.72909-1.314.71346-2.58848,1.49276-3.84386,2.30122-.5719.36836-1.14848.7295-1.70744,1.117-.5697.395-1.12069.81616-1.6765,1.23068l-.02091.01534c-.0908.06782-.18346.133-.27391.20134-.13593.1027-.2766.1988-.4117.3026-.22645.17417-.44939.3526-.67336.53-.22934.1816-.451.37269-.67777.55766-.48516.39587-.97788.78232-1.45073,1.19353a7.5939,7.5939,0,0,0-1.39639,1.81758,9.297,9.297,0,0,0-.51254,1.069c-.014.03467-.02958.06852-.04326.10339a26.69365,26.69365,0,0,0-.98518,3.42164c-.04808.19735-.095.39257-.14556.59391a22.67082,22.67082,0,0,1-2.831,7.35341c-1.65958,2.48929-3.1705,3.35264-5.12311,3.14119a10.24672,10.24672,0,0,1-3.022-.874,38.90934,38.90934,0,0,1-10.19847-6.872l.06824-.025c-.25245-.2358-.504-.47188-.75027-.71436-.55284-.54466-1.09448-1.101-1.61458-1.67862l-.07622.02318a38.92489,38.92489,0,0,1-3.15508-3.98852c-.23994-.34786-.45586-.69572-.67179-1.05562l-2.91494.81569a40.30416,40.30416,0,0,0,2.97493,4.11453c.27742.3339.58125.69166.90751,1.0669-10.67874,3.87591-15.80418,8.9931-19.213,5.72273-1.95736-.97871-4.644-2.08874-7.14313-3.06291-1.74851-.68162-3.40176-1.296-4.64723-1.74907,1.75155-.99364,4.14488-1.37713,7.42392-1.21a33.24,33.24,0,0,1,3.993-1.6948c3.92784-1.43112,9.3111-2.96234,14.98953-4.57541.25039.46039.51088.91632.78645,1.36406l2.915-.81569c-.25273-.45881-.4787-.92932-.68994-1.40547l.01258-.00357a18.47074,18.47074,0,0,1-1.49572-5.91939c-.00763-.09534-.02187-.18972-.028-.2852l-.02085.008a18.24506,18.24506,0,0,1,.02669-2.78274c.34786-5.15818,3.3468-7.78525,7.54526-9.8125a32.06771,32.06771,0,0,1,5.81318-2.239l.01273.027c.3764-.10532.75136-.21558,1.13169-.30714.43784-.09816.84919-.15924,1.2604-.22026.24426-.03618.48612-.06934.72124-.09286.03054-.0031.059-.00316.08949-.006.218-.02043.43034-.033.64062-.04271a10.99178,10.99178,0,0,1,2.4518.146Zm124.03443,18.54131.35089,1.76042,1.71192,8.5889.06039.30287-4.40592-2.3189c-.12271-.864-.26469-1.71529-.43432-2.54391-1.70092-8.3079-5.77913-14.47348-12.66148-11.13948,1.94332-2.843,5.614-4.22253,7.97717-7.72527a20.66562,20.66562,0,0,0,2.775,1.90026l1.8,4.348Zm-1.0217-9.60531c2.81115.91914,5.60551,1.36812,9.59864,3.7274,3.34535.95429,5.79261,1.69073,7.62223,2.36891a12.14116,12.14116,0,0,1,3.80932,1.99615l-.90621-.14878-12.67262-2.081-5.89249-1.61878Zm-30.30622,32.28992c-.00674-.20361-.01169-.40674-.02194-.60692-.01032-.20292-.02153-.40316-.03281-.60189a9.796,9.796,0,0,1,.21771-3.63818,4.817,4.817,0,0,1,.59543-.35123c1.7329-.907,4.20547-1.00444,6.56826-1.2269.22377-.02105.44863-.04093.66951-.06528a13.62813,13.62813,0,0,0-8.6969-.98366c-.07161-1.89889-.91563-3.08472-1.43216-4.5631l-.00729-.01926c.37654-.16551.74717-.34332,1.11422-.52864,3.83031-1.93341,7.19052-4.85146,10.93092-6.94983.45538-.25541.9155-.5007,1.38374-.72846.21138-.10277.42751-.19522.64192-.29138.21221-.09521.42408-.19137.63959-.27949a17.12227,17.12227,0,0,1,3.631-1.05871c3.21486.204,1.93135-.18,4.00661.70776v-.04795c1.28358.74367,2.25073,2.98718,2.95945,5.6904a58.54208,58.54208,0,0,1,1.5749,10.98367c.192,4.04252-.35983,8.133-2.01528,10.28033-.08577-.00131-.17135-.00626-.25713-.00777a94.9208,94.9208,0,0,1-20.59607-2.63918c-.66717-.161-1.33469-.32042-1.99863-.496A13.01862,13.01862,0,0,0,318.94419,234.79939Zm-7.56231-13.90372c-7.5813.38384-11.71978-.51584-17.28581-4.87024.084-.23993.64778-.144.65975-.57582l.012-.048c8.03193,3.56444,18.22606-1.37349,26.38084-2.179.07842-.00778.15966-.02126.23773-.02821-.72633.46969-1.41448.97521-2.09954,1.48355C316.57755,216.6882,314.11069,218.92332,311.38188,220.89567Zm-2.6764,15.64907a6.79442,6.79442,0,0,1-2.81761-.60643c-.182-1.03037-.37028-1.87956-.54624-2.63093a16.90944,16.90944,0,0,1-.71333-6.47382,9.56982,9.56982,0,0,1,4.35151-1.63322c.07759-.00819.15292-.02807.23085-.03426C316.81439,226.25987,314.83743,236.44273,308.70548,236.54474ZM258.805,228.98029c.02394.57018.06163,1.14532.13152,1.72788a1.08935,1.08935,0,0,0-.77654.4335c-1.01834,1.061-2.41232,4.09177-4.77745,9.0191-3.91581-7.26219-4.75969-8.21112-9.44145-13.027-.15161-.15594-.29517-.30376-.455-.46817-.88206-1.38909-1.7448-2.66-2.55725-3.83814q-.57739-.83733-1.115-1.612c.02422-.15092.04919-.30123.07278-.45318.12753-.81947.25465-1.64561.43371-2.42614a10.1809,10.1809,0,0,1,.43088-1.44709v-.17995a13.92671,13.92671,0,0,1,2.4591-1.59539c.48426-.30968,1.03-.63409,1.62063-.96894,5.22044,1.14325,11.41374,1.88684,15.20931,2.55236a22.06708,22.06708,0,0,1-.6477,5.00823,39.62211,39.62211,0,0,0-.58828,5.13053c-.02256.55292-.03123,1.11436-.018,1.6864C258.78961,228.67391,258.79855,228.82751,258.805,228.98029Zm-8.625-17.57072c5.21122-2.46659,11.95765-5.25621,18.85479-7.95647a33.29,33.29,0,0,0,9.131,5.85466c-5.53-1.29548-14.011-1.70339-16.31417,3.25084C257.822,212.29225,253.88071,211.98,250.17993,211.40957Zm24.02521-9.955q1.68425-.64323,3.34646-1.26913l.4822,1.25324a1.19942,1.19942,0,0,0,.68375.68375l5.02625,1.82336a1.19926,1.19926,0,0,0,.7557,0,68.61444,68.61444,0,0,0,13.903-6.29772V197.648l8.70894-4.85827h.05991l4.55739-2.9598c.05242-.00275.10449.00041.15691-.00316a11.09357,11.09357,0,0,0,5.88967-1.87268,18.21667,18.21667,0,0,1,2.21951.07333,1.30528,1.30528,0,0,1,.31188.06l3.20289,1.10356a1.40516,1.40516,0,0,1,.37187.204l7.5813,6.34573a1.19935,1.19935,0,0,0,.63574.26394l1.61947.15594a1.19949,1.19949,0,0,0,1.28351-1.05561l.43817-4.918a7.89906,7.89906,0,0,0,4.29394.89837,27.94333,27.94333,0,0,1-6.44747,6.76658c-11.70788,8.2171-29.49755,15.67844-44.74407,10.56826A60.004,60.004,0,0,1,274.20514,201.45454Zm-6.52375,14.2469-.048.00007a9.93266,9.93266,0,0,1,1.56719-.477c.088-.01995.1763-.03777.26483-.05531.16551-.03288.328-.079.49514-.10345l1.15914.10448.30439.02745a74.83959,74.83959,0,0,1,19.78093,7.19747c3.19086,1.73936,5.02619,3.89861,9.86045,4.27047l-.072,1.93129a7.86329,7.86329,0,0,1-1.23344.64027c-2.61654,1.11574-6.10291,1.28427-8.591,2.53862l.04.0024a25.6202,25.6202,0,0,1,10.52824,2.67261c-.0075.20224-.01534.40269-.02284.60478-.05269,1.41641-.10614,2.82883-.16908,4.19351-2.751,1.90507-5.40568,4.34257-8.241,6.66677-.93166.76368-1.88073,1.514-2.863,2.22927a35.72607,35.72607,0,0,1-3.89077,2.49995c-.33121.17878-.76609.39333-1.27491.62955-.12485.05792-.26511.1201-.39883.18056-.81727.36967-1.78587.77937-2.83866,1.19457-3.819,1.50611-8.64077,3.03615-10.55424,2.58965a1.83653,1.83653,0,0,1-.6918-.33974,4.33331,4.33331,0,0,1-1.24437-2.37916c-.14425-.51329-.28471-1.05287-.46294-1.58755-.07608-.22425-.15966-.45868-.24592-.69717-1.47852-4.08681-4.33706-10.197-4.55237-15.98894C264.07072,229.88038,262.82312,218.50846,267.68139,215.70144Zm77.44451-32.78429h.00007l-.0095.0196c-.09692.22535-.2045.44485-.31979.65933a8.36854,8.36854,0,0,1-4.09713,3.74749,5.11168,5.11168,0,0,1-3.7413-.40179,2.735,2.735,0,0,1-1.62084-2.885c.23642-1.66617-1.83017-2.95147-2.84878-1.51683a2.17516,2.17516,0,0,0-.18614.31725,5.14951,5.14951,0,0,1-.9666,1.36908c-2.66,2.70851-8.05793,2.35825-10.15341-1.14112a2.39226,2.39226,0,0,0-.22054-.20767,2.55636,2.55636,0,0,0-2.81967-.16385l-.00117.00075a2.91332,2.91332,0,0,0-.55732.4787,6.24653,6.24653,0,0,1-.58126.81355c-3.001,3.58638-9.59733,3.36592-11.89429-.81355-.54858-1.03622-1.3512-1.08527-1.89943-.57782a2.05218,2.05218,0,0,0-.59571,1.34556,2.83719,2.83719,0,0,1-.38,1.18259,3.83169,3.83169,0,0,1-.626.813,5.94585,5.94585,0,0,1-2.3826,1.39274c-.02256.00709-.045.016-.06761.02284a4.85806,4.85806,0,0,1-2.24173.18751,6.28075,6.28075,0,0,1-1.35016-.41836l-.04877-.02112a11.91841,11.91841,0,0,1-3.91382-2.97335c-.42318-.46129-.81974-.93084-1.177-1.38545a1.13216,1.13216,0,0,0-1.90707-.14645,2.18261,2.18261,0,0,0-.39608.67425,5.48575,5.48575,0,0,1-1.52557,2.22281l-.04065.03515a6.15258,6.15258,0,0,1-4.80035,1.36021,5.62764,5.62764,0,0,1-4.65755-3.61817,1.69334,1.69334,0,0,0-2.75075-.78624,1.599,1.599,0,0,0-.35612,1.14614,4.84424,4.84424,0,0,1-5.494,4.58236,7.91465,7.91465,0,0,1-4.36059-2.86012c-.17865-.21448-.34566-.43687-.50711-.66188-.0335-.04608-.07161-.0899-.10435-.1364a11.74017,11.74017,0,0,1-1.02583-1.78766,8.87642,8.87642,0,0,1,.52781-6.48971,21.46,21.46,0,0,1,6.99351-9.02075,28.286,28.286,0,0,1,11.156-4.49844,93.56465,93.56465,0,0,1,11.99575-1.33145c3.03492-.168,6.12981.28787,9.1767.21585s6.05786.168,9.12875.228,6.11784-.096,9.14071.14391a39.86531,39.86531,0,0,1,10.25632,2.2552,25.65922,25.65922,0,0,1,9.12724,5.049l.00151.00117C343.49446,172.56487,347.29711,178.01093,345.1259,182.91715ZM199.28039,332.51234c-1.15563-.58023-2.31594-1.15165-3.48932-1.69988-.08654-3.06725-.24234-6.16916-.43151-9.28353q-.21037-3.46359-.50538-6.95264-.30326-3.58773-.69441-7.19045c-2.90167-26.61775-9.44854-53.62037-19.67315-75.55017.02435-.21833.05668-.41995.08481-.63023a19.40163,19.40163,0,0,1,.62116-3.02928c1.00836.14384,2.00853.32895,3.0032.53772a46.85894,46.85894,0,0,1,12.69409,4.662c.533.28863,1.068.57327,1.59037.883,5.41-3.27484,15.72638-7.8332,15.72638-7.8332l3.759-1.37383c5.47846,5.69246,14.216,12.74912,20.78421,9.387,3.41511-1.73868,5.05789-5.80823,6.1541-9.43348a52.63054,52.63054,0,0,0,5.97359,7.922c1.94332,2.555,7.95317,12.07967,9.35664,12.75145,1.84737.87567,4.00661-11.0601,5.81793-10.1964.53985,3.97063,1.19959,4.99028,3.3708,11.87579,2.39918,7.60531,3.46684,16.96195,14.39493,12.85945,1.22511-.45992,2.46426-.99887,3.70085-1.58081q1.436-.67573,2.85689-1.43086c.27681-.14706.55106-.29853.82608-.449a2.13931,2.13931,0,0,0-.13841,1.74535c2.30653,7.21439,3.15709,14.65453,3.69253,22.14345.172,2.40682.31346,4.81838.45785,7.22945q.04168.69576.08385,1.39144c-18.10768,1.0107-38.57532,2.89645-53.96169,4.90587-.808.10552-1.62738.21084-2.406.31691a35.17194,35.17194,0,0,1-5.24217-13.927,17.69383,17.69383,0,0,0-1.32609-4.69132c-1.22807-2.63388-2.80049-3.20668-3.53218-1.51051-1.85933,4.33046-1.01964.41988,4.85827,19.19315,1.19959,4.00661-2.14721-4.63031-5.9379-5.99788-1.48746,4.67832,1.37954,4.52238,3.59877,7.5573s-7.41339-1.3435-7.37741,4.49844c.30425.0487.6345.08942.98593.12409,5.19079.51226,15.18833-.35756,20.03064,1.68722q.25352,2.96812.54452,5.90316c.80668,8.16421,1.81786,16.2024,2.93965,24.47171q.2661,1.9621.54074,3.945c.18015,1.30235.36347,2.61978.5481,3.93789.438,3.12832.88406,6.28967,1.34088,9.53329C225.89759,348.22882,213.06986,339.43568,199.28039,332.51234Zm119.798,57.33525a103.94608,103.94608,0,0,1-26.84544,2.674,120.95568,120.95568,0,0,1-31.92892-4.98126,366.15018,366.15018,0,0,1-12.1107-47.8594q-.362-1.96076-.70569-3.93816-.34319-1.96231-.66807-3.945c-1.643-9.922-3.00822-20.16766-4.18525-31.0106,17.03391-3.07089,34.28373-5.2181,51.58164-5.08617,5.543.22,11.11128.37442,16.6112,1.09614,1.99863.26228,3.9888.59474,5.96472,1.0391.11261.73142.21359,1.46216.30934,2.19248,1.40128,10.68727,1.10274,21.25691,1.94546,31.769q.15828,1.97376.38012,3.945c.02634.23587.04822.47195.07615.70775q.18366,1.604.32866,3.235c1.45039,16.16484.37173,34.1022,3.474,49.0065C321.93646,389.11644,320.5184,389.49361,319.0784,389.84759ZM298.903,286.45883a8.51751,8.51751,0,0,1-.21262-1.57793,4.143,4.143,0,0,1,.14892-1.38614,3.6824,3.6824,0,0,1,3.73765-2.57245,9.78977,9.78977,0,0,1,1.69631.27886,2.49634,2.49634,0,0,1,2.07174,2.0745,5.49213,5.49213,0,0,1,.09459,1.24534c-.084,2.56715-.49183,3.59876-3.5987,3.87467C300.24233,288.70681,299.27875,287.94072,298.903,286.45883Zm38.02977,85.607c-1.5857.535-2.89988,1.04283-4.25067,1.45858a22.51089,22.51089,0,0,1-7.15729,1.01255c-.37056-8.24874-1.479-20.855-1.20165-28.70621.001-.027.0011-.05668.00206-.08358a17.36056,17.36056,0,0,0,3.75994-.63814c.63828-.16048,1.27566-.32509,1.91883-.46212l.0335-.00681c.16887-.0357.33947-.06342.50923-.09451a12.99059,12.99059,0,0,1,1.38381-.18992l.85166.096c1.03161,8.85284,4.55835,17.87366,4.11453,27.6142ZM323.66516,338.8686c-.07959-1.04372-.15463-2.08427-.23106-3.12585q-.145-1.97459-.28-3.945c-.52313-7.59808-.93042-15.15249-1.09214-22.7181-.07822-3.65869-.10367-7.32026-.05194-10.99153,3.71866-1.19958,6.99351-1.19958,10.72421-1.19958a71.88889,71.88889,0,0,1,1.73985,8.478c1.2584,8.38007,1.578,17.63263,2.38391,26.4312q.18242,1.99182.40633,3.945c.03012.26325.05675.52973.08825.79167C332.44591,337.55166,328.88711,338.13924,323.66516,338.8686Zm2.84341-49.38133.03591-.00013c-2.11027,1.24134-4.6451.78892-8.33322.15587-.5459-.09369-1.121-.18958-1.72031-.28636-.1933-.03123-.38061-.06253-.57975-.09335-.188-.02917-.38541-.05647-.57884-.085a54.7598,54.7598,0,0,0-8.76789-.62721,5.28093,5.28093,0,0,0,1.27869-3.67017,4.99573,4.99573,0,0,0-.49754-2.2129,5.33258,5.33258,0,0,0-1.80107-2.20017,3.94,3.94,0,0,0-2.88358-.63711v-.00007c-3.05424.45448-4.987,1.87983-5.40465,4.22184a5.64567,5.64567,0,0,0-.08936.99632q0,.06068.00138.12128a5.58765,5.58765,0,0,0,1.5544,3.64354q-2.28021.09019-4.6429.2041-.03611-.55419-.07106-1.10865-.09048-1.42308-.17933-2.84685c-.5904-9.40218-1.255-18.8045-4.13586-27.84355a2.30881,2.30881,0,0,0-2.38377-1.655,105.7661,105.7661,0,0,0,8.94667-5.90123c1.02659-.7535,1.94951-1.45686,2.74374-2.0842a32,32,0,0,0,3.037-2.60719c1.23557-1.40348,1.77541-2.11123,2.6991-3.13088a5.63325,5.63325,0,0,0,4.59949-.15016c.18139-.0747.36051-.15388.53833-.23553.04629-.02125.09321-.04141.13929-.063.13352-.06246.26553-.12664.39746-.19075,1.39116-.67584,2.70487-1.39625,4.11392-1.24388,3.5987.3839,9.10474,3.59869,16.998,4.24654s12.19964.99556,14.29891-2.06329c2.15573-4.06873,3.05788-11.53226,2.503-18.63906l6.92562,2.2649-.29985-4.49837-1.82968-7.30154-.72544-2.89487-.37984-1.03408,7.43334,1.93376,12.43138,1.69032c.06047.30569.11577.62418.1642.97273a9.41552,9.41552,0,0,1-.29318,2.53338c-1.004,4.90174-4.131,14.50334-4.57713,16.74375-2.39911,12.13966-7.9771,28.178-13.19527,40.89348-1.91932,4.6303-3.74267,10.41226-6.26182,11.408C340.7715,288.82746,332.38648,285.82852,326.50857,289.48727Zm19.66324,41.4942c-.17857.00158-.34318.01871-.53014.01093-.18174-2.24282-.44155-4.51082-.72943-6.78542-1.21341-9.58681-3.14779-19.343-4.06886-28.3501,3.19086-.16791,1.19959-.072,5.84194-.26387l1.93128.23993c3.71722,6.42807,5.233,16.075,5.68,24.83732.081,1.58631.125,3.13816.14246,4.64193.01369,1.18019.01348,2.33445-.00454,3.437h.036C351.54111,329.30772,349.57935,330.951,346.17181,330.98147Zm53.29473-19.59012c1.45259,6.646-.33,13.16232-4.04437,17.27562a12.90381,12.90381,0,0,1-6.51186,4.00482h.03591c-5.68593,1.37954-14.39486,1.73943-18.1255-.06,3.6375-1.9815,8.71726-2.39946,13.30685-3.35506a32.21485,32.21485,0,0,0,3.36716-.85544c-6.76541-2.9102-16.42039-.761-24.88527-.69022-.99081.00826-1.96925-.00516-2.92079-.06548q-.11205-1.15006-.221-2.31271c-.17657-1.87578-.3504-3.769-.52987-5.66158-.829-8.74127-1.78937-17.455-3.8195-24.23425a13.43479,13.43479,0,0,1,2.31635-1.928c6.09418-4.08916,16.68391-5.63661,23.04265-9.70788,1.37954-.74373.53985-.37186,2.60307-.92361a10.48223,10.48223,0,0,1,9.52462,5.27808,11.93172,11.93172,0,0,1,.64571,1.13851,53.59364,53.59364,0,0,1,3.29857,9.64348C397.72621,303.37826,398.7378,308.106,399.46654,311.39135Zm29.97074-80.1194-37.13649,46.56544c-10.10822-5.13886-26.25531,2.22046-35.83888,7.00754,5.87791-15.47449,10.94006-31.52479,16.13422-48.88262a127.37036,127.37036,0,0,0,5.84194-26.57056c-4.59433-5.99787-8.1931-5.99787-13.99906-7.26942-6.94941-2.88014-11.80376-4.086-14.556-5.39825a4.32753,4.32753,0,0,1-2.53833-2.28451,2.47418,2.47418,0,0,1-.09548-.29434c-.62377-3.071,7.19746-13.71111,8.85284-17.07a96.22827,96.22827,0,0,0,5.0982-14.6828c5.07853-21.44265,8.01308-43.42727,5.33077-65.01643-.61964.35776-1.27181.6964-1.95563,1.02184-.22721.10813-.45139.21764-.68719.32282-.22294.0994-.4582.19556-.68946.29262-.57163.24-1.163.47532-1.7924.70391.36052,4.32165.4822,8.92789.71759,13.55276,1.16678,22.52722-3.32416,45.68846-13.1465,63.54561a15.30432,15.30432,0,0,0-1.78827-5.05445h.00007a24.7467,24.7467,0,0,0-6.86158-6.84954,30.9497,30.9497,0,0,0-8.589-4.19853,43.85609,43.85609,0,0,0-9.7045-1.79935c-3.28682-.35989-6.53766-1.28358-9.89649-1.28358s-6.69367.94769-9.9445.94769c-3.47874.036-7.07743-.91164-10.67613-.73169a78.47936,78.47936,0,0,0-10.60425,1.41544,40.4024,40.4024,0,0,0-9.93246,3.76668c-4.55836,2.15925-7.54533,6.11784-9.84848,10.55623-1.70339,3.27485-2.47113,6.51372-1.00767,10.01646.072.06.048.108.072.19191s-.168.2519-.168.33589c1.58535,3.36482,4.52135,6.37188,8.29656,6.85064-1.66357.51942-3.25538,1.02205-4.73136,1.49407-5.57394-5.80568-10.28521-12.49116-15.405-19.59672.28623,8.01383,5.70794,14.72634,11.29075,20.9323-1.41895.46934-2.6.87154-3.44544,1.17579-3.44283,1.24754-6.5737,3.27485-9.9445,4.71437-1.73854.72757-3.83292,1.87515-5.85219,2.78287-.51859.23313-1.0325.45208-1.53369.64166.0637-.08819.29008-.33383.23636-.59357-1.60743-5.446-4.79829-10.7961-10.79617-12.28356a13.19525,13.19525,0,0,0-3.625-.36293,98.60687,98.60687,0,0,1-5.50378-15.8793,31.19142,31.19142,0,0,1-1.01964-6.8256c.70577-3.846,7.40789-5.59079,5.08067-10.82443-.0463-.10415-.07285-.20065-.12644-.30762-5.07412,0-6.21373,4.61841-10.86811,5.07419-5.05948.50346-9.48934-2.23539-12.89109-6.34264-4.70392-5.67938-7.43795-13.98027-7.11775-19.988.45586-8.81686,7.90516-17.24982,18.08952-16.13422,5.77968.63573,8.46261,5.82872,10.04177,11.44593.38735,1.37795.71079,2.78033.99433,4.14852,4.15051.21585,10.14839-.17995,12.11572-3.41882-.2052-5.63475-2.12389-10.47169-3.1209-15.41326a25.97975,25.97975,0,0,1-.5858-6.08311c.04547-.825.11316-1.64808.19467-2.46975-.18456-.01493-.37331-.03006-.55519-.04492-.23924-.01961-.46961-.0388-.704-.0582-.15016-.01245-.30074-.02483-.44877-.03721l-.16564-.01376q-.95732-.08-1.849-.15663c-1.54876-.1331-2.92988-.25637-4.103-.36347q-.54254-.04953-1.02212-.094c-.36781-.03411-.71333-.06631-1.02019-.09527-1.27753-.12044-2.0106-.19356-2.0106-.19356h-.00007s.5188-.35543,1.424-.96159c-4.94405,2.18924-3.04537.67247-10.63665,6.21573a49.63173,49.63173,0,0,0-9.49421,1.72286c-.26938.07607-.54191.13977-.81012.22046a30.27413,30.27413,0,0,0-4.1437,1.72905l-.02972.01417c-.09121.00089-.18125.0044-.27308.00289-.01706-.00035-.03364.00089-.0507.00055h-.00034a7.20176,7.20176,0,0,1-1.39282-.16028c.38356-.40364.79663-.82951,1.22559-1.26672l.04533-.0463c.08269-.08419.16179-.16578.24613-.25114l.03088-.03157c5.43017-5.49057,14.14709-13.2435,23.31966-18.44007,15.09058-9.4766,34.82357-17.12993,50.382-22.576,13.96885-4.88963,32.98928-8.60245,44.6964-10.336,1.33228-.19728,2.59446-.37558,3.71838-.52017,3.5306-.45435,6.53525-.78776,9.46327-.954a70.26469,70.26469,0,0,1,9.64589.11041c3.43622.2649,7.30264.77035,12.13973,1.58734.13255.02243.25025.04526.38122.06776,10.50952,1.80265,15.758,3.81235,17.72584,4.70927q-.371,1.72211-.88021,3.40871c-.15629.51446-.31422,1.02755-.49,1.536.45262.21193,1.3016.655,2.31587,1.26549.28451.17121.5783.3526.8842.54961.1849.119.37324.24482.563.37255q.3243.21813.65265.45215a17.66947,17.66947,0,0,1,4.41315,4.22122l24.20915,11.66633a17.38688,17.38688,0,0,1,8.2072,10.3011l26.91525,118.01826A17.37156,17.37156,0,0,1,429.43728,231.272ZM226.776,116.017c1.03168,4.48633,4.60637,11.4559-1.09159,11.61185.07876-6.991-4.63436-12.57316-10.86323-14.97158a87.11452,87.11452,0,0,1,10.99517-5.50508l.23807-.04967C225.86011,111.43708,225.97361,111.13242,226.776,116.017Z"/><path class="cls-1" d="M246.01718,203.142q5.542-2.39907,11.24-4.42642c.82112-.28608,2.73-.89148,5.198-1.65909l-.05654-.05991c-2.49321.77771-4.4225,1.39536-5.2494,1.695q-5.68593,2.05125-11.24,4.42642c-1.17056.50373-2.47712,1.14717-3.8085,1.74315.01458.01747.028.03556.04265.053C243.49748,204.31033,244.82749,203.654,246.01718,203.142Z"/><path class="cls-1" d="M201.59737,126.786a6.83339,6.83339,0,0,1,1.21362-.84238A4.77786,4.77786,0,0,0,201.59737,126.786Z"/><path class="cls-1" d="M274.44253,193.30464c-2.54136.77139-5.18006,1.5751-7.62477,2.32572l.06369.05874c2.433-.74779,5.0603-1.55047,7.594-2.32241Z"/><path class="cls-1" d="M229.80171,106.86559c-.08151.82167-.1492,1.64478-.19467,2.46975a25.97975,25.97975,0,0,0,.5858,6.08311l-.23987-8.54062Z"/><path class="cls-1" d="M226.23768,193.57347l.00392.008a8.87977,8.87977,0,0,1,1.89559.536A8.9063,8.9063,0,0,0,226.23768,193.57347Z"/><path class="cls-1" d="M237.63216,206.4528a11.87624,11.87624,0,0,0,2.09926-.56379c.79939-.27247,1.60888-.61668,2.412-.97486-.01466-.01747-.02807-.03556-.04265-.053-.79993.35811-1.60613.70012-2.40372.97561l.01039.02828a11.87139,11.87139,0,0,1-2.09927.56378c-.69627.11611-1.35174.257-1.7558-.09789C236.25393,206.71419,236.92151,206.57125,237.63216,206.4528Z"/><path class="cls-1" d="M307.238,146.87046l-.00908.02277.00791-.01053Z"/><path class="cls-1" d="M239.88647,220.76229c-.02359.15195-.04856.30226-.07278.45318q.53541.77283,1.115,1.612l.34821.11989Z"/><path class="cls-1" d="M270.79224,254.89964q-.56223-1.09692-1.24437-2.37916A4.33331,4.33331,0,0,0,270.79224,254.89964Z"/><path class="cls-1" d="M378.73276,294.85038a18.126,18.126,0,0,1,4.13173-1.40458q-1.62573.04818-3.16327.19027c-7.79021.70748-13.88611,3.22635-17.55339,8.3987C368.262,302.4248,373.01278,297.52773,378.73276,294.85038Z"/><path class="cls-1" d="M376.65447,303.7826a24.34939,24.34939,0,0,0-5.22216.22177c-2.3374.38721-4.279,1.22456-5.27794,2.7447.97575.075,1.9804.10531,2.99605.11659,1.68929.01878,3.41909-.03838,5.16293-.14748,1.80609-.113,3.61713-.27439,5.40534-.45805,2.24915-.231,4.45813-.48853,6.54054-.71065a35.1984,35.1984,0,0,0-4.99247-1.23034A39.38105,39.38105,0,0,0,376.65447,303.7826Z"/><path class="cls-1" d="M368.63087,313.84328a6.36609,6.36609,0,0,0-2.80042,1.59072c.46569.039.96268.07126,1.44709.10628,1.536.11116,3.14779.2034,4.81892.27639,5.41765.23642,11.32328.28354,16.358.18111h-.00006a41.13656,41.13656,0,0,0-14.25536-2.81734A18.42432,18.42432,0,0,0,368.63087,313.84328Z"/><path class="cls-1" d="M252.22375,108.22807l-.09444-.003.02965.1027C252.17994,108.296,252.20257,108.26033,252.22375,108.22807Z"/><path class="cls-1" d="M202.811,125.94358a6.83339,6.83339,0,0,0-1.21362.84238,9.95574,9.95574,0,0,0-3.10735,6.46893,6.45657,6.45657,0,0,0,1.02852-.89527c1.25414-1.27532,2.5675-2.92121,4.89741-1.77981-2.60307,5.07419-2.03928,14.97061,1.55948,18.17351-.024-6.02189-.95965-16.32622,4.18649-16.01427,3.58673.21586,4.3185,7.91713,7.38939,9.66853,1.77685-8.57446-3.0301-14.90685-8.28218-16.738A8.033,8.033,0,0,0,202.811,125.94358Z"/><path class="cls-1" d="M300.32178,259.414c-3.4667.51577-5.494,2.29111-5.494,5.23007q0,.06675.00165.13358a5.3621,5.3621,0,0,0,5.49236,5.22856c.0381-.0009.07614-.00206.11418-.00372a5.30213,5.30213,0,0,0,5.068-5.52633C305.59993,262.52084,303.77657,258.89813,300.32178,259.414Zm.12,8.5889c-3.35877.38384-3.95853-1.04364-4.15051-3.53878-.16791-2.48317,1.57145-3.88657,3.88664-3.94656,2.867.2519,3.94663,1.01964,3.86264,3.5987S303.54868,267.71493,300.44174,268.00287Z"/><path class="cls-1" d="M349.63631,103.49348l-.036-.048a25.17221,25.17221,0,0,0,.02834,3.35168,26.99352,26.99352,0,0,0,1.83547,7.77075c.75047,1.983,1.60433,3.8693,2.33472,5.87557-3.27485,2.07525-9.65656.77971-13.35121,2.39911-.26394,10.88008,16.82994,5.458,19.43308-.53978-3.85067-5.614-6.51372-12.41563-9.59658-18.80931Z"/><path class="cls-1" d="M373.38781,79.09413c-.11652-.21641-.25121-.43041-.39305-.6431a17.66947,17.66947,0,0,0-4.41315-4.22122q-.32925-.23393-.65265-.45215c-.18979-.12773-.37813-.25355-.563-.37255-.3059-.197-.59969-.3784-.8842-.54961-1.01427-.61049-1.86325-1.05356-2.31587-1.26549-.10656-.04987-.19467-.08922-.25466-.11323a51.82651,51.82651,0,0,0-13.11341-3.72244l-.006-.00076c-.29681-.041-.5957-.08138-.90449-.1188-.28932-.035-.59123-.06658-.89176-.09843-.45826-.04857-.92526-.09479-1.41159-.13558-.85208-.07154-1.75815-.12877-2.70659-.17534-1.6346-.08021-3.40321-.127-5.37748-.127-.25892,0-.51206.00461-.77029.00509-3.57311.00708-7.07853.06954-10.535.19707-2.78625.10284-5.54415.24785-8.27248.45407q-2.61009.19719-5.19072.47305c-4.17617.43915-8.30811,1.02054-12.41825,1.80967-11.2428,2.67234-19.86706,5.02267-26.85878,7.218-1.8711.58751-3.62649,1.16409-5.281,1.73248-3.83051,1.31577-7.13425,2.58931-10.13319,3.85872q-1.07391.45452-2.09926.90924c-2.42615,1.07412-4.67936,2.15284-6.89315,3.259-.90786.45365-1.81029.91137-2.71546,1.376-1.17923.4313-2.47107.98353-3.82887,1.61568A152.88722,152.88722,0,0,0,230.47831,97.73c-.06948.0423-.14012.08488-.20932.12712-.09782.05971-.19289.11852-.29015.178-.09493.05813-.18889.11584-.28327.17383-.241.14789-.48206.29572-.71931.4423l-.06308.03907c-4.15629,2.5695-7.69638,4.90464-9.5661,6.15664-.90518.60616-1.424.96159-1.424.96159h.00007s.73307.07312,2.0106.19356c.30686.029.65238.06116,1.02019.09527q.47876.04437,1.02212.094c1.17317.1071,2.55429.23037,4.103.36347q.89118.07656,1.849.15663l.16564.01376c.148.01238.29861.02476.44877.03721.23436.0194.46473.03859.704.0582.18188.01486.37063.03.55519.04492l.15126.01224c6.69422.5415,15.07277,1.12819,22.17634,1.34721l.09444.003c2.89652.08811,5.58116.11577,7.84036.05166,5.926-.16812,14.94427.09864,24.52653.32564,1.80664.04278,3.63351.08378,5.46326.12051-.0681-.41809-.11563-.82848-.14824-1.233a9.2097,9.2097,0,0,1,.38776-3.80747v-.024a50.94962,50.94962,0,0,1,2.34092,5.11319,259.27165,259.27165,0,0,0,26.29286-.49485c15.67844-1.49944,21.95216-3.28682,33.468-5.99788a81.16549,81.16549,0,0,0,9.01105-2.56461c.62941-.22859,1.22077-.46391,1.7924-.70391.23126-.09706.46652-.19322.68946-.29262.2358-.10518.46-.21469.68719-.32282.68382-.32544,1.336-.66408,1.95563-1.02184a31.94992,31.94992,0,0,0,6.85683-5.49449C376.59071,85.58384,376.59071,83.5925,373.38781,79.09413Zm-99.88843,25.287c-5.20613,0-8.78082-.3958-15.24659-.77971l-3.08128-.18648-2.01293-.12182-6.85807-.41514-10.83957-.656c2.2354-1.60921,4.5543-3.09565,6.93271-4.481,1.38022-.80393,2.77524-1.58267,4.19928-2.30859a64.83176,64.83176,0,0,1,11.348-4.84788c.11673-.03728.23092-.08179.34786-.11838l1.56155,1.12185L262.4117,93.428l6.56723,4.718,9.24679,6.643S278.77746,104.9689,273.49938,104.38111Zm9.08081.43185-8.749-7.67946-5.58969-4.90635-4.69861-4.12424,6.7176-2.26717,5.0374,4.959,5.05637,4.97769,9.18337,9.04049Z"/><path class="cls-1" d="M296.843,124.07813c-4.01857,3.89861-11.22794.65974-16.602.40784-5.0982,8.09707,10.00442,9.62058,16.49413,7.70127,1.77534-.52781,4.85827-3.19086,5.27808-4.39045,1.79935-5.06222-1.83533-7.28145-3.7067-9.10474-2.83646-2.76272-4.1772-6.26525-5.67216-9.91747a50.94962,50.94962,0,0,0-2.34092-5.11319v.024a9.2097,9.2097,0,0,0-.38776,3.80747c.03261.40454.08014.81493.14824,1.233a37.10045,37.10045,0,0,0,4.13621,10.80717C295.12156,121.26141,296.06,122.82578,296.843,124.07813Z"/><path class="cls-1" d="M332.25448,139.87647a18.42854,18.42854,0,0,1-1.48747-1.3675c-4.7383-5.18219-10.9281-12.55954-13.38726-18.34149a3.52172,3.52172,0,0,1-.13193-.57582c-.21593-1.03161-.51577-2.39911-1.51147-2.831a1.70351,1.70351,0,0,0-1.66742.34786l-.23993.18v.28787c-.22789,8.39706,5.65,15.48653,10.36431,21.14851l.85173,1.00761c.39581.49183.80372.93571,1.19959,1.36756,1.93129,2.08723,3.2148,3.49077,1.41545,6.65762-1.04358.40785-2.2312.98367-3.47873,1.58343-3.88665,1.88334-8.73288,4.22246-12.93141,3.50274-1.58342-.27591-1.94332-1.41545-2.39918-3.28682a8.39575,8.39575,0,0,0-.7797-2.39911l-.45579-.77971-.3784.50449-.00791.01053-.15354.20471a7.64126,7.64126,0,0,0,.98367,9.83651l.1439.12h.192a28.92012,28.92012,0,0,0,3.0109.15594c9.11678,0,15.69041-4.23443,21.08846-7.68923l.32392-.21592-.06-.3839a5.99683,5.99683,0,0,1,.57582-2.31512,8.01324,8.01324,0,0,0,.79168-4.58243C333.95787,141.34,333.20217,140.69222,332.25448,139.87647Z"/><path class="cls-1" d="M241.12293,217.26093l-.168.084C240.49916,217.83675,240.907,217.5488,241.12293,217.26093Z"/><path class="cls-1" d="M222.2416,208.01228a25.28785,25.28785,0,0,1-6.51365,1.6194c-.33568.03082-.70968.07065-1.1.10153a5.83774,5.83774,0,0,1-3.29046-.42538,1.79984,1.79984,0,0,0-1.81139,3.10687,8.58735,8.58735,0,0,0,4.16805,1.065,26.61536,26.61536,0,0,0,9.50708-1.98866,1.81073,1.81073,0,0,0,1.18769-1.51216C224.5422,208.784,223.65512,207.47828,222.2416,208.01228Z"/><path class="cls-1" d="M221.06484,196.6134c-.988.22645-1.91.50208-2.63787.73465-3.02294.88764-9.27272,2.831-9.65655,6.47767-.144,1.29555.21585,2.39918,1.52344,2.77105.02366.00206.04746,0,.07112.002a14.38189,14.38189,0,0,0,2.117.00365c.41513-.02669.83075-.051,1.24272-.11364a21.12138,21.12138,0,0,0,4.67832-.45585,36.59616,36.59616,0,0,0,8.25445-2.8472c.02325-.01128.0474-.02043.07058-.03178a3.20184,3.20184,0,0,0,1.65428-1.334c.01767-.02909.03047-.06087.04718-.09052a3.19425,3.19425,0,0,0,.38583-1.87426c-.16825-2.62246-1.86125-3.52537-3.92186-3.65132-.044-.00268-.08612-.00929-.13049-.01128-.24495-.01094-.49486-.00963-.74758-.00083-.24214.00846-.48626.02628-.73218.05015A17.65114,17.65114,0,0,0,221.06484,196.6134Z"/><path class="cls-1" d="M336.89634,39.83519l-.23.00055a5.91545,5.91545,0,0,0-.80234-.00055,8.27281,8.27281,0,0,1-1.41758-.12.68515.68515,0,0,1-.30817-.2691l-.03192-.05063-.27735-.06a10.67656,10.67656,0,0,0-2.22872-7.07523l.23993-.24929-.00991-.06824a.52386.52386,0,0,1,.06494-.34559,7.51593,7.51593,0,0,1,1.17875-.919,7.1453,7.1453,0,0,0,.656-.47161l.16288-.15078a.95678.95678,0,0,0-1.23377-1.4627.61431.61431,0,0,0-.05613.05173l-.1761.164a5.77211,5.77211,0,0,0-.49857.61964,8.17868,8.17868,0,0,1-.974,1.03016.7383.7383,0,0,1-.41382.08034l-.06054-.00605-.23993.21077a10.78757,10.78757,0,0,0-6.86556-2.68548v-.30156l-.06824-.04127a.51448.51448,0,0,1-.23223-.28891,7.28946,7.28946,0,0,1,.0011-1.4616v-.76933a1.75032,1.75032,0,0,0,0-.24048.99777.99777,0,0,0-1.01695-.97678h-.01761l-.252.03136.07044.087a.9994.9994,0,0,0-.63725,1.04062l.0011.22343a5.25134,5.25134,0,0,0,.17059.78032,8.12227,8.12227,0,0,1,.19921,1.41978.78774.78774,0,0,1-.1893.36045l-.03742.04017v.28286a10.53453,10.53453,0,0,0-6.40772,3.71673l-.26414-.153-.06274.02311a.562.562,0,0,1-.3687.01211,8.266,8.266,0,0,1-1.16994-.87553,5.07581,5.07581,0,0,0-.59873-.5481l-.1915-.13207a1.096,1.096,0,0,0-.65926-.19261.92551.92551,0,0,0-.74071.40337,1.01792,1.01792,0,0,0,.32908,1.39006l.1882.12492a6.3676,6.3676,0,0,0,.7176.35275,7.94238,7.94238,0,0,1,1.23267.7308.88647.88647,0,0,1,.16509.3786l.00991.05283.22232.175a10.60093,10.60093,0,0,0-1.14449,6.89865c.02435.14232.04114.28519.0714.427l-.274.10785-.02421.04788a.92765.92765,0,0,1-.25424.30927,7.49437,7.49437,0,0,1-1.38456.345,5.6386,5.6386,0,0,0-.76712.11942h-.21572l-.03742.00495a1.0123,1.0123,0,0,0-.70549,1.23047c.01156.02993.03522.05008.04919.07828a.998.998,0,0,0,1.11057.53517.93222.93222,0,0,0,.10043-.01252l.22673-.06328a3.49385,3.49385,0,0,0,.42593-.197c.09245-.04843.186-.0974.29717-.14583a7.06763,7.06763,0,0,1,1.32072-.51233.69821.69821,0,0,1,.405.10125l.04953.02807.28505-.06934A10.87149,10.87149,0,0,0,318.36,48.3258l-.10126.31367.02972.05338a.74054.74054,0,0,1,.09025.36155,8.90726,8.90726,0,0,1-.613,1.31742,6.37053,6.37053,0,0,0-.39291.69888l-.01431.06164a.711.711,0,0,1-.08475.17279.9619.9619,0,0,0-.0551.26745,1.0003,1.0003,0,0,0,.58229,1.04777.96779.96779,0,0,0,.32358.05613.981.981,0,0,0,.71594-.32234.95094.95094,0,0,0,.20967-.33032.33023.33023,0,0,0,.01761-.07319.35734.35734,0,0,1,.03081-.06658.45188.45188,0,0,0,.04843-.11171,6.9524,6.9524,0,0,0,.1827-.78143,5.72988,5.72988,0,0,1,.49307-1.45445.55513.55513,0,0,1,.25424-.13868l.066-.0165.13427-.29827a10.76606,10.76606,0,0,0,6.10505-.03522,10.53451,10.53451,0,0,0,1.26459-.48426l.1739.25644.06713.0055a.50383.50383,0,0,1,.32468.15078,7.35077,7.35077,0,0,1,.64936,1.29982c.04072.0941.07374.1849.10676.2746a3.86031,3.86031,0,0,0,.20361.47821s.07924.12217.11116.18545a.95661.95661,0,1,0,1.74115-.793.88382.88382,0,0,0-.08915-.15244l-.12436-.21131a6.684,6.684,0,0,0-.48757-.6356c-.12389-.14652-.23863-.302-.35123-.45833a7.51006,7.51006,0,0,1-.45441-.70171.54055.54055,0,0,1,0-.38961l.022-.05668-.02532-.055s-.05282-.11006-.10125-.20747a10.71575,10.71575,0,0,0,4.15148-6.16448h.295l.04182-.04127a.5623.5623,0,0,1,.328-.164,7.63313,7.63313,0,0,1,1.42968.30817c.10456.02862.20031.06108.295.09355a3.491,3.491,0,0,0,.49857.13923l.175-.00275a.97813.97813,0,0,0,1.15894-.76217l.0055-.03522A1.00262,1.00262,0,0,0,336.89634,39.83519Zm-8.44933-7.4753-3.15543,2.62549a.59476.59476,0,0,1-.80344-.04842.53373.53373,0,0,1-.14308-.33019l-.56461-4.06452A8.44735,8.44735,0,0,1,328.447,32.35989Zm-5.87722,5.31592,1.171-.09686.79463.84857-.17169,1.16114-1.01035.591-1.07419-.42979-.3533-1.07363Zm-6.79513-2.48627,3.2732,2.50058a.57766.57766,0,0,1,.13537.79078.61258.61258,0,0,1-.28175.22342l-3.83561,1.44014A8.31369,8.31369,0,0,1,315.77466,35.18954Zm4.66216,6.97453-.62012,1.905L319.17,46.0558a8.42167,8.42167,0,0,1-3.42508-3.66941l.382-.09568,3.55591-.89046.1673-.00055a.57214.57214,0,0,1,.58662.40777A.56465.56465,0,0,1,320.43682,42.16407Zm.5525-6.73074a.51709.51709,0,0,1-.34559-.0886L317.10639,33.225a8.25085,8.25085,0,0,1,3.687-2.33934,5.19737,5.19737,0,0,1,.64716-.16123l.08034,4.11075A.57774.57774,0,0,1,320.98932,35.43333Zm4.75791,11.306c-.08564.02676-.174.03872-.26023.06266a8.25034,8.25034,0,0,1-4.09486.09527l.76877-1.69837.92506-2.04368a.55529.55529,0,0,1,.449-.31587l.022-.00385a.52407.52407,0,0,1,.25424-.00331.53254.53254,0,0,1,.27625.22123l2.30026,3.44984Zm2.64475-1.3642-1.86662-3.68977a.56462.56462,0,0,1,.22122-.76.63779.63779,0,0,1,.21682-.07814l.11776-.01981v-.00331l4.14047.36871A8.30008,8.30008,0,0,1,328.392,45.37508Zm-.92121-7.33662a.57813.57813,0,0,1-.46225-.65982.54249.54249,0,0,1,.153-.31587l2.86928-2.99749a8.5796,8.5796,0,0,1,1.094,2.30576,8.3976,8.3976,0,0,1,.37971,2.49727Z"/><polygon class="cls-1" points="340.004 169.338 340.002 169.337 340.004 169.338 340.004 169.338"/><path class="cls-1" d="M345.126,182.91715h-.00007l-.00943.0196Z"/><path class="cls-1" d="M317.54766,183.2291a6.27152,6.27152,0,0,1-.54514.77751,6.24653,6.24653,0,0,0,.58126-.81355,2.37718,2.37718,0,0,1,.24062-.23712c-.02215.01926-.0474.0324-.069.05263A2.39354,2.39354,0,0,0,317.54766,183.2291Z"/><path class="cls-1" d="M271.66509,187.54071a4.77267,4.77267,0,0,1-2.73865.70033q-.23359-.01145-.46528-.04574a7.89019,7.89019,0,0,1-4.32447-2.82415,7.91465,7.91465,0,0,0,4.36059,2.86012,4.79823,4.79823,0,0,0,5.494-4.58236,1.599,1.599,0,0,1,.35612-1.14614,1.57089,1.57089,0,0,0-.39216,1.18219A4.79156,4.79156,0,0,1,271.66509,187.54071Z"/><path class="cls-1" d="M286.58817,185.51423c-.01128.01011-.0207.02277-.03212.03274l.04065-.03515a5.48575,5.48575,0,0,0,1.52557-2.22281,2.18261,2.18261,0,0,1,.39608-.67425,2.14381,2.14381,0,0,0-.43219.7103A5.46791,5.46791,0,0,1,286.58817,185.51423Z"/><path class="cls-1" d="M302.22217,185.13115a3.75773,3.75773,0,0,1-.6151.82525,3.83169,3.83169,0,0,0,.626-.813,2.83719,2.83719,0,0,0,.38-1.18259,2.05218,2.05218,0,0,1,.59571-1.34556,1.9122,1.9122,0,0,0-.63175,1.3816A2.82214,2.82214,0,0,1,302.22217,185.13115Z"/><path class="cls-1" d="M331.33589,184.22625a5.14951,5.14951,0,0,0,.9666-1.36908,2.17516,2.17516,0,0,1,.18614-.31725,2.0321,2.0321,0,0,0-.22218.35329A5.16851,5.16851,0,0,1,331.33589,184.22625Z"/><path class="cls-1" d="M539.78427,507.68074q-3.53853-6.97476-7.72571-14.15431a51.28067,51.28067,0,0,0-9.63722-12.10627q-1.6953,1.85457-4.27816,5.18839c-1.72945,2.20735-3.41342,4.55122-5.177,7.043a89.01423,89.01423,0,0,0-4.84707,7.73707c-1.50191,2.66246-2.61694,4.76741-3.35654,6.29206H483.3377a217.52854,217.52854,0,0,1,12.51587-20.21879q7.08857-10.41089,15.92928-22.1417L484.47551,424.0975h22.75612l15.92928,24.20111,16.282-24.20111h21.47038L533.788,464.43273a255.512,255.512,0,0,1,17.56772,24.50834q6.89507,11.13913,10.87742,18.73967Z"/><path class="cls-1" d="M70.40524,424.09753H25.93979v4.55123c1.06953.13653,2.469.40959,4.13023.73956a20.14,20.14,0,0,1,4.27815,1.27434,5.5979,5.5979,0,0,1,3.14034,2.469,7.9645,7.9645,0,0,1,.65993,3.53856v51.75878c0,6.82683-1.33123,11.947-4.00508,15.29211a13.23273,13.23273,0,0,1-11.08222,5.06325,8.75,8.75,0,0,1-3.59547-.79648,4.28953,4.28953,0,0,1-2.27561-2.00255v-.73956a40.27734,40.27734,0,0,0,5.93934-5.87109,10.67261,10.67261,0,0,0,2.60558-6.94062,10.06958,10.06958,0,0,0-2.99243-7.41848,11.04811,11.04811,0,0,0-8.18083-2.96966,10.57021,10.57021,0,0,0-8.47665,3.59547,13.20985,13.20985,0,0,0-3.07207,9.0228,17.488,17.488,0,0,0,6.74718,14.48428c4.47158,3.53855,10.34266,5.268,17.69288,5.268a38.39,38.39,0,0,0,11.87869-1.79772,33.36055,33.36055,0,0,0,10.081-5.33631,25.58942,25.58942,0,0,0,7.00889-8.88626,26.84086,26.84086,0,0,0,2.5373-11.617V436.18106a9.35286,9.35286,0,0,1,.67131-3.74339,4.18708,4.18708,0,0,1,3.07208-2.27561c1.33123-.34133,2.59419-.603,3.66373-.80784s2.469-.39823,4.00508-.603Zm48.83461,73.8322a17.3402,17.3402,0,0,1-9.9558,3.00383c-6.7358,0-11.68527-2.07082-14.79147-6.26932s-4.60812-10.24026-4.60812-18.29591H129.537v-3.81165a30.129,30.129,0,0,0-1.536-9.54621,20.1733,20.1733,0,0,0-4.8698-7.87363,23.439,23.439,0,0,0-8.74973-5.54111,38.68492,38.68492,0,0,0-13.483-2.00251A33.98577,33.98577,0,0,0,87.3813,450.1988a29.16192,29.16192,0,0,0-16.36165,16.4868,30.57272,30.57272,0,0,0-2.20734,11.50319,36.58018,36.58018,0,0,0,2.00254,12.28829,26.8406,26.8406,0,0,0,6.13277,9.80788,30.15181,30.15181,0,0,0,10.4223,6.61065,40.56285,40.56285,0,0,0,15.019,2.46906,35.114,35.114,0,0,0,9.21623-1.13781,39.07214,39.07214,0,0,0,7.96464-3.41342,28.62742,28.62742,0,0,0,6.61065-5.0746,36.149,36.149,0,0,0,4.93808-6.26932l-4.40331-3.20862a26.4765,26.4765,0,0,1-7.47539,7.6688Zm-26.30606-40.961q2.6966-4.55126,7.20231-4.55122a6.6676,6.6676,0,0,1,4.34642,1.39951,9.10266,9.10266,0,0,1,2.73074,4.14163,25.61251,25.61251,0,0,1,1.20607,6.07588c.2048,2.46906.33,4.86981.33,7.2023l-18.751.27306c.1024-6.6903,1.10367-11.526,2.91278-14.57529Zm112.33558,44.89781a4.38059,4.38059,0,0,1-2.40077-2.05943,7.168,7.168,0,0,1-.6713-3.41341V467.55034q0-9.01148-4.81292-14.416c-3.19723-3.60686-7.96464-5.40457-14.34773-5.40457a27.14742,27.14742,0,0,0-7.47539,1.00127,21.32309,21.32309,0,0,0-5.689,2.40075,33.23239,33.23239,0,0,0-4.335,3.33377c-1.60431,1.41087-2.94691,2.53732-4.00508,3.53856H161.259v-8.47667l-.86473-.86474-27.97864,1.536v4.26677a18.96782,18.96782,0,0,1,3.53858.6713,11.03578,11.03578,0,0,1,2.67384,1.20608,7.88514,7.88514,0,0,1,2.469,2.86725,8.02144,8.02144,0,0,1,.933,3.60686v34.13418a7.555,7.555,0,0,1-.7282,3.53856,4.10758,4.10758,0,0,1-2.60557,2.00255,16.51045,16.51045,0,0,1-2.53731.53477c-1.00127.13653-1.93427.2617-2.93554.33v4.27816H168.871V503.357a22.603,22.603,0,0,1-2.74211-.603,10.67225,10.67225,0,0,1-2.33251-.933,4.18713,4.18713,0,0,1-1.93426-2.07081,8.20356,8.20356,0,0,1-.603-3.41342V464.88781c.46651-.6713,1.06954-1.41087,1.74084-2.20735a13.94944,13.94944,0,0,1,2.73073-2.40075,15.08707,15.08707,0,0,1,3.93681-2.07082,13.65322,13.65322,0,0,1,4.4147-.73956,7.49812,7.49812,0,0,1,6.47411,3.00382q2.196,3.00383,2.196,9.02279v27.43252a9.6146,9.6146,0,0,1-.53477,3.60686,3.641,3.641,0,0,1-1.72947,1.866,6.50852,6.50852,0,0,1-2.40077.603c-1.00127.06827-1.93427.2048-2.67385.26171v4.27816h35.272v-4.32365a18.3985,18.3985,0,0,1-3.14034-.59164,18.663,18.663,0,0,1-2.27561-.76235Zm109.1497-79.1799a11.79907,11.79907,0,0,0-8.215,3.14036,10.24025,10.24025,0,0,0,0,15.22384,12.038,12.038,0,0,0,8.215,3.14036,11.74231,11.74231,0,0,0,8.14669-3.14036,10.024,10.024,0,0,0,3.41342-7.61192,9.92155,9.92155,0,0,0-3.41342-7.61192A11.62837,11.62837,0,0,0,314.41907,422.68663Zm96.00806,79.1799a4.40326,4.40326,0,0,1-2.41215-2.05943,7.316,7.316,0,0,1-.65991-3.41341V467.55034q0-9.01148-4.81293-14.416c-3.19723-3.60686-7.96464-5.40457-14.34771-5.40457a27.30719,27.30719,0,0,0-7.48675,1.00127,21.40324,21.40324,0,0,0-5.689,2.40075,32.54174,32.54174,0,0,0-4.34643,3.33377c-1.59292,1.41087-2.93552,2.53732-4.00506,3.53856h-.26171v-8.47667l-.86474-.86474-27.9559,1.536v4.26677a18.9673,18.9673,0,0,1,3.53856.6713,11.03619,11.03619,0,0,1,2.67385,1.20608,7.88538,7.88538,0,0,1,2.46906,2.86725,8.02118,8.02118,0,0,1,.933,3.60686v34.13418a7.40709,7.40709,0,0,1-.73956,3.53856,4.08478,4.08478,0,0,1-2.5942,2.00255,16.50983,16.50983,0,0,1-2.53732.53477c-1.00127.13653-1.93428.2617-2.94691.33v4.27816h35.65883V503.357a21.70972,21.70972,0,0,1-2.74212-.603,10.67234,10.67234,0,0,1-2.27561-.933,4.18712,4.18712,0,0,1-1.93428-2.07081,8.03306,8.03306,0,0,1-.603-3.41342V464.88781c.46651-.6713,1.06954-1.41087,1.72945-2.20735a14.39265,14.39265,0,0,1,2.74212-2.40075,14.90521,14.90521,0,0,1,3.9368-2.07082,13.65365,13.65365,0,0,1,4.4033-.73956,7.52092,7.52092,0,0,1,6.48551,3.00382q2.20734,3.00383,2.196,9.02279v27.43252a9.6142,9.6142,0,0,1-.53477,3.60686,3.641,3.641,0,0,1-1.72945,1.866,6.57661,6.57661,0,0,1-2.41214.603c-1.00127.06827-1.93428.2048-2.66246.26171v4.27816h35.272v-4.32365a18.398,18.398,0,0,1-3.14036-.59164,18.02165,18.02165,0,0,1-2.34387-.76235Zm59.00662-24.56522c-1.33125-1.26295-1.06954-.933-.4665-.39824-3.2655-2.86726-8.20357-5.21114-14.88249-6.94062a49.8154,49.8154,0,0,1-10.54744-3.74339,6.82683,6.82683,0,0,1-3.81166-6.47412,6.1328,6.1328,0,0,1,2.60558-5.21114,11.62856,11.62856,0,0,1,7.07716-1.866,15.9294,15.9294,0,0,1,10.75228,4.40331,24.88376,24.88376,0,0,1,7.00888,10.54744h4.14163l-.933-20.02538h-4.48295v.06826a2.35531,2.35531,0,0,1-.933,2.33249c-1.33125.6713-4.00507-.26171-4.00507-.26171-1.1378-.34133-2.40075-.73957-3.80026-1.06954a41.1075,41.1075,0,0,0-9.81927-1.06954c-7.54366,0-13.65367,1.67258-18.2049,5.07461a15.83827,15.83827,0,0,0-6.94062,13.34647,17.06692,17.06692,0,0,0,1.60431,7.68019,17.32917,17.32917,0,0,0,4.2099,5.54111,23.09823,23.09823,0,0,0,5.87108,3.81165,67.86916,67.86916,0,0,0,6.82683,2.40076l6.74718,2.00255a27.30526,27.30526,0,0,1,5.00634,2.00255,11.69631,11.69631,0,0,1,3.20862,2.67385,6.11,6.11,0,0,1,1.19469,3.86853,7.75985,7.75985,0,0,1-2.5942,6.40585c-1.74084,1.39951-4.41469,2.07082-7.96464,2.07082a16.52136,16.52136,0,0,1-7.61192-1.79772,28.44374,28.44374,0,0,1-6.26932-4.47157,34.39558,34.39558,0,0,1-4.67637-5.95074,28.445,28.445,0,0,1-2.93552-5.93934h-4.27816l.53477,15.92928.20479,5.95073h4.2099v-.06826a2.36667,2.36667,0,0,1,1.00127-2.53732c1.866-.86475,3.732.06826,5.60938.72821,1.19468.46651,2.46905.94436,3.9368,1.41087.603.19344,1.19468.33,1.79771.53477a36.80774,36.80774,0,0,0,9.35277,1.1378c8.07843,0,14.67769-1.72945,19.62715-5.33631a17.06709,17.06709,0,0,0,7.54366-14.89387,15.71314,15.71314,0,0,0-4.47157-11.48046c.62578.61443.94436.94437-.44376-.38685Zm-183.7215,24.90658a8.63606,8.63606,0,0,1-4.55122-3.67512c-3.60685-5.27944-6.94063-10.24025-10.24026-15.01905l-10.593-15.42865c2.00253-1.72945,3.74337-3.19723,5.21115-4.335s3.07207-2.27561,4.67638-3.33377a48.53872,48.53872,0,0,1,14.95077-6.952V449.391H256.07242v4.14163a27.66038,27.66038,0,0,1,5.60938,1.20607c1.263.4665,1.866,1.00127,1.866,1.72945a9.99087,9.99087,0,0,1-.2048,1.27434,7.88486,7.88486,0,0,1-2.12769,3.00382c-2.13908,2.27561-5.07462,5.07461-8.68146,8.47667s-6.82684,6.33759-9.751,8.94314v-60.554l-.86473-.933-29.2416,1.536v4.27812a23.38129,23.38129,0,0,1,4.07335.603,10.9227,10.9227,0,0,1,3.33376,1.1378,6.5653,6.5653,0,0,1,2.469,3.14036,10.09213,10.09213,0,0,1,.87612,4.00506v65.42384a7.6005,7.6005,0,0,1-.6713,3.53855,3.77747,3.77747,0,0,1-2.5373,2.00255,19.34542,19.34542,0,0,1-2.60557.53477c-1.00128.13654-1.93427.27307-2.93554.33v4.27816h36.40978v-4.26677a18.56954,18.56954,0,0,1-2.81038-.46651,11.86538,11.86538,0,0,1-2.469-.79648,4.11887,4.11887,0,0,1-2.40078-2.00254,8.78406,8.78406,0,0,1-.603-3.41342V483.70716l3.47031-2.93552c2.469,3.53856,5.14289,7.40712,7.96464,11.54872s5.95072,9.21623,9.35276,15.15558h27.50077v-4.07333a26.328,26.328,0,0,1-5.38182-1.19468Zm42.06468-.4665a5.37047,5.37047,0,0,1-2.53732-2.13908,6.21241,6.21241,0,0,1-.8761-3.4703v-46.65l-.86474-.86475-30.10633,1.536v4.26677a32.27965,32.27965,0,0,1,5.19978.80783,12.24283,12.24283,0,0,1,3.20862,1.33125,7.19092,7.19092,0,0,1,3.27689,6.07588v34.13417a6.6905,6.6905,0,0,1-.73957,3.4703,4.93809,4.93809,0,0,1-2.67385,2.00255,11.54783,11.54783,0,0,1-2.53732.603c-1.00127.06827-2.00255.2048-3.00382.27306v4.26678H333.318v-4.16438a20.78529,20.78529,0,0,1-2.94691-.59164A25.39366,25.39366,0,0,1,327.77693,501.74139Z"/></svg>