<svg id="svg2" xmlns="http://www.w3.org/2000/svg" viewBox="0 0 497.04002 518.64002"><defs><style>.cls-1{fill:#fff;}</style></defs><title>jenkinsx-stacked-white</title><path class="cls-1" d="M292.10181,345.74716c-.001.0269-.0011.05662-.00206.08358a16.99407,16.99407,0,0,0,3.762-.72172A17.36056,17.36056,0,0,1,292.10181,345.74716Z"/><path class="cls-1" d="M300.55878,344.45162l-.85166-.096a12.99006,12.99006,0,0,0-1.3838.18992,4.46936,4.46936,0,0,1,1.75573.0141l.048-.00007c1.01964,8.90086,4.54638,17.90964,4.10257,27.66223-1.39983.47085-2.58567.91914-3.77088,1.30256,1.35079-.41575,2.665-.92354,4.25067-1.45858h-.036C305.11713,362.32528,301.59039,353.30446,300.55878,344.45162Z"/><path class="cls-1" d="M287.06339,214.678c.685-.50834,1.3732-1.01386,2.09953-1.48355-.07807.00695-.15931.02043-.23773.02821l-.23016.16371A12.347,12.347,0,0,0,287.06339,214.678Z"/><path class="cls-1" d="M174.37576,206.15288c.39588-5.15811,3.3468-7.78519,7.54526-9.8125a32.0655,32.0655,0,0,1,5.8019-2.23594l-.01273-.027a32.068,32.068,0,0,0-5.81318,2.239c-4.19846,2.02725-7.19739,4.65432-7.54525,9.8125a18.24249,18.24249,0,0,0-.02669,2.78274l.02084-.008A18.23419,18.23419,0,0,1,174.37576,206.15288Z"/><path class="cls-1" d="M407.86108,217.00043,380.85337,98.54963l-.05613-.21681A25.23155,25.23155,0,0,0,368.71262,83.1654L337.44007,68.09325c.22074-1.26851.46115-2.65795.72537-4.1977,4.75027-8.79286,6.88558-14.49082,5.398-20.39274s-8.1931-17.14189-17.17787-22.79191c-7.34137-4.60637-23.79952-13.17127-33.732-13.59115C276.59135,7.11975,246.71,9.075,232.759,17.532c-10.5563,6.40572-27.74614,20.72863-41.33736,31.99262-2.17444,2.12059-7.523,6.03922-13.5476,10.426L129.97137,83.01352l-.20417.10565A25.22522,25.22522,0,0,0,117.682,98.34382L90.61489,216.886l-.04128.20581a25.15438,25.15438,0,0,0,4.26209,18.91277l60.40518,75.63808c.23257,3.21575.44354,6.4419.66146,9.69329.3839,6.08179-.26387,12.53553,1.31955,15.90633s7.67726,4.58236,11.99576,6.60967c12.60748,5.8299,25.9827,14.74273,42.52484,12.96738,3.94662,13.25526,7.67726,27.37421,12.40359,38.98606,16.962,6.0939,43.7364,5.14615,61.37013,3.02294,5.3501-.6477,11.01209-3.28681,12.27166-7.94112a47.1614,47.1614,0,0,1-.6118-9.08074c5.50605-1.13967,13.0154-2.08729,14.227-8.18113,1.70339-8.565-5.41008-20.82459-3.03491-30.20523,2.56324-.83839,5.26137-1.52675,5.96417-4.37483A25.54785,25.54785,0,0,0,325.1475,333.569a56.36377,56.36377,0,0,1,7.88383-.20135,14.39354,14.39354,0,0,0,3.23887,4.25845c9.53659,1.91938,18.7853,2.07532,26.70249-.50381,8.97281-2.927,13.25526-21.26847,11.204-29.98931h-.00007a137.46972,137.46972,0,0,0-7.55729-22.288c-.25452-.54391-.52857-1.05342-.81583-1.53927l37.65516-47.21086.142-.18931A25.2162,25.2162,0,0,0,407.86108,217.00043ZM178.14375,68.57374c4.63086-3.29225,8.78481-6.24263,11.62251-8.64875,1.333-1.1297,2.57734-2.1664,3.75546-3.134,6.09714-5.00781,10.33357-8.07513,14.8695-11.533,1.82831-1.3937,3.70559-2.85118,5.77438-4.52616.43742-.355.85779-.69537,1.27093-1.02948,9.74928-7.88431,13.11527-10.21937,27.91467-19.7711,22.588-5.59,30.03733-6.65762,43.30455-7.59327h.048c17.1179,2.92692,25.97074,6.39368,36.23909,12.36755,8.85284,5.13418,12.34361,10.00449,15.34255,20.29678.46783,5.24217.204,8.90085-4.19853,16.89-.04436.44684-.12361.88812-.182,1.3329A71.736,71.736,0,0,0,317.688,58.57352c-.70824-.12582-1.43271-.24819-2.1825-.364-4.53689-.7006-7.89827-1.27849-11.01655-1.64829,1.09874-1.62607,1.54965-2.35247,2.16736-3.30463.41231-.63553.90077-1.37417,1.71185-2.55643,2.1232-3.0949,1.67938-3.40678,3.80265-6.51365a4.69026,4.69026,0,0,0,.88764-4.16248V40.024c-1.1156-3.59869-.81575-3.67065-1.94332-7.19739s-1.69142-3.40678-2.807-6.98154a4.79828,4.79828,0,0,0-2.687-3.32286c-3.52674-1.35546-3.44282-1.54738-6.96957-2.90291l-6.99344-2.75908a7.159,7.159,0,0,0-4.63038.27591c-3.27484,1.88334-3.05892,2.24324-6.32172,4.13854s-3.43079,1.60743-6.6936,3.49077a5.35012,5.35012,0,0,0-2.33919,3.83863c-.5468,3.67292-.39966,3.735-.9338,7.34206l-.01389.09527c-.30246,2.03158-.47161,2.94308-.65156,3.96176-.14837.84-.304,1.75251-.548,3.42762a5.26235,5.26235,0,0,0,1.09166,3.65869c.10793.132-.18.59982-.06.71979,2.56709,2.747,2.675,2.639,5.25414,5.38608,2.36444,2.51838,2.91873,2.38177,4.98106,4.44788a274.61947,274.61947,0,0,0-46.36643,10.87066c-15.51053,4.90628-39.478,16.07431-48.6907,21.80825A154.56647,154.56647,0,0,0,165.68423,105.643q-1.13015.98807-2.30171,2.0302-1.35642,1.20734-2.77407,2.49129-.8856.80233-1.79962,1.63935-1.217,1.11352-2.48379,2.28526c-.37785.34951-.76561.71037-1.15047,1.06807-.05937-.0961-.121-.19632-.18415-.29936-.03529-.05772-.07518-.12389-.11164-.18374-.05909-.09685-.11832-.19418-.1805-.297-.09362-.15484-.18965-.31409-.2907-.483-.57073-.95347-1.25434-2.12135-2.092-3.58714-10.58024-8.39706-1.67945-11.55194.80372-21.59233C159.82977,81.60275,169.77641,74.52243,178.14375,68.57374ZM303.74764,51.85481l-2.0972,3.06793a2.921,2.921,0,0,1-1.89531,1.0916l-1.44138.11226c-1.18514-.01967-2.42125-.00351-3.75587.05427-2.78481.12045-6.00407.42078-10.07176.93758a2.562,2.562,0,0,1-1.417-.74422l-9.851-10.47691-.15354-.16331a1.19774,1.19774,0,0,1-.15594-.19191,2.39921,2.39921,0,0,1-.49183-1.88334l.35157-2.35708.60926-4.084,1.18645-7.95385a2.56718,2.56718,0,0,1,1.19952-1.81132l12.69147-7.36538a2.78356,2.78356,0,0,1,.94769-.32392,2.60345,2.60345,0,0,1,1.28351.19192l13.67513,5.26618a2.50717,2.50717,0,0,1,1.49951,1.59539l4.3544,13.89106a2.50687,2.50687,0,0,1-.32386,2.15925Zm-145.4931,64.95693c-.02539.08117-.04575.16131-.07945.2442-.11584.08165-.23251.16165-.34724.24488C157.962,117.145,158.10527,116.981,158.25454,116.81174ZM101.2181,231.36551a17.31015,17.31015,0,0,1-2.88743-12.83084l26.96478-118.12116a17.38858,17.38858,0,0,1,8.20775-10.34458l16.41413-7.9037c-1.71488,2.34277-3.44242,5.797-6.47857,12.54736-3.75471,9.2007-4.00661,9.59657,3.5987,16.15823,2.53442,3.53975,6.04864,8.94165,7.91018,11.83431-4.19434,12.21745-.12747,27.5406,5.64506,36.00466a26.46252,26.46252,0,0,0,17.68168,11.35995,37.4863,37.4863,0,0,0,3.67071,13.73511c.598,1.31461,2.43426,4.16022,4.182,7.28125a49.33841,49.33841,0,0,0-5.93342,2.49528c-4.97824,2.39917-8.88882,5.00224-9.77652,10.79616a15.97086,15.97086,0,0,0,.2607,5.95612,37.00069,37.00069,0,0,0-3.95536,1.73311c-7.62931,1.60743-5.99788.40784-17.63373,2.0033-5.99788.39588-15.78637,8.553-14.39486,17.99363.93565,6.36974,5.82989,15.99026,7.90515,22.372,2.24324,6.88551,5.4581,13.19527,7.30539,20.39273a165.20017,165.20017,0,0,1,4.04878,22.56237Zm92.79614-37.792a8.9063,8.9063,0,0,1,1.89951.544c4.09665,1.75532,6.02683,6.4483,7.39564,11.65161a1.10113,1.10113,0,0,0,.31952.56185c.40406.35488,1.05954.214,1.7558.09789a11.87116,11.87116,0,0,0,2.09927-.56378l-.01039-.02828c.79759-.27549,1.60379-.6175,2.40372-.97561,1.33139-.596,2.63794-1.23942,3.8085-1.74315q5.554-2.37515,11.24-4.42642c.8269-.29964,2.75619-.91729,5.2494-1.695l.05654.05991c1.33785-.41609,2.83784-.87924,4.42628-1.36736l-.06369-.05874c2.44471-.75062,5.08341-1.55433,7.62477-2.32572l.03288.062c5.55468-1.69238,10.64366-3.2324,12.15926-3.696,1.75141-.52781,3.47873-1.19952,5.25415-1.64341l.00467-.00124a12.71022,12.71022,0,0,0,3.03334,1.86539c.01451.006.02992.00914.0445.01513-4.51344,1.33579-11.61694,3.659-18.97007,6.24957-2.01761.71078-4.04884,1.44014-6.053,2.17548-1.55825.57169-3.096,1.14552-4.59351,1.71591-6.647,2.53173-12.47424,4.98119-15.46293,6.72909-1.314.71346-2.58848,1.49276-3.84385,2.30122-.57191.36836-1.14848.7295-1.70745,1.117-.5697.395-1.12069.81616-1.6765,1.23068l-.02091.01534c-.0908.06782-.18346.133-.27391.20134-.13593.1027-.2766.1988-.4117.3026-.22645.17417-.44939.3526-.67336.53-.22934.1816-.451.37269-.67776.55766-.48516.39587-.97789.78232-1.45074,1.19353a7.5939,7.5939,0,0,0-1.39639,1.81758,9.297,9.297,0,0,0-.51254,1.069c-.014.03467-.02957.06852-.04326.10339a26.69365,26.69365,0,0,0-.98518,3.42164c-.04808.19735-.095.39257-.14555.59391a22.67107,22.67107,0,0,1-2.831,7.35341c-1.65958,2.48929-3.1705,3.35264-5.12311,3.14119a10.24681,10.24681,0,0,1-3.022-.874,38.90912,38.90912,0,0,1-10.19846-6.872l.06823-.025c-.25245-.2358-.504-.47188-.75026-.71436-.55285-.54466-1.09449-1.101-1.61459-1.67862l-.07622.02318a38.92627,38.92627,0,0,1-3.15508-3.98852c-.23993-.34786-.45586-.69572-.67178-1.05562l-2.915.81569a40.30416,40.30416,0,0,0,2.97493,4.11453c.27742.3339.58126.69166.90752,1.0669-10.67875,3.87591-15.80419,8.9931-19.213,5.72273-1.95736-.97871-4.644-2.08874-7.14313-3.06291-1.74851-.68162-3.40175-1.296-4.64722-1.74907,1.75154-.99364,4.14487-1.37713,7.42391-1.21a33.24,33.24,0,0,1,3.993-1.6948c3.92785-1.43112,9.3111-2.96234,14.98953-4.57541.25039.46039.51089.91632.78645,1.36406l2.915-.81569c-.25273-.45881-.4787-.92932-.68994-1.40547l.01259-.00357a18.47,18.47,0,0,1-1.49572-5.91939c-.00764-.09534-.02188-.18972-.028-.2852l-.02084.008a18.24249,18.24249,0,0,1,.02669-2.78274c.34786-5.15818,3.34679-7.78525,7.54525-9.8125a32.068,32.068,0,0,1,5.81318-2.239l.01273.027c.3764-.10532.75137-.21558,1.13169-.30714.43784-.09816.84919-.15924,1.2604-.22026.24427-.03618.48612-.06934.72124-.09286.03054-.0031.059-.00316.08949-.006.218-.02043.43034-.033.64062-.04271a10.99178,10.99178,0,0,1,2.4518.146Zm124.03443,18.54131.35089,1.76042,1.71192,8.5889.0604.30287-4.40593-2.3189c-.12271-.864-.26469-1.71529-.43432-2.54391-1.70092-8.3079-5.77913-14.47348-12.66148-11.13948,1.94332-2.843,5.614-4.22253,7.97717-7.72527a20.66625,20.66625,0,0,0,2.775,1.90026l1.8,4.348Zm-1.0217-9.60531c2.81115.91914,5.60551,1.36812,9.59864,3.7274,3.34535.95429,5.79261,1.69073,7.62223,2.36891a12.14116,12.14116,0,0,1,3.80932,1.99615l-.90621-.14878-12.67262-2.081-5.89249-1.61878Zm-30.30622,32.28992c-.00674-.20361-.01169-.40674-.02194-.60692-.01032-.20292-.02153-.40316-.03281-.60189a9.796,9.796,0,0,1,.21771-3.63818,4.817,4.817,0,0,1,.59543-.35123c1.7329-.907,4.20547-1.00444,6.56826-1.2269.22377-.02105.44864-.04093.66951-.06528a13.62813,13.62813,0,0,0-8.6969-.98366c-.0716-1.89889-.91563-3.08472-1.43216-4.5631l-.00729-.01926c.37655-.16551.74717-.34332,1.11423-.52864,3.8303-1.93341,7.19051-4.85146,10.93091-6.94983.45538-.25541.9155-.5007,1.38374-.72846.21138-.10277.42751-.19522.64192-.29138.21221-.09521.42408-.19137.63959-.27949a17.12227,17.12227,0,0,1,3.631-1.05871c3.21486.204,1.93135-.18,4.00661.70776v-.04795c1.28358.74367,2.25073,2.98718,2.95945,5.6904a58.54208,58.54208,0,0,1,1.5749,10.98367c.192,4.04252-.35983,8.133-2.01528,10.28033-.08577-.00131-.17135-.00626-.25712-.00777a94.92081,94.92081,0,0,1-20.59608-2.63918c-.66717-.161-1.33469-.32042-1.99862-.496A13.01936,13.01936,0,0,0,286.72075,234.79939Zm-7.56231-13.90372c-7.5813.38384-11.71978-.51584-17.2858-4.87024.084-.23993.64777-.144.65974-.57582l.012-.048c8.03193,3.56444,18.22606-1.37349,26.38084-2.179.07842-.00778.15966-.02126.23773-.02821-.72633.46969-1.41448.97521-2.09953,1.48355C284.35411,216.6882,281.88725,218.92332,279.15844,220.89567Zm-2.67639,15.64907a6.79443,6.79443,0,0,1-2.81762-.60643c-.182-1.03037-.37028-1.87956-.54624-2.63093a16.90944,16.90944,0,0,1-.71333-6.47382,9.56982,9.56982,0,0,1,4.35151-1.63322c.07759-.00819.15292-.02807.23085-.03426C284.591,226.25987,282.614,236.44273,276.48205,236.54474Zm-49.90054-7.56445c.02394.57018.06164,1.14532.13152,1.72788a1.08935,1.08935,0,0,0-.77654.4335c-1.01833,1.061-2.41232,4.09177-4.77745,9.0191-3.9158-7.26219-4.75969-8.21112-9.44145-13.027-.15161-.15594-.29517-.30376-.455-.46817-.88207-1.38909-1.7448-2.66-2.55726-3.83814q-.57739-.83733-1.115-1.612c.02422-.15092.04919-.30123.07278-.45318.12753-.81947.25465-1.64561.43371-2.42614a10.18091,10.18091,0,0,1,.43089-1.44709v-.17995a13.92626,13.92626,0,0,1,2.45909-1.59539c.48426-.30968,1.03-.63409,1.62064-.96894,5.22043,1.14325,11.41374,1.88684,15.2093,2.55236a22.06708,22.06708,0,0,1-.6477,5.00823,39.62045,39.62045,0,0,0-.58827,5.13053c-.02257.55292-.03123,1.11436-.018,1.6864C226.56617,228.67391,226.57511,228.82751,226.58151,228.98029Zm-8.625-17.57072c5.21122-2.46659,11.95765-5.25621,18.85479-7.95647a33.2899,33.2899,0,0,0,9.131,5.85466c-5.53-1.29548-14.011-1.70339-16.31418,3.25084C225.5986,212.29225,221.65727,211.98,217.95649,211.40957Zm24.02522-9.955q1.68423-.64323,3.34645-1.26913l.4822,1.25324a1.19942,1.19942,0,0,0,.68375.68375l5.02625,1.82336a1.19926,1.19926,0,0,0,.7557,0,68.61444,68.61444,0,0,0,13.903-6.29772V197.648l8.70894-4.85827h.05991l4.5574-2.9598c.05241-.00275.10448.00041.1569-.00316a11.09357,11.09357,0,0,0,5.88967-1.87268,18.21667,18.21667,0,0,1,2.21951.07333,1.30528,1.30528,0,0,1,.31188.06l3.20289,1.10356a1.40516,1.40516,0,0,1,.37187.204l7.5813,6.34573a1.19938,1.19938,0,0,0,.63574.26394l1.61947.15594a1.19949,1.19949,0,0,0,1.28351-1.05561l.43817-4.918a7.89906,7.89906,0,0,0,4.29394.89837,27.94333,27.94333,0,0,1-6.44747,6.76658c-11.70788,8.2171-29.49755,15.67844-44.74407,10.56826A60.0037,60.0037,0,0,1,241.98171,201.45454Zm-6.52376,14.2469-.048.00007a9.933,9.933,0,0,1,1.56719-.477c.088-.01995.17631-.03777.26484-.05531.1655-.03288.328-.079.49513-.10345l1.15914.10448.30439.02745a74.83978,74.83978,0,0,1,19.78094,7.19747c3.19085,1.73936,5.02618,3.89861,9.86044,4.27047l-.07195,1.93129a7.86275,7.86275,0,0,1-1.23343.64027c-2.61655,1.11574-6.10292,1.28427-8.591,2.53862l.04.0024a25.62019,25.62019,0,0,1,10.52823,2.67261c-.0075.20224-.01534.40269-.02284.60478-.05269,1.41641-.10614,2.82883-.16908,4.19351-2.751,1.90507-5.40568,4.34257-8.241,6.66677-.93166.76368-1.88073,1.514-2.863,2.22927a35.72607,35.72607,0,0,1-3.89077,2.49995c-.33121.17878-.76609.39333-1.27491.62955-.12485.05792-.26511.1201-.39883.18056-.81727.36967-1.78587.77937-2.83866,1.19457-3.819,1.50611-8.64077,3.03615-10.55424,2.58965a1.83653,1.83653,0,0,1-.6918-.33974,4.33331,4.33331,0,0,1-1.24437-2.37916c-.14424-.51329-.28471-1.05287-.46294-1.58755-.07608-.22425-.15965-.45868-.24591-.69717-1.47853-4.08681-4.33707-10.197-4.55238-15.98894C231.84728,229.88038,230.59968,218.50846,235.458,215.70144Zm77.44451-32.78429h.00007l-.00949.0196c-.09693.22535-.20451.44485-.3198.65933a8.36854,8.36854,0,0,1-4.09713,3.74749,5.11168,5.11168,0,0,1-3.7413-.40179,2.735,2.735,0,0,1-1.62084-2.885c.23642-1.66617-1.83017-2.95147-2.84878-1.51683a2.17516,2.17516,0,0,0-.18614.31725,5.14928,5.14928,0,0,1-.9666,1.36908c-2.66,2.70851-8.05793,2.35825-10.15341-1.14112a2.39226,2.39226,0,0,0-.22054-.20767,2.55636,2.55636,0,0,0-2.81967-.16385l-.00117.00075a2.91332,2.91332,0,0,0-.55732.4787,6.24653,6.24653,0,0,1-.58126.81355c-3.001,3.58638-9.59733,3.36592-11.89429-.81355-.54858-1.03622-1.35119-1.08527-1.89943-.57782a2.05213,2.05213,0,0,0-.5957,1.34556,2.83735,2.83735,0,0,1-.38006,1.18259,3.832,3.832,0,0,1-.626.813,5.946,5.946,0,0,1-2.3826,1.39274c-.02257.00709-.045.016-.06762.02284a4.85806,4.85806,0,0,1-2.24173.18751,6.28092,6.28092,0,0,1-1.35016-.41836l-.04877-.02112a11.91841,11.91841,0,0,1-3.91382-2.97335c-.42318-.46129-.81974-.93084-1.17695-1.38545a1.13216,1.13216,0,0,0-1.90707-.14645,2.18222,2.18222,0,0,0-.39608.67425,5.48577,5.48577,0,0,1-1.52558,2.22281l-.04065.03515a6.15258,6.15258,0,0,1-4.80035,1.36021,5.62765,5.62765,0,0,1-4.65755-3.61817,1.69334,1.69334,0,0,0-2.75075-.78624,1.599,1.599,0,0,0-.35612,1.14614,4.74448,4.74448,0,0,1-2.31291,3.91581,4.754,4.754,0,0,1-3.18109.66655,7.91472,7.91472,0,0,1-4.36059-2.86012c-.17864-.21448-.34566-.43687-.50711-.66188-.0335-.04608-.0716-.0899-.10435-.1364a11.741,11.741,0,0,1-1.02583-1.78766,8.87642,8.87642,0,0,1,.52781-6.48971,21.46,21.46,0,0,1,6.99351-9.02075,28.28606,28.28606,0,0,1,11.156-4.49844,93.56484,93.56484,0,0,1,11.99575-1.33145c3.03492-.168,6.12981.28787,9.1767.21585s6.05786.168,9.12875.228,6.11784-.096,9.14071.14391a39.86531,39.86531,0,0,1,10.25632,2.2552,25.65922,25.65922,0,0,1,9.12724,5.049l.00151.00117C311.271,172.56487,315.07367,178.01093,312.90246,182.91715ZM167.057,332.51234c-1.15564-.58023-2.316-1.15165-3.48933-1.69988-.08653-3.06725-.24234-6.16916-.43151-9.28353q-.21037-3.46359-.50538-6.95264-.30325-3.58773-.69441-7.19045c-2.90167-26.61775-9.44854-53.62037-19.67315-75.55017.02435-.21833.05668-.41995.08482-.63023a19.40052,19.40052,0,0,1,.62115-3.02928c1.00836.14384,2.00853.32895,3.0032.53772a46.85894,46.85894,0,0,1,12.69409,4.662c.533.28863,1.068.57327,1.59037.883,5.41-3.27484,15.72638-7.8332,15.72638-7.8332l3.75905-1.37383c5.47846,5.69246,14.21594,12.74912,20.7842,9.387,3.41511-1.73868,5.0579-5.80823,6.1541-9.43348a52.63054,52.63054,0,0,0,5.97359,7.922c1.94332,2.555,7.95317,12.07967,9.35664,12.75145,1.84737.87567,4.00661-11.0601,5.81793-10.1964.53985,3.97063,1.19959,4.99028,3.37081,11.87579,2.39917,7.60531,3.46683,16.96195,14.39493,12.85945,1.22511-.45992,2.46425-.99887,3.70084-1.58081q1.436-.67573,2.8569-1.43086c.2768-.14706.55105-.29853.82607-.449a2.13927,2.13927,0,0,0-.1384,1.74535c2.30652,7.21439,3.15708,14.65453,3.69252,22.14345.172,2.40682.31347,4.81838.45785,7.22945q.04168.69576.08385,1.39144c-18.10767,1.0107-38.57532,2.89645-53.96169,4.90587-.808.10552-1.62738.21084-2.406.31691a35.17194,35.17194,0,0,1-5.24217-13.927,17.69346,17.69346,0,0,0-1.32609-4.69132c-1.22807-2.63388-2.80049-3.20668-3.53218-1.51051-1.85933,4.33046-1.01964.41988,4.85827,19.19315,1.19959,4.00661-2.14721-4.63031-5.93789-5.99788-1.48747,4.67832,1.37953,4.52238,3.59876,7.5573s-7.41339-1.3435-7.37741,4.49844c.30425.0487.6345.08942.98593.12409,5.19079.51226,15.18833-.35756,20.03064,1.68722q.25351,2.96812.54453,5.90316c.80667,8.16421,1.81785,16.2024,2.93964,24.47171q.2661,1.9621.54074,3.945c.18015,1.30235.36347,2.61978.5481,3.93789.438,3.12832.88406,6.28967,1.34088,9.53329C193.67416,348.22882,180.84642,339.43568,167.057,332.51234Zm119.798,57.33525a103.946,103.946,0,0,1-26.84544,2.674,120.95568,120.95568,0,0,1-31.92892-4.98126,366.14854,366.14854,0,0,1-12.11069-47.8594q-.362-1.96076-.7057-3.93816-.34319-1.96231-.66806-3.945c-1.643-9.922-3.00823-20.16766-4.18525-31.0106,17.0339-3.07089,34.28372-5.2181,51.58163-5.08617,5.543.22,11.11128.37442,16.6112,1.09614,1.99863.26228,3.9888.59474,5.96473,1.0391.1126.73142.21358,1.46216.30933,2.19248,1.40128,10.68727,1.10274,21.25691,1.94546,31.769q.15828,1.97376.38012,3.945c.02634.23587.04822.47195.07615.70775q.18366,1.604.32866,3.235c1.45039,16.16484.37173,34.1022,3.474,49.0065C289.713,389.11644,288.295,389.49361,286.855,389.84759ZM266.67959,286.45883a8.51836,8.51836,0,0,1-.21262-1.57793,4.14326,4.14326,0,0,1,.14892-1.38614,3.6824,3.6824,0,0,1,3.73765-2.57245,9.78944,9.78944,0,0,1,1.69631.27886,2.49636,2.49636,0,0,1,2.07175,2.0745,5.49275,5.49275,0,0,1,.09458,1.24534c-.084,2.56715-.49183,3.59876-3.5987,3.87467C268.01889,288.70681,267.05531,287.94072,266.67959,286.45883Zm38.02977,85.607c-1.58569.535-2.89988,1.04283-4.25067,1.45858a22.51089,22.51089,0,0,1-7.15729,1.01255c-.37056-8.24874-1.479-20.855-1.20165-28.70621.001-.027.0011-.05668.00206-.08358a17.36056,17.36056,0,0,0,3.75994-.63814c.63828-.16048,1.27567-.32509,1.91883-.46212l.0335-.00681c.16887-.0357.33947-.06342.50924-.09451a12.99006,12.99006,0,0,1,1.3838-.18992l.85166.096c1.03161,8.85284,4.55835,17.87366,4.11454,27.6142ZM291.44172,338.8686c-.07958-1.04372-.15463-2.08427-.231-3.12585q-.145-1.97459-.28-3.945c-.52313-7.59808-.93042-15.15249-1.09214-22.7181-.07821-3.65869-.10367-7.32026-.05194-10.99153,3.71867-1.19958,6.99351-1.19958,10.72421-1.19958a71.88686,71.88686,0,0,1,1.73985,8.478c1.2584,8.38007,1.578,17.63263,2.38391,26.4312q.18243,1.99182.40633,3.945c.03013.26325.05675.52973.08825.79167C300.22248,337.55166,296.66367,338.13924,291.44172,338.8686Zm2.84341-49.38133.03591-.00013c-2.11027,1.24134-4.6451.78892-8.33322.15587-.5459-.09369-1.121-.18958-1.72031-.28636-.19329-.03123-.3806-.06253-.57974-.09335-.188-.02917-.38542-.05647-.57885-.085a54.7598,54.7598,0,0,0-8.76789-.62721,5.28088,5.28088,0,0,0,1.27869-3.67017,4.99573,4.99573,0,0,0-.49754-2.2129,5.33258,5.33258,0,0,0-1.80107-2.20017,3.94,3.94,0,0,0-2.88358-.63711v-.00007c-3.05424.45448-4.987,1.87983-5.40465,4.22184a5.64663,5.64663,0,0,0-.08935.99632q0,.06068.00137.12128a5.58765,5.58765,0,0,0,1.5544,3.64354q-2.28021.09019-4.6429.2041-.03611-.55419-.07106-1.10865-.09048-1.42308-.17933-2.84685c-.5904-9.40218-1.255-18.8045-4.13586-27.84355a2.30881,2.30881,0,0,0-2.38377-1.655,105.76449,105.76449,0,0,0,8.94667-5.90123c1.02659-.7535,1.94951-1.45686,2.74374-2.0842a32.002,32.002,0,0,0,3.037-2.60719c1.23556-1.40348,1.77541-2.11123,2.69909-3.13088a5.63325,5.63325,0,0,0,4.59949-.15016c.18139-.0747.36051-.15388.53833-.23553.04629-.02125.09321-.04141.1393-.063.13351-.06246.26552-.12664.39745-.19075,1.39116-.67584,2.70487-1.39625,4.11392-1.24388,3.5987.3839,9.10474,3.59869,16.998,4.24654s12.19964.99556,14.29891-2.06329c2.15573-4.06873,3.05789-11.53226,2.503-18.63906l6.92561,2.2649-.29984-4.49837-1.82969-7.30154-.72543-2.89487-.37985-1.03408,7.43334,1.93376,12.43138,1.69032c.06047.30569.11577.62418.1642.97273a9.415,9.415,0,0,1-.29317,2.53338c-1.004,4.90174-4.131,14.50334-4.57714,16.74375-2.39911,12.13966-7.9771,28.178-13.19527,40.89348-1.91932,4.6303-3.74267,10.41226-6.26182,11.408C308.54806,288.82746,300.163,285.82852,294.28513,289.48727Zm19.66325,41.4942c-.17858.00158-.34319.01871-.53015.01093-.18174-2.24282-.44155-4.51082-.72943-6.78542-1.21341-9.58681-3.14779-19.343-4.06886-28.3501,3.19086-.16791,1.19959-.072,5.84194-.26387l1.93128.23993c3.71722,6.42807,5.233,16.075,5.68,24.83732.081,1.58631.125,3.13816.14246,4.64193.01369,1.18019.01348,2.33445-.00454,3.437h.036C319.31767,329.30772,317.35591,330.951,313.94838,330.98147Zm53.29472-19.59012c1.45259,6.646-.33,13.16232-4.04437,17.27562a12.90381,12.90381,0,0,1-6.51186,4.00482h.03591c-5.68592,1.37954-14.39486,1.73943-18.1255-.06,3.6375-1.9815,8.71727-2.39946,13.30685-3.35506a32.21485,32.21485,0,0,0,3.36716-.85544c-6.76541-2.9102-16.42038-.761-24.88526-.69022-.99082.00826-1.96926-.00516-2.9208-.06548q-.11205-1.15006-.221-2.31271c-.17658-1.87578-.35041-3.769-.52988-5.66158-.829-8.74127-1.78937-17.455-3.8195-24.23425a13.43449,13.43449,0,0,1,2.31636-1.928c6.09417-4.08916,16.68391-5.63661,23.04264-9.70788,1.37954-.74373.53985-.37186,2.60307-.92361a10.48223,10.48223,0,0,1,9.52462,5.27808,11.93172,11.93172,0,0,1,.64571,1.13851,53.59357,53.59357,0,0,1,3.29858,9.64348C365.50277,303.37826,366.51437,308.106,367.2431,311.39135Zm29.97074-80.1194-37.13649,46.56544c-10.10822-5.13886-26.25531,2.22046-35.83888,7.00754,5.87791-15.47449,10.94007-31.52479,16.13423-48.88262a127.371,127.371,0,0,0,5.84193-26.57056c-4.59433-5.99787-8.1931-5.99787-13.99906-7.26942-6.94941-2.88014-11.80376-4.086-14.556-5.39825a4.32753,4.32753,0,0,1-2.53833-2.28451,2.47418,2.47418,0,0,1-.09548-.29434c-.62377-3.071,7.19746-13.71111,8.85284-17.07a96.22719,96.22719,0,0,0,5.0982-14.6828c5.07853-21.44265,8.01308-43.42727,5.33078-65.01643-.61964.35776-1.27182.6964-1.95564,1.02184-.22721.10813-.45138.21764-.68719.32282-.22294.0994-.45819.19556-.68946.29262-.57162.24-1.163.47532-1.7924.70391.36052,4.32165.4822,8.92789.71759,13.55276,1.16678,22.52722-3.32416,45.68846-13.1465,63.54561a15.30432,15.30432,0,0,0-1.78827-5.05445h.00007a24.7467,24.7467,0,0,0-6.86158-6.84954,30.94956,30.94956,0,0,0-8.589-4.19853,43.85609,43.85609,0,0,0-9.7045-1.79935c-3.28682-.35989-6.53766-1.28358-9.89649-1.28358s-6.69366.94769-9.9445.94769c-3.47874.036-7.07743-.91164-10.67613-.73169a78.47936,78.47936,0,0,0-10.60425,1.41544,40.40255,40.40255,0,0,0-9.93246,3.76668c-4.55836,2.15925-7.54533,6.11784-9.84848,10.55623-1.70339,3.27485-2.47113,6.51372-1.00767,10.01646.072.06.048.108.072.19191s-.168.2519-.168.33589c1.58535,3.36482,4.52135,6.37188,8.29656,6.85064-1.66356.51942-3.25538,1.02205-4.73136,1.49407-5.57394-5.80568-10.28521-12.49116-15.405-19.59672.28623,8.01383,5.70794,14.72634,11.29075,20.9323-1.41895.46934-2.6.87154-3.44544,1.17579-3.44282,1.24754-6.5737,3.27485-9.9445,4.71437-1.73854.72757-3.83292,1.87515-5.85219,2.78287-.51859.23313-1.0325.45208-1.53369.64166.0637-.08819.29008-.33383.23636-.59357-1.60743-5.446-4.79829-10.7961-10.79616-12.28356a13.19536,13.19536,0,0,0-3.625-.36293,98.60582,98.60582,0,0,1-5.50377-15.8793,31.19022,31.19022,0,0,1-1.01964-6.8256c.70576-3.846,7.40788-5.59079,5.08066-10.82443-.0463-.10415-.07285-.20065-.12644-.30762-5.07412,0-6.21373,4.61841-10.86811,5.07419-5.05947.50346-9.48933-2.23539-12.89109-6.34264-4.70391-5.67938-7.43795-13.98027-7.11774-19.988.45585-8.81686,7.90515-17.24982,18.08951-16.13422,5.77969.63573,8.46261,5.82872,10.04177,11.44593.38735,1.37795.71079,2.78033.99433,4.14852,4.15051.21585,10.14839-.17995,12.11572-3.41882-.2052-5.63475-2.12389-10.47169-3.1209-15.41326a25.97975,25.97975,0,0,1-.5858-6.08311c.04547-.825.11316-1.64808.19467-2.46975-.18456-.01493-.37331-.03006-.55518-.04492-.23925-.01961-.46962-.0388-.704-.0582-.15016-.01245-.30074-.02483-.44877-.03721l-.16564-.01376q-.95732-.08-1.849-.15663c-1.54876-.1331-2.92988-.25637-4.103-.36347q-.54254-.04953-1.02212-.094c-.36781-.03411-.71333-.06631-1.02019-.09527-1.27753-.12044-2.0106-.19356-2.0106-.19356h-.00006s.51879-.35543,1.424-.96159c-4.94405,2.18924-3.04537.67247-10.63664,6.21573a49.63169,49.63169,0,0,0-9.49422,1.72286c-.26938.07607-.54191.13977-.81012.22046a30.27465,30.27465,0,0,0-4.1437,1.72905l-.02972.01417c-.09121.00089-.18125.0044-.27308.00289-.01706-.00035-.03364.00089-.0507.00055h-.00034a7.20176,7.20176,0,0,1-1.39282-.16028c.38356-.40364.79663-.82951,1.22559-1.26672l.04534-.0463c.08268-.08419.16178-.16578.24612-.25114l.03088-.03157c5.43017-5.49057,14.14709-13.2435,23.31966-18.44007,15.09058-9.4766,34.82357-17.12993,50.38205-22.576,13.96886-4.88963,32.98928-8.60245,44.6964-10.336,1.33228-.19728,2.59446-.37558,3.71839-.52017,3.53059-.45435,6.53524-.78776,9.46326-.954a70.26469,70.26469,0,0,1,9.64589.11041c3.43623.2649,7.30265.77035,12.13973,1.58734.13255.02243.25025.04526.38122.06776,10.50953,1.80265,15.758,3.81235,17.72584,4.70927q-.371,1.72211-.88021,3.40871c-.15628.51446-.31422,1.02755-.49,1.536.45262.21193,1.3016.655,2.31587,1.26549.28451.17121.5783.3526.8842.54961.1849.119.37324.24482.563.37255q.3243.21813.65266.45215a17.66959,17.66959,0,0,1,4.41314,4.22122l24.20915,11.66633a17.38688,17.38688,0,0,1,8.2072,10.3011l26.91526,118.01826A17.37157,17.37157,0,0,1,397.21384,231.272ZM194.55258,116.017c1.03167,4.48633,4.60636,11.4559-1.0916,11.61185.07876-6.991-4.63436-12.57316-10.86323-14.97158a87.11526,87.11526,0,0,1,10.99517-5.50508l.23807-.04967C193.63667,111.43708,193.75017,111.13242,194.55258,116.017Z"/><path class="cls-1" d="M213.79374,203.142q5.542-2.39907,11.24-4.42642c.82112-.28608,2.73005-.89148,5.198-1.65909l-.05654-.05991c-2.49321.77771-4.4225,1.39536-5.2494,1.695q-5.68592,2.05125-11.24,4.42642c-1.17056.50373-2.47711,1.14717-3.8085,1.74315.01458.01747.028.03556.04265.053C211.274,204.31033,212.60405,203.654,213.79374,203.142Z"/><path class="cls-1" d="M169.37393,126.786a6.83339,6.83339,0,0,1,1.21362-.84238A4.77786,4.77786,0,0,0,169.37393,126.786Z"/><path class="cls-1" d="M242.21909,193.30464c-2.54136.77139-5.18006,1.5751-7.62477,2.32572l.06369.05874c2.433-.74779,5.0603-1.55047,7.594-2.32241Z"/><path class="cls-1" d="M197.57827,106.86559c-.08151.82167-.1492,1.64478-.19467,2.46975a25.97975,25.97975,0,0,0,.5858,6.08311l-.23986-8.54062Z"/><path class="cls-1" d="M194.01424,193.57347l.00392.008a8.87977,8.87977,0,0,1,1.89559.536A8.9063,8.9063,0,0,0,194.01424,193.57347Z"/><path class="cls-1" d="M205.40872,206.4528a11.87624,11.87624,0,0,0,2.09926-.56379c.79939-.27247,1.60888-.61668,2.412-.97486-.01465-.01747-.02807-.03556-.04265-.053-.79993.35811-1.60613.70012-2.40372.97561l.01039.02828a11.87116,11.87116,0,0,1-2.09927.56378c-.69626.11611-1.35174.257-1.7558-.09789C204.03049,206.71419,204.69808,206.57125,205.40872,206.4528Z"/><path class="cls-1" d="M275.0146,146.87046l-.00908.02277.00791-.01053Z"/><path class="cls-1" d="M207.663,220.76229c-.02359.15195-.04856.30226-.07278.45318q.53541.77283,1.115,1.612l.34821.11989Z"/><path class="cls-1" d="M238.5688,254.89964q-.56223-1.09692-1.24437-2.37916A4.33331,4.33331,0,0,0,238.5688,254.89964Z"/><path class="cls-1" d="M346.50932,294.85038a18.12621,18.12621,0,0,1,4.13173-1.40458q-1.62573.04818-3.16327.19027c-7.79021.70748-13.88611,3.22635-17.55339,8.3987C336.03852,302.4248,340.78934,297.52773,346.50932,294.85038Z"/><path class="cls-1" d="M344.431,303.7826a24.3493,24.3493,0,0,0-5.22215.22177c-2.33741.38721-4.279,1.22456-5.278,2.7447.97576.075,1.9804.10531,2.99605.11659,1.68929.01878,3.41909-.03838,5.16293-.14748,1.80609-.113,3.61714-.27439,5.40534-.45805,2.24915-.231,4.45813-.48853,6.54054-.71065a35.1984,35.1984,0,0,0-4.99247-1.23034A39.38105,39.38105,0,0,0,344.431,303.7826Z"/><path class="cls-1" d="M336.40743,313.84328A6.36615,6.36615,0,0,0,333.607,315.434c.46569.039.96269.07126,1.44709.10628,1.536.11116,3.14779.2034,4.81892.27639,5.41765.23642,11.32329.28354,16.358.18111H356.231a41.13656,41.13656,0,0,0-14.25536-2.81734A18.4244,18.4244,0,0,0,336.40743,313.84328Z"/><path class="cls-1" d="M220.00032,108.22807l-.09445-.003.02965.1027C219.9565,108.296,219.97913,108.26033,220.00032,108.22807Z"/><path class="cls-1" d="M170.58755,125.94358a6.83339,6.83339,0,0,0-1.21362.84238,9.95569,9.95569,0,0,0-3.10734,6.46893,6.457,6.457,0,0,0,1.02851-.89527c1.25414-1.27532,2.5675-2.92121,4.89741-1.77981-2.60307,5.07419-2.03928,14.97061,1.55949,18.17351-.024-6.02189-.95966-16.32622,4.18648-16.01427,3.58673.21586,4.3185,7.91713,7.38939,9.66853,1.77685-8.57446-3.0301-14.90685-8.28218-16.738A8.033,8.033,0,0,0,170.58755,125.94358Z"/><path class="cls-1" d="M268.09834,259.414c-3.4667.51577-5.494,2.29111-5.494,5.23007q0,.06675.00165.13358a5.3621,5.3621,0,0,0,5.49236,5.22856c.03811-.0009.07615-.00206.11418-.00372a5.30212,5.30212,0,0,0,5.068-5.52633C273.37649,262.52084,271.55313,258.89813,268.09834,259.414Zm.12,8.5889c-3.35876.38384-3.95852-1.04364-4.15051-3.53878-.16791-2.48317,1.57146-3.88657,3.88664-3.94656,2.867.2519,3.94663,1.01964,3.86264,3.5987S271.32524,267.71493,268.2183,268.00287Z"/><path class="cls-1" d="M317.41287,103.49348l-.036-.048a25.17046,25.17046,0,0,0,.02835,3.35168,26.9932,26.9932,0,0,0,1.83546,7.77075c.75047,1.983,1.60433,3.8693,2.33472,5.87557-3.27484,2.07525-9.65656.77971-13.35121,2.39911-.26394,10.88008,16.82994,5.458,19.43308-.53978-3.85067-5.614-6.51372-12.41563-9.59658-18.80931Z"/><path class="cls-1" d="M341.16437,79.09413c-.11652-.21641-.25121-.43041-.39305-.6431a17.66959,17.66959,0,0,0-4.41314-4.22122q-.32927-.23393-.65266-.45215c-.18979-.12773-.37813-.25355-.563-.37255-.3059-.197-.59969-.3784-.8842-.54961C333.244,72.245,332.395,71.80194,331.94242,71.59c-.10656-.04987-.19467-.08922-.25465-.11323a51.82671,51.82671,0,0,0-13.11342-3.72244l-.006-.00076c-.29682-.041-.59571-.08138-.90449-.1188-.28933-.035-.59123-.06658-.89177-.09843-.45826-.04857-.92526-.09479-1.41159-.13558-.85207-.07154-1.75815-.12877-2.70659-.17534-1.6346-.08021-3.4032-.127-5.37748-.127-.25892,0-.51206.00461-.77029.00509-3.5731.00708-7.07853.06954-10.535.19707-2.78625.10284-5.54415.24785-8.27248.45407q-2.61007.19719-5.19072.47305c-4.17617.43915-8.30811,1.02054-12.41825,1.80967-11.2428,2.67234-19.86706,5.02267-26.85878,7.218-1.87109.58751-3.62649,1.16409-5.281,1.73248-3.83051,1.31577-7.13425,2.58931-10.13319,3.85872q-1.07391.45452-2.09926.90924c-2.42614,1.07412-4.67935,2.15284-6.89315,3.259-.90786.45365-1.81029.91137-2.71546,1.376-1.17923.4313-2.47106.98353-3.82886,1.61568A152.886,152.886,0,0,0,198.25487,97.73c-.06948.0423-.14012.08488-.20932.12712-.09782.05971-.19288.11852-.29015.178-.09493.05813-.18889.11584-.28327.17383-.241.14789-.48206.29572-.71931.4423l-.06308.03907c-4.15629,2.5695-7.69638,4.90464-9.5661,6.15664-.90518.60616-1.424.96159-1.424.96159h.00006s.73307.07312,2.0106.19356c.30686.029.65238.06116,1.02019.09527q.47877.04437,1.02212.094c1.17317.1071,2.55429.23037,4.103.36347q.89118.07656,1.849.15663l.16564.01376c.148.01238.29861.02476.44877.03721.23436.0194.46473.03859.704.0582.18187.01486.37062.03.55518.04492l.15127.01224c6.69421.5415,15.07276,1.12819,22.17633,1.34721l.09445.003c2.89651.08811,5.58116.11577,7.84035.05166,5.926-.16812,14.94427.09864,24.52654.32564,1.80664.04278,3.6335.08378,5.46325.12051-.0681-.41809-.11563-.82848-.14823-1.233a9.20954,9.20954,0,0,1,.38775-3.80747v-.024a50.94962,50.94962,0,0,1,2.34092,5.11319,259.27165,259.27165,0,0,0,26.29286-.49485c15.67844-1.49944,21.95216-3.28682,33.46805-5.99788a81.16485,81.16485,0,0,0,9.01105-2.56461c.62941-.22859,1.22078-.46391,1.7924-.70391.23127-.09706.46652-.19322.68946-.29262.23581-.10518.46-.21469.68719-.32282.68382-.32544,1.336-.66408,1.95564-1.02184a31.94988,31.94988,0,0,0,6.85682-5.49449C344.36727,85.58384,344.36727,83.5925,341.16437,79.09413Zm-99.88843,25.287c-5.20613,0-8.78082-.3958-15.24659-.77971l-3.08127-.18648-2.01294-.12182-6.85807-.41514-10.83956-.656c2.23539-1.60921,4.55429-3.09565,6.9327-4.481,1.38022-.80393,2.77524-1.58267,4.19928-2.30859a64.83176,64.83176,0,0,1,11.348-4.84788c.11673-.03728.23092-.08179.34786-.11838l1.56155,1.12185,2.56138,1.84008,6.56723,4.718,9.24679,6.643S246.554,104.9689,241.27594,104.38111Zm9.08081.43185-8.749-7.67946-5.58969-4.90635-4.69862-4.12424,6.7176-2.26717,5.0374,4.959,5.05638,4.97769,9.18336,9.04049Z"/><path class="cls-1" d="M264.6196,124.07813c-4.01857,3.89861-11.22794.65974-16.602.40784-5.0982,8.09707,10.00442,9.62058,16.49413,7.70127,1.77534-.52781,4.85827-3.19086,5.27808-4.39045,1.79935-5.06222-1.83533-7.28145-3.7067-9.10474-2.83646-2.76272-4.1772-6.26525-5.67216-9.91747a50.94962,50.94962,0,0,0-2.34092-5.11319v.024a9.20954,9.20954,0,0,0-.38775,3.80747c.0326.40454.08013.81493.14823,1.233a37.10045,37.10045,0,0,0,4.13621,10.80717C262.89812,121.26141,263.83653,122.82578,264.6196,124.07813Z"/><path class="cls-1" d="M300.031,139.87647a18.42854,18.42854,0,0,1-1.48747-1.3675c-4.7383-5.18219-10.92809-12.55954-13.38726-18.34149a3.52172,3.52172,0,0,1-.13193-.57582c-.21592-1.03161-.51577-2.39911-1.51147-2.831a1.70351,1.70351,0,0,0-1.66742.34786l-.23993.18v.28787c-.22789,8.39706,5.65,15.48653,10.36432,21.14851l.85173,1.00761c.3958.49183.80371.93571,1.19958,1.36756,1.93129,2.08723,3.2148,3.49077,1.41545,6.65762-1.04358.40785-2.2312.98367-3.47873,1.58343-3.88665,1.88334-8.73288,4.22246-12.93141,3.50274-1.58342-.27591-1.94332-1.41545-2.39917-3.28682a8.39608,8.39608,0,0,0-.77971-2.39911l-.45579-.77971-.3784.50449-.00791.01053-.15354.20471a7.64127,7.64127,0,0,0,.98367,9.83651l.1439.12h.192a28.92017,28.92017,0,0,0,3.01091.15594c9.11678,0,15.6904-4.23443,21.08845-7.68923l.32392-.21592-.06-.3839a5.99683,5.99683,0,0,1,.57582-2.31512,8.01316,8.01316,0,0,0,.79168-4.58243C301.73443,141.34,300.97873,140.69222,300.031,139.87647Z"/><path class="cls-1" d="M208.89949,217.26093l-.168.084C208.27572,217.83675,208.68357,217.5488,208.89949,217.26093Z"/><path class="cls-1" d="M190.01816,208.01228a25.28785,25.28785,0,0,1-6.51365,1.6194c-.33568.03082-.70968.07065-1.1.10153a5.83774,5.83774,0,0,1-3.29046-.42538,1.79984,1.79984,0,0,0-1.81139,3.10687,8.58741,8.58741,0,0,0,4.168,1.065,26.61546,26.61546,0,0,0,9.50709-1.98866,1.81072,1.81072,0,0,0,1.18768-1.51216C192.31876,208.784,191.43168,207.47828,190.01816,208.01228Z"/><path class="cls-1" d="M188.84141,196.6134c-.988.22645-1.91.50208-2.63787.73465-3.023.88764-9.27273,2.831-9.65656,6.47767-.144,1.29555.21585,2.39918,1.52344,2.77105.02366.00206.04746,0,.07113.002a14.38176,14.38176,0,0,0,2.11694.00365c.41513-.02669.83075-.051,1.24272-.11364a21.12132,21.12132,0,0,0,4.67832-.45585,36.59641,36.59641,0,0,0,8.25446-2.8472c.02325-.01128.04739-.02043.07057-.03178a3.20184,3.20184,0,0,0,1.65428-1.334c.01768-.02909.03047-.06087.04719-.09052a3.19447,3.19447,0,0,0,.38583-1.87426c-.16826-2.62246-1.86126-3.52537-3.92187-3.65132-.044-.00268-.08612-.00929-.13049-.01128-.245-.01094-.49486-.00963-.74758-.00083-.24213.00846-.48626.02628-.73218.05015A17.651,17.651,0,0,0,188.84141,196.6134Z"/><path class="cls-1" d="M304.6729,39.83519l-.23.00055a5.91545,5.91545,0,0,0-.80234-.00055,8.27281,8.27281,0,0,1-1.41758-.12.68515.68515,0,0,1-.30817-.2691l-.03192-.05063-.27735-.06a10.67656,10.67656,0,0,0-2.22872-7.07523l.23993-.24929-.0099-.06824a.5238.5238,0,0,1,.06493-.34559,7.5164,7.5164,0,0,1,1.17875-.919,7.1453,7.1453,0,0,0,.656-.47161l.16289-.15078a.95678.95678,0,0,0-1.23378-1.4627.61564.61564,0,0,0-.05613.05173l-.1761.164a5.77211,5.77211,0,0,0-.49857.61964,8.17933,8.17933,0,0,1-.974,1.03016.73832.73832,0,0,1-.41383.08034l-.06054-.00605-.23993.21077a10.78757,10.78757,0,0,0-6.86556-2.68548v-.30156l-.06824-.04127a.51448.51448,0,0,1-.23223-.28891,7.28946,7.28946,0,0,1,.0011-1.4616v-.76933a1.75032,1.75032,0,0,0,0-.24048.99777.99777,0,0,0-1.017-.97678H289.817l-.252.03136.07044.087a.9994.9994,0,0,0-.63725,1.04062l.0011.22343a5.25134,5.25134,0,0,0,.17059.78032,8.12227,8.12227,0,0,1,.19921,1.41978.78765.78765,0,0,1-.1893.36045l-.03742.04017v.28286a10.53456,10.53456,0,0,0-6.40772,3.71673l-.26414-.153-.06273.02311a.562.562,0,0,1-.36871.01211,8.26656,8.26656,0,0,1-1.16994-.87553,5.07581,5.07581,0,0,0-.59873-.5481l-.1915-.13207a1.096,1.096,0,0,0-.65926-.19261.92553.92553,0,0,0-.74071.40337,1.01792,1.01792,0,0,0,.32908,1.39006l.1882.12492a6.36844,6.36844,0,0,0,.7176.35275,7.94238,7.94238,0,0,1,1.23267.7308.88647.88647,0,0,1,.16509.3786l.00991.05283.22232.175a10.60093,10.60093,0,0,0-1.14449,6.89865c.02435.14232.04114.28519.0714.427l-.27405.10785-.02421.04788a.92765.92765,0,0,1-.25424.30927,7.49417,7.49417,0,0,1-1.38456.345,5.63885,5.63885,0,0,0-.76712.11942h-.21572l-.03742.00495a1.0123,1.0123,0,0,0-.70549,1.23047c.01156.02993.03522.05008.04919.07828a.998.998,0,0,0,1.11058.53517.93253.93253,0,0,0,.10043-.01252l.22672-.06328a3.49385,3.49385,0,0,0,.42593-.197c.09245-.04843.186-.0974.29717-.14583a7.06763,7.06763,0,0,1,1.32072-.51233.69818.69818,0,0,1,.405.10125l.04953.02807.28506-.06934a10.87143,10.87143,0,0,0,5.05837,5.38966l-.10126.31367.02972.05338a.74054.74054,0,0,1,.09025.36155,8.90726,8.90726,0,0,1-.613,1.31742,6.37218,6.37218,0,0,0-.39291.69888l-.01431.06164a.711.711,0,0,1-.08475.17279.96152.96152,0,0,0-.05509.26745,1.00028,1.00028,0,0,0,.58228,1.04777.96779.96779,0,0,0,.32358.05613.981.981,0,0,0,.71594-.32234.9508.9508,0,0,0,.20967-.33032.33023.33023,0,0,0,.01761-.07319.35734.35734,0,0,1,.03081-.06658.45151.45151,0,0,0,.04843-.11171,6.9524,6.9524,0,0,0,.1827-.78143,5.73066,5.73066,0,0,1,.49307-1.45445.55513.55513,0,0,1,.25424-.13868l.066-.0165.13427-.29827a10.76606,10.76606,0,0,0,6.10505-.03522,10.53451,10.53451,0,0,0,1.26459-.48426l.1739.25644.06713.0055a.5038.5038,0,0,1,.32468.15078,7.35077,7.35077,0,0,1,.64936,1.29982c.04072.0941.07374.1849.10676.2746a3.86031,3.86031,0,0,0,.20361.47821s.07924.12217.11116.18545a.95661.95661,0,1,0,1.74115-.793.88382.88382,0,0,0-.08915-.15244l-.12436-.21131a6.684,6.684,0,0,0-.48757-.6356c-.12389-.14652-.23863-.302-.35123-.45833a7.51209,7.51209,0,0,1-.45441-.70171.54055.54055,0,0,1,0-.38961l.022-.05668-.02531-.055s-.05283-.11006-.10126-.20747a10.71575,10.71575,0,0,0,4.15148-6.16448h.295l.04182-.04127a.5623.5623,0,0,1,.328-.164,7.633,7.633,0,0,1,1.42968.30817c.10456.02862.20031.06108.295.09355a3.4914,3.4914,0,0,0,.49857.13923l.175-.00275a.97812.97812,0,0,0,1.15893-.76217l.0055-.03522A1.00262,1.00262,0,0,0,304.6729,39.83519Zm-8.44933-7.4753-3.15543,2.62549a.59476.59476,0,0,1-.80344-.04842.53373.53373,0,0,1-.14308-.33019l-.56461-4.06452A8.44735,8.44735,0,0,1,296.22357,32.35989Zm-5.87722,5.31592,1.171-.09686.79464.84857-.1717,1.16114-1.01035.591-1.07419-.42979-.3533-1.07363Zm-6.79513-2.48627,3.2732,2.50058a.57766.57766,0,0,1,.13537.79078.61258.61258,0,0,1-.28175.22342l-3.83561,1.44014A8.31369,8.31369,0,0,1,283.55122,35.18954Zm4.66216,6.97453-.62012,1.905-.64668,1.98672a8.42159,8.42159,0,0,1-3.42507-3.66941l.382-.09568,3.55592-.89046.16729-.00055a.57213.57213,0,0,1,.58662.40777A.56465.56465,0,0,1,288.21338,42.16407Zm.5525-6.73074a.51709.51709,0,0,1-.34559-.0886L284.883,33.225a8.25085,8.25085,0,0,1,3.687-2.33934,5.19737,5.19737,0,0,1,.64716-.16123l.08034,4.11075A.57774.57774,0,0,1,288.76588,35.43333Zm4.75791,11.306c-.08564.02676-.174.03872-.26022.06266a8.25038,8.25038,0,0,1-4.09487.09527l.76877-1.69837.92506-2.04368a.55531.55531,0,0,1,.449-.31587l.022-.00385a.52407.52407,0,0,1,.25424-.00331.53254.53254,0,0,1,.27625.22123l2.30026,3.44984Zm2.64475-1.3642-1.86662-3.68977a.56462.56462,0,0,1,.22122-.76.63787.63787,0,0,1,.21682-.07814l.11776-.01981v-.00331l4.14047.36871A8.30008,8.30008,0,0,1,296.16854,45.37508Zm-.9212-7.33662a.57814.57814,0,0,1-.46226-.65982.54245.54245,0,0,1,.153-.31587l2.86927-2.99749a8.5796,8.5796,0,0,1,1.094,2.30576,8.3976,8.3976,0,0,1,.37971,2.49727Z"/><polygon class="cls-1" points="307.78 169.338 307.779 169.337 307.78 169.338 307.78 169.338"/><path class="cls-1" d="M312.90253,182.91715h-.00007l-.00942.0196Z"/><path class="cls-1" d="M285.32423,183.2291a6.27266,6.27266,0,0,1-.54515.77751,6.24653,6.24653,0,0,0,.58126-.81355,2.37718,2.37718,0,0,1,.24062-.23712c-.02215.01926-.0474.0324-.069.05263A2.39343,2.39343,0,0,0,285.32423,183.2291Z"/><path class="cls-1" d="M239.44165,187.54071a4.77267,4.77267,0,0,1-2.73865.70033q-.2336-.01145-.46528-.04574a7.89023,7.89023,0,0,1-4.32447-2.82415,7.91472,7.91472,0,0,0,4.36059,2.86012,4.85285,4.85285,0,0,0,5.44572-4.04857,4.80246,4.80246,0,0,0,.04828-.53379,1.599,1.599,0,0,1,.35612-1.14614,1.57093,1.57093,0,0,0-.39216,1.18219A4.79153,4.79153,0,0,1,239.44165,187.54071Z"/><path class="cls-1" d="M254.36473,185.51423c-.01128.01011-.0207.02277-.03212.03274l.04065-.03515a5.48577,5.48577,0,0,0,1.52558-2.22281,2.18222,2.18222,0,0,1,.39608-.67425,2.14382,2.14382,0,0,0-.4322.7103A5.46791,5.46791,0,0,1,254.36473,185.51423Z"/><path class="cls-1" d="M269.99874,185.13115a3.75836,3.75836,0,0,1-.6151.82525,3.832,3.832,0,0,0,.626-.813,2.83735,2.83735,0,0,0,.38006-1.18259,2.05213,2.05213,0,0,1,.5957-1.34556,1.9122,1.9122,0,0,0-.63175,1.3816A2.82228,2.82228,0,0,1,269.99874,185.13115Z"/><path class="cls-1" d="M299.11245,184.22625a5.14928,5.14928,0,0,0,.9666-1.36908,2.17516,2.17516,0,0,1,.18614-.31725,2.0327,2.0327,0,0,0-.22218.35329A5.16851,5.16851,0,0,1,299.11245,184.22625Z"/><path class="cls-1" d="M30.366,434.36712q1.64823.2349,4.15177.76282a22.65533,22.65533,0,0,1,4.269,1.29027,5.67705,5.67705,0,0,1,3.12066,2.463,8.415,8.415,0,0,1,.64822,3.51917v46.978q0,10.20589-4.02642,15.24942a13.397,13.397,0,0,1-11.07681,5.0432,8.39406,8.39406,0,0,1-3.58493-.82046A4.36015,4.36015,0,0,1,21.57537,506.86v-.76185a40.35124,40.35124,0,0,0,5.9483-5.889,10.75989,10.75989,0,0,0,2.60788-6.94523,9.98253,9.98253,0,0,0-3.0181-7.3841,11.02992,11.02992,0,0,0-8.11666-2.98881,10.58619,10.58619,0,0,0-8.46828,3.57485,13.34494,13.34494,0,0,0-3.07671,9.025q0,9.2018,6.71016,14.47519,6.70966,5.27436,17.66911,5.27436a38.69694,38.69694,0,0,0,11.89661-1.78808A32.34,32.34,0,0,0,53.80757,508.144a25.32046,25.32046,0,0,0,7.00318-8.85441A26.34782,26.34782,0,0,0,63.36,487.67691V441.81536a9.81414,9.81414,0,0,1,.67395-3.75359,4.20317,4.20317,0,0,1,3.07671-2.28718q2.05065-.52745,3.692-.82046,1.63993-.294,3.98507-.587V429.796H30.366Z"/><path class="cls-1" d="M132.337,503.37367a17.09048,17.09048,0,0,1-9.90408,3.01745q-10.08037,0-14.7096-6.27063-4.63022-6.26966-4.62972-18.28445h39.61631v-3.80926a29.75429,29.75429,0,0,0-1.5237-9.52283,19.988,19.988,0,0,0-4.86413-7.88224,23.86711,23.86711,0,0,0-8.732-5.50877,38.65133,38.65133,0,0,0-13.47893-1.99254,34.35471,34.35471,0,0,0-13.56682,2.57858,29.89291,29.89291,0,0,0-10.05059,6.73946,30.81358,30.81358,0,0,0-8.439,21.21432,36.21614,36.21614,0,0,0,2.02184,12.2782,26.49089,26.49089,0,0,0,6.12412,9.81552,29.346,29.346,0,0,0,10.40221,6.62225,41.09983,41.09983,0,0,0,14.97333,2.46137,33.80193,33.80193,0,0,0,9.23013-1.14213,36.11425,36.11425,0,0,0,7.94084-3.37038,30.05848,30.05848,0,0,0,6.593-5.0686,35.67631,35.67631,0,0,0,4.952-6.30058l-4.4539-3.22322A28.25962,28.25962,0,0,1,132.337,503.37367Zm-26.3132-40.93523q2.69481-4.57112,7.20829-4.57112a6.694,6.694,0,0,1,4.366,1.4065,9.28808,9.28808,0,0,1,2.72509,4.16089,24.00745,24.00745,0,0,1,1.23068,6.03588q.35163,3.69205.35163,7.2083l-18.81189.23441Q103.327,467.01119,106.02375,462.43844Z"/><path class="cls-1" d="M221.82528,507.27018a4.54257,4.54257,0,0,1-2.40276-2.05114,7.781,7.781,0,0,1-.64465-3.45764v-28.716q0-8.96593-4.77622-14.387-4.77721-5.41989-14.32869-5.42087a27.41229,27.41229,0,0,0-7.50131.99627,21.06245,21.06245,0,0,0-5.68459,2.40276,38.34909,38.34909,0,0,0-4.3367,3.34043q-2.34513,2.05212-3.98507,3.51624h-.23441v-8.49758l-.87906-.87906-27.95412,1.5237v4.27809a18.82271,18.82271,0,0,1,3.54554.64465,9.69647,9.69647,0,0,1,2.66649,1.17208,8.39679,8.39679,0,0,1,2.46136,2.8716,7.5286,7.5286,0,0,1,.93767,3.57484v34.10721a7.59856,7.59856,0,0,1-.70325,3.51624,4.302,4.302,0,0,1-2.57858,1.99254,14.31255,14.31255,0,0,1-2.54927.55739q-1.4944.20511-2.9595.32167v4.27809H185.5494v-4.27809a18.18955,18.18955,0,0,1-2.75439-.586,11.14635,11.14635,0,0,1-2.34416-.93767,4.08757,4.08757,0,0,1-1.93393-2.07979,8.767,8.767,0,0,1-.586-3.429V470.17384q.70422-.93572,1.73337-2.168a13.494,13.494,0,0,1,2.7329-2.40277,16.34173,16.34173,0,0,1,3.96619-2.05114,13.269,13.269,0,0,1,4.37772-.70324,7.53026,7.53026,0,0,1,6.49333,3.0181q2.2035,3.01908,2.20416,8.99539v27.42668a9.63594,9.63594,0,0,1-.52744,3.63345,3.7266,3.7266,0,0,1-1.75812,1.87533,7.3885,7.3885,0,0,1-2.40276.586q-1.58232.17582-2.69579.293v4.27809h35.221v-4.27809a16.86153,16.86153,0,0,1-3.13531-.586A19.99109,19.99109,0,0,1,221.82528,507.27018Z"/><path class="cls-1" d="M298.02417,503.81515q-5.3232-7.90764-10.17951-14.99481-4.85535-7.08718-10.58845-15.405,2.92239-2.58639,5.17148-4.31976,2.24941-1.73322,4.6486-3.31666a52.95546,52.95546,0,0,1,6.69909-3.83857,61.44826,61.44826,0,0,1,8.92344-3.07671v-4.04367H272.928v4.16088a27.70009,27.70009,0,0,1,5.56934,1.23068q1.84992.70326,1.85058,1.75813a9.82829,9.82829,0,0,1-.20511,1.26,7.69282,7.69282,0,0,1-2.139,3.01713q-3.27889,3.34043-8.69293,8.43833-5.414,5.09855-9.74454,8.96511V423.17375l-.881-.93767-29.18284,1.52371v4.27809a28.987,28.987,0,0,1,4.04367.586,10.5274,10.5274,0,0,1,3.34043,1.17208,6.53054,6.53054,0,0,1,2.49067,3.13532,10.60827,10.60827,0,0,1,.84976,4.01437v65.34315a7.83192,7.83192,0,0,1-.6785,3.51624,4.20152,4.20152,0,0,1-2.56686,1.99254,16.1516,16.1516,0,0,1-2.59616.55739q-1.47486.20511-2.94908.32167v4.27809h36.39309v-4.27809a17.54223,17.54223,0,0,1-2.813-.46883,14.98926,14.98926,0,0,1-2.46137-.82046,3.90771,3.90771,0,0,1-2.37346-1.99254,8.36356,8.36356,0,0,1-.61534-3.45763V489.16154l3.45177-2.91978q3.74773,5.31929,7.96364,11.545,4.21557,6.22473,9.31022,15.168h27.62268v-4.27809a22.09078,22.09078,0,0,1-5.38506-1.17208A8.86884,8.86884,0,0,1,298.02417,503.81515Z"/><path class="cls-1" d="M340.08818,507.153a5.32115,5.32115,0,0,1-2.52-2.13839,6.55468,6.55468,0,0,1-.87906-3.48759V454.99573l-.87906-.87906-28.716,1.5237v4.27809a20.86556,20.86556,0,0,1,3.89717.82046,12.47119,12.47119,0,0,1,3.19392,1.34789,7.7748,7.7748,0,0,1,2.34416,2.49067,6.84352,6.84352,0,0,1,.93766,3.60415v34.10721a6.94637,6.94637,0,0,1-.76185,3.48759,4.85952,4.85952,0,0,1-2.63718,2.02119,10.38949,10.38949,0,0,1-2.52.586q-1.46608.17582-2.98881.293v4.27809H345.597v-4.27809a17.60784,17.60784,0,0,1-2.9302-.586A19.56258,19.56258,0,0,1,340.08818,507.153Z"/><path class="cls-1" d="M325.49578,443.74376a11.626,11.626,0,0,0,8.11666-3.13532,9.91106,9.91106,0,0,0,3.42833-7.58922,10.04325,10.04325,0,0,0-3.399-7.61852,12.10417,12.10417,0,0,0-16.32122,0,10.14665,10.14665,0,0,0,0,15.20774A11.69876,11.69876,0,0,0,325.49578,443.74376Z"/><path class="cls-1" d="M422.89565,507.27018a4.54257,4.54257,0,0,1-2.40276-2.05114,7.781,7.781,0,0,1-.64465-3.45764v-28.716q0-8.96593-4.77622-14.387-4.77722-5.41989-14.32869-5.42087a27.41229,27.41229,0,0,0-7.50131.99627,21.06245,21.06245,0,0,0-5.68459,2.40276,38.34909,38.34909,0,0,0-4.3367,3.34043q-2.34513,2.05212-3.98507,3.51624h-.23441v-8.49758l-.87906-.87906-27.95412,1.5237v4.27809a18.82271,18.82271,0,0,1,3.54554.64465,9.69647,9.69647,0,0,1,2.66649,1.17208,8.39679,8.39679,0,0,1,2.46136,2.8716,7.5286,7.5286,0,0,1,.93767,3.57484v34.10721a7.59856,7.59856,0,0,1-.70325,3.51624,4.302,4.302,0,0,1-2.57858,1.99254,14.31255,14.31255,0,0,1-2.54927.55739q-1.49441.20511-2.9595.32167v4.27809h35.63124v-4.27809a18.18955,18.18955,0,0,1-2.75439-.586,11.14635,11.14635,0,0,1-2.34416-.93767,4.08757,4.08757,0,0,1-1.93393-2.07979,8.767,8.767,0,0,1-.586-3.429V470.17384q.70422-.93572,1.73337-2.168a13.494,13.494,0,0,1,2.7329-2.40277,16.34173,16.34173,0,0,1,3.96619-2.05114,13.269,13.269,0,0,1,4.37772-.70324,7.53026,7.53026,0,0,1,6.49333,3.0181q2.2035,3.01908,2.20416,8.99539v27.42668a9.63594,9.63594,0,0,1-.52744,3.63345,3.7266,3.7266,0,0,1-1.75812,1.87533,7.3885,7.3885,0,0,1-2.40276.586q-1.58231.17582-2.69579.293v4.27809h35.221v-4.27809a16.86153,16.86153,0,0,1-3.13531-.586A19.99109,19.99109,0,0,1,422.89565,507.27018Z"/><path class="cls-1" d="M483.26625,482.92087q-4.8573-4.659-15.32886-7.35546a50.41768,50.41768,0,0,1-10.55979-3.75066,6.75821,6.75821,0,0,1-3.77345-6.44611,6.08511,6.08511,0,0,1,2.57858-5.21576,11.84641,11.84641,0,0,1,7.09109-1.87533,15.88775,15.88775,0,0,1,10.72453,4.42461,24.23277,24.23277,0,0,1,7.03248,10.51909h4.10228l-.93766-19.98364h-4.45391l-1.23068,3.45763a49.60781,49.60781,0,0,0-7.53062-2.37346,41.7598,41.7598,0,0,0-9.81617-1.08417q-11.252,0-18.19654,5.09855a15.8269,15.8269,0,0,0-6.94458,13.36139,16.54693,16.54693,0,0,0,5.8018,13.1859,23.338,23.338,0,0,0,5.8897,3.78061,64.34272,64.34272,0,0,0,6.82737,2.37281q3.98409,1.174,6.71016,1.99254a29.929,29.929,0,0,1,5.01064,1.99253,10.03583,10.03583,0,0,1,3.22322,2.63718,6.16862,6.16862,0,0,1,1.17208,3.86787q0,4.33864-2.60788,6.41779-2.60787,2.08044-7.94084,2.07979a16.39917,16.39917,0,0,1-7.58922-1.81672,26.49153,26.49153,0,0,1-6.29993-4.45391,32.75985,32.75985,0,0,1-4.68832-5.94765,29.028,29.028,0,0,1-2.9302-5.949h-4.2781l.76186,21.85929h4.57111l1.75812-3.98507a36.3023,36.3023,0,0,0,8.40968,3.54619,37.49907,37.49907,0,0,0,11.10546,1.66957q12.131,0,19.66164-5.27436,7.52964-5.27436,7.53062-14.88542A15.7336,15.7336,0,0,0,483.26625,482.92087Z"/></svg>