<svg xmlns="http://www.w3.org/2000/svg" role="img" viewBox="-3.21 -5.71 501.42 530.92"><defs><style>.cls-2{fill:#d23933}.cls-3{fill:#221f1f}.cls-4{fill:#f0d6b7}.cls-5{fill:#326ce5}.cls-6{fill:#8a5d3b}.cls-7{fill:#f6e3cd}.cls-8{fill:#159fd6}.cls-9{fill:#fff}.cls-10{fill:#dbd8d7}.cls-14{fill:#f2b445}.cls-15{fill:#f5e776}.cls-16{fill:#1a1715}</style></defs><path fill="none" d="M299.462 344.09l-.857-.096a13.076 13.076 0 0 0-1.393.19 4.498 4.498 0 0 1 1.767.015h.048c1.027 8.958 4.576 18.025 4.13 27.84-1.41.474-2.603.926-3.796 1.312 1.36-.419 2.682-.93 4.278-1.468h-.036c.447-9.804-3.103-18.883-4.141-27.793zm-8.512 1.304c0 .027 0 .057-.002.084a17.104 17.104 0 0 0 3.786-.726 17.472 17.472 0 0 1-3.784.642z"/><path d="M285.88 213.479a40.367 40.367 0 0 1 2.112-1.494c-.078.007-.16.021-.239.029l-.231.165a12.426 12.426 0 0 0-1.643 1.3zm-113.416-8.581c.399-5.19 3.369-7.835 7.594-9.875a32.273 32.273 0 0 1 5.84-2.25l-.013-.028a32.274 32.274 0 0 0-5.851 2.254c-4.226 2.04-7.244 4.684-7.594 9.875a18.36 18.36 0 0 0-.027 2.801l.021-.008a18.351 18.351 0 0 1 .03-2.769zM372.56 98.481a17.5 17.5 0 0 0-8.26-10.367l-24.366-11.742a8.1 8.1 0 0 1 .396.647c3.223 4.528 3.223 6.532 0 12.87a32.156 32.156 0 0 1-6.902 5.53c2.7 21.729-.253 43.856-5.365 65.437a96.849 96.849 0 0 1-5.13 14.777c-1.667 3.38-9.539 14.09-8.91 17.18a2.491 2.491 0 0 0 .095.297l2.447 2.23.108.069c2.77 1.32 7.656 2.534 14.65 5.433 5.843 1.28 9.465 1.28 14.09 7.316a128.193 128.193 0 0 1-5.88 26.742c-5.228 17.47-10.323 33.624-16.239 49.199 9.646-4.818 25.897-12.225 36.07-7.053l37.377-46.866a17.484 17.484 0 0 0 2.908-12.918z" class="cls-2"/><path d="M140.482 253.493c-2.088-6.423-7.014-16.106-7.956-22.516-1.4-9.502 8.451-17.712 14.488-18.11 11.71-1.606 10.069-.399 17.748-2.016a37.24 37.24 0 0 1 3.98-1.745 16.074 16.074 0 0 1-.262-5.994c.893-5.832 4.83-8.452 9.84-10.866a49.656 49.656 0 0 1 5.971-2.512c-1.759-3.14-3.607-6.005-4.209-7.328a37.728 37.728 0 0 1-3.694-13.824 26.633 26.633 0 0 1-17.796-11.433c-5.81-8.519-9.903-23.94-5.681-36.237-1.874-2.911-5.41-8.348-7.962-11.91-7.654-6.605-7.4-7.003-3.622-16.263 3.056-6.794 4.795-10.27 6.52-12.629l-16.52 7.955a17.5 17.5 0 0 0-8.26 10.411L95.928 217.36a17.422 17.422 0 0 0 2.906 12.914l53.076 66.451a166.268 166.268 0 0 0-4.075-22.708c-1.86-7.243-5.095-13.594-7.353-20.524zm116.366-6.331a63.78 63.78 0 0 0 2.881-2.244c2.854-2.34 5.526-4.792 8.294-6.71a479.2 479.2 0 0 0 .17-4.22 13.7 13.7 0 0 1-.397.114 10.828 10.828 0 0 1-7.934-.614c-7.751-4.226-.423-2.982-3.163-8.584-.568-1.171-8.572-3.019-10.118-3.019-10.153 0-14.029-2.052-12.966 9.659q.791 8.857 1.49 17.722c.088.24.172.476.248.702.18.538.321 1.08.466 1.597q.685 1.293 1.253 2.395a1.848 1.848 0 0 0 .696.342c1.926.45 6.779-1.09 10.622-2.606a62.75 62.75 0 0 0 2.857-1.203 24.753 24.753 0 0 0 1.685-.815 35.955 35.955 0 0 0 3.916-2.516z" class="cls-2"/><path d="M407.457 215.816L380.275 96.601l-.057-.219a25.394 25.394 0 0 0-12.162-15.265l-31.475-15.17c.222-1.276.464-2.675.73-4.224 4.781-8.85 6.93-14.585 5.433-20.525s-8.246-17.252-17.289-22.939c-7.388-4.636-23.953-13.256-33.95-13.679-16.165 0-46.24 1.968-60.28 10.48-10.625 6.447-27.926 20.862-41.605 32.199-2.188 2.134-7.572 6.078-13.635 10.493l-48.212 23.212-.205.106a25.388 25.388 0 0 0-12.164 15.323L88.163 215.701l-.042.207a25.317 25.317 0 0 0 4.29 19.035l60.795 76.126c.234 3.237.446 6.484.665 9.756.387 6.121-.265 12.617 1.329 16.01s7.726 4.611 12.073 6.652c12.689 5.867 26.15 14.837 42.8 13.05 3.971 13.341 7.726 27.552 12.483 39.238 17.071 6.134 44.019 5.18 61.766 3.043 5.385-.652 11.083-3.308 12.351-7.993a47.465 47.465 0 0 1-.616-9.139c5.542-1.147 13.1-2.1 14.32-8.234 1.713-8.62-5.446-20.959-3.055-30.4 2.58-.844 5.295-1.537 6.002-4.403a25.713 25.713 0 0 0 10.885-5.512 56.728 56.728 0 0 1 7.935-.202 14.486 14.486 0 0 0 3.26 4.285c9.598 1.932 18.906 2.09 26.875-.507 9.03-2.945 13.34-21.405 11.276-30.182a138.357 138.357 0 0 0-7.606-22.432 18.155 18.155 0 0 0-.821-1.55l37.898-47.515.143-.19a25.38 25.38 0 0 0 4.288-19.028zM396.74 230.18l-37.376 46.866c-10.174-5.172-26.425 2.235-36.07 7.053 5.915-15.575 11.01-31.729 16.238-49.199a128.193 128.193 0 0 0 5.88-26.742c-4.625-6.036-8.247-6.036-14.09-7.316-6.994-2.899-11.88-4.112-14.65-5.433a4.356 4.356 0 0 1-2.555-2.3 2.491 2.491 0 0 1-.096-.296c-.628-3.09 7.244-13.8 8.91-17.18a96.849 96.849 0 0 0 5.131-14.777c5.112-21.582 8.065-43.708 5.365-65.437-.623.36-1.28.701-1.968 1.029-.228.109-.454.219-.691.325-.225.1-.462.197-.694.294-.576.242-1.17.479-1.804.709.363 4.35.485 8.985.722 13.64 1.174 22.673-3.346 45.983-13.231 63.956a15.403 15.403 0 0 0-1.8-5.087 24.906 24.906 0 0 0-6.906-6.894 31.149 31.149 0 0 0-8.644-4.226 44.139 44.139 0 0 0-9.768-1.81c-3.308-.363-6.58-1.292-9.96-1.292s-6.737.953-10.009.953c-3.5.037-7.123-.917-10.745-.736a78.985 78.985 0 0 0-10.672 1.424 40.663 40.663 0 0 0-9.997 3.791c-4.588 2.174-7.594 6.158-9.912 10.625-1.714 3.296-2.487 6.556-1.014 10.081.072.06.048.109.072.193s-.169.254-.169.338c1.596 3.387 4.55 6.413 8.35 6.895a730.712 730.712 0 0 0-4.762 1.504c-5.61-5.843-10.351-12.572-15.504-19.723.288 8.065 5.745 14.821 11.364 21.067-1.428.472-2.617.877-3.468 1.183-3.465 1.256-6.616 3.296-10.009 4.745-1.75.732-3.857 1.887-5.89 2.801a27.73 27.73 0 0 1-1.543.646c.064-.089.292-.336.238-.598-1.618-5.48-4.83-10.865-10.866-12.362a13.28 13.28 0 0 0-3.649-.366 99.244 99.244 0 0 1-5.539-15.982 31.392 31.392 0 0 1-1.026-6.87c.71-3.87 7.455-5.626 5.113-10.894-.046-.104-.073-.201-.127-.31-5.107 0-6.254 4.65-10.938 5.108-5.092.507-9.55-2.25-12.975-6.384-4.734-5.716-7.486-14.07-7.163-20.117.458-8.874 7.956-17.361 18.206-16.238 5.817.64 8.517 5.866 10.107 11.52.39 1.387.715 2.798 1 4.175 4.178.217 10.214-.181 12.194-3.44-.206-5.672-2.137-10.54-3.14-15.514a26.147 26.147 0 0 1-.59-6.122c.045-.83.114-1.659.196-2.486l-.56-.045-.708-.059-.451-.037-.167-.014q-.964-.08-1.861-.157a783.473 783.473 0 0 1-4.13-.366l-1.028-.095a660.999 660.999 0 0 1-3.05-.29s.521-.358 1.432-.968c-4.976 2.203-3.065.676-10.705 6.255a49.952 49.952 0 0 0-9.555 1.734c-.271.077-.546.141-.816.222a30.471 30.471 0 0 0-4.17 1.74l-.03.015c-.092 0-.183.004-.275.003h-.05a7.249 7.249 0 0 1-1.402-.161c.386-.406.802-.835 1.233-1.275l.046-.047.248-.252.03-.032c5.466-5.526 14.24-13.329 23.471-18.56 15.188-9.537 35.048-17.24 50.707-22.72 14.06-4.922 33.203-8.659 44.985-10.404 1.341-.198 2.612-.378 3.743-.523 3.553-.457 6.577-.793 9.524-.96a70.72 70.72 0 0 1 9.708.11c3.459.267 7.35.776 12.218 1.598.134.023.252.046.384.069 10.577 1.814 15.86 3.837 17.84 4.74q-.373 1.732-.886 3.43a42.736 42.736 0 0 1-.493 1.546c.456.213 1.31.66 2.331 1.274a34.298 34.298 0 0 1 1.457.928q.326.22.657.455a17.784 17.784 0 0 1 4.441 4.248L364.3 88.114a17.5 17.5 0 0 1 8.26 10.368l27.089 118.78a17.484 17.484 0 0 1-2.908 12.918zm-33.1 68.102c1.184 4.47 2.202 9.228 2.936 12.534 1.462 6.69-.332 13.248-4.07 17.388a12.987 12.987 0 0 1-6.555 4.03h.036c-5.722 1.389-14.487 1.75-18.242-.06 3.66-1.994 8.773-2.415 13.393-3.377a32.423 32.423 0 0 0 3.389-.86c-6.81-2.93-16.527-.767-25.046-.696a41.24 41.24 0 0 1-2.94-.065q-.113-1.158-.222-2.328c-.178-1.888-.353-3.793-.534-5.698-.834-8.798-1.8-17.568-3.844-24.39a13.522 13.522 0 0 1 2.331-1.941c6.134-4.116 16.792-5.673 23.192-9.771 1.388-.749.543-.374 2.62-.93a10.55 10.55 0 0 1 9.586 5.313 12.009 12.009 0 0 1 .65 1.145 53.94 53.94 0 0 1 3.32 9.706zm-202.055 32.08a288.85 288.85 0 0 0-.434-9.343q-.212-3.486-.509-6.997-.305-3.611-.699-7.237c-2.92-26.79-9.51-53.967-19.8-76.038.025-.22.057-.423.086-.634a19.526 19.526 0 0 1 .625-3.049c1.015.145 2.021.331 3.022.541a47.162 47.162 0 0 1 12.776 4.692c.537.29 1.075.577 1.601.889 5.445-3.296 15.828-7.884 15.828-7.884l3.783-1.383c5.514 5.73 14.308 12.832 20.919 9.448 3.437-1.75 5.09-5.846 6.193-9.494a52.971 52.971 0 0 0 6.013 7.973c1.955 2.571 8.004 12.157 9.417 12.834 1.859.88 4.032-11.132 5.855-10.263.543 3.997 1.207 5.023 3.393 11.953 2.414 7.654 3.489 17.071 14.488 12.942a50.465 50.465 0 0 0 3.724-1.59q1.446-.68 2.876-1.44c.278-.149.554-.301.831-.453a2.153 2.153 0 0 0-.14 1.757c2.322 7.26 3.178 14.749 3.717 22.286.173 2.423.316 4.85.46 7.276l.085 1.4c-18.224 1.018-38.824 2.916-54.31 4.938-.813.107-1.638.213-2.421.32a35.399 35.399 0 0 1-5.276-14.018 17.808 17.808 0 0 0-1.335-4.721c-1.236-2.651-2.818-3.228-3.555-1.52-1.871 4.358-1.026.422 4.89 19.317 1.207 4.032-2.161-4.66-5.977-6.037-1.497 4.709 1.389 4.552 3.622 7.606s-7.46-1.352-7.425 4.528c.307.049.64.09.993.124 5.224.516 15.286-.36 20.16 1.699q.255 2.987.548 5.94c.812 8.218 1.83 16.308 2.958 24.63q.268 1.975.545 3.971c.181 1.31.365 2.637.551 3.963.441 3.149.89 6.33 1.35 9.595-19.127-.991-32.037-9.841-45.916-16.81a140.548 140.548 0 0 0-3.512-1.71zM98.834 230.275a17.422 17.422 0 0 1-2.906-12.914l27.139-118.884a17.5 17.5 0 0 1 8.26-10.41l16.52-7.956c-1.725 2.358-3.464 5.835-6.52 12.629-3.779 9.26-4.032 9.658 3.622 16.262 2.551 3.563 6.088 9 7.962 11.911-4.222 12.296-.129 27.718 5.681 36.237a26.633 26.633 0 0 0 17.796 11.433 37.728 37.728 0 0 0 3.694 13.824c.602 1.323 2.45 4.187 4.21 7.328a49.656 49.656 0 0 0-5.972 2.512c-5.01 2.414-8.947 5.034-9.84 10.866a16.074 16.074 0 0 0 .262 5.994 37.24 37.24 0 0 0-3.98 1.745c-7.679 1.617-6.037.41-17.748 2.016-6.037.398-15.888 8.608-14.488 18.11.942 6.41 5.868 16.093 7.956 22.516 2.258 6.93 5.494 13.28 7.353 20.524a166.268 166.268 0 0 1 4.075 22.708zM212.511 38.409l1.279-1.036c9.812-7.935 13.2-10.285 28.095-19.898 22.734-5.627 30.231-6.701 43.584-7.643h.048c17.229 2.946 26.139 6.435 36.473 12.448 8.91 5.167 12.424 10.069 15.442 20.427.47 5.276.205 8.959-4.226 17-.044.45-.124.893-.183 1.341a72.199 72.199 0 0 0-16.321-4.682 98.13 98.13 0 0 0-2.197-.366c-4.566-.705-7.95-1.287-11.088-1.659 1.106-1.637 1.56-2.368 2.182-3.326.415-.64.906-1.383 1.723-2.573 2.136-3.115 1.69-3.429 3.827-6.556a4.72 4.72 0 0 0 .893-4.189c-1.123-3.622-.82-3.694-1.956-7.244s-1.702-3.429-2.825-7.026a4.83 4.83 0 0 0-2.704-3.345c-3.55-1.364-3.465-1.557-7.015-2.921l-7.038-2.777a7.205 7.205 0 0 0-4.66.277c-3.297 1.896-3.08 2.258-6.363 4.166s-3.453 1.618-6.737 3.513a5.385 5.385 0 0 0-2.354 3.863c-.55 3.697-.403 3.76-.94 7.39l-.014.096c-.305 2.044-.475 2.962-.656 3.987-.15.845-.306 1.764-.551 3.45a5.296 5.296 0 0 0 1.098 3.682c.109.133-.18.604-.06.725 2.584 2.764 2.692 2.656 5.288 5.42 2.38 2.535 2.938 2.398 5.013 4.477a276.392 276.392 0 0 0-46.666 10.94c-15.61 4.939-39.732 16.179-49.005 21.95a155.563 155.563 0 0 0-20.18 15.42q-1.138.994-2.317 2.043-1.365 1.215-2.792 2.507-.891.808-1.811 1.65-1.225 1.121-2.5 2.3l-1.158 1.075-.185-.301-.113-.185a94.205 94.205 0 0 1-.474-.785c-.574-.96-1.262-2.135-2.105-3.61-10.649-8.451-1.69-11.627.808-21.732 6.754-7.158 16.765-14.284 25.186-20.27 4.661-3.314 8.842-6.284 11.698-8.705a318.095 318.095 0 0 1 3.78-3.155c6.136-5.04 10.4-8.127 14.965-11.607 1.84-1.403 3.73-2.87 5.812-4.556zm-10.926 166.103a1.108 1.108 0 0 0 .321.566c.407.357 1.067.215 1.767.098a11.947 11.947 0 0 0 2.113-.567l-.01-.029a29.843 29.843 0 0 0 2.419-.982c1.34-.6 2.655-1.247 3.833-1.754q5.59-2.39 11.313-4.455c.832-.302 2.774-.923 5.283-1.706l.057.06c1.346-.418 2.856-.885 4.455-1.376l-.064-.059c2.46-.755 5.116-1.564 7.674-2.34l.033.062c5.59-1.704 10.712-3.254 12.237-3.72 1.763-.531 3.502-1.207 5.288-1.654l.005-.001a12.792 12.792 0 0 0 3.053 1.877l.045.015c-4.543 1.345-11.692 3.683-19.093 6.29a501.85 501.85 0 0 0-6.092 2.19 402.46 402.46 0 0 0-4.623 1.727c-6.69 2.548-12.555 5.013-15.563 6.772a60.357 60.357 0 0 0-3.868 2.316c-.576.371-1.156.735-1.719 1.125-.573.397-1.128.821-1.687 1.238l-.021.016c-.092.068-.185.134-.276.202-.137.104-.278.2-.414.305-.228.175-.453.355-.678.533-.23.183-.454.375-.682.562-.488.398-.984.787-1.46 1.2a7.643 7.643 0 0 0-1.406 1.83 9.357 9.357 0 0 0-.515 1.076l-.044.104a26.863 26.863 0 0 0-.992 3.444c-.048.198-.095.395-.146.597a22.817 22.817 0 0 1-2.85 7.401c-1.67 2.506-3.19 3.375-5.155 3.162a10.313 10.313 0 0 1-3.042-.88 39.16 39.16 0 0 1-10.264-6.916l.068-.025a39.458 39.458 0 0 1-2.38-2.409l-.076.024a39.176 39.176 0 0 1-3.176-4.015c-.241-.35-.459-.7-.676-1.062l-2.934.82a40.566 40.566 0 0 0 2.994 4.142c.28.336.585.696.914 1.074-10.748 3.9-15.906 9.05-19.337 5.76-1.97-.986-4.674-2.103-7.19-3.083a224.103 224.103 0 0 0-4.677-1.76c1.763-1 4.172-1.387 7.472-1.218a33.457 33.457 0 0 1 4.019-1.706c3.953-1.44 9.371-2.982 15.086-4.605.252.463.514.922.792 1.373l2.933-.821a18.336 18.336 0 0 1-.694-1.415l.013-.003a18.59 18.59 0 0 1-1.506-5.958c-.007-.096-.022-.191-.028-.287l-.02.008a18.36 18.36 0 0 1 .026-2.8c.35-5.192 3.368-7.836 7.594-9.877a32.274 32.274 0 0 1 5.85-2.253l.014.027c.378-.106.756-.217 1.139-.309.44-.099.854-.16 1.268-.222.246-.036.49-.07.726-.093l.09-.006c.22-.02.433-.033.645-.043a11.063 11.063 0 0 1 2.467.147l-.003-.008a8.965 8.965 0 0 1 1.911.547c4.123 1.767 6.066 6.49 7.444 11.727zm119.669 123.774h.036c-2.948.562-4.923 2.216-8.352 2.247-.18.002-.346.019-.534.011-.183-2.257-.444-4.54-.734-6.83-1.221-9.648-3.168-19.467-4.095-28.532 3.212-.17 1.207-.073 5.88-.266l1.943.242c3.742 6.47 5.267 16.178 5.717 24.997.082 1.597.126 3.159.144 4.672.013 1.188.013 2.35-.005 3.46zm-60.816-41.103l-.18-2.866c-.595-9.463-1.264-18.926-4.163-28.023a2.324 2.324 0 0 0-2.4-1.666 106.447 106.447 0 0 0 9.005-5.94 99.01 99.01 0 0 0 2.762-2.097 32.207 32.207 0 0 0 3.056-2.624c1.244-1.412 1.787-2.125 2.717-3.15a5.67 5.67 0 0 0 4.629-.152c.183-.075.363-.155.542-.237l.14-.063c.134-.063.267-.128.4-.192 1.4-.68 2.722-1.406 4.14-1.252 3.622.386 9.164 3.622 17.108 4.274s12.279 1.002 14.391-2.077c2.17-4.095 3.078-11.607 2.52-18.76l6.97 2.28-.302-4.527-1.841-7.349-.73-2.913-.383-1.041 7.482 1.946 12.511 1.701c.061.308.117.628.165.98a9.476 9.476 0 0 1-.295 2.549c-1.01 4.933-4.157 14.597-4.606 16.852-2.415 12.218-8.029 28.36-13.28 41.157-1.932 4.66-3.768 10.48-6.303 11.482-6.99 2.632-15.43-.386-21.345 3.296h.036c-2.124 1.25-4.675.794-8.387.157a178 178 0 0 0-1.732-.289l-.583-.093c-.19-.03-.388-.057-.583-.086a55.112 55.112 0 0 0-8.824-.631 5.315 5.315 0 0 0 1.287-3.694 5.028 5.028 0 0 0-.501-2.227 5.367 5.367 0 0 0-1.813-2.215 3.966 3.966 0 0 0-2.902-.641c-3.074.457-5.02 1.892-5.44 4.25a5.682 5.682 0 0 0-.09 1.002l.002.122a5.624 5.624 0 0 0 1.564 3.667q-2.294.09-4.672.205-.037-.557-.072-1.115zm-35.299-57.57a1.096 1.096 0 0 0-.781.436c-1.025 1.068-2.428 4.118-4.809 9.077-3.94-7.31-4.79-8.264-9.502-13.111l-.458-.471a120.799 120.799 0 0 0-2.574-3.863q-.58-.843-1.122-1.623c.024-.152.05-.303.073-.456.129-.825.257-1.656.437-2.442a10.246 10.246 0 0 1 .433-1.456v-.181a14.016 14.016 0 0 1 2.475-1.606 36.227 36.227 0 0 1 1.632-.975c5.254 1.15 11.487 1.899 15.307 2.569a22.21 22.21 0 0 1-.652 5.04 39.88 39.88 0 0 0-.592 5.164 26.532 26.532 0 0 0-.018 1.697c.004.153.013.308.019.461.024.574.062 1.153.132 1.74zm3.586-48.233a8.934 8.934 0 0 1 .531-6.532 21.598 21.598 0 0 1 7.04-9.079 28.468 28.468 0 0 1 11.227-4.527 94.171 94.171 0 0 1 12.073-1.34c3.055-.17 6.17.29 9.236.217s6.097.17 9.188.23 6.157-.097 9.2.144a40.123 40.123 0 0 1 10.322 2.27 25.825 25.825 0 0 1 9.186 5.082h.002c3.513 3.249 7.34 8.73 5.155 13.668l-.01.02a8.474 8.474 0 0 1-.321.663 8.423 8.423 0 0 1-4.124 3.772 5.145 5.145 0 0 1-3.765-.405 2.753 2.753 0 0 1-1.631-2.903c.238-1.677-1.842-2.97-2.868-1.527a2.189 2.189 0 0 0-.187.32 5.182 5.182 0 0 1-.973 1.377c-2.677 2.726-8.11 2.374-10.219-1.148a2.406 2.406 0 0 0-.222-.21 2.573 2.573 0 0 0-2.838-.164 2.932 2.932 0 0 0-.562.482 6.287 6.287 0 0 1-.585.82c-3.02 3.609-9.66 3.387-11.97-.82-.553-1.042-1.36-1.092-1.913-.581a2.065 2.065 0 0 0-.6 1.354 2.856 2.856 0 0 1-.382 1.19 3.856 3.856 0 0 1-.63.819 5.984 5.984 0 0 1-2.398 1.401l-.068.023a4.89 4.89 0 0 1-2.256.19 6.321 6.321 0 0 1-1.359-.422l-.049-.021a11.995 11.995 0 0 1-3.939-2.993 24.14 24.14 0 0 1-1.185-1.394 1.14 1.14 0 0 0-1.919-.148 2.196 2.196 0 0 0-.399.68 5.521 5.521 0 0 1-1.535 2.236l-.04.036a6.192 6.192 0 0 1-4.832 1.369 5.664 5.664 0 0 1-4.688-3.642 1.704 1.704 0 0 0-2.768-.791 1.61 1.61 0 0 0-.359 1.153 4.775 4.775 0 0 1-2.328 3.941 4.785 4.785 0 0 1-3.201.671 7.966 7.966 0 0 1-4.389-2.878c-.18-.216-.348-.44-.51-.666-.034-.047-.072-.091-.105-.138a11.816 11.816 0 0 1-1.033-1.799zm75.337 154.742c-4.939 1.024-8.52 1.615-13.776 2.35-.08-1.051-.156-2.099-.233-3.147q-.146-1.987-.281-3.97c-.527-7.648-.937-15.25-1.1-22.865a311.812 311.812 0 0 1-.052-11.063c3.743-1.207 7.039-1.207 10.794-1.207a72.354 72.354 0 0 1 1.75 8.533c1.267 8.434 1.589 17.746 2.4 26.602q.184 2.004.409 3.97c.03.265.057.533.089.797zm33.14-126.746l-.912-.15-12.754-2.094-5.93-1.63-1.57-4.27c2.83.925 5.642 1.377 9.661 3.751 3.367.96 5.83 1.702 7.671 2.384a12.22 12.22 0 0 1 3.834 2.01zm-18 12.244l-4.435-2.334a42.82 42.82 0 0 0-.437-2.56c-1.712-8.362-5.816-14.567-12.743-11.212 1.956-2.861 5.65-4.25 8.029-7.775a20.799 20.799 0 0 0 2.793 1.913l1.811 4.376 2.845 6.87.353 1.773 1.723 8.644zm-67.955 28.873c-.822.372-1.797.785-2.857 1.203-3.843 1.515-8.696 3.055-10.622 2.606a1.848 1.848 0 0 1-.696-.342 4.361 4.361 0 0 1-1.253-2.395c-.145-.516-.286-1.06-.466-1.597a32.21 32.21 0 0 0-.247-.702c-1.488-4.113-4.365-10.263-4.582-16.092-.217-4.395-1.473-15.84 3.417-18.665h-.049a9.997 9.997 0 0 1 1.578-.48 10 10 0 0 1 .266-.056c.167-.033.33-.08.499-.104l1.166.105.307.028a75.323 75.323 0 0 1 19.908 7.244c3.212 1.75 5.059 3.923 9.924 4.298l-.072 1.943a7.915 7.915 0 0 1-1.241.645c-2.634 1.123-6.143 1.292-8.647 2.555l.04.002a25.786 25.786 0 0 1 10.596 2.69l-.023.609a478.092 478.092 0 0 1-.17 4.22c-2.768 1.918-5.44 4.371-8.294 6.71a63.78 63.78 0 0 1-2.881 2.244 35.955 35.955 0 0 1-3.916 2.516c-.334.18-.771.396-1.283.634-.126.058-.267.12-.402.181zm9.943-36.238l.012-.048c8.084 3.587 18.344-1.382 26.551-2.193.08-.008.16-.021.24-.028-.732.472-1.424.981-2.114 1.493-2.726 2.023-5.21 4.272-7.956 6.258-7.63.386-11.795-.52-17.397-4.902.084-.242.652-.145.664-.58zm11.204 20.621a47.414 47.414 0 0 0-.55-2.648 17.019 17.019 0 0 1-.718-6.515 9.631 9.631 0 0 1 4.38-1.644c.078-.008.154-.028.232-.034 7.653 1.1 5.663 11.349-.508 11.452a6.838 6.838 0 0 1-2.836-.61zm15.026 1.948c-.671-.162-1.343-.322-2.011-.499a13.102 13.102 0 0 0 .125-2.595c-.006-.205-.011-.41-.022-.61-.01-.205-.021-.407-.033-.607a9.86 9.86 0 0 1 .22-3.661 4.849 4.849 0 0 1 .599-.354c1.744-.913 4.232-1.01 6.61-1.235.226-.02.452-.04.674-.065a13.716 13.716 0 0 0-8.753-.99c-.072-1.911-.921-3.105-1.441-4.593l-.008-.02c.38-.166.752-.345 1.122-.531 3.855-1.946 7.237-4.883 11.001-6.995.459-.257.922-.504 1.393-.733.213-.103.43-.197.646-.293.214-.096.427-.193.644-.282a17.233 17.233 0 0 1 3.654-1.065c3.236.205 1.944-.181 4.033.712v-.048c1.292.748 2.265 3.006 2.978 5.727a58.921 58.921 0 0 1 1.585 11.055c.194 4.068-.362 8.185-2.028 10.346-.086-.001-.172-.006-.259-.008a95.533 95.533 0 0 1-20.729-2.656zm-43.06-36.67a1.207 1.207 0 0 0 .688.688l5.059 1.835a1.207 1.207 0 0 0 .76 0 69.058 69.058 0 0 0 13.993-6.338l8.765-4.89h.06l4.588-2.979c.052-.003.105 0 .157-.003a11.165 11.165 0 0 0 5.928-1.885 18.337 18.337 0 0 1 2.234.074 1.313 1.313 0 0 1 .314.06l3.223 1.111a1.415 1.415 0 0 1 .375.205l7.63 6.387a1.207 1.207 0 0 0 .64.266l1.63.157a1.207 1.207 0 0 0 1.292-1.063l.44-4.95a7.95 7.95 0 0 0 4.322.905 28.124 28.124 0 0 1-6.489 6.81c-11.783 8.27-29.688 15.78-45.033 10.636a60.392 60.392 0 0 1-14.43-7.01q1.696-.648 3.369-1.278zm.133 7.92c-5.566-1.304-14.102-1.715-16.42 3.272-4.055-.269-8.022-.583-11.747-1.157 5.245-2.482 12.035-5.29 18.977-8.008a33.505 33.505 0 0 0 9.19 5.893zm20.657 76.06a4.17 4.17 0 0 1 .15-1.394 3.706 3.706 0 0 1 3.762-2.59 9.853 9.853 0 0 1 1.707.281 2.512 2.512 0 0 1 2.085 2.088 5.528 5.528 0 0 1 .095 1.254c-.084 2.583-.495 3.622-3.622 3.9-2.615.312-3.585-.459-3.963-1.95a8.573 8.573 0 0 1-.214-1.588zm6.64-240.69a1.207 1.207 0 0 1-.157-.193 2.415 2.415 0 0 1-.495-1.896l.354-2.372.613-4.11 1.194-8.006a2.584 2.584 0 0 1 1.208-1.823l12.773-7.413a2.802 2.802 0 0 1 .954-.326 2.62 2.62 0 0 1 1.292.194l13.763 5.3a2.523 2.523 0 0 1 1.51 1.606l4.382 13.98a2.523 2.523 0 0 1-.326 2.173l-6.184 9.046-2.11 3.088a2.94 2.94 0 0 1-1.908 1.099l-1.45.113a62.827 62.827 0 0 0-3.78.054c-2.804.121-6.044.424-10.138.944a2.579 2.579 0 0 1-1.426-.75l-9.914-10.544zm-79.019 70.737c1.039 4.515 4.636 11.53-1.098 11.686.079-7.036-4.665-12.654-10.934-15.068a87.678 87.678 0 0 1 11.066-5.54l.24-.05c-.196 4.362-.081 4.056.726 8.972zm-36.612 1.045c-.117.083-.234.163-.35.247.135-.157.28-.322.43-.492-.026.081-.046.162-.08.245zM258.65 392.47a121.737 121.737 0 0 1-32.135-5.013 368.514 368.514 0 0 1-12.19-48.168q-.363-1.974-.71-3.964-.345-1.975-.672-3.97c-1.653-9.987-3.027-20.298-4.212-31.211 17.144-3.091 34.505-5.252 51.915-5.12 5.579.222 11.183.378 16.718 1.104 2.012.264 4.015.599 6.003 1.046.114.736.215 1.471.312 2.206 1.41 10.757 1.11 21.395 1.958 31.975q.159 1.986.382 3.97c.027.237.049.475.077.712q.185 1.615.33 3.256c1.46 16.27.375 34.323 3.497 49.323a74.324 74.324 0 0 1-4.254 1.163 104.617 104.617 0 0 1-27.02 2.691zm44.988-20.587c-1.596.538-2.918 1.05-4.278 1.468a22.656 22.656 0 0 1-7.203 1.019c-.373-8.302-1.489-20.99-1.21-28.892l.002-.084a17.472 17.472 0 0 0 3.784-.642c.643-.162 1.284-.327 1.932-.465l.033-.007c.17-.036.342-.064.513-.095a13.076 13.076 0 0 1 1.393-.191l.857.096c1.038 8.91 4.588 17.99 4.14 27.793z" class="cls-3"/><path d="M212.137 201.868q5.577-2.414 11.312-4.455c.827-.288 2.748-.897 5.232-1.67l-.057-.06c-2.51.783-4.451 1.404-5.283 1.706q-5.723 2.064-11.313 4.455c-1.178.507-2.493 1.155-3.833 1.754l.043.054c1.363-.608 2.701-1.268 3.899-1.784zM167.43 125.02a6.877 6.877 0 0 1 1.222-.849 4.809 4.809 0 0 0-1.222.848zm73.316 66.947c-2.558.777-5.214 1.586-7.674 2.341l.064.06a3091.66 3091.66 0 0 1 7.643-2.338zm-12.673 19.379c2.318-4.987 10.854-4.576 16.42-3.272a33.505 33.505 0 0 1-9.19-5.893c-6.942 2.718-13.732 5.526-18.977 8.008 3.725.574 7.692.888 11.747 1.157zm26.863-4.166c15.345 5.144 33.25-2.366 45.033-10.636a28.124 28.124 0 0 0 6.49-6.81 7.95 7.95 0 0 1-4.323-.905l-.44 4.95a1.207 1.207 0 0 1-1.292 1.063l-1.63-.157a1.207 1.207 0 0 1-.64-.266l-7.63-6.387a1.415 1.415 0 0 0-.375-.205l-3.223-1.11a1.313 1.313 0 0 0-.314-.061 18.337 18.337 0 0 0-2.234-.074 11.165 11.165 0 0 1-5.928 1.885c-.052.004-.105 0-.158.003l-4.586 2.979h-.06l-8.766 4.89a69.058 69.058 0 0 1-13.993 6.338 1.207 1.207 0 0 1-.76 0l-5.059-1.835a1.207 1.207 0 0 1-.688-.688l-.485-1.262q-1.67.63-3.368 1.278a60.392 60.392 0 0 0 14.43 7.01z" class="cls-4"/><path d="M285.517 106.393c-6.953.665-16.638.67-26.462.498 1.504 3.676 2.854 7.201 5.709 9.982 1.883 1.835 5.541 4.069 3.73 9.163-.422 1.208-3.525 3.888-5.312 4.42-6.532 1.931-21.732.398-16.6-7.752 5.408.254 12.664 3.514 16.709-.41a82.726 82.726 0 0 1-2.67-4.575c-4.133 2.635-15.537 2.766-15.537-3.937 0-3.663 2.999-5.826 5.875-7.06-9.644-.23-18.72-.498-24.685-.329-2.274.065-4.975.037-7.89-.052l-.066.1-.03-.103c-7.15-.22-15.582-.81-22.32-1.356l.242 8.596c1.004 4.974 2.935 9.842 3.141 15.513-1.98 3.26-8.017 3.658-12.194 3.44a61.906 61.906 0 0 0-1-4.174 43.809 43.809 0 0 0-11.006-4.461c5.286 1.843 10.124 8.216 8.336 16.846-3.09-1.763-3.827-9.514-7.437-9.731-5.18-.314-4.238 10.057-4.214 16.117-3.622-3.223-4.19-13.184-1.57-18.29-2.344-1.15-3.666.507-4.928 1.79-1.719 8.041-4.195 14.63-.33 22.564 3.423 4.134 7.881 6.89 12.974 6.384 4.684-.459 5.831-5.107 10.938-5.107.054.107.08.205.127.31a4.246 4.246 0 0 1 2.867 3.698c.412 2.937 1.54 25.412 14.405 42.727 2.032-.914 4.14-2.069 5.89-2.8 3.393-1.45 6.544-3.49 10.009-4.746.85-.306 2.04-.71 3.468-1.183-5.62-6.246-11.076-13.002-11.364-21.068 5.153 7.152 9.894 13.88 15.504 19.724 1.486-.475 3.088-.981 4.762-1.504-3.8-.482-6.754-3.508-8.35-6.895 0-.084.193-.253.17-.338s0-.133-.073-.193c-1.473-3.525-.7-6.785 1.014-10.081 2.318-4.467 5.324-8.451 9.912-10.625a40.663 40.663 0 0 1 9.996-3.79 78.985 78.985 0 0 1 10.673-1.425c3.622-.181 7.244.773 10.745.736 3.272 0 6.628-.954 10.009-.954s6.652.93 9.96 1.292a44.139 44.139 0 0 1 9.767 1.811 31.149 31.149 0 0 1 8.645 4.226 24.906 24.906 0 0 1 6.906 6.894 15.403 15.403 0 0 1 1.8 5.087c9.885-17.973 14.405-41.283 13.231-63.956-.237-4.655-.36-9.29-.722-13.64a81.689 81.689 0 0 1-9.07 2.58c-11.59 2.73-17.904 4.528-33.684 6.037zm14.5 38.574a6.036 6.036 0 0 0-.58 2.33l.061.387-.326.217c-5.433 3.477-12.049 7.739-21.224 7.739a29.108 29.108 0 0 1-3.03-.157h-.194l-.145-.12a7.69 7.69 0 0 1-.99-9.9l.155-.207.009-.023c.274-2.808 1.638-14.505 5.22-13.474a5.65 5.65 0 0 1 4.106 5.276s-8.505 5.514-9.326 8.198l-.001.013.38-.508.46.785a8.45 8.45 0 0 1 .784 2.414c.459 1.884.82 3.03 2.415 3.308 4.225.725 9.103-1.63 13.014-3.525 1.256-.604 2.451-1.183 3.502-1.594 1.81-3.187.519-4.6-1.425-6.7-.398-.435-.809-.882-1.207-1.377l-.857-1.014c-4.745-5.698-10.661-12.834-10.432-21.285v-.29l.242-.18a1.715 1.715 0 0 1 1.678-.35c1.002.434 1.304 1.81 1.521 2.848a3.544 3.544 0 0 0 .133.58c2.475 5.82 8.705 13.244 13.474 18.46a18.547 18.547 0 0 0 1.497 1.376c.954.821 1.714 1.473 1.883 2.161a8.065 8.065 0 0 1-.797 4.612zm7.16-23.917c3.718-1.63 10.141-.326 13.437-2.414-.735-2.02-1.594-3.918-2.35-5.914l.31 2.062c-1.51.507-11.325 6.303-10.564-1.002.632-6.07 6.454-8.3 8.407-8.88a25.332 25.332 0 0 1-.029-3.374l.037.048h.652c3.102 6.435 5.783 13.28 9.658 18.931-2.62 6.037-19.824 11.494-19.558.543z" class="cls-4"/><path d="M195.816 104.97a56.96 56.96 0 0 0-.195 2.486 26.147 26.147 0 0 0 .59 6.122l-.242-8.595z"/><path d="M209.664 339.288c-.186-1.326-.37-2.652-.551-3.963q-.276-1.995-.545-3.97c-1.129-8.323-2.146-16.413-2.958-24.63l-17.982-2.295-2.726-5.345a16.705 16.705 0 0 1-.992-.124c-.037-5.88 9.658-1.473 7.425-4.528s-5.12-2.897-3.622-7.606c3.815 1.376 7.183 10.07 5.976 6.037-5.916-18.895-6.761-14.959-4.89-19.317.737-1.708 2.32-1.131 3.555 1.52l2.458.363 5.855 7.546.72 10.51c15.485-2.022 36.085-3.92 54.31-4.937q-.044-.7-.085-1.4c-.145-2.427-.288-4.854-.46-7.277-.54-7.537-1.396-15.025-3.717-22.286a2.153 2.153 0 0 1 .14-1.757c-.278.152-.554.304-.832.452q-1.429.76-2.876 1.44a50.453 50.453 0 0 1-3.724 1.591c-10.999 4.13-12.074-5.288-14.488-12.942-2.185-6.93-2.85-7.956-3.393-11.953-1.823-.869-3.996 11.144-5.855 10.263-1.413-.677-7.461-10.263-9.417-12.834a52.971 52.971 0 0 1-6.013-7.973c-1.103 3.648-2.756 7.744-6.193 9.494-6.611 3.384-15.405-3.718-20.919-9.448l-3.783 1.383s-10.383 4.588-15.828 7.884c-.526-.312-1.064-.598-1.6-.889l-2.046.889s12.562 49.488 12.27 82.28q-.029 3.154-.225 6.08a71.966 71.966 0 0 1-.587 5.626 47.004 47.004 0 0 1-.968 4.902c13.879 6.968 26.79 15.818 45.916 16.81-.46-3.265-.909-6.447-1.35-9.596zm54.316-53.093a5.358 5.358 0 0 1-.362-1.77l-.001-.121a5.682 5.682 0 0 1 .09-1.003c.42-2.357 2.365-3.792 5.44-4.25v.001a3.966 3.966 0 0 1 2.901.641 5.367 5.367 0 0 1 1.813 2.215 5.028 5.028 0 0 1 .5 2.227 5.315 5.315 0 0 1-1.286 3.694 55.112 55.112 0 0 1 8.824.63c.195.03.394.057.583.086.2.031.389.063.583.094a178 178 0 0 1 1.732.289c3.712.637 6.263 1.092 8.387-.157h-.036c5.916-3.682 14.355-.664 21.345-3.296 2.535-1.002 4.37-6.822 6.302-11.482 5.252-12.797 10.866-28.94 13.28-41.157.45-2.255 3.597-11.919 4.607-16.852l-18.75-3.222 1.841 7.349.302 4.527-6.97-2.28c.558 7.153-.35 14.665-2.52 18.76-2.112 3.079-6.447 2.729-14.39 2.077s-13.487-3.888-17.108-4.274c-1.419-.154-2.74.571-4.141 1.252-.133.064-.266.129-.4.192l-.14.063c-.18.082-.36.162-.542.237a5.67 5.67 0 0 1-4.63.151c-.929 1.026-1.472 1.739-2.716 3.151a32.207 32.207 0 0 1-3.056 2.624 99.01 99.01 0 0 1-2.762 2.098 106.447 106.447 0 0 1-9.004 5.94 2.324 2.324 0 0 1 2.399 1.665c2.9 9.097 3.568 18.56 4.163 28.023l.18 2.866q.035.558.072 1.115 2.377-.114 4.672-.205a5.385 5.385 0 0 1-1.201-1.898zm2.812-27.692c3.477-.519 5.312 3.127 5.215 5.095a5.336 5.336 0 0 1-5.1 5.562 5.785 5.785 0 0 1-.115.004 5.397 5.397 0 0 1-5.528-5.262q-.002-.067-.002-.135c0-2.958 2.04-4.744 5.53-5.264zm-59.777-36.823a120.816 120.816 0 0 1 2.574 3.864l.458.47-2.681-4.213zm17.343 8.369a1.096 1.096 0 0 1 .781-.437 22.454 22.454 0 0 1-.132-1.739l-.12-.04z" class="cls-5"/><path d="M180.885 222.816l-.068.025a39.16 39.16 0 0 0 10.264 6.916 10.313 10.313 0 0 0 3.042.88 10.488 10.488 0 0 1-2.945-.88 39.161 39.161 0 0 1-10.293-6.941z" class="cls-5"/><path d="M191.805 105.259a87.678 87.678 0 0 0-11.066 5.54c6.27 2.414 11.013 8.032 10.934 15.068 5.734-.156 2.137-7.171 1.098-11.686-.807-4.916-.922-4.61-.726-8.972z" class="cls-6"/><path d="M192.233 192.246a8.938 8.938 0 0 1 1.908.54 8.965 8.965 0 0 0-1.912-.548zm11.464 12.954a11.953 11.953 0 0 0 2.113-.567 28.75 28.75 0 0 0 2.428-.981l-.043-.054c-.805.36-1.617.705-2.42.982l.011.029a11.947 11.947 0 0 1-2.113.567c-.7.117-1.36.259-1.767-.098.404.385 1.076.242 1.791.122zm-14.65-50.422c2.342 5.268-4.403 7.024-5.113 10.895a31.392 31.392 0 0 0 1.026 6.87 99.244 99.244 0 0 0 5.54 15.981 13.28 13.28 0 0 1 3.648.366c6.036 1.497 9.248 6.881 10.865 12.362.055.262-.173.509-.237.598a27.73 27.73 0 0 0 1.543-.646c-12.865-17.315-13.993-39.79-14.405-42.727a4.246 4.246 0 0 0-2.867-3.699zm84.706-9.545l-.01.023.009-.01zm9.326-8.198a5.65 5.65 0 0 0-4.105-5.276c-3.583-1.031-4.947 10.666-5.221 13.474.82-2.684 9.326-8.198 9.326-8.198zm-117.741-6.406a6.499 6.499 0 0 1-1.035.9 10.02 10.02 0 0 1 3.127-6.51 4.809 4.809 0 0 1 1.222-.848 8.085 8.085 0 0 1 6.5-.275 43.809 43.809 0 0 1 11.005 4.46c-1.59-5.653-4.29-10.88-10.107-11.52-10.25-1.122-17.748 7.365-18.206 16.24-.323 6.046 2.429 14.4 7.163 20.116-3.864-7.934-1.388-14.523.33-22.563z" class="cls-7"/><path d="M174.674 215.354c-.26-.47-.49-.954-.706-1.442l-.013.003c.213.48.44.953.694 1.415l-2.933.82c-.278-.45-.54-.909-.792-1.372-5.715 1.623-11.133 3.165-15.086 4.605a33.457 33.457 0 0 0-4.019 1.706c-3.3-.169-5.709.217-7.472 1.217a223.82 223.82 0 0 1 4.677 1.76c2.516.981 5.22 2.098 7.19 3.083 3.43 3.292 8.59-1.858 19.337-5.76a63.15 63.15 0 0 1-.914-1.073 40.566 40.566 0 0 1-2.994-4.141l2.934-.821c.217.362.435.712.676 1.062a39.176 39.176 0 0 0 3.176 4.015l.076-.024a39.172 39.172 0 0 1-3.155-3.99 18.3 18.3 0 0 1-.676-1.063zm-8.021 106.193q.197-2.923.225-6.082c.292-32.791-12.27-82.279-12.27-82.279l2.045-.889a47.162 47.162 0 0 0-12.776-4.692 47.094 47.094 0 0 0-3.022-.541 19.526 19.526 0 0 0-.625 3.049c-.029.211-.061.414-.086.634 10.29 22.072 16.88 49.248 19.8 76.038q.396 3.626.7 7.237.296 3.512.508 6.997c.19 3.135.347 6.257.434 9.344 1.181.552 2.35 1.127 3.512 1.71a47.004 47.004 0 0 0 .968-4.9 71.89 71.89 0 0 0 .587-5.626zm28.159-46.117l-2.458-.363a17.808 17.808 0 0 1 1.335 4.721 35.399 35.399 0 0 0 5.276 14.017c.783-.106 1.608-.212 2.421-.319l-.719-10.51zm10.798 31.295q-.292-2.957-.548-5.941c-4.874-2.058-14.936-1.183-20.16-1.699l2.726 5.345z" class="cls-8"/><path d="M301.165 304.753c-3.174 1.84-8.312 4.279-12.493 3.737.163 7.614.573 15.217 1.1 22.865q.136 1.982.281 3.97c.077 1.048.153 2.096.233 3.146 5.256-.734 8.837-1.325 13.776-2.35-.032-.263-.059-.531-.09-.796q-.224-1.966-.408-3.97c-.811-8.856-1.133-18.168-2.4-26.602zm13.602-85.467l4.435 2.334-.061-.305-4.81-4.59c.17.835.313 1.691.436 2.561zm-.649-26.176a4.356 4.356 0 0 0 2.555 2.299l-.108-.069z" class="cls-5"/><path d="M301.165 304.753a72.354 72.354 0 0 0-1.751-8.533c-3.755 0-7.051 0-10.794 1.207-.052 3.695-.026 7.38.052 11.063 4.18.542 9.319-1.897 12.493-3.737zm14.871-103.521l1.57 4.27 5.93 1.63 12.754 2.095.912.15a12.22 12.22 0 0 0-3.834-2.01c-1.841-.682-4.304-1.423-7.671-2.384-4.019-2.374-6.831-2.826-9.66-3.751zm22.941 12.202c-.048-.35-.104-.671-.165-.979l-12.511-1.701-7.482-1.946.383 1.04.73 2.914 18.75 3.222a9.476 9.476 0 0 0 .295-2.55z" class="cls-8"/><path d="M277.648 339.293q-.096-2.002-.173-3.968-.078-2.008-.14-3.97c-.503-16.09-.165-29.588.03-35.227-5.535-.726-11.14-.882-16.718-1.103-17.41-.133-34.771 2.028-51.915 5.119 1.185 10.913 2.559 21.224 4.212 31.21q.33 1.992.673 3.971.347 1.989.71 3.964a368.514 368.514 0 0 0 12.189 48.168 121.737 121.737 0 0 0 32.135 5.013 96.02 96.02 0 0 0 23.848-9.625c-2.757-13.598-4.168-29.21-4.851-43.552z" class="cls-9"/><path d="M289.924 388.616c-3.122-15-2.037-33.054-3.496-49.323q-.148-1.64-.331-3.256c-.028-.237-.05-.475-.077-.712q-.222-1.984-.382-3.97c-.849-10.58-.548-21.218-1.958-31.975a99.459 99.459 0 0 0-.312-2.206 67.135 67.135 0 0 0-6.003-1.046c-.195 5.639-.533 19.137-.03 35.227q.062 1.96.14 3.97.078 1.965.173 3.968c.683 14.342 2.094 29.954 4.851 43.552a96.02 96.02 0 0 1-23.848 9.625 104.617 104.617 0 0 0 27.019-2.69 74.241 74.241 0 0 0 4.254-1.164z" class="cls-10"/><path d="M315.398 295.158l-1.943-.242c-4.673.193-2.668.097-5.88.266.927 9.065 2.874 18.884 4.095 28.533a77.776 77.776 0 0 1 9.445-3.56c-.45-8.819-1.975-18.528-5.717-24.997zm44.272-7.728a10.622 10.622 0 0 0-9.585-5.312c-2.077.556-1.232.181-2.62.93-6.4 4.098-17.058 5.655-23.192 9.77.972 5.7 3.03 17.94 3.75 23.527.161 1.248.258 2.174.258 2.609a5904.267 5904.267 0 0 0 7.495.396c8.534.447 21.519 1.113 23.195 1.113 0 0 5.554-10.652 4.67-22.18a53.94 53.94 0 0 0-3.32-9.707 12.009 12.009 0 0 0-.65-1.145zm-12.986 5.516q1.55-.14 3.183-.191a18.243 18.243 0 0 0-4.158 1.414c-5.757 2.694-10.538 7.623-16.692 7.23 3.691-5.205 9.826-7.74 17.667-8.453zm-13.635 13.198c1.006-1.53 2.96-2.373 5.312-2.762a24.506 24.506 0 0 1 5.256-.223 39.636 39.636 0 0 1 4.642.54 35.425 35.425 0 0 1 5.025 1.238c-2.096.223-4.319.483-6.583.715-1.8.185-3.622.347-5.44.461a70.9 70.9 0 0 1-5.196.148 46.187 46.187 0 0 1-3.016-.117zm5.98 9.126a170.376 170.376 0 0 1-4.85-.278c-.487-.035-.987-.068-1.456-.107a6.407 6.407 0 0 1 2.819-1.6 18.543 18.543 0 0 1 5.604-.668 41.402 41.402 0 0 1 14.347 2.836 268.27 268.27 0 0 1-16.463-.183z" class="cls-9"/><path d="M358.97 320.463c-1.675 0-14.66-.666-23.194-1.113l-4.867-.256-2.628-.14c0-.435-.097-1.361-.258-2.61-.72-5.587-2.778-17.826-3.75-23.525a13.522 13.522 0 0 0-2.33 1.94c2.042 6.823 3.009 15.593 3.843 24.39.18 1.906.356 3.811.534 5.699q.11 1.169.222 2.328c.958.06 1.942.074 2.94.065 8.52-.07 18.237-2.234 25.046.695a32.423 32.423 0 0 1-3.39.861c-4.619.962-9.731 1.383-13.392 3.377 3.755 1.81 12.52 1.449 18.242.06h-.036a12.987 12.987 0 0 0 6.554-4.03c3.739-4.14 5.533-10.699 4.07-17.388-.733-3.306-1.75-8.064-2.935-12.534.884 11.53-4.67 22.18-4.67 22.18zm-47.3 3.252c.29 2.289.551 4.572.734 6.829.188.008.354-.01.534-.011 3.43-.03 5.404-1.685 8.352-2.247h-.036c.018-1.11.018-2.271.005-3.459a118.747 118.747 0 0 0-.144-4.672 77.776 77.776 0 0 0-9.445 3.56z" class="cls-10"/><path d="M225.598 220.551a22.21 22.21 0 0 0 .652-5.04c-3.82-.67-10.053-1.418-15.307-2.569-.595.337-1.144.663-1.632.975a14.016 14.016 0 0 0-2.475 1.606v.147c3.07 1.219 13.784 5.294 18.762 4.881zm-19.632-.949c-.023.153-.049.304-.073.456l1.122 1.623.35.12zm18.922 8.23l.119.041c-.006-.154-.015-.308-.019-.46z" class="cls-9"/><path d="M224.988 227.412c-.013-.575-.005-1.14.018-1.697a39.88 39.88 0 0 1 .592-5.164c-4.978.413-15.692-3.662-18.761-4.88v.033a10.246 10.246 0 0 0-.434 1.456c-.18.786-.308 1.617-.437 2.442l1.4 2.2 2.681 4.213c4.712 4.847 5.561 5.802 9.502 13.111 2.38-4.96 3.784-8.01 4.809-9.077l.53-2.217zm-17.946-11.25l.169-.084c-.218.29-.628.58-.17.085z" class="cls-10"/><path d="M310.436 229.141a58.921 58.921 0 0 0-1.585-11.054 6.262 6.262 0 0 0-.483-.124 8.89 8.89 0 0 0-1.04-.17 28.074 28.074 0 0 0-7.371.555 13.585 13.585 0 0 0-3.217.935 4.901 4.901 0 0 0-.67.397 3.843 3.843 0 0 0-.727.66 4.094 4.094 0 0 0-.916 2.04 8.39 8.39 0 0 0-.051 2.326c.062.602.156 1.154.205 1.696.011.125.019.25.024.375a4.469 4.469 0 0 1-.673 2.62l-.012.022a3.235 3.235 0 0 1-.863.968 3.184 3.184 0 0 1-1.19.53 17.751 17.751 0 0 1-1.953.246 6.014 6.014 0 0 0-2.525.767 1.826 1.826 0 0 0-.282.225 1.718 1.718 0 0 0-.341.407 1.994 1.994 0 0 0-.247.73 6.598 6.598 0 0 0 .901 3.532 95.533 95.533 0 0 0 20.73 2.656c.086.002.172.007.258.008 1.666-2.161 2.222-6.278 2.028-10.347zm-34.698-5.107c-.078.007-.154.027-.232.035l.03.129a6.897 6.897 0 0 1 .147 2.027 7.722 7.722 0 0 1-2.596 5 11.106 11.106 0 0 1-1.243 1.003c.177.757.367 1.611.55 2.648a6.838 6.838 0 0 0 2.836.61c6.171-.102 8.16-10.35.508-11.452z" class="cls-2"/><path fill="#ee3e3b" d="M286.519 233.293a1.994 1.994 0 0 1 .247-.73 1.718 1.718 0 0 1 .341-.408 1.826 1.826 0 0 1 .282-.225 6.014 6.014 0 0 1 2.525-.767 17.751 17.751 0 0 0 1.953-.247 3.184 3.184 0 0 0 1.19-.529 3.235 3.235 0 0 0 .863-.968l.012-.022a4.469 4.469 0 0 0 .673-2.62 7.56 7.56 0 0 0-.024-.375c-.049-.542-.143-1.094-.205-1.696a8.39 8.39 0 0 1 .051-2.326 4.094 4.094 0 0 1 .916-2.04 3.843 3.843 0 0 1 .728-.66 4.901 4.901 0 0 1 .67-.397 13.585 13.585 0 0 1 3.216-.935 28.074 28.074 0 0 1 7.37-.555 8.89 8.89 0 0 1 1.04.17c.167.038.332.076.484.124-.713-2.72-1.686-4.979-2.978-5.727v.048c-2.089-.893-.797-.507-4.033-.712a17.233 17.233 0 0 0-3.654 1.065c-.217.089-.43.186-.644.281-.216.097-.433.19-.646.294-.471.229-.934.476-1.393.733-3.764 2.112-7.146 5.049-11.001 6.995-.37.186-.743.365-1.122.532l.008.019c.52 1.488 1.37 2.681 1.441 4.593a13.716 13.716 0 0 1 8.753.99c-.222.024-.448.044-.674.065-2.378.224-4.866.322-6.61 1.235a4.849 4.849 0 0 0-.6.354 9.86 9.86 0 0 0-.219 3.661c.012.2.023.402.033.606.01.201.016.406.022.61a13.102 13.102 0 0 1-.125 2.596c.668.177 1.34.337 2.011.499a6.598 6.598 0 0 1-.901-3.531zm-39.938-11.408c1.546 0 9.55 1.848 10.118 3.019 2.74 5.602-4.588 4.358 3.163 8.584a10.828 10.828 0 0 0 7.934.614 13.7 13.7 0 0 0 .398-.114l.022-.609a25.786 25.786 0 0 0-10.596-2.69l-.04-.002c2.504-1.263 6.013-1.432 8.647-2.555a7.915 7.915 0 0 0 1.241-.645l.072-1.943c-4.865-.375-6.712-2.548-9.924-4.298a75.323 75.323 0 0 0-19.908-7.244l-.307-.028-1.166-.105c-.169.024-.332.07-.499.104-.089.018-.178.036-.266.056a9.997 9.997 0 0 0-1.578.48h.049c-4.89 2.825-3.634 14.27-3.417 18.665.217 5.83 3.094 11.979 4.582 16.092q-.709-8.864-1.491-17.722c-1.063-11.711 2.813-9.659 12.966-9.659zm-9.509 32.075q-.566-1.104-1.253-2.395a4.361 4.361 0 0 0 1.253 2.395zm38.611-27.735a6.897 6.897 0 0 0-.148-2.027 7.444 7.444 0 0 0-.03-.13 9.631 9.631 0 0 0-4.379 1.645 17.019 17.019 0 0 0 .718 6.515 11.106 11.106 0 0 0 1.243-1.003 7.722 7.722 0 0 0 2.596-5z"/><path d="M345.709 294.169a18.243 18.243 0 0 1 4.158-1.414q-1.636.048-3.183.191c-7.84.713-13.976 3.248-17.667 8.453 6.154.393 10.935-4.536 16.692-7.23zm.992 11.483c2.264-.232 4.487-.492 6.583-.715a35.425 35.425 0 0 0-5.025-1.239 39.636 39.636 0 0 0-4.642-.54 24.506 24.506 0 0 0-5.256.224c-2.352.39-4.306 1.232-5.312 2.762.983.076 1.994.106 3.016.117a70.9 70.9 0 0 0 5.196-.148c1.818-.114 3.64-.276 5.44-.461zm-5.555 6.965a18.543 18.543 0 0 0-5.604.667 6.407 6.407 0 0 0-2.819 1.601c.47.04.97.072 1.457.107 1.546.112 3.168.205 4.85.278a268.27 268.27 0 0 0 16.463.183 41.402 41.402 0 0 0-14.347-2.836z" class="cls-3"/><path d="M299.027 344.199h-.048a4.498 4.498 0 0 0-1.767-.014c-.17.031-.343.059-.513.095l-.033.007c-.648.138-1.29.303-1.932.465a17.104 17.104 0 0 1-3.786.726c-.279 7.902.837 20.59 1.21 28.892a22.656 22.656 0 0 0 7.203-1.02c1.193-.385 2.386-.837 3.795-1.31.447-9.816-3.103-18.883-4.129-27.841z" class="cls-10"/><path d="M277.923 219.736c2.747-1.985 5.23-4.234 7.956-6.257a12.426 12.426 0 0 1 1.643-1.3l.231-.165c-8.207.81-18.467 5.78-26.551 2.193l-.012.048c-.012.435-.58.338-.664.58 5.602 4.382 9.767 5.288 17.397 4.901z" class="cls-7"/><path d="M218.383 106.341l-.095-.003.03.104.065-.1z"/><path d="M317.065 210.899l-2.845-6.871-1.812-4.376a20.799 20.799 0 0 1-2.793-1.913c-2.378 3.525-6.072 4.914-8.028 7.775 6.927-3.355 11.031 2.85 12.743 11.212l4.81 4.589-1.722-8.644z" class="cls-10"/><path d="M168.652 124.171a6.877 6.877 0 0 0-1.222.848 10.02 10.02 0 0 0-3.127 6.51 6.499 6.499 0 0 0 1.035-.9c1.262-1.284 2.584-2.94 4.929-1.791-2.62 5.106-2.053 15.067 1.57 18.29-.025-6.06-.967-16.431 4.213-16.117 3.61.217 4.346 7.968 7.437 9.73 1.788-8.63-3.05-15.002-8.336-16.845a8.085 8.085 0 0 0-6.5.275z" class="cls-3"/><path fill="#f1f1f2" d="M207.773 46.849c-.579.95-1.027 1.712-1.275 2.185a26.947 26.947 0 0 1-4.58 5.04c-4.396 4.106-10.755 9.147-14.254 10.896-5.312 2.656-14.487 7.727-19.317 12.556s-10.841 10.878-10.033 13.848c.636 2.334 3.99 9.425 5.403 12.366a155.563 155.563 0 0 1 20.18-15.42c9.273-5.771 33.395-17.011 49.005-21.95a276.392 276.392 0 0 1 46.666-10.94c-2.075-2.08-2.633-1.942-5.013-4.476-2.596-2.765-2.704-2.657-5.288-5.421-.12-.121.169-.592.06-.725a5.296 5.296 0 0 1-1.098-3.682c.245-1.686.402-2.604.551-3.45.181-1.025.351-1.942.656-3.987l.014-.096c.537-3.63.39-3.693.94-7.39a5.385 5.385 0 0 1 2.354-3.863c3.284-1.895 3.453-1.606 6.737-3.513s3.066-2.27 6.362-4.166a7.205 7.205 0 0 1 4.66-.277l7.04 2.777c3.549 1.364 3.464 1.557 7.014 2.921a4.83 4.83 0 0 1 2.704 3.345c1.123 3.597 1.69 3.477 2.825 7.026s.833 3.622 1.956 7.244a4.72 4.72 0 0 1-.893 4.19c-2.137 3.126-1.69 3.44-3.827 6.555a113.842 113.842 0 0 0-1.723 2.573c-.622.958-1.076 1.69-2.182 3.326 3.139.372 6.522.954 11.088 1.659.755.117 1.484.24 2.197.366a72.199 72.199 0 0 1 16.321 4.682c.059-.448.139-.892.183-1.341 4.431-8.041 4.697-11.723 4.226-17-3.018-10.358-6.532-15.26-15.442-20.427-10.334-6.013-19.244-9.502-36.473-12.448h-.048c-13.353.942-20.85 2.016-43.584 7.643-14.895 9.613-18.283 11.963-28.095 19.898a927.598 927.598 0 0 0-2.035 3.158 359.816 359.816 0 0 0-3.982 6.318z"/><path d="M156.159 115.226c.034-.083.054-.164.08-.245-.15.17-.295.335-.43.492.116-.084.233-.164.35-.247zm38.827-18.523c.238-.148.481-.296.724-.445l.285-.175.292-.18.21-.127a153.874 153.874 0 0 1 14.116-7.774 50.048 50.048 0 0 1 3.854-1.626c.91-.468 1.819-.928 2.733-1.385a162.857 162.857 0 0 1 6.937-3.28q1.034-.458 2.113-.915a155.729 155.729 0 0 1 10.199-3.884 209.842 209.842 0 0 1 5.315-1.743c7.037-2.21 15.717-4.575 27.032-7.265 4.137-.794 8.295-1.38 12.498-1.821q2.6-.274 5.225-.476c2.746-.208 5.521-.354 8.326-.457 3.478-.129 7.006-.192 10.603-.199.26 0 .514-.005.775-.005 1.987 0 3.767.047 5.412.128.955.047 1.867.105 2.724.177.49.04.96.087 1.42.136.303.032.607.064.898.1.311.037.612.077.91.119h.007a52.161 52.161 0 0 1 13.198 3.747c.06.024.149.064.256.114.177-.512.336-1.028.493-1.546q.516-1.697.886-3.43c-1.98-.904-7.263-2.926-17.84-4.74-.132-.023-.25-.046-.384-.069-4.868-.822-8.76-1.33-12.218-1.597a70.72 70.72 0 0 0-9.708-.111c-2.947.167-5.971.502-9.524.96-1.132.145-2.402.325-3.743.523-11.782 1.745-30.926 5.482-44.985 10.403-15.659 5.481-35.52 13.184-50.707 22.722-9.232 5.23-18.005 13.033-23.47 18.559l-.031.032-.248.252-.046.047c-.431.44-.847.869-1.233 1.275a7.249 7.249 0 0 0 1.402.161h.05c.093.001.184-.002.276-.003l.03-.015a30.471 30.471 0 0 1 4.17-1.74c.27-.081.544-.145.815-.222a49.952 49.952 0 0 1 9.556-1.734c7.64-5.579 5.73-4.052 10.705-6.255a324.91 324.91 0 0 1 9.628-6.197z" class="cls-5"/><path fill="#a6a8ab" d="M187.954 57.727c-2.856 2.421-7.037 5.39-11.698 8.704-8.42 5.987-18.432 13.113-25.186 20.271-2.499 10.105-11.457 13.28-.808 21.732a207.58 207.58 0 0 0 2.398 4.096l.181.3.113.184.185.301 1.158-1.075q1.276-1.18 2.5-2.3.918-.84 1.81-1.65 1.43-1.295 2.793-2.507 1.18-1.051 2.316-2.043c-1.412-2.941-4.766-10.032-5.402-12.366-.808-2.97 5.204-9.018 10.033-13.848s14.005-9.9 19.317-12.556c3.499-1.749 9.858-6.79 14.254-10.895a26.947 26.947 0 0 0 4.58-5.041c.248-.473.696-1.235 1.275-2.185 1.038-1.7 2.496-4.003 3.982-6.318a859.82 859.82 0 0 1 2.035-3.158l-1.28 1.036a247.009 247.009 0 0 1-5.81 4.556c-4.566 3.48-8.83 6.567-14.966 11.607a319.56 319.56 0 0 0-3.78 3.155z"/><path d="M269.327 287.672c3.127-.277 3.538-1.316 3.622-3.9a5.528 5.528 0 0 0-.095-1.253 2.512 2.512 0 0 0-2.085-2.088 9.853 9.853 0 0 0-1.707-.28 3.706 3.706 0 0 0-3.762 2.589 4.17 4.17 0 0 0-.15 1.395 8.573 8.573 0 0 0 .214 1.588c.378 1.491 1.348 2.262 3.963 1.95zm-3.404-5.07c0-.034.007-.062.009-.094.047-1.138.907-1.645 2.115-1.645a2.13 2.13 0 0 1 1.161.306 1.611 1.611 0 0 1 .723 1.493 2.63 2.63 0 0 1-.348 1.411 1.548 1.548 0 0 1-1.403.714 2.32 2.32 0 0 1-2.257-2.185z" class="cls-14"/><path d="M269.583 284.073a2.63 2.63 0 0 0 .348-1.411 1.611 1.611 0 0 0-.722-1.493 2.13 2.13 0 0 0-1.161-.306c-1.21 0-2.069.507-2.116 1.645-.002.032-.01.06-.01.094a2.32 2.32 0 0 0 2.258 2.185 1.548 1.548 0 0 0 1.403-.714z" class="cls-15"/><path d="M266.792 269.164c.038 0 .076-.002.115-.004a5.336 5.336 0 0 0 5.1-5.562c.097-1.968-1.738-5.614-5.215-5.095-3.49.52-5.53 2.306-5.53 5.264l.002.135a5.397 5.397 0 0 0 5.528 5.262zm-.145-9.55c2.886.254 3.972 1.026 3.888 3.622s-.495 3.622-3.622 3.912c-3.38.386-3.985-1.05-4.178-3.562-.169-2.499 1.582-3.912 3.912-3.972z" class="cls-3"/><path d="M266.913 267.148c3.127-.29 3.537-1.316 3.622-3.912s-1.002-3.368-3.888-3.622c-2.33.06-4.08 1.473-3.912 3.972.193 2.511.797 3.948 4.178 3.562zm-3.345-5.083c0-1.207.882-1.739 2.125-1.739s1.884.592 1.884 1.8-.507 2.124-1.751 2.124a2.222 2.222 0 0 1-2.258-2.184z" class="cls-14"/><path d="M265.826 264.25c1.244 0 1.75-.917 1.75-2.125s-.64-1.799-1.883-1.799-2.125.532-2.125 1.739a2.222 2.222 0 0 0 2.258 2.185z" class="cls-15"/><path d="M308.01 113.782c-.76 7.305 9.055 1.51 10.564 1.002l-.31-2.062a27.168 27.168 0 0 1-1.847-7.82c-1.953.58-7.775 2.81-8.407 8.88zm-62.926 0c0 6.703 11.404 6.572 15.537 3.937a37.34 37.34 0 0 1-4.163-10.877c-1.842-.037-3.68-.078-5.499-.12-2.876 1.234-5.875 3.397-5.875 7.06z" class="cls-7"/><path d="M316.425 101.576l-.037-.048a25.332 25.332 0 0 0 .029 3.373 27.168 27.168 0 0 0 1.847 7.821c.756 1.996 1.615 3.895 2.35 5.914-3.296 2.088-9.719.784-13.437 2.414-.266 10.95 16.938 5.494 19.558-.543-3.875-5.65-6.556-12.496-9.658-18.93z" class="cls-3"/><path d="M340.33 77.02a8.1 8.1 0 0 0-.396-.648 17.784 17.784 0 0 0-4.442-4.248q-.331-.236-.657-.455c-.19-.129-.38-.256-.566-.375a34.23 34.23 0 0 0-.89-.554 27.972 27.972 0 0 0-2.33-1.273 5.459 5.459 0 0 0-.257-.114 52.161 52.161 0 0 0-13.198-3.747h-.006c-.299-.042-.6-.082-.91-.12-.292-.035-.596-.067-.898-.099a64.686 64.686 0 0 0-1.42-.137c-.858-.072-1.77-.13-2.725-.176-1.645-.08-3.425-.128-5.412-.128-.26 0-.515.005-.775.005-3.597.007-7.125.07-10.603.199-2.805.103-5.58.25-8.326.457q-2.627.198-5.225.476c-4.203.442-8.361 1.027-12.498 1.821-11.315 2.69-19.995 5.055-27.032 7.265-1.883.591-3.65 1.171-5.315 1.743a155.711 155.711 0 0 0-10.199 3.884q-1.08.457-2.113.915a162.845 162.845 0 0 0-6.937 3.28c-.914.457-1.822.917-2.733 1.385-1.187.434-2.487.99-3.854 1.626a153.874 153.874 0 0 0-14.116 7.774l-.21.128-.292.179-.285.175-.724.445-.064.04a324.91 324.91 0 0 0-9.628 6.196c-.91.61-1.433.967-1.433.967a418.212 418.212 0 0 0 3.05.291l1.03.095c1.18.107 2.57.231 4.129.365l1.86.158.168.014.451.037c.236.02.468.04.709.059l.559.045.152.012c6.737.545 15.17 1.136 22.32 1.356l.094.003c2.916.09 5.618.117 7.891.052 5.965-.169 15.041.1 24.685.328 1.819.043 3.657.084 5.499.121a15.22 15.22 0 0 1-.15-1.24 9.27 9.27 0 0 1 .39-3.833v-.024a51.275 51.275 0 0 1 2.357 5.146c9.824.171 19.509.167 26.462-.498 15.78-1.509 22.094-3.308 33.685-6.036a81.689 81.689 0 0 0 9.069-2.581c.633-.23 1.228-.467 1.804-.709.233-.097.47-.194.694-.294.237-.106.463-.216.691-.325a27.984 27.984 0 0 0 1.969-1.029 32.156 32.156 0 0 0 6.9-5.53c3.224-6.338 3.224-8.342 0-12.87zm-100.534 25.45c-5.24 0-8.837-.399-15.345-.785l-3.1-.188-2.027-.122-6.902-.418-10.91-.66a86.126 86.126 0 0 1 6.978-4.51 86.118 86.118 0 0 1 4.226-2.324 65.25 65.25 0 0 1 11.421-4.88c.118-.037.233-.081.35-.118l1.572 1.129 2.578 1.852 6.61 4.748 9.306 6.686s.555.181-4.757-.41zm9.14.434l-8.806-7.729-5.626-4.938-4.728-4.15 6.76-2.282 5.07 4.99 5.09 5.01 9.242 9.1z" class="cls-16"/><path d="M244.553 102.88l-9.306-6.686-6.61-4.748-2.578-1.852-1.572-1.13c-.117.038-.232.082-.35.12a65.25 65.25 0 0 0-11.42 4.88 86.118 86.118 0 0 0-4.227 2.323 86.11 86.11 0 0 0-6.978 4.51l10.91.66 6.902.418 2.026.122 3.101.188c6.508.386 10.106.785 15.345.785 5.312.591 4.757.41 4.757.41zm2.142-9.075l-5.089-5.009-5.07-4.991-6.76 2.281 4.728 4.151 5.626 4.938 8.806 7.729h7.002l-9.243-9.099z" class="cls-10"/><path d="M263.29 122.294c-4.044 3.924-11.3.664-16.709.41-5.13 8.15 10.07 9.683 16.601 7.751 1.787-.53 4.89-3.211 5.312-4.418 1.811-5.095-1.847-7.329-3.73-9.164-2.855-2.78-4.205-6.306-5.71-9.981a51.275 51.275 0 0 0-2.355-5.147v.024a9.27 9.27 0 0 0-.39 3.833c.032.407.08.82.149 1.24a37.34 37.34 0 0 0 4.163 10.877 82.7 82.7 0 0 0 2.67 4.575zm35.64 15.9a18.547 18.547 0 0 1-1.496-1.376c-4.77-5.216-10.999-12.64-13.474-18.46a3.544 3.544 0 0 1-.133-.58c-.217-1.038-.519-2.414-1.521-2.849a1.715 1.715 0 0 0-1.678.35l-.242.181v.29c-.23 8.451 5.687 15.587 10.431 21.285l.858 1.014c.398.495.809.942 1.207 1.377 1.944 2.1 3.236 3.513 1.425 6.7-1.05.41-2.246.99-3.502 1.594-3.911 1.895-8.789 4.25-13.014 3.525-1.594-.277-1.956-1.424-2.415-3.308a8.45 8.45 0 0 0-.785-2.414l-.459-.785-.38.508-.008.01-.155.206a7.69 7.69 0 0 0 .99 9.9l.145.121h.193a29.108 29.108 0 0 0 3.03.157c9.176 0 15.792-4.262 21.225-7.739l.326-.217-.06-.387a6.036 6.036 0 0 1 .58-2.33 8.065 8.065 0 0 0 .796-4.612c-.169-.688-.93-1.34-1.883-2.16z" class="cls-3"/><path fill="#d59e29" d="M189.766 192.099c-.212.01-.426.022-.645.043l-.09.006c-.237.024-.48.057-.726.093-.414.062-.828.123-1.268.222-.383.092-.76.203-1.14.31a32.273 32.273 0 0 0-5.839 2.25c-4.225 2.04-7.195 4.684-7.594 9.875a18.351 18.351 0 0 0-.03 2.769c.006.096.02.191.028.287a18.59 18.59 0 0 0 1.506 5.958c.216.488.446.971.706 1.442.217.362.434.712.676 1.062a39.172 39.172 0 0 0 3.155 3.991 39.2 39.2 0 0 0 2.38 2.409 39.161 39.161 0 0 0 10.293 6.941 10.488 10.488 0 0 0 2.944.88c1.966.213 3.486-.656 5.157-3.162a22.817 22.817 0 0 0 2.849-7.4l.146-.598a26.863 26.863 0 0 1 .992-3.444l.043-.104a9.357 9.357 0 0 1 .516-1.076 7.643 7.643 0 0 1 1.406-1.83c.476-.413.972-.802 1.46-1.2.228-.187.451-.379.682-.562.225-.178.45-.358.678-.533.136-.105.277-.201.414-.305.091-.069.184-.134.276-.202l.02-.016c.56-.417 1.115-.84 1.688-1.238.563-.39 1.143-.754 1.719-1.125a60.357 60.357 0 0 1 3.868-2.316c3.008-1.759 8.873-4.224 15.563-6.772a402.903 402.903 0 0 1 4.623-1.727c2.017-.74 4.062-1.474 6.092-2.19 7.4-2.607 14.55-4.945 19.093-6.29l-.045-.015a12.792 12.792 0 0 1-3.053-1.877h-.005c-1.787.448-3.525 1.124-5.288 1.655-1.525.466-6.647 2.016-12.237 3.72-2.55.777-5.195 1.584-7.643 2.337-1.6.491-3.109.958-4.455 1.376-2.484.773-4.405 1.382-5.232 1.67q-5.735 2.04-11.312 4.455c-1.198.515-2.536 1.176-3.9 1.784-.808.36-1.622.707-2.427.98a11.953 11.953 0 0 1-2.113.568c-.715.12-1.387.263-1.79-.122a1.108 1.108 0 0 1-.322-.566c-1.378-5.237-3.32-9.96-7.444-11.727a8.938 8.938 0 0 0-1.908-.54 11.063 11.063 0 0 0-2.467-.146zm-15.117 10.457c.387-3.67 6.677-5.626 9.72-6.52.732-.233 1.66-.51 2.654-.739a17.765 17.765 0 0 1 2.233-.373 11.544 11.544 0 0 1 1.489-.05c.045.002.087.009.132.011 2.073.127 3.777 1.036 3.947 3.675a3.215 3.215 0 0 1-.389 1.886c-.016.03-.03.062-.047.092a3.222 3.222 0 0 1-1.665 1.342c-.023.012-.048.02-.071.032a36.832 36.832 0 0 1-8.308 2.866 21.258 21.258 0 0 1-4.708.459c-.415.063-.833.087-1.251.114a14.476 14.476 0 0 1-2.13-.004c-.025-.002-.049 0-.072-.002-1.316-.374-1.678-1.485-1.534-2.789zm.761 8.645a1.811 1.811 0 0 1 1.823-3.127 5.876 5.876 0 0 0 3.312.428c.393-.031.769-.071 1.107-.102a25.45 25.45 0 0 0 6.556-1.63c1.422-.538 2.315.777 2.16 1.98a1.822 1.822 0 0 1-1.195 1.521 26.787 26.787 0 0 1-9.568 2.002 8.643 8.643 0 0 1-4.195-1.072z"/><path d="M207.21 216.078l-.168.085c-.459.495-.049.205.169-.085zm-16.841-7.328c.154-1.203-.739-2.518-2.161-1.98a25.45 25.45 0 0 1-6.556 1.63c-.338.03-.714.07-1.107.102a5.876 5.876 0 0 1-3.312-.428 1.811 1.811 0 0 0-1.823 3.127 8.643 8.643 0 0 0 4.195 1.072 26.787 26.787 0 0 0 9.568-2.002 1.822 1.822 0 0 0 1.196-1.522zm-14.186-3.405c.024.002.047 0 .071.002a14.476 14.476 0 0 0 2.13.004c.419-.027.837-.051 1.252-.114a21.258 21.258 0 0 0 4.708-.46 36.832 36.832 0 0 0 8.308-2.865c.023-.011.048-.02.07-.032a3.222 3.222 0 0 0 1.666-1.342c.018-.03.03-.062.047-.092a3.215 3.215 0 0 0 .389-1.886c-.17-2.64-1.874-3.548-3.947-3.675-.045-.003-.087-.01-.132-.011a9.5 9.5 0 0 0-.752-.001c-.244.009-.49.026-.737.05a17.765 17.765 0 0 0-2.233.374c-.994.228-1.922.506-2.655.74-3.042.893-9.332 2.849-9.719 6.52-.144 1.303.218 2.414 1.534 2.788z" class="cls-3"/><path d="M289.183 35.334l-.648 1.007.356 1.08 1.081.433 1.017-.595.173-1.169-.8-.854-1.179.098zm4.467-.299a.582.582 0 0 0 .466.664l4.06.835a8.452 8.452 0 0 0-.382-2.513 8.635 8.635 0 0 0-1.101-2.321l-2.888 3.017a.546.546 0 0 0-.154.318zm-6.254-6.535a8.304 8.304 0 0 0-3.711 2.354l3.56 2.134a.52.52 0 0 0 .348.089.581.581 0 0 0 .535-.602l-.081-4.138a5.23 5.23 0 0 0-.651.163zm4.527 4.126l3.176-2.643a8.502 8.502 0 0 0-4.697-1.829l.568 4.09a.537.537 0 0 0 .144.333.599.599 0 0 0 .809.049zm-6.432 3.743a.617.617 0 0 0 .284-.225.581.581 0 0 0-.136-.796l-3.295-2.517a8.367 8.367 0 0 0-.713 4.987zm8.233 2.133v.004l-.119.02a.642.642 0 0 0-.218.078.568.568 0 0 0-.222.765l1.878 3.714a8.354 8.354 0 0 0 2.848-4.21zm-1.604 6.017c.086-.024.175-.036.261-.063l.645-.238-2.315-3.472a.536.536 0 0 0-.278-.223.528.528 0 0 0-.256.004l-.022.004a.559.559 0 0 0-.452.317l-.931 2.057-.774 1.71a8.304 8.304 0 0 0 4.122-.096zm-6.358-.751l.65-2 .625-1.917a.568.568 0 0 0 0-.359.576.576 0 0 0-.59-.41h-.169l-3.579.896-.384.097a8.476 8.476 0 0 0 3.447 3.693z" class="cls-5"/><path d="M283.285 54.902c4.094-.52 7.334-.823 10.137-.944a62.827 62.827 0 0 1 3.78-.054l1.451-.113a2.94 2.94 0 0 0 1.908-1.099l2.11-3.088 6.184-9.046a2.523 2.523 0 0 0 .326-2.173l-4.383-13.98a2.523 2.523 0 0 0-1.509-1.606l-13.763-5.3a2.62 2.62 0 0 0-1.292-.194 2.802 2.802 0 0 0-.954.326l-12.773 7.413a2.584 2.584 0 0 0-1.208 1.823l-1.194 8.006-.613 4.11-.354 2.372a2.415 2.415 0 0 0 .495 1.896 1.207 1.207 0 0 0 .157.193l.155.164 9.914 10.545a2.579 2.579 0 0 0 1.426.749zm1.59-8.48l-.03-.054.101-.316a10.942 10.942 0 0 1-5.09-5.424l-.287.07-.05-.028a.703.703 0 0 0-.408-.102 7.113 7.113 0 0 0-1.33.515 4.448 4.448 0 0 0-.298.147 3.518 3.518 0 0 1-.429.198l-.228.064a.94.94 0 0 1-.101.013 1.004 1.004 0 0 1-1.118-.539c-.014-.028-.038-.049-.05-.079a1.019 1.019 0 0 1 .71-1.238l.038-.005h.217a5.676 5.676 0 0 1 .772-.12 7.543 7.543 0 0 0 1.394-.348.934.934 0 0 0 .256-.31l.024-.05.276-.108c-.03-.142-.047-.286-.072-.43a10.67 10.67 0 0 1 1.152-6.943l-.224-.176-.01-.053a.892.892 0 0 0-.166-.38 7.994 7.994 0 0 0-1.24-.736 6.41 6.41 0 0 1-.723-.355l-.19-.126a1.024 1.024 0 0 1-.33-1.4.932.932 0 0 1 .745-.405 1.103 1.103 0 0 1 .664.194l.192.133a5.108 5.108 0 0 1 .603.551 8.32 8.32 0 0 0 1.177.881.566.566 0 0 0 .372-.012l.063-.023.266.154a10.603 10.603 0 0 1 6.449-3.74v-.285l.037-.04a.793.793 0 0 0 .19-.364 8.175 8.175 0 0 0-.2-1.429 5.286 5.286 0 0 1-.171-.785l-.002-.225a1.006 1.006 0 0 1 .642-1.047l-.071-.088.254-.031h.017a1.004 1.004 0 0 1 1.024.983 1.764 1.764 0 0 1 0 .242v.774a7.335 7.335 0 0 0-.001 1.471.518.518 0 0 0 .233.291l.07.041v.304a10.857 10.857 0 0 1 6.909 2.703l.242-.212.06.006a.743.743 0 0 0 .417-.081 8.232 8.232 0 0 0 .98-1.037 5.812 5.812 0 0 1 .502-.624l.177-.165a.62.62 0 0 1 .057-.052.963.963 0 0 1 1.242 1.473l-.164.151a7.19 7.19 0 0 1-.66.475 7.563 7.563 0 0 0-1.187.925.527.527 0 0 0-.065.348l.01.068-.242.251a10.745 10.745 0 0 1 2.243 7.121l.28.06.032.052a.69.69 0 0 0 .31.27 8.327 8.327 0 0 0 1.426.121 5.953 5.953 0 0 1 .808 0h.232a1.01 1.01 0 0 1 .901 1.096l-.005.036a.984.984 0 0 1-1.167.767l-.176.003a3.514 3.514 0 0 1-.502-.14 4.823 4.823 0 0 0-.297-.095 7.682 7.682 0 0 0-1.438-.31.566.566 0 0 0-.33.165l-.043.042h-.297a10.785 10.785 0 0 1-4.178 6.204c.049.098.102.209.102.209l.026.055-.023.057a.544.544 0 0 0 0 .392 7.558 7.558 0 0 0 .458.706c.113.158.229.314.353.462a6.725 6.725 0 0 1 .491.64l.125.212a.891.891 0 0 1 .09.154.963.963 0 1 1-1.753.798c-.032-.064-.111-.187-.111-.187a3.883 3.883 0 0 1-.205-.481c-.034-.09-.067-.182-.108-.277a7.397 7.397 0 0 0-.653-1.308.507.507 0 0 0-.327-.152l-.068-.005-.175-.258a10.603 10.603 0 0 1-1.272.487 10.836 10.836 0 0 1-6.145.036l-.135.3-.066.016a.559.559 0 0 0-.256.14 5.767 5.767 0 0 0-.497 1.464 6.995 6.995 0 0 1-.183.786.454.454 0 0 1-.05.113.36.36 0 0 0-.03.067.333.333 0 0 1-.018.073.957.957 0 0 1-.211.333.987.987 0 0 1-.72.324.974.974 0 0 1-.326-.056 1.007 1.007 0 0 1-.586-1.055.968.968 0 0 1 .055-.269.716.716 0 0 0 .086-.174l.014-.062a6.412 6.412 0 0 1 .395-.703 8.964 8.964 0 0 0 .617-1.326.745.745 0 0 0-.09-.364z" class="cls-5"/><path d="M283.953 48.815l-.015.062a.716.716 0 0 1-.085.174.968.968 0 0 0-.055.27 1.007 1.007 0 0 0 .586 1.054.974.974 0 0 0 .325.056.987.987 0 0 0 .721-.324.957.957 0 0 0 .211-.333.333.333 0 0 0 .018-.073.36.36 0 0 1 .03-.067.454.454 0 0 0 .05-.113 6.995 6.995 0 0 0 .183-.786 5.767 5.767 0 0 1 .497-1.464.559.559 0 0 1 .255-.14l.067-.016.135-.3a10.836 10.836 0 0 0 6.145-.036 10.603 10.603 0 0 0 1.272-.487l.175.258.068.005a.507.507 0 0 1 .327.152 7.397 7.397 0 0 1 .653 1.308c.041.095.074.186.108.277a3.883 3.883 0 0 0 .205.481s.08.123.111.187a.963.963 0 1 0 1.753-.798.891.891 0 0 0-.09-.154l-.125-.213a6.725 6.725 0 0 0-.49-.64 7.492 7.492 0 0 1-.354-.46 7.558 7.558 0 0 1-.458-.707.544.544 0 0 1 0-.392l.023-.057-.026-.055-.102-.21a10.785 10.785 0 0 0 4.178-6.203h.297l.042-.042a.566.566 0 0 1 .33-.165 7.682 7.682 0 0 1 1.44.31c.105.029.201.062.296.094a3.514 3.514 0 0 0 .502.14l.176-.002a.984.984 0 0 0 1.167-.767l.005-.036a1.01 1.01 0 0 0-.902-1.096h-.231a5.953 5.953 0 0 0-.808 0 8.327 8.327 0 0 1-1.426-.12.69.69 0 0 1-.31-.272l-.033-.05-.279-.06a10.745 10.745 0 0 0-2.243-7.122l.242-.25-.01-.07a.527.527 0 0 1 .065-.347 7.563 7.563 0 0 1 1.186-.925 7.19 7.19 0 0 0 .66-.475l.165-.152a.963.963 0 0 0-1.242-1.472.62.62 0 0 0-.057.052l-.177.165a5.812 5.812 0 0 0-.502.624 8.232 8.232 0 0 1-.98 1.037.743.743 0 0 1-.417.08l-.06-.005-.242.212a10.857 10.857 0 0 0-6.91-2.703v-.304l-.069-.041a.518.518 0 0 1-.233-.29 7.335 7.335 0 0 1 0-1.472v-.774a1.764 1.764 0 0 0 0-.242 1.004 1.004 0 0 0-1.023-.983h-.017l-.254.031.07.088a1.006 1.006 0 0 0-.64 1.047v.225a5.286 5.286 0 0 0 .172.785 8.175 8.175 0 0 1 .2 1.43.793.793 0 0 1-.19.362l-.037.04v.285a10.603 10.603 0 0 0-6.45 3.74l-.265-.153-.064.023a.566.566 0 0 1-.37.012 8.32 8.32 0 0 1-1.178-.88 5.108 5.108 0 0 0-.603-.552l-.192-.133a1.103 1.103 0 0 0-.664-.194.932.932 0 0 0-.745.406 1.024 1.024 0 0 0 .33 1.399l.19.126a6.41 6.41 0 0 0 .722.355 7.994 7.994 0 0 1 1.241.735.892.892 0 0 1 .166.381l.01.053.224.176a10.67 10.67 0 0 0-1.152 6.944c.025.143.041.287.072.43l-.276.108-.024.048a.934.934 0 0 1-.256.311 7.543 7.543 0 0 1-1.394.348 5.676 5.676 0 0 0-.772.12h-.217l-.037.005a1.019 1.019 0 0 0-.71 1.238c.011.03.035.05.049.079a1.004 1.004 0 0 0 1.118.539.94.94 0 0 0 .1-.013l.23-.064a3.518 3.518 0 0 0 .428-.198 4.47 4.47 0 0 1 .299-.147 7.113 7.113 0 0 1 1.33-.515.703.703 0 0 1 .407.101l.05.029.286-.07a10.942 10.942 0 0 0 5.091 5.424l-.101.316.03.054a.745.745 0 0 1 .09.364 8.964 8.964 0 0 1-.617 1.326 6.412 6.412 0 0 0-.395.703zm12.74-17.115a8.635 8.635 0 0 1 1.1 2.32 8.452 8.452 0 0 1 .383 2.514l-4.06-.835a.582.582 0 0 1-.465-.664.546.546 0 0 1 .154-.318zm-1.65 11.383l-1.878-3.714a.568.568 0 0 1 .222-.765.642.642 0 0 1 .218-.078l.119-.02v-.004l4.167.371a8.354 8.354 0 0 1-2.848 4.21zm-4.073-10.838l-.568-4.09a8.502 8.502 0 0 1 4.697 1.828l-3.176 2.643a.599.599 0 0 1-.809-.049.537.537 0 0 1-.144-.332zm-1.267 8.603a.559.559 0 0 1 .452-.317l.022-.004a.528.528 0 0 1 .256-.004.536.536 0 0 1 .278.223l2.315 3.472-.645.238c-.086.027-.175.039-.261.063a8.304 8.304 0 0 1-4.122.096l.774-1.71zm1.286-3.59l-1.017.596-1.081-.433-.356-1.08.648-1.007 1.179-.098.8.854zm-4.711 1.824h.168a.576.576 0 0 1 .59.41.568.568 0 0 1 0 .359l-.623 1.917-.651 2a8.476 8.476 0 0 1-3.447-3.693l.384-.097zm1.315-6.005a.52.52 0 0 1-.348-.09l-3.56-2.133a8.304 8.304 0 0 1 3.71-2.354 5.23 5.23 0 0 1 .652-.163l.08 4.138a.581.581 0 0 1-.534.602zm-5.248-.246l3.294 2.517a.581.581 0 0 1 .136.796.617.617 0 0 1-.283.225l-3.86 1.45a8.367 8.367 0 0 1 .712-4.988z" class="cls-9"/><path fill="#fff100" d="M306.73 167.846l-.002-.001.002.001zm5.155 13.667l-.01.02zm-27.756.314a6.312 6.312 0 0 1-.549.782 6.287 6.287 0 0 0 .585-.819 2.393 2.393 0 0 1 .242-.238c-.022.02-.047.032-.069.053a2.41 2.41 0 0 0-.21.222zm-46.179 4.339a4.803 4.803 0 0 1-2.756.705q-.235-.012-.468-.046a7.941 7.941 0 0 1-4.353-2.842 7.966 7.966 0 0 0 4.389 2.878 4.884 4.884 0 0 0 5.48-4.074 4.833 4.833 0 0 0 .05-.538 1.61 1.61 0 0 1 .358-1.153 1.581 1.581 0 0 0-.395 1.19 4.822 4.822 0 0 1-2.305 3.88zm15.02-2.039c-.012.01-.021.023-.033.033l.041-.036a5.521 5.521 0 0 0 1.536-2.237 2.196 2.196 0 0 1 .398-.679 2.158 2.158 0 0 0-.435.715 5.503 5.503 0 0 1-1.507 2.204zm15.734-.386a3.782 3.782 0 0 1-.619.83 3.856 3.856 0 0 0 .63-.818 2.856 2.856 0 0 0 .383-1.19 2.065 2.065 0 0 1 .6-1.354 1.925 1.925 0 0 0-.636 1.39 2.84 2.84 0 0 1-.358 1.142zm29.302-.911a5.182 5.182 0 0 0 .973-1.378 2.189 2.189 0 0 1 .187-.319 2.046 2.046 0 0 0-.223.356 5.202 5.202 0 0 1-.937 1.341z"/><path d="M230.373 183.983a7.941 7.941 0 0 0 4.353 2.842q.232.034.468.046a4.834 4.834 0 0 0 5.061-4.586 1.581 1.581 0 0 1 .395-1.19 1.704 1.704 0 0 1 2.768.792 5.664 5.664 0 0 0 4.688 3.641 6.192 6.192 0 0 0 4.831-1.369c.012-.01.021-.022.033-.033a5.503 5.503 0 0 0 1.507-2.203 2.158 2.158 0 0 1 .435-.715 1.14 1.14 0 0 1 1.92.148c.36.457.758.93 1.184 1.394a11.995 11.995 0 0 0 3.94 2.993l.048.02a6.321 6.321 0 0 0 1.36.422 4.89 4.89 0 0 0 2.255-.189l.068-.023a5.984 5.984 0 0 0 2.398-1.402 3.782 3.782 0 0 0 .62-.83 2.84 2.84 0 0 0 .357-1.142 1.925 1.925 0 0 1 .636-1.39c.551-.511 1.36-.462 1.911.581 2.312 4.207 8.95 4.429 11.971.82a6.312 6.312 0 0 0 .549-.783 2.41 2.41 0 0 1 .209-.222c.022-.02.047-.034.07-.053a2.375 2.375 0 0 1 .318-.244h.001a2.573 2.573 0 0 1 2.838.165 2.406 2.406 0 0 1 .222.209c2.11 3.522 7.542 3.874 10.22 1.148a5.202 5.202 0 0 0 .936-1.342 2.046 2.046 0 0 1 .223-.355c1.026-1.444 3.106-.15 2.868 1.527a2.753 2.753 0 0 0 1.63 2.903 5.145 5.145 0 0 0 3.766.405 8.423 8.423 0 0 0 4.124-3.772 8.65 8.65 0 0 0 .322-.664l.01-.02c2.185-4.937-1.643-10.419-5.156-13.666l-.001-.001a25.825 25.825 0 0 0-9.187-5.082 40.123 40.123 0 0 0-10.322-2.27c-3.043-.241-6.11-.084-9.2-.145s-6.121-.302-9.188-.23-6.181-.385-9.236-.216a94.171 94.171 0 0 0-12.073 1.34 28.468 28.468 0 0 0-11.228 4.527 21.598 21.598 0 0 0-7.038 9.08 8.934 8.934 0 0 0-.532 6.53 11.816 11.816 0 0 0 1.033 1.8c.033.047.071.09.105.137.162.227.33.45.51.667z" class="cls-6"/><path fill="none" stroke="#221f1f" stroke-linecap="round" stroke-linejoin="round" stroke-width="0" d="M284.727 181.308a2.378 2.378 0 0 1 .53-.233"/><path d="M30.366 434.367q1.648.235 4.152.763a22.655 22.655 0 0 1 4.269 1.29 5.677 5.677 0 0 1 3.12 2.463 8.415 8.415 0 0 1 .649 3.52v46.977q0 10.206-4.027 15.25a13.397 13.397 0 0 1-11.077 5.043 8.394 8.394 0 0 1-3.585-.82 4.36 4.36 0 0 1-2.292-1.993v-.762a40.351 40.351 0 0 0 5.949-5.889 10.76 10.76 0 0 0 2.608-6.945 9.983 9.983 0 0 0-3.019-7.384 11.03 11.03 0 0 0-8.116-2.989 10.586 10.586 0 0 0-8.468 3.575 13.345 13.345 0 0 0-3.077 9.025q0 9.202 6.71 14.475 6.71 5.274 17.67 5.274a38.697 38.697 0 0 0 11.896-1.788 32.34 32.34 0 0 0 10.08-5.308 25.32 25.32 0 0 0 7.003-8.854 26.348 26.348 0 0 0 2.549-11.613v-45.862a9.814 9.814 0 0 1 .674-3.753 4.203 4.203 0 0 1 3.077-2.287q2.05-.528 3.692-.82 1.64-.295 3.985-.588v-4.571H30.366zm101.971 69.007a17.09 17.09 0 0 1-9.904 3.017q-10.08 0-14.71-6.27-4.63-6.27-4.63-18.285h39.617v-3.81a29.754 29.754 0 0 0-1.524-9.522 19.988 19.988 0 0 0-4.864-7.882 23.867 23.867 0 0 0-8.732-5.51 38.651 38.651 0 0 0-13.479-1.992 34.355 34.355 0 0 0-13.567 2.579 29.893 29.893 0 0 0-10.05 6.74 30.814 30.814 0 0 0-8.44 21.214 36.216 36.216 0 0 0 2.023 12.278 26.49 26.49 0 0 0 6.124 9.815 29.346 29.346 0 0 0 10.402 6.623 41.1 41.1 0 0 0 14.973 2.461 33.802 33.802 0 0 0 9.23-1.142 36.114 36.114 0 0 0 7.941-3.37 30.058 30.058 0 0 0 6.593-5.069 35.676 35.676 0 0 0 4.952-6.3l-4.454-3.224a28.26 28.26 0 0 1-7.501 7.649zm-26.313-40.936q2.695-4.57 7.208-4.57a6.694 6.694 0 0 1 4.366 1.406 9.288 9.288 0 0 1 2.725 4.16 24.007 24.007 0 0 1 1.23 6.037q.352 3.692.352 7.208l-18.811.234q.233-9.902 2.93-14.475zm115.801 44.832a4.543 4.543 0 0 1-2.402-2.051 7.781 7.781 0 0 1-.645-3.458v-28.716q0-8.966-4.776-14.387-4.778-5.42-14.329-5.42a27.412 27.412 0 0 0-7.501.996 21.062 21.062 0 0 0-5.685 2.403 38.35 38.35 0 0 0-4.337 3.34q-2.345 2.052-3.985 3.516h-.234v-8.497l-.88-.88-27.953 1.524v4.278a18.823 18.823 0 0 1 3.545.645 9.696 9.696 0 0 1 2.667 1.172 8.397 8.397 0 0 1 2.461 2.872 7.529 7.529 0 0 1 .938 3.575v34.107a7.599 7.599 0 0 1-.703 3.516 4.302 4.302 0 0 1-2.58 1.993 14.313 14.313 0 0 1-2.548.557q-1.495.205-2.96.322v4.278h35.631v-4.278a18.19 18.19 0 0 1-2.754-.586 11.146 11.146 0 0 1-2.344-.938 4.088 4.088 0 0 1-1.934-2.08 8.767 8.767 0 0 1-.586-3.429v-31.47q.704-.936 1.733-2.168a13.494 13.494 0 0 1 2.733-2.403 16.342 16.342 0 0 1 3.966-2.051 13.269 13.269 0 0 1 4.378-.703 7.53 7.53 0 0 1 6.493 3.018q2.204 3.019 2.205 8.995v27.427a9.636 9.636 0 0 1-.528 3.633 3.727 3.727 0 0 1-1.758 1.876 7.388 7.388 0 0 1-2.403.586q-1.582.175-2.696.293v4.278h35.221v-4.278a16.862 16.862 0 0 1-3.135-.586 19.991 19.991 0 0 1-2.315-.82zm76.199-3.455q-5.323-7.907-10.18-14.995-4.855-7.087-10.588-15.405 2.923-2.586 5.172-4.32 2.25-1.733 4.648-3.316a52.955 52.955 0 0 1 6.7-3.839 61.448 61.448 0 0 1 8.923-3.076v-4.044h-29.771v4.16a27.7 27.7 0 0 1 5.57 1.232q1.85.703 1.85 1.758a9.828 9.828 0 0 1-.205 1.26 7.693 7.693 0 0 1-2.14 3.017q-3.278 3.34-8.692 8.438-5.414 5.099-9.745 8.965v-60.476l-.88-.938-29.183 1.524v4.278a28.987 28.987 0 0 1 4.043.586 10.527 10.527 0 0 1 3.34 1.172 6.53 6.53 0 0 1 2.491 3.135 10.608 10.608 0 0 1 .85 4.015v65.343a7.832 7.832 0 0 1-.678 3.516 4.202 4.202 0 0 1-2.567 1.993 16.152 16.152 0 0 1-2.596.557q-1.475.205-2.95.322v4.278h36.394v-4.278a17.542 17.542 0 0 1-2.813-.47 14.99 14.99 0 0 1-2.462-.82 3.908 3.908 0 0 1-2.373-1.992 8.364 8.364 0 0 1-.616-3.458v-12.775l3.452-2.92q3.748 5.319 7.964 11.545 4.215 6.224 9.31 15.168h27.623v-4.278a22.09 22.09 0 0 1-5.385-1.172 8.869 8.869 0 0 1-4.506-3.69zm42.064 3.338a5.321 5.321 0 0 1-2.52-2.138 6.555 6.555 0 0 1-.879-3.488v-46.531l-.879-.88-28.716 1.524v4.278a20.866 20.866 0 0 1 3.897.82 12.471 12.471 0 0 1 3.194 1.349 7.775 7.775 0 0 1 2.344 2.49 6.844 6.844 0 0 1 .938 3.605v34.107a6.946 6.946 0 0 1-.762 3.487 4.86 4.86 0 0 1-2.637 2.022 10.39 10.39 0 0 1-2.52.586q-1.466.175-2.989.293v4.278h37.038v-4.278a17.608 17.608 0 0 1-2.93-.586 19.563 19.563 0 0 1-2.579-.938zm-14.592-63.409a11.626 11.626 0 0 0 8.116-3.136 9.911 9.911 0 0 0 3.429-7.589 10.043 10.043 0 0 0-3.4-7.618 12.104 12.104 0 0 0-16.32 0 10.147 10.147 0 0 0 0 15.207 11.699 11.699 0 0 0 8.175 3.136zm97.4 63.526a4.543 4.543 0 0 1-2.403-2.051 7.781 7.781 0 0 1-.645-3.458v-28.716q0-8.966-4.776-14.387-4.777-5.42-14.329-5.42a27.412 27.412 0 0 0-7.501.996 21.062 21.062 0 0 0-5.685 2.403 38.35 38.35 0 0 0-4.336 3.34q-2.345 2.052-3.985 3.516H379v-8.497l-.879-.88-27.954 1.524v4.278a18.823 18.823 0 0 1 3.546.645 9.696 9.696 0 0 1 2.666 1.172 8.397 8.397 0 0 1 2.461 2.872 7.529 7.529 0 0 1 .938 3.575v34.107a7.599 7.599 0 0 1-.703 3.516 4.302 4.302 0 0 1-2.579 1.993 14.313 14.313 0 0 1-2.549.557q-1.494.205-2.96.322v4.278h35.632v-4.278a18.19 18.19 0 0 1-2.755-.586 11.146 11.146 0 0 1-2.344-.938 4.088 4.088 0 0 1-1.934-2.08 8.767 8.767 0 0 1-.586-3.429v-31.47q.705-.936 1.734-2.168a13.494 13.494 0 0 1 2.733-2.403 16.342 16.342 0 0 1 3.966-2.051 13.269 13.269 0 0 1 4.377-.703 7.53 7.53 0 0 1 6.494 3.018q2.203 3.019 2.204 8.995v27.427a9.636 9.636 0 0 1-.527 3.633 3.727 3.727 0 0 1-1.759 1.876 7.388 7.388 0 0 1-2.402.586q-1.583.175-2.696.293v4.278h35.22v-4.278a16.862 16.862 0 0 1-3.134-.586 19.991 19.991 0 0 1-2.315-.82zm60.37-24.35q-4.857-4.658-15.329-7.355a50.418 50.418 0 0 1-10.56-3.75 6.758 6.758 0 0 1-3.773-6.446 6.085 6.085 0 0 1 2.579-5.216 11.846 11.846 0 0 1 7.09-1.875 15.888 15.888 0 0 1 10.725 4.424 24.233 24.233 0 0 1 7.033 10.52h4.102l-.938-19.984h-4.453l-1.231 3.457a49.608 49.608 0 0 0-7.53-2.373 41.76 41.76 0 0 0-9.817-1.084q-11.252 0-18.196 5.098a15.827 15.827 0 0 0-6.945 13.362 16.547 16.547 0 0 0 5.802 13.185 23.338 23.338 0 0 0 5.89 3.781 64.343 64.343 0 0 0 6.827 2.373q3.984 1.174 6.71 1.992a29.929 29.929 0 0 1 5.01 1.993 10.036 10.036 0 0 1 3.224 2.637 6.169 6.169 0 0 1 1.172 3.868q0 4.339-2.608 6.418-2.608 2.08-7.94 2.08a16.4 16.4 0 0 1-7.59-1.817 26.492 26.492 0 0 1-6.3-4.454 32.76 32.76 0 0 1-4.688-5.948 29.028 29.028 0 0 1-2.93-5.949h-4.279l.762 21.86h4.571l1.759-3.985a36.302 36.302 0 0 0 8.41 3.546 37.5 37.5 0 0 0 11.105 1.67q12.13 0 19.661-5.275 7.53-5.274 7.53-14.886a15.734 15.734 0 0 0-4.855-11.866z" class="cls-16"/></svg>