<svg xmlns="http://www.w3.org/2000/svg" role="img" viewBox="-7.34 -7.34 615.68 534.18"><defs><style>.cls-1{opacity:0}.cls-2{fill:#d23933}.cls-3{fill:#221f1f}.cls-5{fill:#326ce5}.cls-6{fill:#8a5d3b}.cls-7{fill:#dbd8d7}.cls-8{fill:#f6e3cd}.cls-9{fill:#159fd6}.cls-10{fill:#fff}.cls-11{fill:#ee3e3b}.cls-14{fill:#f2b445}.cls-15{fill:#f5e776}</style></defs><g id="path90"><g class="cls-1"><path d="M339.352 256.841l-.072 1.953c-2.663 1.747-6.953 1.723-9.882 3.193a25.38 25.38 0 0 1 10.63 2.687c-.061 1.615-.133 3.242-.194 4.82-4.82 3.339-9.327 8.304-15.063 11.437-2.724 1.482-12.244 5.29-15.136 4.616-1.627-.374-1.784-2.41-2.41-4.315-1.386-4.097-4.592-10.616-4.82-16.774-.362-7.785-1.206-20.824 7.23-19.222a75.185 75.185 0 0 1 19.872 7.23c3.133 1.845 4.989 4.002 9.845 4.375z"/></g><path d="M310.417 287.126a5 5 0 0 1-1.124-.112c-2.161-.497-2.723-2.546-3.173-4.194-.101-.367-.204-.745-.326-1.117-.318-.938-.74-2.021-1.198-3.2-1.565-4.025-3.513-9.034-3.697-13.989l-.03-.616c-.304-6.466-.723-15.32 3.317-18.827a6.473 6.473 0 0 1 5.73-1.314 76.692 76.692 0 0 1 20.3 7.381c.835.49 1.526.958 2.195 1.411 2.092 1.417 3.744 2.536 7.057 2.79l1.443.111-.155 4.177-.65.426a12.686 12.686 0 0 1-3.786 1.542 26.885 26.885 0 0 1 4.383 1.733l.866.434-.258 6.542-.619.429c-1.853 1.284-3.66 2.816-5.571 4.439a58.357 58.357 0 0 1-9.628 7.08c-1.704.928-10.649 4.873-15.076 4.874zm-2.126-40.52a3.124 3.124 0 0 0-2.13.738c-2.936 2.55-2.526 11.227-2.282 16.411l.03.633c.166 4.462 2.012 9.208 3.494 13.022.478 1.226.915 2.353 1.248 3.34.143.432.26.86.374 1.275.324 1.184.565 1.966.947 2.054 2.122.492 10.962-2.775 14.079-4.47a56.235 56.235 0 0 0 9.12-6.734c1.764-1.497 3.44-2.919 5.188-4.182l.124-3.087a24.077 24.077 0 0 0-9.13-2.113l-.631-2.852a21.331 21.331 0 0 1 4.937-1.517 23.188 23.188 0 0 0 3.706-1.026 16.535 16.535 0 0 1-6.644-3.055c-.627-.425-1.268-.86-1.978-1.278a73.612 73.612 0 0 0-19.419-7.055 5.551 5.551 0 0 0-1.033-.104z" class="cls-2"/></g><path d="M308.948 31.49a21.499 21.499 0 0 0-16.45 0L182.632 84.393a21.547 21.547 0 0 0-10.256 12.919l-27.138 118.882a21.475 21.475 0 0 0 3.615 16.04l76.077 95.25a21.499 21.499 0 0 0 14.775 7.23h121.954a21.475 21.475 0 0 0 14.86-7.23l76.04-95.347a21.535 21.535 0 0 0 3.615-16.04l-27.09-118.785a21.547 21.547 0 0 0-10.255-12.87z" class="cls-2"/><path d="M361.78 338.932l-122.34-.008a25.553 25.553 0 0 1-17.673-8.649l-.134-.159-76.227-95.451a25.522 25.522 0 0 1-4.325-19.189l.044-.22L168.32 96.152a25.598 25.598 0 0 1 12.262-15.447l.218-.113 110.085-53a25.545 25.545 0 0 1 19.677 0l.217.098 110.093 53.062a25.6 25.6 0 0 1 12.264 15.39l.06.231 27.135 119.01a25.586 25.586 0 0 1-4.324 19.18l-.151.203-76.176 95.507a25.857 25.857 0 0 1-17.778 8.651zm-121.937-8.436h121.686a17.371 17.371 0 0 0 11.76-5.728l75.889-95.156a17.203 17.203 0 0 0 2.857-12.694L424.999 98.373a17.213 17.213 0 0 0-8.117-10.187L307.23 35.344a17.171 17.171 0 0 0-13.014 0l-109.64 52.793a17.212 17.212 0 0 0-8.115 10.23l-27.086 118.651a17.138 17.138 0 0 0 2.855 12.687l75.926 95.06a17.166 17.166 0 0 0 11.687 5.731z" class="cls-3"/><g id="path3565"><path fill="#f0d6b7" d="M368.648 64.064l6.483 10.375 7.978 14.57 2.013 36.152-6.026 31.128-11.05 27.62-10.545 14.558-7.532 8.038-20.089 3.013-27.102 3.012-17.582.494-17.076-.494-13.052-4.025-11.544-12.545-9.038-25.608-2.013-5.555-12.05-4.013-7.026-11.545-5.026-16.546 5.52-14.57 13.063-4.518 10.544 5.025 5.026 11.05 6.025-1.012 2-2.506-2-11.545-.41-14.57 1.205-8.182 1.808-.615 6.025-2.012c10.93-3.615 15.75-5.254 22.041-7.881l1.206-.495c3.518-1.494 5.664-2.506 12.557-5.796C308.9 67.45 316.407 64.859 325 64.859c.554 0 1.687 0 3.519.12l6.278.314c4.097.193 7.472.325 10.75.41a131.902 131.902 0 0 0 16.774-.458 39.08 39.08 0 0 0 6.327-1.181z"/></g><g id="path3567"><g class="cls-1"><path d="M368.648 64.064l6.483 10.375 7.978 14.57 2.013 36.152-6.026 31.128-11.05 27.62-10.545 14.558-7.532 8.038-20.089 3.013-27.102 3.012-17.582.494-17.076-.494-13.052-4.025-11.544-12.545-9.038-25.608-2.013-5.555-12.05-4.013-7.026-11.545-5.026-16.546 5.52-14.57 13.063-4.518 10.544 5.025 5.025 11.05 6.026-1.012 2-2.506-2-11.545-.41-14.57 1.205-8.182 1.808-.615 6.025-2.012c10.93-3.615 15.75-5.254 22.041-7.881l1.205-.494c3.52-1.495 5.664-2.507 12.557-5.797C308.9 67.45 316.407 64.859 325 64.859c.554 0 1.687 0 3.518.12l6.279.314c4.097.193 7.472.325 10.75.41a131.909 131.909 0 0 0 16.774-.458 39.082 39.082 0 0 0 6.327-1.181z"/></g><path d="M285.217 213.777l-17.319-.526-13.246-4.086-11.787-12.807-10.976-30.962-11.967-3.985-7.246-11.953-5.1-16.791 5.735-15.14L227 112.792l11.071 5.276 4.9 10.774 5.17-.868 1.61-2.018-1.943-11.21-.423-14.743 1.283-8.703 8.272-2.777c11.042-3.653 15.799-5.276 21.99-7.862l1.21-.495c3.544-1.506 5.829-2.588 12.517-5.78 16.668-7.974 23.923-10.28 32.343-10.28.556 0 1.712 0 3.569.122l6.266.313c4.297.202 7.607.328 10.732.408a131.709 131.709 0 0 0 16.687-.454 38.421 38.421 0 0 0 6.196-1.158l.54-.148 6.781 10.852 8.082 14.755 2.027 36.417-6.084 31.355-11.14 27.783-10.544 14.557-7.771 8.304-20.348 3.051-27.131 3.016zm-16.973-1.996l16.974.49 17.539-.493 27.04-3.008 19.802-2.97 7.353-7.85 10.429-14.406 10.99-27.469 5.993-30.965-1.997-35.889-7.896-14.42-6.167-9.866a39.99 39.99 0 0 1-5.905 1.059 133.52 133.52 0 0 1-16.88.461c-3.127-.08-6.448-.207-10.757-.41l-6.281-.314c-1.819-.119-2.942-.119-3.481-.119-8.156 0-15.265 2.273-31.694 10.134-6.711 3.203-9.005 4.288-12.588 5.81l-1.214.497c-6.234 2.604-11.01 4.235-22.09 7.9l-7.392 2.477-1.128 7.662.408 14.504 2.047 11.771-2.391 2.996-6.88 1.156-5.152-11.327-10.017-4.775-12.438 4.304-5.304 13.999 4.923 16.209 6.833 11.228 12.134 4.04 2.137 5.9 8.989 25.467 11.302 12.28z"/></g><g id="path30"><path d="M332.339 292.765l-71.8 3.013v12.05l6.026 42.179-3.013 3.519-50.216-17.077-3.507-6.025-5.073-56.736-11.497-34.176-2.518-8.026 40.177-27.62 12.545-5.026 11.051 13.558 9.544 8.544 11.051 3.507 5.013 1.506 6.026 26.114 4.519 5.52 11.557-4.013 16.762-11.292 9.906-5.399 8.978 52.843-5.531 3.013" class="cls-5"/></g><g id="path3570"><path d="M248.573 91.286l-2.097 19.185 3.013 11.545-1.494 6.026-6.026 1.012-5.025-11.05-10.496-5.026-13.063 4.52-.772-6.569a18.318 18.318 0 0 0 7.689-.867c6.29-1.928 10.351-5.05 16.63-11.304l.59-.59.579-.567a52.604 52.604 0 0 1 4.507-4.17c1.916-.698 3.953-1.446 5.965-2.145z" class="cls-6"/></g><g id="path3572"><path d="M218.096 110.652c.097 1.205 0 .085.772 3.362l-5.532 3.507-.77-6.568c3.132.205 1.289.205 5.53-.3z" class="cls-7"/></g><g id="path38"><path d="M234.883 160.712l6.58-6.375a4.242 4.242 0 0 1 3.47 3.856c.495 3.519 2.001 35.152 23.596 52.228 1.965 1.555-16.076-2.518-16.076-2.518L236.39 182.8" class="cls-8"/></g><g id="path40"><path d="M326.566 145.576s1.205-15.22 5.267-14.052a5.64 5.64 0 0 1 4.097 5.267s-9.954 6.447-9.364 8.785" class="cls-8"/></g><g id="path46"><path d="M239.957 128.572s-19.089-11.545-21.09-.494-6.53 19.076 3.013 30.621l-6.531-2-6.026-15.57-2.012-15.064 11.557-12.05 13.05 1 7.533 6.025.506 7.532" class="cls-8"/></g><g id="path3577"><path d="M250.839 90.54c-1.205 3.096-.446 1.024-1.832 6.326v-5.688l1.566-.53z" class="cls-8"/></g><g id="path54"><path d="M254.514 212.422l-46.818 20.342s19.68 77.523 9.16 102.685l-7.026-2.506-.507-29.633-13.003-56.23-5.53-15.57 1.132-10.845 52.373-15.763 10.267 7.472" class="cls-9"/></g><g id="path56"><path d="M247.826 274.93l5.845 7.532.843 12.328-3.675.337s-5.11-12.858-5.11-15.377a12.677 12.677 0 0 0-1.735-5.387" class="cls-9"/></g><g id="path58"><path d="M259.54 298.296l-21.921-.373 3.037 5.953 18.883 2.41" class="cls-9"/></g><g id="path60"><path d="M336.858 293.271l18.582-.506 4.52 46.203-19.029 2.507-4.025-48.204" class="cls-5"/></g><g id="path62"><path d="M369.998 291.765s11.556-29.127 11.556-30.634 13.931-48.854 13.931-48.854l-26.512-16.871-4.495-4.097-12.05 12.05-5.676 25.609-17.872 7.941 7.014 55.543" class="cls-5"/><path d="M335.296 292.527l-7.07-55.986 18.003-8 5.649-25.484 12.581-12.581 4.92 4.485 26.813 17.05-.129.436c-5.53 18.793-13.796 47.272-13.906 48.7 0 1.527-9.662 25.96-11.6 30.84l-1.12-.444c4.567-11.51 11.402-29.11 11.516-30.427-.001-1.476 11.228-39.742 13.826-48.575l-26.13-16.627-4.15-3.773-11.521 11.521-5.704 25.733-17.74 7.882 6.957 55.1z" class="cls-5"/></g><g id="path64"><path d="M354.44 289.752l-17.582 3.52 2.518 14.063c6.52 3.012 17.57-5.026 17.57-5.026" class="cls-9"/></g><g id="path66"><path d="M372.13 212.277l23.355 4.013-2.41-9.23-28.307-10.931 4.82 16.16" class="cls-9"/></g><g id="path68"><path d="M276.965 392.197l-10.4-42.178-5.17-31.14-.855-23.101 46.998-2.507h29.272l-2.652 52.723 4.52 40.671-.507 7.532-38.165 3.013-23.09-5.013" class="cls-10"/></g><g id="path70"><path d="M330.338 292.765s-2.518 52.228 5.013 89.381a95.865 95.865 0 0 1-37.152 12.051l42.178-1.506 5.025-3.013-6.026-82.344-1.506-17.582" class="cls-7"/></g><g id="path72"><path d="M360.815 334.955l19.583-5.531 37.152-1.94 5.532-17.076-10.05-29.621-11.545-1.507-16.064 5.013-15.425 7.532-8.183-1.506-6.423 2.446" class="cls-10"/></g><g id="path74"><path d="M360.465 324.905s13.052-6.026 15.064-5.52l-5.531-27.62 6.531-2.507s4.52 26.102 4.52 29.115c0 0 28.114 1.507 30.633 1.507 0 0 6.025-11.545 4.519-23.596l5.47 16.064.507 9.038-8.038 12.05-9.038 2.013-15.064-.506-5.025-6.52-17.57 2.507-5.52 2.013" class="cls-7"/></g><g id="path80"><path d="M281.484 213.434l-13.919-1.506-13.05-4.025v4.519l5 8.689 21.463 7.387" class="cls-10"/></g><g id="path82"><path d="M258.985 214.94s15.666 6.496 20.643 5.026l-5.652 23.644-8.435-14.064-8.014-12.593 1.506-2.013" class="cls-7"/></g><g id="path84"><path d="M360.767 239.247a96.008 96.008 0 0 1-22.897-3.157c.458-2.772-.41-5.483.29-7.472 1.867-1.35 5.024-1.325 7.856-1.65a13.762 13.762 0 0 0-8.737-.989c-.06-1.916-.927-3.097-1.446-4.603 4.82-1.712 16.1-12.919 22.463-9.207 3.025 1.771 4.314 11.846 4.555 16.75.193 4.074-.373 8.17-2.024 10.328" class="cls-2"/></g><g id="path86"><g class="cls-1"><path d="M361.417 239.85a96.008 96.008 0 0 1-22.896-3.158c.458-2.771-.41-5.483.289-7.471 1.868-1.35 5.025-1.326 7.857-1.651a13.762 13.762 0 0 0-8.737-.988c-.06-1.917-.928-3.098-1.446-4.604 4.82-1.711 16.1-12.918 22.463-9.207 3.025 1.772 4.314 11.846 4.555 16.751.085 4.073-.482 8.17-2.085 10.328z"/></g><path d="M362.166 241.37l-.773-.014a97.735 97.735 0 0 1-23.256-3.206l-1.326-.35.224-1.353a15.641 15.641 0 0 0 .051-3.433 10.885 10.885 0 0 1 .303-4.292l.156-.446.14-.101-1.204.26-.057-1.807a6.91 6.91 0 0 0-.78-2.726 17.738 17.738 0 0 1-.584-1.434l-.485-1.41 1.406-.499a33.17 33.17 0 0 0 5.573-3.368c5.755-3.908 12.918-8.77 18.152-5.722 4.42 2.59 5.224 16.411 5.3 17.979.063 2.968-.166 8.321-2.38 11.3zm-22.016-5.815a94.692 94.692 0 0 0 20.449 2.771c.96-1.808 1.475-4.998 1.398-8.773-.324-6.566-1.934-14.383-3.812-15.483-3.593-2.091-10.149 2.36-14.937 5.614a56.548 56.548 0 0 1-4.82 3.064 12.598 12.598 0 0 1 .774 2.107 15.308 15.308 0 0 1 8.104 1.35l4.813 2.253-5.28.609c-.588.067-1.19.12-1.792.173a14.826 14.826 0 0 0-4.935.947 12.426 12.426 0 0 0-.018 2.651 25.322 25.322 0 0 1 .056 2.717z" class="cls-2"/></g><g id="path88"><path d="M320.023 225.316a15.116 15.116 0 0 1-.085 1.953c-2.65 1.747-6.953 1.723-9.87 3.193a25.476 25.476 0 0 1 10.63 2.687c-.073 1.615-.133 3.242-.193 4.82-4.88 3.339-9.328 8.304-15.076 11.437-2.711 1.482-12.244 5.29-15.124 4.615-1.639-.373-1.783-2.41-2.41-4.314-1.398-4.097-4.603-10.605-4.88-16.775-.35-7.772-1.133-20.824 7.23-19.22a74.474 74.474 0 0 1 19.872 7.23c3.205 1.747 5.061 3.904 9.918 4.278" class="cls-2"/></g><g id="path92"><path d="M324.867 234.607c-.747-4.241-1.615-5.447-1.277-9.146 11.304-7.544 13.424 12.943 1.277 9.146" class="cls-2"/></g><g id="path94"><g class="cls-1"><path d="M325.47 235.21c-.747-4.242-1.615-5.447-1.278-9.147 11.304-7.543 13.425 12.943 1.278 9.147z"/></g><path d="M328.268 237.177a10.946 10.946 0 0 1-3.248-.53l-.875-.273-.159-.903c-.23-1.312-.476-2.331-.692-3.232a16.809 16.809 0 0 1-.602-6.312l.066-.717.598-.4c5.25-3.505 8.455-1.398 9.59-.33a8.067 8.067 0 0 1 1.205 9.501 6.496 6.496 0 0 1-5.883 3.196zm-1.493-3.176c1.724.377 3.703.29 4.776-1.542a5.05 5.05 0 0 0-.671-5.786c-1.535-1.445-3.75-.61-5.24.261a14.266 14.266 0 0 0 .583 4.602c.172.718.362 1.508.552 2.465z" class="cls-2"/></g><g id="path96"><path d="M341.232 238.042s-3.519-5.025-1-6.532 5.013 0 6.52-2.506 0-4.013.506-7.026 3.012-3.519 5.519-4.025 9.544-1.506 10.545 1.012l-3.013-9.038-6.026-2.012-19.076 11.11-1 5.52v11.05" class="cls-11"/></g><g id="path98"><path d="M288.51 254.612q-.904-11.75-1.953-23.487c-1.06-11.69 2.808-9.64 12.943-9.64 1.543 0 9.532 1.843 10.099 3.012 2.735 5.591-4.58 4.35 3.157 8.568 6.52 3.555 18.076-2.157 15.425-10.074-1.482-1.76-7.7-.555-9.93-1.7l-11.761-6.11c-4.99-2.59-16.522-6.362-21.849-2.747-13.485 9.17.856 32.08 5.664 41.648" class="cls-11"/></g><g id="path108"><path d="M236.522 140.49c-3.085-1.76-3.82-9.496-7.423-9.713-5.17-.313-4.23 10.039-4.206 16.088-3.615-3.218-4.182-13.16-1.567-18.257-2.976-1.458-4.302 1.615-5.953 2.687 2.121-15.4 22.535-7.146 19.15 9.195" class="cls-3"/></g><g id="path118"><path d="M402.595 292.223c-7.773 1.554-13.256 9.11-20.812 8.628 4.17-5.88 11.46-8.351 20.812-8.628" class="cls-3"/></g><g id="path120"><path d="M406.006 304.382c-6.327.675-13.774 1.7-20.198 1.205 3.05-4.64 14.763-3.037 20.198-1.205" class="cls-3"/></g><g id="path122"><path d="M408.211 314.878c-7.11.145-15.967 0-22.728-.566 4-4.29 18.076-1.59 22.728.566" class="cls-3"/></g><g id="path124"><path d="M351.85 343.572c1.023 8.941 4.566 17.991 4.12 27.789-3.94 1.325-6.194 2.482-11.472 2.482-.374-8.327-1.482-21.04-1.205-28.982 2.603.18 6.423-1.844 8.508-1.29" class="cls-7"/></g><g id="path126"><path d="M340.365 211.795c-3.616 2.326-5.7 6.821-9.135 9.303-7.604.386-20.33-2.856-25.921-7.23.084-.35 7.073-1.205 7.086-1.603 8.158 3.615 25.306-3.687 33.525-4.422" class="cls-8"/></g><g id="path3614"><path d="M279.206 80.525v1.06l-.205 8.436-.481 3.615c-1.447 2.94-4.917 9.11-7.231 12.618l-.603-2.085c2.013-3.435 3.302-6.737 6.412-12.376V81.429l1.518-.627z"/></g><g id="path3616"><path d="M369.576 207.457l2.555 13.654-11.786-11.244-9.713-4.917 5.061-5.121 8.761-7.23z" class="cls-7"/></g><g id="path3619"><path d="M218.205 111.243l.663 2.771-5.532 3.507-.566-4.82c2.53-.085 1.362.132 3.519-.53a10.255 10.255 0 0 0 1.916-.928z" class="cls-7"/></g><g id="path3622"><path d="M236.522 140.49c-3.085-1.76-3.82-9.496-7.423-9.713-5.17-.313-4.23 10.039-4.206 16.088-3.615-3.218-4.182-13.16-1.567-18.257-2.976-1.458-4.302 1.615-5.953 2.687 2.121-15.4 22.535-7.146 19.15 9.195" class="cls-3"/></g><g id="path3632"><path d="M251.272 212.277s-7.833 3.616-18.353 7.315c-13.738 3.856-19.763 10.846-23.62 7.146-4.82-2.41-14.063-5.627-14.063-5.627l-4.013 5.23a47.095 47.095 0 0 1 20.113 6.423c5.435-3.29 15.799-7.87 15.799-7.87l19.124-6.989 8.255-3.218z" class="cls-3"/></g><g id="path3634"><path d="M376.312 206.758l15.558 2.555 1.205 2.964-14.003-1.904-9.496-2.47.157-2.953z" class="cls-3"/></g><g id="path3636"><path d="M368.166 199.07l3.82 10.4 2.567 10.243.301 4.519-8.29-2.712-.302-3.314 5.724 3.013-2.133-10.701-5.423-13.1z" class="cls-3"/></g><g id="path3650"><path fill="#f1f1f2" d="M254.514 80.826L225.87 96.938l-20.486 16.124-5.122-3.856-4.218-11.436 8.135-16.341 64.448-50.915 22.62-15.064 52.12-9.038 32.838 12.352 17.474 21.39-6.628 22.897-22.282-6.326-29.164.602-41.045 7.532z"/></g><g id="path3652"><path d="M204.479 113.062l4.519 7.833 29.223-15.967 42.456-22.595 29.826-9.34 31.609-5.182 34.37 1.868 10.544 1.651v-8.58l-31.333-6.628-45.793 5.122-39.177 12.653-37.949 18.679-24.101 18.076z" class="cls-5"/><path d="M208.77 121.706l-5.115-8.866 4.718-2.71 24.04-18.036 38.043-18.738 39.377-12.711 45.89-5.133 31.905 6.75v9.773l-11.24-1.76-34.243-1.858-31.545 5.171-29.743 9.32-42.352 22.552zm-3.468-8.422l3.924 6.8 28.707-15.685 42.46-22.598 29.93-9.383 31.756-5.212.066.004 34.37 1.868 9.908 1.548v-7.388l-30.759-6.507-45.637 5.104-39.12 12.635-37.866 18.647-24.007 18.017z" class="cls-5"/></g><g id="path3654"><path fill="#a6a8ab" d="M254.514 41.311l-34.26 29.296-15.775 9.34-8.436 17.823 3.375 9.026 7.158 8.279 10.846-10.207s-5.218-10.69-6.026-13.654 5.194-9.002 10.014-13.822 13.98-9.882 19.282-12.533 17.22-12.894 18.8-15.907 11.315-17.836 11.315-17.836z"/></g><g id="path3661"><path d="M344.341 4.58c9.978.422 26.512 9.027 33.887 13.654 9.026 5.676 15.763 16.968 17.257 22.897s-.65 11.653-5.423 20.486c-1.602 9.34-2.41 13.654-2.41 13.654l-142.827 29.802s-9.64 3.892-15.124 8.35c-7.327-.06-14.678 5.364-14.678 5.364l-7.736 3.916s-5.616-8.845-9.231-13.895c-7.64-6.591-7.388-6.99-3.616-16.232 7.231-16.076 7.074-13.57 16.872-21.595s26.958-19.535 31.332-23.8c13.654-11.317 30.923-25.705 41.527-32.14 14.016-8.496 44.034-10.46 60.17-10.46zm-6.025 5.243c-13.328.94-20.812 2.012-43.504 7.628-15.497 10.002-18.51 12.123-29.32 20.896-8.23 6.664-13.448 9.906-24.511 19.281-8.002 6.785-26.343 17.824-36.815 28.923-2.495 10.086-11.437 13.256-.808 21.691 4.82 8.436 4.82 7.532 4.82 7.532a30.429 30.429 0 0 1 9.111-4.82A49.867 49.867 0 0 1 227.641 109c9.29-6.784 4.422-3.037 15.087-8.327s140.188-28.922 140.188-28.922a42.768 42.768 0 0 0 3.05-12.147c4.422-8.026 4.687-11.702 4.217-16.968-3.013-10.34-6.52-15.232-15.413-20.39-10.316-6.001-19.21-9.484-36.406-12.424z" class="cls-3"/></g><g id="path3700"><path d="M322.023 278.545c3.47-.53 5.303 3.11 5.206 5.073a5.339 5.339 0 0 1-5.103 5.564q-.051.003-.103.004a5.399 5.399 0 0 1-5.518-5.277l-.001-.122c0-2.952 2.036-4.724 5.52-5.242z" class="cls-3"/></g><g id="path3702"><path d="M318.034 283.618c-.156-2.506 1.579-3.916 3.905-3.976 2.88.253 3.965 1.036 3.88 3.615s-.494 3.615-3.615 3.892c-3.423.41-4.025-1.036-4.17-3.53z" class="cls-14"/></g><g id="path3704"><path d="M321.06 284.27a2.217 2.217 0 0 1-2.254-2.181v-.001c0-1.205.88-1.735 2.12-1.735s1.88.59 1.88 1.795-.506 2.121-1.747 2.121z" class="cls-15"/></g><path d="M426.24 305.973a138.104 138.104 0 0 0-7.593-22.39c-7.64-16.33-30.392-6.086-42.576 0 5.905-15.546 10.99-31.67 16.209-49.108a127.954 127.954 0 0 0 5.869-26.693c-4.616-6.025-8.231-6.025-14.064-7.303-10.846-4.495-16.642-4.928-17.269-8.013s7.23-13.775 8.894-17.149a96.672 96.672 0 0 0 5.122-14.75c7.158-30.224 10.086-61.52-.88-91.285a5.423 5.423 0 0 1-2.41 1h.192l-1.084.35c-2.35.59-1.482.53-2.567.59a3.615 3.615 0 0 1-.65 1.398l-.338.446a55.772 55.772 0 0 1 4.567 9.713c3.615 7.23 3.555 17.787 4.097 28.44 1.338 25.825-4.724 52.481-17.702 71.1-3.471 4.989-6.387 10.436-11.268 13.87-11.762 8.255-29.633 15.75-44.95 10.617-20.221-6.797-29.416-20.27-40.539-35.707.301 8.436 6.267 15.438 12.147 21.921 5.134 5.652 11.316 12.05 17.968 14.678-5.555-1.302-14.075-1.711-16.389 3.266-12.943-.856-24.981-2.181-31.103-10.954-4.82-6.918-9.725-18.68-11.93-27.778a31.332 31.332 0 0 1-1.025-6.857c.723-3.94 7.737-5.676 4.977-11.183-5.097 0-6.242 4.64-10.918 5.098-12.111 1.205-20.655-16.052-20.1-26.452.457-8.858 7.94-17.33 18.172-16.209 7.23.796 9.64 8.69 11.087 15.667 4.17.217 10.195-.181 12.171-3.435-.29-7.941-3.977-14.304-3.724-21.595a56.841 56.841 0 0 1 1.205-8.918 7.688 7.688 0 0 1-1.482.386 4.82 4.82 0 0 1-2.7-.277c-.144 1.133-.397 2.265-.445 3.41-.362 7.857-.386 6.242.578 12.111 1.037 4.507 4.628 11.509-1.096 11.666.144-12.835-15.775-20.969-27.717-13.425v-.386l-.603.277a9.64 9.64 0 0 1-1.518.47c-1.663.205-4.146.362-5.447-1.084a7.99 7.99 0 0 1 0 3.025c-.301 1.518-2.41 3.458-2.772 4.446-5.254 12.521-1.036 28.995 5.037 37.9a26.584 26.584 0 0 0 17.763 11.413 37.659 37.659 0 0 0 3.688 13.798c1.398 3.073 9.532 14.46 7.604 18.33-.964 1.988-20.029 8.362-22.897 10.062-7.664 1.614-6.025.41-17.714 2.012-6.026.398-15.86 8.592-14.461 18.076.94 6.4 5.856 16.064 7.941 22.475 2.254 6.918 5.483 13.256 7.34 20.487 4.12 16.003 4.976 31.079 6.025 46.721.385 6.11-.266 12.593 1.325 15.98s7.713 4.603 12.051 6.64c12.665 5.856 26.102 14.81 42.72 13.027 3.965 13.316 7.713 27.5 12.46 39.165 17.04 6.122 43.938 5.17 61.653 3.037 5.375-.651 11.063-3.302 12.328-7.978a47.373 47.373 0 0 1-.614-9.122c5.531-1.145 13.075-2.097 14.292-8.22 1.711-8.604-5.435-20.92-3.049-30.343 3.206-1.049 6.628-1.856 6.122-6.917 5.399-2.808 11.81-3.447 18.655-3.182a14.462 14.462 0 0 0 3.253 4.278c9.58 1.928 18.872 2.085 26.826-.506 9.014-2.94 13.316-21.366 11.255-30.127zm-67.558-93.997c3.037 1.76 4.326 11.846 4.555 16.75.193 4.062-.361 8.171-2.024 10.328a95.37 95.37 0 0 1-22.957-3.157c.458-2.76-.398-5.471.289-7.46 1.88-1.361 5.025-1.337 7.87-1.65a13.69 13.69 0 0 0-8.738-.989c-.072-1.916-.928-3.109-1.446-4.603 6.387-2.808 11.316-8.677 18.426-9.882 3.23.205 1.94-.18 4.025.711zm-44.588 1.844c8.146 3.615 18.51-1.482 26.74-2.218-3.615 2.338-6.615 5.255-10.05 7.737-7.616.386-11.774-.518-17.365-4.893.084-.24.65-.144.663-.578zm11.17 20.63c-.746-4.229-1.602-5.446-1.264-9.146a9.207 9.207 0 0 1 4.603-1.675c8.713 1.253 4.905 14.389-3.338 10.822zm-38.43-20.329a9.989 9.989 0 0 1 2.338-.639l1.47.133a75.186 75.186 0 0 1 19.873 7.23c3.205 1.748 5.049 3.917 9.905 4.29l-.072 1.94c-2.663 1.748-6.953 1.724-9.87 3.194a25.74 25.74 0 0 1 10.617 2.688c-.06 1.626-.12 3.253-.193 4.82-4.82 3.338-9.327 8.315-15.063 11.448-2.724 1.47-12.244 5.29-15.136 4.616-1.627-.386-1.772-2.41-2.41-4.327-1.386-4.085-4.592-10.604-4.82-16.762-.218-4.387-1.47-15.811 3.41-18.631zm-30.886-4.35c4.254 2.952 17.004 4.254 23.258 5.35.326 2-1.868 7.749-1.108 14.076-1.097-.06-2.543 3.17-5.58 9.496-4.061-7.532-4.82-8.291-9.942-13.557-5.073-7.99-9.616-12.292-6.58-15.365zm23.523 176.979c-9.243-28.308-14.28-55.181-17.75-87.152 17.112-3.085 34.441-5.242 51.818-5.11 7.592.302 15.233.47 22.68 2.145 2.013 13.076 1.205 25.97 2.724 38.792 1.952 17.052.494 36.502 3.82 52.482-18.113 5.615-42.805 5.073-63.291-1.157zm76.981-15.546c-3.928 1.326-6.194 2.495-11.46 2.483-.373-8.315-1.494-21.041-1.205-28.922 2.627-.073 5.037-1.206 7.64-1.398l.856.096c1.036 8.894 4.58 17.956 4.133 27.741zm-13.328-33.345c-1.048-13.75-1.856-27.295-1.663-40.973 3.736-1.205 7.026-1.205 10.774-1.205 3.241 11.702 3.049 26.597 4.64 39.828-4.942 1.025-8.52 1.615-13.787 2.35zm2.892-49.613c-4.097 2.41-9.749-1.53-22.39-.868-21.692.59-51.662 3.17-71.655 5.893a35.333 35.333 0 0 1-5.266-13.99c-1-6.412-3.82-8.69-4.88-6.231-1.868 4.35-1.025.422 4.88 19.281 1.205 4.025-2.157-4.651-5.965-6.025-1.494 4.7 1.386 4.543 3.615 7.592s-7.447-1.35-7.411 4.519c4.82.771 15.92-.374 21.113 1.82 1.362 15.943 3.555 31.067 5.941 48.01-20.691-1.072-34.092-11.364-49.336-18.486-.952-33.742-8.086-70.87-21.402-99.432.807-7.23 3.615-10.05 11.653-9.64 6.845-3.615 27.548-8.002 39.768-12.81 1.265-.494 7.158 7.327 8.52 8.303 4.145 5.302 4.446 8.17 10.773 15.244 1.952 2.567 7.99 12.135 9.4 12.81 1.856.88 4.025-11.11 5.845-10.243.542 3.989 1.205 5.013 3.386 11.93 2.41 7.64 3.483 17.04 14.46 12.919s23.09-13.907 24.332-15.317 1.783-2.12 2.711-3.145c4.061 1.699 6.712-2.23 9.834-1.892 3.615.386 9.146 3.615 17.076 4.266s12.255 1 14.364-2.073c5.46-10.303 2.953-42.286-10.978-35.538 1.952-2.856 5.64-4.242 8.014-7.76 5.88 4.735 9.219 3.193 16.052 7.23 11.448 3.266 12.64 4.013 13.256 8.435.337 2.483-4.339 16.582-4.893 19.366-2.41 12.196-8.014 28.308-13.256 41.082-1.928 4.651-3.76 10.46-6.29 11.46-6.978 2.627-15.402-.386-21.307 3.29zm28.055 39.442c-3.097.59-5.098 2.41-8.87 2.254-.952-11.75-3.675-24.102-4.82-35.297 3.206-.169 1.205-.072 5.869-.265l1.94.24c4.94 8.545 6.013 22.753 5.845 33.068zm34.634 3.941c-5.712 1.386-14.46 1.747-18.209-.06 4.58-2.495 11.449-2.507 16.75-4.23-7.591-3.266-18.81-.18-27.933-.76-1.097-11.255-1.928-23.462-4.591-32.356 5.314-5.652 18.172-7.013 25.475-11.69 1.386-.746.542-.373 2.615-.927a10.496 10.496 0 0 1 9.569 5.302c2.807 4.242 5.423 16.715 6.893 23.343 2.157 9.87-2.772 19.474-10.605 21.378z" class="cls-3"/><path d="M304.345 257.119c3.205 10.026 3.615 20.486 4.254 30.91.204 3.085 5.025 3.11 4.82 0-.711-10.846-1.097-21.764-4.423-32.2-.94-2.94-5.591-1.687-4.651 1.29z" class="cls-3"/><g id="path3700-2"><path d="M319.673 258.034c3.47-.518 5.303 3.122 5.206 5.086a5.327 5.327 0 0 1-5.091 5.552l-.115.003a5.387 5.387 0 0 1-5.517-5.252l-.002-.134c0-2.953 2.037-4.736 5.52-5.255z" class="cls-3"/></g><g id="path3702-2"><path d="M315.624 263.108c-.169-2.495 1.579-3.905 3.905-3.965 2.88.253 3.964 1.024 3.88 3.615s-.494 3.616-3.615 3.905c-3.375.385-3.977-1.049-4.17-3.555z" class="cls-14"/></g><g id="path3704-2"><path d="M318.71 263.77a2.217 2.217 0 0 1-2.254-2.18c0-1.206.88-1.736 2.12-1.736s1.88.59 1.88 1.796-.506 2.12-1.747 2.12z" class="cls-15"/></g><g id="path42"><path d="M369.853 104.542s-8.279 1.748-9.038 9.039 9.038 1.506 10.544 1" class="cls-8"/></g><g id="path44"><path d="M309.056 105.049s-11.05 1.506-11.05 8.532 12.557 6.531 16.076 3.518" class="cls-8"/></g><g id="path102"><path d="M369.214 101.397h.651c3.097 6.423 5.773 13.256 9.64 18.896-2.614 6.025-19.787 11.472-19.522.542 3.712-1.627 10.123-.325 13.413-2.41-1.904-5.23-4.652-9.64-4.218-17.076" class="cls-3"/></g><g id="path3663"><path fill="#1a1715" d="M236.896 103.723s28.741 2.868 42.334 2.482 43.384 1.507 59.134 0 22.053-3.301 33.622-6.025 15.666-4.977 21.09-10.448c3.217-6.327 3.217-8.327 0-12.846-2.11-3.917-8.617-7.291-9.521-7.653-6.508-2.554-11.424-4.398-24.524-4.398s-25.307.638-37.357 2.952c-31.333 7.448-42.492 12.413-54.23 18.438-10.773 3.94-30.548 17.498-30.548 17.498z"/></g><g id="path3667"><path d="M277.447 88.31a65.132 65.132 0 0 0-11.75 4.989 85.97 85.97 0 0 0-11.183 6.82l22.897 1.387c6.495.385 10.086.783 15.316.783 5.303.59 4.749.41 4.749.41z" class="cls-7"/></g><g id="path3669"><path d="M282.725 85.936l19.125 16.787h6.99l-19.366-19.065z" class="cls-7"/></g><g id="path104"><path d="M309.599 101.566c2.928 5.387 3.88 11.038 8.05 15.1 1.88 1.831 5.531 4.06 3.723 9.146-.421 1.205-3.518 3.88-5.302 4.41-6.52 1.929-21.692.398-16.57-7.736 5.399.253 12.641 3.507 16.678-.41-3.097-4.952-8.616-14.738-6.58-20.486" class="cls-3"/></g><path d="M353.633 140.105c-.17-.687-.928-1.338-1.88-2.158a18.53 18.53 0 0 1-1.495-1.373c-4.76-5.206-10.978-12.618-13.448-18.426a3.53 3.53 0 0 1-.133-.579c-.217-1.036-.518-2.41-1.518-2.844a1.711 1.711 0 0 0-1.675.35l-.241.18v.29c-.23 8.435 5.676 15.558 10.412 21.246l.855 1.012c.398.494.808.94 1.205 1.374 1.94 2.096 3.23 3.506 1.422 6.688-1.048.41-2.241.988-3.495 1.59-3.904 1.893-8.773 4.242-12.99 3.52-1.591-.278-1.953-1.423-2.41-3.302a8.437 8.437 0 0 0-.784-2.41l-.458-.784-.542.723a7.676 7.676 0 0 0 .988 9.882l.145.12h.193a29.08 29.08 0 0 0 3.024.157c9.159 0 15.763-4.254 21.186-7.725l.325-.217-.06-.385a6.025 6.025 0 0 1 .578-2.326 8.05 8.05 0 0 0 .796-4.603z" class="cls-3"/><g id="path4067"><path d="M317.745 195.984l8.75-4.88h.06l6.53-4.242a.976.976 0 0 1 .399-.169 18.33 18.33 0 0 1 5.953-.373 1.315 1.315 0 0 1 .313.06l3.218 1.109a1.41 1.41 0 0 1 .373.204l7.616 6.375a1.205 1.205 0 0 0 .64.266l1.626.156a1.205 1.205 0 0 0 1.29-1.06l.481-5.411a1.133 1.133 0 0 1 .157-.482l4.158-7.23a1.205 1.205 0 0 0-.892-1.748l-6.242-.627h-.241l-9.713 1h-.085l-11.026-.108h-.085a259.409 259.409 0 0 1-29.163.808 103.516 103.516 0 0 0-11.376.88 1.205 1.205 0 0 0-.65.288l-.844.76a1.205 1.205 0 0 0-.133 1.59l1.868 2.41a1.794 1.794 0 0 1 .169.29 65.072 65.072 0 0 0 4.181 8.243l.073.156 2.133 5.544a1.205 1.205 0 0 0 .687.687l5.049 1.831a1.205 1.205 0 0 0 .76 0 68.932 68.932 0 0 0 13.966-6.326z" class="cls-3"/></g><g id="_Group_" data-name="Group"><path d="M322.36 184.572c1.206 2.206.832 3.338-.819 5.001-.084.073-47.107 16.197-59.242 23.958a13.992 13.992 0 0 0-2.47 1.602v.181c-.76 1.928-.82 4.507-1.386 6.532-1.109 3.964-2.7 9.086-6.652 11.098-8.123 4.158-19.547-7.543-24.102-13.027a40.492 40.492 0 0 1-2.989-4.133l2.929-.82c.217.362.433.712.675 1.061a39.105 39.105 0 0 0 15.798 13.316c3.615 1.543 5.7 1.302 8.086-2.277a22.776 22.776 0 0 0 2.844-7.388c.675-2.735 1.073-5.11 3.097-7.037a60.255 60.255 0 0 1 10.786-7.484c9.376-5.483 46.516-17.835 49.927-18.136.663 0 .71.253 0-1.085-1.025-1.12-3.218-.723-5.616-.205l-2.133.567c-1.784.482-3.519 1.12-5.278 1.65-3.507 1.073-26.054 7.834-29.513 9.087q-5.712 2.06-11.292 4.447c-1.904.82-4.157 2.024-6.314 2.76l-1-2.724c2.482-.928 5.278-2.543 7.495-3.47 3.387-1.447 6.532-3.484 9.99-4.737 6.496-2.338 32.357-10.327 39.142-11.701 3.205-.627 6.314-.277 8.038 2.964z" class="cls-3"/><path fill="#d59e29" d="M318.938 185.934c.7 1.338.65 1.073 0 1.085-3.41.3-40.551 12.653-49.927 18.136a60.254 60.254 0 0 0-10.785 7.484c-2.025 1.928-2.41 4.302-3.097 7.037a22.776 22.776 0 0 1-2.844 7.388c-2.41 3.615-4.507 3.82-8.086 2.277a39.105 39.105 0 0 1-15.8-13.316c-.24-.35-.457-.699-.674-1.06a18.33 18.33 0 0 1-2.205-10.437c.397-5.181 3.362-7.82 7.58-9.857a32.225 32.225 0 0 1 6.965-2.555c9.352-2.097 12.545 4.423 14.546 12.051.277 1.024 1.144.82 2.084.663a11.931 11.931 0 0 0 2.11-.567c2.156-.735 4.41-1.94 6.314-2.76q5.567-2.41 11.292-4.446c3.458-1.205 26.005-8.014 29.512-9.086 1.76-.53 3.495-1.206 5.278-1.651l2.133-.567c2.387-.542 4.58-.94 5.604.18z"/><path d="M260.033 215.772l.17-.084c-.218.289-.627.578-.17.084zm-2.253-14.256l1 2.723a11.93 11.93 0 0 1-2.109.567c-.94.156-1.807.361-2.085-.663-2-7.604-5.194-14.124-14.545-12.05a32.225 32.225 0 0 0-6.965 2.554c-4.218 2.036-7.23 4.676-7.58 9.857a18.33 18.33 0 0 0 2.205 10.437l-2.928.819c-2.41-3.917-3.941-8.327-3.23-13.015.892-5.82 4.82-8.436 9.821-10.846 4.676-2.277 10.533-4.675 15.8-3.35 6.025 1.494 9.23 6.87 10.845 12.34.072.35-.362.675-.23.627z" class="cls-3"/></g><path d="M228.46 210.82c3.784 2.253 9.99.493 13.738-.929 2.157-.82 1.205-4.314-.964-3.495a25.403 25.403 0 0 1-6.544 1.627c-1.313.12-3.205.386-4.41-.325a1.808 1.808 0 0 0-1.82 3.121zm9.303-13.787c1.796-.518 3.772-1.482 5.628-1.205a5.724 5.724 0 0 1 2.41.747 3.374 3.374 0 0 1 .747 2.507c-.132 1.132-1.831 1.41-2.88 1.855-3.928 1.663-7.99 3.11-12.22 2.543-.578-.084-1.686.59-2.132.217s-.29-1.735 0-2.241c3.808-2.917 5.206-3.495 8.447-4.423z" class="cls-3"/><path d="M238.113 198.346c1.627-.518 4.013-1.723 5.724-1.096 2.41.904.566 1.663-.566 2.35a21.005 21.005 0 0 1-9.966 2.603 12.725 12.725 0 0 0-2.965 0c0-.085 1.639-1.085 1.916-1.266a21.21 21.21 0 0 1 5.857-2.639 1.362 1.362 0 0 0-.711-2.615c-3.037.892-9.315 2.844-9.701 6.508-.145 1.301.217 2.41 1.53 2.783a14.46 14.46 0 0 0 3.447-.108 21.22 21.22 0 0 0 4.7-.458 36.766 36.766 0 0 0 8.363-2.892 3.121 3.121 0 0 0 2.097-3.314c-.35-5.447-7.23-3.543-10.436-2.519-1.663.579-.952 3.194.71 2.663zM364.84 37.636c-1.12-3.615-.82-3.688-1.952-7.23s-1.7-3.423-2.82-7.014a4.82 4.82 0 0 0-2.7-3.338c-3.543-1.362-3.458-1.555-7.001-2.917l-7.026-2.771a7.191 7.191 0 0 0-4.651.277c-3.29 1.892-3.073 2.253-6.351 4.157s-3.447 1.615-6.725 3.507a5.375 5.375 0 0 0-2.35 3.857c-.554 3.723-.397 3.747-.952 7.471s-.662 3.7-1.205 7.423a4.82 4.82 0 0 0 1.097 3.676c.108.133-.18.603-.06.723 2.579 2.76 2.687 2.651 5.278 5.41s3.013 2.339 5.604 5.086a4.929 4.929 0 0 0 3.386 2.037c.12 0 .229-.603.361-.615 3.784-.289 3.796-.108 7.58-.41s3.82.242 7.605 0a5.628 5.628 0 0 0 4-2.313c2.121-3.121 2.037-3.182 4.17-6.29s1.687-3.423 3.82-6.544a4.712 4.712 0 0 0 .892-4.182zm-8.99 7.773c-2.121 3.097-2.302 3-4.41 6.025-3.736.29-3.748.386-7.508.675s-3.784.29-7.568.578c0 0 .168-.084.144-.108-2.59-2.76-2.892-2.41-5.483-5.218s-2.41-2.977-4.953-5.724c0 0-.217.132-.217.084.555-3.723.41-3.748.964-7.471s.663-3.7 1.205-7.424v-.289c3.29-1.892 3.543-1.434 6.833-3.326s3.206-2.024 6.4-3.856c3 2.277 3.615 1.398 7.133 2.76s3.616 1.265 7.11 2.627c.06 0 .495-.23.507-.181 1.132 3.615.783 3.7 1.904 7.303s.831 3.675 1.952 7.23a2.947 2.947 0 0 1 .518.18c-2.109 3.218-2.398 3.014-4.531 6.135z" class="cls-3"/><path d="M341.076 17.282a2.796 2.796 0 0 0-.952.325l-12.75 7.4a2.579 2.579 0 0 0-1.205 1.82l-2.157 14.46a2.41 2.41 0 0 0 .494 1.892 1.205 1.205 0 0 0 .156.193l10.05 10.69a2.579 2.579 0 0 0 2.061.783l14.702-1.145a2.53 2.53 0 0 0 1.904-1.097l8.28-12.111a2.519 2.519 0 0 0 .325-2.17l-4.375-13.954a2.519 2.519 0 0 0-1.506-1.603l-13.738-5.29a2.615 2.615 0 0 0-1.29-.193z" class="cls-5"/><g id="path3059"><path d="M341.558 21.717a.868.868 0 0 0-.748.964v.205a5.146 5.146 0 0 0 .17.77 8.218 8.218 0 0 1 .204 1.471.928.928 0 0 1-.229.446v.35a10.46 10.46 0 0 0-6.544 3.796l-.313-.181a.699.699 0 0 1-.494 0 8.435 8.435 0 0 1-1.205-.904 4.952 4.952 0 0 0-.578-.53l-.193-.133a.952.952 0 0 0-.579-.169.783.783 0 0 0-.626.338.88.88 0 0 0 .289 1.205l.18.12a6.446 6.446 0 0 0 .712.35 8.124 8.124 0 0 1 1.277.76 1.024 1.024 0 0 1 .205.457l.277.217a10.532 10.532 0 0 0-1.097 7.484l-.337.132a1.06 1.06 0 0 1-.313.374 7.664 7.664 0 0 1-1.446.361 6.184 6.184 0 0 0-.784.12h-.217a.868.868 0 0 0-.614 1.05.88.88 0 0 0 1.096.517l.217-.06c.265-.096.458-.229.711-.337a6.99 6.99 0 0 1 1.386-.53.916.916 0 0 1 .482.12l.35-.084a10.64 10.64 0 0 0 5.17 5.507l-.121.373a.88.88 0 0 1 .108.458 9.011 9.011 0 0 1-.638 1.374 6.312 6.312 0 0 0-.386.687.549.549 0 0 1-.096.23.868.868 0 0 0 .446 1.132.844.844 0 0 0 1.075-.516l.01-.026c0-.073.071-.157.083-.217a6.445 6.445 0 0 0 .181-.772 5.892 5.892 0 0 1 .518-1.518.71.71 0 0 1 .338-.193l.156-.35a10.653 10.653 0 0 0 6.17 0 10.29 10.29 0 0 0 1.362-.53l.205.302a.65.65 0 0 1 .434.217 7.532 7.532 0 0 1 .663 1.325c.108.253.168.482.301.735 0 0 .084.133.12.205a.82.82 0 1 0 1.41-.82l-.12-.204a6.592 6.592 0 0 0-.482-.627 7.63 7.63 0 0 1-.831-1.205.675.675 0 0 1 0-.494s-.109-.229-.157-.313a10.64 10.64 0 0 0 4.242-6.29h.35a.699.699 0 0 1 .445-.206 7.785 7.785 0 0 1 1.458.314c.265.072.47.168.76.229h.204a.844.844 0 0 0 .997-.656l.004-.02a.868.868 0 0 0-.76-.94h-.24a5.845 5.845 0 0 0-.796 0 7.688 7.688 0 0 1-1.482-.132.844.844 0 0 1-.374-.325l-.337-.072a10.605 10.605 0 0 0-2.278-7.231l.277-.29a.663.663 0 0 1 .109-.47 7.617 7.617 0 0 1 1.205-.94 7.016 7.016 0 0 0 .638-.457l.17-.157a.82.82 0 0 0-1.06-1.25q-.026.021-.05.045l-.168.157a5.81 5.81 0 0 0-.494.614 8.087 8.087 0 0 1-1.025 1.073.88.88 0 0 1-.494.096l-.289.253a10.701 10.701 0 0 0-7.038-2.747v-.362a.663.663 0 0 1-.301-.397 7.4 7.4 0 0 1 0-1.483v-.783a1.478 1.478 0 0 0 0-.229.856.856 0 0 0-.867-.844h-.013zm-.53 6.41l.084 4.29a.723.723 0 0 1-.663.748.675.675 0 0 1-.434-.108l-3.7-2.218a8.436 8.436 0 0 1 3.88-2.518 5.242 5.242 0 0 1 .832-.193zm2.048-.168a8.568 8.568 0 0 1 5.073 1.976l-3.301 2.748a.735.735 0 0 1-1-.06.675.675 0 0 1-.181-.41zm-7.93 4.604l3.423 2.615a.723.723 0 0 1 .169.988.76.76 0 0 1-.35.277l-4.013 1.506a8.436 8.436 0 0 1 .772-5.387zm14.401-1.121a8.749 8.749 0 0 1 1.205 2.482 8.557 8.557 0 0 1 .386 2.724l-4.218-.868a.723.723 0 0 1-.578-.82.687.687 0 0 1 .193-.397l2.964-3.097zm-7.604 3.7l1.314-.109.892.952-.193 1.301-1.133.663-1.205-.482-.398-1.205zm4.471 3.157h.18l4.303.385a8.436 8.436 0 0 1-3.073 4.544l-1.952-3.857a.711.711 0 0 1 .277-.952.784.784 0 0 1 .265-.096zm-7.134.578a.73.73 0 0 1 .735.952l-1.326 4.073a8.556 8.556 0 0 1-3.723-3.988l4.157-1.037h.157zm3.7 1.446a.663.663 0 0 1 .337 0 .675.675 0 0 1 .35.277l2.41 3.616-.82.301a8.436 8.436 0 0 1-4.615.12l1.771-3.916a.699.699 0 0 1 .567-.398z" class="cls-10"/><path d="M337.56 50.356a1.004 1.004 0 0 1-.33-.057 1.025 1.025 0 0 1-.534-1.334.734.734 0 0 0 .083-.17l.015-.065a6.47 6.47 0 0 1 .395-.704 8.895 8.895 0 0 0 .615-1.32.732.732 0 0 0-.09-.357l-.032-.057.102-.312a10.775 10.775 0 0 1-5.077-5.408l-.283.069-.051-.03a.79.79 0 0 0-.403-.101 7.086 7.086 0 0 0-1.323.514c-.113.048-.206.098-.3.147a3.42 3.42 0 0 1-.428.198l-.228.064a.973.973 0 1 1-.561-1.858l.04-.005h.216a5.618 5.618 0 0 1 .77-.12 7.483 7.483 0 0 0 1.387-.345.913.913 0 0 0 .251-.307l.026-.052.272-.107a10.665 10.665 0 0 1 1.077-7.35l-.222-.174-.01-.057a.865.865 0 0 0-.162-.374 8.033 8.033 0 0 0-1.236-.733 6.546 6.546 0 0 1-.721-.355l-.19-.125a1.032 1.032 0 0 1-.334-1.41.942.942 0 0 1 .752-.41 1.087 1.087 0 0 1 .668.197l.192.131a5.122 5.122 0 0 1 .604.552 8.31 8.31 0 0 0 1.174.878.545.545 0 0 0 .36-.012l.068-.026.264.153a10.586 10.586 0 0 1 6.429-3.73v-.28l.04-.044a.778.778 0 0 0 .188-.355 8.153 8.153 0 0 0-.2-1.424 5.239 5.239 0 0 1-.172-.785l-.001-.225a1.013 1.013 0 0 1 .637-1.05l-.1-.125h.327a1.01 1.01 0 0 1 1.016.992 1.598 1.598 0 0 1 0 .243v.771a7.318 7.318 0 0 0 0 1.467.506.506 0 0 0 .228.284l.073.043v.3a10.837 10.837 0 0 1 6.888 2.695l.238-.209.065.006a.716.716 0 0 0 .41-.08 8.148 8.148 0 0 0 .975-1.032 5.934 5.934 0 0 1 .502-.624l.177-.164a.716.716 0 0 1 .056-.052.97.97 0 0 1 1.253 1.482l-.164.153a7.273 7.273 0 0 1-.66.474 7.536 7.536 0 0 0-1.182.922.522.522 0 0 0-.064.339l.01.073-.237.248a10.741 10.741 0 0 1 2.237 7.1l.273.059.034.054a.695.695 0 0 0 .307.268 8.466 8.466 0 0 0 1.42.12 6.16 6.16 0 0 1 .807 0h.23a1.016 1.016 0 0 1 .91 1.103l-.009.045a.979.979 0 0 1-.424.62.991.991 0 0 1-.748.144l-.174.003a3.485 3.485 0 0 1-.505-.14 4.965 4.965 0 0 0-.294-.094 7.694 7.694 0 0 0-1.436-.309.552.552 0 0 0-.321.161l-.045.045h-.293a10.774 10.774 0 0 1-4.167 6.186c.048.097.098.203.098.203l.029.059-.024.06a.527.527 0 0 0 0 .384 7.575 7.575 0 0 0 .806 1.163 6.598 6.598 0 0 1 .492.64l.126.212a.895.895 0 0 1 .088.155.97.97 0 0 1-1.765.803 2.677 2.677 0 0 0-.111-.186 3.827 3.827 0 0 1-.206-.482 5.91 5.91 0 0 0-.107-.274 7.445 7.445 0 0 0-.652-1.305.501.501 0 0 0-.319-.147l-.07-.006-.174-.255a10.484 10.484 0 0 1-1.265.484 10.781 10.781 0 0 1-6.131.038l-.133.296-.07.017a.566.566 0 0 0-.25.137 5.752 5.752 0 0 0-.495 1.457 6.536 6.536 0 0 1-.184.786.448.448 0 0 1-.049.113.334.334 0 0 0-.03.065.354.354 0 0 1-.019.078.982.982 0 0 1-.505.56.994.994 0 0 1-.43.099zm-.482-1.52a.713.713 0 0 1-.11.257.719.719 0 0 0 .373.926.694.694 0 0 0 .872-.428.44.44 0 0 1 .066-.178.289.289 0 0 0 .022-.048 6.494 6.494 0 0 0 .18-.764 6.035 6.035 0 0 1 .532-1.56l.027-.038a.867.867 0 0 1 .335-.213l.183-.406.127.038a10.481 10.481 0 0 0 6.083 0 10.282 10.282 0 0 0 1.34-.523l.117-.055.24.352a.802.802 0 0 1 .46.258 7.592 7.592 0 0 1 .69 1.372c.04.093.076.188.11.283a3.512 3.512 0 0 0 .184.435c.001 0 .086.134.122.208a.669.669 0 1 0 1.22-.55.657.657 0 0 0-.067-.114l-.128-.216a6.41 6.41 0 0 0-.466-.605 7.836 7.836 0 0 1-.85-1.23.833.833 0 0 1-.03-.559 5.422 5.422 0 0 0-.125-.248l-.068-.12.112-.078a10.481 10.481 0 0 0 4.182-6.2l.027-.117h.41a.843.843 0 0 1 .494-.205 7.788 7.788 0 0 1 1.514.32c.106.029.206.063.307.097a3.496 3.496 0 0 0 .438.128l.174-.003a.719.719 0 0 0 .552-.097.685.685 0 0 0 .297-.438.712.712 0 0 0-.626-.78l-.223.001a6.025 6.025 0 0 0-.785 0 6.685 6.685 0 0 1-1.52-.134 1.013 1.013 0 0 1-.437-.34l-.405-.086.008-.13a10.436 10.436 0 0 0-2.245-7.127l-.082-.103.32-.335a.808.808 0 0 1 .141-.5 7.67 7.67 0 0 1 1.25-.983 6.872 6.872 0 0 0 .625-.448l.161-.15a.67.67 0 1 0-.86-1.025.63.63 0 0 0-.04.038l-.173.16a5.79 5.79 0 0 0-.473.59 8.255 8.255 0 0 1-1.049 1.1.979.979 0 0 1-.54.137l-.343.3-.1-.089a10.542 10.542 0 0 0-6.938-2.708l-.15-.002v-.43a.802.802 0 0 1-.295-.44 7.453 7.453 0 0 1-.005-1.536v-.768a1.408 1.408 0 0 0 0-.217.712.712 0 0 0-.483-.67l-.178.024a.719.719 0 0 0-.618.796l.001.223a5.122 5.122 0 0 0 .163.728 8.425 8.425 0 0 1 .21 1.507l.001.02-.003.017a1.083 1.083 0 0 1-.226.472v.422l-.127.02a10.286 10.286 0 0 0-6.45 3.742l-.081.101-.367-.212a.842.842 0 0 1-.53-.024 8.375 8.375 0 0 1-1.253-.932 4.9 4.9 0 0 0-.57-.524l-.186-.127a.746.746 0 0 0-.487-.142.637.637 0 0 0-.509.273.73.73 0 0 0 .245.99l.185.124a6.341 6.341 0 0 0 .686.336 8.235 8.235 0 0 1 1.307.777l.03.028a1.169 1.169 0 0 1 .223.467l.336.262-.064.113a10.365 10.365 0 0 0-1.08 7.377l.028.126-.407.16a1.23 1.23 0 0 1-.329.373l-.04.022a7.827 7.827 0 0 1-1.474.368 6.109 6.109 0 0 0-.773.119l-.228.003a.672.672 0 1 0 .413 1.273l.224-.062a3.163 3.163 0 0 0 .38-.179c.1-.051.2-.104.312-.152a7.111 7.111 0 0 1 1.406-.537 1.056 1.056 0 0 1 .541.106l.42-.1.05.118a10.477 10.477 0 0 0 5.095 5.43l.118.056-.142.44a1.025 1.025 0 0 1 .097.476l-.01.046a9.156 9.156 0 0 1-.649 1.397 6.306 6.306 0 0 0-.368.652zm5.658-3.784a8.582 8.582 0 0 1-2.132-.268l-.174-.045 1.846-4.08a.854.854 0 0 1 .677-.485.813.813 0 0 1 .403.004.834.834 0 0 1 .438.342l2.514 3.771-.999.367a8.6 8.6 0 0 1-2.573.395zm-1.883-.517a8.282 8.282 0 0 0 4.36-.162l.633-.233-2.305-3.456a.531.531 0 0 0-.273-.218.513.513 0 0 0-.25.003l-.024.004a.547.547 0 0 0-.444.312zm-2.077-.415l-.159-.086a8.757 8.757 0 0 1-3.788-4.058l-.075-.165 4.333-1.08.181-.005.012.151-.011-.15a.864.864 0 0 1 .89.613.846.846 0 0 1-.001.537zm-3.597-4.104a8.464 8.464 0 0 0 3.424 3.666l1.269-3.9a.58.58 0 0 0-.58-.755h-.168zm12.592 3.44l-2.033-4.017a.857.857 0 0 1 .337-1.151.961.961 0 0 1 .188-.084v-.032l.151-.024h.18l4.496.402-.047.174a8.629 8.629 0 0 1-3.128 4.624zm-1.206-5.007l-.126.022a.644.644 0 0 0-.214.078.558.558 0 0 0-.22.752l1.871 3.697a8.327 8.327 0 0 0 2.827-4.18zm-12.304-.296l-.034-.176a8.627 8.627 0 0 1 .785-5.483l.082-.16 3.566 2.724a.87.87 0 0 1 .202 1.192.903.903 0 0 1-.419.333zm.94-5.36a8.33 8.33 0 0 0-.709 4.951l3.844-1.443a.602.602 0 0 0 .277-.22.57.57 0 0 0-.133-.782zm7.634 5.323l-1.338-.535-.442-1.34.802-1.243 1.46-.121.991 1.058-.214 1.445zm-1.096-.762l1.072.428 1.006-.59.172-1.157-.792-.846-1.167.097-.645.997zm9.545-.522l-4.394-.904a.871.871 0 0 1-.697-.99.848.848 0 0 1 .234-.481l3.053-3.15.116-.058.075.106a8.89 8.89 0 0 1 1.226 2.526 8.671 8.671 0 0 1 .392 2.77zm-1.767-5.167l-2.873 3.002a.537.537 0 0 0-.153.312.573.573 0 0 0 .457.653l4.041.832a8.382 8.382 0 0 0-.38-2.495 8.573 8.573 0 0 0-1.092-2.304zm-9.13 1.654a.833.833 0 0 1-.455-.137l-3.848-2.306.118-.136a8.578 8.578 0 0 1 3.95-2.564 5.392 5.392 0 0 1 .854-.197l.169-.026.087 4.462a.873.873 0 0 1-.8.9q-.037.004-.075.004zm-3.838-2.516l3.544 2.124a.514.514 0 0 0 .342.088.572.572 0 0 0 .526-.592l-.08-4.118a5.038 5.038 0 0 0-.639.16 8.278 8.278 0 0 0-3.693 2.338zM344.381 33a.882.882 0 0 1-.642-.274.822.822 0 0 1-.222-.501l-.615-4.426.181.01a8.777 8.777 0 0 1 5.163 2.01l.139.116-3.44 2.864a.886.886 0 0 1-.565.201zm-1.13-4.88l.565 4.072a.53.53 0 0 0 .14.327.587.587 0 0 0 .796.048l3.16-2.63a8.48 8.48 0 0 0-4.661-1.817z" class="cls-10"/></g><g id="path3665"><path d="M387.05 61.545l-.904 3.314s-4.736-2.844-19.149-5.278-20.342-2.17-31.393-.748-33.007 5.435-48.637 10.906-35.454 13.16-50.614 22.68c-15.485 8.773-29.68 24.8-29.078 25.102s-2.724-1.036-2.724-2.844c13.859-12.954 23.126-20.751 32.38-26.512s33.334-16.98 48.915-21.908a275.89 275.89 0 0 1 49.722-11.376c15.353-1.989 18.776-.976 31.73 1.024s19.752 5.64 19.752 5.64z" class="cls-3"/></g><path fill="#fff100" d="M288.401 187.802a4.29 4.29 0 0 1-.964-.097c-3.266-.638-5.76-3.7-6.893-6.133a9.918 9.918 0 0 1 .494-7.484 22.897 22.897 0 0 1 7.46-9.64 29.464 29.464 0 0 1 11.677-4.713 93.997 93.997 0 0 1 12.256-1.361h1.506c1.205 0 2.41.072 3.615.132s2.338.133 3.495.133h1.808c1.566 0 3.145.072 4.675.132 1.121 0 2.23.097 3.338.109h4.724c1.35 0 2.929 0 4.532.144a41.034 41.034 0 0 1 10.604 2.326 26.922 26.922 0 0 1 9.641 5.327c2.013 1.856 8.34 8.435 5.435 15.015a9.64 9.64 0 0 1-5.194 5.134 5.326 5.326 0 0 1-1.687.265 6.025 6.025 0 0 1-4.399-1.808 3.76 3.76 0 0 1-.891-3.073.663.663 0 0 0-.157-.518.615.615 0 0 0-.374-.217c-.108 0-.204.205-.24.265a7.23 7.23 0 0 1-6.64 3.857 7.628 7.628 0 0 1-6.64-3.531.928.928 0 0 0-.675-.205 1.12 1.12 0 0 0-.88.313 8.52 8.52 0 0 1-7.4 3.94 8.002 8.002 0 0 1-7.23-3.964.915.915 0 0 0-.12-.18 1.049 1.049 0 0 0-.133.47c-.229 2.807-3.47 4.76-6.242 4.76a5.387 5.387 0 0 1-.904-.073c-2.41-.482-4.82-2.217-7.23-5.326l-.085-.085a1.037 1.037 0 0 0-.157.29 7.23 7.23 0 0 1-13.34 0 .639.639 0 0 0-.578-.458.265.265 0 0 0-.145 0 .554.554 0 0 0-.06.325 5.471 5.471 0 0 1-1.627 3.989 6.279 6.279 0 0 1-4.375 1.94z"/><path d="M359.538 167.544c3.506 3.242 7.326 8.713 5.145 13.642a8.436 8.436 0 0 1-4.483 4.483c-1.964.675-5.796-.398-5.386-3.302.253-1.747-2.121-3.097-3.05-1.205-2 4.133-8.712 4.254-11.17.229a2.41 2.41 0 0 0-3.616.108c-2.639 4.447-10.062 4.507-12.533 0-.867-1.602-2.41-.831-2.506.772-.193 2.41-3.615 4-5.724 3.615-2.652-.518-4.93-2.856-6.52-4.82-.88-1.121-1.916-.53-2.314.53-1.843 4.916-9.255 4.904-11.074 0-.64-1.724-3.194-1.7-3.122.361a4.82 4.82 0 0 1-5.052 4.577q-.234-.011-.467-.046c-2.7-.53-4.929-3.109-6.025-5.47a8.918 8.918 0 0 1 .53-6.52 21.559 21.559 0 0 1 7.026-9.063 28.416 28.416 0 0 1 11.207-4.519 93.998 93.998 0 0 1 12.05-1.337c3.05-.169 6.135.289 9.22.217s6.11.168 9.17.229 6.146-.097 9.183.144a40.045 40.045 0 0 1 10.304 2.266 25.777 25.777 0 0 1 9.207 5.11z" class="cls-6"/><path d="M364.683 181.186c2.181-4.929-1.639-10.4-5.145-13.642a25.777 25.777 0 0 0-9.171-5.073 40.045 40.045 0 0 0-10.304-2.266c-3.036-.24-6.097-.084-9.182-.144s-6.11-.301-9.171-.23-6.17-.385-9.219-.216a93.996 93.996 0 0 0-12.05 1.338 28.416 28.416 0 0 0-11.208 4.519 21.559 21.559 0 0 0-7.026 9.062 8.918 8.918 0 0 0-.53 6.52c1.109 2.41 3.338 4.94 6.025 5.47a4.82 4.82 0 0 0 5.52-4.603c-.073-2.06 2.482-2.085 3.12-.361 1.82 4.916 9.232 4.928 11.076 0 .397-1.06 1.434-1.651 2.313-.53 1.591 2.024 3.869 4.362 6.52 4.82 2.097.397 5.531-1.205 5.724-3.616.133-1.602 1.639-2.41 2.507-.77 2.47 4.494 9.893 4.434 12.532 0a2.41 2.41 0 0 1 3.616-.11c2.41 4.026 9.17 3.905 11.17-.228.929-1.928 3.303-.579 3.05 1.205-.41 2.904 3.422 3.977 5.386 3.302a8.436 8.436 0 0 0 4.447-4.447zm2.073-11.207a15.389 15.389 0 0 1 1.904 9.508c-.53 4.41-4.11 8.917-8.532 9.81a7.966 7.966 0 0 1-8.086-3.411c-3.712 3.025-9.64 2.35-13.256-.916a11.147 11.147 0 0 1-7.496 3.157 10.846 10.846 0 0 1-7.58-2.41 7.737 7.737 0 0 1-5.82 3.085c-3.435.301-6.423-1.976-8.75-4.374a9.074 9.074 0 0 1-7.302 3.844 8.628 8.628 0 0 1-6.423-2.326 8.11 8.11 0 0 1-6.58 3.41c-4.423.133-7.87-3.193-9.64-6.953 0-.084.192-.253.168-.337s0-.133-.072-.193c-1.47-3.519-.7-6.773 1.012-10.063 2.314-4.458 5.314-8.435 9.894-10.604a40.587 40.587 0 0 1 9.978-3.784A78.836 78.836 0 0 1 310.828 156c3.615-.181 7.23.77 10.725.735 3.266 0 6.616-.952 9.99-.952s6.64.928 9.942 1.29a44.057 44.057 0 0 1 9.75 1.807 31.091 31.091 0 0 1 8.628 4.218 24.861 24.861 0 0 1 6.893 6.88z" class="cls-3"/><path d="M573.043 508.15q-3.748-7.387-8.183-14.991a54.313 54.313 0 0 0-10.207-12.822q-1.795 1.964-4.53 5.495c-1.833 2.338-3.616 4.82-5.484 7.46a94.279 94.279 0 0 0-5.134 8.194c-1.59 2.82-2.771 5.05-3.555 6.664h-22.692a230.388 230.388 0 0 1 13.256-21.414q7.508-11.027 16.872-23.451l-28.922-43.66h24.101l16.872 25.632 17.244-25.632h22.74l-28.729 42.72a270.623 270.623 0 0 1 18.607 25.958q7.302 11.797 11.52 19.847z" class="cls-5"/><path d="M75.908 419.625H28.813v4.82c1.133.145 2.615.434 4.375.783a21.331 21.331 0 0 1 4.53 1.35 5.929 5.929 0 0 1 3.327 2.615 8.436 8.436 0 0 1 .699 3.748v54.82c0 7.23-1.41 12.653-4.242 16.196a14.015 14.015 0 0 1-11.738 5.362 9.267 9.267 0 0 1-3.808-.843 4.543 4.543 0 0 1-2.41-2.121v-.784a42.66 42.66 0 0 0 6.29-6.218 11.304 11.304 0 0 0 2.76-7.35 10.665 10.665 0 0 0-3.169-7.858A11.701 11.701 0 0 0 16.762 481a11.195 11.195 0 0 0-8.977 3.808 13.991 13.991 0 0 0-3.254 9.556 18.522 18.522 0 0 0 7.146 15.34c4.736 3.749 10.954 5.58 18.74 5.58a40.66 40.66 0 0 0 12.58-1.904 35.334 35.334 0 0 0 10.677-5.651 27.102 27.102 0 0 0 7.424-9.412 28.428 28.428 0 0 0 2.687-12.304v-53.59a9.906 9.906 0 0 1 .711-3.965 4.435 4.435 0 0 1 3.254-2.41c1.41-.362 2.747-.639 3.88-.856s2.615-.422 4.242-.639zm51.722 78.198a18.366 18.366 0 0 1-10.544 3.181c-7.134 0-12.376-2.193-15.666-6.64s-4.88-10.846-4.88-19.378h41.997v-4.037a31.91 31.91 0 0 0-1.627-10.11 21.366 21.366 0 0 0-5.158-8.34 24.825 24.825 0 0 0-9.267-5.868 40.973 40.973 0 0 0-14.28-2.121 35.996 35.996 0 0 0-14.317 2.76 30.886 30.886 0 0 0-17.33 17.461 32.38 32.38 0 0 0-2.337 12.183 38.743 38.743 0 0 0 2.121 13.015 28.428 28.428 0 0 0 6.495 10.388 31.935 31.935 0 0 0 11.039 7.002 42.961 42.961 0 0 0 15.907 2.615 37.19 37.19 0 0 0 9.761-1.205 41.383 41.383 0 0 0 8.436-3.616 30.32 30.32 0 0 0 7.002-5.374 38.287 38.287 0 0 0 5.23-6.64l-4.664-3.399a28.042 28.042 0 0 1-7.917 8.123zM99.77 454.44q2.856-4.82 7.628-4.82A7.062 7.062 0 0 1 112 451.1a9.64 9.64 0 0 1 2.893 4.387 27.126 27.126 0 0 1 1.277 6.435c.217 2.615.35 5.158.35 7.628l-19.86.29c.108-7.086 1.169-12.208 3.085-15.438zm118.978 47.552a4.64 4.64 0 0 1-2.543-2.18 7.592 7.592 0 0 1-.71-3.616v-30.55q0-9.543-5.098-15.268c-3.386-3.82-8.436-5.724-15.196-5.724a28.753 28.753 0 0 0-7.918 1.06 22.584 22.584 0 0 0-6.025 2.543 35.198 35.198 0 0 0-4.592 3.531c-1.699 1.495-3.12 2.688-4.241 3.748h-.29v-8.978l-.916-.916-29.633 1.627v4.52a20.088 20.088 0 0 1 3.748.71 11.688 11.688 0 0 1 2.832 1.278 8.351 8.351 0 0 1 2.615 3.037 8.496 8.496 0 0 1 .988 3.82v36.152a8.002 8.002 0 0 1-.77 3.748 4.35 4.35 0 0 1-2.76 2.121 17.485 17.485 0 0 1-2.688.567c-1.06.144-2.049.277-3.109.349v4.531h37.755v-4.531a23.94 23.94 0 0 1-2.904-.639 11.304 11.304 0 0 1-2.47-.988 4.435 4.435 0 0 1-2.049-2.193 8.689 8.689 0 0 1-.639-3.615v-33.309c.494-.711 1.133-1.494 1.844-2.338a14.774 14.774 0 0 1 2.892-2.543 15.98 15.98 0 0 1 4.17-2.193 14.46 14.46 0 0 1 4.676-.783 7.942 7.942 0 0 1 6.857 3.181q2.326 3.182 2.326 9.557v29.054a10.183 10.183 0 0 1-.567 3.82 3.856 3.856 0 0 1-1.832 1.977 6.893 6.893 0 0 1-2.542.638c-1.06.073-2.049.217-2.832.278v4.53h37.357v-4.579a19.486 19.486 0 0 1-3.326-.626 19.766 19.766 0 0 1-2.41-.808zm115.604-83.862a12.497 12.497 0 0 0-8.7 3.326 10.846 10.846 0 0 0 0 16.124 12.75 12.75 0 0 0 8.7 3.326 12.437 12.437 0 0 0 8.629-3.326 10.617 10.617 0 0 0 3.615-8.062 10.508 10.508 0 0 0-3.615-8.062 12.316 12.316 0 0 0-8.629-3.326zm101.685 83.862a4.664 4.664 0 0 1-2.554-2.18 7.749 7.749 0 0 1-.7-3.616v-30.55q0-9.543-5.097-15.268c-3.386-3.82-8.435-5.724-15.196-5.724a28.922 28.922 0 0 0-7.93 1.06 22.669 22.669 0 0 0-6.025 2.543 34.465 34.465 0 0 0-4.603 3.531c-1.687 1.495-3.11 2.688-4.242 3.748h-.277v-8.978l-.916-.916-29.61 1.627v4.52a20.088 20.088 0 0 1 3.749.71 11.688 11.688 0 0 1 2.832 1.278 8.351 8.351 0 0 1 2.615 3.037 8.496 8.496 0 0 1 .988 3.82v36.152a7.845 7.845 0 0 1-.784 3.748 4.326 4.326 0 0 1-2.747 2.121 17.485 17.485 0 0 1-2.687.567c-1.061.144-2.05.277-3.122.349v4.531h37.768v-4.531a22.993 22.993 0 0 1-2.904-.639 11.304 11.304 0 0 1-2.41-.988 4.435 4.435 0 0 1-2.05-2.193 8.508 8.508 0 0 1-.638-3.615v-33.309c.494-.711 1.133-1.494 1.832-2.338a15.243 15.243 0 0 1 2.904-2.543 15.787 15.787 0 0 1 4.17-2.193 14.46 14.46 0 0 1 4.663-.783 7.966 7.966 0 0 1 6.87 3.181q2.337 3.182 2.325 9.557v29.054a10.183 10.183 0 0 1-.566 3.82 3.856 3.856 0 0 1-1.832 1.977 6.966 6.966 0 0 1-2.555.638c-1.06.073-2.048.217-2.82.278v4.53h37.358v-4.579a19.486 19.486 0 0 1-3.326-.626 19.088 19.088 0 0 1-2.482-.808zm62.496-26.018c-1.41-1.337-1.132-.988-.494-.421-3.458-3.037-8.688-5.52-15.762-7.351a52.761 52.761 0 0 1-11.171-3.965 7.23 7.23 0 0 1-4.038-6.857 6.495 6.495 0 0 1 2.76-5.52 12.316 12.316 0 0 1 7.496-1.976 16.871 16.871 0 0 1 11.388 4.664 26.355 26.355 0 0 1 7.423 11.171h4.387l-.988-21.21h-4.748v.073a2.495 2.495 0 0 1-.989 2.47c-1.41.711-4.241-.277-4.241-.277-1.206-.361-2.543-.783-4.025-1.133a43.539 43.539 0 0 0-10.4-1.132c-7.99 0-14.461 1.771-19.282 5.374a16.775 16.775 0 0 0-7.35 14.136 18.076 18.076 0 0 0 1.698 8.134 18.354 18.354 0 0 0 4.46 5.87 24.464 24.464 0 0 0 6.217 4.036 71.883 71.883 0 0 0 7.231 2.543l7.146 2.12a28.921 28.921 0 0 1 5.303 2.122 12.388 12.388 0 0 1 3.398 2.832 6.471 6.471 0 0 1 1.265 4.097 8.219 8.219 0 0 1-2.747 6.785c-1.844 1.482-4.676 2.193-8.436 2.193a17.498 17.498 0 0 1-8.062-1.904 30.126 30.126 0 0 1-6.64-4.736 36.43 36.43 0 0 1-4.953-6.303 30.127 30.127 0 0 1-3.109-6.29h-4.531l.566 16.871.217 6.303h4.459v-.073a2.507 2.507 0 0 1 1.06-2.687c1.977-.916 3.953.072 5.942.771a66.9 66.9 0 0 0 4.17 1.495c.638.204 1.264.35 1.903.566a38.984 38.984 0 0 0 9.906 1.205c8.556 0 15.546-1.832 20.788-5.652a18.076 18.076 0 0 0 7.99-15.774 16.642 16.642 0 0 0-4.737-12.16c.663.651 1 1-.47-.41zm-194.585 26.38a9.147 9.147 0 0 1-4.82-3.893c-3.82-5.591-7.351-10.845-10.846-15.907l-11.22-16.34c2.121-1.832 3.965-3.387 5.52-4.592s3.253-2.41 4.953-3.531a51.409 51.409 0 0 1 15.834-7.363v-4.314h-30.814v4.386a29.296 29.296 0 0 1 5.941 1.278c1.338.494 1.977 1.06 1.977 1.831a10.581 10.581 0 0 1-.217 1.35A8.351 8.351 0 0 1 278 458.44c-2.265 2.41-5.374 5.375-9.194 8.978s-7.231 6.713-10.328 9.472v-64.134l-.916-.989-30.97 1.627v4.531a24.764 24.764 0 0 1 4.314.64 11.569 11.569 0 0 1 3.53 1.204 6.953 6.953 0 0 1 2.615 3.326 10.69 10.69 0 0 1 .928 4.242v69.293a8.05 8.05 0 0 1-.71 3.748 4 4 0 0 1-2.688 2.12 20.49 20.49 0 0 1-2.76.567c-1.06.144-2.048.29-3.109.35v4.53h38.563v-4.519a19.668 19.668 0 0 1-2.976-.494 12.567 12.567 0 0 1-2.615-.843 4.362 4.362 0 0 1-2.543-2.121 9.304 9.304 0 0 1-.639-3.615v-13.594l3.676-3.109c2.615 3.748 5.447 7.845 8.435 12.232s6.303 9.76 9.906 16.051h29.127v-4.314a27.884 27.884 0 0 1-5.7-1.265zm44.552-.494a5.688 5.688 0 0 1-2.687-2.266 6.58 6.58 0 0 1-.928-3.675V446.51l-.916-.916-31.887 1.627v4.52a34.188 34.188 0 0 1 5.507.855 12.967 12.967 0 0 1 3.399 1.41 7.616 7.616 0 0 1 3.47 6.435v36.153a7.086 7.086 0 0 1-.783 3.675 5.23 5.23 0 0 1-2.832 2.121 12.23 12.23 0 0 1-2.687.639c-1.06.072-2.121.217-3.182.289v4.519h39.395v-4.41a22.013 22.013 0 0 1-3.121-.627 26.894 26.894 0 0 1-2.748-.94z" class="cls-3"/></svg>