<svg id="Layer_1" data-name="Layer 1" xmlns="http://www.w3.org/2000/svg" xmlns:xlink="http://www.w3.org/1999/xlink" viewBox="0 0 360 134.88935"><defs><style>.cls-1,.cls-2{fill-rule:evenodd;}.cls-1{fill:url(#linear-gradient);}.cls-2{fill:url(#linear-gradient-2);}.cls-3{fill:#1c75bb;}</style><linearGradient id="linear-gradient" x1="159.92403" y1="161.92497" x2="103.24182" y2="24.98201" gradientTransform="matrix(0.96609, 0, 0, -1.0351, -53.97648, 172.70581)" gradientUnits="userSpaceOnUse"><stop offset="0" stop-color="#2b3990"/><stop offset="0.16" stop-color="#1e62a7"/><stop offset="0.32" stop-color="#1485bc"/><stop offset="0.49" stop-color="#0ba1cc"/><stop offset="0.66" stop-color="#05b4d7"/><stop offset="0.83" stop-color="#01c0de"/><stop offset="1" stop-color="#00c4e0"/></linearGradient><linearGradient id="linear-gradient-2" x1="-22120.62633" y1="139.2368" x2="-13786.00503" y2="139.2368" gradientTransform="matrix(0.93633, 0, 0, -1.068, -90.81579, 221.35829)" xlink:href="#linear-gradient"/></defs><title>spinnaker-horizontal-color</title><path id="Shape" class="cls-1" d="M5.10445,128.06023c55.57511,5.50889,100.20049-27.363,111.327-41.449,11.13167-14.086-5.74686-81.28928-5.74686-81.28928C92.38813,50.27009,59.1216,118.39646,5.10384,128.07975Z"/><path class="cls-2" d="M30.80321,110.12249c32.78237,1.20682,57.73483-19.4077,63.7504-27.95306,6.01515-8.54586-3.19436-47.03592-3.19436-47.03592-9.11041,26.663-34.45895,65.51642-60.55552,74.99Z"/><path class="cls-3" d="M139.42672,77.1921a17.85741,17.85741,0,0,0,5.38862,3.82439,15.08364,15.08364,0,0,0,6.43805,1.44859,10.26766,10.26766,0,0,0,6.60314-1.90058,6.61917,6.61917,0,0,0,1.804-7.71826,5.98115,5.98115,0,0,0-1.49752-1.92381,10.96206,10.96206,0,0,0-2.25214-1.44859l-2.78276-1.34435-6.14323-2.63073a29.24918,29.24918,0,0,1-3.06577-1.54131,12.55976,12.55976,0,0,1-2.8063-2.17874,10.41638,10.41638,0,0,1-2.02815-3.04787,10.56269,10.56269,0,0,1,.224-8.50629,10.9083,10.9083,0,0,1,2.8063-3.56946,13.0961,13.0961,0,0,1,4.24481-2.31782,16.66378,16.66378,0,0,1,5.38862-.83441,17.42576,17.42576,0,0,1,7.07476,1.44859,17.938,17.938,0,0,1,5.55371,3.75479l-2.936,3.47673a15.34278,15.34278,0,0,0-4.3509-2.9204,13.16574,13.16574,0,0,0-5.38862-1.05458,9.42128,9.42128,0,0,0-5.78951,1.634,5.33166,5.33166,0,0,0-2.19313,4.53131,5.06231,5.06231,0,0,0,.62494,2.59588,6.46462,6.46462,0,0,0,1.70968,1.81947,13.50174,13.50174,0,0,0,2.2875,1.41384q1.23806.61422,2.547,1.15892l6.08422,2.57275a26.26869,26.26869,0,0,1,3.46667,1.7615,12.43657,12.43657,0,0,1,2.8063,2.31782,10.02535,10.02535,0,0,1,1.863,3.08272,11.2039,11.2039,0,0,1,.68389,4.07932,11.00734,11.00734,0,0,1-1.014,4.63554,11.30713,11.30713,0,0,1-2.9124,3.82438,13.86876,13.86876,0,0,1-4.575,2.57276,18.473,18.473,0,0,1-6.07251.92712,20.75269,20.75269,0,0,1-15.03377-6.23493Z"/><path class="cls-3" d="M170.92312,89.06287V99.6045h-5.12454V55.18882h4.24605l.43926,3.59505h.19147a23.01526,23.01526,0,0,1,4.50509-3.08478,11.00275,11.00275,0,0,1,5.14715-1.2873,11.44159,11.44159,0,0,1,5.18087,1.15963,10.143,10.143,0,0,1,3.75047,3.21235,15.28357,15.28357,0,0,1,2.25255,5.00982,25.58754,25.58754,0,0,1,.77713,6.587,21.99154,21.99154,0,0,1-1.0587,7.1089,16.57553,16.57553,0,0,1-2.872,5.2998,12.19,12.19,0,0,1-4.17851,3.30507A11.54338,11.54338,0,0,1,179.19,87.25409a9.99385,9.99385,0,0,1-4.21233-.96254,21.20484,21.20484,0,0,1-4.21233-2.63248Zm0-9.579a13.54527,13.54527,0,0,0,3.99832,2.53976,9.79936,9.79936,0,0,0,3.37887.74219,7.11694,7.11694,0,0,0,3.46893-.86978,8.35383,8.35383,0,0,0,2.74812-2.44693,12.13374,12.13374,0,0,0,1.81331-3.88493,19.0727,19.0727,0,0,0,.65325-5.207,23.27861,23.27861,0,0,0-.43925-4.63873,10.61666,10.61666,0,0,0-1.40788-3.62979,6.83044,6.83044,0,0,0-2.50039-2.31937,7.51982,7.51982,0,0,0-3.64923-.835,7.985,7.985,0,0,0-3.897,1.09014,22.87952,22.87952,0,0,0-4.21233,3.15437Z"/><path class="cls-3" d="M197.74234,48.62536a4.1708,4.1708,0,0,1-2.77465-.94433,3.1487,3.1487,0,0,1,0-4.824,4.652,4.652,0,0,1,5.53706,0,3.13859,3.13859,0,0,1,0,4.824,4.1577,4.1577,0,0,1-2.7623.94433ZM194.869,54.92844h5.61106v30.6504H194.869Z"/><path class="cls-3" d="M204.753,55.159h4.38195l.44853,4.38113h.19554a25.22965,25.22965,0,0,1,4.681-3.65848,10.909,10.909,0,0,1,5.75066-1.46791q4.911,0,7.17674,3.00357t2.30024,8.88653V85.57894h-5.23309V66.99257q0-4.31339-1.40316-6.22167a5.172,5.172,0,0,0-4.46254-1.90828,7.73017,7.73017,0,0,0-4.26691,1.18564,27.555,27.555,0,0,0-4.20946,3.50037v22.03h-5.23309Z"/><path class="cls-3" d="M232.80573,55.159h4.344l.44937,4.38113h.19589a25.27031,25.27031,0,0,1,4.68962-3.65848,10.9329,10.9329,0,0,1,5.76124-1.46791q4.92013,0,7.19,3.00357t2.30447,8.88653V85.57894h-5.34647V66.99257q0-4.31339-1.40572-6.22167a5.18594,5.18594,0,0,0-4.47076-1.90828,7.75538,7.75538,0,0,0-4.27483,1.18564,27.596,27.596,0,0,0-4.21727,3.50037v22.03h-5.21973Z"/><path class="cls-3" d="M260.86877,78.27351a8.62835,8.62835,0,0,1,4.7075-7.86146q4.70751-2.73244,14.84053-3.82068a14.16975,14.16975,0,0,0-.29422-2.88289,6.88346,6.88346,0,0,0-1.0475-2.5008,5.65284,5.65284,0,0,0-1.98889-1.75985,6.67006,6.67006,0,0,0-3.20115-.67152,12.963,12.963,0,0,0-5.19,1.03042,25.74237,25.74237,0,0,0-4.27208,2.31556l-2.15365-3.65858a34.89777,34.89777,0,0,1,5.41359-2.7324,18.34986,18.34986,0,0,1,7.06129-1.31988q5.80194,0,8.41471,3.47334a15.25941,15.25941,0,0,1,2.61264,9.33183V86.355H281.3347l-.459-3.71656h-.1295a26.40609,26.40609,0,0,1-4.91937,3.17236,12.3554,12.3554,0,0,1-5.57837,1.31988,9.78422,9.78422,0,0,1-6.68466-2.31556,8.23375,8.23375,0,0,1-2.69508-6.54157Zm5.28419-.38208a4.42256,4.42256,0,0,0,1.60052,3.85543,6.56092,6.56092,0,0,0,3.94259,1.15778,9.34127,9.34127,0,0,0,4.34269-1.06516,21.07887,21.07887,0,0,0,4.34269-3.11449V70.06472a56.5138,56.5138,0,0,0-6.72,1.21565A17.82942,17.82942,0,0,0,269.26,72.9476a6.25257,6.25257,0,0,0-2.3538,2.21143A5.386,5.386,0,0,0,266.153,77.89143Z"/><polygon class="cls-3" points="292.727 77.423 292.727 85.542 287.421 85.542 287.351 40.38 292.649 40.38 292.649 70.987 292.852 70.987 306.41 54.733 312.316 54.733 301.688 67.106 313.843 85.573 307.937 85.573 298.633 70.691 292.727 77.423"/><path class="cls-3" d="M309.17215,70.90619a18.788,18.788,0,0,1,1.16118-6.94021,16.18215,16.18215,0,0,1,3.15848-5.15887,13.66557,13.66557,0,0,1,4.47056-3.23877,12.65116,12.65116,0,0,1,5.21375-1.15664,13.15225,13.15225,0,0,1,5.30658,1.02949,10.35344,10.35344,0,0,1,3.9248,2.9496,13.51644,13.51644,0,0,1,2.41529,4.6268,20.27346,20.27346,0,0,1,.83605,6.02636,18.0721,18.0721,0,0,1-.19741,2.88021H314.42032a12.35035,12.35035,0,0,0,3.12353,8.016,9.61035,9.61035,0,0,0,7.30388,2.9496,12.35182,12.35182,0,0,0,4.157-.67089,18.38544,18.38544,0,0,0,3.63453-1.75821l1.86953,3.47006a26.7471,26.7471,0,0,1-4.57511,2.244,15.952,15.952,0,0,1-5.72466.96007,15.36809,15.36809,0,0,1-5.88719-1.15675,13.93758,13.93758,0,0,1-4.76085-3.204,14.81945,14.81945,0,0,1-3.18161-5.101,19.00721,19.00721,0,0,1-1.20764-6.76669Zm21.88815-2.37128q0-4.81189-2.03206-7.345a6.88589,6.88589,0,0,0-5.70141-2.53318,7.73538,7.73538,0,0,0-3.1816.67088,8.82442,8.82442,0,0,0-2.74041,1.92011,10.25627,10.25627,0,0,0-2.03206,3.07686,14.17328,14.17328,0,0,0-1.05675,4.19877Z"/><path class="cls-3" d="M337.23521,55.11276h4.34617l.44961,5.51876h.196a14.12408,14.12408,0,0,1,3.862-4.5235,8.09936,8.09936,0,0,1,4.95717-1.69632,8.40775,8.40775,0,0,1,3.32017.622l-1.026,4.52349a12.44456,12.44456,0,0,0-1.40643-.37319,8.57138,8.57138,0,0,0-1.60248-.12436,6.99334,6.99334,0,0,0-4.12711,1.57194,12.42978,12.42978,0,0,0-3.73516,5.45091v19.4961h-5.24544Z"/></svg>