<svg id="Layer_1" data-name="Layer 1" xmlns="http://www.w3.org/2000/svg" viewBox="0 0 768.33 976.51"><defs><style>.cls-1{fill:#3dff47;}.cls-2{fill:none;stroke:#000;stroke-miterlimit:10;stroke-width:5px;}.cls-3{fill:#636363;}</style></defs><path class="cls-1" d="M181.57,966c.89,12-7.46,22.44-18.66,23.39a18.92,18.92,0,0,1-3.53,0H105.32c-11.49.87-21.48-8.38-22.3-20.66A24.5,24.5,0,0,1,83,966V934.38c.6-12.67,10.53-22.52,22.39-22.23h54c11.46-.89,21.42,8.31,22.25,20.56a23.43,23.43,0,0,1-.06,3.93Zm-18.22-27.4c0-3.18,0-6.44-4-6.44H105.32c-4.24,0-4.24,2.48-4.24,5v25.63c0,3.75.47,6.44,4.18,6.44h53.92c4.17,0,4.17-2.55,4.17-5.38Z" transform="translate(-74.89 -15.41)"/><path class="cls-2" d="M181.57,966c.89,12-7.46,22.44-18.66,23.39a18.92,18.92,0,0,1-3.53,0H105.32c-11.49.87-21.48-8.38-22.3-20.66A24.5,24.5,0,0,1,83,966V934.38c.6-12.67,10.53-22.52,22.39-22.23h54c11.46-.89,21.42,8.31,22.25,20.56a23.43,23.43,0,0,1-.06,3.93Zm-18.22-27.4c0-3.18,0-6.44-4-6.44H105.32c-4.24,0-4.24,2.48-4.24,5v25.63c0,3.75.47,6.44,4.18,6.44h53.92c4.17,0,4.17-2.55,4.17-5.38Z" transform="translate(-74.89 -15.41)"/><path class="cls-1" d="M190.52,912.29h80c17.63,0,17.63,6,17.63,24.35a17.31,17.31,0,0,1-4,13.45c2,3.26,4.64,5.1,4.64,10.48l3.31,28.75H273.79l-3.12-28.75H208.8v28.75H190.45Zm18.28,28.88h57.5c3.31,0,4.17-4.53,4.17-9.2H208.8Z" transform="translate(-74.89 -15.41)"/><path class="cls-2" d="M190.52,912.29h80c17.63,0,17.63,6,17.63,24.35a17.31,17.31,0,0,1-4,13.45c2,3.26,4.64,5.1,4.64,10.48l3.31,28.75H273.79l-3.12-28.75H208.8v28.75H190.45Zm18.28,28.88h57.5c3.31,0,4.17-4.53,4.17-9.2H208.8Z" transform="translate(-74.89 -15.41)"/><path class="cls-1" d="M297.77,912.29h99.37V932H356.33v57.35H338.71V932.18H297.77Z" transform="translate(-74.89 -15.41)"/><path class="cls-1" d="M503.53,912.15V932H427.94c-3.84,0-4.3,3.11-4.3,6.44V941h79.89v19.9H424v1.77c0,3.75.47,6.58,4.18,6.58h75.32v20.11H427.94c-11.84.61-21.9-9.14-22.48-21.8,0-.9,0-1.8,0-2.7v-28c-.33-13.21,9.43-24.2,21.79-24.55h.67Z" transform="translate(-74.89 -15.41)"/><path class="cls-1" d="M587.4,969.07v20.25H533.47c-11.49.87-21.48-8.38-22.3-20.66a22.28,22.28,0,0,1,0-2.71v-53.8h18.08v50.48c0,3.75.47,6.44,4.18,6.44Z" transform="translate(-74.89 -15.41)"/><path class="cls-1" d="M616.08,912.15v77.17H596.21V912.15Z" transform="translate(-74.89 -15.41)"/><path class="cls-1" d="M706.57,912.15h18.15V966c.9,12-7.46,22.44-18.65,23.39a19,19,0,0,1-3.54,0H648.47c-11.49.87-21.47-8.38-22.29-20.66a24.5,24.5,0,0,1,0-2.71v-53.8h18.08v50.48c0,3.75.47,6.44,4.18,6.44h53.92c4.18,0,4.18-2.55,4.18-5.38Z" transform="translate(-74.89 -15.41)"/><path class="cls-1" d="M817,941.24c20.61,0,23.72,10.55,23.72,24.43s-3.31,23.65-23.52,23.65H737.71V970.06H817c5.7,0,5.77-4.11,5.9-9.2H757.38c-19.87,0-23.85-10-23.85-24s2.12-24.56,23.85-24.56H836V931.9H752.55c0,4,0,9.34,4.7,9.34Z" transform="translate(-74.89 -15.41)"/><path class="cls-2" d="M297.77,912.29h99.37V932H356.33v57.35H338.71V932.18H297.77Z" transform="translate(-74.89 -15.41)"/><path class="cls-2" d="M503.53,912.15V932H427.94c-3.84,0-4.3,3.11-4.3,6.44V941h79.89v19.9H424v1.77c0,3.75.47,6.58,4.18,6.58h75.32v20.11H427.94c-11.84.61-21.9-9.14-22.48-21.8,0-.9,0-1.8,0-2.7v-28c-.33-13.21,9.43-24.2,21.79-24.55h.67Z" transform="translate(-74.89 -15.41)"/><path class="cls-2" d="M587.4,969.07v20.25H533.47c-11.49.87-21.48-8.38-22.3-20.66a22.28,22.28,0,0,1,0-2.71v-53.8h18.08v50.48c0,3.75.47,6.44,4.18,6.44Z" transform="translate(-74.89 -15.41)"/><path class="cls-2" d="M616.08,912.15v77.17H596.21V912.15Z" transform="translate(-74.89 -15.41)"/><path class="cls-2" d="M706.57,912.15h18.15V966c.9,12-7.46,22.44-18.65,23.39a19,19,0,0,1-3.54,0H648.47c-11.49.87-21.47-8.38-22.29-20.66a24.5,24.5,0,0,1,0-2.71v-53.8h18.08v50.48c0,3.75.47,6.44,4.18,6.44h53.92c4.18,0,4.18-2.55,4.18-5.38Z" transform="translate(-74.89 -15.41)"/><path class="cls-2" d="M817,941.24c20.61,0,23.72,10.55,23.72,24.43s-3.31,23.65-23.52,23.65H737.71V970.06H817c5.7,0,5.77-4.11,5.9-9.2H757.38c-19.87,0-23.85-10-23.85-24s2.12-24.56,23.85-24.56H836V931.9H752.55c0,4,0,9.34,4.7,9.34Z" transform="translate(-74.89 -15.41)"/><path class="cls-1" d="M816,379.78c0,177.29-150.38,410.92-327.88,497.73-23.56,11.52-42.24,12.6-67.66-.51C265.89,797.25,91.76,554.71,91.76,379.78c0-191.92,162.13-347.51,362.13-347.51S816,187.86,816,379.78Z" transform="translate(-74.89 -15.41)"/><path d="M454.51,903.41c-13.55,0-27-3.81-41.76-11.42-39.42-20.34-80-50.48-120.56-89.58-38.72-37.33-76.07-81.88-108-128.85-32.79-48.24-60-99.22-78.55-147.44C85.24,473.22,74.89,424,74.89,379.78a350.17,350.17,0,0,1,29.89-142.07,362.65,362.65,0,0,1,81.37-115.82A378.74,378.74,0,0,1,306.59,44a394.39,394.39,0,0,1,294.6,0,378.78,378.78,0,0,1,120.45,77.94A362.62,362.62,0,0,1,803,237.71a350,350,0,0,1,29.89,142.07c0,45.25-9.16,94.35-27.22,145.93-17.3,49.42-41.83,98.57-72.91,146.1a714.24,714.24,0,0,1-106.92,128.5c-41.75,39.42-85.58,70.49-130.29,92.35C480.91,899.82,467.66,903.41,454.51,903.41Zm-.62-854.27c-190.38,0-345.26,148.33-345.26,330.64,0,77.91,37.71,178.08,103.47,274.82C275,747.1,355.77,824.63,428.22,862c19.36,10,32.61,10.07,52.5.35,169.63-83,318.43-308.46,318.43-482.58C799.15,197.47,644.27,49.14,453.89,49.14Z" transform="translate(-74.89 -15.41)"/><path d="M771.54,388.84s-37.2,219.92-172,243.18-125.7-121.28-55.09-169.17S771.54,388.84,771.54,388.84Z" transform="translate(-74.89 -15.41)"/><path class="cls-3" d="M566.51,622.46a75.24,75.24,0,0,0,8.73-1.27c2.89-.55,5.75-1.2,8.57-2a134.82,134.82,0,0,0,16.59-5.61,160,160,0,0,0,15.78-7.44A168.72,168.72,0,0,0,631,597.06a187.11,187.11,0,0,0,26.65-22.24c1-1,2-2.09,3-3.13l1.51-1.56.75-.78.73-.81,2.9-3.24c.48-.55,1-1.07,1.44-1.63L669.4,562l2.79-3.34c.93-1.11,1.79-2.27,2.7-3.41l2.67-3.44,2.57-3.55,5.17-7.08,1.3-1.77c.42-.6.82-1.21,1.23-1.81l2.46-3.64,5-7.24,4.7-7.41,2.36-3.7c.4-.61.78-1.23,1.15-1.86l1.12-1.89,4.49-7.54c.77-1.24,1.46-2.54,2.17-3.81l2.14-3.84,2.15-3.83c.73-1.27,1.37-2.59,2.06-3.88l4.08-7.78,3.88-7.89c.67-1.31,1.28-2.64,1.89-4l1.85-4c1.27-2.65,2.4-5.35,3.59-8a315.87,315.87,0,0,0,12.44-33c-1.9,11.69-5.3,23.1-9.1,34.33-1,2.8-1.93,5.61-3,8.37l-1.6,4.15c-.54,1.39-1.07,2.78-1.66,4.14l-3.48,8.2c-1.22,2.71-2.48,5.4-3.73,8.09-.65,1.34-1.24,2.71-1.92,4l-2,4-2,4c-.68,1.32-1.33,2.66-2.07,3.95l-4.33,7.8-1.09,1.94c-.36.66-.73,1.3-1.12,1.93L705.84,523l-4.65,7.62L696.27,538l-2.48,3.71c-.41.61-.82,1.24-1.25,1.85l-1.3,1.81L686,552.6l-2.64,3.61-2.77,3.53c-.94,1.17-1.84,2.37-2.81,3.51l-2.91,3.43-1.47,1.71c-.49.57-1,1.11-1.51,1.66l-3,3.31-.77.83-.79.8-1.58,1.6c-1.06,1.06-2.11,2.13-3.2,3.17l-3.3,3.06c-.55.51-1.09,1-1.65,1.53l-1.71,1.47c-1.14,1-2.27,2-3.42,2.93l-3.53,2.8c-.59.47-1.17,1-1.77,1.39l-1.81,1.34c-1.22.88-2.4,1.81-3.65,2.64l-3.73,2.53c-1.24.84-2.53,1.6-3.8,2.41l-1.91,1.19-2,1.12-1.95,1.12-1,.56-1,.52-4,2.1-4,1.95A144.54,144.54,0,0,1,601.62,617a126.09,126.09,0,0,1-17.38,4.22A83.87,83.87,0,0,1,566.51,622.46Z" transform="translate(-74.89 -15.41)"/><path d="M492.35,482.36c0-.3-.06-.5-.08-.74l0-.68c0-.44,0-.89,0-1.32,0-.88.06-1.75.15-2.62a38,38,0,0,1,.87-5.1,45.39,45.39,0,0,1,3.57-9.58,61.57,61.57,0,0,1,12.1-16.14,94,94,0,0,1,15.84-12.25l2.12-1.31c.71-.44,1.44-.83,2.16-1.25l2.17-1.23,2.2-1.16c2.93-1.55,5.83-3.13,8.81-4.58q17.76-8.88,36.26-16.07c6.15-2.42,12.37-4.66,18.61-6.81s12.55-4.16,18.91-5.93c-6.32,1.91-12.56,4.06-18.77,6.32s-12.35,4.65-18.43,7.2q-18.3,7.56-35.81,16.79c-2.93,1.51-5.79,3.14-8.67,4.74l-2.15,1.2-2.11,1.26c-.7.43-1.42.82-2.1,1.27l-2.07,1.33A92.23,92.23,0,0,0,510.7,448a58.93,58.93,0,0,0-11.24,15.65,42.16,42.16,0,0,0-3.14,9,35.33,35.33,0,0,0-.7,4.67c-.06.78-.09,1.56-.08,2.33,0,.39,0,.77,0,1.15l0,.56c0,.17,0,.38.06.48Z" transform="translate(-74.89 -15.41)"/><path d="M136.24,388.84s37.2,219.92,172,243.18,125.7-121.28,55.09-169.17S136.24,388.84,136.24,388.84Z" transform="translate(-74.89 -15.41)"/><path class="cls-3" d="M341.28,622.46a83.91,83.91,0,0,1-17.74-1.29A125.61,125.61,0,0,1,306.17,617a143.14,143.14,0,0,1-16.71-6.53l-4-1.95-4-2.1-1-.52-1-.56-2-1.12-1.95-1.12-1.91-1.19c-1.26-.81-2.56-1.57-3.8-2.41l-3.73-2.53c-1.25-.83-2.43-1.76-3.64-2.64l-1.82-1.34c-.6-.44-1.18-.92-1.77-1.39l-3.53-2.8c-1.15-1-2.28-2-3.42-2.93l-1.7-1.47c-.56-.5-1.1-1-1.66-1.53l-3.3-3.06c-1.08-1-2.13-2.11-3.19-3.17l-1.59-1.6-.79-.8-.76-.83-3.05-3.31c-.51-.55-1-1.09-1.52-1.66l-1.46-1.71L230,563.25c-1-1.14-1.86-2.34-2.8-3.51l-2.78-3.53-2.63-3.61-5.23-7.22-1.31-1.81c-.43-.61-.83-1.24-1.25-1.85L211.51,538l-4.92-7.44L202,523l-2.31-3.82c-.4-.63-.77-1.27-1.12-1.93l-1.09-1.94-4.34-7.8c-.74-1.29-1.38-2.63-2.07-3.95l-2-4-2-4c-.68-1.32-1.27-2.69-1.91-4-1.26-2.69-2.51-5.38-3.74-8.09l-3.48-8.2c-.59-1.36-1.12-2.75-1.65-4.14L174.6,467c-1.09-2.76-2-5.57-3-8.37-3.8-11.23-7.19-22.64-9.1-34.33a315.93,315.93,0,0,0,12.45,33c1.18,2.69,2.31,5.39,3.59,8l1.84,4c.61,1.33,1.23,2.66,1.89,4l3.89,7.89,4.08,7.78c.68,1.29,1.32,2.61,2,3.88l2.15,3.83,2.14,3.84c.72,1.27,1.4,2.57,2.17,3.81l4.5,7.54,1.12,1.89q.54.94,1.14,1.86l2.37,3.7,4.7,7.41,4.94,7.24L220,537.6c.41.6.81,1.21,1.24,1.81l1.29,1.77,5.17,7.08,2.57,3.55,2.68,3.44c.9,1.14,1.76,2.3,2.69,3.41l2.8,3.34,1.39,1.67c.46.56,1,1.08,1.44,1.63l2.9,3.24.72.81.75.78,1.51,1.56c1,1,2,2.11,3,3.13a187,187,0,0,0,26.64,22.24,170.2,170.2,0,0,0,14.84,9.09,162.2,162.2,0,0,0,15.78,7.44A135.39,135.39,0,0,0,324,619.2c2.82.79,5.68,1.44,8.57,2A75.09,75.09,0,0,0,341.28,622.46Z" transform="translate(-74.89 -15.41)"/><path d="M412.1,481.81a4.15,4.15,0,0,0,.06-.48l0-.56c0-.38,0-.76,0-1.15,0-.77,0-1.55-.09-2.33a33.75,33.75,0,0,0-.7-4.67,42.16,42.16,0,0,0-3.14-9A58.67,58.67,0,0,0,397.09,448,92.3,92.3,0,0,0,381.9,435.7l-2.06-1.33c-.69-.45-1.4-.84-2.1-1.27l-2.11-1.26-2.16-1.2c-2.88-1.6-5.74-3.23-8.67-4.74q-17.48-9.21-35.8-16.79c-6.09-2.55-12.25-4.92-18.44-7.2s-12.44-4.41-18.76-6.32c6.36,1.77,12.65,3.8,18.9,5.93s12.46,4.39,18.61,6.81q18.48,7.19,36.26,16.07c3,1.45,5.89,3,8.82,4.58l2.19,1.16,2.17,1.23c.72.42,1.45.81,2.16,1.25l2.13,1.31a93.56,93.56,0,0,1,15.83,12.25A61.57,61.57,0,0,1,411,462.32a44.32,44.32,0,0,1,3.57,9.58,38,38,0,0,1,.88,5.1c.09.87.14,1.74.15,2.62,0,.43,0,.88,0,1.32l0,.68c0,.24,0,.44-.08.74Z" transform="translate(-74.89 -15.41)"/></svg>