<svg xmlns="http://www.w3.org/2000/svg" role="img" viewBox="-16.34 -12.34 1057.68 353.68"><defs><style>.cls-1{fill:none}.cls-3{fill:#221f1f}.cls-8{fill:#1a1715}</style></defs><path d="M472.249 167.997a36.005 36.005 0 0 0-1.846-9.052 13.93 13.93 0 0 0-4.087-6.24 10.04 10.04 0 0 0-6.547-2.11q-6.77 0-10.811 6.856-4.044 6.855-4.395 21.708l28.213-.351q0-5.274-.527-10.81z" class="cls-1"/><path d="M335.491 115.351q2.472.353 6.227 1.144a33.976 33.976 0 0 1 6.402 1.935q3.708 1.584 4.68 3.694a12.62 12.62 0 0 1 .972 5.278v70.455q0 15.306-6.038 22.87-6.037 7.563-16.612 7.563a12.589 12.589 0 0 1-5.377-1.23 6.54 6.54 0 0 1-3.437-2.989v-1.142a60.516 60.516 0 0 0 8.92-8.832 16.137 16.137 0 0 0 3.912-10.416 14.971 14.971 0 0 0-4.527-11.074q-4.528-4.483-12.173-4.483-8.087 0-12.7 5.362-4.614 5.362-4.614 13.535 0 13.8 10.063 21.709 10.063 7.91 26.5 7.91a58.036 58.036 0 0 0 17.841-2.682 48.502 48.502 0 0 0 15.117-7.96 37.974 37.974 0 0 0 10.503-13.28 39.515 39.515 0 0 0 3.824-17.416v-68.78a14.719 14.719 0 0 1 1.01-5.63q1.01-2.46 4.615-3.43 3.075-.79 5.537-1.23 2.46-.441 5.976-.88v-6.856h-66.62zM488.42 218.843a25.631 25.631 0 0 1-14.853 4.525q-15.118 0-22.06-9.404-6.944-9.403-6.944-27.422h59.415v-5.713a44.624 44.624 0 0 0-2.286-14.281 29.977 29.977 0 0 0-7.295-11.822 35.794 35.794 0 0 0-13.095-8.261q-7.91-2.987-20.215-2.989a51.523 51.523 0 0 0-20.347 3.867 44.832 44.832 0 0 0-15.073 10.108 46.212 46.212 0 0 0-12.656 31.816 54.314 54.314 0 0 0 3.032 18.414 39.73 39.73 0 0 0 9.185 14.72 44.011 44.011 0 0 0 15.6 9.932q9.447 3.692 22.456 3.692a50.694 50.694 0 0 0 13.843-1.713 54.162 54.162 0 0 0 11.91-5.055 45.08 45.08 0 0 0 9.887-7.602 53.505 53.505 0 0 0 7.427-9.449l-6.68-4.834a42.382 42.382 0 0 1-11.25 11.471zm-39.462-61.392q4.041-6.856 10.81-6.856a10.04 10.04 0 0 1 6.548 2.11 13.93 13.93 0 0 1 4.087 6.24 36.005 36.005 0 0 1 1.846 9.052q.527 5.537.527 10.81l-28.213.352q.35-14.85 4.395-21.708zm173.672 67.236a6.813 6.813 0 0 1-3.604-3.076 11.67 11.67 0 0 1-.966-5.186v-43.066q0-13.447-7.164-21.577-7.164-8.128-21.489-8.13a41.111 41.111 0 0 0-11.25 1.494 31.588 31.588 0 0 0-8.525 3.604 57.512 57.512 0 0 0-6.504 5.01q-3.517 3.077-5.977 5.273h-.351v-12.744l-1.319-1.319-41.923 2.286v6.416a28.23 28.23 0 0 1 5.317.966 14.542 14.542 0 0 1 3.999 1.758 12.593 12.593 0 0 1 3.691 4.307 11.291 11.291 0 0 1 1.407 5.361v51.152a11.396 11.396 0 0 1-1.055 5.273 6.452 6.452 0 0 1-3.867 2.989 21.463 21.463 0 0 1-3.823.836q-2.242.307-4.439.482v6.416h53.438v-6.416a27.278 27.278 0 0 1-4.131-.879 16.718 16.718 0 0 1-3.516-1.406 6.13 6.13 0 0 1-2.9-3.12 13.149 13.149 0 0 1-.88-5.142v-47.197q1.057-1.403 2.6-3.251a20.238 20.238 0 0 1 4.099-3.604 24.507 24.507 0 0 1 5.948-3.076 19.9 19.9 0 0 1 6.566-1.055q6.433 0 9.738 4.527 3.305 4.527 3.306 13.49v41.133a14.452 14.452 0 0 1-.791 5.45 5.589 5.589 0 0 1-2.637 2.812 11.08 11.08 0 0 1-3.604.879q-2.373.263-4.043.44v6.415h52.823v-6.416a25.287 25.287 0 0 1-4.702-.879 29.986 29.986 0 0 1-3.472-1.23zm114.278-5.182q-7.983-11.86-15.266-22.488-7.282-10.63-15.88-23.104 4.383-3.879 7.756-6.478 3.373-2.6 6.971-4.974a79.42 79.42 0 0 1 10.047-5.757 92.154 92.154 0 0 1 13.383-4.614v-6.065H699.27v6.24a41.543 41.543 0 0 1 8.352 1.846q2.774 1.055 2.775 2.637a14.74 14.74 0 0 1-.307 1.89q-.31 1.536-3.208 4.524-4.918 5.01-13.037 12.656-8.12 7.646-14.615 13.445V98.564l-1.32-1.406-43.767 2.285v6.416a43.472 43.472 0 0 1 6.064.879 15.788 15.788 0 0 1 5.01 1.758 9.794 9.794 0 0 1 3.735 4.702 15.91 15.91 0 0 1 1.275 6.02v97.998a11.746 11.746 0 0 1-1.018 5.273 6.301 6.301 0 0 1-3.85 2.989 24.22 24.22 0 0 1-3.893.836q-2.212.307-4.423.482v6.416h54.58v-6.416a26.308 26.308 0 0 1-4.219-.703 22.48 22.48 0 0 1-3.691-1.23 5.86 5.86 0 0 1-3.56-2.989 12.543 12.543 0 0 1-.923-5.185v-19.16l5.177-4.38q5.62 7.978 11.944 17.315 6.322 9.336 13.962 22.748h41.427v-6.416a33.13 33.13 0 0 1-8.076-1.758 13.301 13.301 0 0 1-6.757-5.533zm63.085 5.006a7.98 7.98 0 0 1-3.78-3.207 9.83 9.83 0 0 1-1.317-5.23v-69.785l-1.319-1.319-43.066 2.286v6.416a31.293 31.293 0 0 1 5.844 1.23 18.703 18.703 0 0 1 4.79 2.022 11.66 11.66 0 0 1 3.516 3.735 10.263 10.263 0 0 1 1.406 5.405v51.152a10.418 10.418 0 0 1-1.142 5.23 7.288 7.288 0 0 1-3.955 3.032 15.58 15.58 0 0 1-3.78.879q-2.198.263-4.482.44v6.415h55.547v-6.416a26.406 26.406 0 0 1-4.395-.879 29.342 29.342 0 0 1-3.867-1.406zm-21.885-95.097a17.436 17.436 0 0 0 12.173-4.702 14.864 14.864 0 0 0 5.142-11.382 15.062 15.062 0 0 0-5.098-11.426 18.153 18.153 0 0 0-24.477 0 15.217 15.217 0 0 0 0 22.808 17.545 17.545 0 0 0 12.26 4.702zm146.075 95.273a6.813 6.813 0 0 1-3.604-3.076 11.67 11.67 0 0 1-.967-5.186v-43.066q0-13.447-7.163-21.577-7.164-8.128-21.489-8.13a41.111 41.111 0 0 0-11.25 1.494 31.588 31.588 0 0 0-8.525 3.604 57.514 57.514 0 0 0-6.504 5.01q-3.517 3.077-5.977 5.273h-.351v-12.744l-1.319-1.319-41.924 2.286v6.416a28.23 28.23 0 0 1 5.318.966 14.542 14.542 0 0 1 3.999 1.758 12.593 12.593 0 0 1 3.691 4.307 11.29 11.29 0 0 1 1.406 5.361v51.152a11.396 11.396 0 0 1-1.054 5.273 6.452 6.452 0 0 1-3.867 2.989 21.463 21.463 0 0 1-3.824.836q-2.24.307-4.438.482v6.416h53.437v-6.416a27.279 27.279 0 0 1-4.13-.879 16.718 16.718 0 0 1-3.516-1.406 6.13 6.13 0 0 1-2.9-3.12 13.148 13.148 0 0 1-.88-5.142v-47.197q1.057-1.403 2.6-3.251a20.237 20.237 0 0 1 4.099-3.604 24.508 24.508 0 0 1 5.948-3.076 19.9 19.9 0 0 1 6.565-1.055q6.434 0 9.739 4.527 3.304 4.527 3.305 13.49v41.133a14.451 14.451 0 0 1-.79 5.45 5.589 5.589 0 0 1-2.637 2.812 11.08 11.08 0 0 1-3.604.879q-2.373.263-4.043.44v6.415h52.822v-6.416a25.287 25.287 0 0 1-4.702-.879 29.984 29.984 0 0 1-3.471-1.23zm90.54-36.517q-7.285-6.988-22.99-11.032a75.614 75.614 0 0 1-15.837-5.625q-5.66-2.985-5.659-9.668a9.126 9.126 0 0 1 3.867-7.822q3.866-2.812 10.635-2.812 8.612 0 16.084 6.635a36.343 36.343 0 0 1 10.547 15.776h6.152l-1.406-29.97h-6.68l-1.845 5.186a74.396 74.396 0 0 0-11.294-3.56 62.629 62.629 0 0 0-14.722-1.626q-16.875 0-27.29 7.647t-10.415 20.038a24.816 24.816 0 0 0 8.701 19.775 35 35 0 0 0 8.833 5.67 96.494 96.494 0 0 0 10.24 3.559q5.975 1.76 10.063 2.988a44.885 44.885 0 0 1 7.515 2.989 15.051 15.051 0 0 1 4.834 3.955 9.251 9.251 0 0 1 1.758 5.8q0 6.507-3.912 9.625-3.91 3.12-11.909 3.12a24.594 24.594 0 0 1-11.382-2.725 39.73 39.73 0 0 1-9.448-6.68 49.131 49.131 0 0 1-7.031-8.92 43.535 43.535 0 0 1-4.395-8.922h-6.416l1.143 32.784h6.855l2.637-5.977a54.444 54.444 0 0 0 12.612 5.318 56.239 56.239 0 0 0 16.656 2.504q18.193 0 29.487-7.91 11.293-7.91 11.294-22.324 0-10.81-7.282-17.797z"/><path d="M165.253 277.705l-.001.066a13.528 13.528 0 0 0 2.994-.574 13.819 13.819 0 0 1-2.993.508zm6.732-1.032l-.678-.076a10.342 10.342 0 0 0-1.101.151 3.558 3.558 0 0 1 1.397.011h.039c.811 7.085 3.619 14.256 3.265 22.02-1.114.374-2.058.731-3.001 1.036 1.075-.33 2.12-.735 3.383-1.16h-.029c.354-7.754-2.454-14.935-3.275-21.982z" class="cls-1"/><path fill="#d23933" d="M161.243 173.372a31.664 31.664 0 0 1 1.671-1.18c-.062.005-.127.016-.19.022l-.182.13a9.828 9.828 0 0 0-1.3 1.028zm-89.7-6.786c.315-4.106 2.664-6.197 6.006-7.81a25.525 25.525 0 0 1 4.618-1.78l-.01-.022a25.525 25.525 0 0 0-4.627 1.782c-3.342 1.614-5.73 3.705-6.007 7.811a14.52 14.52 0 0 0-.02 2.215l.016-.006a14.515 14.515 0 0 1 .024-2.19z"/><path d="M257.399 175.221L235.9 80.933l-.044-.172a20.085 20.085 0 0 0-9.62-12.074L201.343 56.69c.176-1.01.367-2.116.577-3.342 3.782-6.999 5.481-11.534 4.297-16.232s-6.521-13.646-13.673-18.143c-5.844-3.667-18.945-10.484-26.851-10.819-12.786 0-36.572 1.557-47.677 8.289-8.403 5.099-22.086 16.5-32.905 25.466a135.191 135.191 0 0 1-10.784 8.3l-38.13 18.357-.163.085a20.08 20.08 0 0 0-9.62 12.118L4.868 175.13l-.033.164a20.023 20.023 0 0 0 3.393 15.055l48.083 60.208c.185 2.56.353 5.128.527 7.716.305 4.841-.21 9.978 1.05 12.662s6.111 3.647 9.549 5.26c10.035 4.642 20.682 11.736 33.85 10.323 3.141 10.551 6.11 21.79 9.873 31.033 13.502 4.851 34.815 4.097 48.851 2.407 4.259-.516 8.766-2.617 9.769-6.322a37.54 37.54 0 0 1-.487-7.228c4.382-.907 10.36-1.661 11.324-6.512 1.356-6.818-4.306-16.577-2.415-24.044 2.04-.667 4.188-1.215 4.747-3.482a20.336 20.336 0 0 0 8.61-4.36 44.866 44.866 0 0 1 6.275-.16 11.458 11.458 0 0 0 2.578 3.39c7.591 1.528 14.953 1.652 21.255-.4 7.143-2.33 10.552-16.93 8.919-23.873a109.427 109.427 0 0 0-6.016-17.741c-.203-.433-.42-.839-.65-1.225l29.974-37.58.113-.151a20.072 20.072 0 0 0 3.392-15.049zM74.542 57.072c3.686-2.62 6.993-4.969 9.252-6.884 1.06-.9 2.051-1.725 2.989-2.495 4.853-3.986 8.225-6.428 11.836-9.18 1.455-1.11 2.95-2.27 4.597-3.603l1.011-.82c7.76-6.276 10.44-8.134 22.22-15.738 17.98-4.45 23.91-5.3 34.471-6.044h.039c13.626 2.33 20.672 5.09 28.846 9.845 7.047 4.087 9.826 7.963 12.213 16.156.372 4.173.162 7.085-3.342 13.445-.035.355-.099.707-.145 1.06a57.103 57.103 0 0 0-12.909-3.702c-.564-.1-1.14-.198-1.737-.29-3.611-.557-6.287-1.017-8.77-1.312.875-1.294 1.234-1.872 1.726-2.63a89.96 89.96 0 0 1 1.363-2.035c1.69-2.464 1.336-2.712 3.026-5.185a3.734 3.734 0 0 0 .707-3.314c-.888-2.864-.65-2.921-1.547-5.729s-1.346-2.712-2.234-5.557a3.82 3.82 0 0 0-2.14-2.645c-2.806-1.08-2.74-1.232-5.547-2.31l-5.567-2.197a5.699 5.699 0 0 0-3.686.22c-2.606 1.499-2.435 1.785-5.032 3.294s-2.73 1.28-5.328 2.778a4.259 4.259 0 0 0-1.862 3.056c-.435 2.924-.318 2.973-.743 5.844l-.011.076c-.241 1.617-.376 2.343-.519 3.154a82.634 82.634 0 0 0-.436 2.728 4.189 4.189 0 0 0 .869 2.913c.086.105-.143.477-.048.573 2.044 2.186 2.13 2.1 4.182 4.287 1.883 2.005 2.324 1.896 3.965 3.54a218.6 218.6 0 0 0-36.908 8.654C106.997 60.93 87.92 69.82 80.585 74.385A123.037 123.037 0 0 0 64.624 86.58q-.9.786-1.832 1.616-1.08.96-2.208 1.983-.705.639-1.433 1.305-.969.886-1.977 1.819l-.916.85a76.232 76.232 0 0 1-.146-.238l-.09-.147a80.878 80.878 0 0 1-.374-.62c-.455-.76-.999-1.689-1.666-2.856-8.422-6.684-1.336-9.195.64-17.187 5.342-5.662 13.26-11.298 19.92-16.033zm99.982-13.308l-1.67 2.442a2.325 2.325 0 0 1-1.508.869l-1.148.09a49.696 49.696 0 0 0-2.99.042c-2.216.096-4.779.335-8.017.747a2.04 2.04 0 0 1-1.128-.593l-7.841-8.34-.122-.13a.953.953 0 0 1-.124-.152 1.91 1.91 0 0 1-.392-1.5l.28-1.876.485-3.25.944-6.332a2.044 2.044 0 0 1 .955-1.442l10.103-5.863a2.216 2.216 0 0 1 .754-.257 2.072 2.072 0 0 1 1.022.152l10.885 4.192a1.996 1.996 0 0 1 1.194 1.27l3.466 11.058a1.995 1.995 0 0 1-.258 1.718zM58.71 95.47c-.02.065-.036.128-.063.194l-.277.195c.107-.124.221-.254.34-.389zm-45.402 91.186a13.78 13.78 0 0 1-2.298-10.214l21.464-94.025a13.841 13.841 0 0 1 6.534-8.234l13.065-6.292c-1.365 1.865-2.74 4.615-5.157 9.988-2.988 7.324-3.189 7.639 2.865 12.862 2.017 2.818 4.815 7.118 6.297 9.42-3.34 9.726-.102 21.923 4.493 28.66a21.064 21.064 0 0 0 14.075 9.043 29.84 29.84 0 0 0 2.922 10.933c.476 1.047 1.937 3.312 3.329 5.796a39.274 39.274 0 0 0-4.723 1.986c-3.963 1.91-7.076 3.982-7.783 8.594a12.713 12.713 0 0 0 .208 4.741 29.453 29.453 0 0 0-3.149 1.38c-6.073 1.28-4.774.325-14.036 1.595-4.774.315-12.566 6.808-11.459 14.323.745 5.07 4.641 12.728 6.293 17.808 1.786 5.48 4.345 10.503 5.815 16.233a131.5 131.5 0 0 1 3.223 17.96zm73.867-30.083a7.09 7.09 0 0 1 1.512.433c3.26 1.397 4.797 5.133 5.887 9.275a.876.876 0 0 0 .254.447c.322.282.844.17 1.398.078a9.449 9.449 0 0 0 1.67-.449l-.007-.022c.635-.22 1.276-.492 1.913-.777 1.06-.474 2.1-.987 3.032-1.388q4.42-1.89 8.947-3.523c.658-.238 2.194-.73 4.178-1.35l.045.048c1.065-.33 2.26-.7 3.524-1.088l-.051-.047c1.946-.597 4.046-1.237 6.07-1.851l.026.05c4.421-1.348 8.472-2.574 9.678-2.943 1.395-.42 2.77-.954 4.183-1.308h.003a10.117 10.117 0 0 0 2.415 1.484c.012.005.024.007.035.012-3.592 1.063-9.247 2.913-15.1 4.975a397.256 397.256 0 0 0-4.818 1.732c-1.24.455-2.465.911-3.657 1.365a99.23 99.23 0 0 0-12.308 5.357 47.731 47.731 0 0 0-3.06 1.832c-.455.293-.914.58-1.36.889-.453.314-.891.65-1.334.98l-.016.012c-.073.054-.146.105-.218.16-.108.082-.22.158-.328.24-.18.14-.358.281-.536.423-.183.144-.359.296-.54.443-.386.316-.778.623-1.154.95a6.045 6.045 0 0 0-1.112 1.447 7.4 7.4 0 0 0-.408.851l-.034.083a21.248 21.248 0 0 0-.784 2.723l-.116.473a18.046 18.046 0 0 1-2.254 5.853c-1.32 1.982-2.524 2.67-4.078 2.5a8.157 8.157 0 0 1-2.405-.695 30.972 30.972 0 0 1-8.118-5.47l.054-.02a31.17 31.17 0 0 1-1.883-1.905l-.06.019a30.983 30.983 0 0 1-2.512-3.175 15.541 15.541 0 0 1-.534-.84l-2.32.649a32.087 32.087 0 0 0 2.367 3.275 50 50 0 0 0 .723.85c-8.5 3.085-12.58 7.158-15.294 4.555-1.558-.78-3.697-1.663-5.686-2.439a177.137 177.137 0 0 0-3.7-1.392 10.817 10.817 0 0 1 5.91-.963 26.46 26.46 0 0 1 3.179-1.349c3.126-1.14 7.411-2.358 11.931-3.642.2.366.407.73.627 1.086l2.32-.65c-.201-.365-.381-.74-.55-1.118l.01-.003a14.702 14.702 0 0 1-1.19-4.712c-.006-.076-.017-.151-.022-.227l-.017.006a14.52 14.52 0 0 1 .021-2.215c.277-4.106 2.664-6.197 6.006-7.81a25.525 25.525 0 0 1 4.628-1.783l.01.022c.3-.084.598-.172.9-.245.35-.078.677-.127 1.004-.175.195-.029.387-.055.574-.074.024-.003.047-.003.071-.005.174-.016.343-.026.51-.034a8.75 8.75 0 0 1 1.952.116zm98.732 14.759l.28 1.401 1.362 6.837.048.241-3.507-1.846a33.87 33.87 0 0 0-.345-2.025c-1.354-6.613-4.6-11.52-10.08-8.867 1.548-2.263 4.47-3.36 6.35-6.15a16.45 16.45 0 0 0 2.21 1.513l1.433 3.462zm-.813-7.646c2.238.732 4.462 1.09 7.64 2.967 2.664.76 4.612 1.346 6.068 1.886a9.665 9.665 0 0 1 3.032 1.589l-.721-.119-10.088-1.656-4.69-1.289zM160.97 189.39c-.005-.162-.01-.324-.017-.483l-.027-.48a7.797 7.797 0 0 1 .174-2.895 3.836 3.836 0 0 1 .474-.28c1.38-.722 3.347-.8 5.228-.976.178-.017.357-.033.533-.052a10.848 10.848 0 0 0-6.923-.783 11.09 11.09 0 0 0-1.14-3.633l-.005-.015c.3-.132.594-.273.886-.42 3.05-1.54 5.724-3.863 8.702-5.533a21.78 21.78 0 0 1 1.101-.58c.168-.081.34-.155.511-.232.169-.075.338-.152.51-.222a13.63 13.63 0 0 1 2.89-.843c2.559.163 1.537-.143 3.189.564v-.039c1.021.592 1.791 2.378 2.355 4.53a46.6 46.6 0 0 1 1.254 8.743c.153 3.218-.286 6.474-1.604 8.183-.068 0-.136-.005-.205-.006a75.557 75.557 0 0 1-16.394-2.1c-.531-.129-1.063-.256-1.591-.396a10.363 10.363 0 0 0 .1-2.052zm-6.02-11.067c-6.034.305-9.329-.411-13.76-3.877.068-.191.516-.115.526-.458l.01-.039c6.393 2.838 14.508-1.093 20.999-1.734.062-.006.127-.017.19-.023-.58.374-1.127.777-1.672 1.181-2.157 1.6-4.12 3.38-6.293 4.95zm-2.13 12.457a5.408 5.408 0 0 1-2.243-.483 37.497 37.497 0 0 0-.435-2.094 13.46 13.46 0 0 1-.567-5.154 7.618 7.618 0 0 1 3.463-1.3c.062-.006.122-.022.184-.027 6.053.87 4.48 8.976-.402 9.058zm-39.721-6.022c.019.454.049.912.104 1.376a.867.867 0 0 0-.618.345c-.81.844-1.92 3.257-3.803 7.179-3.117-5.78-3.788-6.536-7.515-10.37l-.362-.372a95.548 95.548 0 0 0-2.036-3.056l-.887-1.283.058-.36c.101-.653.202-1.31.345-1.932a8.104 8.104 0 0 1 .343-1.152v-.143a11.085 11.085 0 0 1 1.957-1.27c.386-.246.82-.505 1.29-.771 4.156.91 9.086 1.502 12.107 2.032a17.566 17.566 0 0 1-.516 3.986 31.54 31.54 0 0 0-.468 4.084c-.018.44-.025.887-.014 1.343.003.12.01.243.015.364zm-6.866-13.986c4.148-1.964 9.519-4.184 15.009-6.334a26.5 26.5 0 0 0 7.268 4.66c-4.402-1.03-11.153-1.355-12.986 2.588-3.208-.212-6.345-.46-9.29-.914zm19.124-7.925q1.341-.512 2.664-1.01l.384.998a.955.955 0 0 0 .544.544l4.001 1.451a.955.955 0 0 0 .602 0 54.617 54.617 0 0 0 11.067-5.013l6.932-3.867h.048l3.628-2.356c.041-.002.083 0 .124-.002a8.83 8.83 0 0 0 4.689-1.491 14.503 14.503 0 0 1 1.766.058 1.039 1.039 0 0 1 .249.048l2.55.879a1.119 1.119 0 0 1 .295.162l6.035 5.051a.955.955 0 0 0 .506.21l1.29.124a.955.955 0 0 0 1.02-.84l.35-3.915a6.288 6.288 0 0 0 3.418.715 22.243 22.243 0 0 1-5.133 5.387c-9.32 6.54-23.48 12.48-35.616 8.412a47.764 47.764 0 0 1-11.413-5.545zm-5.193 11.341h-.038a7.906 7.906 0 0 1 1.248-.38l.21-.044c.132-.026.262-.063.395-.082l.922.083.243.022a59.573 59.573 0 0 1 15.745 5.73c2.54 1.384 4.001 3.103 7.85 3.399l-.058 1.537a6.26 6.26 0 0 1-.982.51c-2.082.888-4.858 1.022-6.838 2.02l.032.002a20.394 20.394 0 0 1 8.38 2.128l-.018.481a379.11 379.11 0 0 1-.135 3.338c-2.19 1.517-4.303 3.457-6.56 5.307a50.443 50.443 0 0 1-2.278 1.775 28.438 28.438 0 0 1-3.097 1.99c-.264.142-.61.313-1.015.5-.1.047-.211.096-.318.144-.65.295-1.421.62-2.26.951-3.04 1.2-6.877 2.417-8.4 2.062a1.462 1.462 0 0 1-.551-.27 3.45 3.45 0 0 1-.99-1.895c-.116-.408-.227-.838-.37-1.263-.06-.179-.126-.365-.195-.555-1.177-3.253-3.452-8.117-3.624-12.728-.172-3.475-1.165-12.528 2.702-14.762zm61.647-26.096l-.008.015c-.077.18-.162.354-.254.525a6.662 6.662 0 0 1-3.262 2.983 4.069 4.069 0 0 1-2.978-.32 2.177 2.177 0 0 1-1.29-2.296c.188-1.327-1.457-2.35-2.267-1.208a1.731 1.731 0 0 0-.149.253 4.099 4.099 0 0 1-.77 1.09 5.375 5.375 0 0 1-8.081-.909 1.903 1.903 0 0 0-.176-.165 2.035 2.035 0 0 0-2.244-.13h-.001a2.32 2.32 0 0 0-.444.381 4.972 4.972 0 0 1-.463.648c-2.388 2.854-7.64 2.679-9.468-.648-.436-.825-1.075-.864-1.512-.46a1.633 1.633 0 0 0-.474 1.071 2.259 2.259 0 0 1-.302.942 3.05 3.05 0 0 1-.499.647 4.733 4.733 0 0 1-1.896 1.108l-.054.019a3.867 3.867 0 0 1-1.784.149 4.999 4.999 0 0 1-1.075-.333l-.039-.017a9.487 9.487 0 0 1-3.115-2.367 19.08 19.08 0 0 1-.937-1.103.901.901 0 0 0-1.518-.116 1.737 1.737 0 0 0-.315.536 4.367 4.367 0 0 1-1.215 1.77l-.032.028a4.898 4.898 0 0 1-3.821 1.083 4.48 4.48 0 0 1-3.708-2.88 1.348 1.348 0 0 0-2.19-.626 1.273 1.273 0 0 0-.283.912 3.856 3.856 0 0 1-4.373 3.648 6.3 6.3 0 0 1-3.471-2.277 9.201 9.201 0 0 1-.404-.527c-.027-.037-.057-.072-.083-.109a9.345 9.345 0 0 1-.816-1.423 7.066 7.066 0 0 1 .42-5.165 17.082 17.082 0 0 1 5.567-7.181 22.516 22.516 0 0 1 8.88-3.58 74.479 74.479 0 0 1 9.549-1.06c2.415-.134 4.879.229 7.304.171s4.822.134 7.267.182 4.87-.077 7.276.114a31.733 31.733 0 0 1 8.164 1.795 20.425 20.425 0 0 1 7.265 4.02h.002c2.778 2.569 5.805 6.904 4.077 10.81zM65.717 267.17c-.92-.462-1.844-.917-2.778-1.354-.069-2.441-.193-4.91-.343-7.39q-.168-2.756-.403-5.534-.241-2.856-.552-5.723c-2.31-21.188-7.521-42.683-15.66-60.139.019-.174.045-.334.067-.502a15.444 15.444 0 0 1 .495-2.41c.802.114 1.598.26 2.39.427a37.3 37.3 0 0 1 10.105 3.711c.424.23.85.456 1.266.703 4.306-2.607 12.518-6.235 12.518-6.235l2.992-1.094c4.361 4.531 11.316 10.148 16.545 7.472 2.718-1.384 4.026-4.623 4.898-7.509a41.894 41.894 0 0 0 4.755 6.306c1.547 2.034 6.331 9.616 7.448 10.15 1.47.697 3.19-8.804 4.632-8.116.43 3.16.954 3.972 2.683 9.453 1.91 6.054 2.76 13.502 11.458 10.236a39.901 39.901 0 0 0 2.946-1.258q1.143-.538 2.274-1.139c.22-.117.439-.238.658-.357a1.703 1.703 0 0 0-.11 1.389 74.883 74.883 0 0 1 2.939 17.626c.137 1.916.25 3.836.364 5.755l.067 1.108c-14.414.804-30.706 2.305-42.954 3.905-.643.084-1.295.168-1.915.252a27.997 27.997 0 0 1-4.173-11.086 14.084 14.084 0 0 0-1.055-3.734c-.978-2.097-2.23-2.553-2.812-1.203-1.48 3.447-.812.334 3.867 15.278.955 3.19-1.71-3.686-4.726-4.774-1.184 3.724 1.098 3.6 2.864 6.015s-5.901-1.069-5.872 3.581c.242.039.505.071.784.099 4.132.408 12.09-.285 15.945 1.343q.202 2.363.433 4.699c.643 6.499 1.447 12.897 2.34 19.48q.212 1.562.43 3.14l.437 3.135c.349 2.49.704 5.006 1.068 7.588-15.128-.784-25.339-7.783-36.315-13.294zm95.36 45.639a82.742 82.742 0 0 1-21.37 2.128 96.282 96.282 0 0 1-25.415-3.965 291.458 291.458 0 0 1-9.64-38.096q-.288-1.561-.562-3.135-.273-1.562-.532-3.14c-1.308-7.898-2.394-16.054-3.331-24.685 13.559-2.444 27.29-4.154 41.06-4.049 4.412.175 8.844.298 13.222.873a53.1 53.1 0 0 1 4.748.827c.09.582.17 1.164.246 1.745 1.116 8.507.878 16.921 1.549 25.289q.126 1.57.302 3.14c.021.188.039.376.06.563q.147 1.277.262 2.575c1.155 12.868.296 27.146 2.766 39.01-1.09.338-2.219.638-3.365.92zm-16.06-82.298a6.78 6.78 0 0 1-.17-1.256 3.298 3.298 0 0 1 .12-1.104 2.931 2.931 0 0 1 2.975-2.048 7.793 7.793 0 0 1 1.35.222 1.987 1.987 0 0 1 1.649 1.652 4.372 4.372 0 0 1 .075.991c-.067 2.044-.391 2.865-2.864 3.084-2.069.248-2.836-.362-3.135-1.541zm30.272 68.143c-1.262.426-2.308.83-3.383 1.161a17.919 17.919 0 0 1-5.698.806c-.295-6.566-1.177-16.6-.956-22.85l.001-.067a13.819 13.819 0 0 0 2.993-.508c.508-.127 1.016-.258 1.528-.367l.026-.006c.135-.028.27-.05.406-.075a10.342 10.342 0 0 1 1.101-.151l.678.076c.821 7.047 3.629 14.228 3.275 21.981zm-10.561-26.425c-.063-.83-.123-1.659-.184-2.488q-.115-1.572-.223-3.14c-.416-6.048-.74-12.062-.87-18.084a246.599 246.599 0 0 1-.04-8.75 26.065 26.065 0 0 1 8.536-.954 57.223 57.223 0 0 1 1.385 6.748c1.002 6.67 1.256 14.036 1.898 21.04q.145 1.585.323 3.14c.024.21.045.422.07.63-3.905.81-6.738 1.278-10.895 1.858zm2.263-39.308h.029c-1.68.988-3.698.628-6.633.124-.435-.074-.893-.15-1.37-.228-.154-.025-.303-.05-.461-.074l-.461-.068a43.59 43.59 0 0 0-6.98-.5 4.204 4.204 0 0 0 1.019-2.92 3.977 3.977 0 0 0-.396-1.762 4.245 4.245 0 0 0-1.434-1.751 3.136 3.136 0 0 0-2.295-.508c-2.432.362-3.97 1.497-4.303 3.361a4.494 4.494 0 0 0-.07.793v.097a4.448 4.448 0 0 0 1.238 2.9q-1.815.072-3.696.162l-.057-.882-.142-2.266c-.47-7.484-1-14.969-3.293-22.164a1.838 1.838 0 0 0-1.897-1.317 84.19 84.19 0 0 0 7.121-4.698c.818-.6 1.552-1.16 2.184-1.659a25.472 25.472 0 0 0 2.418-2.075c.983-1.117 1.413-1.68 2.148-2.492a4.484 4.484 0 0 0 3.662-.12c.144-.06.287-.122.428-.187l.111-.05.316-.152a6.252 6.252 0 0 1 3.275-.99c2.865.305 7.248 2.864 13.53 3.38s9.712.792 11.383-1.643c1.716-3.238 2.434-9.18 1.992-14.836l5.513 1.802-.239-3.58-1.456-5.812-.578-2.305-.302-.823 5.917 1.54 9.895 1.345c.049.243.093.497.131.774a7.494 7.494 0 0 1-.233 2.017c-.8 3.902-3.288 11.545-3.644 13.328-1.91 9.663-6.35 22.43-10.503 32.552-1.528 3.685-2.98 8.288-4.985 9.08-5.528 2.082-12.203-.305-16.882 2.607zm15.652 33.03c-.142.001-.273.015-.422.009a120.231 120.231 0 0 0-.58-5.402c-.966-7.63-2.506-15.397-3.239-22.567 2.54-.133.955-.057 4.65-.21l1.538.191c2.958 5.117 4.165 12.796 4.52 19.771a98.513 98.513 0 0 1 .11 6.43h.03c-2.333.446-3.894 1.754-6.607 1.778zm42.423-15.594a15.691 15.691 0 0 1-3.219 13.752 10.272 10.272 0 0 1-5.183 3.187h.028c-4.526 1.099-11.458 1.385-14.428-.047 2.896-1.578 6.94-1.91 10.593-2.671a25.642 25.642 0 0 0 2.68-.68c-5.385-2.317-13.07-.607-19.809-.55a32.621 32.621 0 0 1-2.325-.052q-.09-.916-.176-1.841c-.14-1.494-.279-3-.422-4.507-.66-6.958-1.424-13.894-3.04-19.29a10.694 10.694 0 0 1 1.844-1.535c4.85-3.255 13.28-4.487 18.342-7.728 1.098-.592.43-.296 2.072-.735a8.344 8.344 0 0 1 7.582 4.201 9.5 9.5 0 0 1 .514.906 42.661 42.661 0 0 1 2.625 7.677c.937 3.535 1.742 7.298 2.323 9.913zm23.857-63.776l-29.56 37.067c-8.047-4.09-20.9 1.767-28.529 5.578 4.68-12.318 8.709-25.094 12.843-38.911a101.388 101.388 0 0 0 4.65-21.15c-3.656-4.775-6.521-4.775-11.143-5.787-5.531-2.293-9.396-3.253-11.586-4.297a3.445 3.445 0 0 1-2.02-1.819 1.97 1.97 0 0 1-.077-.234c-.496-2.444 5.73-10.914 7.047-13.588a76.6 76.6 0 0 0 4.058-11.687c4.043-17.069 6.379-34.569 4.244-51.754-.494.285-1.013.554-1.557.814-.181.086-.36.173-.547.257-.178.079-.365.155-.549.232a29.99 29.99 0 0 1-1.427.56c.287 3.44.384 7.107.571 10.789.93 17.932-2.646 36.368-10.464 50.583a12.182 12.182 0 0 0-1.424-4.024 19.699 19.699 0 0 0-5.462-5.452 24.636 24.636 0 0 0-6.836-3.342 34.91 34.91 0 0 0-7.725-1.432c-2.617-.287-5.204-1.022-7.878-1.022s-5.328.754-7.916.754c-2.769.029-5.634-.725-8.498-.582a62.469 62.469 0 0 0-8.441 1.127 32.16 32.16 0 0 0-7.907 2.998c-3.628 1.719-6.006 4.87-7.839 8.403-1.356 2.607-1.967 5.185-.802 7.973.057.048.038.086.057.153s-.134.2-.134.267c1.262 2.678 3.6 5.072 6.605 5.453-1.325.414-2.592.814-3.767 1.19-4.436-4.622-8.187-9.944-12.262-15.6.228 6.38 4.543 11.723 8.987 16.663-1.13.373-2.07.693-2.742.936-2.74.993-5.233 2.606-7.916 3.752-1.384.58-3.051 1.493-4.658 2.215-.413.186-.822.36-1.221.511.05-.07.23-.266.188-.472-1.28-4.335-3.82-8.594-8.594-9.778a10.503 10.503 0 0 0-2.885-.289 78.493 78.493 0 0 1-4.381-12.64 24.828 24.828 0 0 1-.812-5.433c.562-3.062 5.897-4.45 4.044-8.617-.037-.083-.058-.16-.1-.244-4.04 0-4.947 3.676-8.652 4.039-4.027.4-7.553-1.78-10.261-5.05-3.744-4.52-5.92-11.128-5.666-15.91.363-7.018 6.293-13.73 14.4-12.843 4.6.506 6.736 4.64 7.993 9.111.308 1.097.566 2.213.791 3.303 3.304.171 8.079-.144 9.645-2.722-.164-4.485-1.691-8.335-2.485-12.269a20.68 20.68 0 0 1-.466-4.842c.036-.657.09-1.312.155-1.966l-.442-.036-.56-.046-.357-.03-.132-.01-1.472-.125a624.487 624.487 0 0 1-3.266-.29l-.814-.075-.812-.075c-1.017-.096-1.6-.154-1.6-.154s.413-.283 1.133-.766c-3.935 1.743-2.424.535-8.467 4.948a39.507 39.507 0 0 0-7.557 1.371c-.215.06-.432.112-.645.176a24.099 24.099 0 0 0-3.299 1.376l-.023.011c-.073.001-.144.004-.218.003h-.04a5.733 5.733 0 0 1-1.109-.127c.305-.322.634-.66.976-1.009l.036-.037.196-.2.024-.025a91.84 91.84 0 0 1 18.563-14.678c12.012-7.544 27.72-13.636 40.104-17.97 11.12-3.893 26.26-6.848 35.579-8.228 1.06-.157 2.065-.3 2.96-.414 2.81-.362 5.202-.627 7.533-.76a55.932 55.932 0 0 1 7.678.088c2.735.21 5.813.613 9.663 1.264.106.017.2.036.304.054 8.365 1.434 12.543 3.034 14.11 3.748q-.296 1.371-.701 2.714c-.124.409-.25.817-.39 1.222.36.169 1.036.522 1.843 1.008a27.094 27.094 0 0 1 1.152.734q.258.173.52.36a14.065 14.065 0 0 1 3.513 3.36l19.27 9.286a13.84 13.84 0 0 1 6.533 8.2l21.425 93.943a13.828 13.828 0 0 1-2.3 10.217zM87.603 94.837c.822 3.572 3.667 9.12-.868 9.244.062-5.565-3.69-10.009-8.648-11.918a69.344 69.344 0 0 1 8.753-4.382l.19-.04c-.156 3.45-.065 3.208.573 7.096z" class="cls-3"/><path fill="#f0d6b7" d="M102.92 164.19q4.411-1.91 8.947-3.524c.653-.228 2.173-.71 4.137-1.32l-.045-.048c-1.984.619-3.52 1.11-4.178 1.35q-4.526 1.632-8.947 3.523c-.932.4-1.972.913-3.032 1.387l.034.042c1.078-.48 2.137-1.003 3.084-1.41zm-35.359-60.78a5.439 5.439 0 0 1 .966-.67 3.803 3.803 0 0 0-.966.67zm57.985 52.949c-2.023.614-4.123 1.254-6.069 1.851l.05.047c1.937-.595 4.029-1.234 6.046-1.849z"/><path d="M90.012 87.553c-.065.654-.119 1.31-.155 1.966a20.68 20.68 0 0 0 .466 4.842l-.19-6.798z"/><path fill="#f6e3cd" d="M87.175 156.573l.003.006a7.069 7.069 0 0 1 1.509.427 7.09 7.09 0 0 0-1.512-.433zm9.07 10.252a9.454 9.454 0 0 0 1.671-.449c.636-.217 1.28-.49 1.92-.776l-.034-.042c-.637.285-1.278.557-1.913.777l.008.022a9.449 9.449 0 0 1-1.671.449c-.554.092-1.076.205-1.398-.078.32.305.851.191 1.417.097zm55.407-47.428l-.007.018.006-.008z"/><path fill="#fff" d="M98.04 178.216c-.02.12-.04.24-.058.36l.887 1.283.277.096z"/><path fill="#ee3e3b" d="M122.64 205.39q-.447-.874-.99-1.895a3.45 3.45 0 0 0 .99 1.894z"/><path d="M208.562 237.19a14.429 14.429 0 0 1 3.29-1.118q-1.295.039-2.519.152c-6.2.563-11.053 2.568-13.972 6.685 4.866.31 8.648-3.588 13.201-5.719zm-1.654 7.11a19.382 19.382 0 0 0-4.157.177 5.992 5.992 0 0 0-4.201 2.185c.776.06 1.576.084 2.385.093a56.556 56.556 0 0 0 4.11-.118 108.5 108.5 0 0 0 4.302-.364c1.79-.184 3.549-.39 5.206-.566a28.018 28.018 0 0 0-3.974-.98 31.35 31.35 0 0 0-3.671-.427zm-6.387 8.009a5.068 5.068 0 0 0-2.23 1.266c.372.031.767.057 1.153.085 1.223.088 2.505.162 3.836.22 4.312.188 9.013.225 13.02.144a32.745 32.745 0 0 0-11.347-2.243 14.666 14.666 0 0 0-4.432.528z" class="cls-3"/><path d="M107.86 88.637l-.075-.002.023.082.052-.08z"/><path d="M68.527 102.74a5.439 5.439 0 0 0-.966.67 7.925 7.925 0 0 0-2.473 5.149 5.14 5.14 0 0 0 .818-.713c.999-1.015 2.044-2.325 3.899-1.416-2.072 4.039-1.624 11.916 1.241 14.466-.02-4.794-.764-12.996 3.333-12.748 2.855.172 3.437 6.302 5.882 7.697 1.414-6.826-2.412-11.866-6.593-13.324a6.394 6.394 0 0 0-5.14.218zm77.619 106.243c-2.759.41-4.373 1.823-4.373 4.163l.002.106a4.268 4.268 0 0 0 4.372 4.162l.09-.003a4.22 4.22 0 0 0 4.035-4.399c.076-1.556-1.375-4.44-4.126-4.03zm.096 6.836c-2.674.306-3.151-.83-3.304-2.816-.134-1.977 1.251-3.094 3.094-3.142 2.282.2 3.141.812 3.075 2.865s-.392 2.864-2.865 3.093zm39.159-130.95l-.028-.039a20.039 20.039 0 0 0 .022 2.668 21.487 21.487 0 0 0 1.461 6.186c.598 1.578 1.277 3.08 1.859 4.677-2.607 1.652-7.687.62-10.628 1.91-.21 8.66 13.397 4.344 15.469-.43-3.065-4.469-5.185-9.883-7.64-14.972z" class="cls-3"/><path d="M204.308 65.447a6.417 6.417 0 0 0-.313-.512 14.065 14.065 0 0 0-3.513-3.36q-.262-.187-.52-.36a26.356 26.356 0 0 0-1.152-.734 22.108 22.108 0 0 0-1.843-1.008 4.322 4.322 0 0 0-.203-.09 41.254 41.254 0 0 0-10.438-2.963h-.005a43.3 43.3 0 0 0-.72-.095c-.23-.028-.47-.053-.71-.079a51.179 51.179 0 0 0-3.278-.247 86.85 86.85 0 0 0-4.28-.101c-.207 0-.408.004-.614.004-2.844.005-5.634.055-8.386.157-2.217.082-4.413.197-6.585.361q-2.077.157-4.131.377c-3.325.35-6.614.812-9.885 1.44-8.95 2.127-15.815 3.998-21.38 5.746-1.49.467-2.887.926-4.204 1.379a123.165 123.165 0 0 0-8.066 3.071q-.855.362-1.671.724a128.786 128.786 0 0 0-5.487 2.594 243.6 243.6 0 0 0-2.162 1.096c-.938.343-1.967.783-3.047 1.286A121.7 121.7 0 0 0 90.55 80.28l-.166.101-.231.142-.226.138-.572.352-.05.031a256.963 256.963 0 0 0-7.615 4.901c-.72.483-1.134.765-1.134.765a329.94 329.94 0 0 0 2.413.23l.814.075c.933.085 2.033.184 3.266.29l1.471.124.132.011.358.03.56.046.442.036.12.01c5.329.43 11.998.898 17.653 1.072l.075.002c2.306.07 4.443.093 6.241.041 4.717-.133 11.896.079 19.523.26 1.438.034 2.893.066 4.35.096-.055-.333-.093-.66-.119-.982a7.33 7.33 0 0 1 .309-3.03v-.02a40.556 40.556 0 0 1 1.863 4.07 206.381 206.381 0 0 0 20.93-.394c12.48-1.193 17.474-2.616 26.64-4.774a64.606 64.606 0 0 0 7.173-2.041c.501-.182.972-.37 1.427-.56.184-.078.371-.154.549-.234.187-.083.366-.17.547-.257a22.133 22.133 0 0 0 1.556-.813 25.433 25.433 0 0 0 5.459-4.374c2.55-5.013 2.55-6.598 0-10.178zm-79.512 20.128c-4.144 0-6.99-.315-12.137-.62l-2.452-.149-1.603-.097-5.459-.33-8.628-.523a68.097 68.097 0 0 1 5.518-3.566c1.099-.64 2.21-1.26 3.343-1.838a51.607 51.607 0 0 1 9.033-3.86c.093-.029.184-.064.277-.093l1.243.893 2.039 1.464 5.227 3.756 7.36 5.288s.44.143-3.761-.325zm7.228.344l-6.964-6.113-4.45-3.905-3.74-3.283 5.347-1.805 4.01 3.947 4.025 3.963 7.31 7.196z" class="cls-8"/><path d="M143.377 101.254c-3.198 3.104-8.937.525-13.215.325-4.058 6.445 7.964 7.658 13.13 6.13 1.413-.42 3.867-2.54 4.2-3.495 1.433-4.03-1.46-5.796-2.95-7.247-2.258-2.2-3.325-4.987-4.515-7.895a40.556 40.556 0 0 0-1.863-4.07v.02a7.33 7.33 0 0 0-.309 3.03c.026.322.064.649.118.982a29.532 29.532 0 0 0 3.293 8.602 65.392 65.392 0 0 0 2.111 3.618zm28.188 12.576a14.67 14.67 0 0 1-1.184-1.089c-3.772-4.125-8.699-9.997-10.656-14.6a2.802 2.802 0 0 1-.105-.458c-.172-.821-.41-1.91-1.203-2.254a1.356 1.356 0 0 0-1.328.277l-.19.144v.229c-.182 6.684 4.497 12.327 8.25 16.834l.677.802c.316.392.64.745.955 1.089 1.538 1.661 2.56 2.778 1.127 5.3-.83.324-1.776.782-2.769 1.26-3.094 1.499-6.951 3.36-10.294 2.788-1.26-.22-1.546-1.127-1.91-2.616a6.683 6.683 0 0 0-.62-1.91l-.363-.62-.301.4-.006.01-.123.162a6.083 6.083 0 0 0 .783 7.83l.115.096h.153a23.021 23.021 0 0 0 2.397.124c7.257 0 12.49-3.37 16.786-6.121l.258-.172-.048-.305a4.773 4.773 0 0 1 .459-1.843 6.379 6.379 0 0 0 .63-3.648c-.134-.544-.735-1.06-1.49-1.71zm-72.541 61.598l-.134.067c-.363.392-.038.163.134-.067zm-15.03-7.362a20.13 20.13 0 0 1-5.185 1.29c-.267.024-.565.056-.876.08a4.647 4.647 0 0 1-2.619-.338 1.433 1.433 0 0 0-1.442 2.473 6.836 6.836 0 0 0 3.318.848 21.186 21.186 0 0 0 7.568-1.583 1.441 1.441 0 0 0 .945-1.204c.122-.951-.584-1.99-1.709-1.566zm-.937-9.073c-.786.18-1.52.4-2.1.585-2.406.706-7.38 2.253-7.686 5.156-.115 1.031.172 1.91 1.213 2.206l.056.001a11.45 11.45 0 0 0 1.685.003c.33-.021.662-.04.99-.09a16.812 16.812 0 0 0 3.723-.363 29.13 29.13 0 0 0 6.571-2.267l.056-.025a2.549 2.549 0 0 0 1.317-1.062c.014-.023.024-.048.038-.072a2.543 2.543 0 0 0 .307-1.492c-.134-2.087-1.482-2.806-3.122-2.906-.035-.002-.069-.008-.104-.01a7.513 7.513 0 0 0-.595 0 9.676 9.676 0 0 0-.583.04 14.05 14.05 0 0 0-1.766.296z" class="cls-3"/><path d="M175.26 34.196h-.183a4.707 4.707 0 0 0-.639 0 6.585 6.585 0 0 1-1.128-.095.545.545 0 0 1-.245-.215l-.026-.04-.22-.048a8.499 8.499 0 0 0-1.775-5.632l.191-.198-.007-.054a.417.417 0 0 1 .051-.275 5.982 5.982 0 0 1 .938-.732 5.688 5.688 0 0 0 .523-.375l.13-.12a.762.762 0 0 0-.983-1.165.49.49 0 0 0-.044.042l-.14.13a4.596 4.596 0 0 0-.398.493 6.51 6.51 0 0 1-.775.82.588.588 0 0 1-.33.064l-.047-.005-.191.168a8.587 8.587 0 0 0-5.465-2.137v-.24l-.055-.033a.41.41 0 0 1-.185-.23 5.803 5.803 0 0 1 .001-1.164v-.612a1.395 1.395 0 0 0 0-.192.794.794 0 0 0-.81-.777h-.013l-.2.025.055.07a.796.796 0 0 0-.507.827v.178a4.18 4.18 0 0 0 .137.621 6.467 6.467 0 0 1 .158 1.13.627.627 0 0 1-.15.287l-.03.032v.226a8.386 8.386 0 0 0-5.1 2.958l-.211-.122-.05.019a.447.447 0 0 1-.294.01 6.58 6.58 0 0 1-.93-.697 4.04 4.04 0 0 0-.477-.437l-.153-.105a.872.872 0 0 0-.525-.153.737.737 0 0 0-.59.32.81.81 0 0 0 .263 1.107l.15.1a5.069 5.069 0 0 0 .57.28 6.323 6.323 0 0 1 .982.582.706.706 0 0 1 .131.302l.008.042.177.139a8.438 8.438 0 0 0-.91 5.491c.019.114.032.227.056.34l-.218.086-.02.038a.739.739 0 0 1-.202.246 5.965 5.965 0 0 1-1.102.275 4.488 4.488 0 0 0-.61.095h-.172l-.03.004a.806.806 0 0 0-.562.98c.01.023.028.04.04.062a.794.794 0 0 0 .884.426.743.743 0 0 0 .08-.01l.18-.05a2.784 2.784 0 0 0 .339-.157c.074-.039.148-.078.236-.117a5.627 5.627 0 0 1 1.052-.407.556.556 0 0 1 .322.08l.04.023.227-.056a8.654 8.654 0 0 0 4.026 4.29l-.08.25.023.043a.59.59 0 0 1 .072.288 7.09 7.09 0 0 1-.488 1.048 5.07 5.07 0 0 0-.313.557l-.011.049a.565.565 0 0 1-.068.137.765.765 0 0 0-.044.213.796.796 0 0 0 .464.834.77.77 0 0 0 .258.045.78.78 0 0 0 .57-.257.757.757 0 0 0 .166-.263.262.262 0 0 0 .014-.058.284.284 0 0 1 .025-.053.36.36 0 0 0 .038-.089 5.537 5.537 0 0 0 .146-.622 4.561 4.561 0 0 1 .392-1.158.442.442 0 0 1 .203-.11l.052-.013.107-.238a8.57 8.57 0 0 0 4.86-.028 8.385 8.385 0 0 0 1.006-.385l.139.204.053.004a.401.401 0 0 1 .259.12 5.85 5.85 0 0 1 .517 1.035c.032.075.058.147.085.219a3.073 3.073 0 0 0 .162.38s.063.098.088.148a.761.761 0 1 0 1.386-.631.704.704 0 0 0-.07-.122l-.1-.168a5.32 5.32 0 0 0-.388-.506 5.926 5.926 0 0 1-.28-.365 5.977 5.977 0 0 1-.361-.558.43.43 0 0 1 0-.31l.017-.046-.02-.043-.08-.165a8.53 8.53 0 0 0 3.304-4.907h.235l.033-.033a.448.448 0 0 1 .261-.13 6.076 6.076 0 0 1 1.138.244c.084.023.16.05.235.075a2.78 2.78 0 0 0 .397.11l.14-.001a.779.779 0 0 0 .922-.607l.004-.028a.798.798 0 0 0-.713-.867zm-6.726-5.95l-2.511 2.09a.473.473 0 0 1-.64-.039.425.425 0 0 1-.114-.263l-.45-3.235a6.724 6.724 0 0 1 3.715 1.447zm-4.678 4.231l.932-.077.633.676-.137.924-.804.47-.855-.342-.281-.854zm-5.409-1.979l2.606 1.99a.46.46 0 0 1 .107.63.488.488 0 0 1-.224.178l-3.053 1.146a6.618 6.618 0 0 1 .564-3.944zm3.711 5.552l-.493 1.516-.515 1.582a6.704 6.704 0 0 1-2.727-2.921l.305-.076 2.83-.71h.133a.455.455 0 0 1 .467.325.45.45 0 0 1 0 .284zm.44-5.358a.412.412 0 0 1-.275-.07l-2.816-1.688a6.568 6.568 0 0 1 2.935-1.862 4.136 4.136 0 0 1 .515-.128l.064 3.272a.46.46 0 0 1-.423.476zm3.787 9c-.068.021-.138.03-.207.05a6.567 6.567 0 0 1-3.26.076l.613-1.352.736-1.627a.442.442 0 0 1 .357-.252l.018-.003a.417.417 0 0 1 .202-.002.424.424 0 0 1 .22.176l1.831 2.746zm2.106-1.086l-1.486-2.937a.45.45 0 0 1 .176-.605.508.508 0 0 1 .172-.062l.094-.016v-.003l3.296.294a6.607 6.607 0 0 1-2.252 3.329zm-.734-5.84a.46.46 0 0 1-.368-.525.432.432 0 0 1 .122-.252l2.284-2.386a6.83 6.83 0 0 1 .87 1.836 6.685 6.685 0 0 1 .303 1.988z" class="cls-8"/><path fill="#fff100" d="M177.734 137.281l-.002-.001.002.001zm4.077 10.809l-.008.016zm-21.953.249a4.993 4.993 0 0 1-.434.619 4.972 4.972 0 0 0 .463-.648 1.893 1.893 0 0 1 .192-.189c-.018.016-.038.026-.055.042a1.904 1.904 0 0 0-.166.176zm-36.522 3.431a3.799 3.799 0 0 1-2.18.558q-.186-.009-.37-.036a6.28 6.28 0 0 1-3.443-2.248 6.3 6.3 0 0 0 3.47 2.277 3.82 3.82 0 0 0 4.374-3.648 1.273 1.273 0 0 1 .284-.912 1.25 1.25 0 0 0-.313.94 3.814 3.814 0 0 1-1.822 3.07zm11.878-1.612l-.025.026.032-.028a4.367 4.367 0 0 0 1.215-1.77 1.737 1.737 0 0 1 .315-.536 1.707 1.707 0 0 0-.344.565 4.353 4.353 0 0 1-1.193 1.743zm12.446-.305a2.991 2.991 0 0 1-.49.657 3.05 3.05 0 0 0 .498-.647 2.259 2.259 0 0 0 .302-.942 1.633 1.633 0 0 1 .475-1.07 1.522 1.522 0 0 0-.503 1.099 2.246 2.246 0 0 1-.283.903zm23.174-.72a4.099 4.099 0 0 0 .77-1.09 1.731 1.731 0 0 1 .148-.253 1.618 1.618 0 0 0-.177.281 4.114 4.114 0 0 1-.741 1.062z"/></svg>