<?xml version="1.0" encoding="utf-8"?>
<!-- Generator: Adobe Illustrator 23.0.3, SVG Export Plug-In . SVG Version: 6.00 Build 0)  -->
<svg version="1.1" id="Layer_1" xmlns="http://www.w3.org/2000/svg" xmlns:xlink="http://www.w3.org/1999/xlink" x="0px" y="0px"
	 viewBox="0 0 994.2 203.9" style="enable-background:new 0 0 994.2 203.9;" xml:space="preserve">
<style type="text/css">
	.st0{fill-rule:evenodd;clip-rule:evenodd;fill:#FFFFFF;}
</style>
<g>
	<path class="st0" d="M373.1,120.1c0,4-3.3,7.3-7.3,7.3h-36.5c-4,0-7.3-3.3-7.3-7.3v-14.9h-14.2v14.9c0,11.8,9.6,21.3,21.4,21.3
		h36.5c11.8,0,21.4-9.5,21.4-21.3v-58h-14.2V120.1z"/>
	<path class="st0" d="M398.8,83.6v36.5c0,11.8,9.5,21.4,21.3,21.4h58v-14.2h-58c-4,0-7.3-3.3-7.3-7.3v-15h51.1V90.9h-51.1v-7.4
		c0-4,3.3-7.3,7.3-7.3h58V62.1h-58C408.3,62.1,398.8,71.8,398.8,83.6z"/>
	<polygon class="st0" points="554.7,112.7 503.6,73.3 489.5,62.5 489.5,141.7 503.6,141.7 503.6,91.4 554.7,130.8 568.9,141.7 
		568.9,62.2 554.7,62.1 	"/>
	<polygon class="st0" points="638.7,62.1 616.5,82.4 606,92.1 594.3,102.7 594.3,62.1 580.1,62.1 580.1,141.5 594.3,141.5 
		594.3,121.9 614.4,103.6 641.8,141.5 659.3,141.5 624.9,94 659.7,62.1 	"/>
	<rect x="671" y="62.1" class="st0" width="14.2" height="79.4"/>
	<polygon class="st0" points="761.8,112.7 710.7,73.3 696.5,62.5 696.5,141.7 710.7,141.7 710.7,91.4 761.8,130.8 776,141.7 
		776,62.2 761.8,62.1 	"/>
	<path class="st0" d="M841,62.1h-32.2c-11.8,0-21.3,9.6-21.3,21.4V84c0,4.5,1.4,8.7,3.7,12.1c0.8,1.2,1.7,2.4,2.7,3.4
		c3.9,3.7,9.1,6,14.9,6h28.6c6,0,11,4.9,11,10.9c0,6-5,10.9-11,10.9h-24.8c-6,0-10.9-4.9-10.9-10.9h-14.2
		c0,13.8,11.2,25.1,25.1,25.1h24.8c13.8,0,25.1-11.2,25.1-25.1c0-6-2.2-11.6-5.7-15.9c-0.3-0.3-0.6-0.7-0.9-1
		c-4.5-5-11.1-8.2-18.5-8.2h-28.6c-4,0-7.3-3.3-7.3-7.3v-0.5c0-4,3.3-7.3,7.3-7.3H841c4,0,7.3,3.3,7.3,7.3v0.5l14.2-0.1v-0.5
		C862.4,71.8,852.8,62.1,841,62.1z"/>
	<polygon class="st0" points="870.9,141.9 871.2,141.7 870.9,141.7 	"/>
	<polygon class="st0" points="955.7,102 981.7,68.4 994.2,52.2 973.7,52.2 973.5,52.2 955.7,52.2 950.7,52.2 947.7,56.1 933.9,74 
		920.1,56.1 917.1,52.2 912.1,52.2 894.2,52.2 873.7,52.2 886.2,68.4 912.2,102.1 886.4,135.5 874,151.7 894.4,151.7 912.3,151.7 
		917.3,151.7 920.3,147.8 934,130.1 947.7,147.8 950.7,151.7 955.7,151.7 973.6,151.7 994.1,151.7 981.6,135.5 	"/>
	<path class="st0" d="M98.2,115.3c8.7,0,15.7-7,15.7-15.7c0-8.7-7-15.7-15.7-15.7c-8.7,0-15.7,7-15.7,15.7
		C82.5,108.3,89.5,115.3,98.2,115.3z"/>
	<path class="st0" d="M98.2,123c6.5,0,12.3-2.6,16.6-6.8c4.2-4.2,6.9-10.1,6.9-16.6c0-6.5-2.6-12.3-6.9-16.6
		c-4.2-4.2-10.1-6.8-16.6-6.8c-6.5,0-12.3,2.6-16.5,6.8c-4.2,4.2-6.9,10.1-6.9,16.6c0,6.5,2.6,12.3,6.9,16.6
		C85.9,120.4,91.7,123,98.2,123z M83.8,85.2c3.7-3.7,8.8-6,14.4-6c5.6,0,10.7,2.3,14.4,6c3.7,3.7,6,8.8,6,14.4
		c0,5.6-2.3,10.7-6,14.4c-3.7,3.7-8.8,6-14.4,6c-5.6,0-10.7-2.3-14.4-6c-3.7-3.7-6-8.8-6-14.4C77.8,94,80.1,88.9,83.8,85.2z"/>
	<path class="st0" d="M186.8,83.9c-8.7,0-15.7,7-15.7,15.7c0,8.7,7,15.7,15.7,15.7c8.7,0,15.7-7,15.7-15.7
		C202.5,91,195.5,83.9,186.8,83.9z"/>
	<path class="st0" d="M186.8,76.2c-6.5,0-12.3,2.6-16.6,6.8c-4.2,4.2-6.9,10.1-6.9,16.6c0,6.5,2.6,12.3,6.9,16.6
		c4.2,4.2,10.1,6.8,16.6,6.8c6.5,0,12.3-2.6,16.5-6.8c4.2-4.2,6.9-10.1,6.9-16.6c0-6.5-2.6-12.3-6.9-16.6
		C199.1,78.8,193.3,76.2,186.8,76.2z M201.2,114c-3.7,3.7-8.8,6-14.4,6c-5.6,0-10.7-2.3-14.4-6c-3.7-3.7-6-8.8-6-14.4
		c0-5.6,2.3-10.7,6-14.4c3.7-3.7,8.8-6,14.4-6c5.6,0,10.7,2.3,14.4,6c3.7,3.7,6,8.8,6,14.4C207.2,105.2,204.9,110.3,201.2,114z"/>
	<path class="st0" d="M267.3,38.7l-1.4-16.6l-27.3,28.8c-9.4-17.8-26.5-30.9-46.8-34.8C186.7,7.1,166,0.5,144.8,0
		c-0.8,0-1.6,0-2.3,0c-0.8,0-1.6,0-2.3,0c-21.2,0.5-41.9,7-47,16.1c-20.3,3.9-37.5,17-46.8,34.8L19.1,22.1l-1.4,16.6
		c-2.1-3.8-12-18.4-17.4-27.3c-1.5,5.3,3.2,46.2,4.5,51.4c1.3,5.2,9.8,40.8,16.3,40.2c0.9-0.4,2.7-7.5,4.9-14L41,117
		c7,27.8,29.5,49.6,57.7,55.4c-0.6,3.4-0.7,7-0.4,10c0.6,7.6,3.6,19.6,12.4,21.3c1.5,0.3,3,0.2,4.5-0.2c5.7-1.5,12.1-4.7,17.9-8.3
		c1.5,0.7,3.1,1.1,4.9,1.1h9.1c1.7,0,3.4-0.4,4.9-1.1c5.8,3.6,12.2,6.7,17.9,8.3c1.5,0.4,3,0.5,4.5,0.2c8.8-1.7,11.8-13.8,12.4-21.3
		c0.2-3,0.2-6.6-0.4-10c28.2-5.8,50.8-27.6,57.7-55.4l15-27.8c2.2,6.4,3.9,13.6,4.9,14c6.5,0.6,15.1-35.1,16.3-40.2
		c1.3-5.3,6-46.2,4.5-51.4C279.3,20.4,269.4,34.9,267.3,38.7z M142.5,8.9c22.7,0.2,46.2,7.1,44.3,12.2l-16,43
		c-1.2,3.1-2.7,6.1-6.1,6.1h-22.2h-22.2c-3.3,0-4.9-3-6.1-6.1l-16-43C96.3,16,119.7,9.1,142.5,8.9z M38.7,81.9v16.9
		c0,1,0,1.9,0.1,2.9L22.5,74.1l-2.7,17.6C11.9,69,7.8,51.8,4.5,27.4l16.7,30.6l3.1-23.1l19.3,22C40.4,64.6,38.7,73,38.7,81.9z
		 M113.6,197.7c-10.7,2.9-14.6-38.3,1-32.3c3.4,1.3,7.9,3.7,13.3,6.8c-0.9,1.6-1.4,3.5-1.4,5.5v0.7c-2.6-0.8-6-1.7-10.5-2.7
		c7.4,4.6,5.1,3.5,10.1,5.9c-5.5,3.3-3,1.6-10.7,7.4c4.7-1.6,8.3-2.8,11-3.9c0,2.2,0.7,4.2,1.8,5.9
		C123.9,193.6,118.6,196.3,113.6,197.7z M171.4,197.7c-4.9-1.3-10.3-4-14.7-6.6c1-1.6,1.7-3.5,1.8-5.6c2.6,1,6,2.2,10.2,3.6
		c-7.4-5.5-5.3-4.2-10.1-7.1v-0.6c4.3-2.1,2.5-1.2,9.6-5.7c-3.9,0.9-7.1,1.7-9.6,2.4v-0.5c0-2-0.5-3.9-1.4-5.5
		c5.4-3.1,9.9-5.5,13.3-6.8C186,159.3,182.1,200.5,171.4,197.7z M240.2,98.8c0,33.4-24,61.4-55.7,67.7c-1.3-2.8-3.2-5.2-6-6.6
		c-3.3-1.7-6.9-1.6-10.3-0.3c-3.6,1.4-7.2,3.3-10.5,5.2c-1.7,0.9-3.4,1.9-5,2.8c-1.7-0.9-3.6-1.5-5.6-1.5H138c-2,0-4,0.5-5.6,1.5
		c-1.7-1-3.4-1.9-5-2.8c-3.4-1.9-6.9-3.8-10.5-5.2c-3.4-1.3-7.1-1.4-10.3,0.3c-2.8,1.4-4.7,3.8-6,6.6c-31.6-6.3-55.7-34.3-55.7-67.7
		V81.9c0-28.9,20.4-53.2,47.5-59.3c0.1,0.2,0.1,0.4,0.2,0.6l16,43c2,5.4,5.4,10.1,11.8,10.1h22.3h22.3c6.4,0,9.8-4.7,11.8-10.1
		l16-43c0.1-0.2,0.1-0.4,0.2-0.6c27.1,6.1,47.5,30.5,47.5,59.3V98.8z M265.2,91.7l-2.7-17.6l-16.3,27.5c0-1,0.1-1.9,0.1-2.9V81.9
		c0-8.8-1.7-17.3-4.9-25l19.3-22l3.1,23.1l16.7-30.6C277.2,51.8,273.1,69,265.2,91.7z"/>
	<path class="st0" d="M170.8,149.4h-28.3h-28.3c-20.2,0-30.9-9.9-34.6-14.1l-3,2.5c4.2,4.7,16,15.5,37.6,15.5h28.3h28.3
		c21.6,0,33.4-10.7,37.6-15.5l-3-2.5C201.7,139.5,190.9,149.4,170.8,149.4z"/>
</g>
</svg>
