<svg id="svg2" xmlns="http://www.w3.org/2000/svg" viewBox="0 0 1032.18042 331.85538"><defs><style>.cls-1{fill:#fff;}</style></defs><title>jenkinsx-horizontal-white</title><path class="cls-1" d="M472.249,167.99728a36.00521,36.00521,0,0,0-1.8457-9.05224,13.9298,13.9298,0,0,0-4.08691-6.24024,10.03921,10.03921,0,0,0-6.54786-2.10937q-6.769,0-10.81054,6.85547-4.0437,6.85547-4.39453,21.70849l28.21289-.35156Q472.77637,173.5344,472.249,167.99728Z"/><path class="cls-1" d="M335.49121,115.35129q2.47192.35229,6.22656,1.144a33.97606,33.97606,0,0,1,6.40235,1.93506q3.70752,1.58349,4.68017,3.69385a12.62017,12.62017,0,0,1,.97217,5.27783v70.45459q0,15.30615-6.03857,22.87012-6.03736,7.563-16.61231,7.56347a12.5888,12.5888,0,0,1-5.37646-1.23047,6.53907,6.53907,0,0,1-3.4375-2.98828v-1.14258a60.51583,60.51583,0,0,0,8.9209-8.832,16.13706,16.13706,0,0,0,3.91113-10.416,14.97119,14.97119,0,0,0-4.52637-11.07422q-4.52782-4.48242-12.17285-4.48242-8.0874,0-12.7002,5.36133-4.61425,5.36278-4.61425,13.53515,0,13.8003,10.06347,21.709,10.06275,7.91015,26.499,7.91015a58.03553,58.03553,0,0,0,17.84179-2.68164,48.50169,48.50169,0,0,0,15.11719-7.96094A37.97414,37.97414,0,0,0,381.15039,212.718a39.51484,39.51484,0,0,0,3.82324-17.416V126.5217a14.71872,14.71872,0,0,1,1.01075-5.6294q1.00928-2.46093,4.61425-3.43017,3.07545-.791,5.53711-1.23047,2.45948-.44093,5.97656-.88037v-6.85547H335.49121Z"/><path class="cls-1" d="M488.4209,218.843a25.63121,25.63121,0,0,1-14.85352,4.52539q-15.11792,0-22.06054-9.4043-6.9441-9.40283-6.94336-27.42187h59.41406v-5.71289a44.62364,44.62364,0,0,0-2.28516-14.28174,29.97651,29.97651,0,0,0-7.29492-11.82129,35.79419,35.79419,0,0,0-13.0957-8.26172q-7.91016-2.98682-20.21485-2.98828a51.52322,51.52322,0,0,0-20.34668,3.86719A44.83165,44.83165,0,0,0,425.667,157.4509a46.21231,46.21231,0,0,0-12.65625,31.81592,54.31445,54.31445,0,0,0,3.03223,18.41406,39.72944,39.72944,0,0,0,9.18457,14.7207,44.01122,44.01122,0,0,0,15.60058,9.93164q9.44679,3.69141,22.45606,3.69141a50.69372,50.69372,0,0,0,13.84277-1.71289,54.16218,54.16218,0,0,0,11.90918-5.05469,45.08036,45.08036,0,0,0,9.8877-7.60156,53.50526,53.50526,0,0,0,7.42676-9.44922l-6.67969-4.834A42.38193,42.38193,0,0,1,488.4209,218.843ZM448.958,157.4509q4.04149-6.85548,10.81054-6.85547a10.03921,10.03921,0,0,1,6.54786,2.10937,13.9298,13.9298,0,0,1,4.08691,6.24024,36.00521,36.00521,0,0,1,1.8457,9.05224q.52736,5.53712.52735,10.81055l-28.21289.35156Q444.91358,164.3088,448.958,157.4509Z"/><path class="cls-1" d="M622.62988,224.68674a6.81274,6.81274,0,0,1-3.60351-3.07617,11.66964,11.66964,0,0,1-.9668-5.18555V173.35861q0-13.44653-7.16309-21.57666-7.16454-8.12841-21.48925-8.12988a41.11142,41.11142,0,0,0-11.25,1.49414,31.58769,31.58769,0,0,0-8.52539,3.60352,57.51194,57.51194,0,0,0-6.50391,5.00976q-3.5171,3.07764-5.97656,5.27344h-.35157V146.28879l-1.31835-1.31836-41.92383,2.28515v6.416a28.22926,28.22926,0,0,1,5.31738.9668,14.54178,14.54178,0,0,1,3.999,1.75781,12.59309,12.59309,0,0,1,3.69141,4.30664,11.291,11.291,0,0,1,1.40625,5.36133V217.216a11.39577,11.39577,0,0,1-1.05469,5.27344,6.45183,6.45183,0,0,1-3.86719,2.98828,21.463,21.463,0,0,1-3.82324.83594q-2.24121.30762-4.43847.48242v6.416h53.4375v-6.416a27.27826,27.27826,0,0,1-4.13086-.8789,16.718,16.718,0,0,1-3.51563-1.40625,6.13039,6.13039,0,0,1-2.90039-3.11914,13.14856,13.14856,0,0,1-.87891-5.14258V169.052q1.05616-1.40333,2.59961-3.25146a20.2376,20.2376,0,0,1,4.09864-3.60352,24.50737,24.50737,0,0,1,5.94824-3.07617,19.89983,19.89983,0,0,1,6.56543-1.05469q6.43359,0,9.73828,4.52637,3.30468,4.52783,3.30566,13.49072V217.216a14.45167,14.45167,0,0,1-.791,5.44922,5.589,5.589,0,0,1-2.63672,2.8125,11.08027,11.08027,0,0,1-3.60352.87891q-2.373.26367-4.043.43945v6.416h52.82226v-6.416a25.28712,25.28712,0,0,1-4.70215-.8789A29.9856,29.9856,0,0,1,622.62988,224.68674Z"/><path class="cls-1" d="M736.9082,219.5051q-7.98339-11.85937-15.2666-22.48828-7.28174-10.62891-15.87988-23.10352,4.3828-3.87891,7.75586-6.47852,3.37353-2.59936,6.97168-4.97412a79.41916,79.41916,0,0,1,10.04687-5.75683,92.15385,92.15385,0,0,1,13.38282-4.61426v-6.06445H699.27051v6.24023a41.543,41.543,0,0,1,8.35254,1.8457q2.77441,1.05469,2.77539,2.63672a14.74018,14.74018,0,0,1-.30762,1.88965q-.30908,1.53662-3.208,4.5249-4.91748,5.00978-13.03711,12.65528-8.11962,7.64647-14.61425,13.44531V98.56418l-1.32129-1.40625-43.76661,2.28515v6.416a43.47172,43.47172,0,0,1,6.06446.87891,15.78782,15.78782,0,0,1,5.00976,1.75781,9.79406,9.79406,0,0,1,3.73535,4.70215,15.90971,15.90971,0,0,1,1.27442,6.02051V217.216a11.74579,11.74579,0,0,1-1.01758,5.27344,6.30115,6.30115,0,0,1-3.84961,2.98828,24.2208,24.2208,0,0,1-3.89355.83594q-2.21191.30762-4.42285.48242v6.416H691.624v-6.416a26.30752,26.30752,0,0,1-4.21875-.70312,22.48019,22.48019,0,0,1-3.6914-1.23047,5.86054,5.86054,0,0,1-3.55957-2.98828,12.54313,12.54313,0,0,1-.92285-5.18555V197.52853l5.17675-4.3789q5.6206,7.97754,11.94336,17.31445,6.32228,9.33545,13.96289,22.74805h41.42676v-6.416a33.12984,33.12984,0,0,1-8.07617-1.75781A13.301,13.301,0,0,1,736.9082,219.5051Z"/><path class="cls-1" d="M799.99316,224.511a7.98035,7.98035,0,0,1-3.77929-3.207,9.83023,9.83023,0,0,1-1.31836-5.23046V146.28879l-1.31836-1.31836-43.06641,2.28515v6.416a31.29316,31.29316,0,0,1,5.84473,1.23047,18.70332,18.70332,0,0,1,4.79,2.02148,11.65987,11.65987,0,0,1,3.51562,3.73536,10.26339,10.26339,0,0,1,1.40625,5.40527V217.216a10.41765,10.41765,0,0,1-1.14258,5.23047,7.288,7.288,0,0,1-3.95507,3.03125,15.58049,15.58049,0,0,1-3.7793.87891q-2.19873.26367-4.48242.43945v6.416h55.54687v-6.416a26.40638,26.40638,0,0,1-4.39453-.8789A29.34235,29.34235,0,0,1,799.99316,224.511Z"/><path class="cls-1" d="M778.1084,129.41379a17.4359,17.4359,0,0,0,12.17285-4.70215,14.864,14.864,0,0,0,5.1416-11.38184A15.06224,15.06224,0,0,0,790.3252,101.904a18.1531,18.1531,0,0,0-24.47754,0,15.21729,15.21729,0,0,0,0,22.80762A17.54508,17.54508,0,0,0,778.1084,129.41379Z"/><path class="cls-1" d="M924.18262,224.68674a6.81276,6.81276,0,0,1-3.60352-3.07617,11.66964,11.66964,0,0,1-.9668-5.18555V173.35861q0-13.44653-7.16308-21.57666-7.16455-8.12841-21.48926-8.12988a41.11147,41.11147,0,0,0-11.25,1.49414,31.58782,31.58782,0,0,0-8.52539,3.60352,57.51373,57.51373,0,0,0-6.50391,5.00976q-3.51708,3.07764-5.97656,5.27344h-.35156V146.28879l-1.31836-1.31836-41.92383,2.28515v6.416a28.22911,28.22911,0,0,1,5.31738.9668,14.542,14.542,0,0,1,3.999,1.75781,12.593,12.593,0,0,1,3.6914,4.30664,11.29089,11.29089,0,0,1,1.40625,5.36133V217.216a11.3959,11.3959,0,0,1-1.05468,5.27344,6.45189,6.45189,0,0,1-3.86719,2.98828,21.46322,21.46322,0,0,1-3.82324.83594q-2.24121.30762-4.43848.48242v6.416h53.4375v-6.416a27.27852,27.27852,0,0,1-4.13086-.8789,16.71794,16.71794,0,0,1-3.51562-1.40625,6.13035,6.13035,0,0,1-2.90039-3.11914,13.14838,13.14838,0,0,1-.87891-5.14258V169.052q1.05615-1.40333,2.59961-3.25146a20.23725,20.23725,0,0,1,4.09863-3.60352,24.50773,24.50773,0,0,1,5.94824-3.07617,19.89991,19.89991,0,0,1,6.56543-1.05469q6.43361,0,9.73828,4.52637,3.30469,4.52783,3.30567,13.49072V217.216a14.45144,14.45144,0,0,1-.791,5.44922,5.589,5.589,0,0,1-2.63672,2.8125,11.0802,11.0802,0,0,1-3.60351.87891q-2.373.26367-4.043.43945v6.416h52.82227v-6.416a25.28681,25.28681,0,0,1-4.70215-.8789A29.98425,29.98425,0,0,1,924.18262,224.68674Z"/><path class="cls-1" d="M1014.72266,188.16916q-7.28467-6.9873-22.98926-11.03125a75.61357,75.61357,0,0,1-15.83692-5.625q-5.66014-2.98536-5.65918-9.66748a9.12605,9.12605,0,0,1,3.86719-7.82227q3.86572-2.81176,10.63477-2.8125,8.61182,0,16.084,6.63575a36.34282,36.34282,0,0,1,10.54688,15.77587h6.15234l-1.40625-29.97021h-6.67969l-1.8457,5.18555a74.39627,74.39627,0,0,0-11.29394-3.55957,62.62888,62.62888,0,0,0-14.72168-1.626q-16.875,0-27.29,7.64648t-10.415,20.03858a24.816,24.816,0,0,0,8.70117,19.77539,35.00065,35.00065,0,0,0,8.833,5.66992,96.49385,96.49385,0,0,0,10.23925,3.55859q5.9751,1.76075,10.06348,2.98829a44.88486,44.88486,0,0,1,7.51465,2.98828,15.051,15.051,0,0,1,4.834,3.95507,9.25134,9.25134,0,0,1,1.75782,5.80079q0,6.50683-3.91114,9.625-3.91113,3.1201-11.90918,3.11914a24.59443,24.59443,0,0,1-11.38183-2.72461,39.73037,39.73037,0,0,1-9.44824-6.67969,49.13123,49.13123,0,0,1-7.03125-8.91992,43.5346,43.5346,0,0,1-4.39454-8.92188h-6.416l1.14258,32.78321h6.85547l2.63671-5.97657a54.4441,54.4441,0,0,0,12.61231,5.31836,56.239,56.239,0,0,0,16.65527,2.50391q18.19337,0,29.48731-7.91016,11.29248-7.91014,11.29394-22.32422Q1022.00488,195.15549,1014.72266,188.16916Z"/><path class="cls-1" d="M164.62014,274.75922l-.00161.06506a13.22826,13.22826,0,0,0,2.92844-.56181A13.51363,13.51363,0,0,1,164.62014,274.75922Z"/><path class="cls-1" d="M171.20326,273.75073l-.663-.07469a10.1107,10.1107,0,0,0-1.07719.14784,3.479,3.479,0,0,1,1.36672.011l.03732-.00006c.79371,6.92865,3.539,13.94132,3.19354,21.533-1.08966.36652-2.01274.71548-2.93534,1.01394,1.05148-.32363,2.07448-.71891,3.30882-1.13539h-.02805C174.75159,287.664,172.00629,280.642,171.20326,273.75073Z"/><path class="cls-1" d="M160.6981,172.73164c.53327-.39571,1.06894-.78922,1.63433-1.15483-.06077.00541-.124.0159-.185.022l-.17917.12744A9.61128,9.61128,0,0,0,160.6981,172.73164Z"/><path class="cls-1" d="M72.97921,166.09551c.30816-4.01521,2.60523-6.06019,5.87342-7.6383a24.96125,24.96125,0,0,1,4.51634-1.74052l-.0099-.021a24.96152,24.96152,0,0,0-4.52513,1.74288c-3.26819,1.578-5.60264,3.623-5.87342,7.63829a14.19985,14.19985,0,0,0-.02077,2.16616l.01622-.00627A14.19489,14.19489,0,0,1,72.97921,166.09551Z"/><path class="cls-1" d="M254.73008,174.53951,233.7066,82.33442l-.0437-.16878a19.6409,19.6409,0,0,0-9.407-11.8067L199.91258,58.62641c.17183-.98745.359-2.069.56465-3.2676,3.69773-6.84458,5.35991-11.28,4.202-15.87422s-6.37771-13.34369-13.37169-17.7418c-5.7147-3.58572-18.52614-10.25285-26.25782-10.5797-12.50329,0-35.76366,1.52205-46.6235,8.10517-8.21729,4.98637-21.5983,16.13569-32.178,24.90386a132.20733,132.20733,0,0,1-10.5458,8.11582L38.41371,70.24072l-.15893.08224a19.636,19.636,0,0,0-9.40741,11.85125L7.77763,174.45041l-.03213.16021a19.58079,19.58079,0,0,0,3.31772,14.72218l47.02091,58.87859c.181,2.50323.34527,5.01454.5149,7.5455.29884,4.73423-.2054,9.758,1.02718,12.38189s5.97617,3.567,9.33779,5.14514c9.814,4.53814,20.22559,11.47611,33.10241,10.09414,3.07216,10.31822,5.97617,21.30877,9.65527,30.34773,13.20361,4.74364,34.04552,4.00589,47.77206,2.35313,4.16466-.50419,8.57209-2.55854,9.55257-6.18157a36.71125,36.71125,0,0,1-.47624-7.06868c4.28605-.88715,10.13151-1.6248,11.07462-6.36839,1.326-6.66719-4.21135-16.21039-2.36245-23.51252,1.99529-.65262,4.09558-1.18846,4.64266-3.40548a19.88711,19.88711,0,0,0,8.41884-4.26286,43.87515,43.87515,0,0,1,6.137-.15673,11.20414,11.20414,0,0,0,2.52122,3.31488c7.42352,1.4941,14.623,1.61549,20.78589-.39217,6.98466-2.27844,10.31823-16.55592,8.72148-23.34444h0a107.01,107.01,0,0,0-5.88279-17.34958c-.19812-.42339-.41145-.82-.63505-1.1982l29.31172-36.75013.11052-.14736A19.629,19.629,0,0,0,254.73008,174.53951ZM75.9123,59.00043c3.60478-2.56277,6.83832-4.85942,9.04726-6.73241,1.03762-.87939,2.00626-1.68638,2.92335-2.43961,4.74616-3.89821,8.04391-6.28589,11.57479-8.97759,1.4232-1.0849,2.88453-2.21944,4.49493-3.52328.3405-.27635.66772-.5413.98931-.80137,7.58909-6.13735,10.20926-7.955,21.72949-15.39033,17.583-4.35142,23.38181-5.18246,33.70936-5.91079h.03737c13.325,2.27838,20.21628,4.977,28.20942,9.62721,6.89128,3.99657,9.60858,7.78774,11.943,15.79953.36417,4.08064.15877,6.92865-3.26824,13.1476-.03454.34783-.09622.69133-.14168,1.03756A55.84158,55.84158,0,0,0,184.537,51.216c-.55131-.09793-1.11526-.19319-1.69891-.28331-3.53164-.54537-6.14822-.99521-8.57557-1.28307.85529-1.26578,1.20628-1.83123,1.68713-2.57241.32095-.49471.70118-1.06969,1.33255-1.99,1.65275-2.40914,1.30727-2.65192,2.96008-5.07038a3.65109,3.65109,0,0,0,.691-3.24019v0c-.86841-2.80132-.635-2.85733-1.51273-5.60263s-1.31665-2.65193-2.18506-5.43461a3.73509,3.73509,0,0,0-2.09162-2.5866c-2.7453-1.05512-2.68-1.20452-5.42529-2.2597l-5.44387-2.14773a5.57268,5.57268,0,0,0-3.6044.21477c-2.54922,1.466-2.38114,1.74619-4.921,3.22155s-2.67061,1.25126-5.21047,2.7173A4.16468,4.16468,0,0,0,148.718,27.887c-.42564,2.85909-.31111,2.90739-.72689,5.71524l-.01082.07416c-.23544,1.58143-.36711,2.291-.50719,3.08394-.1155.65385-.23667,1.36419-.4266,2.66814a4.09622,4.09622,0,0,0,.84978,2.848c.084.10276-.14008.46693-.0467.56031,1.99829,2.13831,2.08231,2.0543,4.09,4.19266,1.84054,1.96038,2.272,1.854,3.87738,3.46234a213.771,213.771,0,0,0-36.0928,8.462C107.65031,62.773,88.99345,71.46649,81.822,75.92993A120.31738,120.31738,0,0,0,66.2135,87.8561q-.87973.76913-1.79171,1.58035-1.05586.93983-2.1594,1.93928-.68939.62457-1.40088,1.27611-.94736.8668-1.93344,1.77891c-.29413.27207-.596.553-.89556.83141-.04621-.0748-.09418-.15282-.14334-.233-.02747-.04493-.05853-.09644-.08691-.143-.046-.07539-.09209-.15116-.1405-.23116-.07288-.12053-.14763-.24449-.22629-.376-.44427-.7422-.97641-1.65131-1.62844-2.79232-8.23592-6.53648-1.30733-8.99232.62563-16.808C61.65624,69.14254,69.399,63.631,75.9123,59.00043ZM173.68555,45.986,172.053,48.37415a2.27391,2.27391,0,0,1-1.47535.84972l-1.122.08739c-.92254-.01531-1.88477-.00273-2.92367.04225-2.16776.09376-4.67372.32754-7.84011.72983a1.99442,1.99442,0,0,1-1.103-.57931l-7.66823-8.1555-.11951-.12712a.93231.93231,0,0,1-.12139-.14939,1.86764,1.86764,0,0,1-.38286-1.466l.27368-1.83481.47425-3.17909.92357-6.19148a1.99839,1.99839,0,0,1,.93373-1.41l9.87937-5.73339a2.16675,2.16675,0,0,1,.7377-.25215,2.02659,2.02659,0,0,1,.99912.14939l10.64507,4.09933a1.95166,1.95166,0,0,1,1.16725,1.2419l3.38957,10.81315a1.95138,1.95138,0,0,1-.25209,1.68081ZM60.43,96.55011c-.01976.06318-.03561.12556-.06185.19009-.09017.06355-.181.12583-.2703.19062C60.20231,96.80954,60.31384,96.68188,60.43,96.55011Zm-44.3986,89.17154a13.47465,13.47465,0,0,1-2.24765-9.98785L34.77386,83.78531A13.53568,13.53568,0,0,1,41.163,75.73283l12.77717-6.15245c-1.33491,1.82368-2.67967,4.51255-5.04308,9.76719-2.92276,7.16206-3.11885,7.47021,2.80131,12.578,1.97286,2.75543,4.70842,6.96041,6.15748,9.21213-3.265,9.51037-.09922,21.4383,4.39426,28.02694A20.5991,20.5991,0,0,0,76.014,138.00747a29.18022,29.18022,0,0,0,2.85738,10.69177c.46553,1.02332,1.89489,3.23841,3.25539,5.66791a38.4057,38.4057,0,0,0-4.61873,1.94238c-3.87518,1.86758-6.91928,3.89387-7.61029,8.404a12.43187,12.43187,0,0,0,.20294,4.63639,28.80372,28.80372,0,0,0-3.079,1.3491c-5.93885,1.25126-4.66889.31747-13.72654,1.55942-4.6689.30816-12.2885,6.65787-11.20532,14.00669.72833,4.95837,4.53814,12.44722,6.15357,17.415,1.74619,5.35986,4.24872,10.27153,5.6867,15.87422a128.59565,128.59565,0,0,1,3.15167,17.56312ZM88.2663,156.30337a6.934,6.934,0,0,1,1.47862.42344c3.18894,1.36639,4.69144,5.01952,5.757,9.06991a.85709.85709,0,0,0,.24873.43736c.31453.27625.82477.16659,1.36676.0762a9.24054,9.24054,0,0,0,1.63412-.43886l-.00809-.022c.62087-.21445,1.24843-.48068,1.87112-.75944,1.03638-.46393,2.05344-.9648,2.96463-1.35692q4.32335-1.84885,8.74949-3.44563c.64368-.23325,2.14548-.714,4.08626-1.31943l.044.04664c1.04141-.3239,2.209-.68443,3.44553-1.06439l-.04959-.04573c1.903-.5843,3.95706-1.20993,5.93532-1.8104l.0256.0483c4.3239-1.31739,8.28529-2.51618,9.46507-2.877,1.36334-.41086,2.70793-.93374,4.09-1.27927l.00364-.001a9.89425,9.89425,0,0,0,2.36122,1.45206c.0113.00466.02329.00712.03465.01178-3.51338,1.03981-9.04292,2.84828-14.76679,4.86482-1.57056.5533-3.15172,1.121-4.71184,1.69345-1.213.445-2.41.89171-3.5757,1.33571a97.04046,97.04046,0,0,0-12.03673,5.23809c-1.02284.55538-2.01494,1.162-2.99216,1.79133-.44518.28674-.894.56786-1.32912.86949-.44347.30746-.87237.63532-1.305.958l-.01627.01194c-.07068.0528-.14281.10356-.21322.15673-.10581.07994-.21531.15475-.32048.23555-.17627.13558-.34981.27448-.52416.41257-.17852.14136-.3511.29011-.52759.4341-.37766.30816-.76121.609-1.12929.92908a5.91112,5.91112,0,0,0-1.087,1.41485,7.23627,7.23627,0,0,0-.399.8321c-.01093.027-.023.05333-.03368.08048a20.777,20.777,0,0,0-.76689,2.66349c-.03743.15363-.07395.30559-.11331.46232a17.64742,17.64742,0,0,1-2.20368,5.72408c-1.29186,1.93772-2.468,2.60978-3.988,2.44518a7.97642,7.97642,0,0,1-2.35238-.68036,30.28773,30.28773,0,0,1-7.93875-5.34931l.05312-.01943c-.19652-.18356-.39233-.36733-.584-.55608-.43035-.424-.852-.85706-1.25683-1.30668l-.05933.018a30.29929,30.29929,0,0,1-2.456-3.10476c-.18677-.27079-.35485-.54157-.52293-.82172l-2.26907.635A31.374,31.374,0,0,0,74.66,178.01985c.21595.25991.45247.5384.70643.8305-8.3126,3.01711-12.30237,7.00045-14.9559,4.45471-1.52366-.76185-3.615-1.62593-5.56039-2.38425-1.36109-.53058-2.648-1.0088-3.61752-1.36151a10.57818,10.57818,0,0,1,5.779-.94188,25.87714,25.87714,0,0,1,3.10825-1.31927c3.05753-1.114,7.248-2.306,11.66823-3.56161.1949.35838.39768.71328.61219,1.06181l2.26907-.635c-.19673-.35715-.37263-.7234-.53707-1.09405l.0098-.00278a14.37764,14.37764,0,0,1-1.16431-4.60781c-.00594-.07421-.017-.14768-.02179-.222l-.01622.00627a14.19985,14.19985,0,0,1,.02077-2.16616c.27078-4.01526,2.60523-6.06024,5.87342-7.63829a24.96152,24.96152,0,0,1,4.52513-1.74288l.0099.021c.293-.082.58489-.16781.88094-.23908.34082-.07641.661-.124.98113-.17145.19014-.02817.37841-.054.56143-.07229.02377-.00241.04594-.00246.06966-.00466.16969-.0159.335-.0257.49868-.03325a8.55666,8.55666,0,0,1,1.90854.11362Zm96.55153,14.433.27314,1.37035,1.3326,6.68582.047.23577-3.42968-1.8051c-.09553-.67254-.20605-1.33522-.33809-1.98024-1.324-6.46708-4.49863-11.26653-9.856-8.67125,1.51273-2.21306,4.37006-3.28693,6.20963-6.01355a16.08739,16.08739,0,0,0,2.16016,1.47921l1.40114,3.38459Zm-.79532-7.477a29.79651,29.79651,0,0,1,7.47182,2.9015c2.60411.74284,4.50912,1.31611,5.93334,1.844a9.451,9.451,0,0,1,2.96528,1.55385l-.70542-.11582-9.86469-1.61993-4.58687-1.2601Zm-23.59112,25.13528c-.00525-.15849-.0091-.31662-.01708-.47244-.008-.158-.01676-.31383-.02554-.46852a7.62528,7.62528,0,0,1,.16947-2.83206,3.74911,3.74911,0,0,1,.46349-.2734c1.34894-.70606,3.27365-.78188,5.11291-.955.17418-.01639.34922-.03186.52116-.05082a10.60852,10.60852,0,0,0-6.76989-.76571,10.844,10.844,0,0,0-1.11483-3.552l-.00567-.015c.29311-.12883.58162-.26725.86734-.4115,2.98161-1.505,5.59728-3.7765,8.5089-5.40993.35448-.19881.71265-.38976,1.07713-.567.16455-.08.33279-.152.4997-.22682.16519-.07411.33011-.149.49787-.21756a13.32865,13.32865,0,0,1,2.82648-.82413c2.50253.15877,1.50342-.14007,3.11885.55094v-.03732c.99917.57888,1.752,2.32529,2.30371,4.42954a45.57091,45.57091,0,0,1,1.22594,8.55c.14945,3.14679-.2801,6.331-1.56874,8.00246-.06677-.001-.13338-.00487-.20016-.00605a73.88854,73.88854,0,0,1-16.0325-2.0544c-.51934-.1253-1.03895-.24942-1.55578-.38607A10.13457,10.13457,0,0,0,160.43139,188.39467Zm-5.8867-10.823c-5.90147.29878-9.123-.40154-13.4557-3.79112.06538-.18677.50424-.11207.51356-.44823l.00931-.03738c6.25226,2.77465,14.18763-1.06915,20.53552-1.69618.061-.006.12428-.01654.185-.022-.56539.36561-1.10106.75912-1.63433,1.15483C158.58913,174.29647,156.66886,176.03634,154.54469,177.57167Zm-2.08337,12.18163a5.289,5.289,0,0,1-2.1933-.47207c-.14169-.80206-.28824-1.46309-.42521-2.048a13.1628,13.1628,0,0,1-.55527-5.03939,7.44941,7.44941,0,0,1,3.38732-1.27134c.0604-.00637.119-.02185.1797-.02667C158.77349,181.7473,157.23458,189.67389,152.46132,189.7533Zm-38.84384-5.88836c.01864.44384.048.89154.10238,1.345a.848.848,0,0,0-.60448.33745c-.7927.82595-1.87781,3.18514-3.71888,7.0207-3.04817-5.65308-3.70507-6.39175-7.34947-10.14056-.118-.12139-.22977-.23646-.35421-.36444-.68662-1.08131-1.3582-2.07057-1.99063-2.98771q-.44946-.65178-.868-1.2548c.01885-.11748.03828-.23448.05665-.35276.09928-.63789.19823-1.281.33761-1.88857a7.92647,7.92647,0,0,1,.33541-1.12645v-.14008a10.8415,10.8415,0,0,1,1.91422-1.24189c.377-.24106.8018-.49359,1.26155-.75425,4.06372.88994,8.88474,1.46877,11.83931,1.98683a17.17807,17.17807,0,0,1-.50419,3.89853,30.84328,30.84328,0,0,0-.45793,3.99373c-.01756.43041-.02431.86745-.014,1.31274C113.60554,183.62645,113.6125,183.746,113.61748,183.86494Zm-6.71393-13.67749c4.05655-1.92006,9.30813-4.09157,14.677-6.19352a25.91382,25.91382,0,0,0,7.10782,4.55742c-4.30468-1.00844-10.90654-1.326-12.69937,2.53053C112.85236,170.87455,109.78433,170.63145,106.90355,170.18745Zm18.70183-7.74925q1.31106-.5007,2.605-.98792l.37535.97555a.93369.93369,0,0,0,.53225.53225l3.91256,1.41935a.93347.93347,0,0,0,.58826,0,53.4108,53.4108,0,0,0,10.82247-4.90231v-.00005l6.77926-3.7818h.04663l3.54759-2.304c.04081-.00214.08134.00032.12214-.00247a8.63538,8.63538,0,0,0,4.58467-1.45774,14.18126,14.18126,0,0,1,1.72772.05709,1.0162,1.0162,0,0,1,.24278.04669l2.49321.859a1.09378,1.09378,0,0,1,.28947.15876l5.90148,4.93968a.93364.93364,0,0,0,.49487.20546l1.26064.12139a.93371.93371,0,0,0,.99911-.82172l.34109-3.82828a6.14871,6.14871,0,0,0,3.34251.69931,21.75137,21.75137,0,0,1-5.01888,5.26728c-9.1137,6.3964-22.96163,12.20449-34.82991,8.22661A46.70885,46.70885,0,0,1,125.60538,162.4382Zm-5.07826,11.09015-.03732.00005a7.7317,7.7317,0,0,1,1.21994-.37134c.06849-.01553.13724-.0294.20616-.043.12883-.0256.2553-.06153.38542-.08053l.90231.08133.23694.02137a58.257,58.257,0,0,1,15.398,5.60269c2.48384,1.354,3.91251,3.03477,7.67562,3.32424l-.056,1.50336a6.12029,6.12029,0,0,1-.96014.49841c-2.03678.86852-4.75066.99971-6.68747,1.97612l.03111.00187a19.94323,19.94323,0,0,1,8.19544,2.08043c-.00584.15743-.01194.31346-.01778.47078-.041,1.10257-.08262,2.202-.13161,3.26433-2.14142,1.483-4.20792,3.38036-6.415,5.18958-.72522.59447-1.464,1.17855-2.22859,1.73532a27.81,27.81,0,0,1-3.02867,1.946c-.25782.13916-.59634.30617-.99242.49-.09719.04509-.20637.09349-.31046.14056-.63618.28776-1.39017.60668-2.20969.92988-2.97277,1.17239-6.72619,2.36342-8.21568,2.01585a1.42972,1.42972,0,0,1-.53852-.26446,3.3732,3.3732,0,0,1-.96865-1.852c-.11228-.39956-.22162-.81958-.36036-1.23579-.05922-.17456-.12428-.357-.19143-.54269-1.15092-3.18128-3.37608-7.93762-3.54368-12.4462C117.71649,184.56559,116.74532,175.7134,120.52712,173.52835Zm60.28477-25.52012h0l-.00739.01526c-.07544.17541-.15919.34628-.24893.51324a6.51449,6.51449,0,0,1-3.18932,2.91713,3.979,3.979,0,0,1-2.91231-.31276,2.129,2.129,0,0,1-1.26171-2.24578c.184-1.297-1.42465-2.2975-2.21756-1.18074a1.69283,1.69283,0,0,0-.14489.24695,4.00868,4.00868,0,0,1-.75243,1.06573,5.25582,5.25582,0,0,1-7.90368-.88827,1.861,1.861,0,0,0-.17166-.16166,1.99,1.99,0,0,0-2.19491-.12755l-.00091.00059a2.26833,2.26833,0,0,0-.43383.37263,4.8626,4.8626,0,0,1-.45247.63329c-2.336,2.79173-7.4708,2.62012-9.25881-.63329-.427-.80662-1.05181-.8448-1.47857-.44979a1.59742,1.59742,0,0,0-.46371,1.04742,2.20875,2.20875,0,0,1-.29584.92056,2.9826,2.9826,0,0,1-.48727.63286,4.62844,4.62844,0,0,1-1.85468,1.08415c-.01756.00552-.035.01242-.05263.01778a3.78153,3.78153,0,0,1-1.745.146,4.88892,4.88892,0,0,1-1.051-.32566l-.038-.01644a9.27772,9.27772,0,0,1-3.04661-2.31453c-.32941-.35908-.63811-.72459-.91617-1.07847a.8813.8813,0,0,0-1.48451-.114,1.69848,1.69848,0,0,0-.30832.52486,4.27024,4.27024,0,0,1-1.18755,1.73028l-.03164.02737a4.78938,4.78938,0,0,1-3.73672,1.05882,4.38072,4.38072,0,0,1-3.62555-2.81647,1.31813,1.31813,0,0,0-2.14125-.612,1.24472,1.24472,0,0,0-.27721.89219,3.69332,3.69332,0,0,1-1.80044,3.04816,3.70057,3.70057,0,0,1-2.47624.51887,6.161,6.161,0,0,1-3.39439-2.2264c-.13906-.16695-.26907-.34007-.39474-.51522-.02608-.03587-.05574-.07-.08123-.10618a9.13945,9.13945,0,0,1-.79853-1.39156,6.90957,6.90957,0,0,1,.41086-5.05175,16.70493,16.70493,0,0,1,5.44392-7.022,22.0184,22.0184,0,0,1,8.68411-3.5017,72.83574,72.83574,0,0,1,9.33779-1.03644c2.36246-.13076,4.7716.22409,7.14337.168s4.71559.13076,7.10605.17745,4.76228-.07475,7.11537.112a31.032,31.032,0,0,1,7.98377,1.75551,19.97365,19.97365,0,0,1,7.10487,3.93028l.00118.00091C179.54194,139.94975,182.502,144.1891,180.81189,148.00823ZM67.28207,264.4569c-.89958-.45166-1.80279-.89647-2.71618-1.32323-.06736-2.38762-.18865-4.80223-.3359-7.22653q-.16377-2.69614-.3934-5.41212-.23606-2.79278-.54055-5.59722c-2.25873-20.71993-7.355-41.73945-15.31408-58.81016.019-.17.04413-.3269.066-.49059a15.10177,15.10177,0,0,1,.48352-2.35806c.78493.112,1.56349.256,2.33777.41857a36.47589,36.47589,0,0,1,9.88139,3.629c.41488.22467.83136.44625,1.238.68737,4.21129-2.54923,12.24181-6.09757,12.24181-6.09757l2.92614-1.06942c4.26457,4.43116,11.06605,9.92424,16.179,7.30706,2.6584-1.35343,3.93719-4.52127,4.7905-7.34325a40.969,40.969,0,0,0,4.65,6.16668c1.51273,1.98892,6.19094,9.40313,7.28345,9.92606,1.438.68164,3.11884-8.60946,4.52882-7.93714.42023,3.09084.93379,3.88456,2.62392,9.24441,1.86758,5.92017,2.69867,13.20361,11.20537,10.01012.95366-.358,1.91824-.77754,2.88084-1.23054q1.1178-.526,2.22387-1.11381c.21547-.11448.429-.23239.643-.34955a1.66534,1.66534,0,0,0-.10774,1.35863,73.2292,73.2292,0,0,1,2.87436,17.237c.13392,1.87352.244,3.75074.3564,5.62759q.03245.54159.06527,1.08313c-14.09547.78675-30.028,2.25466-42.00514,3.81885-.62895.08214-1.26679.16412-1.87288.24669A27.37862,27.37862,0,0,1,89.395,224.01776a13.773,13.773,0,0,0-1.03227-3.65184c-.956-2.05028-2.18-2.49616-2.74953-1.17582-1.44735,3.37094-.79372.32685,3.7818,14.94043.93379,3.11885-1.67145-3.60434-4.62221-4.66889-1.15788,3.64172,1.07387,3.52033,2.80137,5.88278s-5.77077-1.04581-5.74276,3.5017c.23683.03791.49391.06961.76747.0966,4.04064.39876,11.823-.27833,15.59236,1.31338q.19734,2.31047.42387,4.59516c.62793,6.35523,1.41506,12.61236,2.28829,19.0494q.20715,1.52736.42093,3.07087c.14023,1.01379.28293,2.0393.42665,3.06535.341,2.43517.68818,4.89605,1.04378,7.421C88.00157,276.691,78.01613,269.84621,67.28207,264.4569Zm93.25379,44.63121a80.91456,80.91456,0,0,1-20.89717,2.08149,94.155,94.155,0,0,1-24.85428-3.87754,285.02119,285.02119,0,0,1-9.42727-37.255q-.28176-1.52631-.54933-3.06557-.26713-1.52751-.52-3.07087c-1.27895-7.72354-2.34168-15.699-3.2579-24.13943,13.25962-2.39046,26.68732-4.0619,40.15245-3.9592,4.31485.17124,8.6493.29145,12.93058.85326,1.55578.20417,3.105.46295,4.64308.80886.08766.56936.16626,1.13818.2408,1.70668,1.09079,8.31924.8584,16.54692,1.51439,24.72983q.12321,1.53643.2959,3.07087c.02051.18361.03753.36738.05927.55094q.143,1.24856.25585,2.51816c1.129,12.58312.28936,26.546,2.70423,38.1479C162.76064,308.519,161.65679,308.81256,160.53586,309.08811Zm-15.705-80.48043a6.63124,6.63124,0,0,1-.16551-1.22829,3.22513,3.22513,0,0,1,.11593-1.079,2.86646,2.86646,0,0,1,2.90948-2.00246,7.62063,7.62063,0,0,1,1.32044.21707,1.94322,1.94322,0,0,1,1.61271,1.61485,4.27593,4.27593,0,0,1,.07362.9694c-.06538,1.99834-.38285,2.80137-2.80132,3.01614C145.87338,230.35757,145.12331,229.76123,144.83084,228.60768Zm29.60333,66.63865c-1.23434.41648-2.25734.81176-3.30882,1.13539a17.52315,17.52315,0,0,1-5.57142.7882c-.28845-6.421-1.1513-16.234-.9354-22.34564l.00161-.06506a13.51363,13.51363,0,0,0,2.92683-.49675c.49685-.12492.993-.25305,1.49367-.35972l.02607-.0053c.13146-.02779.26425-.04937.3964-.07357a10.1107,10.1107,0,0,1,1.07719-.14784l.663.07469c.803,6.89128,3.54833,13.91332,3.20286,21.4956Zm-10.32786-25.84156c-.06195-.81245-.12037-1.62244-.17986-2.43324q-.11284-1.53706-.21793-3.07087c-.40722-5.91454-.72427-11.79508-.85016-17.68434-.06088-2.848-.08069-5.69827-.04042-8.55608a25.48909,25.48909,0,0,1,8.348-.93379,55.95973,55.95973,0,0,1,1.35435,6.5995c.97957,6.52325,1.22834,13.72569,1.85569,20.57471q.142,1.55049.3163,3.07087c.02345.20492.04417.41236.0687.61626C170.94147,268.37963,168.17121,268.837,164.10631,269.40477Zm2.21338-38.43967.028-.0001c-1.64268.96629-3.61586.61412-6.48679.12133-.42494-.07293-.87258-.14757-1.33913-.22291-.15046-.02431-.29627-.04867-.45129-.07266-.14634-.02271-.3-.044-.45059-.06619a42.627,42.627,0,0,0-6.82514-.48823,4.11082,4.11082,0,0,0,.99537-2.857,3.88893,3.88893,0,0,0-.3873-1.72258,4.15114,4.15114,0,0,0-1.402-1.71267,3.067,3.067,0,0,0-2.24465-.49595v-.00005c-2.3775.35378-3.882,1.46331-4.20712,3.28639a4.39477,4.39477,0,0,0-.06956.77556q0,.04724.00107.09441a4.34957,4.34957,0,0,0,1.21,2.83623q-1.775.07018-3.61415.15887-.02811-.4314-.05531-.863-.07044-1.10775-.1396-2.216c-.45959-7.3189-.97695-14.6379-3.21946-21.67412a1.79723,1.79723,0,0,0-1.85558-1.28832,82.33383,82.33383,0,0,0,6.96431-4.59367c.79912-.58654,1.51755-1.13405,2.13579-1.62239a24.90851,24.90851,0,0,0,2.36406-2.02951c.9618-1.0925,1.382-1.64343,2.101-2.43715a4.38508,4.38508,0,0,0,3.58036-.11689c.1412-.05815.28064-.11978.419-.18334.036-.01655.07256-.03224.10843-.049.10394-.04862.20669-.09858.30939-.14848a6.11446,6.11446,0,0,1,3.20238-.96828c2.80132.29884,7.08736,2.80132,13.23167,3.30562s9.49651.775,11.13063-1.60612c1.67808-3.16719,2.38034-8.977,1.94838-14.50911l5.39107,1.763-.2334-3.50164-1.42428-5.68371-.56469-2.25343-.29569-.805,5.7863,1.50529,9.67691,1.31579c.04706.238.09011.48587.12781.75719a7.32875,7.32875,0,0,1-.22821,1.97205c-.78156,3.81564-3.21566,11.28977-3.563,13.03376-1.86753,9.44982-6.20958,21.93447-10.27153,31.83251-1.494,3.60435-2.91339,8.10517-4.87436,8.88025C177.42231,230.45149,170.89521,228.117,166.31969,230.9651Zm15.30637,32.30013c-.139.00123-.26714.01457-.41268.00852-.14147-1.74588-.34372-3.51134-.56781-5.28195-.94455-7.46261-2.45032-15.05711-3.1673-22.06844,2.48384-.1307.93379-.056,4.54751-.2054l1.50336.18677c2.89358,5.00378,4.07352,12.51319,4.42146,19.334.063,1.23482.09729,2.44282.11089,3.61339.01066.91869.0105,1.8172-.00353,2.67549h.028C185.80565,261.96235,184.27857,263.24151,181.62606,263.26523Zm41.486-15.24944a15.34485,15.34485,0,0,1-3.14824,13.44778,10.04467,10.04467,0,0,1-5.069,3.11745h.028c-4.42606,1.07387-11.20532,1.354-14.10934-.04669,2.83152-1.54245,6.78574-1.8678,10.35838-2.61166a25.07586,25.07586,0,0,0,2.62109-.6659c-5.26637-2.26537-12.782-.59238-19.37132-.53728-.77128.00643-1.53292-.004-2.27362-.051q-.08723-.89523-.17205-1.80027c-.13745-1.46015-.27276-2.9339-.41246-4.40711-.64529-6.80442-1.3929-13.58743-2.9732-18.86456a10.45819,10.45819,0,0,1,1.80311-1.50084c4.74386-3.1831,12.98718-4.38768,17.937-7.55685,1.07386-.57895.42023-.28948,2.02629-.719a8.15963,8.15963,0,0,1,7.41421,4.10859,9.28778,9.28778,0,0,1,.50263.88625,41.71832,41.71832,0,0,1,2.5677,7.50673C221.7573,241.7782,222.54475,245.45837,223.112,248.01579Zm23.33-62.367-28.908,36.24771c-7.86849-4.00022-20.43779,1.72846-27.89789,5.45484,4.57552-12.04573,8.516-24.53969,12.55929-38.05146a99.148,99.148,0,0,0,4.54751-20.68319c-3.57634-4.6689-6.37771-4.6689-10.89722-5.6587-5.4096-2.242-9.18835-3.18064-11.33078-4.20214a3.36867,3.36867,0,0,1-1.9759-1.77832,1.92544,1.92544,0,0,1-.07432-.22912c-.48556-2.39051,5.60268-10.67308,6.89127-13.28768a74.90607,74.90607,0,0,0,3.96857-11.42947c3.95325-16.69149,6.23758-33.80488,4.14961-50.61043-.48235.2785-.99.5421-1.52232.79543-.17686.08417-.35137.16942-.53492.25129-.17355.07738-.35667.15223-.5367.22779-.445.18682-.9053.37-1.39525.54793.28064,3.36409.37536,6.9497.5586,10.54982.90825,17.53575-2.58762,35.565-10.23357,49.4655a11.91331,11.91331,0,0,0-1.392-3.93451h.00005a19.26332,19.26332,0,0,0-5.34122-5.33185,24.09163,24.09163,0,0,0-6.68587-3.26824,34.13868,34.13868,0,0,0-7.55423-1.40066c-2.55854-.28015-5.08908-.99917-7.70368-.99917s-5.21052.7377-7.74105.7377c-2.70793.02806-5.50925-.70964-8.31057-.56957a61.09185,61.09185,0,0,0-8.25461,1.10182,31.44985,31.44985,0,0,0-7.73168,2.93208c-3.54834,1.68081-5.87347,4.76228-7.6663,8.21724-1.326,2.54922-1.92359,5.07044-.7844,7.79706.05606.04669.03737.08406.05606.14939s-.13076.19609-.13076.26147c1.23408,2.61926,3.51953,4.96,6.45825,5.33271-1.295.40432-2.53407.79558-3.683,1.163-4.33889-4.51929-8.00626-9.72344-11.99164-15.25459.2228,6.23817,4.4432,11.46336,8.789,16.29424-1.10455.36534-2.02394.67843-2.682.91526-2.68.97111-5.11713,2.54922-7.741,3.66978-1.35332.56636-2.98364,1.45967-4.55549,2.16626-.40368.18147-.80373.35191-1.19386.49948.04958-.06864.2258-.25986.184-.46205-1.25126-4.2393-3.73511-8.40395-8.404-9.56183a10.27176,10.27176,0,0,0-2.82178-.28251,76.75778,76.75778,0,0,1-4.28427-12.36085,24.27976,24.27976,0,0,1-.79372-5.31322c.54939-2.99387,5.76649-4.352,3.95492-8.426-.036-.08107-.05671-.15619-.09842-.23946-3.94983,0-4.83693,3.59509-8.46,3.94988-3.93843.39191-7.38674-1.74008-10.03476-4.93727-3.66164-4.421-5.78988-10.8826-5.54063-15.55916.35485-6.86327,6.15358-13.4277,14.08134-12.55929,4.499.49488,6.58751,4.53723,7.81677,8.90981.30152,1.07263.55329,2.16428.774,3.22931,3.23086.168,7.89976-.14008,9.43118-2.6613-.15973-4.38622-1.65329-8.15142-2.42939-11.99807a20.223,20.223,0,0,1-.456-4.73524c.0354-.64218.08809-1.28291.15154-1.92252-.14367-.01162-.2906-.0234-.43217-.035-.18624-.01526-.36556-.0302-.548-.0453-.11689-.00969-.23411-.01933-.34934-.029l-.12894-.01071q-.7452-.06225-1.43932-.12193c-1.20559-.10361-2.28068-.19956-3.19391-.28294q-.42233-.03855-.79564-.07314c-.28632-.02656-.55528-.05162-.79415-.07416-.99445-.09376-1.5651-.15068-1.5651-.15068H81.794s.40385-.27667,1.10846-.74852c-3.84857,1.70416-2.37059.52347-8.27983,4.83848a38.63508,38.63508,0,0,0-7.39054,1.34111c-.20969.05923-.42184.10881-.63062.17162a23.5669,23.5669,0,0,0-3.22556,1.34593l-.02313.011c-.071.0007-.14109.00343-.21258.00225-.01328-.00026-.02618.0007-.03946.00043h-.00027a5.60589,5.60589,0,0,1-1.0842-.12476c.29857-.31421.62012-.64571.954-.98605l.03529-.036c.06436-.06554.12594-.129.19158-.1955l.02405-.02457a89.81165,89.81165,0,0,1,18.1526-14.35421c11.74689-7.37683,27.10755-13.33437,39.21866-17.57372,10.87372-3.80622,25.67969-6.69637,34.79281-8.04579,1.03708-.15357,2.0196-.29236,2.89449-.40491,2.74831-.35367,5.0872-.61321,7.36644-.74263a54.69705,54.69705,0,0,1,7.50861.08594c2.67484.20621,5.68456.59966,9.44987,1.23563.10318.01745.1948.03523.29675.05274,8.18088,1.40323,12.26639,2.96763,13.79824,3.66582q-.28883,1.34053-.68517,2.65342c-.12166.40048-.2446.79988-.38147,1.19569.35234.165,1.0132.50986,1.80274.98509.22147.13327.45016.27447.68828.42783.14393.09263.29054.19057.43828.29q.25244.16979.508.352a13.75448,13.75448,0,0,1,3.4353,3.28591l18.845,9.08137a13.5344,13.5344,0,0,1,6.38869,8.01863l20.95151,91.8684A13.52246,13.52246,0,0,1,246.442,185.64883ZM88.68535,95.93144c.80308,3.49227,3.58571,8.91756-.84972,9.039.06131-5.44194-3.60751-9.78726-8.45622-11.65425a67.81225,67.81225,0,0,1,8.55892-4.2853l.18532-.03866C87.97238,92.36634,88.06073,92.12918,88.68535,95.93144Z"/><path class="cls-1" d="M103.66316,163.75174q4.314-1.8675,8.74948-3.44564c.63918-.22269,2.12514-.69395,4.04627-1.29147l-.044-.04664c-1.94078.60539-3.44258,1.08618-4.08626,1.31943q-4.42606,1.59674-8.74949,3.44563c-.91119.39212-1.92825.893-2.96463,1.35692l.0332.04128C101.70176,164.66122,102.73708,164.15034,103.66316,163.75174Z"/><path class="cls-1" d="M69.08566,104.31429a5.31868,5.31868,0,0,1,.94471-.65572A3.71876,3.71876,0,0,0,69.08566,104.31429Z"/><path class="cls-1" d="M125.79017,156.09411c-1.97826.60047-4.03229,1.2261-5.93532,1.8104l.04959.04573c1.89392-.5821,3.93906-1.20693,5.91133-1.80783Z"/><path class="cls-1" d="M91.04063,88.80777c-.06345.63961-.11614,1.28034-.15154,1.92252a20.223,20.223,0,0,0,.456,4.73524l-.18671-6.64823Z"/><path class="cls-1" d="M88.2663,156.30337l.00305.00621a6.91348,6.91348,0,0,1,1.47557.41723A6.934,6.934,0,0,0,88.2663,156.30337Z"/><path class="cls-1" d="M97.13605,166.329a9.24487,9.24487,0,0,0,1.63412-.43887c.62226-.21209,1.25239-.48,1.87754-.75885l-.0332-.04128c-.62269.27876-1.25025.545-1.87112.75944l.00809.022a9.24054,9.24054,0,0,1-1.63412.43886c-.542.09039-1.05223.20005-1.36676-.0762C96.0632,166.53244,96.58286,166.42117,97.13605,166.329Z"/><path class="cls-1" d="M151.319,119.94857l-.00707.01773.00616-.0082Z"/><path class="cls-1" d="M98.89086,177.46784c-.01837.11828-.0378.23528-.05665.35276q.41678.60159.868,1.2548l.27105.09333Z"/><path class="cls-1" d="M122.94869,204.04122q-.43766-.85388-.96865-1.852A3.3732,3.3732,0,0,0,122.94869,204.04122Z"/><path class="cls-1" d="M206.97232,235.13988a14.10977,14.10977,0,0,1,3.21624-1.09336q-1.26551.03752-2.46237.14811c-6.06409.55072-10.8093,2.51147-13.664,6.53776C198.82158,241.036,202.51974,237.224,206.97232,235.13988Z"/><path class="cls-1" d="M205.35453,242.09294a18.95446,18.95446,0,0,0-4.06506.17264,5.85938,5.85938,0,0,0-4.10849,2.13654c.75955.05842,1.5416.082,2.3322.09076,1.315.01462,2.66151-.02988,4.019-.1148,1.40591-.08792,2.81567-.2136,4.20765-.35657,1.7508-.1798,3.47032-.38028,5.09132-.55318a27.39949,27.39949,0,0,0-3.88626-.95773A30.65688,30.65688,0,0,0,205.35453,242.09294Z"/><path class="cls-1" d="M199.10875,249.92444a4.95563,4.95563,0,0,0-2.17992,1.23825c.36251.03036.74938.05547,1.12645.08273,1.19569.08653,2.45033.15833,3.75118.21515,4.21723.184,8.81433.22071,12.73347.141h0a32.02176,32.02176,0,0,0-11.09673-2.19308A14.34156,14.34156,0,0,0,199.10875,249.92444Z"/><path class="cls-1" d="M108.49451,89.86836,108.421,89.866l.02308.07995Z"/><path class="cls-1" d="M70.03037,103.65857a5.31868,5.31868,0,0,0-.94471.65572,7.74974,7.74974,0,0,0-2.41884,5.03558,5.02622,5.02622,0,0,0,.80062-.6969c.97625-.99274,1.99861-2.27394,3.81227-1.38545-2.02629,3.94988-1.58743,11.6535,1.21394,14.14672-.01868-4.68759-.747-12.70874,3.25887-12.46591,2.792.168,3.36163,6.16289,5.75208,7.52623,1.38315-6.67458-2.3587-11.60387-6.447-13.02927A6.25306,6.25306,0,0,0,70.03037,103.65857Z"/><path class="cls-1" d="M145.93523,207.55529c-2.69856.40148-4.27667,1.78345-4.27667,4.07121q0,.052.00128.104a4.174,4.174,0,0,0,4.27539,4.07c.02966-.0007.05927-.00161.08888-.00289a4.12733,4.12733,0,0,0,3.94507-4.30184C150.04387,209.97375,148.62453,207.15374,145.93523,207.55529Zm.09338,6.68581c-2.61455.29879-3.08141-.8124-3.23086-2.75467a2.801,2.801,0,0,1,3.02546-3.0721c2.23175.19608,3.07215.79371,3.00677,2.80131S148.44713,214.017,146.02861,214.2411Z"/><path class="cls-1" d="M184.32291,86.18283l-.02806-.03737a19.59185,19.59185,0,0,0,.02206,2.609,21.0123,21.0123,0,0,0,1.42877,6.04894c.58419,1.54363,1.24885,3.012,1.81741,4.5737-2.54923,1.61543-7.51691.60694-10.39293,1.86752-.20545,8.46934,13.10086,4.24867,15.12721-.42017-2.99746-4.37011-5.07045-9.66464-7.47022-14.64165Z"/><path class="cls-1" d="M202.81168,67.18977c-.09071-.16846-.19555-.335-.306-.50061a13.75448,13.75448,0,0,0-3.4353-3.28591q-.25629-.18209-.508-.352c-.14774-.09944-.29435-.19738-.43828-.29-.23812-.15336-.46681-.29456-.68828-.42783-.78954-.47523-1.4504-.82012-1.80274-.98509-.08294-.03882-.15153-.06945-.19822-.08814A40.34385,40.34385,0,0,0,185.227,58.36258l-.00466-.00058c-.23105-.03192-.46371-.06335-.70407-.09248-.22522-.02725-.46023-.05183-.69418-.07662-.35672-.03781-.72024-.07379-1.09882-.10554-.66327-.05569-1.36858-.10024-2.10687-.13649-1.27242-.06244-2.64914-.0989-4.186-.0989-.20155,0-.3986.00359-.59961.004-2.7814.00552-5.51011.05414-8.20074.15341-2.16889.08-4.31571.19293-6.43951.35346q-2.03175.15349-4.04059.36824c-3.25084.34183-6.46724.79441-9.66668,1.40869-8.75168,2.08021-15.465,3.90977-20.90755,5.61864-1.45651.45734-2.823.90616-4.11084,1.34861-2.98177,1.02423-5.55348,2.01559-7.88793,3.00373q-.836.35381-1.63412.70777c-1.88857.83612-3.64253,1.67583-5.3658,2.5369-.7067.35314-1.40917.70944-2.11379,1.07114-.91794.33573-1.92353.7656-2.98048,1.25769a119.00967,119.00967,0,0,0-10.91751,6.01221c-.05408.03293-.10908.06608-.16294.099-.07615.04648-.15015.09226-.22586.13858-.07389.04525-.147.09017-.2205.13531-.18763.11513-.37525.2302-.55993.3443L90.349,82.444c-3.23536,2.00016-5.99105,3.81789-7.44649,4.79248-.70461.47185-1.10846.74852-1.10846.74852h.00005s.57065.05692,1.5651.15068c.23887.02254.50783.0476.79415.07416q.37268.03455.79564.07314c.91323.08338,1.98832.17933,3.19391.28294q.69372.0596,1.43932.12193l.12894.01071c.11523.00963.23245.01927.34934.029.18243.0151.36175.03.548.0453.14157.01157.2885.02335.43217.035l.11775.00953c5.21094.42152,11.733.87821,17.26261,1.0487l.07352.00236c2.25472.06859,4.34452.09012,6.10313.04021,4.61295-.13087,11.633.07679,19.09208.25349,1.40633.0333,2.82841.06522,4.25274.09381-.053-.32545-.09-.64491-.1154-.95981a7.16907,7.16907,0,0,1,.30184-2.96383v-.01869a39.65808,39.65808,0,0,1,1.82223,3.98024,201.82561,201.82561,0,0,0,20.467-.38521c12.2045-1.1672,17.08811-2.55854,26.05237-4.6689a63.17742,63.17742,0,0,0,7.01443-1.99636c.48995-.17793.95029-.36111,1.39525-.54793.18-.07556.36315-.15041.5367-.22779.18355-.08187.35806-.16712.53492-.25129.5323-.25333,1.04-.51693,1.52232-.79543a24.87043,24.87043,0,0,0,5.33753-4.277C205.30489,72.24152,205.30489,70.69141,202.81168,67.18977ZM125.056,86.87379c-4.05258,0-6.83521-.3081-11.86833-.60694l-2.39855-.14517-1.56692-.09483-5.33849-.32315L95.44592,85.193c1.74009-1.25265,3.54518-2.40973,5.39659-3.48815,1.0744-.62579,2.16032-1.232,3.26883-1.79706a50.46565,50.46565,0,0,1,8.83355-3.77371c.09087-.029.17975-.06367.27078-.09216l1.21555.87329,1.99385,1.43235,5.11209,3.67262,7.19794,5.17106S129.16459,87.33134,125.056,86.87379Zm7.06873.33616-6.81042-5.97788-4.35116-3.81923-3.65752-3.21041,5.22915-1.76483,3.92124,3.86025,3.936,3.87476L137.54059,87.21Z"/><path class="cls-1" d="M143.2273,102.20645c-3.12817,3.03478-8.74012.51356-12.92346.31747-3.96857,6.303,7.78769,7.48891,12.83944,5.99486a9.00523,9.00523,0,0,0,4.10859-3.41763c1.40066-3.94056-1.42866-5.66807-2.88538-7.08736-2.208-2.15057-3.25164-4.877-4.41536-7.72a39.65808,39.65808,0,0,0-1.82223-3.98024v.01869a7.16907,7.16907,0,0,0-.30184,2.96383c.02539.3149.06239.63436.1154.95981a28.87977,28.87977,0,0,0,3.21972,8.41257C141.88725,100.01384,142.61773,101.23159,143.2273,102.20645Z"/><path class="cls-1" d="M170.79245,114.50427a14.34386,14.34386,0,0,1-1.15788-1.06449c-3.68842-4.034-8.50671-9.77666-10.421-14.27748a2.74076,2.74076,0,0,1-.1027-.44823c-.16808-.803-.40149-1.86753-1.17657-2.20369a1.32606,1.32606,0,0,0-1.298.27078l-.18677.14007v.2241c-.1774,6.53647,4.39812,12.0551,8.06785,16.46253l.663.78434c.30811.38286.62564.72839.93379,1.06455,1.50337,1.62475,2.50248,2.7173,1.10182,5.18246-.81234.31747-1.73682.76571-2.70793,1.23258-3.02546,1.466-6.79789,3.28687-10.06613,2.72662-1.23258-.21478-1.51273-1.10182-1.86758-2.55854a6.53534,6.53534,0,0,0-.607-1.86753l-.35479-.60694-.29456.3927-.00616.0082-.11951.15935a5.94813,5.94813,0,0,0,.76571,7.657l.112.09339h.14944a22.51535,22.51535,0,0,0,2.34377.12139c7.09673,0,12.21381-3.29619,16.41579-5.98549l.25214-.16808-.04669-.29884a4.66811,4.66811,0,0,1,.44824-1.80215,6.23779,6.23779,0,0,0,.61626-3.56708C172.11841,115.64352,171.53015,115.13928,170.79245,114.50427Z"/><path class="cls-1" d="M99.85335,174.74229l-.13076.06538C99.3678,175.19053,99.68527,174.96638,99.85335,174.74229Z"/><path class="cls-1" d="M85.15564,167.54291a19.68424,19.68424,0,0,1-5.07038,1.26058c-.26131.024-.55244.055-.85626.079a4.54432,4.54432,0,0,1-2.56138-.33113,1.401,1.401,0,0,0-1.41,2.41846,6.68462,6.68462,0,0,0,3.24451.829,20.71816,20.71816,0,0,0,7.40056-1.548,1.40953,1.40953,0,0,0,.92452-1.17711C86.94649,168.14365,86.256,167.12723,85.15564,167.54291Z"/><path class="cls-1" d="M84.23963,158.66974c-.76908.17627-1.48681.39083-2.05338.57187-2.35314.691-7.21812,2.20369-7.51691,5.04238-.11207,1.00849.168,1.86758,1.18588,2.157.01842.00161.03695,0,.05537.00155a11.1943,11.1943,0,0,0,1.64788.00284c.32315-.02077.64668-.03968.96737-.08846a16.44038,16.44038,0,0,0,3.64172-.35485A28.48734,28.48734,0,0,0,88.593,163.7858c.01809-.00878.03689-.01591.05493-.02474a2.49236,2.49236,0,0,0,1.28773-1.03842c.01377-.02265.02373-.04739.03674-.07047a2.48649,2.48649,0,0,0,.30034-1.459c-.131-2.04139-1.44885-2.74424-3.05288-2.84228-.03427-.00209-.067-.00723-.10158-.00878-.19067-.00851-.38521-.0075-.58194-.00064-.18848.00658-.37851.02045-.56994.039A13.73853,13.73853,0,0,0,84.23963,158.66974Z"/><path class="cls-1" d="M174.40579,36.62962l-.179.00043a4.60363,4.60363,0,0,0-.62457-.00043,6.44033,6.44033,0,0,1-1.10347-.09339.53322.53322,0,0,1-.23989-.20947l-.02485-.03941-.21589-.04669a8.311,8.311,0,0,0-1.7349-5.50754l.18677-.19405-.00771-.05312a.40777.40777,0,0,1,.05055-.269,5.84989,5.84989,0,0,1,.91756-.71538,5.56124,5.56124,0,0,0,.51062-.36711l.1268-.11737a.74479.74479,0,0,0-.96041-1.13861.47959.47959,0,0,0-.04369.04027l-.13708.12765a4.49308,4.49308,0,0,0-.3881.48235,6.36635,6.36635,0,0,1-.75821.8019.57475.57475,0,0,1-.32213.06254l-.04713-.00471-.18676.16407a8.39726,8.39726,0,0,0-5.34433-2.09044v-.23475l-.05312-.03213a.40044.40044,0,0,1-.18077-.22489,5.67352,5.67352,0,0,1,.00085-1.13775v-.59886a1.36213,1.36213,0,0,0,0-.18719.77669.77669,0,0,0-.79162-.76036h-.01371l-.19619.02442.05483.06768a.778.778,0,0,0-.496.81005l.00086.17391a4.08631,4.08631,0,0,0,.13279.60743,6.323,6.323,0,0,1,.15507,1.10519.61315.61315,0,0,1-.14736.28058l-.02913.03127v.22019a8.20032,8.20032,0,0,0-4.98792,2.8932l-.20562-.11909-.04884.018a.43746.43746,0,0,1-.287.00943,6.4334,6.4334,0,0,1-.91071-.68154,3.95218,3.95218,0,0,0-.46607-.42665l-.14907-.10281a.85318.85318,0,0,0-.51319-.14993.72044.72044,0,0,0-.57658.314.79238.79238,0,0,0,.25616,1.08206l.1465.09724a4.95632,4.95632,0,0,0,.5586.27459,6.18289,6.18289,0,0,1,.95954.56887.69007.69007,0,0,1,.12851.29472l.00771.04112.17307.13622a8.252,8.252,0,0,0-.8909,5.37009c.01895.11079.032.222.05558.33236l-.21333.084L155.334,37.68a.72219.72219,0,0,1-.19791.24074,5.83388,5.83388,0,0,1-1.07777.26859,4.39023,4.39023,0,0,0-.59715.093h-.16792l-.02913.00386a.788.788,0,0,0-.54917.95783c.009.02329.02742.039.03829.06094a.7769.7769,0,0,0,.8645.41659.72865.72865,0,0,0,.07818-.00975l.17649-.04926a2.72085,2.72085,0,0,0,.33155-.15336c.072-.03769.14479-.07582.23132-.11352a5.50255,5.50255,0,0,1,1.02809-.39881.54349.54349,0,0,1,.31528.07882l.03855.02185.2219-.054a8.46251,8.46251,0,0,0,3.93756,4.19545l-.07882.24417.02313.04155a.5765.5765,0,0,1,.07026.28144,6.93391,6.93391,0,0,1-.47721,1.02551,4.96041,4.96041,0,0,0-.30585.544l-.01114.048a.55376.55376,0,0,1-.066.13451.74822.74822,0,0,0-.04289.20818.77867.77867,0,0,0,.45327.81562.75325.75325,0,0,0,.25188.04369.76366.76366,0,0,0,.55731-.25092.74032.74032,0,0,0,.16321-.25712.25685.25685,0,0,0,.0137-.057.27816.27816,0,0,1,.024-.05183.3516.3516,0,0,0,.0377-.087,5.41218,5.41218,0,0,0,.14222-.60828,4.46018,4.46018,0,0,1,.38382-1.13218.43206.43206,0,0,1,.1979-.108l.05141-.01285.10452-.23218a8.38074,8.38074,0,0,0,4.75232-.02741,8.19949,8.19949,0,0,0,.98439-.377l.13537.19962.05226.00429a.39215.39215,0,0,1,.25274.11737,5.72162,5.72162,0,0,1,.50547,1.01181c.0317.07325.0574.14393.0831.21375a3.00564,3.00564,0,0,0,.1585.37226s.06169.09509.08653.14436a.74465.74465,0,1,0,1.35536-.61728.688.688,0,0,0-.0694-.11866l-.09681-.16449a5.20424,5.20424,0,0,0-.37953-.49477c-.09644-.114-.18575-.23507-.27341-.35678a5.847,5.847,0,0,1-.35372-.54622.42079.42079,0,0,1,0-.30329l.01713-.04412-.0197-.04284s-.04113-.08567-.07882-.16149a8.34143,8.34143,0,0,0,3.23161-4.79859h.22961l.03255-.03213a.43774.43774,0,0,1,.25531-.12765,5.9414,5.9414,0,0,1,1.1129.23989c.08139.02227.15593.04755.22961.07282a2.71781,2.71781,0,0,0,.3881.10838l.13622-.00214a.76139.76139,0,0,0,.90214-.5933l.00429-.02741A.78046.78046,0,0,0,174.40579,36.62962Zm-6.57717-5.819-2.45627,2.04374a.463.463,0,0,1-.62541-.03769.41547.41547,0,0,1-.11138-.257l-.43951-3.16394A6.5757,6.5757,0,0,1,167.82862,30.81066Zm-4.575,4.138.91157-.07539.61857.66054-.13366.90386-.78648.46007-.83618-.33456-.275-.83575Zm-5.2895-1.93537,2.54794,1.94651a.44966.44966,0,0,1,.10538.61556.47683.47683,0,0,1-.21932.17392l-2.98573,1.121A6.47145,6.47145,0,0,1,157.96414,33.01333Zm3.62914,5.42914-.48271,1.48291-.50339,1.54652a6.55559,6.55559,0,0,1-2.66617-2.85637l.2974-.07448,2.768-.69315.13022-.00043a.44535.44535,0,0,1,.45664.31742A.43945.43945,0,0,1,161.59328,38.44247Zm.43009-5.23937a.40255.40255,0,0,1-.269-.069l-2.75355-1.65008a6.42254,6.42254,0,0,1,2.87007-1.821,4.04626,4.04626,0,0,1,.50376-.12552l.06254,3.19992A.44972.44972,0,0,1,162.02337,33.2031Zm3.70367,8.80083c-.06666.02083-.13547.03015-.20256.04878a6.4222,6.4222,0,0,1-3.18755.07416l.59843-1.322.72009-1.59085a.43228.43228,0,0,1,.34955-.24589l.01714-.003a.40806.40806,0,0,1,.1979-.00257.41449.41449,0,0,1,.215.17221l1.79058,2.68544Zm2.05874-1.06192-1.453-2.87222a.4395.4395,0,0,1,.1722-.59157.49644.49644,0,0,1,.16878-.06083l.09167-.01542V37.3994l3.22305.287A6.46106,6.46106,0,0,1,167.78578,40.942Zm-.71709-5.711a.45.45,0,0,1-.35983-.51361.42222.42222,0,0,1,.11909-.24588l2.23352-2.33333a6.67852,6.67852,0,0,1,.85159,1.79487,6.53663,6.53663,0,0,1,.29558,1.94393Z"/><polygon class="cls-1" points="176.825 137.438 176.823 137.437 176.825 137.438 176.825 137.438"/><path class="cls-1" d="M180.81194,148.00823h0l-.00734.01526Z"/><path class="cls-1" d="M159.3443,148.25106a4.88367,4.88367,0,0,1-.42436.60523,4.8626,4.8626,0,0,0,.45247-.63329,1.84985,1.84985,0,0,1,.1873-.18457c-.01724.015-.03689.02522-.05371.041A1.862,1.862,0,0,0,159.3443,148.25106Z"/><path class="cls-1" d="M123.62814,151.60733a3.71513,3.71513,0,0,1-2.13183.54515q-.18184-.00891-.36219-.03561a6.14187,6.14187,0,0,1-3.36628-2.19839,6.161,6.161,0,0,0,3.39439,2.2264,3.77761,3.77761,0,0,0,4.23909-3.15151,3.73964,3.73964,0,0,0,.03759-.41552,1.24472,1.24472,0,0,1,.27721-.89219,1.22284,1.22284,0,0,0-.30527.92025A3.72986,3.72986,0,0,1,123.62814,151.60733Z"/><path class="cls-1" d="M135.24464,150.02986c-.00878.00787-.01611.01772-.025.02549l.03164-.02737a4.27024,4.27024,0,0,0,1.18755-1.73028,1.69848,1.69848,0,0,1,.30832-.52486,1.66866,1.66866,0,0,0-.33643.55291A4.25637,4.25637,0,0,1,135.24464,150.02986Z"/><path class="cls-1" d="M147.41455,149.73166a2.92543,2.92543,0,0,1-.47881.64239,2.9826,2.9826,0,0,0,.48727-.63286,2.20875,2.20875,0,0,0,.29584-.92056,1.59742,1.59742,0,0,1,.46371-1.04742,1.48852,1.48852,0,0,0-.49177,1.07548A2.197,2.197,0,0,1,147.41455,149.73166Z"/><path class="cls-1" d="M170.0774,149.02726a4.00868,4.00868,0,0,0,.75243-1.06573,1.69283,1.69283,0,0,1,.14489-.24695,1.58226,1.58226,0,0,0-.17295.275A4.02349,4.02349,0,0,1,170.0774,149.02726Z"/></svg>