<svg id="svg2" xmlns="http://www.w3.org/2000/svg" viewBox="0 0 496.98353 518.43619"><defs><style>.cls-1{isolation:isolate;}.cls-2{fill:#fff;}</style></defs><title>jenkins-stacked-white</title><g id="text5675"><g class="cls-1"><path class="cls-2" d="M75.7162,437.14122q-2.33869.29325-3.975.58553-1.63724.29325-3.68269.81837a4.19253,4.19253,0,0,0-3.0689,2.28139,9.78914,9.78914,0,0,0-.67224,3.74406v45.74521A26.28093,26.28093,0,0,1,61.7746,501.899a25.25616,25.25616,0,0,1-6.98541,8.832,32.25831,32.25831,0,0,1-10.05432,5.29476,38.59906,38.59906,0,0,1-11.86644,1.78353q-10.93164,0-17.62428-5.261Q8.55,507.28731,8.551,498.10982a13.3111,13.3111,0,0,1,3.0689-9.00212,10.55934,10.55934,0,0,1,8.4468-3.56578,11.00191,11.00191,0,0,1,8.09607,2.98123,9.95721,9.95721,0,0,1,3.01045,7.36537,10.73261,10.73261,0,0,1-2.60127,6.92761,40.24868,40.24868,0,0,1-5.93321,5.87411v.75992a4.34907,4.34907,0,0,0,2.28625,1.98748,8.37279,8.37279,0,0,0,3.57584.81838,13.36294,13.36294,0,0,0,11.04871-5.03041q4.01589-5.03106,4.01621-15.21073V445.1561a8.39358,8.39358,0,0,0-.64658-3.51025,5.66264,5.66264,0,0,0-3.11275-2.45674,22.598,22.598,0,0,0-4.25814-1.287q-2.496-.52609-4.14124-.76089V432.5817H75.7162Z"/><path class="cls-2" d="M145.04424,501.55869a35.58574,35.58574,0,0,1-4.93947,6.2846,29.98293,29.98293,0,0,1-6.57623,5.05574,36.02337,36.02337,0,0,1-7.9207,3.36183,33.71607,33.71607,0,0,1-9.20672,1.13923,40.99549,40.99549,0,0,1-14.93534-2.45513A29.27154,29.27154,0,0,1,91.09,508.33951a26.42393,26.42393,0,0,1-6.10859-9.79062,36.12428,36.12428,0,0,1-2.01671-12.247,30.7355,30.7355,0,0,1,8.41757-21.16051,29.8173,29.8173,0,0,1,10.0251-6.72236,34.26759,34.26759,0,0,1,13.53241-2.572,38.55355,38.55355,0,0,1,13.44473,1.98748,23.80664,23.80664,0,0,1,8.70985,5.49481,19.93723,19.93723,0,0,1,4.85179,7.86224,29.67891,29.67891,0,0,1,1.51984,9.49867v3.7996H103.95013q0,11.98431,4.618,18.23807,4.617,6.25666,14.67229,6.25472a17.04717,17.04717,0,0,0,9.879-3.0098,28.188,28.188,0,0,0,7.48229-7.62908Zm-22.32994-22.213q0-3.50733-.35073-7.19a23.94712,23.94712,0,0,0-1.22756-6.02058,9.26474,9.26474,0,0,0-2.71818-4.15033,6.677,6.677,0,0,0-4.35492-1.40293q-4.502,0-7.19,4.55952-2.68943,4.55952-2.92277,14.43815Z"/><path class="cls-2" d="M227.817,515.52952H192.68535v-4.26724q1.10968-.11595,2.689-.29228a7.36969,7.36969,0,0,0,2.39667-.58455,3.71728,3.71728,0,0,0,1.75366-1.87058,9.61166,9.61166,0,0,0,.52609-3.62423v-27.3571q0-5.96244-2.19857-8.97257a7.51114,7.51114,0,0,0-6.47685-3.01045,13.23539,13.23539,0,0,0-4.36661.70146,16.30016,16.30016,0,0,0-3.95613,2.04594,13.45969,13.45969,0,0,0-2.726,2.39667q-1.02589,1.22755-1.729,2.16252v31.39052a8.74477,8.74477,0,0,0,.58456,3.42029,4.07728,4.07728,0,0,0,1.929,2.07452,11.11875,11.11875,0,0,0,2.33822.93528,18.14237,18.14237,0,0,0,2.7474.58456v4.26724H150.656v-4.26724q1.4604-.11595,2.952-.32086a14.27514,14.27514,0,0,0,2.54281-.556,4.29108,4.29108,0,0,0,2.572-1.98749,7.57916,7.57916,0,0,0,.70147-3.50732V470.87a7.50949,7.50949,0,0,0-.93529-3.56578,8.37551,8.37551,0,0,0-2.45512-2.86431,9.6718,9.6718,0,0,0-2.65972-1.16911,18.77474,18.77474,0,0,0-3.53655-.643v-4.26724l27.8832-1.51984.87683.87683v8.476h.23382q1.63578-1.46042,3.975-3.50732a38.25118,38.25118,0,0,1,4.32569-3.332,21.00926,21.00926,0,0,1,5.67017-2.39667,27.343,27.343,0,0,1,7.48229-.99374q9.52724,0,14.29233,5.40712,4.76411,5.4076,4.76411,14.35046v28.64312a7.76144,7.76144,0,0,0,.643,3.44887,4.5311,4.5311,0,0,0,2.39667,2.04594,19.94094,19.94094,0,0,0,2.309.81837,16.81818,16.81818,0,0,0,3.12736.58456Z"/><path class="cls-2" d="M308.25157,515.52952H280.699q-5.08171-8.92029-9.28661-15.12955-4.20489-6.20892-7.94343-11.5157l-3.443,2.91238v12.74326a8.34239,8.34239,0,0,0,.61378,3.44887,3.89783,3.89783,0,0,0,2.36744,1.98748,14.951,14.951,0,0,0,2.45513.81837,17.49792,17.49792,0,0,0,2.80585.46765v4.26724H231.96734v-4.26724q1.4721-.11595,2.94161-.32086a16.10889,16.10889,0,0,0,2.58957-.556,4.19086,4.19086,0,0,0,2.56034-1.98749,7.81193,7.81193,0,0,0,.67679-3.50732V439.71326a10.58156,10.58156,0,0,0-.84761-4.0042,6.514,6.514,0,0,0-2.48435-3.12736,10.50055,10.50055,0,0,0-3.332-1.1691,28.91369,28.91369,0,0,0-4.03342-.58456V426.5608l29.10881-1.51984.87878.93529v60.323q4.31985-3.858,9.71983-8.94236,5.40126-5.08465,8.67087-8.41692a7.67319,7.67319,0,0,0,2.13362-3.00948,9.80339,9.80339,0,0,0,.2046-1.25679q0-1.05221-1.84589-1.75366a27.62985,27.62985,0,0,0-5.55521-1.22756v-4.15033h29.69532v4.03342a61.292,61.292,0,0,0-8.90081,3.0689,52.82069,52.82069,0,0,0-6.68209,3.82883q-2.39375,1.57828-4.63681,3.30824-2.24469,1.72833-5.15836,4.30881,5.71889,8.29774,10.56158,15.366,4.843,7.0692,10.1537,14.95677a8.84637,8.84637,0,0,0,4.49391,3.68009,22.03522,22.03522,0,0,0,5.3714,1.16911Z"/><path class="cls-2" d="M345.83836,515.52952H308.89458v-4.26724q1.51887-.11595,2.98122-.29228a10.36265,10.36265,0,0,0,2.51358-.58455,4.84724,4.84724,0,0,0,2.63049-2.01606,6.92871,6.92871,0,0,0,.75992-3.47875V470.87a6.8262,6.8262,0,0,0-.93528-3.595,7.755,7.755,0,0,0-2.33822-2.48435,12.43916,12.43916,0,0,0-3.18581-1.34447,20.8127,20.8127,0,0,0-3.88728-.81838v-4.26724l28.64312-1.51984.87683.87683v46.41322a6.538,6.538,0,0,0,.87683,3.47875,5.30768,5.30768,0,0,0,2.51358,2.133,19.51414,19.51414,0,0,0,2.572.93528,17.5626,17.5626,0,0,0,2.92277.58456Zm-8.53448-79.73277a9.88591,9.88591,0,0,1-3.41964,7.57,12.11887,12.11887,0,0,1-16.25059,0,10.12093,10.12093,0,0,1,0-15.16917,12.07348,12.07348,0,0,1,16.27982,0A10.0178,10.0178,0,0,1,337.30388,435.79675Z"/><path class="cls-2" d="M428.37731,515.52952H393.24565v-4.26724q1.10967-.11595,2.68894-.29228a7.36955,7.36955,0,0,0,2.39667-.58455,3.7172,3.7172,0,0,0,1.75366-1.87058,9.61163,9.61163,0,0,0,.5261-3.62423v-27.3571q0-5.96244-2.19857-8.97257a7.51114,7.51114,0,0,0-6.47685-3.01045,13.23541,13.23541,0,0,0-4.36662.70146,16.30034,16.30034,0,0,0-3.95613,2.04594,13.45934,13.45934,0,0,0-2.726,2.39667q-1.02589,1.22755-1.729,2.16252v31.39052a8.745,8.745,0,0,0,.58455,3.42029,4.07726,4.07726,0,0,0,1.929,2.07452,11.11842,11.11842,0,0,0,2.33821.93528,18.14288,18.14288,0,0,0,2.7474.58456v4.26724H351.21625v-4.26724q1.46042-.11595,2.952-.32086a14.27482,14.27482,0,0,0,2.5428-.556,4.2911,4.2911,0,0,0,2.572-1.98749,7.57929,7.57929,0,0,0,.70146-3.50732V470.87a7.50959,7.50959,0,0,0-.93528-3.56578,8.37553,8.37553,0,0,0-2.45513-2.86431,9.67153,9.67153,0,0,0-2.65972-1.16911,18.77478,18.77478,0,0,0-3.53654-.643v-4.26724l27.8832-1.51984.87683.87683v8.476h.23382q1.63576-1.46042,3.975-3.50732a38.25032,38.25032,0,0,1,4.3257-3.332,21.00912,21.00912,0,0,1,5.67017-2.39667,27.343,27.343,0,0,1,7.48228-.99374q9.52725,0,14.29233,5.40712,4.76412,5.4076,4.76411,14.35046v28.64312a7.76144,7.76144,0,0,0,.643,3.44887,4.53114,4.53114,0,0,0,2.39667,2.04594,19.94185,19.94185,0,0,0,2.309.81837,16.818,16.818,0,0,0,3.12736.58456Z"/><path class="cls-2" d="M460.87848,517.517a37.40418,37.40418,0,0,1-11.07729-1.66533,36.21025,36.21025,0,0,1-8.38834-3.5372l-1.75366,3.975h-4.55952l-.75992-21.80385H438.607a28.95467,28.95467,0,0,0,2.92277,5.93387,32.6768,32.6768,0,0,0,4.67643,5.93257,26.42425,26.42425,0,0,0,6.284,4.4426,16.3575,16.3575,0,0,0,7.57,1.81212q5.31846,0,7.9207-2.07452,2.60028-2.07516,2.60126-6.40151a6.15294,6.15294,0,0,0-1.16911-3.858,10.01018,10.01018,0,0,0-3.215-2.63049A29.85248,29.85248,0,0,0,461.2,495.6547q-2.71818-.81741-6.69314-1.98748a64.17951,64.17951,0,0,1-6.81-2.3668,23.27864,23.27864,0,0,1-5.87476-3.771A16.5049,16.5049,0,0,1,436.035,474.377a15.78676,15.78676,0,0,1,6.927-13.32749q6.927-5.08562,18.15038-5.08562a41.65374,41.65374,0,0,1,9.79127,1.08143,49.4806,49.4806,0,0,1,7.51152,2.36744l1.22756-3.44887h4.4426l.93529,19.933h-4.09187a24.17136,24.17136,0,0,0-7.01465-10.49241A15.84743,15.84743,0,0,0,463.2167,460.991a11.81634,11.81634,0,0,0-7.0731,1.87057,6.06967,6.06967,0,0,0-2.572,5.20253,6.741,6.741,0,0,0,3.76388,6.42976,50.2892,50.2892,0,0,0,10.533,3.74114q10.445,2.68992,15.29,7.3368a15.69369,15.69369,0,0,1,4.84335,11.83656q0,9.58863-7.51151,14.84766Q472.97875,517.517,460.87848,517.517Z"/></g></g><path class="cls-2" d="M331.07465,314.39746c-.17987-1.53784-.39887-3.06988-.65711-4.58313-.97436-5.71167-2.53638-11.12634-4.96057-15.29407-2.71277-.62194-5.87152-.02417-8.46344.02619.72662,7.23694,2.0683,14.92181,3.256,22.64721q.33234,2.1612.63776,4.32221c.18884,1.32385.36291,2.644.53015,3.96387,1.84851-.80353,4.11658-1.75916,6.23-2.56787,1.48584-.56855,2.89221-1.06318,4.01959-1.37934-.02441-.47363-.05621-.9519-.08642-1.42975C331.46118,318.2168,331.29791,316.30646,331.07465,314.39746Z"/><path class="cls-2" d="M289.82776,239.53546c-3.812-1.63324-6.533,4.89972-6.533,4.89972,0,3.70136,11.00378,25.47614,14.3111,31.93732,2.28173-10.07453,2.44714-20.76605,2.91528-31.52869C298.07056,243.55524,292.70844,240.76971,289.82776,239.53546Zm-2.17713,5.71637a2.99457,2.99457,0,1,1,2.99378,2.99341A2.99588,2.99588,0,0,1,287.65063,245.25183Zm5.98755,16.876a2.99439,2.99439,0,1,1,2.9953-2.99341A2.99406,2.99406,0,0,1,293.63818,262.12781Z"/><path class="cls-2" d="M160.72833,83.24438q-.00422,1.2639.0279,2.52411c.10437,3.8689.44378,7.666.72131,11.02808a20.74183,20.74183,0,0,1,1.95282-1.075,20.18358,20.18358,0,0,1,9.47949-2.05615c9.85944.2879,18.7818,7.66833,18.66461,17.68975,6.20764-.16491,2.31909-7.753,1.19623-12.64129a42.42261,42.42261,0,0,1-.52-13.84668c.43427-4.28687,1.22382-8.58716,1.8562-12.82886.30664-2.0564.57294-4.09857.74518-6.11877a49.135,49.135,0,0,0,.18878-5.37873,33.41143,33.41143,0,0,0-.33886-4.08484c-.06177-.41571-.13617-.82922-.21631-1.24157a25.14325,25.14325,0,0,0-1.26837-4.415c-11.13611.84436-20.28485,5.39294-26.923,12.70172a21.42889,21.42889,0,0,0-4.78845,10.61322,43.42511,43.42511,0,0,0-.663,5.43677C160.76764,80.77423,160.73248,82.00824,160.72833,83.24438Z"/><path class="cls-2" d="M321.41748,325.47974c.05847.461.1189.92254.17413,1.38269.23877,1.99267.45606,3.97943.61683,5.94793,4.07818.127,6.257-1.79657,9.61169-2.44348.044-2.74139.0061-5.73816-.15308-8.83435-1.12738.31616-2.53375.81079-4.01959,1.37934C325.53406,323.72058,323.266,324.67621,321.41748,325.47974Z"/><path class="cls-2" d="M286.911,206.26263c-1.0835.25959-2.17706.52283-3.27447.77094q-.82316.18612-1.64826.35864c-1.09979.22846-2.20026.43256-3.29547.59369a31.62813,31.62813,0,0,1-4.87152.37268,17.384,17.384,0,0,1-7.00263-1.39813c-.02288.4671-.63208.29724-.73168.67779,6.0642,4.73969,10.56872,5.71961,18.82312,5.31128,3.72216-2.70135,7.02294-5.86,10.89868-8.38995a43.47,43.47,0,0,0-5.23145.855C289.37451,205.67413,288.14935,205.966,286.911,206.26263Z"/><path class="cls-2" d="M215.82745,22.07068c1.71955-.82959,4.26184-.77252,4.35944-3.35468-.74524-.797-1.53-1.40454-2.423-1.15142-16.2846,4.6156-37.15509,16.44842-43.84686,31.07733,3.65888-.53156,6.53363-1.97992,9.70337-2.90546a19.01472,19.01472,0,0,1,4.18683-.784c1.93182-.12579,4.46277.81006,6.68292.25806,4.4245-1.09759,8.15857-11.01782,11.49646-14.709,2.718-3.011,5.8855-4.59247,8.418-6.94355A14.7272,14.7272,0,0,0,215.82745,22.07068Z"/><path class="cls-2" d="M289.82776,239.53546c2.88068,1.23425,8.2428,4.01978,10.69342,5.30835.08557-1.967.1806-3.93616.30157-5.90448-5.53173.35114-8.60058-5.00262-12.478-5.41418-3.38245-.3642-6.25373,3.88873-10.652,2.04968-1.00775,1.114-1.924,2.32086-2.95129,3.40863,9.71453,11.70727,14.12921,28.31714,21.63232,42.07532.4707-1.54505.87476-3.10883,1.23206-4.68628-3.30732-6.46118-14.3111-28.236-14.3111-31.93732C283.2948,244.43518,286.01581,237.90222,289.82776,239.53546Z"/><path class="cls-2" d="M286.56439,227.772a5.78769,5.78769,0,0,0,.75861-1.27111,6.71178,6.71178,0,0,0,.44024-1.43134,7.45484,7.45484,0,0,0,.13-1.50842,7.15385,7.15385,0,0,0-.97925-3.56348,5.49758,5.49758,0,0,0-.892-1.12414,4.68844,4.68844,0,0,0-1.84906-1.104,5.03214,5.03214,0,0,0-1.34643-.21191c-.073-.00238-.14057-.01514-.215-.01465a9.314,9.314,0,0,0-4.99542,1.8219,18.73823,18.73823,0,0,0,.80639,7.14233c.18543.79621.382,1.69238.572,2.77478C282.70142,230.44086,285.18372,229.517,286.56439,227.772Z"/><path class="cls-2" d="M263.81415,399.82208a106.49715,106.49715,0,0,1-13.72876,2.49237l43.49487-1.55334.2641-3.96649A113.07786,113.07786,0,0,1,263.81415,399.82208Z"/><path class="cls-2" d="M388.36957,197.34882a147.98571,147.98571,0,0,1-20.74994,75.89563,17.86381,17.86381,0,0,1,4.68555,1.30651A153.21884,153.21884,0,0,0,349.68292,91.42963c-1.262-1.29145-2.5542-2.55182-3.86151-3.79609q.1657,2.92686.22937,5.89124A147.394,147.394,0,0,1,388.36957,197.34882Z"/><path class="cls-2" d="M104.02283,218.31653l-.00238-.0083-.0066-.05744q-.50042-3.57457-.83117-7.20294L100.754,189.99921l3.01336-11.75122A146.9098,146.9098,0,0,1,151.1709,87.51422l.736-.84631c-.033-1.74817-.03046-3.47364.02673-5.16095q-5.58589,4.69546-10.69952,9.92267a152.98288,152.98288,0,0,0,0,212.92456q4.21023,4.30773,8.7605,8.25494-.24234-3.49412-.52869-6.97565A146.91754,146.91754,0,0,1,104.02283,218.31653Z"/><path class="cls-2" d="M346.07806,100.52405A144.36048,144.36048,0,0,1,362.876,273.03711a25.42,25.42,0,0,1,4.74365.20734A148.78219,148.78219,0,0,0,346.05078,93.52478Q346.13034,97.00928,346.07806,100.52405Z"/><path class="cls-2" d="M130.6972,111.058l20.4737-23.54376A146.9098,146.9098,0,0,0,103.76733,178.248l7.8758-30.71314Z"/><path class="cls-2" d="M147.58087,298.14923a142.55645,142.55645,0,0,1-39.176-79.99652,152.92659,152.92659,0,0,0-.02832,15.39856l-4.35376-15.23474a146.91754,146.91754,0,0,0,45.44305,87.317q-.256-3.08459-.568-6.16925C148.45825,299.02649,148.01477,298.59283,147.58087,298.14923Z"/><path class="cls-2" d="M104.01385,218.25079l-.83117-7.20294Q103.51255,214.6759,104.01385,218.25079Z"/><path class="cls-2" d="M104.02045,218.30823l.00238.0083-.009-.06574Z"/><path class="cls-2" d="M103.76733,178.248,100.754,189.99921l2.42871,21.04864c-.41-4.51105-.62958-9.07855-.62958-13.699A150.84759,150.84759,0,0,1,103.76733,178.248Z"/><path class="cls-2" d="M151.90686,86.66791l-.736.84631c.2475-.22247.49029-.45032.73932-.67108Z"/><path class="cls-2" d="M108.40491,218.15271a146.26351,146.26351,0,0,1-1.41333-20.25842A142.9689,142.9689,0,0,1,147.58087,97.6311q2.4679-2.52291,5.059-4.915a25.56649,25.56649,0,0,1-.7016-4.39618c-.01684-.49683-.01788-.984-.028-1.47681-.249.22076-.49182.44861-.73932.67108L130.6972,111.058l-19.05407,36.47687-7.8758,30.71314a150.84759,150.84759,0,0,0-1.21423,19.10083c0,4.62048.21961,9.188.62958,13.699l.83117,7.20294.009.06574,4.35376,15.23474A152.92659,152.92659,0,0,1,108.40491,218.15271Z"/><path class="cls-2" d="M165.75482,110.28979a7.44691,7.44691,0,0,1,1.4231-.99627A5.19563,5.19563,0,0,0,165.75482,110.28979Z"/><path class="cls-2" d="M333.10388,88.1615q3.62934,3.04065,7.04834,6.32672c-.11212-2.31659-.20752-4.62537-.31811-6.89923a144.16281,144.16281,0,0,0-11.35743-9.23364C329.99506,81.64685,331.47815,84.97046,333.10388,88.1615Z"/><path class="cls-2" d="M198.23871,48.52686l5.50244-8.7967A39.34275,39.34275,0,0,0,198.23871,48.52686Z"/><path class="cls-2" d="M239.0426,14.15924q-1.28878.64261-2.62872,1.33594l8.19427-3.51166A34.82685,34.82685,0,0,0,239.0426,14.15924Z"/><path class="cls-2" d="M199.72095,70.15363l-.1922.06451c-.05841.30884-.11719.61774-.17853.92676C199.46606,70.82507,199.596,70.486,199.72095,70.15363Z"/><path class="cls-2" d="M322.56348,80.14758a10.517,10.517,0,0,0-5.51441,8.04c-.82647,7.90656,9.79944,1.63324,11.43268,1.08948l-.38318-2.55475c-.4-1.08258-.76605-2.19665-1.07208-3.36627Q324.82538,81.7107,322.56348,80.14758Z"/><path class="cls-2" d="M248.9964,88.18762c0,7.23731,12.265,7.1106,16.76648,4.28351-2.2226-4.12195-4.40851-9.11389-4.69971-13.32477l-.08862-.21264S248.9964,80.567,248.9964,88.18762Z"/><path class="cls-2" d="M225.314,73.10254c.66346,1.82873.73066,3.30908,1.88251,1.21728A3.11112,3.11112,0,0,1,225.314,73.10254Z"/><path class="cls-2" d="M310.53894,197.37494a8.48032,8.48032,0,0,1,4.59814-.94684l-2.134-1.58527A13.04176,13.04176,0,0,0,310.53894,197.37494Z"/><path class="cls-2" d="M229.05609,208.31769c-6.78174-1.19068-15.69433-.405-20.30188-3.60462-1.17151,1.18933-.9422,2.486.14881,3.76856,3.55932,1.4129,13.70336,5.23334,19.15228,5.16864C228.53986,211.6593,229.30145,209.82269,229.05609,208.31769Z"/><path class="cls-2" d="M227.68445,216.3728a11.0317,11.0317,0,0,1,.37085-2.72253c-5.44892.0647-15.593-3.75574-19.15228-5.16864C212.20172,212.35962,223.39362,216.109,227.68445,216.3728Z"/><path class="cls-2" d="M251.73053,56.3064c-2.07959-.095-4.16913-.15137-6.27179-.15155-1.34863.00006-2.69141.02514-4.0307.06433a45.442,45.442,0,0,0-7.13086,2.57007,8.30527,8.30527,0,0,0-4.00879,4.29931l1.70978,2.84986c4.65015-6.17194,11.40881-10.29828,21.90759-7.85309A6.11873,6.11873,0,0,0,251.73053,56.3064Z"/><path class="cls-2" d="M253.90576,58.08533v.00006a5.80113,5.80113,0,0,0,.68811-1.61548c-.33514-.0224-.67016-.04529-1.0061-.06519C253.82025,57.42133,253.90576,58.08533,253.90576,58.08533Z"/><path class="cls-2" d="M227.40228,73.88477a42.83985,42.83985,0,0,1,4.59589-7.94635l-1.70978-2.84986C228.55457,66.80286,228.34741,71.60114,227.40228,73.88477Z"/><polygon class="cls-2" points="227.196 74.32 227.2 74.312 227.196 74.32 227.196 74.32"/><path class="cls-2" d="M225.314,73.10254a8.625,8.625,0,0,0-.54516-1.21759A3.50429,3.50429,0,0,0,225.314,73.10254Z"/><path class="cls-2" d="M252.44269,51.34753a9.12275,9.12275,0,0,0-.99-.67419c.11993.21582.23547.4317.3446.64911C252.01215,51.332,252.22809,51.33691,252.44269,51.34753Z"/><path class="cls-2" d="M253.58777,56.40472c.33594.0199.671.04279,1.0061.06519.52515-2.10376-.53766-3.86877-2.15118-5.12238-.2146-.01062-.43054-.01556-.64539-.02508A23.02155,23.02155,0,0,1,253.58777,56.40472Z"/><path class="cls-2" d="M251.73053,56.3064c-2.72314-1.381-6.56183-1.06409-10.30249-.08722,1.33929-.03919,2.68207-.06427,4.0307-.06433C247.5614,56.155,249.65094,56.21136,251.73053,56.3064Z"/><path class="cls-2" d="M230.28839,63.08856a8.30527,8.30527,0,0,1,4.00879-4.29931,45.442,45.442,0,0,1,7.13086-2.57007q-5.08365.149-10.072.66266a30.00429,30.00429,0,0,0-3.09931,3.69171l.43506-.14612Z"/><path class="cls-2" d="M251.73053,56.3064a6.11873,6.11873,0,0,1,2.17523,1.77893s-.08551-.664-.318-1.68061Q252.66062,56.3497,251.73053,56.3064Z"/><path class="cls-2" d="M225.314,73.10254a3.11112,3.11112,0,0,0,1.88251,1.21728v-.00006l.00391-.00818c.06421-.143.13653-.284.2019-.42681.94513-2.28363,1.15229-7.08191,2.88611-10.79621l-1.59656-2.66113-.43506.14612a19.83786,19.83786,0,0,0-2.46392,4.52826c-.65253,1.79016-1.53821,4.68377-1.024,6.78314A8.625,8.625,0,0,1,225.314,73.10254Z"/><path class="cls-2" d="M227.40228,73.88477c-.06537.14282-.13769.28381-.2019.42681A4.37241,4.37241,0,0,0,227.40228,73.88477Z"/><path class="cls-2" d="M251.7973,51.32245c-.10913-.21741-.22467-.43329-.3446-.64911a10.28239,10.28239,0,0,0-3.55487-1.28009,15.3226,15.3226,0,0,0-9.14386,1.9436c2.22332-.1051,4.45813-.1651,6.70678-.1651C247.58484,51.17175,249.69574,51.22858,251.7973,51.32245Z"/><path class="cls-2" d="M251.73053,56.3064q.93045.04239,1.85724.09832a23.02155,23.02155,0,0,0-1.79047-5.08227c-2.10156-.09387-4.21246-.1507-6.33655-.1507-2.24865,0-4.48346.06-6.70678.1651a29.66,29.66,0,0,0-7.39789,5.545q4.98513-.51591,10.072-.66266C245.1687,55.24231,249.00739,54.92535,251.73053,56.3064Z"/><path class="cls-2" d="M328.09857,86.72235c.848,2.295,1.83557,4.46088,2.67462,6.76355-3.57025,2.249-10.52295.8476-14.55059,2.60828-.28742,11.85083,18.33648,6.01031,21.17016-.58954a64.94454,64.94454,0,0,1-4.28888-7.34314q-2.66482-2.23271-5.43872-4.329Z"/><path class="cls-2" d="M326.90729,75.01062c-.23352-.00977-.47034-.01794-.70392-.02777-.035.59119-.04578,1.16-.04492,1.718.7774.5451,1.55188,1.09411,2.31823,1.65448C327.95972,77.2348,327.43988,76.11694,326.90729,75.01062Z"/><path class="cls-2" d="M326.15845,76.70087c.001.638.027,1.25287.06994,1.85205.37879-.11029.62012-.16474.62012-.16474l.81665,5.44434q2.77222,2.09711,5.43872,4.329c-1.62573-3.191-3.10882-6.51465-4.6272-9.80615C327.71033,77.795,326.93585,77.246,326.15845,76.70087Z"/><path class="cls-2" d="M327.02649,83.35608c.306,1.16962.67206,2.28369,1.07208,3.36627l-.43341-2.88983C327.45331,83.6723,327.23926,83.51514,327.02649,83.35608Z"/><path class="cls-2" d="M326.84851,78.38818s-.24133.05445-.62012.16474a26.2318,26.2318,0,0,0,.7981,4.80316c.21277.15906.42682.31622.63867.47644Z"/><path class="cls-2" d="M265.76288,92.47113c1.01044,1.8739,2.02759,3.56891,2.87683,4.92639-4.37048,4.24488-12.22986.72028-18.07709.44757-5.57916,8.81458,10.89569,10.47071,17.966,8.38336,1.93542-.56994,5.28845-3.47222,5.74737-4.774,1.9632-5.51874-1.99744-7.9375-4.03406-9.92194-4.52246-4.40808-5.558-10.536-8.73956-16.36835a9.93689,9.93689,0,0,0-.43921,3.98218l5.35535,12.85333A5.52372,5.52372,0,0,1,265.76288,92.47113Z"/><path class="cls-2" d="M266.41852,91.99969l-5.35535-12.85333c.2912,4.21088,2.47711,9.20282,4.69971,13.32477A5.52372,5.52372,0,0,0,266.41852,91.99969Z"/><path class="cls-2" d="M283.59045,146.991c17.443,1.72473,29.31342-5.71149,39.95887-12.54981-.423-2.68176,3.22406-7.51294,2.21142-11.54541-.35113-1.38666-3.50818-3.3988-5.4256-5.49591-7.80853-8.51575-18.50793-21.24029-22.75927-31.19006-.472-1.09754-.75617-7.1258-4.04712-4.73963-.39691,14.69263,10.52459,26.85706,18.66632,36.67115,3.97693,4.79034,8.77215,7.52771,4.35748,14.97033-7.11932,2.708-18.63861,10.45606-28.53607,8.76239-3.38818-.57843-4.09741-3.26355-4.68042-5.96655a6.58914,6.58914,0,0,0-1.61371,2.26495c-.03894.40741-.05749.64576-.05749.64576a1.24409,1.24409,0,0,1,.05749-.64576c.09839-1.03015.33167-3.17907.75049-5.52105a6.42563,6.42563,0,0,0-.40949-.87409C278.44244,136.53986,279.86334,143.75061,283.59045,146.991Z"/><path class="cls-2" d="M281.66486,138.81818s.01855-.23835.05749-.64576A1.24409,1.24409,0,0,0,281.66486,138.81818Z"/><path class="cls-2" d="M283.33606,135.90747a21.31525,21.31525,0,0,0-.86322-3.2561c-.41882,2.342-.6521,4.4909-.75049,5.52105A6.58914,6.58914,0,0,1,283.33606,135.90747Z"/><path class="cls-2" d="M174.17944,109.00464c-2.59881-.55634-5.108-.62421-7.00152.28888a7.44691,7.44691,0,0,0-1.4231.99627,6.3607,6.3607,0,0,0-1.68713,3.486c-.15589.8573-.32648,1.69629-.50373,2.52276,1.36762-1.39508,2.80054-3.19146,5.33973-1.94458-2.83088,5.53174-2.15326,16.303,1.70025,19.80139-.0224-6.56243-1.04321-17.78442,4.55506-17.4447,3.91735.23847,4.71161,8.62677,8.04834,10.53119C185.14905,117.89716,179.90546,110.99451,174.17944,109.00464Z"/><path class="cls-2" d="M165.75482,110.28979a10.92386,10.92386,0,0,0-3.30768,6.986,7.12974,7.12974,0,0,0,1.11682-.97724c.17725-.82647.34784-1.66546.50373-2.52276A6.3607,6.3607,0,0,1,165.75482,110.28979Z"/><path class="cls-2" d="M174.17944,109.00464a8.756,8.756,0,0,0-7.00152.28888C169.07141,108.38043,171.58063,108.4483,174.17944,109.00464Z"/><path class="cls-2" d="M303.82135,161.52032c14.54083-.30218,21.55072-10.68957,26.50592-20.12152-8.5108,3.88056-15.37366,9.53809-26.48956,10.60627C303.29877,153.83917,303.52576,158.4743,303.82135,161.52032Z"/><path class="cls-2" d="M300.274,162.0871a44.13444,44.13444,0,0,0-.686-9.54145c-12.60534.36908-29.6499-.15515-38.92407-5.032C264.9126,158.88586,284.07062,162.89545,300.274,162.0871Z"/><path class="cls-2" d="M258.90118,156.60748v.00006c-8.19189.00983-1.28241,4.56488.10517,6.34839,2.87335,3.69281,6.2428,9.99219,11.48712,12.78015,8.2691,4.39179,24.69788,2.55274,30.65436.129,2.20489-.89337,3.97851-3.36285,4.79681-5.45343C287.35669,170.856,265.31445,172.70972,258.90118,156.60748Z"/><path class="cls-2" d="M363.27313,291.75531c-.92212.027-1.81915.08118-2.70361.14874q-.36155.4619-.72559.92151A18.55069,18.55069,0,0,1,363.27313,291.75531Z"/><path class="cls-2" d="M347.49683,299.67828c4.10723-1.85559,7.93975-5.03674,12.3471-6.85272q.365-.459.72559-.92151a42.06781,42.06781,0,0,0-7.04456,1.09973Q350.61551,296.43967,347.49683,299.67828Z"/><path class="cls-2" d="M343.32465,298.16229q-.59693.544-1.144,1.14234a18.3183,18.3183,0,0,0-1.47406,1.801,14.08244,14.08244,0,0,0,6.79023-1.42737q3.11013-3.244,6.02813-6.6745A23.263,23.263,0,0,0,343.32465,298.16229Z"/><path class="cls-2" d="M350.76135,303.22473c-.36.37592-.7146.75733-1.07843,1.12946-.65576.671-1.32263,1.33056-1.99066,1.989,6.32.16827,13.27033-.76471,19.29816-1.40137C363.01556,303.57068,355.95648,302.34314,350.76135,303.22473Z"/><path class="cls-2" d="M350.76135,303.22473c-2.51312.42639-4.59607,1.33942-5.67114,2.98163.85193.07007,1.72137.1134,2.602.13684.668-.65845,1.3349-1.318,1.99066-1.989C350.04675,303.98206,350.40131,303.60065,350.76135,303.22473Z"/><path class="cls-2" d="M344.72113,315.7085c7.33655.6156,16.93024.76941,24.64893.60217C364.36414,313.97894,349.06061,311.04736,344.72113,315.7085Z"/><path class="cls-2" d="M159.168,66.41l3.58356-4.83764,1.86163-6.04956,3.17566-.75074,1.98572-2.6806-1.8949.16486,5.98749-10.88886,1.85083-1.85052,1.41565-3.0492,7.51831-5.88373,2.82666-2.82635,1.54345-.59375.63337-.49561L219.598,11.96906l1.964,2.6781,1.30243-.501a81.65046,81.65046,0,0,1,10.2937-.25855,142.9432,142.9432,0,0,1,19.10474-8.99542c32.66516-12.52038,66.96332,28.309,66.96332,28.309l3.40173,5.44226c.26282-.00341.41022.00135.41022.00135l.89288,2.08337,8.90656,14.24908,8.71014,15.78858.75641,13.61859q1.78629,1.59393,3.51727,3.24908c-.894-15.80224-3.95361-30.68695-9.66016-42.22216C331.16351,35.30481,317.19116,21.34552,308.45,14.73419,287.83521-.85675,249.72559-2.57825,224.8869,6.563c-6.92413,2.54791-13.6286,4.82959-19.71069,8.39984-16.27045,9.5528-33.5401,15.94373-38.36517,35.16534-10.32374,4.6247-14.38038,16.713-14.87745,31.37879q2.54554-2.13978,5.18476-4.16547Z"/><path class="cls-2" d="M311.08258,362.14252c-.2597-1.24854-.5318-2.48981-.80261-3.72522-.40619-1.85315-.80921-3.69312-1.16266-5.524s-.65729-3.653-.86487-5.47058c-2.25879-.60278-6.40564,1.59247-9.218,1.40625-.361,8.60065.846,22.39319,1.24939,31.41559,5.718.00769,8.1695-1.2511,12.43714-2.69031q.04522-.99526.04138-1.98132c-.00391-1.315-.06848-2.61817-.18-3.91089A80.81963,80.81963,0,0,0,311.08258,362.14252Z"/><path class="cls-2" d="M388.41528,306.82709a150.06168,150.06168,0,0,0-8.22339-24.285,15.48821,15.48821,0,0,0-7.88671-7.99109q-1.203,2.0756-2.46357,4.11115l4.75312.62,10.88891,32.12116-1.359,4.20007.43134,7.77112-8.71014,13.066-9.79944,2.17743-16.33246-.54419-4.83838-6.28986-5.66663.30634-21.23217,5.98877-1.07593-8.44434c-.349.19812-.69428.40222-1.04505.59748l1.1933,12.19775-19.623,2.58087,3.83447,52.40405-5.44361,3.26648-2.23663.0799-.10382,1.55841L252.10217,405.586l-25.04352-5.44391h-.00006l-11.2713-45.7373-3.26648,3.812L158.0802,339.70563l-1.80414-3.092-2.00781-.7168-.05713-3.3692-1.563-17.66278q-1.34-1.11219-2.65356-2.25574c.22278,3.212.42572,6.43475.634,9.67957.42743,6.63568-.27747,13.66046,1.44507,17.32574,1.77679,3.78589,8.35638,5.00055,13.11255,7.20545,13.737,6.35363,28.30865,16.05163,46.32525,14.12756,4.29364,14.43817,8.35462,29.817,13.50946,42.46112,18.473,6.6427,47.63337,5.60535,66.83869,3.29584,5.83722-.70563,11.9978-3.58673,13.37134-8.64789a51.0307,51.0307,0,0,1-.67292-9.89588c6.00708-1.24273,14.17981-2.26989,15.50116-8.91259,1.852-9.32416-5.88623-22.67792-3.30731-32.90345,3.47876-1.12988,7.18952-2.01037,6.63428-7.49646,5.86-3.04937,12.80621-3.73541,20.22436-3.44757a15.84266,15.84266,0,0,0,3.53766,4.64c10.389,2.087,20.45307,2.25842,29.07825-.55689C385.99158,336.29572,390.65118,316.32733,388.41528,306.82709ZM312.721,377.5542c-4.26764,1.43921-6.71918,2.698-12.43714,2.69031-.40344-9.0224-1.61041-22.81494-1.24939-31.41559,2.81238.18622,6.95923-2.009,9.218-1.40625.20758,1.81756.51141,3.63965.86487,5.47058s.75647,3.6709,1.16266,5.524c.27081,1.23541.54291,2.47668.80261,3.72522a80.81963,80.81963,0,0,1,1.49976,9.51947c.11151,1.29272.17608,2.59588.18,3.91089Q312.76525,376.559,312.721,377.5542Z"/><path class="cls-2" d="M202.7171,38.922l-8.162,9.52234,1.63324,6.533C196.014,50.26263,198.37122,44.70642,202.7171,38.922Z"/><path class="cls-2" d="M308.88647,25.7337l10.33973,7.46753A31.95477,31.95477,0,0,0,308.88647,25.7337Z"/><path class="cls-2" d="M196.22241,55.90643c-.01135-.30987-.02228-.6112-.03406-.92914-.18078.02259-.3529.05042-.53173.0741l.16656.99884C195.956,56.00165,196.08948,55.95465,196.22241,55.90643Z"/><polygon class="cls-2" points="197.208 107.522 195.645 113.774 197.822 111.053 197.208 107.522"/><path class="cls-2" d="M196.68445,70.218l-.1081.99139.132-.04431C196.70093,70.86047,196.69293,70.544,196.68445,70.218Z"/><path class="cls-2" d="M299.11932,282.92621c3.74341-11.00659,5.34565-29.42847,5.91071-43.47241a14.01548,14.01548,0,0,1,3.85278-1.17749v-3.223a93.40889,93.40889,0,0,1-16.2099-2.90942l-1.12542-.31775.10565-.63678-2.53253-.9046v-5.66052a7.90742,7.90742,0,0,1-.98829,3.16217,6.71859,6.71859,0,0,1-6.03851,3.32648,11.688,11.688,0,0,1-3.48913-.58442l-.75922-.2373-.13782-.78345c-.15515-.88208-.31476-1.63318-.4696-2.316a14.46322,14.46322,0,0,1-1.46167.64594l-.17743,4.53387,7.69586-1.00391,5.314,1.0943h2.1466l2.80176,1.01905,8.24878,1.69867V236.481l.926.33679-1.08764,20.14313-3.5213,20.41961c.26513.51539.41644.80726.41644.80726l-.9765,2.44055-1.36395,7.90948-2.03486-5.18-2.15765-.27026-15.00592-35.399-5.30023-7.60431a23.18822,23.18822,0,0,1,1.05786-2.40338l-.623-1.46985c-1.0971.87958-2.19775,1.80981-3.33191,2.77332a61.743,61.743,0,0,1-10.25116,7.54486c-2.20868,1.20446-11.66491,5.24292-16.19336,5.24292a5.03153,5.03153,0,0,1-1.13177-.11225,3.27637,3.27637,0,0,1-1.45459-.74463l-.19269.058c-.00677-.08844-.01428-.17676-.02112-.26508a7.69731,7.69731,0,0,1-1.52728-3.30493c-.11737-.41852-.238-.84851-.38342-1.27472-.35346-1.03864-.81537-2.22144-1.31873-3.51019-.50726-1.30011-1.04852-2.70337-1.56872-4.16315l2.259,9.78876,4.89972,5.98877,12.5224-4.35553-8.71173,16.87793,47.36444,22.31994.30286,3.53382,4.33245-.86652,2.51941-10.31726C299.86993,281.92267,299.50476,282.43549,299.11932,282.92621Zm-8.8081.01275q-2.64524-.79732-5.30029-1.71392-2.65275-.91407-5.30146-1.93219c-3.5285-1.35431-7.03937-2.83411-10.49579-4.39972-6.91284-3.13117-13.60772-6.60517-19.78991-10.10291,2.42767-10.51977,11.93994-15.96808,20.57806-21.76123a98.02548,98.02548,0,0,1,11.259,18.93231q1.20612,2.553,2.3512,5.16236.5745,1.30289,1.13861,2.61541c1.12933,2.62409,2.23346,5.27143,3.33917,7.9173q1.1057,2.646,2.22138,5.28253Z"/><polygon class="cls-2" points="195.152 84.266 194.012 94.721 196.921 105.873 195.645 98.531 195.152 84.266"/><path class="cls-2" d="M140.6745,247.55615l-4.37006-12.92206-2.7229-8.71008,43.55207-29.94226,2.23864-.89557,7.56086-5.09186,1.51391,1.46155,2.298-.91931,11.97625,14.69916v-4.41956c-1.32238-.28747-2.17675-.48016-2.17675-.48016l-4.97608-7.77442-5.3689-5.83544-2.00848-5.69068-5.06866-7.91913-.54438-7.98462-2.17791-6.17071-2.17749-5.98908-13.06592-4.35424-1.72479-2.83362-3.17493-.97669L153.724,127.931l-1.04956-7.87494-.58368-1.92615.24194-.63775-.78552-5.89356,5.00147-5.21991.73754-1.94439a110.87725,110.87725,0,0,0-9.28942,8.6015,50.55818,50.55818,0,0,0,7.72735,32.17334,28.85578,28.85578,0,0,0,19.25952,12.37835,40.87186,40.87186,0,0,0,4.00208,14.95716c1.51977,3.33508,7.2041,9.334,5.11163,13.58862-1.05267,2.14612-10.30682,6.80573-13.37549,8.64642-10.36078,6.21613-17.87,10.02478-27.43658,16.91217-6.18854,4.454-15.86664,5.02552-14.34064,15.30353,1.02905,6.93476,4.975,15.52893,7.2334,22.4831,2.4436,7.50329,5.94623,14.37451,7.95575,22.16168a185.29505,185.29505,0,0,1,4.764,27.824q1.29006,1.285,2.61181,2.53577l-1.11047-12.54828Z"/><path class="cls-2" d="M313.4931,302.88934c-.085.059-.16925.11719-.29248.20056l1.70648,17.44422c.25934-.15424.51618-.3125.77454-.46845Z"/><path class="cls-2" d="M284.90381,292.88824c.00928-.21734.01617-.36956.02008-.45513L274.035,292.89Z"/><path class="cls-2" d="M231.88214,208.63678a13.72712,13.72712,0,0,1,3.50409-3.40106l-18.50928-.54389,15.0821,1.63977Z"/><path class="cls-2" d="M337.19177,143.718l-11.9765,29.94226-11.43268,15.78857-8.16455,8.71008-21.77777,3.26648-29.39868,3.26648-4.42908.12641a46.6573,46.6573,0,0,1,9.06079,3.39489q6.38013,3.30735,12.7594,6.61463c2.21155,1.14685,8.03559.15027,10.23377,1.43652a6.19149,6.19149,0,0,1,4.8186,1.627,7.74017,7.74017,0,0,1,2.23554,4.64215v-4.22522l.515-2.83136c-.01343-.03736-.03113-.07062-.04419-.10816l-.42493-1.22369.76069-.27112.28277-1.55475,18.67285-10.80987v-6.07141l13.066-13.066,4.89972,4.35595,1.44983,1.51416,22.50494,20.80567-.20691,2.48236.7508.78418s-.48053,1.94629-1.23425,5.01361l-.399,4.78583-.65576-.48712c-3.19336,13.03271-8.5998,35.267-8.5998,36.41815,0,1.63324-12.5205,33.2091-12.5205,33.2091l16.7146-8.161,14.70709-4.59564q1.81786-2.68606,3.51642-5.46008c-9.87928.44165-21.25855,5.70642-28.851,9.48083,6.40723-16.85687,11.921-34.33459,17.57209-53.24249,1.69043-5.66571,5.02716-13.69806,4.27746-19.56952-.69745-5.51715-9.30786-11.32-13.84009-15.6922-2.51684-2.427-14.25494-11.33966-14.936-14.67633-.66144-3.22729,4.78546-10.541,6.5379-14.19616a104.40273,104.40273,0,0,0,5.55463-15.99762,192.62874,192.62874,0,0,0,6.88714-48.61957q-1.35233-1.46421-2.74029-2.89295c-.10394-.1062-.21118-.209-.31543-.31494l.70239,12.64752ZM284.9101,212.94952c-8.2544.40833-12.75892-.57159-18.82312-5.31128.0996-.38055.7088-.21069.73168-.67779a17.384,17.384,0,0,0,7.00263,1.39813,31.62813,31.62813,0,0,0,4.87152-.37268c1.09521-.16113,2.19568-.36523,3.29547-.59369q.82481-.17129,1.64826-.35864c1.09741-.24811,2.191-.51135,3.27447-.77094,1.23834-.29663,2.4635-.5885,3.66632-.84808a43.47,43.47,0,0,1,5.23145-.855C291.933,207.08948,288.63226,210.24817,284.9101,212.94952Z"/><polygon class="cls-2" points="312.866 292.061 311.67 292.125 311.716 292.355 312.149 292.343 312.866 292.061"/><polygon class="cls-2" points="312.149 292.343 312.566 296.608 312.914 298.345 312.149 292.343"/><polygon class="cls-2" points="209.907 313.242 209.254 295.608 209.254 308.674 209.907 313.242"/><path class="cls-2" d="M196.70831,71.165l-.132.04431-.67449,6.18317.824-5.49323C196.72046,71.66351,196.71436,71.41473,196.70831,71.165Z"/><path class="cls-2" d="M153.27423,99.29865c-.32861,1.64306-2.5564,3.74664-3.00305,4.81646a33.32533,33.32533,0,0,0-2.27441,8.92072,110.87725,110.87725,0,0,1,9.28942-8.6015l.794-2.093-1.54108-13.09253q-1.97946,1.699-3.89929,3.46729C153.14227,95.01666,153.66443,97.35077,153.27423,99.29865Z"/><path class="cls-2" d="M364.66394,277.98669l5.17767.67542q1.26553-2.032,2.46357-4.11115a17.86381,17.86381,0,0,0-4.68555-1.30651C366.66577,274.84741,365.67572,276.425,364.66394,277.98669Z"/><path class="cls-2" d="M342.62543,90.17041q1.73849,1.64969,3.42535,3.35437-.06774-2.96183-.22937-5.89124-1.73446-1.65087-3.51727-3.24908Z"/><path class="cls-2" d="M315.33209,324.8783l.52368,5.35376c.35077-.19526.69605-.39936,1.04505-.59748l-.67139-5.26941C315.932,324.53894,315.63092,324.70667,315.33209,324.8783Z"/><path class="cls-2" d="M196.22241,55.90643c-.13293.04822-.26642.09522-.39923.1438l.51544,3.09168Q196.28452,57.60272,196.22241,55.90643Z"/><path class="cls-2" d="M152.03735,307.96326q-1.2995-1.14918-2.57147-2.32978.28912,3.48368.52869,6.97565,1.31368,1.14331,2.65356,2.25574Z"/><path class="cls-2" d="M151.90686,86.66791l.56732-.65247.64008-.2149q1.4208-1.23185,2.87292-2.426l1.13117-6.033q-2.63947,2.024-5.18476,4.16547C151.8764,83.19427,151.87384,84.91974,151.90686,86.66791Z"/><path class="cls-2" d="M314.9071,320.53412l.425,4.34418c.29883-.17163.59992-.33936.89734-.51313l-.54779-4.2995C315.42328,320.22162,315.16644,320.37988,314.9071,320.53412Z"/><path class="cls-2" d="M343.33777,97.6311q1.392,1.42447,2.74029,2.89295.05191-3.51261-.02728-6.99927-1.6842-1.70727-3.42535-3.35437l.39691,7.14575C343.12659,97.42212,343.23383,97.5249,343.33777,97.6311Z"/><path class="cls-2" d="M362.876,273.03711q-1.69812,2.77386-3.51642,5.46008l2.71478-.84833,2.5896.33783c1.01178-1.5617,2.00183-3.13928,2.95569-4.74224A25.42,25.42,0,0,0,362.876,273.03711Z"/><path class="cls-2" d="M148.89783,299.46423q.31457,3.08578.568,6.16925,1.27194,1.1803,2.57147,2.32978L151.50964,302Q150.18763,300.74957,148.89783,299.46423Z"/><path class="cls-2" d="M155.90149,83.83179l.08569-.45728q-1.45221,1.19421-2.87292,2.426l2.90417-.97492Z"/><path class="cls-2" d="M153.11426,85.80054l-.64008.2149-.56732.65247.00336.17523C152.30756,86.49091,152.71313,86.14838,153.11426,85.80054Z"/><path class="cls-2" d="M151.93823,88.32a25.56649,25.56649,0,0,0,.7016,4.39618q1.916-1.77219,3.89929-3.46729l-.52069-4.42322-2.90417.97492c-.40113.34784-.8067.69037-1.204,1.0426C151.92035,87.33594,151.92139,87.82312,151.93823,88.32Z"/><path class="cls-2" d="M306.91766,24.8465c4.95655,3.82159,9.2461,8.8645,13.23328,13.98694a21.48323,21.48323,0,0,1,2.477-.19l-3.40173-5.44226L308.88647,25.7337C308.25232,25.43042,307.59918,25.13342,306.91766,24.8465Z"/><path class="cls-2" d="M309.85132,54.535a9.57341,9.57341,0,0,0,.14215,2.19983c8.01929-7.34961,21.71887-.08008,25.76941,8.04529,2.31634,4.64465,3.23553,10.62976,3.72986,17.15631q1.42135,1.20585,2.8114,2.44806l-.75641-13.61859-8.71014-15.78858L323.931,40.72821l4.00684,9.34937C322.213,44.35144,313.72205,50.91473,309.85132,54.535Z"/><path class="cls-2" d="M161.41467,101.187q-2.121,1.586-4.12848,3.24732l-.73754,1.94439,5.028-5.2478Z"/><polygon class="cls-2" points="152.091 118.13 152.674 120.056 152.333 117.492 152.091 118.13"/><path class="cls-2" d="M195.152,84.26642l.4928,14.26459,1.2763,7.342.35694,1.3681-.07026.281.61383,3.53095-2.17681,2.721-6.533,1.08935-2.5105-5.52166.33179,4.97778s-.53608-.32373-1.43763-.8147c.48755,1.673.88312,3.38935,1.21753,5.06281,4.52014.24182,11.05-.19263,13.18726-3.71881-.30628-8.60724-4.30322-15.50934-4.02893-23.41584a57.40937,57.40937,0,0,1,.91723-8.05743c-.53894.16724-1.06366.34668-1.59613.51947Z"/><path class="cls-2" d="M321.00977,172.75879c-3.76142,5.406-6.92011,11.31183-12.2118,15.034-12.75238,8.95507-32.13574,17.07226-48.73236,11.50622-21.93408-7.36108-31.89947-21.97534-43.96179-38.70953.32672,9.19183,6.79254,16.73578,13.1756,23.76855,5.55694,6.12964,12.26214,13.05457,19.47461,15.91107-6.01819-1.41278-15.25434-1.85693-17.76154,3.54413a138.39616,138.39616,0,0,1-13.863-1.45062c.28015.23138.54858.471.8352.69757,1.25208.99024-4.95233-.11743-10.30041-1.20325l9.21264,2.8349,18.50928.54389c3.45227-2.34754,9.31293-1.81763,14.62628-.41748l4.42908-.12641,29.39868-3.26648,21.77777-3.26648,8.16455-8.71008,11.43268-15.78857,11.9765-29.94226,6.533-33.75428-.70239-12.64752q-1.41395-1.43637-2.87012-2.82794c.01819.37482.0354.74933.05469,1.12433C341.6507,123.61938,335.08337,152.51471,321.00977,172.75879Z"/><polygon class="cls-2" points="168.174 98.847 176.536 99.491 172.234 97.442 168.174 98.847"/><polygon class="cls-2" points="190.2 186.726 195.568 192.562 188.191 181.035 190.2 186.726"/><polygon class="cls-2" points="180.303 101.285 184.445 104.598 183.667 102.887 180.303 101.285"/><path class="cls-2" d="M158.0802,102.34137l-.794,2.093q2.01069-1.65921,4.12848-3.24732Z"/><path class="cls-2" d="M196.73254,80.02142l.024-.11792c.04187-.36084.11133-1.8504-.0307-8.00421l-.824,5.49323-.70942,6.5025c.53247-.17279,1.05719-.35223,1.59613-.51947.73456-4.13446,1.75977-8.19061,2.56165-12.23065a67.39081,67.39081,0,0,0-2.59363,8.7586C196.74316,80.01849,196.73254,80.02142,196.73254,80.02142Z"/><path class="cls-2" d="M339.83411,87.589q1.41274,1.27176,2.79132,2.58142l-.32129-5.78595q-1.39087-1.24109-2.8114-2.44806C339.63269,83.78363,339.74084,85.67212,339.83411,87.589Z"/><path class="cls-2" d="M340.15222,94.48822q1.45313,1.39454,2.87012,2.82794l-.39691-7.14575q-1.37934-1.30893-2.79132-2.58142C339.9447,89.86285,340.0401,92.17163,340.15222,94.48822Z"/><path class="cls-2" d="M152.64813,314.86487l1.563,17.66278-.28137-16.607C153.49994,315.5719,153.0741,315.21838,152.64813,314.86487Z"/><path class="cls-2" d="M211.40143,344.45111c.37451,2.65778.75372,5.3393,1.14044,8.0755-20.5282-1.06512-34.43512-10.48157-49.31555-18.00018a29.67129,29.67129,0,0,1-1.33606,4.09143l-5.6142-2.00421,1.80414,3.092,54.44061,18.51117,3.26648-3.812-1.545-9.30024C213.29236,344.895,212.34454,344.67938,211.40143,344.45111Z"/><path class="cls-2" d="M150.39917,289.45172,151.50964,302q1.09865,1.039,2.21906,2.05328l-.0047-.27777Z"/><polygon class="cls-2" points="133.582 225.924 179.372 195.086 177.134 195.982 133.582 225.924"/><polygon class="cls-2" points="140.674 247.556 139.571 242.802 133.582 225.924 136.304 234.634 140.674 247.556"/><path class="cls-2" d="M207.98346,251.90924l.7312.89215A1.39148,1.39148,0,0,0,207.98346,251.90924Z"/><path class="cls-2" d="M210.18134,320.65741l-.27442-7.41547-.65259-4.56793V295.608l51.014-2.71576L274.035,292.89l10.88886-.45684.00415-.09028,8.16626-3.26776-47.36444-22.31994,8.71173-16.87793-12.5224,4.35553-4.89972-5.98877-2.259-9.78876c-.5174-1.452-1.0069-2.96289-1.41584-4.51221a53.5216,53.5216,0,0,1-3.70629-12.07965l-8.93573-4.02118-5.45691-1.16717-5.03662-3.55493-.57123-.257-.36811-.406-3.28-2.315.5343-.71283-3.80274-4.19348-4.05023,1.80975a21.071,21.071,0,0,0,2.14789,2.29627l-.00012-.00007c8.11511,5.76368,18.19537,10.31556,27.62347,14.81025a108.83542,108.83542,0,0,0,4.25672,17.43164c2.589,8.28216,4.72424,19.97259,15.66882,14.0036-1.03992,4.72821-7.11981,7.66614-5.442,13.18146,1.05158,3.46112,12.53845,7.73565,16.18256,9.79,6.72211,3.78888,12.85333,5.88471,18.0144,8.09925a617.73478,617.73478,0,0,0-61.87909,4.81549v1.95917H206.532s-1.08777-22.86542-1.08777-25.58832c0-2.72229,1.08777-12.52179,1.08777-12.52179l1.45142-3.41315c-3.09106-1.0993-3.67035,5.16577-3.78015,6.54578-.57929,7.34961,3.49634,22.90814-.52307,31.7016-4.39887-1.2436-6.56488-4.5553-10.68946-6.05469-1.61724,5.09253,3.34943,5.33752,2.84089,8.57147-.65656,4.16-8.32258.9165-8.69654,6.59259l21.03015-.93378V307.042l-1.48053-.23132c.92334,9.38428,2.09528,18.61493,3.39753,28.14361.85809.23139,1.72021.45173,2.58471.66657Z"/><polygon class="cls-2" points="188.447 191.456 202.721 205.236 190.745 190.537 188.447 191.456"/><path class="cls-2" d="M210.65765,339.14832c.24347,1.75073.49323,3.5241.74378,5.30279.94311.22827,1.89093.44391,2.84088.65344l-.87793-5.2854C212.45807,339.60638,211.55737,339.37866,210.65765,339.14832Z"/><path class="cls-2" d="M153.821,309.50592c-.59722-.51111-1.19476-1.02173-1.78369-1.54266l.61078,6.90161c.426.35351.85181.707,1.28162,1.05578Z"/><path class="cls-2" d="M210.08228,334.95428c.19061,1.3946.37945,2.78473.57537,4.194.89972.23034,1.80042.45806,2.70673.67083l-.69739-4.1983C211.80249,335.406,210.94037,335.18567,210.08228,334.95428Z"/><path class="cls-2" d="M153.7287,304.05328q-1.12016-1.01476-2.21906-2.05328l.52771,5.96326c.58893.52093,1.18647,1.03155,1.78369,1.54266Z"/><polygon class="cls-2" points="219.598 11.969 189.655 26.668 189.022 27.164 221.562 14.647 219.598 11.969"/><path class="cls-2" d="M202.7171,38.922c4.46588-5.9444,11.03894-12.128,19.16278-17.894-.217.06574-.42566.12976-.64868.19666-2.41223.72369-4.675,1.50915-6.82666,2.33337-2.53247,2.35108-5.7,3.9325-8.418,6.94355-3.33789,3.69116-7.072,13.61139-11.49646,14.709-2.22015.552-4.7511-.38385-6.68292-.25806a19.01472,19.01472,0,0,0-4.18683.784,29.97658,29.97658,0,0,0-3.22021,5.43048l-10.62561.9245-1.98572,2.6806,26.76629-6.32769Z"/><path class="cls-2" d="M162.75153,61.57233,159.168,66.41l-2.04962,10.93152c.33581-.25751.677-.50793,1.015-.76257Z"/><polygon class="cls-2" points="177.134 36.468 175.718 39.517 184.652 30.584 177.134 36.468"/><path class="cls-2" d="M195.82318,56.05023l-.16656-.99884c-.394.05219-.78608.10547-1.1709.16309.08014.41235.15454.82586.21631,1.24157C195.07379,56.31659,195.45007,56.18665,195.82318,56.05023Z"/><path class="cls-2" d="M161.41467,101.187l.162-.05609.23669-.24695C161.67865,100.9837,161.54877,101.08673,161.41467,101.187Z"/><path class="cls-2" d="M168.174,98.84711l4.05988-1.40546,4.30206,2.049,1.68671.12982,2.08075,1.66461,3.36322,1.60181.778,1.71106,1.94434,1.55548.2124,3.18836,2.5105,5.52166,6.533-1.08935,1.563-6.252-.28668-1.6491-2.90954-11.15235L195.152,84.26642l-.01221-.35425c-.96759.31445-1.94275.62244-2.889.95508a42.42261,42.42261,0,0,0,.52,13.84668c1.12286,4.8883,5.01141,12.47638-1.19623,12.64129.11719-10.02142-8.80517-17.40185-18.66461-17.68975q-4.11465,2.34438-7.88843,4.939Z"/><path class="cls-2" d="M196.68445,70.218c-.03693-1.43244-.08362-3.07343-.14215-4.95557-.56391.21808-1.12982.43188-1.69019.65723-.17224,2.0202-.43854,4.06237-.74518,6.11877l2.46942-.829Z"/><path class="cls-2" d="M161.81335,100.884l2.25434-2.3529.95373.07336q3.775-2.59185,7.88843-4.939a20.18358,20.18358,0,0,0-9.47949,2.05615c.32477,1.76324.63733,2.80939.63733,2.80939l-5.98749,3.81036,3.33447-1.15436C161.54877,101.08673,161.67865,100.9837,161.81335,100.884Z"/><path class="cls-2" d="M195.0993,82.74243l.80256-5.34991.67449-6.18317-2.46942.829c-.63238,4.2417-1.42193,8.542-1.8562,12.82886.94629-.33264,1.92145-.64063,2.889-.95508Z"/><path class="cls-2" d="M158.13336,76.57892c-.338.25464-.6792.50506-1.015.76257l-1.13117,6.033.07367-.06067Z"/><path class="cls-2" d="M196.33862,59.14191l-.51544-3.09168c-.37311.13642-.74939.26636-1.12115.40582a33.41143,33.41143,0,0,1,.33886,4.08484c.44324-.171.88318-.34869,1.32849-.51532C196.35931,59.7356,196.34906,59.44031,196.33862,59.14191Z"/><path class="cls-2" d="M156.06085,83.31384l-.07367.06067-.08569.45728Z"/><path class="cls-2" d="M196.36938,60.02557c-.44531.16663-.88525.34436-1.32849.51532a49.135,49.135,0,0,1-.18878,5.37873c.56037-.22535,1.12628-.43915,1.69019-.65723C196.49335,63.69067,196.436,61.95026,196.36938,60.02557Z"/><polygon class="cls-2" points="196.921 105.873 197.208 107.522 197.278 107.241 196.921 105.873"/><path class="cls-2" d="M195.13977,83.91217l.01221.35425.04046-.3714Z"/><path class="cls-2" d="M195.90186,77.39252l-.80256,5.34991.04047,1.16974.05267-.01715Z"/><polygon class="cls-2" points="175.718 39.517 173.867 41.367 167.88 52.256 169.775 52.091 170.056 51.711 175.718 39.517"/><path class="cls-2" d="M233.15814,13.88763a81.65046,81.65046,0,0,0-10.2937.25855l-1.30243.501L224.77618,19.03C227.42883,17.25909,230.23279,15.54065,233.15814,13.88763Z"/><polygon class="cls-2" points="187.479 27.758 184.652 30.584 189.022 27.164 187.479 27.758"/><path class="cls-2" d="M183.62036,45.73645c-3.16974.92554-6.04449,2.3739-9.70337,2.90546,6.69177-14.62891,27.56226-26.46173,43.84686-31.07733.89307-.25312,1.6778.35443,2.423,1.15142-.0976,2.58216-2.63989,2.52509-4.35944,3.35468a14.7272,14.7272,0,0,1-1.42291,1.4873c2.15161-.82422,4.41443-1.60968,6.82666-2.33337.223-.0669.43164-.13092.64868-.19666.94641-.67163,1.90888-1.33868,2.8963-1.99792L221.562,14.64716l-32.54,12.51672-4.37011,3.4201-8.934,8.93293-5.6615,12.19391-.28192.38061,10.62561-.9245A29.97658,29.97658,0,0,1,183.62036,45.73645Z"/><polygon class="cls-2" points="164.613 55.523 162.752 61.572 167.789 54.772 164.613 55.523"/><path class="cls-2" d="M194.55511,48.44434l1.10151,6.60705c.17883-.02368.35095-.05151.53173-.0741Z"/><path class="cls-2" d="M161.50586,74.11438a21.42889,21.42889,0,0,1,4.78845-10.61322c6.63819-7.30878,15.78693-11.85736,26.923-12.70172a25.14325,25.14325,0,0,1,1.26837,4.415c.38482-.05762.77691-.1109,1.1709-.16309l-1.10151-6.60705L167.78882,54.772l-5.03729,6.8003-4.61817,15.00659Q159.80136,75.32245,161.50586,74.11438Z"/><path class="cls-2" d="M164.06769,98.531s-.31256-1.04615-.63733-2.80939a20.74183,20.74183,0,0,0-1.95282,1.075c-.27753-3.36206-.61694-7.15918-.72131-11.02808q-2.14261,1.69821-4.21711,3.48035l1.54108,13.09253Z"/><path class="cls-2" d="M161.50586,74.11438q-1.70343,1.2094-3.3725,2.46454l-2.07251,6.73492q2.35145-1.93121,4.782-3.76269A43.42511,43.42511,0,0,1,161.50586,74.11438Z"/><path class="cls-2" d="M160.8429,79.55115q-2.43109,1.83022-4.782,3.76269l-.15936.51795.11694.99383,4.7099-1.58124C160.73248,82.00824,160.76764,80.77423,160.8429,79.55115Z"/><path class="cls-2" d="M160.72833,83.24438l-4.7099,1.58124.52069,4.42322q2.07514-1.78107,4.21711-3.48035Q160.72225,84.5092,160.72833,83.24438Z"/><polygon class="cls-2" points="183.122 173.116 188.191 181.035 182.578 165.132 183.122 173.116"/><path class="cls-2" d="M195.56848,192.56158l4.97608,7.77442s.85437.19269,2.17675.48016V200.336Z"/><path class="cls-2" d="M207.66431,201.85693c5.34808,1.08582,11.55249,2.19349,10.30041,1.20325-.28662-.22662-.555-.46619-.8352-.69757-8.36042-1.42426-15.49976-4.17828-19.86414-10.43121-5.23279-7.50153-10.54913-20.25391-12.934-30.10724-.48608-2.02362-1.32184-6.33863-1.11767-7.44269.78344-4.27417,8.399-6.15082,5.40374-12.12683h-.00012l-7.12823,6.90692,1.08892,15.97015,5.613,15.90375,7.37738,11.52612,7.15283,7.77442Z"/><polygon class="cls-2" points="152.674 120.056 153.724 127.931 160.257 144.807 163.432 145.784 157.535 136.096 152.674 120.056"/><polygon class="cls-2" points="151.547 111.599 152.333 117.492 156.549 106.379 151.547 111.599"/><polygon class="cls-2" points="184.445 104.598 186.601 109.342 186.389 106.153 184.445 104.598"/><polygon class="cls-2" points="176.536 99.491 180.303 101.285 178.223 99.62 176.536 99.491"/><path class="cls-2" d="M161.81335,100.884l-.23669.24695,6.59735-2.28381-3.15259-.24268C163.93341,99.35138,162.86035,100.10858,161.81335,100.884Z"/><path class="cls-2" d="M164.06769,98.53107l-2.25434,2.3529c1.047-.77539,2.12006-1.53259,3.20807-2.27954Z"/><path class="cls-2" d="M235.25543,15.99164l1.15845-.49646q1.33685-.69186,2.62872-1.33594a34.82685,34.82685,0,0,1,5.56555-2.17572l11.46668-4.91418,33.75293,4.89972L308.88647,25.7337a31.95477,31.95477,0,0,1,10.33973,7.46753S284.928-7.62817,252.26288,4.89221a142.9432,142.9432,0,0,0-19.10474,8.99542C235.74182,14.08447,237.27332,14.65179,235.25543,15.99164Z"/><path class="cls-2" d="M228.39087,18.93353c-.89758.31165-1.8761.63971-2.96027.98883l.15613.21289Z"/><path class="cls-2" d="M196.18835,54.97729c.01178.31794.02271.61927.03406.92914.69354-.25128,1.3855-.5061,2.0838-.74707l-.068-6.63177.00049-.00073a39.34275,39.34275,0,0,1,5.50244-8.7967l2.77533-4.43695-2.16193,1.71839L202.7171,38.922C198.37122,44.70642,196.014,50.26263,196.18835,54.97729Z"/><path class="cls-2" d="M196.84277,71.11993l.95166-6.34448c-.18072.06787-.3587.14111-.53912.20966l-.57086,5.23285c.00848.326.01648.64251.02386.94708Z"/><path class="cls-2" d="M196.72589,71.89929l.11688-.77936-.13446.04511C196.71436,71.41473,196.72046,71.66351,196.72589,71.89929Z"/><path class="cls-2" d="M196.47937,59.986c.62006-.23132,1.24548-.45074,1.86945-.67352l-.04261-4.15314c-.6983.241-1.39026.49579-2.0838.74707q.06207,1.69419.11621,3.23548Z"/><path class="cls-2" d="M197.25531,64.98511c.18042-.06855.3584-.14179.53912-.20966l.57135-3.80908-.017-1.65387c-.624.22278-1.24939.4422-1.86945.67352l.79865,4.79071Z"/><path class="cls-2" d="M206.51648,35.29321l-2.77533,4.43695c8.25433-10.19757,21.55981-18.483,32.67273-24.235l-1.15845.49646a34.42832,34.42832,0,0,1-6.86456,2.94189l-2.80414,1.20172Z"/><path class="cls-2" d="M198.23828,48.52765l.00043-.00079-.00049.00073.068,6.63177c.583-.20123,1.17151-.38983,1.75775-.58374A28.74965,28.74965,0,0,0,198.23828,48.52765Z"/><path class="cls-2" d="M302.53448,21.90576v.00006a36.9209,36.9209,0,0,1,4.38318,2.94068c.68152.28692,1.33466.58392,1.96881.8872L289.82776,11.96906,256.07483,7.06934l-11.46668,4.91418C262.51227,6.6275,287.28607,13.30243,302.53448,21.90576Z"/><path class="cls-2" d="M196.84277,71.11993l2.686-.90179a62.77529,62.77529,0,0,0,.91113-6.39813c-.88513.31134-1.76862.6264-2.64545.95544Z"/><path class="cls-2" d="M196.72589,71.89929c.142,6.15381.07257,7.64337.0307,8.00421a67.39081,67.39081,0,0,1,2.59363-8.7586c.06134-.309.12012-.61792.17853-.92676l-2.686.90179Z"/><path class="cls-2" d="M196.75659,79.9035l-.024.11792S196.74316,80.01849,196.75659,79.9035Z"/><path class="cls-2" d="M200.5368,58.54987a30.678,30.678,0,0,0-.47284-3.97425c-.58624.19391-1.17474.38251-1.75775.58374l.04261,4.15314Q199.4392,58.92313,200.5368,58.54987Z"/><path class="cls-2" d="M198.36578,60.96637l-.57135,3.80908c.87683-.329,1.76032-.6441,2.64545-.95544a38.05974,38.05974,0,0,0,.09692-5.27014q-1.09834.37161-2.188.76263Z"/><path class="cls-2" d="M206.51648,35.29321l1.6488-2.63586,17.42145-12.5221-.15613-.21289c-1.082.34833-2.27069.718-3.55072,1.10559C213.756,26.794,207.183,32.9776,202.7171,38.922l1.63745-1.9104Z"/><path class="cls-2" d="M196.5423,65.26239c.05853,1.88214.10522,3.52313.14215,4.95557l.57086-5.23285C197.01685,65.07581,196.78027,65.17047,196.5423,65.26239Z"/><path class="cls-2" d="M196.33862,59.14191c.01044.2984.02069.59369.03076.88366.03644-.01361.07355-.02588.11-.03955Z"/><path class="cls-2" d="M197.278,64.77673l-.79865-4.79071c-.03644.01367-.07355.02594-.11.03955.06666,1.92469.124,3.6651.17292,5.23682.238-.09192.47455-.18658.713-.27728Z"/><polygon class="cls-2" points="208.165 32.657 206.516 35.293 225.587 20.135 208.165 32.657"/><path class="cls-2" d="M225.4306,19.92236c1.08417-.34912,2.06269-.67718,2.96027-.98883l6.86456-2.94189c2.01789-1.33985.48639-1.90717-2.09729-2.104-2.92535,1.653-5.72931,3.37146-8.382,5.1424Z"/><path class="cls-2" d="M228.39087,18.93353a34.42832,34.42832,0,0,0,6.86456-2.94189Z"/><path class="cls-2" d="M224.77618,19.03c-.98742.65924-1.94989,1.32629-2.8963,1.99792,1.28-.38763,2.46875-.75726,3.55072-1.10559Z"/><path class="cls-2" d="M323.03815,38.64484s-.1474-.00476-.41022-.00135l1.3031,2.08472Z"/><path class="cls-2" d="M326.241,46.78992c-8.64984-2.56775-16.1128,1.178-16.38965,7.745,3.87073-3.62024,12.36169-10.18353,18.08655-4.45739L323.931,40.72821l-1.3031-2.08472a21.48323,21.48323,0,0,0-2.477.19C322.24451,41.52313,324.2583,44.23114,326.241,46.78992Z"/><polygon class="cls-2" points="154.211 332.528 154.268 335.897 156.276 336.614 154.268 333.173 154.211 332.528"/><polygon class="cls-2" points="179.372 195.086 188.447 191.456 186.933 189.994 179.372 195.086"/><polygon class="cls-2" points="148.824 271.655 140.674 247.556 150.399 289.452 148.824 271.655"/><path class="cls-2" d="M163.22632,334.52643c-1.38434-.69946-2.77411-1.38837-4.18152-2.04663q-.18275-6.49182-.5791-13.0279-2.30118-1.72347-4.53595-3.53125l.28137,16.607.05713.645,2.00781,3.441,5.6142,2.00421A29.67129,29.67129,0,0,0,163.22632,334.52643Z"/><path class="cls-2" d="M137.754,226.98566c15.1394-11.68586,32.08117-24.04132,50.19989-31.18677,1.05841-.41718,7.25879,7.24036,10.71722,11.24658l4.05023-1.80975L188.447,191.45587l-9.07477,3.63031L133.58154,225.924l5.98938,16.87793,1.10358,4.75421,8.14978,24.0987,1.57489,17.79687,3.32483,14.32379.0047.27777c1.251,1.13337,2.51672,2.24994,3.80719,3.337C154.90143,278.99261,148.90277,250.90833,137.754,226.98566Z"/><path class="cls-2" d="M153.821,309.50592l.10871,6.41473q2.23206,1.81065,4.53595,3.53125-.19574-3.24471-.44953-6.4909Q155.88611,311.273,153.821,309.50592Z"/><path class="cls-2" d="M157.53589,307.39026c-1.29047-1.087-2.55615-2.20361-3.80719-3.337l.09234,5.45264q2.065,1.76715,4.19513,3.45508C157.87225,311.103,157.70819,309.24664,157.53589,307.39026Z"/><path class="cls-2" d="M205.44427,267.84418c0,2.7229,1.08777,25.58832,1.08777,25.58832h8.71167v-1.95917c-1.76623.22583-3.53418.44732-5.29528.687-2.5954-4.02313-1.54828-10.22418-1.82142-16.63294-.26532-6.15563,1.966-19.14312.58765-22.726l-.7312-.89215-1.45142,3.41315S205.44427,265.12189,205.44427,267.84418Z"/><path class="cls-2" d="M208.16528,298.33221l-21.03015.93378c-.01037.15778-.03729.29535-.03607.46729,5.276.84466,13.36444-1.63965,19.00226.73693q.27164,3.18824.58343,6.34046l1.48053.23132Z"/><polygon class="cls-2" points="311.716 292.355 312.566 296.608 312.149 292.343 311.716 292.355"/><path class="cls-2" d="M296.98816,339.02618c.357-.13623.71222-.27636,1.068-.41534q-.191-2.58326-.36688-5.1601c-.35754.14362-.71936.27845-1.07843.41932Z"/><path class="cls-2" d="M297.68927,333.45074q-.14181-2.074-.27386-4.14563c-.36872.153-.73444.312-1.1048.46174l.30023,4.10321C296.96991,333.72919,297.33173,333.59436,297.68927,333.45074Z"/><path class="cls-2" d="M327.93787,291.25378s12.5205-31.57586,12.5205-33.2091c0-1.15113,5.40644-23.38544,8.5998-36.41815l-1.96234-1.45777c-.452,2.51227-1.07392,5.14868-1.398,6.76465-2.67523,13.22437-8.68884,30.69531-14.41662,44.5531-2.0824,5.03687-4.0733,11.33325-6.82367,12.421-7.52441,2.97937-16.65753-.28912-23.05164,3.69128,8.59577-14.91345,17.95258-29.00018,26.3769-44.09118-1.2837-2.99536-4.42939-4.27094-5.344-7.60272,4.0426-7.63227,4.04944-26.22895-1.16321-34.91675l-6.13849-4.56a8.48032,8.48032,0,0,0-4.59814.94684,13.04176,13.04176,0,0,1,2.46411-2.53211l-1.39758-1.0382,10.34332-11.43274-13.066,13.066v6.07141l2.01544-1.16675,6.533,2.17712,3.26648,9.7995a2.04914,2.04914,0,0,0-.88977-.96472,68.06755,68.06755,0,0,1,1.612,11.70453c.12055,2.50348.12183,8.68939-2.46649,12.05286l-.407.52954-.66669-.01917c-3.11829-.09137-6.11163-.2879-8.99689-.56885v3.223c6.13825-.93647,11.226,2.87109,13.8924,7.15155-7.20111,12.33349-14.12171,24.968-22.52619,35.99725l-2.51941,10.31726,13.33033-2.666.60992,3.04888,1.19623-.06408,6.19836-2.43537Z"/><polygon class="cls-2" points="326.849 186.728 321.949 182.372 328.298 188.242 326.849 186.728"/><path class="cls-2" d="M351.34717,212.31421l-.7508-.78418-.48345,5.79779C350.86664,214.2605,351.34717,212.31421,351.34717,212.31421Z"/><polygon class="cls-2" points="302.989 292.59 311.716 292.355 311.67 292.125 302.989 292.59"/><polygon class="cls-2" points="293.397 292.609 293.418 292.849 297.486 292.739 297.73 291.742 293.397 292.609"/><path class="cls-2" d="M312.91412,298.345l-.34765-1.73743.63415,6.48236c.12323-.08337.20752-.14154.29248-.20056Z"/><polygon class="cls-2" points="311.06 289.076 297.73 291.742 297.486 292.739 302.989 292.59 311.67 292.125 311.06 289.076"/><polygon class="cls-2" points="297.45 292.887 302.989 292.59 297.486 292.739 297.45 292.887"/><path class="cls-2" d="M349.71393,222.11365l.399-4.78583c-.3097,1.26025-.66535,2.70941-1.05475,4.29871Z"/><polygon class="cls-2" points="350.803 209.048 328.298 188.242 350.596 211.53 350.803 209.048"/><path class="cls-2" d="M313.003,194.84283c2.54059-2.11029,5.91687-4.20288,7.77143-6.94067,6.3681,5.12836,10.21264,9.95465,16.31781,15.439,3.31384,2.96929,9.82879,6.52972,10.487,11.33154a20.92854,20.92854,0,0,1-.48345,5.49609l1.96234,1.45777c.3894-1.5893.745-3.03846,1.05475-4.29871l.48345-5.79779-22.298-23.288-6.34955-5.87011-10.34332,11.43274Z"/><path class="cls-2" d="M315.13708,196.4281l6.13849,4.56C319.71179,198.38184,317.67322,196.68555,315.13708,196.4281Z"/><path class="cls-2" d="M263.81415,399.82208a131.96663,131.96663,0,0,1-34.56665-5.41229,397.59584,397.59584,0,0,1-12.54932-48.78357q-1.1196-.22659-2.23242-.47186l1.32153,9.25043,11.2713,45.7373h.00006l25.04352,5.44391,41.37427-3.26648.10382-1.55841-43.49487,1.55334A106.49715,106.49715,0,0,0,263.81415,399.82208Z"/><path class="cls-2" d="M274.035,292.89l-64.7807,2.71808.65259,17.63391,3.21314,22.49189q.92605.22668,1.85644.4425c-1.97955-11.578-3.59381-23.54578-4.97693-36.26111,21.46057-4.0144,51.57941-7.52344,74.79883-4.2348.04407-1.30237.082-2.24786.10541-2.79218Z"/><path class="cls-2" d="M213.71478,339.89728l.751,5.25708q1.11347.24379,2.23242.47186-.50647-2.63031-.98511-5.28406C215.04565,340.19769,214.37878,340.05133,213.71478,339.89728Z"/><path class="cls-2" d="M213.71478,339.89728c.664.154,1.33087.30041,1.99829.44488-.24957-1.38452-.498-2.7705-.73657-4.16583q-.931-.214-1.85644-.4425Z"/><path class="cls-2" d="M214.24231,345.10455l1.545,9.30024-1.32153-9.25043C214.39124,345.138,214.31689,345.121,214.24231,345.10455Z"/><polygon class="cls-2" points="209.254 295.608 274.035 292.89 260.268 292.892 209.254 295.608"/><path class="cls-2" d="M212.667,335.62085c.151.03754.30176.07593.45307.113l-3.21314-22.49189.27442,7.41547Z"/><path class="cls-2" d="M213.36438,339.81915l.87793,5.2854c.07458.01648.14893.03345.22345.04981l-.751-5.25708C213.59839,339.87024,213.48071,339.84644,213.36438,339.81915Z"/><path class="cls-2" d="M212.667,335.62085l.69739,4.1983c.11633.02729.234.05109.3504.07813l-.59472-4.16345C212.96875,335.69678,212.818,335.65839,212.667,335.62085Z"/><path class="cls-2" d="M295.88556,339.4472c-.64935.24176-1.30365.4726-1.95722.70527,1.88166,18.14807.481,38.61352,3.99866,55.50457-1.32763.4115-2.6933.78681-4.08264,1.13758l-.2641,3.96649,2.23663-.0799,5.44361-3.26648L297.426,345.01068l-1.06525.14014Z"/><path class="cls-2" d="M293.13159,331.00623c.66577-.24988,1.32544-.51252,1.98639-.77247L292.00653,292.887l-.47125,9.3349C292.55676,311.89026,292.52655,321.4726,293.13159,331.00623Z"/><path class="cls-2" d="M287.10675,292.34155l-2.18286.09156c-.00391.08557-.0108.23779-.02008.45513l7.10272-.00122,1.39063-.27813-.30286-3.53382Z"/><path class="cls-2" d="M293.43774,335.0708c.10663,1.22852.20862,2.45715.349,3.6842.05268.462.09339.93238.1416,1.39747.65357-.23267,1.30787-.46351,1.95722-.70527l-.42731-5.129Q294.4519,334.70266,293.43774,335.0708Z"/><path class="cls-2" d="M293.43774,335.0708q1.01358-.36942,2.02051-.75256l-.34027-4.08448c-.661.26-1.32062.52259-1.98639.77247Q293.26068,333.0398,293.43774,335.0708Z"/><path class="cls-2" d="M284.92389,292.43311l2.18286-.09156,5.98755-3.26648-8.16626,3.26776Z"/><path class="cls-2" d="M295.88556,339.4472l.47522,5.70362,1.06525-.14014-.43787-5.9845C296.62061,339.16644,296.25452,339.30994,295.88556,339.4472Z"/><path class="cls-2" d="M295.118,330.23376c.39722-.15631.79718-.307,1.19263-.46691l-1.58307-21.63514-2.721-15.24469Z"/><path class="cls-2" d="M295.45825,334.31824l.42731,5.129c.369-.13726.73505-.28076,1.1026-.421l-.37732-5.15612C296.22717,334.02051,295.84351,334.171,295.45825,334.31824Z"/><path class="cls-2" d="M295.45825,334.31824c.38526-.14722.76892-.29773,1.15259-.44818l-.30023-4.10321c-.39545.15991-.79541.3106-1.19263.46691Z"/><polygon class="cls-2" points="292.007 292.887 293.418 292.849 293.397 292.609 292.007 292.887"/><polygon class="cls-2" points="294.728 308.132 293.418 292.849 292.007 292.887 294.728 308.132"/><path class="cls-2" d="M284.7984,295.68042c2.06171.292,4.08887.61792,6.03052,1.02185.28332,1.8432.51233,3.68286.70636,5.51965l.47125-9.3349-7.10272.00122C284.88043,293.43256,284.84247,294.378,284.7984,295.68042Z"/><path class="cls-2" d="M325.21527,333.71814l-5.9892,2.17871-1.28534-6.85675q-.51837.29975-1.03991.59448l1.07593,8.44434,21.23217-5.98877,5.66663-.30634-.60523-.78668Z"/><path class="cls-2" d="M373.35516,286.15314c1.77594,2.68475,3.48182,8.41626,4.91333,14.15185a34.616,34.616,0,0,0-.24554-4.15149l5.98913,17.42151.11255,2.02832,1.359-4.20007L374.59473,279.2821l-4.75312-.62q-.88989,1.429-1.81189,2.83478A14.719,14.719,0,0,1,373.35516,286.15314Z"/><path class="cls-2" d="M331.66705,321.53253a5.64,5.64,0,0,1,2.2583-.3349l-.49481-2.47479c-.61181.46612-1.23077.92328-1.84991,1.37994C331.61084,320.58063,331.64264,321.0589,331.66705,321.53253Z"/><path class="cls-2" d="M327.93787,291.25378l-15.07178.80738-.7168.28167.76483,6.00214.86847,4.34149s-.11963.0849-.28949.20288l2.18854,17.17633q2.311-1.395,4.56793-2.872c-1.18774-7.7254-2.52942-15.41027-3.256-22.64721,2.59192-.05036,5.75067-.64813,8.46344-.02619,2.42419,4.16773,3.98621,9.5824,4.96057,15.29407q.53285-.42444,1.06073-.85455Z"/><path class="cls-2" d="M327.93787,291.25378l7.07684-2.721s.20959,1.21142.53931,3.14465c5.372-3.37933,13.56323-5.16052,20.0924-7.95075q1.91346-2.56942,3.71314-5.22949l-14.70709,4.59564Z"/><path class="cls-2" d="M317.593,327.18512s1.60992-.74268,3.82452-1.70538c-.16724-1.31983-.34131-2.64-.53015-3.96387q-2.30192,1.46594-4.6579,2.8493l.67139,5.26941q.52084-.29562,1.03991-.59448Z"/><path class="cls-2" d="M331.07465,314.39746c.22326,1.909.38653,3.81934.506,5.70532.61914-.45666,1.2381-.91382,1.84991-1.37994l-1.067-5.33612C331.934,313.72382,331.508,314.06531,331.07465,314.39746Z"/><path class="cls-2" d="M363.06445,280.40186a9.0586,9.0586,0,0,1,4.96527,1.095q.92039-1.407,1.81189-2.83478l-5.17767-.67542Q363.87577,279.20307,363.06445,280.40186Z"/><path class="cls-2" d="M315.68164,320.06567l.54779,4.2995q2.35914-1.378,4.6579-2.8493-.30836-2.16174-.63776-4.32221Q317.997,318.67663,315.68164,320.06567Z"/><path class="cls-2" d="M330.41754,309.81433c.25824,1.51325.47724,3.04529.65711,4.58313.43335-.33215.85931-.67364,1.28888-1.01074l-.88526-4.42694Q330.94975,309.38933,330.41754,309.81433Z"/><path class="cls-2" d="M359.35956,278.49719q-1.79983,2.65933-3.71314,5.22949a30.90424,30.90424,0,0,0,4.50232-2.30993,6.55484,6.55484,0,0,1,2.91571-1.01489q.811-1.19916,1.59949-2.41517l-2.5896-.33783Z"/><polygon class="cls-2" points="319.064 289.626 312.866 292.061 327.938 291.254 319.064 289.626"/><path class="cls-2" d="M312.91412,298.345l.579,4.54437c.16986-.118.28949-.20288.28949-.20288Z"/><path class="cls-2" d="M376.6394,330.067a14.11855,14.11855,0,0,1-7.27429,4.57043c-6.18841,1.50244-15.67914,1.898-19.73285-.05987,4.2519-2.32325,10.32691-2.67182,15.59284-3.89362l-20.34955,1.09985,4.83838,6.28986,16.33246.54419,9.79944-2.17743,8.71014-13.066-.43134-7.77112-4.63012,14.30939Z"/><path class="cls-2" d="M378.023,296.1535a34.616,34.616,0,0,1,.24554,4.15149c1.01978,4.08582,1.90143,8.17383,2.56525,11.16345,1.58447,7.12446-.2724,14.10956-4.19434,18.59858l2.85511-.1543,4.63012-14.30939-.11255-2.02832Z"/><path class="cls-2" d="M367.78247,329.993c-8.22333-3.5415-20.38934-.20416-30.277-.82049-.40783-4.17078-.78265-8.45954-1.21283-12.68543q-1.41705,1.13562-2.86206,2.23578l.49481,2.47479a5.64,5.64,0,0,0-2.2583.3349c.15918,3.09619.19709,6.093.15308,8.83435-3.35474.64691-5.53351,2.57044-9.61169,2.44348-.16077-1.9685-.37806-3.95526-.61683-5.94793q-1.80743,1.11684-3.65088,2.17767l1.28534,6.85675,5.9892-2.17871,19.05505-2.721.60523.78668L365.2251,330.684C366.10242,330.48041,366.96271,330.25854,367.78247,329.993Z"/><path class="cls-2" d="M327.93787,291.25378l3.5404,17.706q1.79544-1.45908,3.54059-2.97931a86.0343,86.0343,0,0,0-2.49969-11.88959,15.38043,15.38043,0,0,1,3.03485-2.41345c-.32972-1.93323-.53931-3.14465-.53931-3.14465Z"/><path class="cls-2" d="M317.593,327.18512l.34777,1.855q1.84077-1.06512,3.65088-2.17767c-.05523-.46015-.11566-.9217-.17413-1.38269C319.20288,326.44244,317.593,327.18512,317.593,327.18512Z"/><path class="cls-2" d="M332.36353,313.38672l1.067,5.33612q1.44471-1.10065,2.86206-2.23578c-.19745-1.93939-.40558-3.86652-.6358-5.76086Q334.03037,312.08154,332.36353,313.38672Z"/><path class="cls-2" d="M332.36353,313.38672q1.66543-1.30692,3.29327-2.66052-.29325-2.41325-.63794-4.74573-1.74674,1.518-3.54059,2.97931Z"/><polygon class="cls-2" points="294.164 283.358 296.199 288.538 297.563 280.628 296.361 283.633 294.164 283.358"/><path class="cls-2" d="M290.75543,232.46191h-2.1466l4.94836,1.01905Z"/><path class="cls-2" d="M300.52118,244.84381c-.46814,10.76264-.63355,21.45416-2.91528,31.52869.20245.39551.3767.735.51715,1.00805l3.5213-20.41961,1.08764-20.14313-.926-.33679V245.523S301.31335,245.26044,300.52118,244.84381Z"/><path class="cls-2" d="M271.70038,240.08429l5.30023,7.60431-4.24237-10.00769A23.18822,23.18822,0,0,0,271.70038,240.08429Z"/><path class="cls-2" d="M298.53949,278.18781s-.15131-.29187-.41644-.80726l-.56006,3.24781Z"/><polygon class="cls-2" points="301.806 235.18 293.557 233.481 301.806 236.481 301.806 235.18"/><path class="cls-2" d="M275.0058,234.05786c-.96747.66254-1.91773,1.38928-2.87061,2.1532l.623,1.46985c1.13153-2.23407,3.08954-5.219,5.4751-5.219h10.37549l-5.314-1.0943-7.69586,1.00391-.05152,1.315Z"/><polygon class="cls-2" points="277.001 247.689 292.007 283.088 294.164 283.358 284.222 258.05 277.001 247.689"/><path class="cls-2" d="M272.75824,237.68091l4.24237,10.00769L284.22247,258.05l9.94171,25.30786,2.1966.27521,1.20221-3.0047.56006-3.24781c-.14045-.273-.3147-.61254-.51715-1.00805-.3573,1.57745-.76136,3.14123-1.23206,4.68628-7.50311-13.75818-11.91779-30.36805-21.63232-42.07532,1.02728-1.08777,1.94354-2.29468,2.95129-3.40863,4.39825,1.83905,7.26953-2.41388,10.652-2.04968,3.87738.41156,6.94623,5.76532,12.478,5.41418-.121,1.96832-.216,3.9375-.30157,5.90448.79217.41663,1.28479.67914,1.28479.67914V236.481l-8.24878-3.00006-4.94836-1.01905H278.23334C275.84778,232.46191,273.88977,235.44684,272.75824,237.68091Z"/><path class="cls-2" d="M207.623,207.96326s.4754.199,1.28.51837c-1.091-1.28259-1.32032-2.57923-.14881-3.76856,4.60755,3.19959,13.52014,2.41394,20.30188,3.60462.24536,1.505-.51623,3.34161-1.00079,5.33258a7.35759,7.35759,0,0,0,1.67908-.19208,13.48313,13.48313,0,0,1,2.14776-4.82141l.07691-2.30518-15.0821-1.63977-9.21264-2.8349c-1.87433-.38055-3.63727-.75689-4.943-1.04077v4.41956l4.15754,3.72021Z"/><polygon class="cls-2" points="206.879 208.956 202.721 205.236 206.524 209.429 206.879 208.956"/><polygon class="cls-2" points="209.638 212.863 210.209 213.12 209.27 212.457 209.638 212.863"/><path class="cls-2" d="M220.70258,217.84216l8.93573,4.02118q-.17386-1.09423-.26246-2.166Z"/><path class="cls-2" d="M202.72131,200.336v.48016c1.30573.28388,3.06867.66022,4.943,1.04077Z"/><polygon class="cls-2" points="213.065 214.491 213.717 214.699 212.872 214.318 213.065 214.491"/><polygon class="cls-2" points="205.99 210.142 209.27 212.457 206.524 209.429 205.99 210.142"/><polygon class="cls-2" points="213.065 214.491 212.872 214.318 210.209 213.12 215.246 216.675 220.703 217.842 213.717 214.699 213.065 214.491"/><path class="cls-2" d="M213.71741,214.69891l11.3258,3.60279,4.32514,1.29773a20.04829,20.04829,0,0,1,.366-6.14124,7.35759,7.35759,0,0,1-1.67908.19208,11.0317,11.0317,0,0,0-.37085,2.72253c-4.29083-.26385-15.48273-4.01318-18.78143-7.89117-.80463-.3194-1.28-.51837-1.28-.51837l-.74414.99267,5.99267,5.36225Z"/><polygon class="cls-2" points="206.879 208.956 206.524 209.429 209.27 212.457 210.209 213.12 212.872 214.318 206.879 208.956"/><path class="cls-2" d="M229.36835,219.59943l-4.32514-1.29773-11.3258-3.60279,6.98517,3.14325,8.67327,1.85517C229.37305,219.66455,229.371,219.63214,229.36835,219.59943Z"/><path class="cls-2" d="M289.1665,214.145l.42493,1.22369c.01306.03754.03076.0708.04419.10816l.29157-1.603Z"/><path class="cls-2" d="M307.90961,233.65472q-3.20554-.3413-6.23133-.84936-2.975-.50088-5.768-1.17066c.44171.81208.83264,1.37275.83264,1.37275l-5.08978-1.81806-.10565.63678,1.12542.31775a93.40889,93.40889,0,0,0,16.2099,2.90942v-1.30859C308.56018,233.71313,308.22961,233.68878,307.90961,233.65472Z"/><path class="cls-2" d="M320.11469,223.1214a28.9656,28.9656,0,0,1-.345,6.37494,15.98186,15.98186,0,0,1-.59076,2.29547c-.10907.32312-.23016.62762-.35925.92163a7.75006,7.75006,0,0,1-.90167,1.60217l-.00006.00006v-.00006q-4.67744-.13723-9.0351-.57086v1.30859c2.88526.281,5.8786.47748,8.99689.56885l.66669.01917.407-.52954c2.58832-3.36347,2.587-9.54938,2.46649-12.05286a68.06755,68.06755,0,0,0-1.612-11.70453,4.87153,4.87153,0,0,0-1.51288-.56012A63.1546,63.1546,0,0,1,320.11469,223.1214Z"/><path class="cls-2" d="M295.91028,231.6347q2.79327.66944,5.768,1.17066Q298.70329,232.30448,295.91028,231.6347Z"/><path class="cls-2" d="M307.90961,233.65472c.32.03406.65057.05841.9732.09v-.00006C308.56024,233.713,308.22961,233.68878,307.90961,233.65472Z"/><path class="cls-2" d="M308.88281,233.74475q4.36414.42765,9.0351.57086v.00006l.00006-.00006q-4.67744-.13723-9.03516-.57092Z"/><path class="cls-2" d="M238.88428,245.70605c-.11939-.35119-.25452-.7243-.396-1.10681-1.39538-2.65332-2.93066-5.6513-4.34216-8.806l.61432,2.662c.5202,1.45978,1.06146,2.863,1.56872,4.16315.50336,1.28875.96527,2.47155,1.31873,3.51019.14544.42621.26605.8562.38342,1.27472a7.69731,7.69731,0,0,0,1.52728,3.30493q-.146-1.88205-.29974-3.76251C239.144,246.53668,239.02582,246.12018,238.88428,245.70605Z"/><path class="cls-2" d="M257.92688,245.38269c-.36786.20062-.85114.44067-1.42133.70581-.9356.43506-2.111.93756-3.38873,1.4436-.66913.265-1.36218.531-2.07257.78888-1.65363.60028-3.37006,1.15644-4.92145,1.553-.77569.19831-1.51013.35675-2.1748.46088-.3324.05206-.64722.09058-.94123.11359a5.0353,5.0353,0,0,1-1.48315-.06025l-1.75122.527a3.27637,3.27637,0,0,0,1.45459.74463,5.03153,5.03153,0,0,0,1.13177.11225c4.52845,0,13.98468-4.03846,16.19336-5.24292a61.743,61.743,0,0,0,10.25116-7.54486c1.13416-.96351,2.23481-1.89374,3.33191-2.77332l-.52685-1.2428C267.30316,238.3822,263.09528,242.56451,257.92688,245.38269Z"/><path class="cls-2" d="M274.28485,232.543l1.31409-.17145.17743-4.53387c-.4336.16381-.877.30334-1.32477.42578Q274.367,230.40338,274.28485,232.543Z"/><path class="cls-2" d="M233.3446,233.943c.40894,1.54932.89844,3.06018,1.41584,4.51221l-.61432-2.662C233.87286,235.18231,233.60657,234.56409,233.3446,233.943Z"/><path class="cls-2" d="M274.26788,232.97968c-.89709.61413-1.77972,1.29089-2.65954,1.98858l.52685,1.2428c.95288-.76392,1.90314-1.49066,2.87061-2.1532l.54162-.37134.05152-1.315-1.31409.17145Z"/><path class="cls-2" d="M282.82648,217.55762a5.03214,5.03214,0,0,1,1.34643.21191,4.68844,4.68844,0,0,1,1.84906,1.104,5.49758,5.49758,0,0,1,.892,1.12414,7.15385,7.15385,0,0,1,.97925,3.56348,7.45484,7.45484,0,0,1-.13,1.50842,6.71178,6.71178,0,0,1-.44024,1.43134,5.78769,5.78769,0,0,1-.75861,1.27111c-1.38067,1.74494-3.863,2.66883-7.56994,1.51-.19-1.0824-.3866-1.97857-.572-2.77478-.3811.245-.775.47577-1.18438.68451.15484.68286.31445,1.434.4696,2.316l.13782.78345.75922.2373a11.688,11.688,0,0,0,3.48913.58442,6.71859,6.71859,0,0,0,6.03851-3.32648,7.90742,7.90742,0,0,0,.98829-3.16217v-2.09082a7.74017,7.74017,0,0,0-2.23554-4.64215,6.19149,6.19149,0,0,0-4.8186-1.627,1.96448,1.96448,0,0,1,.52112.41071A8.40425,8.40425,0,0,1,282.82648,217.55762Z"/><path class="cls-2" d="M296.46063,210.0415c3.85187-2.61743,8.291-5.63305,12.42218-6.75579v-1.77643L290.21,212.31915l-.28277,1.55475.45977-.16394A36.07,36.07,0,0,0,296.46063,210.0415Z"/><path class="cls-2" d="M289.12061,224.62427v5.66052l2.53253.9046.08575-.51666a17.26746,17.26746,0,0,0,.0625-3.7973,11.71342,11.71342,0,0,1,.305-4.50928l.13526-.39044.33557-.24243a6.90386,6.90386,0,0,1,1.355-.75031,10.45089,10.45089,0,0,0-1.2243.22077l-1.56238.38531-.05615-1.609a7.928,7.928,0,0,0-.88489-3.11078c-.2013-.45349-.39655-.91217-.56891-1.39239l-.515,2.83136v4.22522A8.903,8.903,0,0,1,289.12061,224.62427Z"/><path class="cls-2" d="M315.83563,203.82947c1.87732,1.09356,3.13422,4.15216,3.97229,7.525a2.04914,2.04914,0,0,1,.88977.96472l-3.26648-9.7995-6.533-2.17712-2.01544,1.16675v1.77643A8.81554,8.81554,0,0,1,315.83563,203.82947Z"/><path class="cls-2" d="M291.08942,219.98l.05615,1.609,1.56238-.38531a10.45089,10.45089,0,0,1,1.2243-.22077,6.90386,6.90386,0,0,0-1.355.75031l-.33557.24243-.13526.39044a11.71342,11.71342,0,0,0-.305,4.50928,17.26746,17.26746,0,0,1-.0625,3.7973l-.08575.51666,5.08978,1.81806s-.39093-.56067-.83264-1.37275q-1.46649-.35129-2.883-.7489a11.15513,11.15513,0,0,0,.12543-1.11926c.02356-.37122.03094-.74017.02808-1.10547-.00556-.73053-.05188-1.44635-.0904-2.1358-.03845-.68964-.06915-1.353-.04358-1.97876a6.11656,6.11656,0,0,1,.29407-1.75342,5.354,5.354,0,0,1,.825-.48382,7.419,7.419,0,0,1,.934-.36591,37.65555,37.65555,0,0,1,6.7699-.93872A13.8703,13.8703,0,0,0,298.512,219.892a15.76968,15.76968,0,0,0-2.47088-.29584,13.19836,13.19836,0,0,0-3.64588.33881h-.00006c-.07184-2.07911-1.00445-3.3678-1.56952-4.99451.04639-.01654.09754-.03992.14508-.05811.23151-.08862.47614-.1961.733-.32061q.23556-.11417.48486-.24713.38526-.205.8006-.44983c4.14886-2.43909,10.42187-7.587,15.89355-9.21167v-1.36737c-4.13116,1.12274-8.57031,4.13836-12.42218,6.75579A36.07,36.07,0,0,1,290.387,213.71l-.45977.16394-.29157,1.603c.17236.48022.36761.9389.56891,1.39239A7.928,7.928,0,0,1,291.08942,219.98Z"/><path class="cls-2" d="M315.83563,203.82947a8.81554,8.81554,0,0,0-6.95282-.54376v1.36737c2.31647-.68775,4.48987-.74842,6.29456.305,1.33667.77856,2.356,3.05835,3.11767,5.83624a4.87153,4.87153,0,0,1,1.51288.56012C318.96985,207.98163,317.713,204.923,315.83563,203.82947Z"/><path class="cls-2" d="M293.15271,229.76654a11.15513,11.15513,0,0,1-.12543,1.11926q1.41495.39918,2.883.7489-1.46631-.35147-2.88294-.7489A11.1374,11.1374,0,0,0,293.15271,229.76654Z"/><path class="cls-2" d="M290.97076,214.88232c-.04754.01819-.09869.04157-.14508.05811.56507,1.62671,1.49768,2.9154,1.56952,4.99451h.00006c-.07183-2.07911-1.00439-3.3678-1.56952-4.99451C290.87219,214.92389,290.92322,214.90051,290.97076,214.88232Z"/><path class="cls-2" d="M294.16583,222.30927a5.354,5.354,0,0,0-.825.48382,6.11656,6.11656,0,0,0-.29407,1.75342,6.11863,6.11863,0,0,1,.29413-1.75342A5.35333,5.35333,0,0,1,294.16583,222.30927Z"/><path class="cls-2" d="M289.12061,222.53345v2.09082A8.903,8.903,0,0,0,289.12061,222.53345Z"/><path class="cls-2" d="M231.88214,208.63678l-.468,14.0257-.33276-.14978,1.23706,5.36059c-.00561-.09656-.02081-.19324-.02521-.28973l-.02551-.54865c-.32349-6.99615-.76623-16.57617,3.521-20.29181a6.68475,6.68475,0,0,1,5.90967-1.34228,82.588,82.588,0,0,1,21.92822,8.01819c.93341.51165,1.75256,1.04376,2.54431,1.55926a14.51859,14.51859,0,0,0,7.673,2.93347l1.25049.09565-.15313,4.03973-.56208.36877a16.04188,16.04188,0,0,1-5.24487,1.92926,28.64994,28.64994,0,0,1,5.92242,2.18573l.756.37641-.03644.93036a14.46322,14.46322,0,0,0,1.46167-.64594c-.09607-.4234-.19062-.82641-.28-1.20056a18.1325,18.1325,0,0,1-.64374-6.74347l.05615-.62268.52063-.34711a10.96615,10.96615,0,0,1,5.17542-2.01361c-2.19818-1.28625-8.02222-.28967-10.23377-1.43652q-6.37948-3.30735-12.7594-6.61463a46.6573,46.6573,0,0,0-9.06079-3.39489l-14.62628.41748A13.72712,13.72712,0,0,0,231.88214,208.63678Z"/><path class="cls-2" d="M239.57971,250.97327l.19269-.058c-.07507-.06579-.14551-.13549-.21381-.20709C239.56543,250.79651,239.57294,250.88483,239.57971,250.97327Z"/><path class="cls-2" d="M235.38623,205.23572l14.62628-.41748C244.69916,203.41809,238.8385,202.88818,235.38623,205.23572Z"/><path class="cls-2" d="M231.08142,222.5127l-1.44311-.64936A53.5216,53.5216,0,0,0,233.3446,233.943a30.93772,30.93772,0,0,1-1.02612-6.0697Z"/><path class="cls-2" d="M230.48651,219.93494l.59491,2.57776.33276.14978.468-14.0257a13.48313,13.48313,0,0,0-2.14776,4.82141c.06933-.01727.14459-.02991.21051-.04968Z"/><path class="cls-2" d="M230.48651,219.93494l-1.11066-.23761q.09018,1.07171.26246,2.166l1.44311.64936Z"/><path class="cls-2" d="M229.36835,219.59943l1.11816.33551-.54162-6.52643c-.06592.01977-.14118.03241-.21051.04968A20.04829,20.04829,0,0,0,229.36835,219.59943Z"/><path class="cls-2" d="M229.37585,219.69733l1.11066.23761-1.11816-.33551C229.371,219.63214,229.37305,219.66455,229.37585,219.69733Z"/><path class="cls-2" d="M239.25885,246.94568q.151,1.881.29974,3.76251c.0683.0716.13874.1413.21381.20709l1.75122-.527C240.10614,250.059,239.71912,248.58307,239.25885,246.94568Z"/><path class="cls-2" d="M232.31848,227.87329a30.93772,30.93772,0,0,0,1.02612,6.0697c.262.6211.52826,1.23932.80152,1.85022Z"/><path class="cls-2" d="M276.37042,218.625l-.05615.62268a18.1325,18.1325,0,0,0,.64374,6.74347c.08941.37415.184.77716.28,1.20056.40942-.20874.80328-.43951,1.18438-.68451a18.73823,18.73823,0,0,1-.80639-7.14233,9.314,9.314,0,0,1,4.99542-1.8219c.07446-.00049.142.01227.215.01465a8.40425,8.40425,0,0,0-.23889-.88263,1.96448,1.96448,0,0,0-.52112-.41071,10.96615,10.96615,0,0,0-5.17542,2.01361Z"/><path class="cls-2" d="M290.31122,282.939v-.00006q-2.64524-.79742-5.30029-1.71386Q287.66367,282.1391,290.31122,282.939Z"/><path class="cls-2" d="M279.70947,279.29285c-3.5285-1.35431-7.03937-2.83423-10.49579-4.39972C272.6701,276.45874,276.181,277.93854,279.70947,279.29285Z"/><path class="cls-2" d="M256.07483,151.88416c-5.51221-2.654-9.45178-1.20533-10.16821-.25153-1.35694,1.81134,1.45648,11.6875,1.45648,11.6875l2.72229.54559C249.54187,152.97357,256.07483,151.88416,256.07483,151.88416Z"/><path class="cls-2" d="M293.63977,245.25183a2.99457,2.99457,0,1,0-2.99536,2.99341A2.99618,2.99618,0,0,0,293.63977,245.25183Z"/><path class="cls-2" d="M293.63818,256.139a2.99439,2.99439,0,1,0,2.9953,2.99536A2.99576,2.99576,0,0,0,293.63818,256.139Z"/></svg>