<svg id="Layer_1" data-name="Layer 1" xmlns="http://www.w3.org/2000/svg" viewBox="0 0 360 336.63164"><defs><style>.cls-1,.cls-2{fill:#fff;}.cls-1{fill-rule:evenodd;}</style></defs><title>spinnaker-stacked-white</title><path id="Shape" class="cls-1" d="M64.3358,243.24672c107.56677,10.66257,193.94012-52.96166,215.47577-80.22542C301.35714,135.75754,268.6884,5.6842,268.6884,5.6842,233.27517,92.68229,168.88711,224.54231,64.33462,243.28452Z"/><path class="cls-1" d="M114.07628,208.52786c63.451,2.33582,111.747-37.564,123.39021-54.10372,11.64246-16.5407-6.18273-91.039-6.18273-91.039-17.63341,51.60674-66.696,126.80838-117.20648,145.14469Z"/><path class="cls-2" d="M39.45945,302.512a23.1591,23.1591,0,0,0,6.98841,4.95979,19.56186,19.56186,0,0,0,8.34942,1.87865,13.31591,13.31591,0,0,0,8.56351-2.46483,8.58431,8.58431,0,0,0,2.33962-10.0097,7.75687,7.75687,0,0,0-1.94212-2.495,14.21556,14.21556,0,0,0-2.92076-1.87865l-3.60892-1.74347-7.96706-3.41175a37.93137,37.93137,0,0,1-3.97595-1.99891,16.28827,16.28827,0,0,1-3.63945-2.82557,13.50886,13.50886,0,0,1-2.63028-3.95274,13.69858,13.69858,0,0,1,.29054-11.03168,14.14712,14.14712,0,0,1,3.63945-4.62918,16.98417,16.98417,0,0,1,5.505-3.00594,21.61085,21.61085,0,0,1,6.98841-1.08214,22.59944,22.59944,0,0,1,9.17516,1.87865,23.26343,23.26343,0,0,1,7.20251,4.86954l-3.8077,4.50892a19.89789,19.89789,0,0,0-5.64262-3.78743,17.07464,17.07464,0,0,0-6.98842-1.36767,12.21846,12.21846,0,0,0-7.50833,2.11915,6.91458,6.91458,0,0,0-2.84424,5.87659,6.56521,6.56521,0,0,0,.81049,3.36656,8.38372,8.38372,0,0,0,2.21725,2.35964,17.51031,17.51031,0,0,0,2.96662,1.8336q1.60563.79656,3.30311,1.503l7.89055,3.33657a34.06766,34.06766,0,0,1,4.49586,2.28446,16.12886,16.12886,0,0,1,3.63945,3.00594,13.0016,13.0016,0,0,1,2.41616,3.99794,14.5302,14.5302,0,0,1,.88693,5.29041A14.275,14.275,0,0,1,72.337,305.9085a14.66394,14.66394,0,0,1-3.777,4.95979,17.98627,17.98627,0,0,1-5.93325,3.33657,23.95706,23.95706,0,0,1-7.87535,1.20236,26.91376,26.91376,0,0,1-19.49707-8.086Z"/><path class="cls-2" d="M80.30666,317.907v13.67128H73.66072v-57.602h5.50664l.56966,4.66236h.24831a29.84851,29.84851,0,0,1,5.84259-4.0006,14.26929,14.26929,0,0,1,6.67527-1.66948,14.83821,14.83821,0,0,1,6.719,1.50391,13.15435,13.15435,0,0,1,4.86394,4.166,19.821,19.821,0,0,1,2.92129,6.49716,33.1842,33.1842,0,0,1,1.00785,8.54259,28.52083,28.52083,0,0,1-1.373,9.21942,21.49662,21.49662,0,0,1-3.72465,6.87324,15.809,15.809,0,0,1-5.419,4.28629,14.97066,14.97066,0,0,1-6.47077,1.504,12.96087,12.96087,0,0,1-5.46291-1.24831,27.49941,27.49941,0,0,1-5.46291-3.414Zm0-12.4228A17.5669,17.5669,0,0,0,85.492,308.778a12.70869,12.70869,0,0,0,4.382.96253,9.22968,9.22968,0,0,0,4.49879-1.128,10.834,10.834,0,0,0,3.564-3.17339,15.73571,15.73571,0,0,0,2.35166-5.03831,24.73567,24.73567,0,0,0,.84719-6.75285,30.18892,30.18892,0,0,0-.56966-6.0159,13.76857,13.76857,0,0,0-1.82586-4.70743,8.85838,8.85838,0,0,0-3.24272-3.00795,9.75242,9.75242,0,0,0-4.73263-1.08286,10.35564,10.35564,0,0,0-5.05391,1.41379,29.67208,29.67208,0,0,0-5.4629,4.09085Z"/><path class="cls-2" d="M115.0881,265.4642a5.40912,5.40912,0,0,1-3.5984-1.22469,4.08351,4.08351,0,0,1,0-6.25613,6.03306,6.03306,0,0,1,7.18093,0,4.0704,4.0704,0,0,1,0,6.25613,5.39213,5.39213,0,0,1-3.58238,1.22469Zm-3.72637,8.17437h7.27691v39.75h-7.27691Z"/><path class="cls-2" d="M124.18008,273.93759H129.863l.5817,5.68182h.25358a32.72075,32.72075,0,0,1,6.07068-4.74463,14.14772,14.14772,0,0,1,7.45795-1.90371q6.369,0,9.3074,3.89528t2.98316,11.52481v24.99759h-6.78672V289.28436q0-5.594-1.81974-8.06879a6.70749,6.70749,0,0,0-5.7874-2.47483,10.02527,10.02527,0,0,0-5.5337,1.53764,35.73558,35.73558,0,0,0-5.45918,4.53959v28.57038H124.344Z"/><path class="cls-2" d="M160.56129,273.93759H166.195l.58278,5.68182h.25405a32.77373,32.77373,0,0,1,6.0819-4.74463,14.17883,14.17883,0,0,1,7.47167-1.90371q6.38085,0,9.32461,3.89528t2.98863,11.52481v24.99759h-6.93375V289.28436q0-5.594-1.823-8.06879a6.7256,6.7256,0,0,0-5.79806-2.47483,10.058,10.058,0,0,0-5.544,1.53764,35.78848,35.78848,0,0,0-5.46932,4.53959v28.57038h-6.76939Z"/><path class="cls-2" d="M196.95583,303.91444a11.19,11.19,0,0,1,6.10509-10.19541q6.10509-3.54366,19.24646-4.955a18.37639,18.37639,0,0,0-.38158-3.73877,8.92687,8.92687,0,0,0-1.35848-3.24325,7.33124,7.33124,0,0,0-2.57936-2.28233,8.65033,8.65033,0,0,0-4.15152-.87088,16.81166,16.81166,0,0,0-6.73084,1.33633,33.38621,33.38621,0,0,0-5.54039,3.003l-2.793-4.74476a45.25893,45.25893,0,0,1,7.0208-3.5436,23.79763,23.79763,0,0,1,9.15768-1.71174q7.52445,0,10.91292,4.50452a19.78963,19.78963,0,0,1,3.38828,12.10232v24.82028h-5.75406l-.59524-4.82h-.16795a34.24656,34.24656,0,0,1-6.37986,4.11418,16.02347,16.02347,0,0,1-7.23451,1.71174,12.689,12.689,0,0,1-8.66923-3.003,10.67824,10.67824,0,0,1-3.49521-8.48366Zm6.853-.49551a5.73556,5.73556,0,0,0,2.0757,5,8.50881,8.50881,0,0,0,5.11308,1.5015,12.11444,12.11444,0,0,0,5.632-1.38139,27.33652,27.33652,0,0,0,5.632-4.03913V293.26858a73.29123,73.29123,0,0,0-8.71508,1.57656,23.12276,23.12276,0,0,0-5.70821,2.16221,8.10878,8.10878,0,0,0-3.05261,2.868A6.98515,6.98515,0,0,0,203.80881,303.41893Z"/><polygon class="cls-2" points="238.273 302.811 238.273 313.341 231.391 313.341 231.3 254.771 238.172 254.771 238.172 294.464 238.434 294.464 256.017 273.385 263.677 273.385 249.894 289.432 265.658 313.381 257.998 313.381 245.932 294.08 238.273 302.811"/><path class="cls-2" d="M259.59976,294.35987a24.36566,24.36566,0,0,1,1.50592-9.00065,20.98629,20.98629,0,0,1,4.09619-6.69047,17.72254,17.72254,0,0,1,5.79779-4.2003,16.40726,16.40726,0,0,1,6.76165-1.5,17.05714,17.05714,0,0,1,6.882,1.33513,13.42735,13.42735,0,0,1,5.09,3.82529,17.52935,17.52935,0,0,1,3.13234,6.00044,26.29219,26.29219,0,0,1,1.08427,7.81549,23.43617,23.43617,0,0,1-.256,3.73531H266.406a16.017,16.017,0,0,0,4.05087,10.39577,12.46351,12.46351,0,0,0,9.47229,3.82529,16.01869,16.01869,0,0,0,5.3912-.87006,23.84419,23.84419,0,0,0,4.71357-2.28019l2.42456,4.50026a34.68837,34.68837,0,0,1-5.93339,2.91023,20.6881,20.6881,0,0,1-7.42422,1.24509,19.9304,19.9304,0,0,1-7.635-1.50017,18.0755,18.0755,0,0,1-6.17428-4.15524,19.219,19.219,0,0,1-4.12617-6.61542,24.65006,24.65006,0,0,1-1.56618-8.77561Zm28.38641-3.07528q0-6.24046-2.63534-9.52563a8.9302,8.9302,0,0,0-7.39408-3.28524,10.032,10.032,0,0,0-4.12617.87006,11.444,11.444,0,0,0-3.554,2.49016,13.30128,13.30128,0,0,0-2.63535,3.99033,18.381,18.381,0,0,0-1.37048,5.44531Z"/><path class="cls-2" d="M295.99433,273.8776h5.63648l.58309,7.1572h.25415a18.31723,18.31723,0,0,1,5.00857-5.86645,10.504,10.504,0,0,1,6.42888-2.19994,10.90388,10.90388,0,0,1,4.30588.80664l-1.33061,5.86645a16.13913,16.13913,0,0,0-1.824-.484,11.1156,11.1156,0,0,0-2.07822-.16128,9.06943,9.06943,0,0,0-5.35239,2.03863,16.12,16.12,0,0,0-4.84408,7.0692v25.28421h-6.80273Z"/></svg>