<svg id="Layer_1" data-name="Layer 1" xmlns="http://www.w3.org/2000/svg" xmlns:xlink="http://www.w3.org/1999/xlink" viewBox="0 0 444 184"><defs><style>.cls-1{fill:url(#linear-gradient);}.cls-2{fill:url(#linear-gradient-2);}.cls-3{fill:url(#linear-gradient-3);}.cls-4{fill:url(#linear-gradient-4);}.cls-5{fill:url(#linear-gradient-5);}.cls-6{fill:url(#linear-gradient-6);}.cls-7{fill:url(#linear-gradient-7);}.cls-8{fill:url(#linear-gradient-8);}.cls-9{fill:url(#linear-gradient-9);}.cls-10{fill:url(#linear-gradient-10);}.cls-11{fill:url(#linear-gradient-11);}.cls-12{fill:url(#linear-gradient-12);}.cls-13{fill:url(#linear-gradient-13);}.cls-14{fill:url(#linear-gradient-14);}</style><linearGradient id="linear-gradient" x1="-24.10083" y1="125.16138" x2="433.13259" y2="168.65145" gradientUnits="userSpaceOnUse"><stop offset="0" stop-color="#2e3190"/><stop offset="0.55061" stop-color="#50a792"/><stop offset="1" stop-color="#39b34a"/></linearGradient><linearGradient id="linear-gradient-2" x1="-23.48265" y1="118.6621" x2="433.75077" y2="162.15216" xlink:href="#linear-gradient"/><linearGradient id="linear-gradient-3" x1="-23.10361" y1="114.67715" x2="434.12981" y2="158.16722" xlink:href="#linear-gradient"/><linearGradient id="linear-gradient-4" x1="-22.60346" y1="109.41879" x2="434.62996" y2="152.90886" xlink:href="#linear-gradient"/><linearGradient id="linear-gradient-5" x1="-21.48276" y1="97.63628" x2="435.75066" y2="141.12635" xlink:href="#linear-gradient"/><linearGradient id="linear-gradient-6" x1="-21.76403" y1="100.59336" x2="435.46939" y2="144.08343" xlink:href="#linear-gradient"/><linearGradient id="linear-gradient-7" x1="-24.93205" y1="133.90047" x2="432.30137" y2="177.39054" xlink:href="#linear-gradient"/><linearGradient id="linear-gradient-8" x1="-21.55861" y1="98.43376" x2="435.67481" y2="141.92383" xlink:href="#linear-gradient"/><linearGradient id="linear-gradient-9" x1="-15.93167" y1="38.96346" x2="441.30175" y2="82.45353" xlink:href="#linear-gradient"/><linearGradient id="linear-gradient-10" x1="-16.12955" y1="41.35522" x2="441.10387" y2="84.84529" xlink:href="#linear-gradient"/><linearGradient id="linear-gradient-11" x1="-16.38117" y1="44.00061" x2="440.85225" y2="87.49068" xlink:href="#linear-gradient"/><linearGradient id="linear-gradient-12" x1="-17.30315" y1="53.69389" x2="439.93027" y2="97.18396" xlink:href="#linear-gradient"/><linearGradient id="linear-gradient-13" x1="-17.07505" y1="51.29572" x2="440.15837" y2="94.78579" xlink:href="#linear-gradient"/><linearGradient id="linear-gradient-14" x1="-16.82352" y1="48.65124" x2="440.40991" y2="92.1413" xlink:href="#linear-gradient"/></defs><path class="cls-1" d="M169.655,120.92391a22.20326,22.20326,0,0,0-7.60482-4.75945,25.12123,25.12123,0,0,0-8.8464-1.60268,22.27656,22.27656,0,0,0-11.74344,3.36157,25.39189,25.39189,0,0,0-9.00055,9.57177,30.33429,30.33429,0,0,0-3.46612,15.00047,28.76374,28.76374,0,0,0,3.41444,14.27835,24.389,24.389,0,0,0,9.46612,9.519,28.263,28.263,0,0,0,14.12316,3.41435,22.13716,22.13716,0,0,0,10.864-2.74074,27.8668,27.8668,0,0,0,8.06927-6.46778,2.84555,2.84555,0,0,0,1.03472-2.17278,2.65773,2.65773,0,0,0-.776-1.86241,2.52544,2.52544,0,0,0-1.91416-.82778,3.21611,3.21611,0,0,0-2.17279.93121,20.224,20.224,0,0,1-3.67194,3.57074,18.67082,18.67082,0,0,1-5.12158,2.74074,18.93024,18.93024,0,0,1-6.415,1.03464,20.92045,20.92045,0,0,1-11.2778-2.897,19.16929,19.16929,0,0,1-7.13814-7.86343,24.36927,24.36927,0,0,1-2.47776-10.96751h39.10278a3.05784,3.05784,0,0,0,2.17278-.87833,2.81353,2.81353,0,0,0,.93121-2.12214,26.41077,26.41077,0,0,0-2.17279-10.55139A24.562,24.562,0,0,0,169.655,120.92391Zm-33.00475,11.48474a19.96272,19.96272,0,0,1,4.29278-6.72529,16.70078,16.70078,0,0,1,5.89759-3.87889,17.80832,17.80832,0,0,1,6.36316-1.24158,18.10351,18.10351,0,0,1,7.91519,1.80954,18.41624,18.41624,0,0,1,6.46668,5.17334,14.8762,14.8762,0,0,1,3.104,8.22668v.82769h-35.2214A21.36489,21.36489,0,0,1,136.65023,132.40865Z"/><path class="cls-2" d="M231.42234,115.493a3.15947,3.15947,0,0,0-1.96592-.72426,2.83554,2.83554,0,0,0-2.99944,1.96584l-17.67232,41.85869L191.176,116.73456a3.143,3.143,0,0,0-1.24158-1.552,3.10111,3.10111,0,0,0-1.65546-.51732,3.011,3.011,0,0,0-3.2075,3.00047,3.3851,3.3851,0,0,0,.10342.82778c.0683.27515.13762.51732.20695.72426l20.38186,47.48893a2.7599,2.7599,0,0,0,1.24158,1.50139,2.90893,2.90893,0,0,0,1.86241.46453,3.04876,3.04876,0,0,0,2.79361-1.96592l20.27835-47.59244c.06821-.20695.15518-.449.25861-.72427a2.96793,2.96793,0,0,0,.15528-1.03463A2.25481,2.25481,0,0,0,231.42234,115.493Z"/><path class="cls-3" d="M280.87822,120.92391a22.20279,22.20279,0,0,0-7.60473-4.75945,25.12188,25.12188,0,0,0-8.8464-1.60268,22.27681,22.27681,0,0,0-11.74352,3.36157,25.39232,25.39232,0,0,0-9.00047,9.57177,30.33332,30.33332,0,0,0-3.46612,15.00047,28.76456,28.76456,0,0,0,3.41436,14.27835,24.39014,24.39014,0,0,0,9.46611,9.519,28.26326,28.26326,0,0,0,14.12317,3.41435,22.137,22.137,0,0,0,10.864-2.74074,27.86719,27.86719,0,0,0,8.06935-6.46778,2.84545,2.84545,0,0,0,1.03463-2.17278,2.65738,2.65738,0,0,0-.776-1.86241,2.52527,2.52527,0,0,0-1.91408-.82778,3.21611,3.21611,0,0,0-2.17279.93121,20.2218,20.2218,0,0,1-3.672,3.57074,18.66938,18.66938,0,0,1-5.12158,2.74074,18.92933,18.92933,0,0,1-6.41491,1.03464,20.92052,20.92052,0,0,1-11.27788-2.897,19.16965,19.16965,0,0,1-7.13806-7.86343,24.36918,24.36918,0,0,1-2.47784-10.96751h39.10278a3.05757,3.05757,0,0,0,2.17278-.87833,2.81352,2.81352,0,0,0,.9312-2.12214,26.4106,26.4106,0,0,0-2.17278-10.55139A24.56053,24.56053,0,0,0,280.87822,120.92391Zm-33.00475,11.48474a19.96425,19.96425,0,0,1,4.29278-6.72529,16.70232,16.70232,0,0,1,5.8976-3.87889,17.80873,17.80873,0,0,1,6.36324-1.24158,18.10376,18.10376,0,0,1,7.91519,1.80954,18.41674,18.41674,0,0,1,6.46659,5.17334,14.87628,14.87628,0,0,1,3.10407,8.22668v.82769h-35.2214A21.37107,21.37107,0,0,1,247.87347,132.40865Z"/><path class="cls-4" d="M337.11012,117.30252q-4.08964-2.73744-10.91575-2.74074a20.6682,20.6682,0,0,0-7.39779,1.39573,24.18057,24.18057,0,0,0-6.67362,3.82825,22.40862,22.40862,0,0,0-4.6549,5.10813V119.2178a3.0724,3.0724,0,0,0-.87945-2.17278,2.93365,2.93365,0,0,0-2.22454-.93121,3.09571,3.09571,0,0,0-2.27629.93121,2.9779,2.9779,0,0,0-.93121,2.17278v46.35078a3.094,3.094,0,0,0,3.2075,3.10407,3.18256,3.18256,0,0,0,3.104-3.10407V135.46207a12.55634,12.55634,0,0,1,2.48212-7.55306,17.77863,17.77863,0,0,1,6.46667-5.43315,18.4089,18.4089,0,0,1,8.43251-2.01648,14.06147,14.06147,0,0,1,7.96695,2.01648,11.45888,11.45888,0,0,1,4.34557,5.43315,20.48115,20.48115,0,0,1,1.34509,7.55306v30.10651a3.09392,3.09392,0,0,0,3.2063,3.10407,3.18238,3.18238,0,0,0,3.104-3.10407v-30.417a28.77214,28.77214,0,0,0-1.81065-10.39946A15.41841,15.41841,0,0,0,337.11012,117.30252Z"/><path class="cls-5" d="M381.75265,116.0103H371.406V104.52556a3.068,3.068,0,0,0-.87944-2.17286,2.92971,2.92971,0,0,0-2.22343-.93121,3.09439,3.09439,0,0,0-2.27629.93121,2.97815,2.97815,0,0,0-.93112,2.17286V116.0103h-7.44964a2.9791,2.9791,0,0,0-2.121.82777,2.72339,2.72339,0,0,0-.87953,2.06927,3.00467,3.00467,0,0,0,3.00055,3.00056h7.44964v34.866a15.25292,15.25292,0,0,0,1.345,7.13918,7.8795,7.8795,0,0,0,3.30982,3.46723,10.49806,10.49806,0,0,0,3.82833,1.13814q1.86237.15528,2.79353.15416a7.55725,7.55725,0,0,0,3.93176-.98185,2.84054,2.84054,0,0,0,1.65546-2.43259,2.6351,2.6351,0,0,0-.6725-1.86241,2.11883,2.11883,0,0,0-1.60379-.72426,4.16091,4.16091,0,0,0-1.5002.25981,4.17182,4.17182,0,0,1-1.50027.25751,7.02845,7.02845,0,0,1-2.48324-.46445,3.858,3.858,0,0,1-2.0176-1.91528,9.4861,9.4861,0,0,1-.776-4.34556V121.9079h10.34668a2.82894,2.82894,0,0,0,2.89713-2.897,2.99058,2.99058,0,0,0-.82778-2.12214A2.73427,2.73427,0,0,0,381.75265,116.0103Z"/><path class="cls-6" d="M432.60212,148.49662a12.80831,12.80831,0,0,0-3.72481-4.29278,22.18021,22.18021,0,0,0-5.37917-2.8464,60.5579,60.5579,0,0,0-6.36316-1.96583,63.535,63.535,0,0,1-7.0875-2.27407,15.06608,15.06608,0,0,1-5.0688-3.10407,7.19618,7.19618,0,0,1-2.121-4.86288,7.4583,7.4583,0,0,1,1.75889-5.17334,10.44616,10.44616,0,0,1,4.39629-2.897,16.81669,16.81669,0,0,1,5.6389-.93121,19.21316,19.21316,0,0,1,7.34612,1.39565,15.80939,15.80939,0,0,1,5.8976,4.19149,2.4569,2.4569,0,0,0,1.80954.87842,2.86823,2.86823,0,0,0,1.91527-.568,3.12433,3.12433,0,0,0,1.03464-2.22565,2.92088,2.92088,0,0,0-.93121-2.12,17.7701,17.7701,0,0,0-5.17333-4.24213,23.34028,23.34028,0,0,0-5.8976-2.22557,26.13841,26.13841,0,0,0-5.69066-.67147,22.18629,22.18629,0,0,0-9.20852,1.86241,15.416,15.416,0,0,0-6.46556,5.17333,12.97825,12.97825,0,0,0-2.328,7.6565,12.3835,12.3835,0,0,0,1.50028,6.31148,13.7317,13.7317,0,0,0,4.087,4.39621,25.08163,25.08163,0,0,0,5.84472,3.00055q3.25917,1.1887,6.777,2.12a46.37835,46.37835,0,0,1,6.36324,2.01871,13.78791,13.78791,0,0,1,4.81121,3.104,7.02971,7.02971,0,0,1,1.86232,5.12047,7.25934,7.25934,0,0,1-1.86232,5.12269,11.30306,11.30306,0,0,1-4.70778,3.00056,17.46768,17.46768,0,0,1-5.74241.98185,19.10734,19.10734,0,0,1-9.46714-2.22343,22.05319,22.05319,0,0,1-6.776-5.847,3.28425,3.28425,0,0,0-2.0176-1.03463,2.44819,2.44819,0,0,0-1.91408.62083,2.29309,2.29309,0,0,0-1.29333,1.9152,4.0382,4.0382,0,0,0,.776,2.43036,23.24489,23.24489,0,0,0,9.2602,7.24269,27.88587,27.88587,0,0,0,10.8112,2.17278,24.38959,24.38959,0,0,0,9.41547-1.75889,16.06909,16.06909,0,0,0,6.77593-5.06991A12.565,12.565,0,0,0,434,155.01505,13.62279,13.62279,0,0,0,432.60212,148.49662Z"/><path class="cls-7" d="M51.945,153.236a5.30069,5.30069,0,0,0-3.41444.9312,18.82786,18.82786,0,0,1-2.58667,1.759,11.0312,11.0312,0,0,1-3.104.93112,27.50106,27.50106,0,0,1-4.44908.31046,14.95376,14.95376,0,0,1-8.22557-2.2763,15.78655,15.78655,0,0,1-5.58722-6.15519,18.89837,18.89837,0,0,1-2.0176-8.84742,19.539,19.539,0,0,1,1.96593-8.9488,15.15644,15.15644,0,0,1,5.63889-6.15518,16.67644,16.67644,0,0,1,8.94983-2.27621,20.92557,20.92557,0,0,1,3.15574.361,9.4884,9.4884,0,0,1,3.15575.984,11.01681,11.01681,0,0,1,1.96583,1.34509,7.18456,7.18456,0,0,0,1.91417,1.1888,6.98887,6.98887,0,0,0,2.74185.46667,4.112,4.112,0,0,0,3.62028-1.81177,6.728,6.728,0,0,0,1.24157-3.87889,6.98164,6.98164,0,0,0-2.43148-5.32963,16.72869,16.72869,0,0,0-6.82769-3.465,38.09436,38.09436,0,0,0-10.29491-1.24166,27.053,27.053,0,0,0-14.12317,3.672,25.70671,25.70671,0,0,0-9.6213,10.13973,31.16575,31.16575,0,0,0-3.4662,14.94983,32.16589,32.16589,0,0,0,3.25926,14.58872,25.24284,25.24284,0,0,0,9.25917,10.296A26.04559,26.04559,0,0,0,36.83889,168.549a38.42964,38.42964,0,0,0,10.1914-1.29222,23.3017,23.3017,0,0,0,7.60371-3.41444q2.89593-2.12,2.897-4.70881a6.25447,6.25447,0,0,0-1.44852-4.18926A5.12883,5.12883,0,0,0,51.945,153.236Z"/><path class="cls-8" d="M111.33154,51.37693a5.94154,5.94154,0,0,0-4.44908,1.81176,6.1994,6.1994,0,0,0-1.75786,4.49964v59.90213a24.95551,24.95551,0,0,0-2.0176-1.70371,24.3886,24.3886,0,0,0-6.46667-3.41445,23.92735,23.92735,0,0,0-8.17381-1.34509,22.81173,22.81173,0,0,0-12.623,3.672A26.11962,26.11962,0,0,0,66.79133,124.939a34.68816,34.68816,0,0,0,0,29.79837,25.81477,25.81477,0,0,0,9.15574,10.13973A23.65932,23.65932,0,0,0,88.88032,168.549a20.18364,20.18364,0,0,0,7.29445-1.29222,24.1672,24.1672,0,0,0,5.84584-3.15685,21.78767,21.78767,0,0,0,3.113-2.79147,6.18042,6.18042,0,0,0,1.74886,4.39629,6.374,6.374,0,0,0,8.89816,0,6.20632,6.20632,0,0,0,1.75889-4.50186V57.68833a6.16254,6.16254,0,0,0-1.75889-4.55251A6.03744,6.03744,0,0,0,111.33154,51.37693ZM98.39931,154.89141a14.01523,14.01523,0,0,1-7.96695,2.2763,13.83364,13.83364,0,0,1-7.86344-2.2763,15.35724,15.35724,0,0,1-5.32852-6.208,19.80177,19.80177,0,0,1-1.913-8.79464,20.04949,20.04949,0,0,1,1.913-8.89593,15.35807,15.35807,0,0,1,5.32852-6.20805,13.85071,13.85071,0,0,1,7.86344-2.27621,14.03236,14.03236,0,0,1,7.96695,2.27621,15.37556,15.37556,0,0,1,5.32852,6.20805,20.08148,20.08148,0,0,1,1.91408,8.89593,19.83374,19.83374,0,0,1-1.91408,8.79464A15.37474,15.37474,0,0,1,98.39931,154.89141Z"/><path class="cls-9" d="M210.86428,59.73825c-.01371-.39349-.02742-.787-.02742-1.14757a42.91024,42.91024,0,0,0-.51826-8.11529c-.06581-.42914-.12682-.86033-.18783-1.29427l-.02126-.14876c-.08774-.617-.17618-1.234-.28038-1.84681a53.84573,53.84573,0,0,0-2.55222-9.511c-.71158-1.938-1.36488-3.68266-2.15736-5.40813a64.5626,64.5626,0,0,0-5.05576-8.98042,69.89329,69.89329,0,0,0-7.35024-9.31016,6.77858,6.77858,0,0,0-5.92159-1.58151,5.90591,5.90591,0,0,0-4.16664,3.67169,4.91568,4.91568,0,0,0,1.27371,4.81515,69.46274,69.46274,0,0,1,4.62937,5.64327,57.58287,57.58287,0,0,1,6.05322,10.62088,54.81546,54.81546,0,0,1,2.77707,7.84724c.50044,1.855.85211,3.743,1.16883,5.51782a43.26679,43.26679,0,0,1,.60258,6.46864,46.87812,46.87812,0,0,1-.83361,10.38849c-.34207,1.73576-.69581,3.53116-1.151,5.2676a45.41741,45.41741,0,0,1-2.57141,7.20284c-.94055,2.07784-1.853,3.90271-2.79079,5.57952a58.67513,58.67513,0,0,1-7.80679,10.60923,4.685,4.685,0,0,0-1.0516,4.82,5.59873,5.59873,0,0,0,4.01582,3.51607,6.34167,6.34167,0,0,0,1.55067.19263,6.51129,6.51129,0,0,0,4.18994-1.55752,23.53507,23.53507,0,0,0,3.58669-4.04393l.57241-.75408a67.33592,67.33592,0,0,0,6.15193-9.3081c.78973-1.4732,1.55478-2.92309,2.24031-4.4669.88638-1.99763,1.62813-4.01788,2.437-6.2623a55.22748,55.22748,0,0,0,1.56163-5.46229l.15356-.61491c.15836-.63206.25433-1.2648.35785-1.94348.07266-.47781.14533-.95562.25158-1.42727a33.704,33.704,0,0,0,.56419-3.9411c.06924-.66153.13848-1.32307.23171-1.98254A17.31453,17.31453,0,0,0,210.86428,59.73825Z"/><path class="cls-10" d="M179.98124,57.47464a12.11977,12.11977,0,0,0-.07335-2.509c-.11654-.71706-.20223-1.43618-.29615-2.21768-.13231-1.10576-.26941-2.24922-.51346-3.38651-.08638-.4024-.16521-.80618-.24748-1.22641a27.85416,27.85416,0,0,0-.74379-3.14452,60.08726,60.08726,0,0,0-2.90733-7.57782,54.65929,54.65929,0,0,0-7.62444-11.76092,6.25975,6.25975,0,0,0-6.44191-2.21289A5.57258,5.57258,0,0,0,157.171,26.497a4.53471,4.53471,0,0,0,.33248,4.43948,26.619,26.619,0,0,0,1.6672,2.20192l.40789-.33248-.35921.39281c.3743.46067.74928.922,1.09616,1.39984a41.81555,41.81555,0,0,1,3.27339,5.34164,44.88843,44.88843,0,0,1,2.095,4.51763,39.78255,39.78255,0,0,1,1.35529,4.50666l.15493.60944a20.949,20.949,0,0,1,.73762,3.85815c.03565.60052.0809,1.20036.12683,1.80088a29.12488,29.12488,0,0,1,.05827,5.79545l-.16042,1.35324a38.16453,38.16453,0,0,1-4.24547,14.37209,44.93175,44.93175,0,0,1-5.293,8.009c-1.05982,1.28605-2.04081,2.87921-1.2785,4.944a5.29939,5.29939,0,0,0,4.04393,3.57434,8.51053,8.51053,0,0,0,1.78168.19949,5.54053,5.54053,0,0,0,4.14882-1.69257,44.75409,44.75409,0,0,0,5.96958-8.1715,50.95276,50.95276,0,0,0,4.34624-9.54666,47.90289,47.90289,0,0,0,2.15942-9.30673l.08637-.62314a21.69,21.69,0,0,0,.27833-5.73925C179.95382,58.10875,179.96684,57.80506,179.98124,57.47464Z"/><path class="cls-11" d="M145.844,44.20556A39.755,39.755,0,0,0,142.668,38.5335a6.69474,6.69474,0,0,0-4.66982-3.22953,6.37883,6.37883,0,0,0-4.74454,1.14963,4.84977,4.84977,0,0,0-2.05178,3.50785,5.97007,5.97007,0,0,0,1.33129,4.0028,23.69182,23.69182,0,0,1,3.21307,6.1485,24.72682,24.72682,0,0,1,1.41973,6.457,27.09521,27.09521,0,0,1-.36881,7.04106l-.04456.22211a17.78621,17.78621,0,0,1-.80824,3.12464,31.432,31.432,0,0,1-3.55858,6.75039,4.62656,4.62656,0,0,0-.68827,4.97214,5.71078,5.71078,0,0,0,4.92552,3.26517c.2132.01782.42366.026.63069.026a5.7267,5.7267,0,0,0,4.66913-2.14845,34.99767,34.99767,0,0,0,3.31521-5.391,34.22289,34.22289,0,0,0,3.18908-8.98659,28.56428,28.56428,0,0,0,.63754-6.67019,34.6561,34.6561,0,0,0-.94466-8.11254A35.17727,35.17727,0,0,0,145.844,44.20556Z"/><path class="cls-12" d="M31.77556,90.24014A57.54659,57.54659,0,0,1,25.723,79.61925a54.79186,54.79186,0,0,1-2.77776-7.84793c-.50044-1.85435-.85211-3.74229-1.16883-5.51713a43.26679,43.26679,0,0,1-.60258-6.46864,46.83887,46.83887,0,0,1,.82812-10.3597c.34345-1.74467.69924-3.54966,1.15649-5.29707a45.41026,45.41026,0,0,1,2.57141-7.20216c.93781-2.07372,1.85093-3.89929,2.79079-5.5802a58.6666,58.6666,0,0,1,7.80679-10.60855,4.68272,4.68272,0,0,0,1.0516-4.82,5.60016,5.60016,0,0,0-4.01582-3.51607,6.43091,6.43091,0,0,0-5.74061,1.3642,23.49392,23.49392,0,0,0-3.586,4.04462l-.5731.75339a67.43868,67.43868,0,0,0-6.15193,9.3081c-.79179,1.47869-1.55889,2.93269-2.24031,4.46759-.88913,2.00311-1.6295,4.02062-2.437,6.2623a55.22825,55.22825,0,0,0-1.56163,5.46229l-.15356.61491c-.159.6348-.255,1.26892-.35785,1.94485-.07266.47781-.14533.95562-.2509,1.4259a32.77842,32.77842,0,0,0-.55459,3.84238c-.072.69444-.144,1.38888-.242,2.08126a17.31453,17.31453,0,0,0-.074,3.05266c.01371.39349.02742.787.02742,1.14758a42.91019,42.91019,0,0,0,.51826,8.11528c.06033.39006.11585.78218.17138,1.175l.02879.205c.09049.63755.18167,1.27577.2893,1.9092A53.89249,53.89249,0,0,0,13.027,79.09c.71158,1.938,1.36488,3.68334,2.15736,5.40745a64.44515,64.44515,0,0,0,5.05576,8.98042,69.85205,69.85205,0,0,0,7.35092,9.31015,6.72481,6.72481,0,0,0,4.56493,1.76729,4.68438,4.68438,0,0,0,1.35666-.18509,5.90829,5.90829,0,0,0,4.166-3.67237,4.91366,4.91366,0,0,0-1.27371-4.81447A69.46452,69.46452,0,0,1,31.77556,90.24014Z"/><path class="cls-13" d="M61.1333,83.62616l-.40781.3324.3893-.355c-.38459-.47439-.76985-.94809-1.12633-1.43755a41.81555,41.81555,0,0,1-3.27339-5.34164,44.8874,44.8874,0,0,1-2.095-4.51763,39.73549,39.73549,0,0,1-1.35529-4.50735l-.15561-.61149a20.93358,20.93358,0,0,1-.73694-3.85472c-.03428-.59847-.08021-1.19556-.12683-1.80157a29.07365,29.07365,0,0,1-.05758-5.79545l.16041-1.35324a41.33438,41.33438,0,0,1,.79384-5.03657A41.25225,41.25225,0,0,1,56.593,40.01081a45.00735,45.00735,0,0,1,5.29228-8.00971c1.06051-1.28537,2.0415-2.87785,1.2792-4.94334a5.299,5.299,0,0,0-4.04394-3.575,6.02973,6.02973,0,0,0-5.9305,1.49376A44.71291,44.71291,0,0,0,47.2205,33.148a50.92537,50.92537,0,0,0-4.34556,9.54666,47.9234,47.9234,0,0,0-2.1601,9.30673l-.08637.62315a21.68613,21.68613,0,0,0-.27833,5.73855c0,.29341-.013.59778-.02742.92615a12.125,12.125,0,0,0,.07335,2.50972c.11654.71706.20223,1.43618.29615,2.21562.13231,1.10576.26941,2.24991.51346,3.38857.08638.4024.16521.80618.24748,1.22641a27.85416,27.85416,0,0,0,.74379,3.14452,60.08667,60.08667,0,0,0,2.90733,7.57782,54.65929,54.65929,0,0,0,7.62444,11.76092,6.186,6.186,0,0,0,4.87753,2.38153H57.609a7.62674,7.62674,0,0,0,1.56163-.16864A5.57169,5.57169,0,0,0,63.133,90.26687a4.53372,4.53372,0,0,0-.33179-4.43879A26.66093,26.66093,0,0,0,61.1333,83.62616Z"/><path class="cls-14" d="M84.55779,66.6518a24.73853,24.73853,0,0,1-1.41973-6.457,27.0948,27.0948,0,0,1,.36882-7.04106l.04455-.22211a17.7144,17.7144,0,0,1,.80893-3.12464,31.37118,31.37118,0,0,1,3.55857-6.75039,4.62763,4.62763,0,0,0,.68759-4.97214A5.71,5.71,0,0,0,83.681,34.8193a5.85551,5.85551,0,0,0-5.29982,2.1224,35.03155,35.03155,0,0,0-3.31521,5.391,34.223,34.223,0,0,0-3.18908,8.98659,28.6024,28.6024,0,0,0-.63754,6.6695A34.666,34.666,0,0,0,72.184,66.102,35.21275,35.21275,0,0,0,74.46,72.559,39.68886,39.68886,0,0,0,77.636,78.23106a6.6921,6.6921,0,0,0,4.66845,3.22815,6.20042,6.20042,0,0,0,.99333.07883A6.357,6.357,0,0,0,87.05174,80.311a4.85335,4.85335,0,0,0,2.05042-3.50785,5.97013,5.97013,0,0,0-1.3313-4.0028A23.69182,23.69182,0,0,1,84.55779,66.6518Z"/></svg>