<svg id="Layer_1" data-name="Layer 1" xmlns="http://www.w3.org/2000/svg" viewBox="0 0 853.34163 153.4278"><defs><style>.cls-1{fill:#fff;}</style></defs><title>cdfoundation-horizontal-white</title><path class="cls-1" d="M249.31151,136.58984c-9.653,0-14.57609-8.28551-14.57609-18.21208s4.907-18.22813,14.57609-18.22813a14.27046,14.27046,0,0,1,11.68018,5.59873l4.82652-4.15079a20.23917,20.23917,0,0,0-16.58714-7.78677c-14.013,0-21.67107,11.61582-21.67107,24.43828s7.4811,24.61523,21.79978,24.61523a20.07825,20.07825,0,0,0,16.53887-7.88331l-4.82652-4.45647A14.15775,14.15775,0,0,1,249.31151,136.58984Z"/><path class="cls-1" d="M296.86882,93.8108a65.67175,65.67175,0,0,0-14.12561,1.4962v45.73931a57.78937,57.78937,0,0,0,14.07735,1.818c14.31867,0,22.29852-11.74451,22.29852-24.87265S310.94617,93.8108,296.86882,93.8108Zm-.177,42.52162a22.86156,22.86156,0,0,1-7.41675-1.19052V100.9701a33.787,33.787,0,0,1,7.41675-.82052c9.79783,0,15.33224,8.0442,15.33224,17.842C312.0241,128.17559,306.85972,136.33242,296.69185,136.33242Z"/><path class="cls-1" d="M338.0873,134.20874a4.15082,4.15082,0,1,0,4.02087,4.27682q.0032-.10324.00123-.20645A4.05429,4.05429,0,0,0,338.0873,134.20874Z"/><polygon class="cls-1" points="359.71 142.494 366.242 142.494 366.242 121.081 388.042 121.081 388.541 114.983 366.242 114.983 366.242 100.214 389.86 100.214 390.359 94.116 359.71 94.116 359.71 142.494"/><path class="cls-1" d="M426.49306,93.8108c-14.383,0-21.86414,11.68019-21.86414,24.43828s7.48111,24.61523,21.86413,24.61523c14.07735,0,21.73542-11.80888,21.73542-24.61523S440.5704,93.8108,426.49306,93.8108Zm0,42.71468c-9.653,0-14.64044-8.28552-14.64044-18.21208s4.82652-18.22814,14.64044-18.22814,14.64044,8.23725,14.64044,18.22814-4.97131,18.27644-14.70479,18.27644Z"/><path class="cls-1" d="M492.32678,126.40591c0,5.1-4.19908,9.99088-11.05272,9.99088-7.72244,0-11.26188-4.82652-11.26188-9.99088V94.11648l-6.53189.49874V126.9368c0,10.85967,9.106,15.87925,17.842,15.87925,8.23725,0,17.60071-5.26089,17.60071-15.87925V94.11648l-6.548.49874Z"/><path class="cls-1" d="M547.75133,134.51443c-8.23725-10.554-18.46947-37.24464-25.13007-40.398H516.1859v48.37783h6.53189V103.3512c7.72243,11.93762,16.89282,36.1828,25.13007,39.14306h6.53189V94.11648l-6.53189.49874Z"/><path class="cls-1" d="M586.637,93.8108a65.55956,65.55956,0,0,0-14.12561,1.4962v45.73931a57.75615,57.75615,0,0,0,14.06127,1.818c14.33477,0,22.29852-11.74451,22.29852-24.87265S600.71434,93.8108,586.637,93.8108Zm-.193,42.52162a22.84547,22.84547,0,0,1-7.40067-1.19052V100.9701a33.67206,33.67206,0,0,1,7.40067-.82052c9.81393,0,15.33224,8.0442,15.33224,17.842,0,10.184-5.14831,18.34081-15.33227,18.34081Z"/><path class="cls-1" d="M638.10377,94.11648c-7.54547,14.70482-15.21964,32.1768-17.472,48.37783h6.53189a100.69922,100.69922,0,0,1,2.89592-13.12814h22.79728a100.69585,100.69585,0,0,1,2.89589,13.12814h6.53189c-2.26847-16.0884-9.92657-33.673-17.472-48.37783Zm-6.0975,29.15217a198.88156,198.88156,0,0,1,9.47607-22.42723,207.90839,207.90839,0,0,1,9.42778,22.42723Z"/><polygon class="cls-1" points="671.712 99.651 685.034 99.651 685.034 142.494 691.566 142.494 691.566 99.651 704.195 99.651 704.694 94.116 672.211 94.116 671.712 99.651"/><polygon class="cls-1" points="721.973 142.494 728.504 142.494 728.504 94.116 721.973 94.631 721.973 142.494"/><path class="cls-1" d="M767.45449,93.8108c-14.383,0-21.86413,11.68019-21.86413,24.43828s7.48109,24.61523,21.86413,24.61523c14.07735,0,21.73544-11.80888,21.73544-24.61523S781.53184,93.8108,767.45449,93.8108Zm0,42.71468c-9.73346,0-14.64046-8.28552-14.64046-18.21208s4.82652-18.22814,14.64046-18.22814,14.64045,8.23725,14.64045,18.22814-4.9552,18.27644-14.70477,18.27644Z"/><path class="cls-1" d="M836.31287,94.61522v39.89921c-8.22115-10.554-18.4695-37.24464-25.13008-40.398h-6.43536v48.37783H811.215V103.3512c7.73852,11.93762,16.90893,36.1828,25.13008,39.14306h6.53188V94.11648Z"/><path class="cls-1" d="M137.17,153.0378c1.42-.19,2.8-.44,4.15-.76s2.66-.69,4-1.12c7.72-2.62,14.41-7.41,20.81-14.07l-.08-.1C157.5,145.8478,148.49,151.4878,137.17,153.0378Z"/><path class="cls-1" d="M133,153.4278h.19c.62,0,1.23-.08,1.84-.13-.61.05-1.22.1-1.85.13Z"/><polygon class="cls-1" points="167.59 83.188 167.52 83.298 167.52 83.298 167.59 83.188"/><path class="cls-1" d="M88.32528,108.73875a86.29863,86.29863,0,0,1-7.42093,9.07454c-4.33734,4.51356-8.87123,7.75979-14.10315,9.53539a27.36574,27.36574,0,0,1-2.71085.759c-.942.21009-1.85014.3863-2.81249.51506-.31853.04744-.637.0881-.96235.122l-.52184.04744c-.4134.03389-.82681.06778-1.247.08811H56.79142a24.21517,24.21517,0,0,1-5.259-.59639,28.59279,28.59279,0,0,1-3.86974-1.14532,24.65383,24.65383,0,0,1-2.58885-1.11822c-.85392-.44051-1.69428-.86747-2.52109-1.35542a34.04153,34.04153,0,0,1-9.78614-8.81024c-.58961-.79292-1.14533-1.61973-1.66717-2.46687-.25753-.427-.5015-.85391-.7387-1.29443a29.74335,29.74335,0,0,1-1.29443-2.71084,26.72888,26.72888,0,0,1,0-20.8396,29.74479,29.74479,0,0,1,1.29443-2.71085c.2372-.44051.48117-.86747.7387-1.29443.52184-.84713,1.07756-1.67394,1.66717-2.46686a34.16325,34.16325,0,0,1,9.78614-8.81024c.82681-.48795,1.66717-.942,2.52109-1.35542q1.26825-.5726,2.58885-1.01657a28.59154,28.59154,0,0,1,3.95106-1.186,24.21439,24.21439,0,0,1,5.259-.59639h1.78915c.41341,0,.82681.05422,1.23344.0881l.59639.061.58283.06777c1.03013.13554,2.03313.31852,3.01581.54894.488.11521.96912.244,1.44353.37952A29.28393,29.28393,0,0,1,72.311,73.21314c.85391.50829,1.6875,1.05723,2.51431,1.65362A42.614,42.614,0,0,1,79.62349,78.933q1.16566,1.13856,2.32454,2.3991l.04745-.07455a91.19165,91.19165,0,0,1,6.3298,7.97666c3.11069-4.90663,7.814-12.28012,9.48795-14.72666.67771-.98268,1.35542-1.97891,2.09413-2.98193-7.74623-9.44728-17.06475-17.29517-29.51431-20.64306H70.305c-.60316-.16265-1.20633-.31174-1.82305-.45406l-.25753-.061c-.59639-.12877-1.19955-.25076-1.80271-.35919l-.35919-.06777c-.67771-.122-1.41641-.23042-2.14157-.3253h-.08132c-.39307-.05422-.78614-.09488-1.186-.13554h-.22365l-1.07078-.09488h-.3253l-1.003-.06777h-.3863L58.628,49.27642H56.8456C30.27258,49.13409,7,72.43378,7,99s23.2997,49.87272,49.87273,49.87272h1.79593l.98946-.04066h.42018l.95557-.05421h.3863l.97591-.08811h.32529l1.0369-.122.2372-.03389,1.125-.15587h.122c.67771-.10844,1.35542-.23042,2.03313-.35919l.37274-.08132c.549-.11521,1.09112-.2372,1.63329-.366l.33208-.08132c.57606-.1491,1.15211-.29819,1.72138-.46762l.13554-.04066c11.85994-3.47666,20.83961-11.09412,28.34864-20.18223-1.16566-1.75527-1.945-3.07-2.311-3.70708Z"/><path class="cls-1" d="M186.67466,5.69283V59.84869a48.924,48.924,0,0,0-30.09035-10.7146h-1.78239l-1.01656.04066-.39985.02711-1.003.06777h-.32531l-1.07077.09488h-.22364c-.39984.04066-.79293.08132-1.186.13554h-.08811c-.71837.0881-1.43.20331-2.13478.3253l-.35919.06777c-.60993.10844-1.20632.23042-1.80271.35919l-.25753.061c-17.36295,3.92394-28.79593,16.48192-38.22967,30.21912h0c-.39984.58283-.77259,1.17244-1.16566,1.75527-1.28765,1.95858-3.12425,4.81852-4.94051,7.66491-2.38554,3.73418-4.744,7.45481-5.686,8.95933l11.799,18.3863h0S119.29667,140.44883,142,146.75154l.13555.04066c.56927.16943,1.14533.31852,1.72139.46762l.33207.08132c.5354.13554,1.08434.25075,1.63329.366l.37273.08132c.67771.12877,1.35542.25075,2.03313.35919h.122l1.125.15587.2372.03389,1.0369.122h.3253l.97591.08811h.3863l.95557.05421h.42018l.98945.04067h1.79593c31.29668,0,49.40511-17.71536,49.85918-48.66641h0V5.69283ZM156.58431,128.92774H154.829c-.42018,0-.83359-.05421-1.247-.0881l-.52183-.04745c-.32531-.03388-.64383-.07455-.96236-.122a28.07842,28.07842,0,0,1-5.47589-1.3012,28.38341,28.38341,0,0,1-3.79518-1.61973,31.91837,31.91837,0,0,1-3.57832-2.15512c-.57605-.39984-1.1521-.82-1.72138-1.26731a47.14149,47.14149,0,0,1-4.96762-4.53389l-.05421.06778h0c-.71838-.74549-1.4232-1.53841-2.13479-2.35166-.0881-.09488-.16943-.20331-.25753-.305-.35919-.4134-.71837-.82681-1.07756-1.26731s-.64382-.7997-.96235-1.19955-.50828-.63027-.76581-.96235c-1.15211-1.48419-2.29744-3.05647-3.46311-4.744-.39984-.56927-.79969-1.15889-1.20632-1.74849-.21687-.3253-.44051-.67771-.67771-.98946-.3863-.58284-.77936-1.15211-1.17244-1.7485l-.20331-.31175c-.67771-1.0369-1.35542-2.10768-2.08735-3.20557q1.68749-2.63628,3.32756-5.06927c1.09111-1.61973,2.16867-3.17847,3.23945-4.65588s2.128-2.88705,3.1988-4.22214,2.128-2.58885,3.20557-3.76807q1.1589-1.26054,2.32454-2.39909c.78615-.76581,1.5723-1.48419,2.37876-2.1619s1.60617-1.308,2.433-1.90437a32.95085,32.95085,0,0,1,4.43224-2.64307c.18975-.09488.37951-.21009.57605-.305l.12877-.06777c.80648-.37274,1.6265-.67771,2.46009-.98945l.27787-.11521c.15588-.04744.31852-.08133.4744-.13554.62351-.20332,1.26732-.3863,1.91115-.54217l.78615-.19654c.8878-.18976,1.78916-.35919,2.71084-.48117l.58282-.06777.59639-.061c.40663,0,.82-.06777,1.23344-.0881H156.564a24.275,24.275,0,0,1,2.61595.1491,27.46725,27.46725,0,0,1,3.96461.77259c.881.244,1.762.52861,2.62952.86069a27.875,27.875,0,0,1,2.58886,1.11822c.85392.41341,1.69428.86747,2.52109,1.35543s1.64006,1.03011,2.42619,1.59261,1.55873,1.17245,2.30421,1.81627a33.44476,33.44476,0,0,1,5.05572,5.42168c.5896.79293,1.14533,1.61973,1.66716,2.46687a29.21655,29.21655,0,0,1,3.04292,6.81777,27.10858,27.10858,0,0,1,.67771,2.95482,26.071,26.071,0,0,1,.40663,4.62876C186.50523,119.68377,177.27481,128.92774,156.58431,128.92774Z"/></svg>