<svg id="Layer_1" data-name="Layer 1" xmlns="http://www.w3.org/2000/svg" viewBox="0 0 150 150"><title>Artboard 1 copy 6</title><path d="M113,47.73a58.42,58.42,0,0,1,.52,7.63V71.52a29.84,29.84,0,1,1-42,42,29.87,29.87,0,0,1-4.61-7.78,29.69,29.69,0,0,1-2.16-11.1V64.76H77.47V55.37a21.9,21.9,0,0,0-1.6-8.2,22.58,22.58,0,0,0-1.42-2.9H44.27V94.63a50.41,50.41,0,0,0,1,10.08q.43,2.12,1,4.18c.43,1.45.93,2.88,1.48,4.27A50.36,50.36,0,1,0,113,47.73Z" style="fill:#fff"/><path d="M104.72,45.28q-.43-2.12-1-4.18c-.43-1.45-.93-2.88-1.48-4.27A50.36,50.36,0,1,0,37,102.27a58.44,58.44,0,0,1-.52-7.63V78.48A29.83,29.83,0,1,1,85.24,55.37V85.24H72.53v9.39a21.89,21.89,0,0,0,1.6,8.2,22.58,22.58,0,0,0,1.42,2.9h30.17V55.37A50.41,50.41,0,0,0,104.72,45.28Z" style="fill:#fff"/></svg>