<svg xmlns="http://www.w3.org/2000/svg" role="img" viewBox="-1.98 -1.73 363.22 137.22"><defs><style>.cls-1{fill-rule:evenodd}</style></defs><path id="Shape" d="M5.104 128.06c55.576 5.51 100.2-27.363 111.327-41.449 11.132-14.086-5.746-81.29-5.746-81.29C92.388 50.272 59.122 118.397 5.104 128.08z" class="cls-1"/><path d="M30.803 110.122c32.783 1.207 57.735-19.407 63.75-27.953 6.016-8.545-3.194-47.035-3.194-47.035-9.11 26.663-34.459 65.516-60.555 74.99z" class="cls-1"/><path d="M139.427 77.192a17.857 17.857 0 0 0 5.388 3.824 15.084 15.084 0 0 0 6.438 1.45 10.268 10.268 0 0 0 6.604-1.902 6.62 6.62 0 0 0 1.804-7.718 5.981 5.981 0 0 0-1.498-1.924 10.962 10.962 0 0 0-2.252-1.448l-2.783-1.345-6.143-2.63a29.25 29.25 0 0 1-3.066-1.542 12.56 12.56 0 0 1-2.806-2.178 10.416 10.416 0 0 1-2.028-3.048 10.563 10.563 0 0 1 .224-8.506 10.908 10.908 0 0 1 2.806-3.57 13.096 13.096 0 0 1 4.245-2.318 16.664 16.664 0 0 1 5.388-.834 17.426 17.426 0 0 1 7.075 1.448 17.938 17.938 0 0 1 5.554 3.755l-2.936 3.477a15.343 15.343 0 0 0-4.351-2.92 13.166 13.166 0 0 0-5.389-1.055 9.421 9.421 0 0 0-5.79 1.634 5.332 5.332 0 0 0-2.192 4.531 5.062 5.062 0 0 0 .625 2.596 6.465 6.465 0 0 0 1.71 1.82 13.502 13.502 0 0 0 2.287 1.413q1.238.615 2.547 1.16l6.084 2.572a26.269 26.269 0 0 1 3.467 1.762 12.437 12.437 0 0 1 2.806 2.317 10.025 10.025 0 0 1 1.863 3.083 11.204 11.204 0 0 1 .684 4.08 11.007 11.007 0 0 1-1.014 4.635 11.307 11.307 0 0 1-2.913 3.824 13.869 13.869 0 0 1-4.575 2.573 18.473 18.473 0 0 1-6.072.927 20.753 20.753 0 0 1-15.034-6.235z"/><path d="M170.923 89.063v10.541H165.8V55.19h4.246l.439 3.595h.191a23.015 23.015 0 0 1 4.505-3.085 11.003 11.003 0 0 1 5.148-1.287 11.442 11.442 0 0 1 5.18 1.16 10.143 10.143 0 0 1 3.75 3.212 15.284 15.284 0 0 1 2.253 5.01 25.588 25.588 0 0 1 .778 6.587 21.992 21.992 0 0 1-1.06 7.108 16.576 16.576 0 0 1-2.871 5.3 12.19 12.19 0 0 1-4.179 3.305 11.543 11.543 0 0 1-4.989 1.16 9.994 9.994 0 0 1-4.212-.962 21.205 21.205 0 0 1-4.213-2.633zm0-9.58a13.545 13.545 0 0 0 3.998 2.54 9.8 9.8 0 0 0 3.38.743 7.117 7.117 0 0 0 3.468-.87 8.354 8.354 0 0 0 2.748-2.447 12.134 12.134 0 0 0 1.814-3.885 19.073 19.073 0 0 0 .653-5.207 23.279 23.279 0 0 0-.44-4.639 10.617 10.617 0 0 0-1.407-3.63 6.83 6.83 0 0 0-2.5-2.319 7.52 7.52 0 0 0-3.65-.835 7.985 7.985 0 0 0-3.897 1.09 22.88 22.88 0 0 0-4.212 3.155zm26.819-30.858a4.17 4.17 0 0 1-2.774-.944 3.149 3.149 0 0 1 0-4.824 4.652 4.652 0 0 1 5.537 0 3.139 3.139 0 0 1 0 4.824 4.158 4.158 0 0 1-2.763.944zm-2.873 6.303h5.611v30.65h-5.611zm9.884.231h4.382l.448 4.381h.196a25.23 25.23 0 0 1 4.681-3.658 10.909 10.909 0 0 1 5.75-1.468q4.912 0 7.177 3.003t2.3 8.887v19.275h-5.232V66.993q0-4.314-1.404-6.222a5.172 5.172 0 0 0-4.462-1.908 7.73 7.73 0 0 0-4.267 1.185 27.555 27.555 0 0 0-4.21 3.5v22.03h-5.233zm28.053 0h4.344l.45 4.381h.195a25.27 25.27 0 0 1 4.69-3.658 10.933 10.933 0 0 1 5.76-1.468q4.921 0 7.19 3.003t2.305 8.887v19.275h-5.346V66.993q0-4.314-1.406-6.222a5.186 5.186 0 0 0-4.47-1.908 7.755 7.755 0 0 0-4.275 1.185 27.596 27.596 0 0 0-4.218 3.5v22.03h-5.22zm28.063 23.115a8.628 8.628 0 0 1 4.707-7.862q4.708-2.732 14.84-3.82a14.17 14.17 0 0 0-.293-2.884 6.883 6.883 0 0 0-1.048-2.5 5.653 5.653 0 0 0-1.989-1.76 6.67 6.67 0 0 0-3.201-.672 12.963 12.963 0 0 0-5.19 1.03 25.742 25.742 0 0 0-4.272 2.316l-2.154-3.658a34.898 34.898 0 0 1 5.414-2.733 18.35 18.35 0 0 1 7.061-1.32q5.802 0 8.415 3.474a15.26 15.26 0 0 1 2.613 9.332v19.138h-4.437l-.46-3.717h-.129a26.406 26.406 0 0 1-4.92 3.173 12.355 12.355 0 0 1-5.578 1.32 9.784 9.784 0 0 1-6.684-2.316 8.234 8.234 0 0 1-2.695-6.541zm5.284-.383a4.423 4.423 0 0 0 1.6 3.856 6.56 6.56 0 0 0 3.943 1.158 9.341 9.341 0 0 0 4.343-1.066 21.079 21.079 0 0 0 4.342-3.114v-8.66a56.514 56.514 0 0 0-6.72 1.215 17.83 17.83 0 0 0-4.401 1.668 6.253 6.253 0 0 0-2.354 2.211 5.386 5.386 0 0 0-.753 2.732zm26.574-.468v8.119h-5.306l-.07-45.162h5.298v30.607h.203l13.558-16.254h5.906l-10.628 12.373 12.155 18.467h-5.906l-9.304-14.882-5.906 6.732z"/><path d="M309.172 70.906a18.788 18.788 0 0 1 1.161-6.94 16.182 16.182 0 0 1 3.159-5.159 13.666 13.666 0 0 1 4.47-3.239 12.651 12.651 0 0 1 5.214-1.156 13.152 13.152 0 0 1 5.307 1.03 10.353 10.353 0 0 1 3.924 2.949 13.516 13.516 0 0 1 2.416 4.627 20.273 20.273 0 0 1 .836 6.026 18.072 18.072 0 0 1-.198 2.88h-21.04a12.35 12.35 0 0 0 3.123 8.016 9.61 9.61 0 0 0 7.304 2.95 12.352 12.352 0 0 0 4.157-.671 18.385 18.385 0 0 0 3.634-1.758l1.87 3.47a26.747 26.747 0 0 1-4.575 2.244 15.952 15.952 0 0 1-5.725.96 15.368 15.368 0 0 1-5.887-1.157 13.938 13.938 0 0 1-4.761-3.204 14.82 14.82 0 0 1-3.182-5.101 19.007 19.007 0 0 1-1.207-6.767zm21.888-2.371q0-4.812-2.032-7.345a6.886 6.886 0 0 0-5.701-2.533 7.735 7.735 0 0 0-3.182.67 8.824 8.824 0 0 0-2.74 1.92 10.256 10.256 0 0 0-2.032 3.078 14.173 14.173 0 0 0-1.057 4.198zm6.175-13.422h4.346l.45 5.519h.196a14.124 14.124 0 0 1 3.862-4.524 8.1 8.1 0 0 1 4.957-1.696 8.408 8.408 0 0 1 3.32.622l-1.026 4.523a12.445 12.445 0 0 0-1.406-.373 8.571 8.571 0 0 0-1.603-.124 6.993 6.993 0 0 0-4.127 1.572 12.43 12.43 0 0 0-3.735 5.45V85.58h-5.245z"/></svg>