<svg id="svg2" xmlns="http://www.w3.org/2000/svg" viewBox="0 0 504 504"><defs><style>.cls-1{fill:#fff;}</style></defs><title>jenkins-icon-white</title><path class="cls-1" d="M355.7792,385.3611c-.21958-1.87731-.48691-3.74755-.80216-5.59484-1.18945-6.97251-3.09628-13.58246-6.05561-18.6702-3.3116-.75924-7.16764-.0295-10.33172.032.887,8.83447,2.52487,18.21577,3.97481,27.64653q.40569,2.63827.77854,5.27632c.23053,1.61609.443,3.22771.64718,4.83888,2.25656-.9809,5.0253-2.14748,7.60523-3.13472,1.81384-.69405,3.53066-1.29786,4.90691-1.68382-.02981-.57818-.06862-1.162-.10551-1.74536C356.25106,390.02355,356.05175,387.69151,355.7792,385.3611Z"/><path class="cls-1" d="M305.42716,293.9735c-4.65343-1.99378-7.97509,5.98132-7.97509,5.98132,0,4.51842,13.43284,31.09993,17.47023,38.9874,2.78543-12.29845,2.98735-25.35011,3.55883-38.48857C315.48954,298.88063,308.94374,295.48021,305.42716,293.9735Zm-2.65772,6.97824a3.65561,3.65561,0,1,1,3.65464,3.6542A3.65721,3.65721,0,0,1,302.76944,300.95174Zm7.30929,20.60131a3.65539,3.65539,0,1,1,3.6565-3.6542A3.655,3.655,0,0,1,310.07873,321.55305Z"/><path class="cls-1" d="M147.82935,103.18154q-.00514,1.54289.03405,3.0813c.12741,4.72295.54175,9.35827.88054,13.4625a25.31892,25.31892,0,0,1,2.3839-1.31225,24.63938,24.63938,0,0,1,11.57206-2.51c12.03589.35146,22.92784,9.3611,22.78478,21.59473,7.578-.20132,2.831-9.46444,1.4603-15.43183a51.787,51.787,0,0,1-.63474-16.9033c.53013-5.23318,1.494-10.48276,2.266-15.6608.37433-2.51034.69941-5.00332.90968-7.46948a59.98148,59.98148,0,0,0,.23045-6.56606,40.78478,40.78478,0,0,0-.41367-4.98656c-.0754-.50748-.16623-1.01227-.26406-1.51565a30.69287,30.69287,0,0,0-1.54836-5.38965c-13.59438,1.03075-24.76268,6.58342-32.86623,15.5056-3.13346,3.44773-4.89864,7.97934-5.84549,12.95606a53.01231,53.01231,0,0,0-.80931,6.63692C147.87733,100.16611,147.83441,101.67252,147.82935,103.18154Z"/><path class="cls-1" d="M343.99024,398.88976c.07138.56277.14514,1.1262.21257,1.68792.29148,2.43255.55673,4.85788.753,7.26093,4.97844.155,7.63817-2.19316,11.73346-2.98287.05372-3.34655.00745-7.00485-.18687-10.78452-1.37625.386-3.09307.98977-4.90691,1.68382C349.01554,396.74228,346.2468,397.90886,343.99024,398.88976Z"/><path class="cls-1" d="M301.86655,253.35577c-1.32268.31689-2.65765.63824-3.99731.94112q-1.00486.22722-2.0121.43781c-1.34257.27889-2.686.528-4.02294.72475a38.61048,38.61048,0,0,1-5.9469.45495,21.22157,21.22157,0,0,1-8.54844-1.70677c-.02794.57021-.77161.36286-.8932.82742,7.40286,5.786,12.90174,6.98219,22.97827,6.48373,4.54383-3.29768,8.57325-7.15364,13.30454-10.242a53.06619,53.06619,0,0,0-6.38627,1.04372C304.87386,252.63736,303.37825,252.99366,301.86655,253.35577Z"/><path class="cls-1" d="M215.09147,28.50389c2.09912-1.01272,5.20263-.94306,5.32177-4.09522-.90975-.97293-1.86771-1.71459-2.95792-1.4056-19.87939,5.63448-45.357,20.07938-53.52595,37.93758,4.46656-.6489,7.97591-2.417,11.84536-3.54683a23.21125,23.21125,0,0,1,5.11107-.95706c2.35826-.15357,5.44791.98887,8.15816.315,5.40119-1.33989,9.95955-13.45,14.03427-17.956,3.318-3.67573,7.18471-5.60624,10.27622-8.47631A17.97966,17.97966,0,0,0,215.09147,28.50389Z"/><path class="cls-1" d="M305.42716,293.9735c3.51658,1.50671,10.06238,4.90713,13.054,6.48015.10446-2.40118.22047-4.805.36814-7.20788-6.75285.42865-10.49914-6.10694-15.23244-6.60935-4.12912-.44459-7.63422,4.74716-13.00338,2.50214-1.23021,1.35986-2.34873,2.83319-3.60278,4.16108,11.859,14.29163,17.2482,34.56808,26.4076,51.36334.57461-1.8861,1.06786-3.79509,1.504-5.72076-4.03739-7.88747-17.47023-34.469-17.47023-38.9874C297.45207,299.95482,300.77373,291.97972,305.42716,293.9735Z"/><path class="cls-1" d="M301.44341,279.61332a7.06547,7.06547,0,0,0,.92607-1.55171,8.19338,8.19338,0,0,0,.53743-1.7473,9.10079,9.10079,0,0,0,.1587-1.84141,8.733,8.733,0,0,0-1.19541-4.3501,6.71188,6.71188,0,0,0-1.08894-1.3723,5.72353,5.72353,0,0,0-2.25724-1.34771,6.14286,6.14286,0,0,0-1.64366-.25869c-.08911-.00291-.17159-.01848-.26249-.01789a11.37013,11.37013,0,0,0-6.09815,2.22408c-.33685,3.74205.24968,5.56393.98441,8.719.22635.972.46634,2.066.69829,3.38731C296.72769,282.87128,299.758,281.74344,301.44341,279.61332Z"/><path class="cls-1" d="M273.67111,489.643a130.00831,130.00831,0,0,1-16.75935,3.04255l53.09626-1.89624.3224-4.84209A138.0395,138.0395,0,0,1,273.67111,489.643Z"/><path class="cls-1" d="M425.72184,242.47425a180.65323,180.65323,0,0,1-25.33044,92.64941,21.80663,21.80663,0,0,1,5.71987,1.59493,187.04157,187.04157,0,0,0-27.61606-223.54494c-1.54054-1.57652-3.118-3.11512-4.71393-4.63405q.20229,3.57294.28,7.19171A179.93088,179.93088,0,0,1,425.72184,242.47425Z"/><path class="cls-1" d="M78.60624,268.07054l-.00291-.01014-.008-.07011q-.61089-4.36367-1.01465-8.793l-2.96485-25.69509L78.29434,219.157a179.33979,179.33979,0,0,1,57.86779-110.763l.89842-1.03313c-.0403-2.13408-.03718-4.24043.03264-6.30022q-6.819,5.732-13.06142,12.11307a186.75351,186.75351,0,0,0,0,259.92715q5.13963,5.25867,10.69436,10.0772-.29585-4.26542-.6454-8.5155A179.34922,179.34922,0,0,1,78.60624,268.07054Z"/><path class="cls-1" d="M374.09459,124.27565a176.22772,176.22772,0,0,1,20.506,210.5949,31.03322,31.03322,0,0,1,5.7908.25311,181.6255,181.6255,0,0,0-26.33012-219.39235Q374.15841,119.985,374.09459,124.27565Z"/><path class="cls-1" d="M111.16892,137.13492l24.99321-28.741A179.33979,179.33979,0,0,0,78.29434,219.157l9.61436-37.493Z"/><path class="cls-1" d="M131.77961,365.52612a174.02548,174.02548,0,0,1-47.824-97.65557,186.6862,186.6862,0,0,0-.03457,18.79776l-5.31484-18.59777a179.34922,179.34922,0,0,0,55.47449,106.592q-.31248-3.76551-.69345-7.5311C132.85067,366.597,132.30929,366.06764,131.77961,365.52612Z"/><path class="cls-1" d="M78.59528,267.99029l-1.01465-8.793Q77.98331,263.62625,78.59528,267.99029Z"/><path class="cls-1" d="M78.60333,268.0604l.00291.01014-.011-.08025Z"/><path class="cls-1" d="M78.29434,219.157l-3.67856,14.34527,2.96485,25.69509c-.50048-5.50685-.76856-11.08263-.76856-16.72307A184.14815,184.14815,0,0,1,78.29434,219.157Z"/><path class="cls-1" d="M137.06055,107.3608l-.89842,1.03313c.30213-.27158.59853-.54972.90252-.81922Z"/><path class="cls-1" d="M83.95565,267.87055a178.55217,178.55217,0,0,1-1.72532-24.73042,174.529,174.529,0,0,1,49.54928-122.396q3.01269-3.07985,6.17572-5.99995a31.20844,31.20844,0,0,1-.85648-5.36662c-.02056-.6065-.02183-1.20123-.0342-1.80281-.304.2695-.60039.54764-.90252.81922l-24.99321,28.741L87.9087,181.664l-9.61436,37.493a184.14815,184.14815,0,0,0-1.48227,23.31729c0,5.64044.26808,11.21622.76856,16.72307l1.01465,8.793.011.08025,5.31484,18.59777A186.6862,186.6862,0,0,1,83.95565,267.87055Z"/><path class="cls-1" d="M153.96542,136.19716a9.09089,9.09089,0,0,1,1.73724-1.2162A6.34256,6.34256,0,0,0,153.96542,136.19716Z"/><path class="cls-1" d="M358.25638,109.1841q4.43051,3.71186,8.60425,7.72333c-.13687-2.828-.25333-5.64641-.38834-8.42222a175.98638,175.98638,0,0,0-13.86455-11.27195C354.46129,101.23135,356.27177,105.28864,358.25638,109.1841Z"/><path class="cls-1" d="M193.62005,60.8002l6.71709-10.73854A48.02733,48.02733,0,0,0,193.62005,60.8002Z"/><path class="cls-1" d="M243.4313,18.846q-1.57327.78446-3.209,1.63084L250.22544,16.19A42.51446,42.51446,0,0,0,243.4313,18.846Z"/><path class="cls-1" d="M195.42949,87.201l-.23463.07875c-.07131.377-.14306.7541-.21794,1.13134C195.11834,88.0207,195.277,87.6068,195.42949,87.201Z"/><path class="cls-1" d="M345.38921,99.40113a12.83853,12.83853,0,0,0-6.7317,9.81486c-1.00892,9.6519,11.96264,1.99377,13.95642,1.33l-.46777-3.1187c-.48833-1.32156-.93515-2.68156-1.30874-4.10937Q348.15043,101.30928,345.38921,99.40113Z"/><path class="cls-1" d="M255.58238,109.216c0,8.83492,14.97248,8.68024,20.46764,5.22908-2.71323-5.03186-5.38168-11.12576-5.73716-16.26618l-.10819-.25959S255.58238,99.91307,255.58238,109.216Z"/><path class="cls-1" d="M226.6721,90.80091c.80991,2.23242.89194,4.03955,2.29807,1.486A3.79787,3.79787,0,0,1,226.6721,90.80091Z"/><path class="cls-1" d="M330.71029,242.50614a10.35228,10.35228,0,0,1,5.61317-1.15585l-2.60512-1.93521A15.92038,15.92038,0,0,0,330.71029,242.50614Z"/><path class="cls-1" d="M231.24029,255.86447c-8.27879-1.45351-19.15882-.49443-24.78347-4.40032-1.43011,1.45187-1.15019,3.03473.18165,4.60045,4.345,1.7248,16.72836,6.38859,23.38011,6.30961C230.6101,259.94374,231.53982,257.70171,231.24029,255.86447Z"/><path class="cls-1" d="M229.56586,265.69774a13.46776,13.46776,0,0,1,.45272-3.32353c-6.65175.079-19.03507-4.58481-23.38011-6.30961C210.66536,260.79865,224.32784,265.37564,229.56586,265.69774Z"/><path class="cls-1" d="M258.92006,70.29706c-2.53866-.116-5.08945-.18479-7.65627-.185-1.64634.00008-3.28553.0307-4.92047.07853a55.47365,55.47365,0,0,0-8.705,3.13741,10.13865,10.13865,0,0,0-4.89372,5.24838l2.08721,3.47895c5.67665-7.53438,13.92728-12.5716,26.74364-9.58664A7.46953,7.46953,0,0,0,258.92006,70.29706Z"/><path class="cls-1" d="M261.57547,72.46868v.00008a7.08176,7.08176,0,0,0,.84-1.9721c-.40913-.02734-.81811-.05528-1.2282-.07957C261.47108,71.6581,261.57547,72.46868,261.57547,72.46868Z"/><path class="cls-1" d="M229.22141,91.75581a52.29683,52.29683,0,0,1,5.61042-9.70049l-2.08721-3.47895C230.62806,83.11058,230.37517,88.96807,229.22141,91.75581Z"/><polygon class="cls-1" points="228.97 92.287 228.975 92.277 228.97 92.287 228.97 92.287"/><path class="cls-1" d="M226.6721,90.80091a10.52911,10.52911,0,0,0-.66551-1.48637A4.27793,4.27793,0,0,0,226.6721,90.80091Z"/><path class="cls-1" d="M259.78942,64.24354a11.13369,11.13369,0,0,0-1.20852-.823c.14641.26346.28745.527.42067.79239C259.26384,64.22454,259.52745,64.23057,259.78942,64.24354Z"/><path class="cls-1" d="M261.18728,70.41709c.41009.02429.81907.05223,1.2282.07957.64107-2.56816-.65635-4.72279-2.62606-6.25312-.262-.013-.52558-.019-.78785-.03063A28.1038,28.1038,0,0,1,261.18728,70.41709Z"/><path class="cls-1" d="M258.92006,70.29706c-3.32427-1.68591-8.01034-1.299-12.57674-.10648,1.63494-.04783,3.27413-.07845,4.92047-.07853C253.83061,70.11227,256.3814,70.18105,258.92006,70.29706Z"/><path class="cls-1" d="M232.74462,78.57637a10.13865,10.13865,0,0,1,4.89372-5.24838,55.47365,55.47365,0,0,1,8.705-3.13741q-6.20586.182-12.29532.80894a36.6278,36.6278,0,0,0-3.78347,4.50665l.5311-.17837Z"/><path class="cls-1" d="M258.92006,70.29706a7.46953,7.46953,0,0,1,2.65541,2.17162s-.10439-.81058-.38819-2.05159Q260.05546,70.34992,258.92006,70.29706Z"/><path class="cls-1" d="M226.6721,90.80091a3.79787,3.79787,0,0,0,2.29807,1.486v-.00007l.00477-.01c.07838-.17458.16667-.34669.24647-.521,1.15376-2.78774,1.40665-8.64523,3.52321-13.17944l-1.949-3.24857-.5311.17837a24.21758,24.21758,0,0,0-3.00784,5.52786c-.79657,2.18534-1.87776,5.71771-1.2501,8.28051A10.52911,10.52911,0,0,1,226.6721,90.80091Z"/><path class="cls-1" d="M229.22141,91.75581c-.0798.17435-.16809.34646-.24647.521A5.343,5.343,0,0,0,229.22141,91.75581Z"/><path class="cls-1" d="M259.00157,64.21291c-.13322-.2654-.27426-.52893-.42067-.79239a12.55168,12.55168,0,0,0-4.3396-1.56267c-3.60659-.54354-7.481.47328-11.16235,2.37265,2.71412-.12831,5.44225-.20155,8.1873-.20155C253.85922,64.029,256.43609,64.09832,259.00157,64.21291Z"/><path class="cls-1" d="M258.92006,70.29706q1.13585.05173,2.26722.12a28.1038,28.1038,0,0,0-2.18571-6.20418c-2.56548-.11459-5.14235-.184-7.73532-.184-2.74505,0-5.47318.07324-8.1873.20155a36.20738,36.20738,0,0,0-9.03095,6.769q6.08559-.62978,12.29532-.80894C250.90972,68.99807,255.59579,68.61115,258.92006,70.29706Z"/><path class="cls-1" d="M352.14616,107.42726c1.03515,2.80167,2.24077,5.4456,3.265,8.25659-4.35837,2.74541-12.84586,1.0347-17.76261,3.184-.35086,14.46688,22.38423,7.33708,25.84343-.71967a79.28046,79.28046,0,0,1-5.23564-8.96412q-3.25308-2.72556-6.6393-5.2846Z"/><path class="cls-1" d="M350.69191,93.13019c-.28507-.01192-.57417-.0219-.85931-.0339-.04269.72169-.05588,1.41611-.05484,2.09727.949.66543,1.89445,1.33564,2.83,2.0197C351.97666,95.84536,351.34207,94.48073,350.69191,93.13019Z"/><path class="cls-1" d="M349.77776,95.19356c.00127.77883.033,1.52943.08539,2.26088.4624-.13463.757-.2011.757-.2011l.99693,6.64616q3.38418,2.56005,6.6393,5.2846c-1.98461-3.89546-3.79509-7.95275-5.64864-11.97084C351.67221,96.5292,350.72678,95.859,349.77776,95.19356Z"/><path class="cls-1" d="M350.83742,103.31789c.37359,1.42781.82041,2.78781,1.30874,4.10937l-.52908-3.52776C351.35846,103.70392,351.09716,103.51206,350.83742,103.31789Z"/><path class="cls-1" d="M350.62015,97.25334s-.2946.06647-.757.2011a32.02159,32.02159,0,0,0,.97427,5.86345c.25974.19417.521.386.77966.58161Z"/><path class="cls-1" d="M276.05,114.44507c1.23348,2.28756,2.47517,4.35673,3.51188,6.01388-5.33526,5.18192-14.92957.87927-22.06756.54637-6.81075,10.76037,13.30089,12.78209,21.93195,10.234,2.36267-.69576,6.45587-4.23872,7.0161-5.82783,2.39657-6.737-2.43837-9.68969-4.92457-12.11218-5.52078-5.38116-6.78489-12.86181-10.6688-19.98162a12.13033,12.13033,0,0,0-.53616,4.86123l6.53753,15.69067A6.743,6.743,0,0,1,276.05,114.44507Z"/><path class="cls-1" d="M276.85039,113.86956l-6.53753-15.69067c.35548,5.14042,3.02393,11.23432,5.73716,16.26618A6.743,6.743,0,0,0,276.85039,113.86956Z"/><path class="cls-1" d="M297.813,181c21.29349,2.10546,35.78428-6.97229,48.77968-15.32015-.51634-3.27375,3.93576-9.1714,2.69959-14.094-.42864-1.69276-4.2826-4.14908-6.62328-6.70912-9.53225-10.39558-22.59352-25.929-27.78334-38.07519-.57617-1.33982-.92308-8.6988-4.94051-5.78589-.48453,17.936,12.84788,32.78569,22.78687,44.76621,4.85483,5.8478,10.70859,9.18944,5.31939,18.275-8.6909,3.30572-22.753,12.76421-34.83534,10.69667-4.13612-.70612-5.00191-3.984-5.71362-7.28365a8.04368,8.04368,0,0,0-1.96993,2.76493c-.04753.49735-.07018.7883-.07018.7883a1.51866,1.51866,0,0,1,.07018-.7883c.12011-1.25755.40488-3.88085.91616-6.73981a7.843,7.843,0,0,0-.49988-1.067C291.52856,168.24186,293.26312,177.04437,297.813,181Z"/><path class="cls-1" d="M295.46232,171.02311s.02265-.291.07018-.7883A1.51866,1.51866,0,0,0,295.46232,171.02311Z"/><path class="cls-1" d="M297.50243,167.46988a26.01972,26.01972,0,0,0-1.05377-3.97488c-.51128,2.859-.79605,5.48226-.91616,6.73981A8.04368,8.04368,0,0,1,297.50243,167.46988Z"/><path class="cls-1" d="M164.24976,134.62831c-3.1725-.67915-6.23562-.762-8.5471.35265a9.09089,9.09089,0,0,0-1.73724,1.2162,7.76474,7.76474,0,0,0-2.05956,4.25548c-.1903,1.04655-.39855,2.07074-.61492,3.07966,1.66951-1.703,3.41875-3.896,6.51845-2.37384-3.45578,6.75285-2.62859,19.90182,2.07558,24.1725-.02734-8.01108-1.2735-21.71029,5.56057-21.29558,4.78211.29111,5.75169,10.53111,9.825,12.85593C177.64087,145.48383,171.23977,137.05743,164.24976,134.62831Z"/><path class="cls-1" d="M153.96542,136.19716c-1.99534,1.74536-3.48685,4.52535-4.03784,8.5281a8.70423,8.70423,0,0,0,1.36336-1.193c.21637-1.00892.42462-2.03311.61492-3.07966A7.76474,7.76474,0,0,1,153.96542,136.19716Z"/><path class="cls-1" d="M164.24976,134.62831a10.68893,10.68893,0,0,0-8.5471.35265C158.01414,133.86631,161.07726,133.94916,164.24976,134.62831Z"/><path class="cls-1" d="M322.5098,198.73671c17.75069-.3689,26.308-13.04928,32.357-24.5633-10.38954,4.73717-18.76735,11.64359-32.33707,12.94757C321.87186,189.36,322.149,195.01828,322.5098,198.73671Z"/><path class="cls-1" d="M318.17937,199.42859c-.03189-4.11123-.01192-8.27626-.8374-11.64769-15.38795.45055-36.195-.1894-47.51647-6.14286C275.012,195.52069,298.39914,200.41538,318.17937,199.42859Z"/><path class="cls-1" d="M267.67362,192.73937v.00007c-10.00024.012-1.5655,5.57257.12838,7.74978,3.50763,4.508,7.62088,12.19794,14.02287,15.60134,10.09449,5.36126,30.14988,3.11624,37.42124.15751,2.69162-1.09058,4.85676-4.10519,5.8557-6.65726C302.41061,210.13316,275.5026,212.39613,267.67362,192.73937Z"/><path class="cls-1" d="M395.08542,357.72075c-1.12567.033-2.22072.0991-3.30043.18158q-.44134.56383-.88575,1.12493A22.64564,22.64564,0,0,1,395.08542,357.72075Z"/><path class="cls-1" d="M375.82654,367.3927c5.0139-2.26521,9.69244-6.14859,15.0727-8.36544q.44559-.56027.88575-1.12493a51.35138,51.35138,0,0,0-8.59962,1.34249Q379.63366,363.43917,375.82654,367.3927Z"/><path class="cls-1" d="M370.73336,365.54206q-.7287.66409-1.39652,1.3945a22.36225,22.36225,0,0,0-1.79945,2.1986,17.19121,17.19121,0,0,0,8.28915-1.74246q3.79668-3.96009,7.35883-8.14788A28.39812,28.39812,0,0,0,370.73336,365.54206Z"/><path class="cls-1" d="M379.8117,371.722c-.43953.4589-.87235.9245-1.31649,1.37878-.80052.81915-1.6146,1.62429-2.4301,2.42808,7.71514.20542,16.19972-.93351,23.55818-1.71071C394.771,372.14433,386.15364,370.64582,379.8117,371.722Z"/><path class="cls-1" d="M379.8117,371.722c-3.06789.52052-5.61064,1.63509-6.923,3.63982,1.04.08553,2.10137.13843,3.17645.167.8155-.80379,1.62958-1.60893,2.4301-2.42808C378.93935,372.64652,379.37217,372.18092,379.8117,371.722Z"/><path class="cls-1" d="M372.43811,386.96155c8.95607.75149,20.66755.93925,30.09012.7351C396.41726,384.8502,377.73552,381.27148,372.43811,386.96155Z"/><path class="cls-1" d="M145.92453,82.631l4.37462-5.90554,2.27259-7.385,3.87668-.91645,2.42406-3.27234-2.3132.20124,7.30922-13.29254,2.25939-2.259L167.856,46.079l9.178-7.18255,3.45064-3.45026,1.88417-.72482.77318-.605,36.55231-17.944,2.39761,3.26929,1.58994-.61157a99.674,99.674,0,0,1,12.566-.31562A174.49749,174.49749,0,0,1,259.56992,7.53331c39.87592-15.28423,81.74531,34.55817,81.74531,34.55817l4.15266,6.64363c.32083-.00417.50077.00164.50077.00164l1.09,2.54327L357.9313,68.67456l10.63289,19.27386.92338,16.62486q2.18061,1.9458,4.29371,3.96632c-1.0914-19.29056-4.82637-37.461-11.79262-51.54261-6.101-12.33757-23.15769-29.37834-33.82843-37.4491C302.99475.51528,256.47253-1.58623,226.15076,9.57291c-8.45261,3.11036-16.63708,5.89571-24.06178,10.25409-19.86211,11.66155-40.944,19.46326-46.83419,42.928-12.60267,5.64559-17.5548,20.40238-18.1616,38.30558q3.10744-2.61212,6.32927-5.085Z"/><path class="cls-1" d="M331.37393,443.64577c-.317-1.52415-.64919-3.03943-.97978-4.54756-.49586-2.26222-.98784-4.50836-1.41932-6.74347s-.80238-4.4594-1.05578-6.67819c-2.75741-.73585-7.81967,1.944-11.25288,1.71667-.44071,10.49922,1.03269,27.33643,1.52519,38.35051,6.98019.00938,9.97289-1.52728,15.1826-3.28419q.05521-1.215.05052-2.4187c-.00477-1.60528-.0836-3.19611-.21972-4.7742A98.659,98.659,0,0,0,331.37393,443.64577Z"/><path class="cls-1" d="M425.77764,376.11959a183.18681,183.18681,0,0,0-10.03868-29.6459,18.90718,18.90718,0,0,0-9.62769-9.7551q-1.46856,2.53377-3.00739,5.01867l5.80235.75686,13.29262,39.21182-1.659,5.12723.52656,9.48657L410.43351,412.27l-11.96264,2.6581-19.93781-.66432-5.90644-7.67833-6.91752.374L339.79,414.27019l-1.31344-10.30841c-.426.24186-.84753.491-1.27573.72937l1.45671,14.89038-23.95478,3.15059,4.68092,63.97212-6.64527,3.98755-2.73036.09753-.12674,1.90242-50.50754,3.98755-30.57181-6.64564h-.00008L215.04244,434.2l-3.98755,4.6535L144.59664,416.256l-2.20239-3.77453-2.451-.875-.06974-4.11294-1.908-21.5618q-1.63576-1.35769-3.23933-2.75369c.27195,3.92109.51969,7.85521.77392,11.81631.52178,8.10049-.33872,16.676,1.76406,21.15036,2.169,4.62162,10.201,6.10441,16.00711,8.796,16.76941,7.75619,34.55773,19.595,56.55145,17.24619,5.24145,17.62536,10.19887,36.399,16.49164,51.83431,22.55082,8.10906,58.14831,6.84271,81.59316,4.02339,7.12578-.8614,14.64629-4.3785,16.323-10.55689a62.296,62.296,0,0,1-.82145-12.08037c7.33313-1.51707,17.31-2.771,18.923-10.88,2.26089-11.38244-7.1856-27.684-4.03739-40.1668,4.24668-1.3793,8.77658-2.45416,8.09877-9.15128,7.15364-3.72252,15.63316-4.56,24.68885-4.20862a19.33973,19.33973,0,0,0,4.31859,5.66429c12.68239,2.54767,24.968,2.757,35.4972-.67982C422.81891,412.09334,428.50711,387.717,425.77764,376.11959ZM333.374,462.45954c-5.20971,1.75691-8.20241,3.29357-15.1826,3.28419-.4925-11.01408-1.9659-27.85129-1.52519-38.35051,3.43321.22733,8.49547-2.45252,11.25288-1.71667.2534,2.21879.6243,4.44309,1.05578,6.67819s.92346,4.48125,1.41932,6.74347c.33059,1.50813.66275,3.02341.97978,4.54756a98.659,98.659,0,0,1,1.83083,11.62087c.13612,1.57809.21495,3.16892.21972,4.7742Q333.42807,461.24465,333.374,462.45954Z"/><path class="cls-1" d="M199.087,49.07509l-9.96372,11.62437,1.99377,7.9751C190.90429,62.91915,193.7818,56.13641,199.087,49.07509Z"/><path class="cls-1" d="M328.693,32.97551l12.62219,9.116A39.0088,39.0088,0,0,0,328.693,32.97551Z"/><path class="cls-1" d="M191.15866,69.8088c-.01386-.37828-.0272-.74613-.04158-1.13424-.22069.02757-.43081.06154-.64912.09045l.20334,1.21933C190.83343,69.925,190.99638,69.86766,191.15866,69.8088Z"/><polygon class="cls-1" points="192.362 132.818 190.454 140.451 193.111 137.129 192.362 132.818"/><path class="cls-1" d="M191.72269,87.27956l-.132,1.21024.16109-.05409C191.7428,88.06391,191.733,87.67758,191.72269,87.27956Z"/><path class="cls-1" d="M316.76982,346.94265c4.56975-13.43627,6.52568-35.92473,7.21548-53.06885a17.10946,17.10946,0,0,1,4.70327-1.43741V288.502a114.02844,114.02844,0,0,1-19.7882-3.55167l-1.37386-.38789.129-.77735-3.09159-1.10429v-6.91007a9.65284,9.65284,0,0,1-1.20644,3.86021,8.20171,8.20171,0,0,1-7.3715,4.06079,14.26812,14.26812,0,0,1-4.25935-.71342l-.92681-.28968-.16824-.9564c-.1894-1.07679-.38424-1.99369-.57327-2.8273a17.65663,17.65663,0,0,1-1.78433.78853l-.2166,5.53471,9.39471-1.22551,6.48708,1.33586h2.62047l3.42023,1.244,10.06968,2.07364v1.58867l1.13045.41114-1.32775,24.58968-4.29862,24.92719c.32367.62915.50837.98545.50837.98545l-1.19206,2.9793-1.665,9.65549-2.484-6.32347-2.634-.32992-18.31844-43.21323-6.47025-9.28294a28.30583,28.30583,0,0,1,1.29139-2.93392l-.76059-1.79432c-1.33929,1.07374-2.6829,2.20933-4.06742,3.38552a75.37188,75.37188,0,0,1-12.51408,9.21037c-2.69624,1.47035-14.23992,6.40028-19.768,6.40028a6.14261,6.14261,0,0,1-1.38161-.137,3.99965,3.99965,0,0,1-1.77569-.909l-.23522.07078c-.00827-.108-.01744-.21578-.02578-.32359a9.39647,9.39647,0,0,1-1.86443-4.03449c-.14328-.5109-.29051-1.03582-.46806-1.55611-.43148-1.26791-.99536-2.71181-1.60983-4.28506-.61924-1.5871-1.28-3.30013-1.915-5.08215l2.75771,11.9496,5.98132,7.31078,15.28669-5.317-10.63483,20.60369,57.82,27.247.36971,4.31389,5.28884-1.05779,3.07556-12.59478C317.68612,345.71758,317.24034,346.3436,316.76982,346.94265Zm-10.75248.01557q-3.22915-.97335-6.47032-2.09227-3.23832-1.11585-6.47173-2.35872c-4.30742-1.65327-8.59329-3.45973-12.81271-5.37095-8.43884-3.82236-16.6116-8.06323-24.1585-12.33309,2.96358-12.842,14.57566-19.493,25.12063-26.565a119.66429,119.66429,0,0,1,13.74443,23.11157q1.47237,3.11651,2.87022,6.30193.70131,1.59049,1.39,3.19277c1.37863,3.20334,2.72649,6.43507,4.07628,9.665q1.34976,3.23005,2.71174,6.44864Z"/><polygon class="cls-1" points="189.852 104.429 188.46 117.191 192.012 130.805 190.454 121.843 189.852 104.429"/><path class="cls-1" d="M123.34868,303.76474l-5.33474-15.77458-3.324-10.63281L167.856,240.80541l2.73283-1.09326,9.22989-6.21588,1.84811,1.78418,2.80532-1.12224,14.62,17.944V246.707c-1.61431-.35094-2.65728-.58616-2.65728-.58616l-6.07453-9.4906-6.55406-7.12361-2.45186-6.94688-6.18756-9.66725-.66454-9.74721-2.65869-7.53289-2.65816-7.31114-15.95019-5.31544-2.10554-3.45913-3.87578-1.19229-7.97517-20.60175-1.28125-9.61332-.71252-2.35134.29535-.77854-.95892-7.19454,6.10552-6.37219.90036-2.37362a135.35468,135.35468,0,0,0-11.34005,10.50026c-1.72554,14.331,3.06782,29.94259,9.43316,39.27553a35.22559,35.22559,0,0,0,23.511,15.11085,49.89429,49.89429,0,0,0,4.88552,18.25891c1.85527,4.07129,8.79439,11.39451,6.24,16.58828-1.28505,2.61987-12.582,8.30807-16.3281,10.5551-12.64789,7.58832-21.81475,12.23772-33.49314,20.64549-7.55464,5.43718-19.36916,6.13488-17.5063,18.68174,1.25621,8.46559,6.07326,18.95691,8.83015,27.44619,2.983,9.15963,7.25885,17.54765,9.712,27.05382a226.19658,226.19658,0,0,1,5.81568,33.96612q1.57485,1.5687,3.18837,3.09553L135.22,354.90865Z"/><path class="cls-1" d="M334.31657,371.3126c-.10371.07205-.20661.14305-.357.24483l2.08318,21.295c.31659-.18828.63012-.38148.94551-.57185Z"/><path class="cls-1" d="M299.41626,359.10378c.01132-.26533.01974-.45115.02451-.55561l-13.29254.5577Z"/><path class="cls-1" d="M234.69019,256.254a16.75713,16.75713,0,0,1,4.2776-4.15184l-22.59515-.66395L234.78407,253.44Z"/><path class="cls-1" d="M363.24667,177.00451l-14.62029,36.55194L334.67,232.83031l-9.96686,10.63282L298.118,247.45067l-35.88837,3.98755-5.40679.15431a56.95753,56.95753,0,0,1,11.06094,4.14431q7.78852,4.03743,15.576,8.07479c2.69974,1.4,9.80942.18344,12.49284,1.75363a7.55829,7.55829,0,0,1,5.8823,1.98617,9.4488,9.4488,0,0,1,2.729,5.6669V268.0604l.62871-3.45637c-.01639-.0456-.038-.08621-.05395-.132l-.51873-1.49382.9286-.331.3452-1.898,22.79484-13.19613v-7.41166l15.95026-15.95026,5.98132,5.31752,1.76988,1.84841,27.47286,25.39847-.25259,3.03033.91653.95729s-.5866,2.37593-1.50671,6.12035l-.48706,5.84229-.80052-.59465c-3.89829,15.90965-10.49818,43.05214-10.49818,44.45737,0,1.99377-15.28438,40.53994-15.28438,40.53994l20.40431-9.96246,17.95365-5.61012q2.21916-3.279,4.29266-6.66539c-12.0601.53915-25.95132,6.9661-35.21981,11.57371,7.82161-20.578,14.55256-41.91387,21.45108-64.99565,2.06359-6.9164,6.13689-16.72187,5.22171-23.88944-.85141-6.73505-11.36255-13.81887-16.89526-19.15621-3.07243-2.96276-17.40169-13.84287-18.23313-17.9161-.80745-3.93971,5.84184-12.86784,7.98113-17.32994,3.06849-6.39007,5.26559-14.20959,6.7808-19.52905a235.15142,235.15142,0,0,0,8.40747-59.35222q-1.65086-1.78743-3.34521-3.53156c-.12689-.12964-.2578-.25511-.38506-.38446l.85744,15.43943Zm-63.82274,84.51427c-10.07653.49846-15.57541-.69777-22.97827-6.48373.12159-.46456.86526-.25721.8932-.82742a21.22157,21.22157,0,0,0,8.54844,1.70677,38.61048,38.61048,0,0,0,5.9469-.45495c1.337-.19671,2.68037-.44586,4.02294-.72475q1.00686-.2091,2.0121-.43781c1.33966-.30288,2.67463-.62423,3.99731-.94112,1.5117-.36211,3.00731-.71841,4.47565-1.03529a53.06619,53.06619,0,0,1,6.38627-1.04372C307.99718,254.36514,303.96776,258.2211,299.42393,261.51878Z"/><polygon class="cls-1" points="333.551 358.094 332.091 358.172 332.147 358.452 332.676 358.438 333.551 358.094"/><polygon class="cls-1" points="332.676 358.438 333.185 363.644 333.61 365.765 332.676 358.438"/><polygon class="cls-1" points="207.864 383.951 207.067 362.424 207.067 378.374 207.864 383.951"/><path class="cls-1" d="M191.75182,88.43571l-.16109.05409-.82339,7.54809,1.00594-6.70584C191.76665,89.04422,191.7592,88.74052,191.75182,88.43571Z"/><path class="cls-1" d="M138.72977,122.77974c-.40116,2.00577-3.12072,4.57371-3.666,5.87969a40.68225,40.68225,0,0,0-2.77649,10.88994,135.35468,135.35468,0,0,1,11.34005-10.50026l.96928-2.555-1.88126-15.98268q-2.41643,2.07409-4.76005,4.23268C138.56868,117.55252,139.2061,120.40187,138.72977,122.77974Z"/><path class="cls-1" d="M396.78325,340.91275l6.32063.82451q1.54489-2.48058,3.00739-5.01867a21.80663,21.80663,0,0,0-5.71987-1.59493C399.227,337.08048,398.01838,339.0063,396.78325,340.91275Z"/><path class="cls-1" d="M369.87979,111.63647q2.12226,2.01385,4.18149,4.09484-.08271-3.61564-.28-7.19171-2.11735-2.01531-4.29371-3.96632Z"/><path class="cls-1" d="M336.56151,398.15556l.63929,6.53559c.4282-.23836.84969-.48751,1.27573-.72937l-.81959-6.43262C337.29386,397.74129,336.92631,397.946,336.56151,398.15556Z"/><path class="cls-1" d="M191.15866,69.8088c-.16228.05886-.32523.11623-.48736.17554l.62922,3.77416Q191.23448,71.87954,191.15866,69.8088Z"/><path class="cls-1" d="M137.21985,377.50656q-1.58635-1.40285-3.13912-2.84406.353,4.25268.6454,8.5155,1.60368,1.39571,3.23933,2.75369Z"/><path class="cls-1" d="M137.06055,107.3608l.69256-.7965.78137-.26234q1.73445-1.50378,3.50712-2.96157l1.38086-7.36479q-3.22212,2.47074-6.32927,5.085C137.02337,103.12037,137.02025,105.22672,137.06055,107.3608Z"/><path class="cls-1" d="M336.04271,392.85241l.5188,5.30315c.3648-.20952.73235-.41427,1.09543-.6264l-.66872-5.2486C336.67283,392.47093,336.3593,392.66413,336.04271,392.85241Z"/><path class="cls-1" d="M370.74938,120.74409q1.69923,1.73892,3.34521,3.53156.06336-4.288-.03331-8.54434-2.056-2.08416-4.18149-4.09484l.48453,8.72316C370.49158,120.489,370.62249,120.61445,370.74938,120.74409Z"/><path class="cls-1" d="M394.6006,334.87055q-2.073,3.38619-4.29266,6.66539l3.31406-1.0356,3.16125.41241c1.23513-1.90645,2.44373-3.83227,3.60815-5.78909A31.03322,31.03322,0,0,0,394.6006,334.87055Z"/><path class="cls-1" d="M133.38728,367.1314q.384,3.767.69345,7.5311,1.55273,1.44084,3.13912,2.84406l-.6442-7.27963Q134.9618,368.70048,133.38728,367.1314Z"/><path class="cls-1" d="M141.937,103.89861l.10461-.55822q-1.77279,1.45784-3.50712,2.96157l3.54527-1.19013Z"/><path class="cls-1" d="M138.53448,106.302l-.78137.26234-.69256.7965.0041.21391C137.5497,107.14472,138.04481,106.72658,138.53448,106.302Z"/><path class="cls-1" d="M137.09885,109.37752a31.20844,31.20844,0,0,0,.85648,5.36662q2.339-2.16339,4.76005-4.23268l-.63563-5.39963-3.54527,1.19013c-.48967.42462-.98478.84276-1.46983,1.27275C137.077,108.17629,137.07829,108.771,137.09885,109.37752Z"/><path class="cls-1" d="M326.28962,31.89246c6.05069,4.6652,11.28715,10.82132,16.15449,17.07452a26.22591,26.22591,0,0,1,3.02378-.23187l-4.15266-6.64363-12.62219-9.116C327.9189,32.60528,327.12158,32.24272,326.28962,31.89246Z"/><path class="cls-1" d="M329.87087,68.13459A11.68736,11.68736,0,0,0,330.0444,70.82c9.78953-8.972,26.51326-.09775,31.45795,9.82127,2.82767,5.67,3.94977,12.97625,4.55321,20.94352q1.73512,1.472,3.432,2.98846l-.92338-16.62486L357.9313,68.67456,347.05865,51.28,351.95,62.69324C344.96138,55.70307,334.59605,63.7152,329.87087,68.13459Z"/><path class="cls-1" d="M148.66719,125.085q-2.58921,1.93607-5.03983,3.96415l-.90036,2.37362,6.13794-6.40624Z"/><polygon class="cls-1" points="137.285 145.768 137.998 148.119 137.58 144.989 137.285 145.768"/><path class="cls-1" d="M189.85193,104.42919l.60158,17.41346,1.55805,8.9627.43572,1.67011-.08576.343.74934,4.31039-2.65735,3.32166-7.97509,1.32983-3.06469-6.74056.405,6.07662s-.65441-.3952-1.755-.99454c.59517,2.04227,1.07806,4.13753,1.48629,6.1804,5.51795.29521,13.48925-.23515,16.09831-4.53973-.37388-10.50726-5.25315-18.933-4.91831-28.58482a70.08233,70.08233,0,0,1,1.11972-9.83609c-.65791.20415-1.29846.42321-1.94847.63414Z"/><path class="cls-1" d="M343.49252,212.456c-4.59174,6.59937-8.4477,13.80889-14.90752,18.35272-15.56743,10.93189-39.22963,20.84093-59.48991,14.0462-26.776-8.986-38.94121-26.82635-53.66625-47.25457.39884,11.22091,8.292,20.43016,16.08408,29.0154,6.78363,7.48274,14.969,15.93633,23.77358,19.42341-7.34669-1.72465-18.62169-2.26685-21.68235,4.32648a168.94481,168.94481,0,0,1-16.92319-1.77084c.342.28246.66968.57491,1.01957.85156,1.52847,1.20882-6.04555-.14336-12.57421-1.46887l11.24632,3.4607,22.59515.66395c4.21436-2.86575,11.36874-2.21887,17.855-.50964l5.40679-.15431,35.88837-3.98755,26.58516-3.98754L334.67,232.83031l13.95641-19.27386,14.62029-36.55194,7.97509-41.20545-.85744-15.43943q-1.72607-1.75346-3.50369-3.4522c.0222.45755.04321.91474.06676,1.37252C368.68989,152.46922,360.67284,187.74312,343.49252,212.456Z"/><polygon class="cls-1" points="156.919 122.229 167.126 123.014 161.875 120.513 156.919 122.229"/><polygon class="cls-1" points="183.806 229.507 190.36 236.63 181.354 222.56 183.806 229.507"/><polygon class="cls-1" points="171.726 125.205 176.781 129.249 175.831 127.16 171.726 125.205"/><path class="cls-1" d="M144.59664,126.49414l-.96928,2.555q2.45454-2.02548,5.03983-3.96415Z"/><path class="cls-1" d="M191.7814,99.24712s.01252-.06222.02936-.14395c.05111-.4405.1359-2.25888-.03748-9.77112l-1.00594,6.70584-.866,7.93791c.65-.21093,1.29056-.43,1.94847-.63414.89671-5.04713,2.14823-9.99867,3.12712-14.93054a82.266,82.266,0,0,0-3.16616,10.69205C191.79436,99.24354,191.7814,99.24712,191.7814,99.24712Z"/><path class="cls-1" d="M366.47229,108.48521q1.72461,1.55249,3.4075,3.15126l-.39222-7.06319q-1.6979-1.515-3.432-2.98846C366.22641,103.83982,366.35844,106.14519,366.47229,108.48521Z"/><path class="cls-1" d="M366.86063,116.90743q1.7739,1.70236,3.50369,3.4522l-.48453-8.72316q-1.68383-1.59788-3.4075-3.15126C366.6073,111.261,366.72376,114.07945,366.86063,116.90743Z"/><path class="cls-1" d="M137.96546,385.93169l1.908,21.5618L139.53,387.22054C139.0053,386.7948,138.48546,386.36324,137.96546,385.93169Z"/><path class="cls-1" d="M209.68841,422.049c.45718,3.24448.9201,6.51794,1.39219,9.85815-25.05975-1.30025-42.03659-12.79535-60.20184-21.97368a36.22077,36.22077,0,0,1-1.631,4.99461l-6.85351-2.44664,2.20239,3.77453,66.45825,22.59746,3.98755-4.6535-1.886-11.35324C211.99675,422.59092,210.83971,422.32769,209.68841,422.049Z"/><path class="cls-1" d="M135.22,354.90865l1.35561,15.31828q1.34115,1.2684,2.70891,2.50654l-.00574-.33908Z"/><polygon class="cls-1" points="114.69 277.357 170.589 239.712 167.856 240.805 114.69 277.357"/><polygon class="cls-1" points="123.349 303.765 122.001 297.961 114.69 277.357 118.014 287.99 123.349 303.765"/><path class="cls-1" d="M205.51593,309.07876l.89261,1.08909A1.69868,1.69868,0,0,0,205.51593,309.07876Z"/><path class="cls-1" d="M208.199,393.00292l-.335-9.05241-.79665-5.57629V362.424l62.27527-3.31525,16.80562-.00283,13.29254-.5577.00507-.1102,9.96894-3.98911-57.82-27.247,10.63483-20.60369-15.28669,5.317-5.98132-7.31078-2.75771-11.9496c-.63161-1.77256-1.22917-3.61694-1.72838-5.50827a65.33656,65.33656,0,0,1-4.52445-14.7462l-10.90827-4.90884-6.66151-1.42483-6.14844-4.33968-.69733-.31375-.44936-.49563-4.004-2.826.65224-.87018-4.64217-5.11918-4.94431,2.20925a25.72211,25.72211,0,0,0,2.622,2.80316l-.00014-.00008c9.9065,7.036,22.212,12.59269,33.72129,18.07957a132.85963,132.85963,0,0,0,5.19637,21.27963c3.1605,10.11044,5.76711,24.3815,19.12768,17.09487-1.26948,5.772-8.6915,9.35842-6.64333,16.09123,1.28371,4.22515,15.30628,9.44328,19.75481,11.95109,8.206,4.62527,15.69068,7.18374,21.991,9.88713a754.10045,754.10045,0,0,0-75.53875,5.8785v2.39165H203.74412s-1.3279-27.9129-1.3279-31.23688c0-3.32323,1.3279-15.28594,1.3279-15.28594l1.77181-4.16659c-3.77341-1.342-4.48057,6.3061-4.61461,7.99074-.70716,8.972,4.26814,27.96506-.63854,38.69965-5.3699-1.51811-8.01406-5.56087-13.04912-7.39125-1.97426,6.2167,4.0888,6.51578,3.468,10.46361-.80148,5.07835-10.15975,1.11882-10.61627,8.04789l25.67251-1.13991v10.63244l-1.80735-.28238c1.12716,11.45583,2.5578,22.72413,4.14751,34.35625,1.04752.28246,2.1.55143,3.15529.8137Z"/><polygon class="cls-1" points="181.667 235.28 199.092 252.102 184.472 234.158 181.667 235.28"/><path class="cls-1" d="M208.78044,415.57565c.29722,2.1372.60211,4.30205.908,6.47337,1.1513.27867,2.30834.5419,3.468.79769l-1.07173-6.45214C210.9783,416.13484,209.87877,415.85684,208.78044,415.57565Z"/><path class="cls-1" d="M139.39729,379.38977c-.72907-.62394-1.4585-1.24728-2.17744-1.88321l.74561,8.42513c.52.43155,1.03984.86311,1.56453,1.28885Z"/><path class="cls-1" d="M208.07805,410.4558c.23269,1.70244.46322,3.39945.70239,5.11985,1.09833.28119,2.19786.55919,3.30423.81892l-.85133-5.12507C210.178,411.00723,209.12557,410.73826,208.07805,410.4558Z"/><path class="cls-1" d="M139.28456,372.73347q-1.36741-1.23878-2.70891-2.50654l.6442,7.27963c.71894.63593,1.44837,1.25927,2.17744,1.88321Z"/><polygon class="cls-1" points="219.694 16.172 183.142 34.116 182.369 34.721 222.092 19.442 219.694 16.172"/><path class="cls-1" d="M199.087,49.07509C204.53875,41.81848,212.56279,34.2698,222.48,27.231c-.26495.08025-.51962.15841-.79187.24007-2.94473.88345-5.70706,1.8423-8.33363,2.84846-3.09151,2.87007-6.9582,4.80058-10.27622,8.47631-4.07472,4.506-8.63308,16.61607-14.03427,17.956-2.71025.67385-5.7999-.46859-8.15816-.315a23.21125,23.21125,0,0,0-5.11107.95706,36.59411,36.59411,0,0,0-3.93107,6.62925l-12.97118,1.12858L156.44842,68.424l32.67489-7.72453Z"/><path class="cls-1" d="M150.29915,76.72543,145.92453,82.631,143.42246,95.9756c.41-.31435.82645-.62006,1.23908-.93091Z"/><polygon class="cls-1" points="167.856 46.079 166.128 49.801 177.034 38.896 167.856 46.079"/><path class="cls-1" d="M190.6713,69.98434,190.468,68.765c-.481.06371-.95959.12875-1.42937.19909.09783.50338.18866,1.00817.26406,1.51565C189.75648,70.3095,190.21583,70.15087,190.6713,69.98434Z"/><path class="cls-1" d="M148.66719,125.085l.19775-.06847.28894-.30147C148.98944,124.83677,148.83089,124.96254,148.66719,125.085Z"/><path class="cls-1" d="M156.91864,122.22853l4.95608-1.71571,5.25174,2.50125,2.059.15848,2.54007,2.03207,4.10564,1.9554.94969,2.08877,2.37354,1.89885.25929,3.89218,3.06469,6.74056,7.97509-1.32983,1.908-7.632-.35-2.01315-3.55182-13.6142,1.39219-12.762-.0149-.43245c-1.18119.38387-2.37161.75984-3.52679,1.16591a51.787,51.787,0,0,0,.63474,16.9033c1.37073,5.96739,6.11767,15.23051-1.4603,15.43183.14306-12.23363-10.74889-21.24327-22.78478-21.59473q-5.02295,2.86191-9.62977,6.02923Z"/><path class="cls-1" d="M191.72269,87.27956c-.04508-1.74864-.10208-3.75188-.17353-6.0495-.68839.26622-1.37923.52723-2.06329.80231-.21027,2.46616-.53535,4.95914-.90968,7.46948l3.01454-1.01205Z"/><path class="cls-1" d="M149.15388,124.715l2.752-2.8723,1.16427.08956q4.60831-3.164,9.62977-6.02923a24.63938,24.63938,0,0,0-11.57206,2.51c.39646,2.15248.778,3.42956.778,3.42956l-7.30922,4.65149,4.07055-1.40918C148.83089,124.96254,148.98944,124.83677,149.15388,124.715Z"/><path class="cls-1" d="M189.78763,102.56878l.97971-6.53089.82339-7.54809-3.01454,1.01205c-.772,5.178-1.73582,10.42762-2.266,15.6608,1.15518-.40607,2.3456-.782,3.52679-1.16591Z"/><path class="cls-1" d="M144.66154,95.04469c-.41263.31085-.82913.61656-1.23908.93091l-1.38086,7.36479.08993-.07406Z"/><path class="cls-1" d="M191.30052,73.7585l-.62922-3.77416c-.45547.16653-.91482.32516-1.36865.49541a40.78478,40.78478,0,0,1,.41367,4.98656c.54108-.2087,1.07814-.42567,1.62175-.62908C191.32578,74.48324,191.31326,74.12277,191.30052,73.7585Z"/><path class="cls-1" d="M142.13153,103.26633l-.08993.07406-.10461.55822Z"/><path class="cls-1" d="M191.33807,74.83723c-.54361.20341-1.08067.42038-1.62175.62908a59.98148,59.98148,0,0,1-.23045,6.56606c.68406-.27508,1.3749-.53609,2.06329-.80231C191.4894,79.31139,191.41944,77.18678,191.33807,74.83723Z"/><polygon class="cls-1" points="192.012 130.805 192.362 132.818 192.447 132.475 192.012 130.805"/><path class="cls-1" d="M189.837,103.99674l.0149.43245.0494-.45339Z"/><path class="cls-1" d="M190.76734,96.03789l-.97971,6.53089.0494,1.428.0643-.02094Z"/><polygon class="cls-1" points="166.128 49.801 163.868 52.06 156.559 65.353 158.872 65.152 159.217 64.687 166.128 49.801"/><path class="cls-1" d="M236.24786,18.51445a99.674,99.674,0,0,0-12.566.31562l-1.58994.61157,3.9237,5.35038C229.25382,22.63015,232.67674,20.53237,236.24786,18.51445Z"/><polygon class="cls-1" points="180.485 35.446 177.034 38.896 182.369 34.721 180.485 35.446"/><path class="cls-1" d="M175.77473,57.39382c-3.86945,1.12985-7.3788,2.89793-11.84536,3.54683,8.169-17.8582,33.64656-32.3031,53.526-37.93758,1.09021-.309,2.04817.43267,2.95792,1.4056-.11914,3.15216-3.22265,3.0825-5.32177,4.09522a17.97966,17.97966,0,0,1-1.737,1.81562c2.62657-1.00616,5.3889-1.965,8.33363-2.84846.27225-.08166.52692-.15982.79187-.24007,1.15533-.81989,2.33026-1.63419,3.53566-2.439l-3.9237-5.35038L182.36881,34.7214,177.034,38.89648,166.12789,49.80133,159.21663,64.687l-.34415.46464,12.97118-1.12858A36.59411,36.59411,0,0,1,175.77473,57.39382Z"/><polygon class="cls-1" points="152.572 69.34 150.299 76.725 156.448 68.424 152.572 69.34"/><path class="cls-1" d="M189.12331,60.69946,190.468,68.765c.21831-.02891.42843-.06288.64912-.09045Z"/><path class="cls-1" d="M148.77851,92.03611c.94685-4.97672,2.712-9.50833,5.84549-12.95606,8.10355-8.92218,19.27185-14.47485,32.86623-15.5056a30.69287,30.69287,0,0,1,1.54836,5.38965c.46978-.07034.94842-.13538,1.42937-.19909l-1.34465-8.06555L156.44842,68.424l-6.14927,8.30144-5.63761,18.31926Q146.69775,93.51085,148.77851,92.03611Z"/><path class="cls-1" d="M151.90586,121.84265s-.38156-1.27708-.778-3.42956a25.31892,25.31892,0,0,0-2.3839,1.31225c-.33879-4.10423-.75313-8.73955-.88054-13.4625q-2.61559,2.07309-5.148,4.24862l1.88126,15.98268Z"/><path class="cls-1" d="M148.77851,92.03611q-2.07946,1.47639-4.117,3.00858l-2.53,8.22164q2.87052-2.35752,5.83767-4.5933A53.01231,53.01231,0,0,1,148.77851,92.03611Z"/><path class="cls-1" d="M147.9692,98.673q-2.96775,2.23425-5.83767,4.5933l-.19454.63228.14276,1.21322,5.7496-1.93029C147.83441,101.67252,147.87733,100.16611,147.9692,98.673Z"/><path class="cls-1" d="M147.82935,103.18154l-5.7496,1.93029.63563,5.39963q2.53321-2.17422,5.148-4.24862Q147.82192,104.72555,147.82935,103.18154Z"/><polygon class="cls-1" points="175.167 212.893 181.354 222.56 174.502 203.145 175.167 212.893"/><path class="cls-1" d="M190.36037,236.63025l6.07453,9.4906s1.043.23522,2.65728.58616v-.58616Z"/><path class="cls-1" d="M205.12632,247.97752c6.52866,1.32551,14.10268,2.67769,12.57421,1.46887-.34989-.27665-.67758-.5691-1.01957-.85156-10.206-1.73866-18.92129-5.10063-24.2491-12.73388-6.38791-9.15747-12.87783-24.72491-15.7891-36.75334-.59339-2.47033-1.61363-7.73786-1.3644-9.08564.95639-5.21769,10.253-7.5086,6.59661-14.8038h-.00015l-8.70177,8.4316,1.3293,19.49553,6.8521,19.41446,9.00592,14.07049,8.73181,9.4906Z"/><polygon class="cls-1" points="137.998 148.119 139.279 157.733 147.254 178.334 151.13 179.527 143.931 167.7 137.998 148.119"/><polygon class="cls-1" points="136.621 137.795 137.58 144.989 142.727 131.423 136.621 137.795"/><polygon class="cls-1" points="176.781 129.249 179.414 135.04 179.154 131.148 176.781 129.249"/><polygon class="cls-1" points="167.126 123.014 171.726 125.205 169.185 123.173 167.126 123.014"/><path class="cls-1" d="M149.15388,124.715l-.28894.30147,8.0537-2.788-3.84851-.29625C151.74194,122.84412,150.432,123.76847,149.15388,124.715Z"/><path class="cls-1" d="M151.90586,121.84272l-2.752,2.8723c1.27812-.94655,2.58806-1.8709,3.91625-2.78274Z"/><path class="cls-1" d="M238.80812,21.08291l1.41417-.606q1.632-.84459,3.209-1.63084a42.51446,42.51446,0,0,1,6.79414-2.656l13.99791-5.999,41.20381,5.98132L328.693,32.97551a39.0088,39.0088,0,0,1,12.62219,9.116S299.44584-7.75092,259.56992,7.53331a174.49749,174.49749,0,0,0-23.32206,10.98114C239.40188,18.75474,241.27145,19.4473,238.80812,21.08291Z"/><path class="cls-1" d="M230.42822,24.67422c-1.09572.38044-2.29024.78093-3.61373,1.20711l.19059.25989Z"/><path class="cls-1" d="M191.11708,68.67456c.01438.38811.02772.756.04158,1.13424.84664-.30675,1.69134-.61782,2.54379-.912l-.083-8.09573.0006-.00089a48.02733,48.02733,0,0,1,6.71709-10.73854l3.388-5.4164L201.086,46.743,199.087,49.07509C193.7818,56.13641,190.90429,62.91915,191.11708,68.67456Z"/><path class="cls-1" d="M191.916,88.38065l1.16174-7.745c-.22062.08286-.43789.17227-.65813.25594l-.69688,6.388c.01035.398.02011.78435.02913,1.15615Z"/><path class="cls-1" d="M191.77328,89.33205l.14268-.9514-.16414.05506C191.7592,88.74052,191.76665,89.04422,191.77328,89.33205Z"/><path class="cls-1" d="M191.47234,74.789c.75693-.28239,1.52042-.55024,2.28212-.8222l-.052-5.06993c-.85245.29416-1.69715.60523-2.54379.912q.07576,2.06817.14186,3.9497Z"/><path class="cls-1" d="M192.41957,80.89157c.22024-.08367.43751-.17308.65813-.25594l.69747-4.64992-.02071-2.019c-.7617.272-1.52519.53981-2.28212.8222l.97494,5.84825Z"/><path class="cls-1" d="M203.72512,44.64526l-3.388,5.4164c10.07646-12.44866,26.31909-22.56312,39.88515-29.5848l-1.41417.606a42.02854,42.02854,0,0,1-8.3799,3.59131l-3.42314,1.467Z"/><path class="cls-1" d="M193.61953,60.80117l.00052-.001-.0006.00089.083,8.09573c.71171-.24566,1.43012-.47589,2.14577-.7126A35.09666,35.09666,0,0,0,193.61953,60.80117Z"/><path class="cls-1" d="M320.93887,28.30256v.00008a45.07112,45.07112,0,0,1,5.35075,3.58982c.832.35026,1.62928.71282,2.40342,1.08305L305.42716,16.17235,264.22335,10.191,250.22544,16.19C272.08184,9.65166,302.3244,17.80007,320.93887,28.30256Z"/><path class="cls-1" d="M191.916,88.38065l3.2789-1.10087a76.63322,76.63322,0,0,0,1.11226-7.8105c-1.08052.38007-2.159.76468-3.22942,1.16635Z"/><path class="cls-1" d="M191.77328,89.33205c.17338,7.51224.08859,9.33062.03748,9.77112a82.266,82.266,0,0,1,3.16616-10.69205c.07488-.37724.14663-.75432.21794-1.13134l-3.2789,1.10087Z"/><path class="cls-1" d="M191.81076,99.10317c-.01684.08173-.02936.14395-.02936.14395S191.79436,99.24354,191.81076,99.10317Z"/><path class="cls-1" d="M196.42544,73.03577a37.45014,37.45014,0,0,0-.57722-4.85155c-.71565.23671-1.43406.46694-2.14577.7126l.052,5.06993Q195.08556,73.49142,196.42544,73.03577Z"/><path class="cls-1" d="M193.77517,75.98571l-.69747,4.64992c1.07039-.40167,2.1489-.78628,3.22942-1.16635a46.46356,46.46356,0,0,0,.11832-6.43351q-1.34082.45365-2.671.931Z"/><path class="cls-1" d="M203.72512,44.64526l2.01277-3.21772,21.26719-15.28632-.19059-.25989c-1.32082.42522-2.77194.87645-4.33454,1.34965-9.91716,7.03882-17.9412,14.5875-23.39292,21.84411L201.086,46.743Z"/><path class="cls-1" d="M191.54916,81.23006c.07145,2.29762.12845,4.30086.17353,6.0495l.69688-6.388C192.12846,81.00229,191.83967,81.11785,191.54916,81.23006Z"/><path class="cls-1" d="M191.30052,73.7585c.01274.36427.02526.72474.03755,1.07873.04449-.01661.08979-.03159.13427-.04828Z"/><path class="cls-1" d="M192.44728,80.6372l-.97494-5.84825c-.04448.01669-.08978.03167-.13427.04828.08137,2.34955.15133,4.47416.21109,6.39283.29051-.11221.5793-.22777.87041-.33849Z"/><polygon class="cls-1" points="205.738 41.428 203.725 44.645 227.005 26.141 205.738 41.428"/><path class="cls-1" d="M226.81449,25.88133c1.32349-.42618,2.518-.82667,3.61373-1.20711l8.3799-3.59131c2.46333-1.63561.59376-2.32817-2.56026-2.56846-3.57112,2.01792-6.994,4.1157-10.23225,6.27757Z"/><path class="cls-1" d="M230.42822,24.67422a42.02854,42.02854,0,0,0,8.3799-3.59131Z"/><path class="cls-1" d="M226.01561,24.792c-1.2054.80477-2.38033,1.61907-3.53566,2.439,1.5626-.4732,3.01372-.92443,4.33454-1.34965Z"/><path class="cls-1" d="M345.96866,48.73675s-.17994-.00581-.50077-.00164L347.05865,51.28Z"/><path class="cls-1" d="M349.8785,58.67984c-10.55928-3.13458-19.66966,1.43808-20.00763,9.45475,4.72518-4.41939,15.09051-12.43152,22.07911-5.44135L347.05865,51.28l-1.59076-2.54491a26.22591,26.22591,0,0,0-3.02378.23187C344.99983,52.25042,347.45816,55.55622,349.8785,58.67984Z"/><polygon class="cls-1" points="139.873 407.493 139.943 411.606 142.394 412.481 139.943 408.281 139.873 407.493"/><polygon class="cls-1" points="170.589 239.712 181.667 235.28 179.819 233.496 170.589 239.712"/><polygon class="cls-1" points="133.298 333.183 123.349 303.765 135.22 354.909 133.298 333.183"/><path class="cls-1" d="M150.87876,409.93349c-1.68993-.85387-3.38649-1.69484-5.10458-2.49842q-.22308-7.92488-.70694-15.90377-2.80916-2.10393-5.53725-4.31076l.34348,20.27295.06974.7874,2.451,4.20057,6.85351,2.44664A36.22077,36.22077,0,0,0,150.87876,409.93349Z"/><path class="cls-1" d="M119.78344,278.65335c18.4814-14.26547,39.163-29.34838,61.2814-38.07117,1.292-.50926,8.86115,8.83865,13.083,13.72924l4.94431-2.20925-17.42531-16.82172-11.078,4.4317L114.69,277.35735l7.31152,20.60369,1.34719,5.8037,9.94882,29.41842L135.22,354.90865l4.05878,17.48574.00574.33908c1.5272,1.38355,3.07228,2.74661,4.64762,4.07361C140.71617,342.14072,133.39332,307.85689,119.78344,278.65335Z"/><path class="cls-1" d="M139.39729,379.38977l.1327,7.83077q2.72478,2.21033,5.53725,4.31076-.239-3.961-.54876-7.92375Q141.91821,381.547,139.39729,379.38977Z"/><path class="cls-1" d="M143.93218,376.80708c-1.57534-1.327-3.12042-2.69006-4.64762-4.07361l.11273,6.6563q2.52081,2.15724,5.12119,4.21778C144.34279,381.33943,144.14251,379.07325,143.93218,376.80708Z"/><path class="cls-1" d="M202.41622,328.53129c0,3.324,1.3279,31.23688,1.3279,31.23688h10.63475v-2.39165c-2.15613.27568-4.31435.54608-6.46421.83867-3.16833-4.91123-1.89006-12.48115-2.22349-20.30461-.32389-7.51449,2.4-23.36893.71737-27.74273l-.89261-1.08909-1.77181,4.16659S202.41622,325.20806,202.41622,328.53129Z"/><path class="cls-1" d="M205.73789,365.74949l-25.67251,1.13991c-.01266.1926-.04552.36054-.044.57044,6.44066,1.03112,16.31461-2.0016,23.197.89961q.3316,3.892.71223,7.7401l1.80735.28238Z"/><polygon class="cls-1" points="332.147 358.452 333.185 363.644 332.676 358.438 332.147 358.452"/><path class="cls-1" d="M314.1682,415.42656c.4358-.16631.86944-.33738,1.30375-.507q-.23313-3.1535-.44787-6.29918c-.43647.17532-.87816.33991-1.31649.51188Z"/><path class="cls-1" d="M315.02408,408.62035q-.17312-2.53186-.33432-5.06076c-.4501.18671-.89656.38081-1.34868.56365l.36651,5.009C314.14592,408.96026,314.58761,408.79567,315.02408,408.62035Z"/><path class="cls-1" d="M351.95,357.10852s15.28438-38.54617,15.28438-40.53994c0-1.40523,6.59989-28.54772,10.49818-44.45737l-2.39553-1.77956c-.55173,3.06684-1.311,6.28524-1.70661,8.25792-3.26579,16.14362-10.60689,37.47123-17.59906,54.38809-2.54209,6.14875-4.97248,13.835-8.33,15.16286-9.18541,3.63706-20.33464-.35295-28.14023,4.50613,10.49326-18.20556,21.91556-35.40191,32.19953-53.82421-1.56707-3.65658-5.40716-5.21374-6.52367-9.281,4.935-9.31706,4.94334-32.01892-1.42-42.62453l-7.49354-5.56661a10.35228,10.35228,0,0,0-5.61317,1.15585,15.92038,15.92038,0,0,1,3.00805-3.09106l-1.70609-1.26739,12.62658-13.95649-15.95026,15.95026v7.41166l2.46035-1.4243,7.97509,2.65772,3.98755,11.96271a2.50156,2.50156,0,0,0-1.08619-1.17768,83.09412,83.09412,0,0,1,1.96785,14.28828c.14715,3.05611.14872,10.60755-3.011,14.71349l-.49689.64644-.81386-.0234c-3.80664-.11154-7.46076-.35145-10.98293-.69442v3.93443c7.49325-1.14319,13.70406,3.50488,16.95911,8.73023-8.79074,15.05609-17.239,30.47965-27.49879,43.94356L315.07333,357.705l16.273-3.25454.74456,3.72193,1.4603-.07824,7.56663-2.973Z"/><polygon class="cls-1" points="350.62 229.509 344.639 224.191 352.39 231.357 350.62 229.509"/><path class="cls-1" d="M380.52683,260.74322l-.91653-.95729-.59018,7.07764C379.94023,263.11915,380.52683,260.74322,380.52683,260.74322Z"/><polygon class="cls-1" points="321.494 358.74 332.147 358.452 332.091 358.172 321.494 358.74"/><polygon class="cls-1" points="309.784 358.763 309.81 359.056 314.776 358.922 315.073 357.705 309.784 358.763"/><path class="cls-1" d="M333.60978,365.76506l-.4244-2.121.77415,7.91333c.15043-.10178.25333-.17278.357-.24483Z"/><polygon class="cls-1" points="331.346 354.45 315.073 357.705 314.776 358.922 321.494 358.74 332.091 358.172 331.346 354.45"/><polygon class="cls-1" points="314.732 359.102 321.494 358.74 314.776 358.922 314.732 359.102"/><path class="cls-1" d="M378.53306,272.70586l.48706-5.84229c-.37806,1.53845-.81222,3.30751-1.28758,5.24764Z"/><polygon class="cls-1" points="379.863 256.756 352.39 231.357 379.61 259.786 379.863 256.756"/><path class="cls-1" d="M333.71834,239.41508c3.10142-2.57613,7.223-5.13066,9.48695-8.47281,7.77385,6.26043,12.46706,12.15212,19.91993,18.84708,4.04536,3.62476,11.99848,7.97114,12.802,13.83295a25.54842,25.54842,0,0,1-.59019,6.70935l2.39553,1.77956c.47536-1.94013.90952-3.70919,1.28758-5.24764l.59018-7.07764L352.39,231.35713l-7.7512-7.16593-12.62658,13.95649Z"/><path class="cls-1" d="M336.32346,241.35029l7.49354,5.56661C341.908,243.73531,339.41944,241.66457,336.32346,241.35029Z"/><path class="cls-1" d="M273.67111,489.643A161.0981,161.0981,0,0,1,231.474,483.036a485.36637,485.36637,0,0,1-15.31955-59.55242q-1.36674-.27662-2.72522-.576L215.04244,434.2l13.75941,55.8337h.00008l30.57181,6.64564,50.50754-3.98755.12674-1.90242-53.09626,1.89624A130.00831,130.00831,0,0,0,273.67111,489.643Z"/><path class="cls-1" d="M286.14823,359.10587,207.06734,362.424l.79665,21.52656,3.92243,27.45691q1.13047.27672,2.26625.54019c-2.41654-14.13382-4.38714-28.74345-6.07558-44.26566,26.19794-4.90058,62.96544-9.18422,91.31049-5.16963.0538-1.58986.10014-2.74407.12868-3.40854Z"/><path class="cls-1" d="M212.51243,416.48994l.91675,6.41757q1.35925.29763,2.72522.576-.61827-3.21094-1.20256-6.4505C214.13709,416.85667,213.323,416.678,212.51243,416.48994Z"/><path class="cls-1" d="M212.51243,416.48994c.81058.18806,1.62466.36673,2.43941.5431-.30467-1.69016-.60792-3.38209-.89917-5.08543q-1.13652-.26119-2.26625-.54019Z"/><path class="cls-1" d="M213.1564,422.84671l1.886,11.35324-1.61326-11.29244C213.33821,422.88754,213.24745,422.86683,213.1564,422.84671Z"/><polygon class="cls-1" points="207.067 362.424 286.148 359.106 269.343 359.109 207.067 362.424"/><path class="cls-1" d="M211.23334,411.2695c.18433.04583.36837.09269.55308.13792L207.864,383.95051l.335,9.05241Z"/><path class="cls-1" d="M212.08467,416.39457l1.07173,6.45214c.091.02012.18181.04083.27278.0608l-.91675-6.41757C212.37034,416.45694,212.22669,416.42788,212.08467,416.39457Z"/><path class="cls-1" d="M211.23334,411.2695l.85133,5.12507c.142.03331.28567.06237.42776.09537l-.726-5.08252C211.60171,411.36219,211.41767,411.31533,211.23334,411.2695Z"/><path class="cls-1" d="M312.82221,415.94052c-.7927.29513-1.59143.57692-2.38927.86094,2.297,22.15422.58713,47.13737,4.88135,67.75708-1.62071.50234-3.28784.96049-4.98387,1.38869l-.3224,4.84209,2.73036-.09753,6.64527-3.98755-4.68092-63.97212-1.3004.17107Z"/><path class="cls-1" d="M309.46031,405.63621c.81274-.305,1.618-.62565,2.42488-.943l-3.7983-45.59094-.57528,11.39556C308.75859,382.30044,308.7217,393.99806,309.46031,405.63621Z"/><path class="cls-1" d="M302.1055,358.43641l-2.66473.11176c-.00477.10446-.01319.29028-.02451.55561l8.67063-.00149,1.6976-.33954-.36971-4.31389Z"/><path class="cls-1" d="M309.834,410.598c.13017,1.49971.25467,2.99957.426,4.49749.0643.56395.114,1.13819.17286,1.70594.79784-.284,1.59657-.56581,2.38927-.86094l-.52164-6.26118Q311.07207,410.14863,309.834,410.598Z"/><path class="cls-1" d="M309.834,410.598q1.23732-.451,2.46653-.91869l-.41538-4.98611c-.80686.31733-1.61214.63794-2.42488.943Q309.61789,408.1187,309.834,410.598Z"/><path class="cls-1" d="M299.44077,358.54817l2.66473-.11176,7.30928-3.98755-9.96894,3.98911Z"/><path class="cls-1" d="M312.82221,415.94052l.58012,6.96267,1.3004-.17107-.53453-7.30556C313.71951,415.59778,313.27261,415.773,312.82221,415.94052Z"/><path class="cls-1" d="M311.88519,404.69323c.4849-.19081.97315-.37477,1.45589-.57l-1.93252-26.411-3.32167-18.60992Z"/><path class="cls-1" d="M312.30057,409.67934l.52164,6.26118c.4504-.16757.8973-.34274,1.346-.514l-.46061-6.29433C313.23923,409.31589,312.77087,409.49963,312.30057,409.67934Z"/><path class="cls-1" d="M312.30057,409.67934c.4703-.17971.93866-.36345,1.407-.54711l-.36651-5.009c-.48274.19522-.971.37918-1.45589.57Z"/><polygon class="cls-1" points="308.087 359.102 309.81 359.056 309.784 358.763 308.087 359.102"/><polygon class="cls-1" points="311.409 377.712 309.81 359.056 308.087 359.102 311.409 377.712"/><path class="cls-1" d="M299.28758,362.51232c2.51683.35652,4.99148.75432,7.36174,1.24742.34587,2.25008.62543,4.49585.86229,6.73811l.57528-11.39556-8.67063.00149C299.38772,359.76825,299.34138,360.92246,299.28758,362.51232Z"/><path class="cls-1" d="M348.62638,408.94678l-7.3113,2.65965-1.56907-8.37036q-.63281.36591-1.26948.72571L339.79,414.27019l25.91913-7.31078,6.91752-.374-.73883-.96034Z"/><path class="cls-1" d="M407.393,350.88191c2.168,3.27741,4.25041,10.27413,5.99794,17.27585a42.26025,42.26025,0,0,0-.29975-5.06792l7.31122,21.26726.13739,2.47607,1.659-5.12723-13.29262-39.21182-5.80235-.75686q-1.08633,1.7444-2.21186,3.46055A17.96838,17.96838,0,0,1,407.393,350.88191Z"/><path class="cls-1" d="M356.50238,394.07122a6.885,6.885,0,0,1,2.75681-.40882l-.604-3.0211c-.74687.569-1.50246,1.12709-2.25828,1.68456C356.43376,392.90919,356.47257,393.493,356.50238,394.07122Z"/><path class="cls-1" d="M351.95,357.10852l-18.39883.98559-.875.34386.93366,7.32709,1.06019,5.29987s-.146.10364-.3534.24767l2.67165,20.968q2.82112-1.70293,5.5763-3.506c-1.44994-9.43076-3.08779-18.81206-3.97481-27.64653,3.16408-.06147,7.02012-.79121,10.33172-.032,2.95933,5.08774,4.86616,11.69769,6.05561,18.6702q.65046-.51813,1.29488-1.0432Z"/><path class="cls-1" d="M351.95,357.10852l8.639-3.32167s.25586,1.47885.65836,3.83883c6.55787-4.12531,16.55728-6.2997,24.52776-9.70585q2.33585-3.13664,4.5328-6.38389l-17.95365,5.61012Z"/><path class="cls-1" d="M339.32146,400.97161s1.96531-.90662,4.66878-2.08185c-.20416-1.61117-.41665-3.22279-.64718-4.83888q-2.81005,1.78955-5.68612,3.47828l.81959,6.43262q.63582-.36088,1.26948-.72571Z"/><path class="cls-1" d="M355.7792,385.3611c.27255,2.33041.47186,4.66245.61767,6.96476.75582-.55747,1.51141-1.11554,2.25828-1.68456l-1.30255-6.51406C356.8282,384.53875,356.30821,384.95563,355.7792,385.3611Z"/><path class="cls-1" d="M394.83068,343.86105a11.05831,11.05831,0,0,1,6.06134,1.33676q1.12356-1.71758,2.21186-3.46055l-6.32063-.82451Q395.82109,342.39763,394.83068,343.86105Z"/><path class="cls-1" d="M336.98822,392.28056l.66872,5.2486q2.87989-1.68225,5.68612-3.47828-.37642-2.63894-.77854-5.27632Q339.81471,390.58489,336.98822,392.28056Z"/><path class="cls-1" d="M354.977,379.76626c.31525,1.84729.58258,3.71753.80216,5.59484.529-.40547,1.049-.82235,1.5734-1.23386l-1.08068-5.40418Q355.62673,379.24746,354.977,379.76626Z"/><path class="cls-1" d="M390.30794,341.53594q-2.19716,3.24638-4.5328,6.38389A37.72688,37.72688,0,0,0,391.27133,345.1a8.00184,8.00184,0,0,1,3.55935-1.23893q.99-1.46386,1.95257-2.9483l-3.16125-.41241Z"/><polygon class="cls-1" points="341.118 355.121 333.551 358.094 351.95 357.109 341.118 355.121"/><path class="cls-1" d="M333.60978,365.76506l.70679,5.54754c.20736-.144.3534-.24767.3534-.24767Z"/><path class="cls-1" d="M411.40227,404.48968a17.23521,17.23521,0,0,1-8.88008,5.57934c-7.55449,1.8341-19.14027,2.317-24.08882-.07309,5.19048-2.83609,12.60654-3.26161,19.03491-4.75312l-24.84166,1.34264,5.90644,7.67833,19.93781.66432,11.96264-2.6581,10.63289-15.95026-.52656-9.48657-5.65221,17.46815Z"/><path class="cls-1" d="M413.09123,363.08984a42.26025,42.26025,0,0,1,.29975,5.06792c1.24488,4.98775,2.32116,9.97818,3.13151,13.62775,1.93424,8.69716-.33253,17.22421-5.12022,22.70417l3.48536-.18836,5.65221-17.46815-.13739-2.47607Z"/><path class="cls-1" d="M400.59019,404.3993c-10.03861-4.32329-24.89024-.24923-36.96062-1.00162-.49787-5.09147-.95543-10.327-1.48056-15.4857q-1.72987,1.3863-3.49386,2.72932l.604,3.0211a6.885,6.885,0,0,0-2.75681.40882c.19432,3.77967.24059,7.438.18687,10.78452-4.09529.78971-6.755,3.13785-11.73346,2.98287-.19625-2.40305-.4615-4.82838-.753-7.26093q-2.20643,1.36339-4.4568,2.65839l1.56907,8.37036,7.3113-2.65965,23.26141-3.32167.73883.96034,24.84166-1.34264C398.53927,404.99432,399.58946,404.72348,400.59019,404.3993Z"/><path class="cls-1" d="M351.95,357.10852l4.32194,21.61454q2.19178-1.78116,4.32217-3.637a105.02479,105.02479,0,0,0-3.0515-14.51419,18.77588,18.77588,0,0,1,3.70479-2.94621c-.4025-2.36-.65836-3.83883-.65836-3.83883Z"/><path class="cls-1" d="M339.32146,400.97161l.42455,2.26446q2.2471-1.30024,4.4568-2.65839c-.06743-.56172-.14119-1.12515-.21257-1.68792C341.28677,400.065,339.32146,400.97161,339.32146,400.97161Z"/><path class="cls-1" d="M357.3526,384.12724l1.30255,6.51406q1.76362-1.34361,3.49386-2.72932c-.241-2.36751-.49511-4.72-.77616-7.03256Q359.38739,382.534,357.3526,384.12724Z"/><path class="cls-1" d="M357.3526,384.12724q2.03307-1.59541,4.02025-3.24782-.358-2.946-.77876-5.79334-2.13232,1.85314-4.32217,3.637Z"/><polygon class="cls-1" points="310.721 347.47 313.205 353.793 314.87 344.138 313.402 347.806 310.721 347.47"/><path class="cls-1" d="M306.55962,285.33848h-2.62047l6.0407,1.244Z"/><path class="cls-1" d="M318.48113,300.45365c-.57148,13.13846-.7734,26.19012-3.55883,38.48857.24715.48282.45987.89731.63131,1.23058l4.29862-24.92719L321.18,290.65593l-1.13045-.41114v11.03792S319.44817,300.96225,318.48113,300.45365Z"/><path class="cls-1" d="M283.2982,294.64348l6.47025,9.28294-5.17886-12.21686A28.30583,28.30583,0,0,0,283.2982,294.64348Z"/><path class="cls-1" d="M316.062,341.15825s-.1847-.3563-.50837-.98545l-.68369,3.96475Z"/><polygon class="cls-1" points="320.05 288.656 309.98 286.582 320.05 290.245 320.05 288.656"/><path class="cls-1" d="M287.33329,287.28673c-1.181.80879-2.34106,1.696-3.50429,2.62851l.76059,1.79432c1.38131-2.72724,3.77154-6.37108,6.68371-6.37108h12.66585l-6.48708-1.33586-9.39471,1.22551-.06288,1.60529Z"/><polygon class="cls-1" points="289.768 303.926 308.087 347.14 310.721 347.47 298.585 316.575 289.768 303.926"/><path class="cls-1" d="M284.58959,291.70956l5.17886,12.21686,8.81607,12.64864,12.13632,30.89451,2.68149.336,1.46759-3.668.68369-3.96475c-.17144-.33327-.38416-.74776-.63131-1.23058-.43617,1.92567-.92942,3.83466-1.504,5.72076-9.1594-16.79526-14.5486-37.07171-26.4076-51.36334,1.25405-1.32789,2.37257-2.80122,3.60278-4.16108,5.36916,2.245,8.87426-2.94673,13.00338-2.50214,4.7333.50241,8.47959,7.038,15.23244,6.60935-.14767,2.40283-.26368,4.8067-.36814,7.20788.967.5086,1.5684.82906,1.5684.82906V290.24479l-10.06968-3.66231-6.0407-1.244H291.2733C288.36113,285.33848,285.9709,288.98232,284.58959,291.70956Z"/><path class="cls-1" d="M205.07588,255.4318s.58035.2429,1.56259.6328c-1.33184-1.56572-1.61176-3.14858-.18165-4.60045,5.62465,3.90589,16.50468,2.94681,24.78347,4.40032.29953,1.83724-.63019,4.07927-1.22171,6.50974a8.98165,8.98165,0,0,0,2.04973-.23448,16.4594,16.4594,0,0,1,2.62188-5.88572l.09388-2.814-18.41143-2.00175-11.24632-3.4607c-2.28808-.46456-4.44018-.924-6.03414-1.27051v5.39516l5.07529,4.54144Z"/><polygon class="cls-1" points="204.167 256.644 199.092 252.102 203.734 257.221 204.167 256.644"/><polygon class="cls-1" points="207.535 261.413 208.233 261.727 207.086 260.918 207.535 261.413"/><path class="cls-1" d="M221.04276,267.49146,231.951,272.4003q-.21224-1.3358-.32039-2.64416Z"/><path class="cls-1" d="M199.09218,246.12085v.58616c1.594.34653,3.74606.80595,6.03414,1.27051Z"/><polygon class="cls-1" points="211.719 263.401 212.516 263.654 211.483 263.19 211.719 263.401"/><polygon class="cls-1" points="203.082 258.092 207.086 260.918 203.734 257.221 203.082 258.092"/><polygon class="cls-1" points="211.719 263.401 211.483 263.19 208.233 261.727 214.381 266.067 221.043 267.491 212.516 263.654 211.719 263.401"/><path class="cls-1" d="M212.51563,263.65434l13.826,4.39809,5.2799,1.5842a24.47373,24.47373,0,0,1,.44683-7.4969,8.98165,8.98165,0,0,1-2.04973.23448,13.46776,13.46776,0,0,0-.45272,3.32353c-5.238-.3221-18.9005-4.89909-22.92739-9.63314-.98224-.3899-1.56259-.6328-1.56259-.6328l-.90841,1.21181,7.31555,6.54595Z"/><polygon class="cls-1" points="204.167 256.644 203.734 257.221 207.086 260.918 208.233 261.727 211.483 263.19 204.167 256.644"/><path class="cls-1" d="M231.62148,269.63663l-5.2799-1.5842-13.826-4.39809,8.52713,3.83712,10.58788,2.26468C231.62722,269.71613,231.62468,269.67657,231.62148,269.63663Z"/><path class="cls-1" d="M304.61993,262.97818l.51873,1.49382c.01595.04582.03756.08643.05395.132l.35592-1.95682Z"/><path class="cls-1" d="M327.50053,286.7946q-3.91314-.41665-7.60687-1.03686-3.63173-.61146-7.04128-1.42907c.53922.99133,1.01645,1.67577,1.01645,1.67577l-6.21334-2.21939-.129.77735,1.37386.38789a114.02844,114.02844,0,0,0,19.7882,3.55167V286.9045C328.29472,286.86591,327.89118,286.83618,327.50053,286.7946Z"/><path class="cls-1" d="M342.39985,273.93607a35.36006,35.36006,0,0,1-.42119,7.78219,19.51283,19.51283,0,0,1-.72117,2.80219c-.13315.39445-.281.76617-.43856,1.12508a9.46159,9.46159,0,0,1-1.10071,1.95585l-.00008.00007v-.00007q-5.71-.16753-11.02957-.69688V288.502c3.52217.343,7.17629.58288,10.98293.69442l.81386.0234.49689-.64644c3.15969-4.10594,3.15812-11.65738,3.011-14.71349a83.09412,83.09412,0,0,0-1.96785-14.28828,5.9468,5.9468,0,0,0-1.84684-.68376A77.09456,77.09456,0,0,1,342.39985,273.93607Z"/><path class="cls-1" d="M312.85238,284.32867q3.40989.8172,7.04128,1.42907Q316.26194,285.14628,312.85238,284.32867Z"/><path class="cls-1" d="M327.50053,286.7946c.39065.04158.79419.07131,1.188.1099v-.00007C328.29479,286.86576,327.89118,286.83618,327.50053,286.7946Z"/><path class="cls-1" d="M328.68857,286.9045q5.3275.522,11.02957.69688v.00007l.00008-.00007q-5.71-.16753-11.02965-.697Z"/><path class="cls-1" d="M243.238,301.50623c-.14574-.42872-.3107-.88419-.48341-1.35113-1.70342-3.239-3.57761-6.89882-5.30069-10.74994l.74993,3.24961c.635,1.782,1.29578,3.495,1.915,5.08215.61447,1.57325,1.17835,3.01715,1.60983,4.28506.17755.52029.32478,1.04521.46806,1.55611a9.39647,9.39647,0,0,0,1.86443,4.03449q-.17826-2.2975-.36591-4.59308C243.55506,302.52022,243.41081,302.01177,243.238,301.50623Z"/><path class="cls-1" d="M266.48424,301.11149c-.44906.24491-1.039.538-1.73508.86161-1.14214.5311-2.577,1.14453-4.13679,1.76228-.81684.32352-1.66288.64822-2.53008.963-2.01866.73279-4.114,1.41172-6.00785,1.89587-.94693.24208-1.84349.4355-2.65489.56262-.40577.06355-.79009.11057-1.149.13866A6.14728,6.14728,0,0,1,246.46,307.222l-2.1378.64338a3.99965,3.99965,0,0,0,1.77569.909,6.14261,6.14261,0,0,0,1.38161.137c5.52808,0,17.07176-4.92993,19.768-6.40028a75.37188,75.37188,0,0,0,12.51408-9.21037c1.38452-1.17619,2.72813-2.31178,4.06742-3.38552l-.64315-1.51714C277.93031,292.56566,272.79355,297.67121,266.48424,301.11149Z"/><path class="cls-1" d="M286.45319,285.43743l1.60417-.2093.2166-5.53471c-.52931.2-1.07054.3703-1.61721.51977Q286.55348,282.82553,286.45319,285.43743Z"/><path class="cls-1" d="M236.47548,287.1465c.49921,1.89133,1.09677,3.73571,1.72838,5.50827l-.74993-3.24961C237.12036,288.6594,236.79528,287.9047,236.47548,287.1465Z"/><path class="cls-1" d="M286.43248,285.97054c-1.09513.7497-2.17259,1.57585-3.24663,2.42756l.64315,1.51714c1.16323-.93255,2.32325-1.81972,3.50429-2.62851l.66119-.45331.06288-1.60529-1.60417.2093Z"/><path class="cls-1" d="M296.88036,267.1441a6.14286,6.14286,0,0,1,1.64366.25869,5.72353,5.72353,0,0,1,2.25724,1.34771,6.71188,6.71188,0,0,1,1.08894,1.3723,8.733,8.733,0,0,1,1.19541,4.3501,9.10079,9.10079,0,0,1-.1587,1.84141,8.19338,8.19338,0,0,1-.53743,1.7473,7.06547,7.06547,0,0,1-.92607,1.55171c-1.68545,2.13012-4.71572,3.258-9.241,1.84327-.232-1.32134-.47194-2.41535-.69829-3.38731-.46524.29908-.946.58079-1.44584.83561.189.83361.38387,1.75051.57327,2.8273l.16824.9564.92681.28968a14.26812,14.26812,0,0,0,4.25935.71342,8.20171,8.20171,0,0,0,7.3715-4.06079,9.65284,9.65284,0,0,0,1.20644-3.86021v-2.55236a9.4488,9.4488,0,0,0-2.729-5.6669,7.55829,7.55829,0,0,0-5.8823-1.98617,2.39819,2.39819,0,0,1,.63616.50137A10.259,10.259,0,0,1,296.88036,267.1441Z"/><path class="cls-1" d="M313.52422,257.96882c4.70216-3.19522,10.12124-6.87654,15.16435-8.24713v-2.16857l-22.79484,13.19613-.3452,1.898.56128-.20013C307.85048,261.82553,310.60677,259.95171,313.52422,257.96882Z"/><path class="cls-1" d="M304.5639,275.77069v6.91007l3.09159,1.10429.10468-.63071a21.07935,21.07935,0,0,0,.0763-4.63555,14.29919,14.29919,0,0,1,.37232-5.50469l.16511-.47663.40965-.296a8.42835,8.42835,0,0,1,1.65416-.91593,12.75869,12.75869,0,0,0-1.49457.2695l-1.90727.47037-.06854-1.9642a9.67805,9.67805,0,0,0-1.08023-3.79747c-.24573-.5536-.48408-1.11353-.69449-1.69976l-.62871,3.45637v5.15793A10.86753,10.86753,0,0,1,304.5639,275.77069Z"/><path class="cls-1" d="M337.17621,250.38549c2.29173,1.335,3.82609,5.06874,4.84916,9.18608a2.50156,2.50156,0,0,1,1.08619,1.17768L339.124,248.78654l-7.97509-2.65772-2.46035,1.4243v2.16857C331.73522,248.89376,334.64493,248.90806,337.17621,250.38549Z"/><path class="cls-1" d="M306.96733,270.10126l.06854,1.9642,1.90727-.47037a12.75869,12.75869,0,0,1,1.49457-.2695,8.42835,8.42835,0,0,0-1.65416.91593l-.40965.296-.16511.47663a14.29919,14.29919,0,0,0-.37232,5.50469,21.07935,21.07935,0,0,1-.0763,4.63555l-.10468.63071,6.21334,2.21939s-.47723-.68444-1.01645-1.67577q-1.79022-.42883-3.51941-.91422a13.61867,13.61867,0,0,0,.15312-1.36634c.02876-.45316.03777-.90356.03427-1.3495-.00678-.89179-.06333-1.76563-.11035-2.60727-.04694-.84188-.08442-1.65164-.0532-2.41557a7.46634,7.46634,0,0,1,.359-2.14048,6.53536,6.53536,0,0,1,1.007-.59063,9.05888,9.05888,0,0,1,1.14013-.44668c2.397-.76721,5.44561-.8304,8.26434-1.14594a16.93251,16.93251,0,0,0-4.09886-1.35829,19.251,19.251,0,0,0-3.01633-.36114,16.11165,16.11165,0,0,0-4.45069.41359h-.00008c-.0877-2.53806-1.22619-4.11123-1.916-6.097.05663-.02019.11907-.04873.17711-.07093.28261-.10819.58124-.2394.89485-.39139q.28757-.13938.59189-.30169.47031-.25023.97733-.54913c5.06472-2.97751,12.72248-9.26185,19.402-11.24512v-1.66922c-5.04311,1.37059-10.46219,5.05191-15.16435,8.24713-2.91745,1.98289-5.67374,3.85671-7.41441,4.47826l-.56128.20013-.35592,1.95682c.21041.58623.44876,1.14616.69449,1.69976A9.67805,9.67805,0,0,1,306.96733,270.10126Z"/><path class="cls-1" d="M337.17621,250.38549c-2.53128-1.47743-5.441-1.49173-8.48764-.6638v1.66922c2.82782-.83956,5.481-.91362,7.68406.37232,1.63174.95043,2.87611,3.73347,3.8059,7.12458a5.9468,5.9468,0,0,1,1.84684.68376C341.0023,255.45423,339.46794,251.72046,337.17621,250.38549Z"/><path class="cls-1" d="M309.48609,282.04811a13.61867,13.61867,0,0,1-.15312,1.36634q1.7273.48728,3.51941.91422-1.79-.42906-3.51933-.91422A13.60084,13.60084,0,0,0,309.48609,282.04811Z"/><path class="cls-1" d="M306.82248,263.87824c-.058.0222-.12048.05074-.17711.07093.6898,1.9858,1.82829,3.559,1.916,6.097h.00008c-.0877-2.53806-1.22612-4.11123-1.916-6.097C306.70215,263.929,306.76444,263.90044,306.82248,263.87824Z"/><path class="cls-1" d="M310.72285,272.94466a6.53536,6.53536,0,0,0-1.007.59063,7.46634,7.46634,0,0,0-.359,2.14048,7.4691,7.4691,0,0,1,.35906-2.14048A6.53464,6.53464,0,0,1,310.72285,272.94466Z"/><path class="cls-1" d="M304.5639,273.21833v2.55236A10.86753,10.86753,0,0,0,304.5639,273.21833Z"/><path class="cls-1" d="M234.69019,256.254l-.57126,17.12183-.40622-.18284,1.51014,6.54393c-.00686-.11787-.02541-.23589-.03077-.35369l-.03115-.66976c-.39489-8.54054-.93538-20.23532,4.29825-24.77118a8.16043,8.16043,0,0,1,7.21421-1.63859,100.81917,100.81917,0,0,1,26.76883,9.78819c1.13946.6246,2.13943,1.27417,3.106,1.90347,2.67836,1.74141,4.99147,3.24454,9.36684,3.581l1.52653.11676-.18694,4.9315-.68615.45018a19.58341,19.58341,0,0,1-6.40267,2.35514,34.97356,34.97356,0,0,1,7.22979,2.66822l.92286.45949-.04448,1.13574a17.65663,17.65663,0,0,0,1.78433-.78853c-.11728-.51686-.23269-1.00884-.34185-1.46558a22.13525,22.13525,0,0,1-.78584-8.23207l.06855-.76014.63556-.42373a13.38666,13.38666,0,0,1,6.31787-2.45811c-2.68342-1.57019-9.7931-.35362-12.49284-1.75363q-7.78775-4.03743-15.576-8.07479a56.95753,56.95753,0,0,0-11.06094-4.14431l-17.855.50964A16.75713,16.75713,0,0,0,234.69019,256.254Z"/><path class="cls-1" d="M244.087,307.93617l.23522-.07078c-.09164-.08032-.17763-.16541-.261-.25281C244.06954,307.72039,244.07871,307.82821,244.087,307.93617Z"/><path class="cls-1" d="M238.96779,252.10217l17.855-.50964C250.33653,249.8833,243.18215,249.23642,238.96779,252.10217Z"/><path class="cls-1" d="M233.71271,273.193l-1.76168-.7927a65.33656,65.33656,0,0,0,4.52445,14.7462,37.76765,37.76765,0,0,1-1.25263-7.40957Z"/><path class="cls-1" d="M232.98647,270.0462l.72624,3.1468.40622.18284.57126-17.12183a16.4594,16.4594,0,0,0-2.62188,5.88572c.08464-.02108.17651-.03651.257-.06065Z"/><path class="cls-1" d="M232.98647,270.0462l-1.35583-.29006q.11008,1.3083.32039,2.64416l1.76168.7927Z"/><path class="cls-1" d="M231.62148,269.63663l1.365.40957-.66118-7.96712c-.08047.02414-.17234.03957-.257.06065A24.47373,24.47373,0,0,0,231.62148,269.63663Z"/><path class="cls-1" d="M231.63064,269.75614l1.35583.29006-1.365-.40957C231.62468,269.67657,231.62722,269.71613,231.63064,269.75614Z"/><path class="cls-1" d="M243.69529,303.0195q.18429,2.29617.36591,4.59308c.08337.0874.16936.17249.261.25281l2.1378-.64338C244.72961,306.82011,244.25715,305.01834,243.69529,303.0195Z"/><path class="cls-1" d="M235.22285,279.73693a37.76765,37.76765,0,0,0,1.25263,7.40957c.3198.7582.64488,1.5129.97845,2.25866Z"/><path class="cls-1" d="M288.99915,268.4471l-.06855.76014a22.13525,22.13525,0,0,0,.78584,8.23207c.10916.45674.22457.94872.34185,1.46558.4998-.25482.9806-.53653,1.44584-.83561-.73473-3.15506-1.32126-4.97694-.98441-8.719a11.37013,11.37013,0,0,1,6.09815-2.22408c.0909-.00059.17338.015.26249.01789a10.259,10.259,0,0,0-.29162-1.07747,2.39819,2.39819,0,0,0-.63616-.50137,13.38666,13.38666,0,0,0-6.31787,2.45811Z"/><path class="cls-1" d="M306.01734,346.95822v-.00007q-3.22915-.97345-6.47032-2.0922Q302.78536,345.98179,306.01734,346.95822Z"/><path class="cls-1" d="M293.07529,342.50723c-4.30742-1.65327-8.59329-3.45988-12.81271-5.37095C284.482,339.0475,288.76787,340.854,293.07529,342.50723Z"/><path class="cls-1" d="M264.22335,186.97338c-6.729-3.23986-11.53824-1.4714-12.41282-.30705-1.65647,2.21118,1.778,14.26748,1.778,14.26748l3.32323.666C256.24826,188.30328,264.22335,186.97338,264.22335,186.97338Z"/><path class="cls-1" d="M310.08066,300.95174a3.65561,3.65561,0,1,0-3.65658,3.6542A3.65757,3.65757,0,0,0,310.08066,300.95174Z"/><path class="cls-1" d="M310.07873,314.24227a3.65539,3.65539,0,1,0,3.6565,3.65658A3.65707,3.65707,0,0,0,310.07873,314.24227Z"/></svg>