<svg id="Layer_1" data-name="Layer 1" xmlns="http://www.w3.org/2000/svg" viewBox="0 0 758 887.95"><defs><style>.cls-1{fill:#fff;}</style></defs><path class="cls-1" d="M384.62,931c-13.55,0-27-3.81-41.76-11.42-39.42-20.34-80-50.48-120.56-89.58-38.72-37.33-76.07-81.88-108-128.85-32.79-48.24-60-99.22-78.55-147.44C15.35,500.81,5,451.59,5,407.37A350.19,350.19,0,0,1,34.89,265.3a362.56,362.56,0,0,1,81.37-115.82A378.81,378.81,0,0,1,236.7,71.59a394.42,394.42,0,0,1,294.6,0,378.71,378.71,0,0,1,120.45,77.94A362.48,362.48,0,0,1,733.11,265.3,350,350,0,0,1,763,407.37c0,45.25-9.16,94.35-27.22,145.93-17.3,49.42-41.83,98.57-72.91,146.1A714.23,714.23,0,0,1,556,827.9c-41.75,39.42-85.58,70.49-130.29,92.35C411,927.41,397.77,931,384.62,931ZM384,76.73c-190.38,0-345.26,148.33-345.26,330.64,0,77.91,37.71,178.08,103.47,274.82,62.9,92.5,143.67,170,216.12,207.4,19.36,10,32.61,10.07,52.5.35,169.63-83,318.43-308.46,318.43-482.58,0-182.3-154.88-330.63-345.26-330.63Z" transform="translate(-5 -43.05)"/><path class="cls-1" d="M699.65,416.43s-37.2,219.92-172,243.18S402,538.33,472.56,490.44,699.65,416.43,699.65,416.43Z" transform="translate(-5 -43.05)"/><path class="cls-1" d="M417.46,510a7,7,0,0,0-.08-.74v-2a25.4,25.4,0,0,1,.15-2.62,36.72,36.72,0,0,1,.87-5.1,45.45,45.45,0,0,1,3.57-9.58,61.68,61.68,0,0,1,12.1-16.14,94,94,0,0,1,15.84-12.25l2.12-1.31c.71-.44,1.44-.83,2.16-1.25l2.17-1.23,2.2-1.16c2.93-1.55,5.83-3.13,8.81-4.58q17.76-8.88,36.26-16.07c6.15-2.42,12.37-4.66,18.61-6.81s12.55-4.16,18.91-5.93c-6.32,1.91-12.56,4.06-18.77,6.32S510,434.15,504,436.7q-18.3,7.56-35.81,16.79c-2.93,1.51-5.79,3.14-8.67,4.74l-2.15,1.2-2.11,1.26c-.7.43-1.42.82-2.1,1.27L451,463.29a92.37,92.37,0,0,0-15.23,12.3,58.76,58.76,0,0,0-11.24,15.65,42.14,42.14,0,0,0-3.14,9,35.08,35.08,0,0,0-.7,4.67c-.06.78-.09,1.56-.08,2.33V509a1.15,1.15,0,0,0,.06.48Z" transform="translate(-5 -43.05)"/><path class="cls-1" d="M61.35,411.43s37.2,219.92,172,243.18,125.7-121.28,55.09-169.17S61.35,411.43,61.35,411.43Z" transform="translate(-5 -43.05)"/><path class="cls-1" d="M337.21,509.4a3.93,3.93,0,0,0,.06-.48v-1.71a20.26,20.26,0,0,0-.09-2.33,33.52,33.52,0,0,0-.7-4.67,42.14,42.14,0,0,0-3.14-9,58.58,58.58,0,0,0-11.14-15.62A92.08,92.08,0,0,0,307,463.29L305,462c-.69-.45-1.4-.84-2.1-1.27l-2.11-1.26-2.16-1.2c-2.88-1.6-5.74-3.23-8.67-4.74q-17.48-9.21-35.8-16.79c-6.09-2.55-12.25-4.92-18.44-7.2s-12.44-4.41-18.76-6.32c6.36,1.77,12.65,3.8,18.9,5.93s12.46,4.39,18.61,6.81Q272.9,443.1,290.68,452c3,1.45,5.89,3,8.82,4.58l2.19,1.16,2.17,1.23c.72.42,1.45.81,2.16,1.25l2.13,1.31A93.52,93.52,0,0,1,324,473.77a61.79,61.79,0,0,1,12.13,16.14,44.18,44.18,0,0,1,3.57,9.58,38.29,38.29,0,0,1,.88,5.1c.09.87.14,1.74.15,2.62v2a2.53,2.53,0,0,1-.08.74Z" transform="translate(-5 -43.05)"/></svg>