<?xml version="1.0" encoding="UTF-8"?>
<!DOCTYPE svg PUBLIC "-//W3C//DTD SVG 1.1//EN" "http://www.w3.org/Graphics/SVG/1.1/DTD/svg11.dtd">
<svg version="1.1" xmlns="http://www.w3.org/2000/svg" xmlns:xlink="http://www.w3.org/1999/xlink" x="0" y="0" width="500" height="500" viewBox="0, 0, 500, 500">
  <defs>
    <linearGradient id="Gradient_1" gradientUnits="userSpaceOnUse" x1="259.775" y1="79.905" x2="113.485" y2="74.355" gradientTransform="matrix(1, 0, 0, -1, 4.65, 299.7)">
      <stop offset="0" stop-color="#ED1C24"/>
      <stop offset="1" stop-color="#F7941D"/>
    </linearGradient>
    <linearGradient id="Gradient_2" gradientUnits="userSpaceOnUse" x1="261.44" y1="35.94" x2="115.16" y2="30.38" gradientTransform="matrix(1, 0, 0, -1, 4.65, 299.7)">
      <stop offset="0" stop-color="#ED1C24"/>
      <stop offset="1" stop-color="#F7941D"/>
    </linearGradient>
    <linearGradient id="Gradient_3" gradientUnits="userSpaceOnUse" x1="258.83" y1="104.693" x2="112.55" y2="99.133" gradientTransform="matrix(1, 0, 0, -1, 4.65, 299.7)">
      <stop offset="0" stop-color="#ED1C24"/>
      <stop offset="1" stop-color="#F7941D"/>
    </linearGradient>
    <linearGradient id="Gradient_4" gradientUnits="userSpaceOnUse" x1="414.443" y1="111.743" x2="237.903" y2="104.803" gradientTransform="matrix(1, 0, 0, -1, 4.65, 299.7)">
      <stop offset="0" stop-color="#ED1C24"/>
      <stop offset="1" stop-color="#F7941D"/>
    </linearGradient>
  </defs>
  <g id="Layer_1">
    <path d="M250,500 C111.929,500 0,388.071 0,250 C0,111.929 111.929,0 250,0 C388.071,0 500,111.929 500,250 C500,388.071 388.071,500 250,500 z" fill="#FFFFFF"/>
    <g>
      <path d="M72.29,369.147 C66.29,369.147 63.23,363.997 63.23,357.827 C63.23,351.657 66.28,346.497 72.29,346.497 C75.127,346.429 77.826,347.723 79.55,349.977 L82.55,347.397 C80.082,344.232 76.252,342.433 72.24,342.557 C63.53,342.557 58.77,349.777 58.77,357.747 C58.77,365.717 63.42,373.047 72.32,373.047 C76.336,373.164 80.162,371.34 82.6,368.147 L79.6,365.377 C77.937,367.765 75.2,369.177 72.29,369.147 z M101.85,342.557 C98.898,342.549 95.954,342.861 93.07,343.487 L93.07,371.917 C95.929,372.652 98.868,373.032 101.82,373.047 C110.72,373.047 115.68,365.747 115.68,357.587 C115.68,349.427 110.6,342.557 101.85,342.557 z M101.74,368.987 C100.173,368.997 98.615,368.747 97.13,368.247 L97.13,347.007 C98.643,346.668 100.189,346.497 101.74,346.497 C107.83,346.497 111.27,351.497 111.27,357.587 C111.27,363.917 108.06,368.987 101.74,368.987 z M127.47,367.667 C126.046,367.624 124.856,368.743 124.812,370.167 C124.769,371.591 125.888,372.781 127.312,372.825 C128.736,372.869 129.926,371.75 129.97,370.325 L129.97,370.197 C129.976,368.809 128.858,367.678 127.47,367.667 z M140.91,372.817 L144.97,372.817 L144.97,359.507 L158.52,359.507 L158.83,355.717 L144.97,355.717 L144.97,346.537 L159.65,346.537 L159.96,342.747 L140.91,342.747 L140.91,372.817 z M182.42,342.557 C173.48,342.557 168.83,349.817 168.83,357.747 C168.83,365.677 173.48,373.047 182.42,373.047 C191.17,373.047 195.93,365.707 195.93,357.747 C195.93,349.787 191.17,342.557 182.42,342.557 z M182.42,369.107 C176.42,369.107 173.32,363.957 173.32,357.787 C173.32,351.617 176.32,346.457 182.42,346.457 C188.52,346.457 191.52,351.577 191.52,357.787 C191.52,363.997 188.43,369.147 182.38,369.147 z M223.34,362.817 C223.34,365.987 220.73,369.027 216.47,369.027 C211.67,369.027 209.47,366.027 209.47,362.817 L209.47,342.747 L205.41,343.057 L205.41,363.147 C205.41,369.897 211.07,373.017 216.5,373.017 C221.62,373.017 227.44,369.747 227.44,363.147 L227.44,342.747 L223.37,343.057 z M257.79,367.857 C252.67,361.297 246.31,344.707 242.17,342.747 L238.17,342.747 L238.17,372.817 L242.23,372.817 L242.23,348.487 C247.03,355.907 252.73,370.977 257.85,372.817 L261.91,372.817 L261.91,342.747 L257.85,343.057 z M281.96,342.557 C279.008,342.548 276.064,342.86 273.18,343.487 L273.18,371.917 C276.036,372.652 278.971,373.031 281.92,373.047 C290.83,373.047 295.78,365.747 295.78,357.587 C295.78,349.427 290.71,342.557 281.96,342.557 z M281.84,368.987 C280.276,368.996 278.722,368.746 277.24,368.247 L277.24,347.007 C278.75,346.668 280.293,346.497 281.84,346.497 C287.94,346.497 291.37,351.497 291.37,357.587 C291.37,363.917 288.17,368.987 281.84,368.987 z M313.95,342.747 C309.26,351.887 304.49,362.747 303.09,372.817 L307.15,372.817 C307.568,370.06 308.169,367.334 308.95,364.657 L323.12,364.657 C323.901,367.334 324.502,370.06 324.92,372.817 L328.98,372.817 C327.57,362.817 322.81,351.887 318.12,342.747 z M310.16,360.867 C311.837,356.105 313.804,351.449 316.05,346.927 C318.274,351.456 320.23,356.11 321.91,360.867 z M334.84,346.187 L343.12,346.187 L343.12,372.817 L347.18,372.817 L347.18,346.187 L355.03,346.187 L355.34,342.747 L335.15,342.747 L334.84,346.187 z M366.08,372.817 L370.14,372.817 L370.14,342.747 L366.08,343.067 L366.08,372.817 z M394.35,342.557 C385.41,342.557 380.76,349.817 380.76,357.747 C380.76,365.677 385.41,373.047 394.35,373.047 C403.1,373.047 407.86,365.707 407.86,357.747 C407.86,349.787 403.1,342.557 394.35,342.557 z M394.35,369.107 C388.3,369.107 385.25,363.957 385.25,357.787 C385.25,351.617 388.25,346.457 394.35,346.457 C400.45,346.457 403.45,351.577 403.45,357.787 C403.45,363.997 400.37,369.147 394.31,369.147 z M437.15,343.057 L437.15,367.857 C432.04,361.297 425.67,344.707 421.53,342.747 L417.53,342.747 L417.53,372.817 L421.55,372.817 L421.55,348.487 C426.36,355.907 432.06,370.977 437.17,372.817 L441.23,372.817 L441.23,342.747 z" fill="#48494A"/>
      <path d="M192.72,266.337 C194.14,266.147 195.52,265.897 196.87,265.577 C198.22,265.257 199.53,264.887 200.87,264.457 C208.59,261.837 215.28,257.047 221.68,250.387 L221.6,250.287 C213.05,259.147 204.04,264.787 192.72,266.337 z" fill="#C49A6C"/>
      <path d="M232.55,236.997 C229.208,241.704 225.549,246.177 221.6,250.387 C215.2,257.047 208.51,261.837 200.79,264.457 C199.477,264.899 198.142,265.273 196.79,265.577 C195.4,265.887 194.06,266.147 192.64,266.337 C192.17,266.407 191.7,266.467 191.22,266.517 L190.45,266.587 C189.84,266.637 189.23,266.687 188.61,266.717 L186.02,266.717 C183.409,266.708 180.807,266.413 178.26,265.837 C176.319,265.409 174.411,264.844 172.55,264.147 C171.246,263.671 169.971,263.12 168.73,262.497 C167.47,261.847 166.23,261.217 165.01,260.497 C159.396,257.145 154.491,252.729 150.57,247.497 C149.7,246.327 148.88,245.107 148.11,243.857 C147.73,243.227 147.37,242.597 147.02,241.947 C146.316,240.647 145.679,239.312 145.11,237.947 C140.95,228.12 140.95,217.025 145.11,207.197 C145.679,205.833 146.316,204.498 147.02,203.197 C147.37,202.547 147.73,201.917 148.11,201.287 C148.88,200.037 149.7,198.817 150.57,197.647 C154.495,192.419 159.399,188.003 165.01,184.647 C166.23,183.927 167.47,183.257 168.73,182.647 Q170.601,181.802 172.55,181.147 C174.449,180.424 176.397,179.84 178.38,179.397 C180.927,178.821 183.529,178.526 186.14,178.517 L188.78,178.517 C189.39,178.517 190,178.597 190.6,178.647 L191.48,178.737 L192.34,178.837 C193.86,179.037 195.34,179.307 196.79,179.647 C197.51,179.817 198.22,180.007 198.92,180.207 C202.425,181.236 205.785,182.704 208.92,184.577 C210.18,185.327 211.41,186.137 212.63,187.017 C215.135,188.84 217.501,190.846 219.71,193.017 Q221.43,194.697 223.14,196.557 L223.21,196.447 C226.54,200.194 229.658,204.123 232.55,208.217 C237.14,200.977 244.08,190.097 246.55,186.487 C247.55,185.037 248.55,183.567 249.64,182.087 C238.21,168.147 224.46,156.567 206.09,151.627 L205.96,151.627 C205.07,151.387 204.18,151.167 203.27,150.957 L202.89,150.867 C202.01,150.677 201.12,150.497 200.23,150.337 L199.7,150.237 C198.7,150.057 197.61,149.897 196.54,149.757 L196.42,149.757 C195.84,149.677 195.26,149.617 194.67,149.557 L194.34,149.557 L192.76,149.417 L192.28,149.417 L190.8,149.317 L190.23,149.317 L188.73,149.257 L186.1,149.257 C146.89,149.047 112.55,183.427 112.55,222.627 C112.55,261.827 146.93,296.217 186.14,296.217 L188.79,296.217 L190.25,296.157 L190.87,296.157 L192.28,296.077 L192.85,296.077 L194.29,295.947 L194.77,295.947 L196.3,295.767 L196.65,295.717 L198.31,295.487 L198.49,295.487 C199.49,295.327 200.49,295.147 201.49,294.957 L202.04,294.837 C202.85,294.667 203.65,294.487 204.45,294.297 L204.94,294.177 C205.79,293.957 206.64,293.737 207.48,293.487 L207.68,293.427 C225.18,288.297 238.43,277.057 249.51,263.647 C248.316,261.86 247.179,260.036 246.1,258.177 z" fill="url(#Gradient_1)"/>
      <path d="M188.55,266.727 L188.74,266.727 C189.36,266.727 189.97,266.647 190.58,266.597 C189.97,266.647 189.36,266.697 188.73,266.727 z" fill="url(#Gradient_2)"/>
      <path d="M223.14,196.487 L223.07,196.597 L223.14,196.487 z" fill="url(#Gradient_3)"/>
      <path d="M377.67,84.947 L377.67,164.857 C365.056,154.768 349.422,149.202 333.27,149.047 L330.64,149.047 L329.14,149.107 L328.55,149.147 L327.07,149.247 L326.59,149.247 L325.01,149.387 L324.68,149.387 C324.09,149.447 323.51,149.507 322.93,149.587 L322.8,149.587 C321.74,149.717 320.69,149.887 319.65,150.067 L319.12,150.167 C318.22,150.327 317.34,150.507 316.46,150.697 L316.08,150.787 C290.46,156.577 273.59,175.107 259.67,195.377 C259.08,196.237 258.53,197.107 257.95,197.967 C256.05,200.857 253.34,205.077 250.66,209.277 C247.14,214.787 243.66,220.277 242.27,222.497 L259.68,249.627 C259.68,249.627 278.25,283.787 311.75,293.087 L311.95,293.147 C312.79,293.397 313.64,293.617 314.49,293.837 L314.98,293.957 C315.77,294.157 316.58,294.327 317.39,294.497 L317.94,294.617 C318.94,294.807 319.94,294.987 320.94,295.147 L321.12,295.147 L322.78,295.377 L323.13,295.427 L324.66,295.607 L325.14,295.607 L326.58,295.737 L327.15,295.737 L328.56,295.817 L329.18,295.817 L330.64,295.877 L333.29,295.877 C379.47,295.877 406.19,269.737 406.86,224.067 L406.86,84.947 z M333.27,266.787 L330.68,266.787 C330.06,266.787 329.45,266.707 328.84,266.657 L328.07,266.587 C327.59,266.537 327.12,266.477 326.65,266.407 C323.899,266.04 321.192,265.396 318.57,264.487 C316.648,263.828 314.776,263.029 312.97,262.097 C311.142,261.154 309.379,260.092 307.69,258.917 C306.84,258.327 305.99,257.707 305.15,257.047 C302.551,254.995 300.101,252.759 297.82,250.357 L297.74,250.457 C296.68,249.357 295.64,248.187 294.59,246.987 C294.46,246.847 294.34,246.687 294.21,246.537 C293.68,245.927 293.15,245.317 292.62,244.667 C292.09,244.017 291.67,243.487 291.2,242.897 C290.73,242.307 290.45,241.967 290.07,241.477 C288.37,239.287 286.68,236.967 284.96,234.477 C284.37,233.637 283.78,232.767 283.18,231.897 C282.86,231.417 282.53,230.897 282.18,230.437 C281.61,229.577 281.03,228.737 280.45,227.857 L280.15,227.397 C279.15,225.867 278.15,224.287 277.07,222.667 Q279.56,218.777 281.98,215.187 C283.59,212.797 285.18,210.497 286.76,208.317 C288.34,206.137 289.9,204.057 291.48,202.087 C293.06,200.117 294.62,198.267 296.21,196.527 Q297.92,194.667 299.64,192.987 C300.8,191.857 301.96,190.797 303.15,189.797 C304.34,188.797 305.52,187.867 306.74,186.987 C308.815,185.518 311.001,184.214 313.28,183.087 C313.56,182.947 313.84,182.777 314.13,182.637 L314.32,182.537 C315.51,181.987 316.72,181.537 317.95,181.077 L318.36,180.907 C318.59,180.837 318.83,180.787 319.06,180.707 C319.98,180.407 320.93,180.137 321.88,179.907 L323.04,179.617 C324.35,179.337 325.68,179.087 327.04,178.907 L327.9,178.807 L328.78,178.717 C329.38,178.717 329.99,178.617 330.6,178.587 L333.24,178.587 C334.53,178.591 335.818,178.665 337.1,178.807 C339.075,179.043 341.031,179.424 342.95,179.947 C344.25,180.307 345.55,180.727 346.83,181.217 C348.13,181.703 349.405,182.253 350.65,182.867 C351.91,183.477 353.15,184.147 354.37,184.867 C355.59,185.587 356.79,186.387 357.95,187.217 C359.11,188.047 360.25,188.947 361.35,189.897 C364.125,192.279 366.627,194.963 368.81,197.897 C369.68,199.067 370.5,200.287 371.27,201.537 C373.191,204.685 374.7,208.066 375.76,211.597 C376.174,213.031 376.508,214.487 376.76,215.957 C377.163,218.212 377.364,220.497 377.36,222.787 C377.42,253.147 363.8,266.787 333.27,266.787 z" fill="url(#Gradient_4)"/>
    </g>
  </g>
</svg>
