<svg xmlns="http://www.w3.org/2000/svg" role="img" viewBox="-9.20 -11.20 1050.40 353.40"><defs><style>.cls-1{fill:none}</style></defs><path d="M472.249 167.997a36.005 36.005 0 0 0-1.846-9.052 13.93 13.93 0 0 0-4.087-6.24 10.04 10.04 0 0 0-6.547-2.11q-6.77 0-10.811 6.856-4.044 6.855-4.395 21.708l28.213-.351q0-5.274-.527-10.81z" class="cls-1"/><path d="M335.491 115.351q2.472.353 6.227 1.144a33.976 33.976 0 0 1 6.402 1.935q3.708 1.584 4.68 3.694a12.62 12.62 0 0 1 .972 5.278v70.455q0 15.306-6.038 22.87-6.037 7.563-16.612 7.563a12.589 12.589 0 0 1-5.377-1.23 6.54 6.54 0 0 1-3.437-2.989v-1.142a60.516 60.516 0 0 0 8.92-8.832 16.137 16.137 0 0 0 3.912-10.416 14.971 14.971 0 0 0-4.527-11.074q-4.528-4.483-12.173-4.483-8.087 0-12.7 5.362-4.614 5.362-4.614 13.535 0 13.8 10.063 21.709 10.063 7.91 26.5 7.91a58.036 58.036 0 0 0 17.841-2.682 48.502 48.502 0 0 0 15.117-7.96 37.974 37.974 0 0 0 10.503-13.28 39.515 39.515 0 0 0 3.824-17.416v-68.78a14.719 14.719 0 0 1 1.01-5.63q1.01-2.46 4.615-3.43 3.075-.79 5.537-1.23 2.46-.441 5.976-.88v-6.856h-66.62zM488.42 218.843a25.631 25.631 0 0 1-14.853 4.525q-15.118 0-22.06-9.404-6.944-9.403-6.944-27.422h59.415v-5.713a44.624 44.624 0 0 0-2.286-14.281 29.977 29.977 0 0 0-7.295-11.822 35.794 35.794 0 0 0-13.095-8.261q-7.91-2.987-20.215-2.989a51.523 51.523 0 0 0-20.347 3.867 44.832 44.832 0 0 0-15.073 10.108 46.212 46.212 0 0 0-12.656 31.816 54.314 54.314 0 0 0 3.032 18.414 39.73 39.73 0 0 0 9.185 14.72 44.011 44.011 0 0 0 15.6 9.932q9.447 3.692 22.456 3.692a50.694 50.694 0 0 0 13.843-1.713 54.162 54.162 0 0 0 11.91-5.055 45.08 45.08 0 0 0 9.887-7.602 53.505 53.505 0 0 0 7.427-9.449l-6.68-4.834a42.382 42.382 0 0 1-11.25 11.471zm-39.462-61.392q4.041-6.856 10.81-6.856a10.04 10.04 0 0 1 6.548 2.11 13.93 13.93 0 0 1 4.087 6.24 36.005 36.005 0 0 1 1.846 9.052q.527 5.537.527 10.81l-28.213.352q.35-14.85 4.395-21.708zm173.672 67.236a6.813 6.813 0 0 1-3.604-3.076 11.67 11.67 0 0 1-.966-5.186v-43.066q0-13.447-7.164-21.577-7.164-8.128-21.489-8.13a41.111 41.111 0 0 0-11.25 1.494 31.588 31.588 0 0 0-8.525 3.604 57.512 57.512 0 0 0-6.504 5.01q-3.517 3.077-5.977 5.273h-.351v-12.744l-1.319-1.319-41.923 2.286v6.416a28.23 28.23 0 0 1 5.317.966 14.542 14.542 0 0 1 3.999 1.758 12.593 12.593 0 0 1 3.691 4.307 11.291 11.291 0 0 1 1.407 5.361v51.152a11.396 11.396 0 0 1-1.055 5.273 6.452 6.452 0 0 1-3.867 2.989 21.463 21.463 0 0 1-3.823.836q-2.242.307-4.439.482v6.416h53.438v-6.416a27.278 27.278 0 0 1-4.131-.879 16.718 16.718 0 0 1-3.516-1.406 6.13 6.13 0 0 1-2.9-3.12 13.149 13.149 0 0 1-.88-5.142v-47.197q1.057-1.403 2.6-3.251a20.238 20.238 0 0 1 4.099-3.604 24.507 24.507 0 0 1 5.948-3.076 19.9 19.9 0 0 1 6.566-1.055q6.433 0 9.738 4.527 3.305 4.527 3.306 13.49v41.133a14.452 14.452 0 0 1-.791 5.45 5.589 5.589 0 0 1-2.637 2.812 11.08 11.08 0 0 1-3.604.879q-2.373.263-4.043.44v6.415h52.823v-6.416a25.287 25.287 0 0 1-4.702-.879 29.986 29.986 0 0 1-3.472-1.23zm114.278-5.182q-7.983-11.86-15.266-22.488-7.282-10.63-15.88-23.104 4.383-3.879 7.756-6.478 3.373-2.6 6.971-4.974a79.42 79.42 0 0 1 10.047-5.757 92.154 92.154 0 0 1 13.383-4.614v-6.065H699.27v6.24a41.543 41.543 0 0 1 8.352 1.846q2.774 1.055 2.775 2.637a14.74 14.74 0 0 1-.307 1.89q-.31 1.536-3.208 4.524-4.918 5.01-13.037 12.656-8.12 7.646-14.615 13.445V98.564l-1.32-1.406-43.767 2.285v6.416a43.472 43.472 0 0 1 6.064.879 15.788 15.788 0 0 1 5.01 1.758 9.794 9.794 0 0 1 3.735 4.702 15.91 15.91 0 0 1 1.275 6.02v97.998a11.746 11.746 0 0 1-1.018 5.273 6.301 6.301 0 0 1-3.85 2.989 24.22 24.22 0 0 1-3.893.836q-2.212.307-4.423.482v6.416h54.58v-6.416a26.308 26.308 0 0 1-4.219-.703 22.48 22.48 0 0 1-3.691-1.23 5.86 5.86 0 0 1-3.56-2.989 12.543 12.543 0 0 1-.923-5.185v-19.16l5.177-4.38q5.62 7.978 11.944 17.315 6.322 9.336 13.962 22.748h41.427v-6.416a33.13 33.13 0 0 1-8.076-1.758 13.301 13.301 0 0 1-6.757-5.533zm63.085 5.006a7.98 7.98 0 0 1-3.78-3.207 9.83 9.83 0 0 1-1.317-5.23v-69.785l-1.319-1.319-43.066 2.286v6.416a31.293 31.293 0 0 1 5.844 1.23 18.703 18.703 0 0 1 4.79 2.022 11.66 11.66 0 0 1 3.516 3.735 10.263 10.263 0 0 1 1.406 5.405v51.152a10.418 10.418 0 0 1-1.142 5.23 7.288 7.288 0 0 1-3.955 3.032 15.58 15.58 0 0 1-3.78.879q-2.198.263-4.482.44v6.415h55.547v-6.416a26.406 26.406 0 0 1-4.395-.879 29.342 29.342 0 0 1-3.867-1.406zm-21.885-95.097a17.436 17.436 0 0 0 12.173-4.702 14.864 14.864 0 0 0 5.142-11.382 15.062 15.062 0 0 0-5.098-11.426 18.153 18.153 0 0 0-24.477 0 15.217 15.217 0 0 0 0 22.808 17.545 17.545 0 0 0 12.26 4.702zm146.075 95.273a6.813 6.813 0 0 1-3.604-3.076 11.67 11.67 0 0 1-.967-5.186v-43.066q0-13.447-7.163-21.577-7.164-8.128-21.489-8.13a41.111 41.111 0 0 0-11.25 1.494 31.588 31.588 0 0 0-8.525 3.604 57.514 57.514 0 0 0-6.504 5.01q-3.517 3.077-5.977 5.273h-.351v-12.744l-1.319-1.319-41.924 2.286v6.416a28.23 28.23 0 0 1 5.318.966 14.542 14.542 0 0 1 3.999 1.758 12.593 12.593 0 0 1 3.691 4.307 11.29 11.29 0 0 1 1.406 5.361v51.152a11.396 11.396 0 0 1-1.054 5.273 6.452 6.452 0 0 1-3.867 2.989 21.463 21.463 0 0 1-3.824.836q-2.24.307-4.438.482v6.416h53.437v-6.416a27.279 27.279 0 0 1-4.13-.879 16.718 16.718 0 0 1-3.516-1.406 6.13 6.13 0 0 1-2.9-3.12 13.148 13.148 0 0 1-.88-5.142v-47.197q1.057-1.403 2.6-3.251a20.237 20.237 0 0 1 4.099-3.604 24.508 24.508 0 0 1 5.948-3.076 19.9 19.9 0 0 1 6.565-1.055q6.434 0 9.739 4.527 3.304 4.527 3.305 13.49v41.133a14.451 14.451 0 0 1-.79 5.45 5.589 5.589 0 0 1-2.637 2.812 11.08 11.08 0 0 1-3.604.879q-2.373.263-4.043.44v6.415h52.822v-6.416a25.287 25.287 0 0 1-4.702-.879 29.984 29.984 0 0 1-3.471-1.23zm90.54-36.517q-7.285-6.988-22.99-11.032a75.614 75.614 0 0 1-15.837-5.625q-5.66-2.985-5.659-9.668a9.126 9.126 0 0 1 3.867-7.822q3.866-2.812 10.635-2.812 8.612 0 16.084 6.635a36.343 36.343 0 0 1 10.547 15.776h6.152l-1.406-29.97h-6.68l-1.845 5.186a74.396 74.396 0 0 0-11.294-3.56 62.629 62.629 0 0 0-14.722-1.626q-16.875 0-27.29 7.647t-10.415 20.038a24.816 24.816 0 0 0 8.701 19.775 35 35 0 0 0 8.833 5.67 96.494 96.494 0 0 0 10.24 3.559q5.975 1.76 10.063 2.988a44.885 44.885 0 0 1 7.515 2.989 15.051 15.051 0 0 1 4.834 3.955 9.251 9.251 0 0 1 1.758 5.8q0 6.507-3.912 9.625-3.91 3.12-11.909 3.12a24.594 24.594 0 0 1-11.382-2.725 39.73 39.73 0 0 1-9.448-6.68 49.131 49.131 0 0 1-7.031-8.92 43.535 43.535 0 0 1-4.395-8.922h-6.416l1.143 32.784h6.855l2.637-5.977a54.444 54.444 0 0 0 12.612 5.318 56.239 56.239 0 0 0 16.656 2.504q18.193 0 29.487-7.91 11.293-7.91 11.294-22.324 0-10.81-7.282-17.797z"/><path d="M208.902 226.398c-5.017 2.144-11.31 3.512-15.438 6.109.379 2.222.966 5.698 1.545 9.248.2 1.221.397 2.448.585 3.637.247 1.557.475 3.04.666 4.347.333 2.273.554 4.007.554 4.613 0 0 23.425 1.255 25.517 1.255a39.749 39.749 0 0 0 3.954-16.47c-1.1-4.408-2.41-8.812-3.776-10.875a11.31 11.31 0 0 0-4.092-3.578 6.96 6.96 0 0 0-3.815-.841 5.036 5.036 0 0 0-2.24.78 23.748 23.748 0 0 1-3.46 1.775zm10.545 25.037c-5.93.128-13.302.01-18.94-.463 3.335-3.582 15.094-1.329 18.94.463zm-1.828-8.736a116.483 116.483 0 0 1-14.829 1.077 36.166 36.166 0 0 1-1.999-.105c.826-1.262 2.427-1.964 4.358-2.291 3.992-.678 9.416.265 12.47 1.319zm-2.856-10.132a14.254 14.254 0 0 0-2.635.822c-3.387 1.395-6.332 3.84-9.488 5.266a10.82 10.82 0 0 1-5.217 1.096 14.074 14.074 0 0 1 1.132-1.384q.422-.458.88-.877a17.875 17.875 0 0 1 7.837-3.964 32.322 32.322 0 0 1 5.413-.845c.68-.052 1.369-.094 2.078-.114zm-60.021 39.348q-.098-1.978-.173-3.914a108.1 108.1 0 0 1-53.19 1.9q.368 2.038.758 4.06a305.51 305.51 0 0 0 9.642 37.484 101.402 101.402 0 0 0 26.56 4.159 75.948 75.948 0 0 0 20.408-8.125 246.896 246.896 0 0 1-4.005-35.564zm35.28-21.95a67.74 67.74 0 0 0-.505-3.522 35.873 35.873 0 0 0-3.812-11.752c-2.084-.478-4.511-.018-6.503.02.558 5.561 1.59 11.466 2.502 17.402q.255 1.66.49 3.321c.145 1.018.279 2.032.407 3.046 1.42-.617 3.163-1.352 4.787-1.973 1.142-.437 2.223-.817 3.089-1.06-.019-.364-.043-.731-.067-1.099a82.815 82.815 0 0 0-.388-4.383zm-31.694-57.523c-2.929-1.255-5.02 3.765-5.02 3.765 0 2.844 8.456 19.575 10.997 24.54 1.753-7.741 1.88-15.957 2.24-24.226-1.883-.99-6.003-3.13-8.217-4.08zm-1.673 4.392a2.301 2.301 0 1 1 2.3 2.3 2.302 2.302 0 0 1-2.3-2.3zm4.601 12.967a2.3 2.3 0 1 1 2.302-2.3 2.3 2.3 0 0 1-2.302 2.3z" class="cls-1"/><path d="M59.13 72.35q-.003.971.021 1.94c.08 2.972.341 5.89.555 8.473a15.938 15.938 0 0 1 1.5-.826 15.509 15.509 0 0 1 7.284-1.58c7.576.221 14.432 5.892 14.342 13.593 4.77-.127 1.782-5.958.919-9.714a32.597 32.597 0 0 1-.4-10.64c.334-3.293.94-6.597 1.427-9.857.235-1.58.44-3.149.572-4.701a37.753 37.753 0 0 0 .145-4.133 25.672 25.672 0 0 0-.26-3.139c-.048-.32-.105-.637-.166-.954a19.32 19.32 0 0 0-.975-3.392 30.318 30.318 0 0 0-20.687 9.76 16.466 16.466 0 0 0-3.68 8.154 33.367 33.367 0 0 0-.509 4.178 48.62 48.62 0 0 0-.088 2.838zm123.471 186.13c.045.354.092.709.134 1.062.184 1.532.35 3.058.474 4.57 3.134.098 4.808-1.38 7.386-1.877a102.2 102.2 0 0 0-.118-6.788c-.866.243-1.947.623-3.089 1.06a120.864 120.864 0 0 0-4.787 1.973zm-26.514-91.605c-.833.2-1.673.402-2.516.593q-.633.143-1.267.275a43.89 43.89 0 0 1-2.532.456 24.302 24.302 0 0 1-3.743.287 13.358 13.358 0 0 1-5.38-1.075c-.018.36-.486.229-.563.521 4.66 3.642 8.121 4.395 14.464 4.081 2.86-2.075 5.396-4.502 8.374-6.446a33.402 33.402 0 0 0-4.02.657c-.924.2-1.865.423-2.817.651zm-54.62-141.53c1.322-.638 3.275-.594 3.35-2.578-.573-.612-1.175-1.08-1.862-.885-12.513 3.547-28.55 12.64-33.691 23.88 2.811-.409 5.02-1.522 7.456-2.233a14.61 14.61 0 0 1 3.217-.602c1.484-.097 3.43.622 5.135.198 3.4-.843 6.269-8.466 8.834-11.302 2.088-2.314 4.522-3.529 6.468-5.335a11.317 11.317 0 0 0 1.093-1.143zm56.861 167.097c2.214.948 6.334 3.088 8.217 4.079.066-1.512.139-3.025.232-4.537-4.25.27-6.609-3.844-9.588-4.16-2.6-.28-4.806 2.987-8.185 1.574-.774.856-1.479 1.784-2.268 2.62 7.465 8.995 10.857 21.758 16.622 32.33a51.01 51.01 0 0 0 .947-3.601c-2.541-4.965-10.997-21.696-10.997-24.54 0 0 2.091-5.02 5.02-3.765zm-2.508-9.039a4.447 4.447 0 0 0 .584-.977 5.157 5.157 0 0 0 .338-1.1 5.728 5.728 0 0 0 .1-1.159 5.497 5.497 0 0 0-.753-2.738 4.225 4.225 0 0 0-.685-.864 3.603 3.603 0 0 0-1.42-.848 3.866 3.866 0 0 0-1.035-.163c-.057-.002-.108-.011-.166-.011a7.157 7.157 0 0 0-3.838 1.4 14.398 14.398 0 0 0 .62 5.488c.142.612.293 1.3.439 2.132 2.848.89 4.756.18 5.817-1.16zm-17.48 132.201a81.832 81.832 0 0 1-10.55 1.915l33.422-1.194.202-3.048a86.888 86.888 0 0 1-23.074 2.327zm95.706-155.578a113.71 113.71 0 0 1-15.944 58.317 13.726 13.726 0 0 1 3.6 1.004A117.731 117.731 0 0 0 204.32 78.64c-.97-.992-1.963-1.96-2.967-2.917q.127 2.25.176 4.527a113.255 113.255 0 0 1 32.517 79.777zM15.558 176.137l-.002-.006-.005-.044q-.384-2.747-.638-5.535l-1.866-16.173 2.315-9.03a112.883 112.883 0 0 1 36.424-69.718l.566-.65a75.367 75.367 0 0 1 .02-3.966q-4.292 3.608-8.221 7.624a117.55 117.55 0 0 0 0 163.608q3.235 3.31 6.731 6.343-.186-2.684-.406-5.36a112.89 112.89 0 0 1-34.918-67.093z"/><path d="M201.55 85.627a110.925 110.925 0 0 1 12.907 132.557 19.533 19.533 0 0 1 3.645.16A114.322 114.322 0 0 0 201.53 80.248q.061 2.678.021 5.378zM36.055 93.721l15.731-18.09a112.883 112.883 0 0 0-36.424 69.718l6.052-23.6zM49.028 237.48a109.538 109.538 0 0 1-30.103-61.469 117.51 117.51 0 0 0-.021 11.832l-3.346-11.706a112.89 112.89 0 0 0 34.918 67.093q-.197-2.37-.436-4.74c-.338-.336-.679-.67-1.012-1.01zm-33.477-61.393l-.638-5.535q.253 2.788.638 5.535z"/><path d="M15.556 176.131l.002.006-.007-.05zm-.194-30.781l-2.315 9.029 1.866 16.173a116.251 116.251 0 0 1-.484-10.526 115.908 115.908 0 0 1 .933-14.677zm36.99-70.37l-.566.65c.19-.17.377-.345.568-.515z"/><path d="M18.925 176.011a112.389 112.389 0 0 1-1.086-15.566 109.855 109.855 0 0 1 31.189-77.04q1.896-1.94 3.887-3.777a19.645 19.645 0 0 1-.54-3.378c-.012-.382-.013-.756-.02-1.135-.192.17-.379.345-.569.516L36.055 93.72l-14.641 28.03-6.052 23.6a115.908 115.908 0 0 0-.933 14.676c0 3.55.169 7.06.484 10.526l.638 5.535.007.05 3.346 11.707a117.51 117.51 0 0 1 .021-11.833zm44.067-82.88a5.722 5.722 0 0 1 1.094-.765 3.992 3.992 0 0 0-1.094.765zm128.589-17.003q2.789 2.336 5.416 4.861c-.086-1.78-.16-3.554-.245-5.3a110.77 110.77 0 0 0-8.726-7.096c1.166 2.53 2.306 5.083 3.555 7.535zM87.952 45.673l4.228-6.759a30.23 30.23 0 0 0-4.228 6.76zm31.354-26.407q-.99.494-2.02 1.026l6.296-2.698a26.76 26.76 0 0 0-4.276 1.672zM89.091 62.291l-.147.05c-.045.237-.09.474-.137.712.089-.246.188-.507.284-.762zm94.391 7.679a8.081 8.081 0 0 0-4.237 6.178c-.635 6.075 7.53 1.255 8.784.837l-.294-1.963a27.58 27.58 0 0 1-.824-2.586q-1.691-1.265-3.43-2.466zm-56.528 6.178c0 5.561 9.424 5.464 12.883 3.292-1.708-3.168-3.387-7.003-3.611-10.24l-.068-.162s-9.204 1.255-9.204 7.11zm-18.197-11.591c.51 1.405.561 2.543 1.446.935a2.39 2.39 0 0 1-1.446-.935zm65.485 95.489a6.516 6.516 0 0 1 3.534-.727l-1.64-1.219a10.021 10.021 0 0 0-1.894 1.946zm-62.61 8.408c-5.21-.915-12.06-.31-15.6-2.77-.9.915-.724 1.91.115 2.896 2.735 1.086 10.53 4.022 14.716 3.972.372-1.53.958-2.941.77-4.098z"/><path d="M110.578 174.644a8.477 8.477 0 0 1 .285-2.092c-4.187.05-11.981-2.886-14.716-3.972 2.534 2.98 11.134 5.861 14.431 6.064zm18.477-122.993a105.735 105.735 0 0 0-4.82-.116c-1.036 0-2.067.019-3.096.049a34.917 34.917 0 0 0-5.48 1.975 6.382 6.382 0 0 0-3.08 3.303l1.314 2.19c3.573-4.742 8.766-7.913 16.833-6.034a4.702 4.702 0 0 0-1.671-1.367zm1.671 1.367a4.457 4.457 0 0 0 .529-1.241 66.81 66.81 0 0 0-.773-.05c.179.78.244 1.29.244 1.29z"/><path d="M110.361 65.158a32.918 32.918 0 0 1 3.532-6.106l-1.314-2.19c-1.332 2.854-1.491 6.541-2.218 8.296zm-.158.334l.003-.006-.003.006zm-1.446-.935a6.627 6.627 0 0 0-.42-.936 2.692 2.692 0 0 0 .42.936zm20.845-16.717a7.009 7.009 0 0 0-.76-.517c.091.166.18.331.264.498.165.008.331.012.496.02z"/><path d="M130.482 51.727c.258.015.515.032.773.05a3.767 3.767 0 0 0-1.653-3.936c-.165-.008-.33-.012-.496-.02a17.69 17.69 0 0 1 1.376 3.906zm-1.427-.076c-2.093-1.061-5.042-.818-7.916-.067 1.029-.03 2.06-.05 3.097-.05 1.615 0 3.22.044 4.819.117zm-16.476 5.211a6.382 6.382 0 0 1 3.08-3.303 34.917 34.917 0 0 1 5.48-1.975q-3.907.115-7.74.51a23.055 23.055 0 0 0-2.381 2.836l.334-.112zm16.476-5.211a4.702 4.702 0 0 1 1.671 1.367s-.065-.51-.244-1.291q-.713-.043-1.427-.076z"/><path d="M108.757 64.557a2.39 2.39 0 0 0 1.446.935l.003-.006c.05-.11.105-.218.155-.328.727-1.755.886-5.442 2.218-8.296l-1.227-2.044-.334.112a15.243 15.243 0 0 0-1.893 3.48c-.502 1.375-1.182 3.598-.787 5.211a6.627 6.627 0 0 1 .419.936z"/><path d="M110.361 65.158c-.05.11-.105.218-.155.328a3.361 3.361 0 0 0 .155-.328zm18.745-17.337a13.458 13.458 0 0 0-.265-.498 7.9 7.9 0 0 0-2.731-.984 11.774 11.774 0 0 0-7.026 1.494c1.708-.081 3.425-.127 5.153-.127 1.632 0 3.254.043 4.87.115z"/><path d="M129.055 51.651q.715.033 1.427.076a17.69 17.69 0 0 0-1.376-3.906 109.038 109.038 0 0 0-4.869-.115c-1.728 0-3.445.046-5.153.126a22.79 22.79 0 0 0-5.685 4.261q3.83-.396 7.74-.509c2.874-.75 5.823-.994 7.916.067zm58.68 23.371c.652 1.764 1.41 3.428 2.055 5.197-2.743 1.728-8.086.652-11.18 2.004-.221 9.106 14.09 4.619 16.267-.453a49.903 49.903 0 0 1-3.296-5.642q-2.048-1.716-4.179-3.326zm-.915-8.999l-.541-.021c-.027.454-.035.891-.035 1.32.598.419 1.193.84 1.781 1.271a173.25 173.25 0 0 0-1.205-2.57z"/><path d="M186.244 67.322c.001.49.021.963.054 1.423.291-.085.476-.127.476-.127l.628 4.184q2.13 1.611 4.179 3.326c-1.25-2.452-2.389-5.006-3.556-7.535-.588-.43-1.183-.852-1.78-1.271z"/><path d="M186.911 72.436c.235.898.517 1.754.824 2.586l-.333-2.22c-.163-.123-.327-.244-.49-.366z"/><path d="M186.774 68.618s-.185.042-.476.127a20.156 20.156 0 0 0 .613 3.69c.164.123.328.244.49.367zM139.837 79.44a68.48 68.48 0 0 0 2.21 3.785c-3.358 3.262-9.397.553-13.89.344-4.287 6.773 8.373 8.045 13.805 6.441 1.487-.438 4.064-2.668 4.416-3.668 1.509-4.24-1.534-6.099-3.1-7.624-3.474-3.387-4.27-8.095-6.715-12.577a7.635 7.635 0 0 0-.337 3.06l4.115 9.876a4.244 4.244 0 0 1-.504.363z"/><path d="M140.34 79.077l-4.114-9.876c.224 3.236 1.903 7.071 3.611 10.239a4.244 4.244 0 0 0 .504-.363zm13.196 42.255c13.403 1.325 22.524-4.389 30.703-9.643-.325-2.06 2.478-5.773 1.7-8.872-.27-1.065-2.696-2.611-4.17-4.223-6-6.543-14.22-16.32-17.487-23.966-.363-.843-.581-5.475-3.11-3.642-.305 11.29 8.087 20.637 14.343 28.178 3.056 3.68 6.74 5.784 3.348 11.503-5.47 2.08-14.322 8.034-21.927 6.733-2.603-.444-3.148-2.508-3.596-4.585a5.063 5.063 0 0 0-1.24 1.74c-.03.314-.044.497-.044.497a.956.956 0 0 1 .044-.496 54.64 54.64 0 0 1 .577-4.243 4.937 4.937 0 0 0-.315-.671 9.09 9.09 0 0 0 1.174 11.69z"/><path d="M152.056 115.052s.014-.183.044-.496a.956.956 0 0 0-.044.496zm1.284-2.237a16.38 16.38 0 0 0-.663-2.502 54.64 54.64 0 0 0-.577 4.243 5.063 5.063 0 0 1 1.24-1.74zM69.466 92.144a8.578 8.578 0 0 0-5.38.222 5.722 5.722 0 0 0-1.094.765 4.887 4.887 0 0 0-1.296 2.679c-.12.658-.25 1.303-.387 1.938 1.05-1.072 2.152-2.452 4.103-1.494-2.175 4.25-1.655 12.527 1.306 15.215-.017-5.042-.801-13.665 3.5-13.404 3.01.183 3.62 6.629 6.185 8.092 1.492-7.18-2.538-12.484-6.937-14.013z"/><path d="M62.992 93.131a8.394 8.394 0 0 0-2.541 5.368 5.479 5.479 0 0 0 .858-.75c.136-.636.267-1.28.387-1.94a4.887 4.887 0 0 1 1.296-2.678zm6.474-.987a6.728 6.728 0 0 0-5.38.222 8.578 8.578 0 0 1 5.38-.222zm99.614 40.352c11.174-.232 16.56-8.214 20.367-15.461-6.54 2.982-11.812 7.329-20.354 8.15-.414 1.409-.24 4.97-.012 7.31zm-2.725.435a33.912 33.912 0 0 0-.527-7.331c-9.686.284-22.783-.12-29.909-3.867 3.265 8.739 17.985 11.82 30.436 11.198zm-31.79-4.21c-6.295.008-.986 3.508.08 4.878 2.208 2.838 4.797 7.678 8.827 9.82 6.354 3.375 18.977 1.962 23.554.1a7.64 7.64 0 0 0 3.686-4.191c-14.283.341-31.22 1.766-36.147-10.607zm80.198 103.846c-.709.02-1.398.062-2.078.114q-.278.355-.557.708a14.254 14.254 0 0 1 2.635-.822z"/><path d="M202.64 238.655c3.156-1.426 6.101-3.87 9.488-5.266q.28-.353.557-.708a32.322 32.322 0 0 0-5.413.845q-2.235 2.64-4.632 5.129z"/><path d="M199.434 237.49q-.458.418-.879.877a14.074 14.074 0 0 0-1.132 1.384 10.82 10.82 0 0 0 5.217-1.096q2.39-2.493 4.632-5.129a17.875 17.875 0 0 0-7.838 3.964zm5.715 3.89c-.277.288-.55.582-.829.867-.504.516-1.016 1.023-1.53 1.529a116.483 116.483 0 0 0 14.829-1.077c-3.054-1.054-8.478-1.997-12.47-1.32z"/><path d="M205.149 241.38c-1.931.327-3.532 1.029-4.358 2.29.655.054 1.323.088 2 .106a122.53 122.53 0 0 0 1.53-1.529c.279-.285.551-.579.828-.867zm-4.642 9.592c5.638.473 13.01.591 18.94.463-3.846-1.792-15.605-4.045-18.94-.463zM57.931 59.414l2.754-3.717 1.43-4.648 2.44-.577 1.526-2.06-1.456.127 4.6-8.367 1.423-1.422 1.088-2.343 5.777-4.52 2.172-2.173 1.186-.456.486-.38 23.008-11.295 1.509 2.058 1-.385a62.738 62.738 0 0 1 7.91-.199 109.835 109.835 0 0 1 14.68-6.912c25.1-9.62 51.454 21.752 51.454 21.752l2.614 4.182a7.01 7.01 0 0 1 .315.001l.686 1.6 6.843 10.95 6.693 12.131.581 10.465q1.373 1.224 2.703 2.496c-.687-12.142-3.038-23.58-7.423-32.443-3.84-7.765-14.576-18.492-21.293-23.572-15.84-11.98-45.123-13.302-64.208-6.278-5.32 1.958-10.472 3.71-15.146 6.454-12.502 7.34-25.771 12.251-29.479 27.02-7.933 3.554-11.05 12.843-11.432 24.112q1.956-1.645 3.984-3.201z"/><path d="M174.66 286.651c-.2-.96-.409-1.913-.617-2.862-.312-1.424-.621-2.838-.893-4.245s-.505-2.807-.665-4.203c-1.735-.463-4.922 1.223-7.083 1.08-.277 6.609.65 17.207.96 24.14 4.394.005 6.278-.962 9.557-2.068q.035-.764.032-1.522a36.194 36.194 0 0 0-.139-3.005 62.1 62.1 0 0 0-1.152-7.315z" class="cls-1"/><path d="M234.081 244.148a115.305 115.305 0 0 0-6.318-18.66 11.9 11.9 0 0 0-6.06-6.14q-.925 1.594-1.893 3.158l3.652.476 8.367 24.682-1.044 3.227.331 5.971-6.693 10.04-7.53 1.673-12.55-.418-3.717-4.833-4.354.235-16.315 4.602-.826-6.488c-.268.152-.534.309-.803.459l.917 9.372-15.078 1.983 2.946 40.267-4.183 2.51-1.718.061-.08 1.198-31.792 2.51-19.243-4.183-8.66-35.144-2.51 2.929-41.832-14.224-1.386-2.376-1.543-.55-.044-2.59-1.2-13.571q-1.03-.855-2.04-1.734c.172 2.469.327 4.945.487 7.438.329 5.099-.213 10.497 1.11 13.313 1.366 2.909 6.422 3.842 10.076 5.537 10.556 4.882 21.752 12.333 35.596 10.855 3.3 11.094 6.42 22.91 10.38 32.626 14.195 5.105 36.601 4.308 51.358 2.533 4.486-.542 9.22-2.756 10.275-6.645a39.21 39.21 0 0 1-.517-7.604c4.615-.955 10.895-1.744 11.91-6.848 1.424-7.165-4.522-17.426-2.54-25.283 2.672-.868 5.524-1.544 5.097-5.76 4.503-2.343 9.84-2.87 15.54-2.649a12.173 12.173 0 0 0 2.718 3.565c7.983 1.604 15.716 1.736 22.344-.428 7.503-2.45 11.083-17.793 9.365-25.092zm-58.162 54.345c-3.28 1.106-5.163 2.073-9.557 2.068-.31-6.933-1.237-17.531-.96-24.14 2.161.143 5.348-1.543 7.083-1.08.16 1.396.393 2.796.665 4.203s.581 2.82.893 4.245c.208.95.418 1.903.617 2.862a62.1 62.1 0 0 1 1.153 7.315c.085.993.135 1.994.138 3.005q.002.758-.032 1.522zm-84.525-260.2l-6.272 7.317 1.255 5.02c-.134-3.623 1.677-7.892 5.017-12.337zm81.579-10.133l7.945 5.737a24.553 24.553 0 0 0-7.945-5.738zm-86.57 23.184l-.026-.714c-.139.017-.271.039-.409.057l.128.767.307-.11zm.757 39.66l-1.201 4.804 1.673-2.09-.472-2.714zm-.402-28.664l-.083.762.102-.034-.019-.728z"/><path d="M165.468 225.783c2.876-8.458 4.107-22.613 4.541-33.404a10.77 10.77 0 0 1 2.96-.905v-2.476a71.775 71.775 0 0 1-12.455-2.236l-.864-.244.08-.49-1.945-.694v-4.35a6.076 6.076 0 0 1-.76 2.43 5.162 5.162 0 0 1-4.64 2.556 8.98 8.98 0 0 1-2.68-.45l-.584-.182-.106-.602a36.277 36.277 0 0 0-.36-1.78 11.114 11.114 0 0 1-1.124.497l-.136 3.484 5.913-.771 4.084.84h1.649l2.153.783 6.338 1.306v1l.712.258-.836 15.478-2.706 15.69.32.62-.75 1.876-1.048 6.077-1.564-3.98-1.658-.207-11.53-27.2-4.073-5.844a17.818 17.818 0 0 1 .813-1.846l-.479-1.13c-.843.676-1.688 1.39-2.56 2.131a47.443 47.443 0 0 1-7.877 5.798c-1.697.925-8.963 4.028-12.442 4.028a3.866 3.866 0 0 1-.87-.086 2.517 2.517 0 0 1-1.118-.572l-.148.044-.016-.203a5.915 5.915 0 0 1-1.173-2.54 18.33 18.33 0 0 0-.295-.98 68.562 68.562 0 0 0-1.013-2.696c-.39-1-.806-2.078-1.206-3.2l1.736 7.522 3.765 4.602 9.622-3.347-6.694 12.969 36.394 17.15.233 2.716 3.329-.666 1.936-7.928c-.292.382-.572.776-.868 1.154zm-6.768.01q-2.033-.613-4.073-1.318-2.038-.702-4.074-1.484a148.953 148.953 0 0 1-8.064-3.381c-5.312-2.406-10.456-5.075-15.207-7.763 1.866-8.083 9.175-12.27 15.812-16.721a75.322 75.322 0 0 1 8.652 14.547q.926 1.962 1.806 3.967.442 1.001.875 2.01c.868 2.016 1.716 4.05 2.566 6.083q.85 2.033 1.707 4.06zM85.581 73.135l-.877 8.033 2.236 8.569-.981-5.641-.378-10.961zM43.72 198.605l-3.357-9.93-2.092-6.692 33.465-23.007 1.72-.689 5.81-3.912 1.163 1.123 1.765-.706 9.203 11.294v-3.396c-1.016-.22-1.673-.369-1.673-.369l-3.823-5.973-4.126-4.484-1.543-4.373-3.895-6.085-.418-6.135-1.673-4.742-1.674-4.602-10.04-3.345-1.325-2.178-2.44-.75-5.019-12.968-.806-6.05-.449-1.48.186-.49-.604-4.53 3.843-4.01.567-1.494a85.197 85.197 0 0 0-7.138 6.61 38.848 38.848 0 0 0 5.938 24.72 22.172 22.172 0 0 0 14.799 9.512 31.405 31.405 0 0 0 3.075 11.493c1.167 2.562 5.535 7.172 3.927 10.441-.808 1.65-7.92 5.23-10.277 6.644-7.961 4.776-13.731 7.703-21.082 12.995-4.755 3.422-12.192 3.862-11.02 11.759.792 5.329 3.824 11.932 5.559 17.276 1.878 5.765 4.569 11.045 6.113 17.028a142.379 142.379 0 0 1 3.66 21.38q.992.987 2.007 1.949l-.853-9.642zm132.792 42.517l-.224.154 1.31 13.404c.2-.119.397-.24.596-.36zm-21.967-7.685l.015-.35-8.367.351zM113.804 168.7a10.548 10.548 0 0 1 2.692-2.614l-14.222-.418 11.589 1.26z"/><path d="M194.722 118.817l-9.203 23.007-8.784 12.132-6.274 6.692-16.734 2.51-22.589 2.51-3.403.097a35.851 35.851 0 0 1 6.962 2.609l9.804 5.083c1.7.88 6.175.115 7.864 1.103a4.757 4.757 0 0 1 3.702 1.25 5.947 5.947 0 0 1 1.718 3.568v-3.247l.396-2.176c-.01-.028-.024-.054-.034-.083l-.327-.94.585-.208.217-1.195 14.348-8.306v-4.665l10.04-10.04 3.764 3.347 1.114 1.163 17.293 15.987-.16 1.908.578.602s-.37 1.496-.949 3.853l-.306 3.677-.504-.374c-2.454 10.014-6.608 27.098-6.608 27.983 0 1.255-9.62 25.517-9.62 25.517l12.843-6.27 11.3-3.532q1.397-2.064 2.702-4.195c-7.59.34-16.334 4.385-22.168 7.285 4.923-12.953 9.16-26.382 13.502-40.911 1.299-4.353 3.863-10.525 3.287-15.037-.536-4.24-7.152-8.698-10.635-12.058-1.934-1.864-10.953-8.713-11.477-11.277-.508-2.48 3.677-8.1 5.024-10.908a80.222 80.222 0 0 0 4.268-12.292 148.013 148.013 0 0 0 5.292-37.359q-1.039-1.125-2.105-2.223c-.08-.081-.163-.16-.243-.242l.54 9.719zm-40.173 53.196c-6.342.314-9.803-.439-14.463-4.08.077-.293.545-.163.562-.522a13.358 13.358 0 0 0 5.381 1.075 24.302 24.302 0 0 0 3.743-.287 43.89 43.89 0 0 0 2.532-.456q.634-.131 1.267-.275c.843-.191 1.683-.393 2.516-.593a129.04 129.04 0 0 1 2.817-.651 33.402 33.402 0 0 1 4.02-.657c-2.978 1.944-5.514 4.37-8.374 6.446zm21.482 60.789l-.92.049.036.176.333-.009.551-.216zm-.551.216l.32 3.277.267 1.335-.587-4.612zm-78.562 16.059l-.501-13.55v10.04l.501 3.51zM86.777 63.068l-.102.034-.518 4.751.633-4.22-.013-.565zM53.402 84.686c-.252 1.262-1.964 2.879-2.307 3.7a25.607 25.607 0 0 0-1.748 6.855 85.197 85.197 0 0 1 7.138-6.61l.61-1.607-1.184-10.06q-1.52 1.305-2.996 2.664a13.197 13.197 0 0 1 .487 5.058zm162.429 137.301l3.979.52q.972-1.562 1.893-3.16a13.726 13.726 0 0 0-3.6-1.004 112.756 112.756 0 0 1-2.272 3.644zM198.897 77.672q1.336 1.267 2.632 2.577-.052-2.276-.176-4.527-1.333-1.268-2.703-2.496zm-20.972 180.346l.403 4.114c.27-.15.535-.307.803-.46l-.516-4.048c-.229.133-.46.262-.69.394zM86.403 51.344l-.307.11.396 2.376q-.041-1.183-.089-2.486zM52.452 245.02q-.999-.882-1.976-1.79.222 2.677.406 5.36 1.01.879 2.04 1.734zm-.1-170.04l.436-.501.491-.165q1.092-.947 2.208-1.864l.87-4.636q-2.029 1.555-3.985 3.2a75.367 75.367 0 0 0-.02 3.966z"/><path d="M177.599 254.68l.326 3.338c.23-.132.461-.26.69-.394l-.421-3.304c-.199.12-.396.241-.595.36zm21.846-171.276q1.07 1.095 2.105 2.223.04-2.699-.02-5.378-1.295-1.312-2.633-2.577l.305 5.49c.08.082.163.16.243.242zm15.012 134.78q-1.304 2.131-2.702 4.195l2.086-.652 1.99.26a111.51 111.51 0 0 0 2.271-3.644 19.533 19.533 0 0 0-3.645-.16zM50.04 238.49q.241 2.371.436 4.74.977.907 1.976 1.79l-.405-4.581q-1.016-.961-2.007-1.949zm5.381-165.689l.066-.351q-1.116.917-2.208 1.864l2.232-.75zm-2.141 1.513l-.492.165-.436.501.002.135c.306-.27.617-.534.925-.801z"/><path d="M52.376 76.25a19.645 19.645 0 0 0 .539 3.378q1.472-1.362 2.996-2.664l-.4-3.4-2.232.75c-.308.267-.62.53-.925.801.008.379.009.753.022 1.135zM171.46 27.478a59.64 59.64 0 0 1 10.168 10.747 16.51 16.51 0 0 1 1.903-.146l-2.613-4.182-7.945-5.738a34.87 34.87 0 0 0-1.513-.681zm2.254 22.812a7.356 7.356 0 0 0 .11 1.69c6.161-5.647 16.688-.061 19.8 6.182 1.78 3.569 2.486 8.168 2.866 13.183q1.092.926 2.16 1.88l-.58-10.464-6.694-12.131-6.843-10.949 3.078 7.184c-4.398-4.4-10.923.643-13.897 3.425zM59.657 86.137q-1.63 1.218-3.172 2.495l-.567 1.494 3.864-4.032zm-7.164 13.018l.449 1.48-.263-1.97-.186.49zm33.087-26.02l.38 10.96.98 5.642.274 1.052-.054.215.472 2.714-1.673 2.09-5.02.837-1.929-4.242.255 3.824s-.412-.248-1.104-.626c.374 1.286.678 2.605.935 3.89 3.473.186 8.49-.147 10.133-2.857-.235-6.614-3.306-11.917-3.096-17.992a44.113 44.113 0 0 1 .705-6.191c-.414.128-.817.266-1.226.399zm96.708 67.996c-2.89 4.154-5.317 8.692-9.383 11.552-9.8 6.881-24.693 13.118-37.446 8.842-16.853-5.657-24.51-16.886-33.78-29.744.252 7.063 5.22 12.86 10.125 18.263 4.27 4.71 9.422 10.031 14.964 12.226-4.625-1.086-11.722-1.427-13.648 2.723a106.34 106.34 0 0 1-10.652-1.114c.215.177.421.361.642.536.962.76-3.806-.09-7.915-.925l7.079 2.178 14.222.418c2.653-1.804 7.156-1.396 11.239-.32l3.403-.098 22.59-2.51 16.733-2.51 6.274-6.692 8.784-12.132 9.203-23.007 5.02-25.936-.54-9.719q-1.086-1.103-2.205-2.173l.042.864c1.11 21.52-3.937 43.723-14.751 59.278zM64.851 84.339l6.425.494-3.305-1.574-3.12 1.08zm16.924 67.525l4.126 4.484-5.669-8.857 1.543 4.373zm-7.604-65.652l3.182 2.546-.598-1.315-2.584-1.231z"/><path d="M57.095 87.024l-.61 1.608q1.545-1.275 3.172-2.495zm29.7-17.151l.019-.09c.032-.278.085-1.422-.024-6.15l-.633 4.22-.545 4.997c.409-.133.812-.27 1.226-.4.565-3.176 1.352-6.293 1.969-9.397a51.781 51.781 0 0 0-1.993 6.73c-.01.088-.019.09-.019.09zm109.957 5.815q1.086.977 2.145 1.984l-.247-4.446q-1.068-.954-2.16-1.881c.108 1.42.19 2.87.262 4.343z"/><path d="M196.997 80.99q1.116 1.071 2.205 2.172l-.305-5.49q-1.06-1.006-2.145-1.984c.085 1.747.159 3.521.245 5.301zM52.921 250.324l1.201 13.572-.216-12.761c-.33-.268-.657-.54-.985-.811zm45.146 22.733c.287 2.043.579 4.103.876 6.205-15.774-.818-26.46-8.053-37.894-13.83a22.799 22.799 0 0 1-1.026 3.143l-4.314-1.54 1.386 2.376 41.832 14.224 2.51-2.93-1.188-7.146a98.66 98.66 0 0 1-2.182-.502zm-46.874-42.26l.854 9.642q.844.798 1.705 1.577l-.004-.213zm-12.922-48.814l35.185-23.696-1.72.689-33.465 23.007zm5.45 16.622l-.848-3.653-4.602-12.969 2.092 6.693 3.358 9.929zm51.719 3.345l.562.685a1.07 1.07 0 0 0-.562-.685z"/><path d="M97.129 254.775l-.21-5.698-.502-3.51v-10.04l39.198-2.087 10.578-.001 8.367-.351.003-.07 6.275-2.51-36.394-17.151 6.694-12.969-9.622 3.347-3.765-4.602-1.736-7.521a43.21 43.21 0 0 1-1.088-3.467 41.125 41.125 0 0 1-2.847-9.282l-6.867-3.09-4.193-.897-3.87-2.732-.439-.197-.282-.312-2.52-1.779.41-.548-2.922-3.222-3.112 1.39a16.19 16.19 0 0 0 1.65 1.765c6.236 4.429 13.981 7.926 21.226 11.38a83.627 83.627 0 0 0 3.27 13.394c1.99 6.364 3.63 15.347 12.04 10.76-.799 3.634-5.47 5.891-4.182 10.129.808 2.66 9.635 5.944 12.435 7.522 5.165 2.912 9.876 4.522 13.842 6.224a474.658 474.658 0 0 0-47.547 3.7v1.505h-6.694s-.836-17.57-.836-19.661c0-2.092.836-9.622.836-9.622l1.115-2.622c-2.375-.845-2.82 3.969-2.904 5.03-.446 5.647 2.686 17.601-.402 24.358-3.38-.955-5.045-3.5-8.214-4.652-1.243 3.913 2.574 4.101 2.183 6.586-.505 3.197-6.395.704-6.682 5.066l16.159-.718v6.693l-1.138-.178c.71 7.21 1.61 14.303 2.61 21.625.66.178 1.323.347 1.987.512zm-16.7-99.277l10.968 10.588-9.203-11.294-1.765.706zm17.066 113.485c.187 1.345.379 2.708.572 4.074a110 110 0 0 0 2.182.502l-.674-4.06a106.78 106.78 0 0 1-2.08-.516zm-43.672-22.777c-.46-.393-.918-.785-1.371-1.185l.47 5.303c.327.271.654.543.984.811z"/><path d="M97.053 265.76c.146 1.072.291 2.14.442 3.223.691.177 1.383.352 2.08.515l-.536-3.226a103.21 103.21 0 0 1-1.986-.512zm-43.301-23.744q-.861-.78-1.706-1.577l.406 4.582c.453.4.912.792 1.37 1.185zm50.613-224.433L81.357 28.878l-.487.38 25.004-9.617-1.509-2.058zm-12.971 20.71a67.048 67.048 0 0 1 14.724-13.75l-.498.152a74.285 74.285 0 0 0-5.246 1.793c-1.946 1.806-4.38 3.021-6.468 5.335-2.565 2.836-5.434 10.459-8.834 11.302-1.706.424-3.65-.295-5.135-.198a14.61 14.61 0 0 0-3.217.602 23.033 23.033 0 0 0-2.474 4.173l-8.165.71-1.526 2.06 20.567-4.862zM60.685 55.697l-2.754 3.717-1.575 8.4c.258-.198.52-.39.78-.586zm11.051-19.29l-1.088 2.343 6.865-6.864-5.777 4.521zm14.36 15.047l-.128-.767c-.302.04-.604.08-.9.125.062.317.12.635.167.954.286-.107.575-.207.861-.312zM59.657 86.137l.125-.043.182-.19c-.104.076-.204.156-.307.233zm5.194-1.798l3.12-1.08 3.305 1.574 1.296.1 1.6 1.279 2.583 1.23.598 1.316 1.494 1.195.163 2.45 1.93 4.242 5.02-.837 1.2-4.803-.22-1.268-2.236-8.569.877-8.033-.01-.272c-.743.242-1.493.478-2.22.734a32.597 32.597 0 0 0 .4 10.64c.863 3.755 3.85 9.586-.92 9.713.09-7.7-6.765-13.372-14.34-13.593q-3.163 1.802-6.062 3.795zM86.758 62.34c-.028-1.1-.064-2.361-.109-3.807-.433.167-.868.332-1.299.505a75.455 75.455 0 0 1-.572 4.701l1.897-.637z"/><path d="M59.964 85.904l1.732-1.808.733.056q2.9-1.991 6.061-3.795a15.509 15.509 0 0 0-7.284 1.58c.25 1.355.49 2.159.49 2.159l-4.6 2.928 2.561-.887c.103-.077.203-.157.307-.233zm25.576-13.94l.617-4.11.518-4.752-1.897.637c-.486 3.26-1.093 6.564-1.427 9.858.727-.256 1.477-.492 2.22-.734zm-28.404-4.736c-.26.196-.522.388-.78.586l-.869 4.636.057-.047zM86.492 53.83l-.396-2.376c-.286.105-.575.205-.861.312a25.672 25.672 0 0 1 .26 3.139c.34-.132.679-.268 1.021-.396l-.024-.68zM55.544 72.403l-.057.047-.066.351z"/><path d="M86.516 54.509c-.342.128-.68.264-1.02.396a37.753 37.753 0 0 1-.146 4.133c.43-.173.866-.338 1.299-.505-.038-1.208-.082-2.545-.133-4.024zm.424 35.228l.22 1.267.054-.215-.274-1.052zm-1.369-16.874l.01.272.03-.285zm.586-5.01l-.617 4.111.031.899.04-.013zM70.648 38.75l-1.422 1.422-4.601 8.367 1.456-.127.217-.292 4.35-9.37zm44.136-19.693a62.738 62.738 0 0 0-7.91.199l-1 .385 2.47 3.367a101.894 101.894 0 0 1 6.44-3.95zM79.685 29.715l-2.172 2.171 3.357-2.628-1.185.457z"/><path d="M76.72 43.53c-2.436.71-4.645 1.823-7.456 2.232 5.142-11.24 21.178-20.333 33.691-23.88.687-.194 1.29.273 1.862.885-.075 1.984-2.028 1.94-3.35 2.578a11.317 11.317 0 0 1-1.093 1.143 74.289 74.289 0 0 1 5.246-1.793l.498-.151a94.703 94.703 0 0 1 2.225-1.536l-2.47-3.367-25.003 9.617-3.357 2.628-6.865 6.864-4.35 9.37-.217.292 8.165-.71a23.033 23.033 0 0 1 2.474-4.173zm-14.605 7.519l-1.43 4.648 3.87-5.225-2.44.577zm23.007-5.439l.846 5.077c.138-.018.27-.04.409-.057z"/><path d="M59.727 65.334a16.466 16.466 0 0 1 3.68-8.155 30.318 30.318 0 0 1 20.687-9.76 19.32 19.32 0 0 1 .975 3.393c.295-.044.597-.085.9-.125l-.847-5.077-20.567 4.862-3.87 5.225-3.549 11.531q1.282-.965 2.591-1.894zm1.969 18.762s-.24-.804-.49-2.159a15.938 15.938 0 0 0-1.5.826c-.214-2.583-.474-5.5-.555-8.474q-1.646 1.305-3.24 2.675l1.184 10.06z"/><path d="M59.727 65.334q-1.308.93-2.59 1.894l-1.593 5.175q1.806-1.484 3.674-2.891a33.367 33.367 0 0 1 .51-4.178z"/><path d="M59.218 69.512q-1.868 1.406-3.674 2.891l-.123.398.09.764 3.619-1.215c.003-.95.03-1.898.088-2.838z"/><path d="M59.13 72.35l-3.619 1.215.4 3.399q1.595-1.369 3.24-2.675-.026-.967-.021-1.94zm17.207 69.056l3.895 6.085-4.313-12.22.418 6.135zm9.563 14.942l3.824 5.973s.657.148 1.673.37v-.37z"/><path d="M95.195 163.49c4.11.834 8.877 1.685 7.915.925-.22-.175-.427-.359-.642-.536-6.424-1.095-11.91-3.211-15.263-8.016-4.021-5.764-8.106-15.562-9.939-23.134a26.38 26.38 0 0 1-.858-5.718c.602-3.285 6.453-4.727 4.152-9.319L75.082 123l.837 12.27 4.313 12.221 5.669 8.857 5.496 5.973zm-42.253-62.855l.806 6.051 5.02 12.968 2.439.75-4.531-7.444-3.734-12.325zm-.867-6.498l.604 4.528 3.239-8.539-3.843 4.011zm25.278-5.379l1.657 3.645-.163-2.45-1.494-1.195zm-6.077-3.925l2.895 1.379-1.599-1.279-1.296-.1zm-11.312 1.071l-.182.19 5.07-1.755-2.423-.187a84.476 84.476 0 0 0-2.465 1.752z"/><path d="M61.696 84.096l-1.732 1.808a84.527 84.527 0 0 1 2.465-1.752zm54.7-63.422l.89-.382q1.027-.531 2.02-1.026a26.76 26.76 0 0 1 4.276-1.672l8.81-3.776 25.936 3.765 14.645 10.576a24.553 24.553 0 0 1 7.945 5.738s-26.355-31.372-51.454-21.752a109.835 109.835 0 0 0-14.68 6.912c1.985.151 3.162.587 1.612 1.617zm-5.275 2.26c-.69.24-1.442.492-2.275.76l.12.164zM86.377 50.63l.026.714c.533-.193 1.065-.39 1.601-.574l-.052-5.096a30.23 30.23 0 0 1 4.228-6.76l2.133-3.41-1.661 1.321-1.258 1.468c-3.34 4.445-5.151 8.714-5.017 12.337zm.503 12.404l.731-4.875c-.139.052-.276.108-.414.16l-.439 4.021.019.728z"/><path d="M86.79 63.632l.09-.598-.104.034.014.564zm-.19-9.154c.477-.177.958-.346 1.437-.517l-.033-3.191c-.536.185-1.068.38-1.6.574l.088 2.486z"/><path d="M87.197 58.32c.138-.053.275-.11.414-.161l.44-2.927-.014-1.271c-.48.171-.96.34-1.436.517l.613 3.682zm7.116-22.815l-2.133 3.41c6.343-7.837 16.567-14.203 25.106-18.623l-.89.382a26.455 26.455 0 0 1-5.275 2.26l-2.155.924zm-6.361 10.169l.052 5.096c.448-.155.9-.3 1.351-.449a22.092 22.092 0 0 0-1.403-4.647zm80.14-20.456a28.37 28.37 0 0 1 3.368 2.26c.524.22 1.025.448 1.513.681l-14.645-10.576-25.935-3.765-8.81 3.776c13.756-4.116 32.792 1.013 44.509 7.624z"/><path d="M86.88 63.034l2.064-.693a48.238 48.238 0 0 0 .7-4.917c-.68.24-1.36.482-2.033.735z"/><path d="M86.79 63.632c.11 4.729.056 5.873.024 6.15a51.781 51.781 0 0 1 1.993-6.73c.047-.237.092-.474.137-.711l-2.064.693zm.024 6.151l-.019.09s.008-.002.019-.09zm2.904-16.408a23.573 23.573 0 0 0-.363-3.054c-.45.15-.903.294-1.35.449l.032 3.19q.838-.298 1.681-.585z"/><path d="M88.05 55.232l-.439 2.927a104.09 104.09 0 0 1 2.033-.735 29.246 29.246 0 0 0 .074-4.05q-.844.286-1.68.587zm6.263-19.727l1.267-2.026 13.386-9.621-.12-.164c-.831.268-1.744.552-2.728.85a67.048 67.048 0 0 0-14.724 13.75l1.258-1.469zm-7.664 23.028c.045 1.446.08 2.707.11 3.807l.438-4.02c-.183.07-.365.142-.548.213zm-.157-4.703l.024.679.085-.03z"/><path d="M87.214 58.16l-.613-3.682-.085.03c.051 1.48.095 2.817.133 4.025.183-.07.365-.144.548-.213zm8.366-24.681l-1.267 2.026 14.653-11.647-13.386 9.621zm13.266-9.785c.833-.268 1.585-.52 2.275-.76l5.275-2.26c1.55-1.03.373-1.466-1.612-1.617a101.894 101.894 0 0 0-6.44 3.951z"/><path d="M111.121 22.934a26.455 26.455 0 0 0 5.275-2.26zm-2.778.074a94.703 94.703 0 0 0-2.225 1.536c.984-.298 1.897-.582 2.728-.85zm75.504 15.072s-.114-.004-.316 0l1.002 1.601z"/><path d="M186.308 44.339c-6.647-1.973-12.381.905-12.594 5.95 2.974-2.78 9.499-7.824 13.897-3.424l-3.078-7.184-1.002-1.602a16.51 16.51 0 0 0-1.903.146c1.609 2.067 3.156 4.148 4.68 6.114zM54.122 263.896l.044 2.588 1.543.551-1.543-2.644-.044-.495zm19.334-105.609l6.973-2.789-1.164-1.123-5.809 3.912zm-23.473 58.835l-6.262-18.517 7.472 32.192-1.21-13.675z"/><path d="M61.05 265.431a117.78 117.78 0 0 0-3.214-1.572q-.14-4.988-.445-10.01-1.768-1.325-3.485-2.714l.216 12.76.044.496 1.543 2.644 4.314 1.54a22.799 22.799 0 0 0 1.026-3.144zm-19.573-82.632c11.633-8.98 24.65-18.473 38.573-23.964.813-.32 5.577 5.563 8.235 8.642l3.112-1.39-10.968-10.589-6.973 2.79-35.185 23.695 4.602 12.969.848 3.653 6.262 18.517 1.21 13.675 2.555 11.006.004.213c.96.871 1.933 1.73 2.925 2.564-2.024-21.82-6.634-43.4-15.2-61.781z"/><path d="M53.823 246.206l.083 4.929q1.715 1.391 3.485 2.713-.15-2.493-.345-4.987-1.637-1.297-3.223-2.655z"/><path d="M56.677 244.58a107.92 107.92 0 0 1-2.925-2.564l.07 4.19q1.587 1.358 3.224 2.655c-.11-1.428-.237-2.854-.369-4.28zm36.813-30.386c0 2.092.835 19.661.835 19.661h6.694v-1.505c-1.357.174-2.716.344-4.069.528-1.994-3.091-1.19-7.856-1.4-12.78-.203-4.73 1.511-14.71.452-17.463l-.562-.685-1.115 2.622s-.836 7.53-.836 9.622zm2.09 23.426l-16.16.718c-.007.121-.028.227-.027.359 4.054.649 10.269-1.26 14.601.566q.209 2.45.448 4.872l1.138.178zm79.567-4.593l.653 3.268-.32-3.277-.333.009zm-11.317 35.862c.274-.105.547-.212.82-.32q-.146-1.984-.281-3.964c-.275.11-.553.214-.829.322z"/><path d="M164.369 264.605q-.11-1.594-.21-3.186c-.284.118-.565.24-.85.355l.231 3.153c.276-.108.554-.212.829-.322zm23.242-32.424s9.621-24.262 9.621-25.517c0-.885 4.154-17.97 6.608-27.983l-1.508-1.12c-.347 1.93-.825 3.956-1.074 5.197-2.056 10.162-6.676 23.586-11.078 34.234-1.6 3.87-3.13 8.709-5.243 9.545-5.781 2.289-12.8-.223-17.712 2.836 6.605-11.46 13.794-22.283 20.267-33.88-.986-2.3-3.403-3.28-4.106-5.841 3.106-5.864 3.112-20.154-.894-26.83l-4.716-3.503a6.516 6.516 0 0 0-3.534.727 10.021 10.021 0 0 1 1.894-1.945l-1.074-.798 7.948-8.785-10.04 10.04v4.665l1.548-.897 5.02 1.673 2.51 7.53a1.575 1.575 0 0 0-.683-.741 52.301 52.301 0 0 1 1.238 8.993c.093 1.924.094 6.677-1.895 9.262l-.313.406-.512-.014c-2.396-.07-4.696-.221-6.913-.437v2.476c4.716-.72 8.626 2.206 10.675 5.495-5.534 9.477-10.851 19.185-17.31 27.66l-1.935 7.928 10.243-2.049.468 2.343.92-.05 4.762-1.87zm-.837-80.316l-3.764-3.347 4.878 4.511-1.114-1.164zm18.825 19.66l-.577-.602-.372 4.455.949-3.853zm-37.158 61.683l6.706-.181-.036-.176-6.67.357zm-7.37.015l.016.184 3.126-.084.187-.766-3.329.666zm14.996 4.407l-.267-1.335.488 4.981.224-.154z"/><path d="M174.643 230.508l-10.243 2.049-.187.766 4.228-.115 6.67-.357-.468-2.343z"/><path d="M164.185 233.436l4.256-.228-4.228.115-.028.113zm40.159-54.381l.306-3.677-.81 3.303zm.837-10.04l-17.293-15.986 17.134 17.894.159-1.908z"/><path d="M176.136 158.1c1.952-1.621 4.546-3.229 5.971-5.333 4.893 3.94 7.847 7.65 12.539 11.863 2.546 2.282 7.552 5.018 8.058 8.707a16.081 16.081 0 0 1-.372 4.224l1.508 1.12.81-3.303.372-4.455-17.134-17.894-4.878-4.511-7.948 8.785z"/><path d="M177.776 159.319l4.716 3.503c-1.201-2.002-2.768-3.306-4.716-3.503zM138.34 315.604a101.402 101.402 0 0 1-26.56-4.16 305.51 305.51 0 0 1-9.644-37.484q-.86-.174-1.715-.362l1.016 7.108 8.66 35.144 19.243 4.183 31.792-2.51.08-1.198-33.421 1.194a81.832 81.832 0 0 0 10.549-1.915zm7.853-82.165l-49.776 2.088.501 13.55 2.47 17.282q.71.174 1.426.34c-1.522-8.896-2.762-18.092-3.825-27.862 16.49-3.085 39.633-5.781 57.475-3.254.034-1.001.063-1.728.08-2.146z"/><path d="M99.844 269.558l.577 4.04q.856.187 1.715.362-.389-2.02-.757-4.06a106.64 106.64 0 0 1-1.535-.342z"/><path d="M99.844 269.558c.51.119 1.023.231 1.536.342a362.294 362.294 0 0 1-.566-3.2q-.716-.165-1.427-.34zm.406 4.002l1.187 7.146-1.016-7.108-.172-.039zm-3.833-38.033l49.776-2.088-10.578.001-39.198 2.087zm2.622 30.745l.348.087-2.469-17.282.211 5.698z"/><path d="M99.575 269.498l.674 4.061.172.039-.577-4.04-.27-.06zm-.536-3.226l.536 3.226.27.06-.458-3.199-.348-.087zm63.944 2.94c-.5.186-1.002.364-1.504.542 1.446 13.945.37 29.67 3.073 42.65-1.02.315-2.07.604-3.137.873l-.203 3.048 1.718-.061 4.183-2.51-2.946-40.267-.819.108zm-2.116-6.485c.511-.192 1.018-.394 1.526-.594l-2.39-28.697-.363 7.173c.785 7.43.762 14.792 1.227 22.118z"/><path d="M156.237 233.017l-1.677.07-.015.35h5.457l1.069-.214-.233-2.716zm4.865 32.833c.082.944.16 1.888.268 2.83.04.356.072.717.109 1.074.502-.178 1.005-.356 1.504-.542l-.328-3.94q-.774.295-1.553.578z"/><path d="M161.102 265.85q.779-.284 1.553-.579l-.262-3.138c-.508.2-1.015.402-1.526.594q.099 1.562.235 3.123zm-6.542-32.763l1.677-.07 4.601-2.51-6.275 2.511zm8.423 36.125l.365 4.383.819-.108-.337-4.598c-.282.108-.564.218-.847.323zm-.59-7.079c.305-.12.613-.236.917-.359l-1.217-16.624-2.09-11.714z"/><path d="M162.655 265.271l.328 3.941c.283-.105.565-.215.847-.323l-.29-3.962c-.295.116-.59.231-.885.344z"/><path d="M162.655 265.271c.296-.113.59-.228.885-.344l-.23-3.153c-.304.123-.612.239-.917.359zm-2.653-31.835l1.085-.029-.016-.184-1.069.213z"/><path d="M162.093 245.15l-1.006-11.743-1.085.029 2.091 11.714z"/><path d="M154.464 235.583c1.584.224 3.142.474 4.633.785a89.88 89.88 0 0 1 .543 4.241l.362-7.173-5.457.001c-.018.418-.047 1.145-.081 2.146zm31.056 29.227l-4.603 1.674-.987-5.268q-.398.23-.8.457l.828 6.488 16.314-4.602 4.354-.235-.465-.604zm36.99-36.548c1.364 2.063 2.675 6.467 3.775 10.874a26.6 26.6 0 0 0-.189-3.19l4.602 13.387.087 1.558 1.044-3.227-8.367-24.682-3.652-.476q-.684 1.098-1.392 2.178a11.31 11.31 0 0 1 4.091 3.578zm-32.033 27.185a4.334 4.334 0 0 1 1.735-.257l-.38-1.902c-.47.358-.946.71-1.421 1.06.023.368.047.735.066 1.1zm-2.866-23.266l-11.58.62-.551.217.587 4.612.668 3.336-.223.156 1.682 13.198q1.776-1.072 3.51-2.207c-.913-5.936-1.944-11.84-2.502-17.402 1.992-.038 4.419-.498 6.503-.02a35.873 35.873 0 0 1 3.812 11.752q.41-.326.815-.657zm0 0l5.438-2.09s.161.93.415 2.416c4.127-2.597 10.421-3.965 15.438-6.11q1.47-1.974 2.853-4.018l-11.3 3.532z"/><path d="M179.663 259.79s1.237-.57 2.938-1.31a196.326 196.326 0 0 0-.407-3.046q-1.769 1.127-3.58 2.19l.517 4.049.799-.457zm10.359-9.825c.171 1.466.297 2.934.389 4.383.475-.35.95-.702 1.421-1.06l-.82-4.1c-.33.259-.657.521-.99.777zm24.58-26.122a6.96 6.96 0 0 1 3.815.841q.708-1.08 1.393-2.178l-3.979-.519q-.605.935-1.229 1.856z"/><path d="M178.194 254.32l.42 3.304q1.814-1.06 3.58-2.19-.237-1.66-.49-3.32-1.73 1.139-3.51 2.206zm11.323-7.877c.198 1.163.367 2.34.505 3.522.333-.256.66-.518.99-.777l-.68-3.402q-.406.33-.815.657zm22.238-24.063q-1.383 2.043-2.853 4.018a23.748 23.748 0 0 0 3.46-1.775 5.036 5.036 0 0 1 2.24-.78q.623-.922 1.23-1.856l-1.99-.26zm-30.962 8.55l-4.762 1.872 11.58-.621-6.818-1.251zm-4.726 6.7l.445 3.492.223-.156zm48.966 24.375a10.849 10.849 0 0 1-5.59 3.512c-4.755 1.154-12.047 1.458-15.162-.046 3.267-1.785 7.935-2.053 11.981-2.992l-15.636.845 3.718 4.833 12.55.418 7.53-1.673 6.692-10.04-.331-5.97-3.558 10.994z"/><path d="M226.096 235.946a26.6 26.6 0 0 1 .189 3.19c.783 3.14 1.46 6.28 1.97 8.578a16.461 16.461 0 0 1-3.222 14.29l2.194-.118 3.558-10.995-.087-1.558zm-7.869 26.002c-6.318-2.721-15.666-.157-23.264-.63-.313-3.205-.601-6.5-.932-9.748q-1.089.873-2.199 1.718l.38 1.902a4.334 4.334 0 0 0-1.735.257c.122 2.38.151 4.682.118 6.788-2.578.497-4.252 1.975-7.386 1.878-.123-1.513-.29-3.04-.474-4.57q-1.389.858-2.805 1.673l.987 5.268 4.602-1.674 14.642-2.09.465.604 15.636-.845a24.038 24.038 0 0 0 1.965-.531zm-30.616-29.767l2.72 13.605q1.38-1.12 2.721-2.289a66.109 66.109 0 0 0-1.92-9.136 11.818 11.818 0 0 1 2.332-1.854c-.254-1.486-.415-2.417-.415-2.417z"/><path d="M179.663 259.79l.267 1.426q1.414-.819 2.805-1.674c-.042-.353-.089-.708-.134-1.062-1.701.74-2.938 1.31-2.938 1.31zm11.349-10.602l.82 4.1q1.11-.846 2.2-1.718c-.153-1.49-.313-2.97-.49-4.426q-1.25 1.041-2.53 2.044zm0 0q1.28-1.004 2.53-2.044-.225-1.855-.49-3.647-1.342 1.167-2.72 2.29zm-29.352-23.074l1.564 3.98 1.048-6.077-.924 2.309-1.688-.212zm-2.619-39.108h-1.65l3.803.783zm7.504 9.514c-.36 8.27-.487 16.486-2.24 24.227l.397.774 2.706-15.69.836-15.478-.712-.258v6.947s-.378-.201-.987-.521zm-22.145-3.657l4.072 5.843-3.26-7.69a17.818 17.818 0 0 0-.813 1.847zm20.622 29.279l-.32-.62-.43 2.495zm2.51-33.047l-6.338-1.306 6.338 2.306v-1zm-20.592-.862a36.717 36.717 0 0 0-2.207 1.654l.48 1.13c.869-1.717 2.373-4.01 4.206-4.01h7.973l-4.084-.841-5.913.771-.04 1.01zm1.532 10.473l11.53 27.201 1.658.207-7.639-19.446-5.549-7.962z"/><path d="M145.212 191.017l3.26 7.69 5.55 7.961 7.638 19.446 1.688.212.924-2.31.43-2.495-.397-.774a51.005 51.005 0 0 1-.947 3.6c-5.765-10.571-9.157-23.334-16.622-32.33.79-.835 1.494-1.763 2.268-2.619 3.38 1.413 5.586-1.854 8.185-1.575 2.979.317 5.337 4.43 9.588 4.16a253.082 253.082 0 0 0-.232 4.537c.609.32.987.522.987.522v-6.947l-6.338-2.306-3.802-.783h-7.973c-1.833 0-3.337 2.294-4.207 4.01zm-50.049-22.835s.366.153.984.398c-.839-.985-1.015-1.982-.115-2.895 3.54 2.458 10.39 1.854 15.6 2.77.189 1.156-.397 2.567-.769 4.097a5.654 5.654 0 0 0 1.29-.148 10.36 10.36 0 0 1 1.65-3.704l.06-1.772-11.59-1.26-7.078-2.178c-1.44-.292-2.795-.582-3.798-.8v3.396l3.194 2.859z"/><path d="M94.591 168.945l-3.194-2.859 2.922 3.222.272-.363zm2.12 3.002l.439.197-.721-.509.282.312zm8.502 3.826l6.866 3.09q-.133-.841-.201-1.665zm-13.816-13.452v.37c1.003.217 2.358.507 3.798.8zm7.948 10.877l.501.16-.65-.293.149.133zm-5.437-3.342l2.521 1.779-2.11-2.327-.411.548z"/><path d="M99.345 173.198l-.149-.133-2.046-.921 3.87 2.732 4.193.897-5.367-2.415-.501-.16z"/><path d="M99.846 173.358l8.703 2.768 3.323.997a15.405 15.405 0 0 1 .281-4.719 5.654 5.654 0 0 1-1.29.148 8.477 8.477 0 0 0-.285 2.092c-3.297-.203-11.897-3.084-14.431-6.064a63.74 63.74 0 0 1-.984-.398l-.572.763 4.605 4.12z"/><path d="M94.591 168.945l-.272.363 2.11 2.327.721.509 2.046.921-4.605-4.12zm17.281 8.178l-3.323-.997-8.703-2.768 5.367 2.415 6.665 1.425zm45.948-4.191l.327.94c.01.03.023.055.034.083l.224-1.231zm14.402 14.991q-2.463-.262-4.788-.653-2.286-.385-4.432-.9c.34.625.64 1.056.64 1.056l-3.911-1.397-.081.489.864.244a71.775 71.775 0 0 0 12.456 2.236v-1.006c-.248-.024-.502-.043-.748-.069z"/><path d="M181.6 179.83a22.257 22.257 0 0 1-.265 4.898 12.282 12.282 0 0 1-.454 1.764 8.596 8.596 0 0 1-.276.708 5.955 5.955 0 0 1-.693 1.23q-3.594-.105-6.942-.438v1.006c2.217.216 4.517.367 6.913.437l.512.015.313-.407c1.989-2.585 1.988-7.338 1.895-9.262a52.301 52.301 0 0 0-1.238-8.993 3.743 3.743 0 0 0-1.163-.43 48.527 48.527 0 0 1 1.398 9.471zm-18.598 6.54q2.146.515 4.432.9-2.286-.385-4.432-.9z"/><path d="M172.222 187.923c.246.026.5.045.748.07-.248-.025-.502-.044-.748-.07zm.748.069q3.353.329 6.942.439-3.594-.106-6.942-.439zm-53.786 9.191c-.092-.27-.196-.556-.304-.85-1.073-2.04-2.252-4.343-3.337-6.767l.472 2.046c.4 1.121.816 2.2 1.206 3.199.386.99.741 1.899 1.013 2.697.112.327.204.658.294.98a5.915 5.915 0 0 0 1.174 2.539q-.112-1.446-.23-2.891a17.839 17.839 0 0 0-.288-.953zm14.632-.248c-.283.154-.654.338-1.092.542a59.038 59.038 0 0 1-4.196 1.715c-1.271.462-2.59.889-3.782 1.194a18.29 18.29 0 0 1-1.671.354 9.49 9.49 0 0 1-.723.087 3.869 3.869 0 0 1-1.14-.046l-1.346.405a2.517 2.517 0 0 0 1.118.572 3.866 3.866 0 0 0 .87.086c3.48 0 10.745-3.103 12.442-4.028a47.443 47.443 0 0 0 7.877-5.798c.872-.74 1.717-1.455 2.56-2.13l-.404-.956c-3.308 2.624-6.542 5.837-10.513 8.003zm12.569-9.866l1.01-.132.136-3.484a11.27 11.27 0 0 1-1.018.327l-.128 3.289z"/><path d="M114.927 188.144a43.21 43.21 0 0 0 1.088 3.468l-.472-2.046a76.09 76.09 0 0 1-.616-1.422zm31.445-.74a36.56 36.56 0 0 0-2.043 1.528l.404.955a36.709 36.709 0 0 1 2.206-1.654l.416-.286.04-1.01-1.01.132zm6.577-11.85a3.866 3.866 0 0 1 1.034.163 3.603 3.603 0 0 1 1.42.848 4.225 4.225 0 0 1 .686.864 5.497 5.497 0 0 1 .753 2.738 5.728 5.728 0 0 1-.1 1.16 5.157 5.157 0 0 1-.338 1.1 4.447 4.447 0 0 1-.583.976c-1.061 1.34-2.969 2.05-5.817 1.16a38.369 38.369 0 0 0-.44-2.132c-.292.188-.595.366-.91.526a34.9 34.9 0 0 1 .361 1.78l.106.602.584.182a8.98 8.98 0 0 0 2.68.449 5.162 5.162 0 0 0 4.64-2.556 6.076 6.076 0 0 0 .76-2.43v-1.606a5.947 5.947 0 0 0-1.718-3.567 4.757 4.757 0 0 0-3.702-1.25 1.51 1.51 0 0 1 .4.315 6.457 6.457 0 0 1 .184.678zm10.476-5.775c2.96-2.011 6.37-4.328 9.545-5.191v-1.365l-14.348 8.306-.217 1.195.353-.126a27.716 27.716 0 0 0 4.667-2.82zm-5.64 11.205v4.35l1.946.695.066-.397a13.268 13.268 0 0 0 .048-2.918 9 9 0 0 1 .234-3.465l.104-.3.258-.186a5.305 5.305 0 0 1 1.041-.577 8.033 8.033 0 0 0-.94.17l-1.201.296-.043-1.236a6.092 6.092 0 0 0-.68-2.39c-.155-.35-.305-.702-.437-1.07l-.396 2.175v3.247a6.84 6.84 0 0 1 0 1.606zm20.527-15.978c1.443.84 2.409 3.19 3.053 5.782a1.575 1.575 0 0 1 .683.741l-2.51-7.53-5.02-1.673-1.548.897v1.365a6.774 6.774 0 0 1 5.342.418z"/><path d="M159.298 177.416l.043 1.236 1.2-.296a8.033 8.033 0 0 1 .941-.17 5.305 5.305 0 0 0-1.041.577l-.258.186-.104.3a9 9 0 0 0-.234 3.465 13.268 13.268 0 0 1-.048 2.918l-.066.397 3.91 1.397s-.3-.431-.64-1.055q-1.126-.27-2.214-.576a8.574 8.574 0 0 0 .096-.86c.018-.285.024-.568.022-.849-.005-.561-.04-1.111-.07-1.641s-.053-1.04-.033-1.52a4.7 4.7 0 0 1 .226-1.348 4.114 4.114 0 0 1 .634-.372 5.701 5.701 0 0 1 .717-.28 28.935 28.935 0 0 1 5.202-.722 10.658 10.658 0 0 0-2.58-.855 12.117 12.117 0 0 0-1.898-.227 10.141 10.141 0 0 0-2.802.26c-.055-1.598-.772-2.588-1.206-3.838.036-.012.075-.03.112-.044a7.22 7.22 0 0 0 .563-.247q.18-.088.372-.19.296-.157.616-.345c3.187-1.874 8.008-5.83 12.212-7.078v-1.051c-3.174.863-6.585 3.18-9.545 5.191a27.716 27.716 0 0 1-4.667 2.819l-.353.126-.224 1.231c.132.37.282.722.437 1.07a6.092 6.092 0 0 1 .68 2.39zm19.014-12.41a6.774 6.774 0 0 0-5.342-.418v1.05a6.007 6.007 0 0 1 4.836.235c1.028.598 1.81 2.35 2.396 4.484a3.743 3.743 0 0 1 1.163.43c-.644-2.59-1.61-4.941-3.053-5.781z"/><path d="M160.883 184.935a8.574 8.574 0 0 1-.096.86q1.087.307 2.215.576-1.127-.27-2.215-.576a8.556 8.556 0 0 0 .096-.86zm-1.677-11.436c-.036.014-.075.031-.111.044.434 1.25 1.15 2.24 1.206 3.838-.055-1.598-.772-2.588-1.206-3.838.036-.013.075-.03.111-.044zm2.456 5.706a4.114 4.114 0 0 0-.634.372 4.7 4.7 0 0 0-.226 1.347 4.701 4.701 0 0 1 .226-1.347 4.113 4.113 0 0 1 .634-.372zm-3.877.173v1.606a6.84 6.84 0 0 0 0-1.606zM113.804 168.7l-.36 10.777-.256-.115.95 4.119c-.003-.075-.015-.149-.018-.223l-.02-.422c-.249-5.375-.589-12.736 2.705-15.592a5.136 5.136 0 0 1 4.541-1.03 63.46 63.46 0 0 1 16.85 6.16c.717.393 1.346.802 1.955 1.198a11.156 11.156 0 0 0 5.895 2.254l.961.074-.117 3.104-.432.283a12.327 12.327 0 0 1-4.03 1.483 22.014 22.014 0 0 1 4.55 1.68l.581.288-.028.715a11.114 11.114 0 0 0 1.123-.496 82.52 82.52 0 0 0-.215-.923 13.933 13.933 0 0 1-.494-5.181l.043-.479.4-.266a8.426 8.426 0 0 1 3.976-1.548c-1.689-.988-6.164-.222-7.863-1.103l-9.804-5.083a35.851 35.851 0 0 0-6.962-2.609l-11.239.321a10.548 10.548 0 0 0-2.692 2.614zm5.914 32.53l.148-.044a2.56 2.56 0 0 1-.164-.16l.016.204z"/><path d="M116.496 166.086l11.239-.32c-4.083-1.076-8.586-1.484-11.239.32zm-3.308 13.276l-1.109-.5a41.125 41.125 0 0 0 2.848 9.282 23.772 23.772 0 0 1-.788-4.663zm-.457-1.982l.457 1.982.256.115.36-10.777a10.36 10.36 0 0 0-1.65 3.704c.053-.013.11-.023.161-.038z"/><path d="M112.731 177.38l-.853-.182q.07.824.201 1.665l1.11.499z"/><path d="M111.872 177.123l.86.258-.417-5.015c-.05.015-.108.025-.162.038a15.405 15.405 0 0 0-.281 4.72z"/><path d="M111.878 177.198l.853.183-.859-.258zm7.594 20.938l.23 2.89c.053.056.107.11.164.16l1.346-.405c-1.09-.253-1.387-1.387-1.74-2.645zm-5.333-14.656a23.772 23.772 0 0 0 .788 4.665c.202.477.406.952.616 1.421zm33.849-7.106l-.043.479a13.933 13.933 0 0 0 .494 5.181c.069.288.142.598.215.923.315-.16.618-.338.91-.526a14.398 14.398 0 0 1-.62-5.488 7.157 7.157 0 0 1 3.84-1.4c.057 0 .108.01.165.011a6.457 6.457 0 0 0-.184-.678 1.51 1.51 0 0 0-.4-.316 8.426 8.426 0 0 0-3.977 1.548zm10.712 49.418q-2.033-.612-4.073-1.317 2.038.703 4.073 1.317zm-8.147-2.802zm-18.16-97.898c-4.236-2.04-7.263-.927-7.813-.194-1.043 1.392 1.119 8.98 1.119 8.98l2.092.42c-.418-8.37 4.602-9.206 4.602-9.206zm28.864 71.742a2.301 2.301 0 1 0-2.301 2.3 2.302 2.302 0 0 0 2.301-2.3zm-.001 8.366a2.3 2.3 0 1 0 2.302 2.301 2.302 2.302 0 0 0-2.302-2.301z"/></svg>