<svg xmlns="http://www.w3.org/2000/svg" role="img" viewBox="-15.32 -11.32 1056.64 351.64"><defs><style>.cls-1{fill:none}.cls-2{fill:#d23933}.cls-3{fill:#221f1f}.cls-4{fill:#f0d6b7}.cls-5{fill:#326ce5}.cls-6{fill:#8a5d3b}.cls-7{fill:#f6e3cd}.cls-8{fill:#159fd6}.cls-9{fill:#fff}.cls-10{fill:#dbd8d7}.cls-14{fill:#f2b445}.cls-15{fill:#f5e776}</style></defs><path d="M472.249 167.997a36.005 36.005 0 0 0-1.846-9.052 13.93 13.93 0 0 0-4.087-6.24 10.04 10.04 0 0 0-6.547-2.11q-6.77 0-10.811 6.856-4.044 6.855-4.395 21.708l28.213-.351q0-5.274-.527-10.81z" class="cls-1"/><path d="M335.491 115.351q2.472.353 6.227 1.144a33.976 33.976 0 0 1 6.402 1.935q3.708 1.584 4.68 3.694a12.62 12.62 0 0 1 .972 5.278v70.455q0 15.306-6.038 22.87-6.037 7.563-16.612 7.563a12.589 12.589 0 0 1-5.377-1.23 6.54 6.54 0 0 1-3.437-2.989v-1.142a60.516 60.516 0 0 0 8.92-8.832 16.137 16.137 0 0 0 3.912-10.416 14.971 14.971 0 0 0-4.527-11.074q-4.528-4.483-12.173-4.483-8.087 0-12.7 5.362-4.614 5.362-4.614 13.535 0 13.8 10.063 21.709 10.063 7.91 26.5 7.91a58.036 58.036 0 0 0 17.841-2.682 48.502 48.502 0 0 0 15.117-7.96 37.974 37.974 0 0 0 10.503-13.28 39.515 39.515 0 0 0 3.824-17.416v-68.78a14.719 14.719 0 0 1 1.01-5.63q1.01-2.46 4.615-3.43 3.075-.79 5.537-1.23 2.46-.441 5.976-.88v-6.856h-66.62zM488.42 218.843a25.631 25.631 0 0 1-14.853 4.525q-15.118 0-22.06-9.404-6.944-9.403-6.944-27.422h59.415v-5.713a44.624 44.624 0 0 0-2.286-14.281 29.977 29.977 0 0 0-7.295-11.822 35.794 35.794 0 0 0-13.095-8.261q-7.91-2.987-20.215-2.989a51.523 51.523 0 0 0-20.347 3.867 44.832 44.832 0 0 0-15.073 10.108 46.212 46.212 0 0 0-12.656 31.816 54.314 54.314 0 0 0 3.032 18.414 39.73 39.73 0 0 0 9.185 14.72 44.011 44.011 0 0 0 15.6 9.932q9.447 3.692 22.456 3.692a50.694 50.694 0 0 0 13.843-1.713 54.162 54.162 0 0 0 11.91-5.055 45.08 45.08 0 0 0 9.887-7.602 53.505 53.505 0 0 0 7.427-9.449l-6.68-4.834a42.382 42.382 0 0 1-11.25 11.471zm-39.462-61.392q4.041-6.856 10.81-6.856a10.04 10.04 0 0 1 6.548 2.11 13.93 13.93 0 0 1 4.087 6.24 36.005 36.005 0 0 1 1.846 9.052q.527 5.537.527 10.81l-28.213.352q.35-14.85 4.395-21.708zm173.672 67.236a6.813 6.813 0 0 1-3.604-3.076 11.67 11.67 0 0 1-.966-5.186v-43.066q0-13.447-7.164-21.577-7.164-8.128-21.489-8.13a41.111 41.111 0 0 0-11.25 1.494 31.588 31.588 0 0 0-8.525 3.604 57.512 57.512 0 0 0-6.504 5.01q-3.517 3.077-5.977 5.273h-.351v-12.744l-1.319-1.319-41.923 2.286v6.416a28.23 28.23 0 0 1 5.317.966 14.542 14.542 0 0 1 3.999 1.758 12.593 12.593 0 0 1 3.691 4.307 11.291 11.291 0 0 1 1.407 5.361v51.152a11.396 11.396 0 0 1-1.055 5.273 6.452 6.452 0 0 1-3.867 2.989 21.463 21.463 0 0 1-3.823.836q-2.242.307-4.439.482v6.416h53.438v-6.416a27.278 27.278 0 0 1-4.131-.879 16.718 16.718 0 0 1-3.516-1.406 6.13 6.13 0 0 1-2.9-3.12 13.149 13.149 0 0 1-.88-5.142v-47.197q1.057-1.403 2.6-3.251a20.238 20.238 0 0 1 4.099-3.604 24.507 24.507 0 0 1 5.948-3.076 19.9 19.9 0 0 1 6.566-1.055q6.433 0 9.738 4.527 3.305 4.527 3.306 13.49v41.133a14.452 14.452 0 0 1-.791 5.45 5.589 5.589 0 0 1-2.637 2.812 11.08 11.08 0 0 1-3.604.879q-2.373.263-4.043.44v6.415h52.823v-6.416a25.287 25.287 0 0 1-4.702-.879 29.986 29.986 0 0 1-3.472-1.23zm114.278-5.182q-7.983-11.86-15.266-22.488-7.282-10.63-15.88-23.104 4.383-3.879 7.756-6.478 3.373-2.6 6.971-4.974a79.42 79.42 0 0 1 10.047-5.757 92.154 92.154 0 0 1 13.383-4.614v-6.065H699.27v6.24a41.543 41.543 0 0 1 8.352 1.846q2.774 1.055 2.775 2.637a14.74 14.74 0 0 1-.307 1.89q-.31 1.536-3.208 4.524-4.918 5.01-13.037 12.656-8.12 7.646-14.615 13.445V98.564l-1.32-1.406-43.767 2.285v6.416a43.472 43.472 0 0 1 6.064.879 15.788 15.788 0 0 1 5.01 1.758 9.794 9.794 0 0 1 3.735 4.702 15.91 15.91 0 0 1 1.275 6.02v97.998a11.746 11.746 0 0 1-1.018 5.273 6.301 6.301 0 0 1-3.85 2.989 24.22 24.22 0 0 1-3.893.836q-2.212.307-4.423.482v6.416h54.58v-6.416a26.308 26.308 0 0 1-4.219-.703 22.48 22.48 0 0 1-3.691-1.23 5.86 5.86 0 0 1-3.56-2.989 12.543 12.543 0 0 1-.923-5.185v-19.16l5.177-4.38q5.62 7.978 11.944 17.315 6.322 9.336 13.962 22.748h41.427v-6.416a33.13 33.13 0 0 1-8.076-1.758 13.301 13.301 0 0 1-6.757-5.533zm63.085 5.006a7.98 7.98 0 0 1-3.78-3.207 9.83 9.83 0 0 1-1.317-5.23v-69.785l-1.319-1.319-43.066 2.286v6.416a31.293 31.293 0 0 1 5.844 1.23 18.703 18.703 0 0 1 4.79 2.022 11.66 11.66 0 0 1 3.516 3.735 10.263 10.263 0 0 1 1.406 5.405v51.152a10.418 10.418 0 0 1-1.142 5.23 7.288 7.288 0 0 1-3.955 3.032 15.58 15.58 0 0 1-3.78.879q-2.198.263-4.482.44v6.415h55.547v-6.416a26.406 26.406 0 0 1-4.395-.879 29.342 29.342 0 0 1-3.867-1.406zm-21.885-95.097a17.436 17.436 0 0 0 12.173-4.702 14.864 14.864 0 0 0 5.142-11.382 15.062 15.062 0 0 0-5.098-11.426 18.153 18.153 0 0 0-24.477 0 15.217 15.217 0 0 0 0 22.808 17.545 17.545 0 0 0 12.26 4.702zm146.075 95.273a6.813 6.813 0 0 1-3.604-3.076 11.67 11.67 0 0 1-.967-5.186v-43.066q0-13.447-7.163-21.577-7.164-8.128-21.489-8.13a41.111 41.111 0 0 0-11.25 1.494 31.588 31.588 0 0 0-8.525 3.604 57.514 57.514 0 0 0-6.504 5.01q-3.517 3.077-5.977 5.273h-.351v-12.744l-1.319-1.319-41.924 2.286v6.416a28.23 28.23 0 0 1 5.318.966 14.542 14.542 0 0 1 3.999 1.758 12.593 12.593 0 0 1 3.691 4.307 11.29 11.29 0 0 1 1.406 5.361v51.152a11.396 11.396 0 0 1-1.054 5.273 6.452 6.452 0 0 1-3.867 2.989 21.463 21.463 0 0 1-3.824.836q-2.24.307-4.438.482v6.416h53.437v-6.416a27.279 27.279 0 0 1-4.13-.879 16.718 16.718 0 0 1-3.516-1.406 6.13 6.13 0 0 1-2.9-3.12 13.148 13.148 0 0 1-.88-5.142v-47.197q1.057-1.403 2.6-3.251a20.237 20.237 0 0 1 4.099-3.604 24.508 24.508 0 0 1 5.948-3.076 19.9 19.9 0 0 1 6.565-1.055q6.434 0 9.739 4.527 3.304 4.527 3.305 13.49v41.133a14.451 14.451 0 0 1-.79 5.45 5.589 5.589 0 0 1-2.637 2.812 11.08 11.08 0 0 1-3.604.879q-2.373.263-4.043.44v6.415h52.822v-6.416a25.287 25.287 0 0 1-4.702-.879 29.984 29.984 0 0 1-3.471-1.23zm90.54-36.517q-7.285-6.988-22.99-11.032a75.614 75.614 0 0 1-15.837-5.625q-5.66-2.985-5.659-9.668a9.126 9.126 0 0 1 3.867-7.822q3.866-2.812 10.635-2.812 8.612 0 16.084 6.635a36.343 36.343 0 0 1 10.547 15.776h6.152l-1.406-29.97h-6.68l-1.845 5.186a74.396 74.396 0 0 0-11.294-3.56 62.629 62.629 0 0 0-14.722-1.626q-16.875 0-27.29 7.647t-10.415 20.038a24.816 24.816 0 0 0 8.701 19.775 35 35 0 0 0 8.833 5.67 96.494 96.494 0 0 0 10.24 3.559q5.975 1.76 10.063 2.988a44.885 44.885 0 0 1 7.515 2.989 15.051 15.051 0 0 1 4.834 3.955 9.251 9.251 0 0 1 1.758 5.8q0 6.507-3.912 9.625-3.91 3.12-11.909 3.12a24.594 24.594 0 0 1-11.382-2.725 39.73 39.73 0 0 1-9.448-6.68 49.131 49.131 0 0 1-7.031-8.92 43.535 43.535 0 0 1-4.395-8.922h-6.416l1.143 32.784h6.855l2.637-5.977a54.444 54.444 0 0 0 12.612 5.318 56.239 56.239 0 0 0 16.656 2.504q18.193 0 29.487-7.91 11.293-7.91 11.294-22.324 0-10.81-7.282-17.797z"/><path d="M171.931 276.176l-.673-.075a10.264 10.264 0 0 0-1.093.15 3.532 3.532 0 0 1 1.387.01h.038c.806 7.034 3.593 14.154 3.242 21.86-1.106.373-2.043.727-2.98 1.03 1.067-.329 2.106-.73 3.359-1.153h-.028c.35-7.697-2.437-14.826-3.252-21.822zm-6.683 1.024l-.002.066a13.43 13.43 0 0 0 2.973-.57 13.719 13.719 0 0 1-2.97.504z" class="cls-1"/><path d="M161.267 173.624a31.44 31.44 0 0 1 1.659-1.172c-.062.005-.126.016-.188.022l-.182.13a9.758 9.758 0 0 0-1.29 1.02zm-89.051-6.737c.313-4.076 2.645-6.152 5.963-7.754a25.34 25.34 0 0 1 4.585-1.767l-.01-.021a25.34 25.34 0 0 0-4.594 1.769c-3.318 1.602-5.688 3.678-5.963 7.754a14.417 14.417 0 0 0-.02 2.2l.016-.007a14.41 14.41 0 0 1 .023-2.174zm157.109-83.555a13.74 13.74 0 0 0-6.485-8.14l-19.131-9.22c.112.168.218.337.31.508 2.531 3.555 2.531 5.129 0 10.105a25.248 25.248 0 0 1-5.418 4.342c2.12 17.061-.2 34.434-4.213 51.379a76.043 76.043 0 0 1-4.029 11.603c-1.308 2.654-7.488 11.062-6.995 13.49a1.953 1.953 0 0 0 .075.232l1.921 1.751.085.054c2.175 1.037 6.01 1.99 11.503 4.266 4.588 1.005 7.432 1.005 11.062 5.745a100.653 100.653 0 0 1-4.616 20.997c-4.105 13.717-8.105 26.4-12.75 38.629 7.573-3.783 20.333-9.599 28.321-5.538l29.347-36.798a13.728 13.728 0 0 0 2.283-10.143z" class="cls-2"/><path d="M47.105 205.042c-1.64-5.043-5.508-12.645-6.247-17.68-1.1-7.46 6.636-13.906 11.375-14.218 9.196-1.261 7.906-.313 13.935-1.583a29.24 29.24 0 0 1 3.126-1.37 12.62 12.62 0 0 1-.206-4.707c.702-4.578 3.792-6.635 7.726-8.531a38.989 38.989 0 0 1 4.689-1.972c-1.382-2.467-2.833-4.715-3.305-5.754a29.623 29.623 0 0 1-2.9-10.854 20.912 20.912 0 0 1-13.974-8.977c-4.561-6.689-7.775-18.798-4.46-28.453-1.472-2.285-4.249-6.554-6.252-9.351-6.01-5.186-5.81-5.499-2.843-12.77 2.399-5.334 3.764-8.063 5.12-9.915l-12.972 6.246a13.741 13.741 0 0 0-6.486 8.175l-21.309 93.344a13.68 13.68 0 0 0 2.282 10.14l41.674 52.175a130.548 130.548 0 0 0-3.2-17.83c-1.46-5.687-4-10.674-5.773-16.115zm91.367-4.971a50.071 50.071 0 0 0 2.262-1.762c2.24-1.836 4.339-3.762 6.513-5.268.05-1.078.092-2.195.133-3.314-.103.032-.208.061-.312.09a8.502 8.502 0 0 1-6.23-.482c-6.085-3.318-.331-2.342-2.483-6.74-.446-.92-6.73-2.37-7.944-2.37-7.972 0-11.015-1.612-10.181 7.583q.621 6.955 1.17 13.915c.069.189.135.374.195.551.14.423.252.849.366 1.255q.537 1.015.983 1.88a1.451 1.451 0 0 0 .547.268c1.512.353 5.322-.856 8.34-2.046a50.411 50.411 0 0 0 2.243-.944c.106-.048.217-.097.316-.143.402-.187.745-.356 1.007-.497a28.23 28.23 0 0 0 3.075-1.976z" class="cls-2"/><path d="M256.726 175.46l-21.343-93.605-.044-.172a19.939 19.939 0 0 0-9.55-11.985l-24.713-11.911c.175-1.003.365-2.1.573-3.317 3.754-6.949 5.442-11.452 4.266-16.115s-6.474-13.547-13.575-18.012c-5.8-3.64-18.807-10.408-26.656-10.74-12.693 0-36.306 1.545-47.331 8.228-8.342 5.062-21.926 16.381-32.666 25.282a134.212 134.212 0 0 1-10.706 8.24L37.126 69.576l-.161.084a19.934 19.934 0 0 0-9.55 12.031L6.025 175.37l-.033.163a19.878 19.878 0 0 0 3.369 14.945l47.734 59.772c.184 2.542.35 5.091.523 7.66.303 4.806-.209 9.906 1.043 12.57s6.066 3.621 9.48 5.223c9.962 4.607 20.532 11.65 33.604 10.248 3.119 10.475 6.067 21.632 9.802 30.808 13.404 4.816 34.562 4.067 48.497 2.389 4.228-.512 8.702-2.597 9.697-6.275a37.269 37.269 0 0 1-.483-7.176c4.351-.901 10.285-1.65 11.243-6.466 1.346-6.768-4.276-16.456-2.399-23.869 2.026-.662 4.158-1.206 4.713-3.457a20.189 20.189 0 0 0 8.547-4.328 44.541 44.541 0 0 1 6.23-.159 11.374 11.374 0 0 0 2.56 3.365c7.536 1.517 14.845 1.64 21.101-.398 7.09-2.313 10.475-16.807 8.854-23.698a108.633 108.633 0 0 0-5.972-17.613 14.25 14.25 0 0 0-.645-1.217l29.757-37.308.112-.15a19.927 19.927 0 0 0 3.367-14.939zm-8.414 11.277l-29.347 36.798c-7.988-4.06-20.748 1.755-28.321 5.538 4.645-12.229 8.645-24.912 12.75-38.63a100.653 100.653 0 0 0 4.616-20.996c-3.63-4.74-6.474-4.74-11.062-5.745-5.492-2.276-9.328-3.229-11.503-4.266a3.42 3.42 0 0 1-2.006-1.805 1.953 1.953 0 0 1-.076-.233c-.492-2.427 5.688-10.835 6.996-13.49a76.043 76.043 0 0 0 4.03-11.602c4.012-16.945 6.331-34.318 4.212-51.379-.49.283-1.005.55-1.546.808-.18.085-.356.172-.543.255-.176.078-.362.154-.545.231-.451.19-.919.376-1.416.556.285 3.416.381 7.056.567 10.71.922 17.802-2.627 36.105-10.389 50.217a12.094 12.094 0 0 0-1.413-3.995 19.556 19.556 0 0 0-5.422-5.412 24.458 24.458 0 0 0-6.788-3.318 34.657 34.657 0 0 0-7.668-1.422c-2.598-.285-5.167-1.014-7.821-1.014s-5.29.748-7.859.748c-2.749.029-5.592-.72-8.436-.578a62.019 62.019 0 0 0-8.38 1.119 31.928 31.928 0 0 0-7.85 2.976c-3.601 1.707-5.962 4.835-7.782 8.342-1.346 2.588-1.953 5.148-.796 7.916.057.047.038.085.057.151s-.133.2-.133.266c1.253 2.659 3.573 5.035 6.556 5.413-1.314.411-2.572.808-3.739 1.181-4.404-4.588-8.127-9.87-12.173-15.486.226 6.333 4.51 11.637 8.922 16.542a112.4 112.4 0 0 0-2.723.929c-2.72.986-5.194 2.588-7.858 3.725-1.374.575-3.03 1.482-4.625 2.2-.41.184-.816.357-1.212.506.05-.07.23-.263.187-.469-1.27-4.303-3.792-8.531-8.532-9.707a10.428 10.428 0 0 0-2.864-.286 77.923 77.923 0 0 1-4.35-12.549 24.648 24.648 0 0 1-.805-5.394c.558-3.039 5.854-4.418 4.015-8.554-.037-.082-.058-.158-.1-.243-4.01 0-4.91 3.65-8.589 4.01-3.998.398-7.498-1.766-10.187-5.012-3.717-4.488-5.877-11.048-5.624-15.795.36-6.968 6.247-13.632 14.295-12.75 4.567.502 6.687 4.606 7.935 9.045.306 1.089.562 2.197.786 3.278 3.28.17 8.02-.142 9.574-2.702-.162-4.452-1.678-8.275-2.466-12.18a20.53 20.53 0 0 1-.463-4.807c.036-.652.09-1.302.154-1.952l-.439-.035-.556-.046-.355-.03-.13-.01-1.462-.124a613.503 613.503 0 0 1-3.242-.287l-.808-.075-.806-.075c-1.01-.095-1.59-.153-1.59-.153s.41-.28 1.126-.76c-3.907 1.73-2.406.532-8.405 4.912a39.221 39.221 0 0 0-7.503 1.362c-.213.06-.428.11-.64.174a23.925 23.925 0 0 0-3.275 1.366l-.023.011c-.072.001-.143.004-.216.003h-.04a5.691 5.691 0 0 1-1.101-.127c.303-.319.63-.655.968-1l.036-.037.195-.199.024-.025A91.175 91.175 0 0 1 80.738 78.7c11.925-7.488 27.52-13.536 39.814-17.84 11.039-3.864 26.07-6.798 35.321-8.168 1.053-.156 2.05-.297 2.939-.411 2.79-.36 5.164-.623 7.478-.754a55.527 55.527 0 0 1 7.622.087c2.716.21 5.771.609 9.594 1.255.104.017.197.035.3.053 8.306 1.425 12.453 3.013 14.009 3.722q-.294 1.36-.696 2.693a33.52 33.52 0 0 1-.387 1.214c.357.168 1.028.518 1.83 1a26.862 26.862 0 0 1 1.143.729q.257.172.516.357a13.963 13.963 0 0 1 3.488 3.336l19.13 9.22a13.74 13.74 0 0 1 6.486 8.14l21.27 93.262a13.728 13.728 0 0 1-2.283 10.143zm-25.99 53.472c.93 3.51 1.73 7.246 2.306 9.842a15.578 15.578 0 0 1-3.196 13.652 10.197 10.197 0 0 1-5.146 3.164h.028c-4.493 1.09-11.375 1.375-14.323-.047 2.874-1.566 6.888-1.896 10.515-2.651a25.458 25.458 0 0 0 2.661-.676c-5.346-2.3-12.976-.602-19.665-.546a32.386 32.386 0 0 1-2.308-.051q-.089-.91-.175-1.828c-.14-1.482-.277-2.978-.419-4.474-.655-6.908-1.414-13.794-3.018-19.15a10.617 10.617 0 0 1 1.83-1.525c4.816-3.231 13.185-4.454 18.21-7.671 1.09-.588.426-.294 2.057-.73a8.283 8.283 0 0 1 7.526 4.171 9.429 9.429 0 0 1 .51.9 42.352 42.352 0 0 1 2.607 7.62zM63.675 265.4a226.775 226.775 0 0 0-.34-7.337q-.167-2.737-.4-5.494-.24-2.836-.549-5.683c-2.293-21.034-7.467-42.373-15.546-59.702.019-.173.044-.332.067-.498a15.33 15.33 0 0 1 .49-2.394c.797.114 1.588.26 2.374.425a37.03 37.03 0 0 1 10.031 3.684c.421.228.844.453 1.257.698 4.275-2.588 12.427-6.19 12.427-6.19l2.971-1.086c4.33 4.498 11.234 10.075 16.425 7.418 2.698-1.374 3.996-4.59 4.863-7.455a41.592 41.592 0 0 0 4.72 6.26c1.536 2.02 6.285 9.546 7.394 10.077 1.46.692 3.167-8.74 4.598-8.057.426 3.137.948 3.943 2.664 9.384 1.896 6.01 2.74 13.404 11.375 10.162a39.62 39.62 0 0 0 2.925-1.249q1.134-.534 2.257-1.13c.219-.117.436-.237.653-.356a1.69 1.69 0 0 0-.11 1.38 74.341 74.341 0 0 1 2.919 17.498c.136 1.902.247 3.808.361 5.713l.067 1.1c-14.31.799-30.484 2.289-42.643 3.877-.638.083-1.286.166-1.901.25a27.794 27.794 0 0 1-4.143-11.005 13.983 13.983 0 0 0-1.048-3.708c-.97-2.081-2.213-2.534-2.791-1.193-1.47 3.422-.806.331 3.84 15.167.947 3.166-1.698-3.66-4.693-4.74-1.176 3.697 1.09 3.574 2.844 5.972s-5.859-1.062-5.83 3.555c.24.038.501.07.779.098 4.102.405 12.002-.283 15.829 1.333q.2 2.346.43 4.665c.638 6.452 1.437 12.804 2.323 19.339q.21 1.55.428 3.117a6375.402 6375.402 0 0 0 1.493 10.646c-15.018-.779-25.155-7.727-36.052-13.199-.914-.458-1.83-.91-2.758-1.343zm-49.27-78.588a13.68 13.68 0 0 1-2.283-10.14l21.309-93.343a13.741 13.741 0 0 1 6.486-8.175l12.971-6.246c-1.355 1.852-2.72 4.581-5.12 9.916-2.967 7.27-3.166 7.583 2.844 12.768 2.003 2.798 4.78 7.066 6.251 9.352-3.314 9.655-.1 21.764 4.461 28.453a20.912 20.912 0 0 0 13.973 8.977 29.623 29.623 0 0 0 2.9 10.854c.473 1.039 1.924 3.287 3.306 5.754a38.989 38.989 0 0 0-4.69 1.972c-3.933 1.896-7.023 3.953-7.725 8.531a12.62 12.62 0 0 0 .206 4.707 29.24 29.24 0 0 0-3.126 1.37c-6.029 1.27-4.74.322-13.935 1.583-4.74.312-12.475 6.759-11.375 14.219.74 5.033 4.607 12.636 6.247 17.68 1.773 5.44 4.313 10.427 5.773 16.114a130.548 130.548 0 0 1 3.2 17.83zM103.66 36.165l1.004-.814c7.704-6.23 10.364-8.076 22.06-15.624 17.85-4.417 23.736-5.26 34.22-6h.038c13.528 2.313 20.523 5.052 28.638 9.773 6.996 4.057 9.754 7.906 12.124 16.04.37 4.142.161 7.033-3.318 13.347-.035.353-.097.701-.143 1.053a56.69 56.69 0 0 0-12.816-3.676c-.56-.1-1.132-.196-1.724-.288-3.586-.553-6.242-1.01-8.706-1.302.868-1.285 1.224-1.86 1.713-2.612a88.02 88.02 0 0 1 1.352-2.02c1.678-2.445 1.327-2.692 3.005-5.147a3.706 3.706 0 0 0 .702-3.29c-.882-2.843-.645-2.9-1.536-5.687s-1.336-2.692-2.218-5.517a3.792 3.792 0 0 0-2.123-2.626c-2.787-1.071-2.721-1.223-5.508-2.294l-5.527-2.18a5.657 5.657 0 0 0-3.659.218c-2.588 1.488-2.417 1.772-4.995 3.27s-2.712 1.27-5.29 2.759a4.228 4.228 0 0 0-1.848 3.033c-.433 2.902-.316 2.951-.738 5.802l-.011.075c-.24 1.606-.373 2.326-.515 3.131a82.02 82.02 0 0 0-.433 2.709 4.158 4.158 0 0 0 .862 2.89c.086.105-.142.475-.047.57 2.029 2.17 2.114 2.085 4.152 4.256 1.868 1.99 2.306 1.882 3.936 3.515a217.015 217.015 0 0 0-36.64 8.59c-12.257 3.877-31.197 12.703-38.478 17.234A122.144 122.144 0 0 0 65.348 87.46q-.893.781-1.819 1.605-1.072.954-2.192 1.968-.7.634-1.422 1.296-.962.88-1.963 1.806l-.91.844a78.022 78.022 0 0 1-.145-.237l-.088-.145a74.5 74.5 0 0 1-.372-.616c-.451-.754-.992-1.677-1.654-2.835-8.36-6.636-1.327-9.129.636-17.063 5.302-5.62 13.163-11.216 19.775-15.916 3.66-2.602 6.942-4.934 9.184-6.835a249.342 249.342 0 0 1 2.968-2.477c4.818-3.957 8.166-6.38 11.75-9.114a193.837 193.837 0 0 0 4.564-3.576zm-8.58 130.419a.87.87 0 0 0 .253.444c.32.28.838.169 1.388.077a9.38 9.38 0 0 0 1.659-.445l-.008-.023a23.54 23.54 0 0 0 1.899-.77c1.052-.472 2.085-.98 3.01-1.378q4.389-1.877 8.882-3.498c.653-.237 2.178-.725 4.148-1.34l.045.048c1.057-.33 2.242-.695 3.498-1.08l-.05-.047a1773.84 1773.84 0 0 1 6.025-1.838l.026.049c4.39-1.338 8.41-2.555 9.609-2.92 1.384-.418 2.749-.949 4.152-1.3h.003a10.044 10.044 0 0 0 2.397 1.474c.012.004.024.007.035.012-3.566 1.055-9.18 2.891-14.99 4.938a382.177 382.177 0 0 0-8.414 3.075 98.512 98.512 0 0 0-12.22 5.318 47.387 47.387 0 0 0-3.037 1.819c-.452.29-.907.576-1.35.882-.45.312-.885.645-1.324.973l-.016.012c-.072.053-.145.105-.217.159-.107.081-.218.157-.325.24-.18.137-.355.278-.532.418-.182.143-.357.294-.536.44-.383.313-.773.619-1.146.944a6.001 6.001 0 0 0-1.104 1.436 7.346 7.346 0 0 0-.405.845l-.034.082a21.095 21.095 0 0 0-.779 2.703l-.115.47a17.915 17.915 0 0 1-2.237 5.81c-1.311 1.968-2.505 2.65-4.048 2.483a8.098 8.098 0 0 1-2.388-.69 30.748 30.748 0 0 1-8.06-5.431l.054-.02a31.048 31.048 0 0 1-1.868-1.89l-.06.017a30.76 30.76 0 0 1-2.494-3.151c-.19-.275-.36-.55-.53-.835l-2.304.645a31.851 31.851 0 0 0 2.35 3.251c.22.264.46.547.718.844-8.44 3.062-12.49 7.106-15.183 4.522-1.547-.774-3.67-1.65-5.645-2.42a175.874 175.874 0 0 0-3.672-1.383 10.739 10.739 0 0 1 5.866-.956 26.27 26.27 0 0 1 3.156-1.34c3.104-1.13 7.358-2.34 11.845-3.615.198.364.404.724.621 1.078l2.304-.645c-.2-.362-.378-.734-.545-1.11l.01-.003a14.596 14.596 0 0 1-1.182-4.678c-.006-.075-.018-.15-.022-.225l-.017.006a14.417 14.417 0 0 1 .021-2.199c.275-4.076 2.645-6.152 5.963-7.754a25.34 25.34 0 0 1 4.594-1.77l.01.022c.297-.083.593-.17.894-.243.346-.077.671-.126.996-.174.193-.028.384-.055.57-.073.024-.003.047-.003.07-.005.173-.016.34-.026.507-.034a8.687 8.687 0 0 1 1.937.116l-.003-.007a7.038 7.038 0 0 1 1.501.43c3.238 1.387 4.763 5.096 5.845 9.208zm93.962 97.184h.028c-2.315.441-3.865 1.74-6.558 1.764-.141 0-.271.014-.419.008a120.109 120.109 0 0 0-.576-5.362c-.96-7.576-2.488-15.285-3.216-22.403 2.522-.133.948-.057 4.617-.209l1.526.19c2.938 5.08 4.135 12.703 4.489 19.627a102.148 102.148 0 0 1 .109 6.385zm-47.751-32.274q-.072-1.124-.142-2.25c-.466-7.43-.992-14.86-3.268-22.003a1.825 1.825 0 0 0-1.884-1.307 83.58 83.58 0 0 0 7.07-4.664 77.806 77.806 0 0 0 2.168-1.647 25.288 25.288 0 0 0 2.4-2.06c.977-1.11 1.403-1.669 2.133-2.474a4.452 4.452 0 0 0 3.635-.119 11.6 11.6 0 0 0 .425-.186l.11-.05.314-.15a6.207 6.207 0 0 1 3.251-.984c2.844.304 7.195 2.844 13.433 3.356s9.64.787 11.3-1.63c1.703-3.216 2.416-9.114 1.977-14.73l5.473 1.79-.237-3.555-1.446-5.77-.573-2.287-.3-.817 5.874 1.528 9.824 1.335c.048.242.091.494.13.77a7.44 7.44 0 0 1-.232 2.001c-.793 3.874-3.265 11.461-3.617 13.232-1.896 9.593-6.304 22.267-10.427 32.315-1.517 3.66-2.958 8.229-4.949 9.015-5.488 2.067-12.115-.303-16.76 2.588h.029c-1.668.981-3.67.624-6.585.123-.432-.074-.886-.15-1.36-.226-.153-.025-.3-.05-.458-.074-.149-.023-.305-.044-.457-.067a43.273 43.273 0 0 0-6.93-.496 4.173 4.173 0 0 0 1.011-2.9 3.948 3.948 0 0 0-.393-1.749 4.214 4.214 0 0 0-1.423-1.738 3.114 3.114 0 0 0-2.279-.504c-2.413.36-3.94 1.486-4.27 3.337a4.462 4.462 0 0 0-.071.787v.096a4.416 4.416 0 0 0 1.229 2.879q-1.802.071-3.669.161l-.056-.876zm-27.716-45.202a.86.86 0 0 0-.613.342c-.805.839-1.907 3.234-3.776 7.128-3.094-5.74-3.761-6.49-7.46-10.295l-.36-.37a94.783 94.783 0 0 0-2.021-3.033q-.456-.662-.881-1.274c.019-.12.039-.238.057-.358.101-.648.201-1.3.343-1.917a8.046 8.046 0 0 1 .34-1.144v-.142a11.006 11.006 0 0 1 1.944-1.26c.382-.245.814-.502 1.28-.766 4.126.903 9.02 1.49 12.02 2.017a17.438 17.438 0 0 1-.512 3.957 31.312 31.312 0 0 0-.465 4.055c-.018.437-.025.88-.015 1.332.003.12.01.242.015.362.02.45.049.905.104 1.366zm2.816-37.87a7.014 7.014 0 0 1 .417-5.13 16.959 16.959 0 0 1 5.526-7.128 22.353 22.353 0 0 1 8.816-3.555 73.94 73.94 0 0 1 9.48-1.052c2.398-.133 4.844.228 7.252.17s4.787.133 7.214.18 4.834-.075 7.223.115a31.503 31.503 0 0 1 8.105 1.782 20.277 20.277 0 0 1 7.213 3.99c2.76 2.55 5.764 6.854 4.049 10.731l-.008.016a6.65 6.65 0 0 1-.253.52 6.613 6.613 0 0 1-3.237 2.962 4.04 4.04 0 0 1-2.957-.317 2.161 2.161 0 0 1-1.28-2.28c.186-1.317-1.447-2.332-2.252-1.199a1.72 1.72 0 0 0-.147.25 4.07 4.07 0 0 1-.764 1.083 5.336 5.336 0 0 1-8.023-.902 1.89 1.89 0 0 0-.175-.164 2.02 2.02 0 0 0-2.228-.13v.001a2.303 2.303 0 0 0-.441.378 4.937 4.937 0 0 1-.46.643c-2.371 2.834-7.584 2.66-9.399-.643-.433-.819-1.068-.857-1.5-.456a1.622 1.622 0 0 0-.472 1.063 2.242 2.242 0 0 1-.3.935 3.028 3.028 0 0 1-.495.642 4.699 4.699 0 0 1-1.883 1.1l-.053.019a3.84 3.84 0 0 1-1.771.148 4.964 4.964 0 0 1-1.067-.33l-.039-.017a9.418 9.418 0 0 1-3.093-2.35 18.945 18.945 0 0 1-.93-1.095.895.895 0 0 0-1.507-.116 1.725 1.725 0 0 0-.313.533 4.335 4.335 0 0 1-1.205 1.757l-.033.027a4.862 4.862 0 0 1-3.793 1.075 4.447 4.447 0 0 1-3.68-2.859 1.338 1.338 0 0 0-2.174-.621 1.264 1.264 0 0 0-.282.906 3.75 3.75 0 0 1-1.828 3.094 3.757 3.757 0 0 1-2.513.527 6.255 6.255 0 0 1-3.446-2.26 9.148 9.148 0 0 1-.401-.523c-.026-.037-.057-.072-.082-.108a9.279 9.279 0 0 1-.811-1.413zm59.152 121.498c-3.878.804-6.69 1.268-10.817 1.844-.062-.824-.122-1.647-.182-2.47q-.115-1.56-.221-3.117c-.414-6.005-.736-11.974-.863-17.953a244.718 244.718 0 0 1-.041-8.686 25.876 25.876 0 0 1 8.474-.948 56.809 56.809 0 0 1 1.375 6.7c.995 6.622 1.247 13.934 1.884 20.887q.144 1.574.321 3.117c.024.208.045.419.07.626zm26.02-99.517l-.715-.118-10.015-1.644-4.656-1.28-1.232-3.353c2.221.726 4.43 1.081 7.585 2.946 2.644.754 4.578 1.336 6.024 1.872a9.594 9.594 0 0 1 3.01 1.577zm-14.133 9.613l-3.482-1.832a33.636 33.636 0 0 0-.343-2.01c-1.344-6.566-4.567-11.438-10.005-8.803 1.535-2.247 4.436-3.337 6.303-6.105a16.33 16.33 0 0 0 2.193 1.501l1.423 3.436 2.233 5.396.278 1.39 1.352 6.788zm-53.356 22.67a50.45 50.45 0 0 1-2.243.945c-3.018 1.19-6.828 2.4-8.34 2.046a1.451 1.451 0 0 1-.547-.268 3.424 3.424 0 0 1-.983-1.88c-.114-.406-.225-.832-.366-1.255-.06-.177-.126-.362-.194-.55-1.169-3.23-3.428-8.059-3.598-12.636-.17-3.45-1.156-12.437 2.683-14.655h-.038a7.85 7.85 0 0 1 1.238-.377c.07-.016.14-.03.21-.044.13-.026.259-.062.391-.082l.916.083.24.022a59.142 59.142 0 0 1 15.632 5.687c2.522 1.375 3.972 3.081 7.792 3.375l-.057 1.526a6.213 6.213 0 0 1-.974.506c-2.068.882-4.823 1.015-6.79 2.006l.032.002a20.246 20.246 0 0 1 8.32 2.112l-.018.478c-.041 1.12-.084 2.236-.133 3.314-2.174 1.506-4.272 3.432-6.513 5.268a50.071 50.071 0 0 1-2.262 1.762 28.23 28.23 0 0 1-3.075 1.976c-.262.14-.605.31-1.007.497-.099.046-.21.095-.316.143zm7.807-28.452l.01-.038c6.347 2.817 14.403-1.085 20.847-1.722.062-.006.126-.017.188-.022-.574.37-1.118.77-1.66 1.172-2.14 1.589-4.09 3.355-6.246 4.914-5.991.303-9.262-.408-13.66-3.85.066-.189.512-.113.521-.454zm8.797 16.19a37.238 37.238 0 0 0-.432-2.078 13.363 13.363 0 0 1-.563-5.116 7.562 7.562 0 0 1 3.439-1.29c.06-.007.12-.023.182-.028 6.009.865 4.446 8.911-.4 8.992a5.369 5.369 0 0 1-2.226-.48zm11.798 1.53c-.527-.127-1.054-.253-1.579-.392a10.288 10.288 0 0 0 .099-2.037c-.006-.161-.01-.322-.018-.48a78.82 78.82 0 0 0-.026-.475 7.741 7.741 0 0 1 .172-2.875 3.807 3.807 0 0 1 .471-.278c1.37-.717 3.323-.794 5.19-.97.177-.016.355-.032.53-.051a10.77 10.77 0 0 0-6.873-.777 11.009 11.009 0 0 0-1.132-3.606l-.006-.016c.298-.13.59-.271.88-.417 3.028-1.528 5.683-3.834 8.639-5.492.36-.202.723-.396 1.093-.576.167-.081.338-.154.508-.23.167-.076.335-.152.505-.221a13.53 13.53 0 0 1 2.87-.837c2.54.161 1.526-.142 3.166.56v-.038c1.014.587 1.778 2.36 2.338 4.496a46.263 46.263 0 0 1 1.245 8.68c.152 3.195-.284 6.427-1.593 8.124-.067-.001-.135-.005-.203-.006a75.01 75.01 0 0 1-16.276-2.086zm-33.81-28.792a.948.948 0 0 0 .541.54l3.972 1.441a.948.948 0 0 0 .597 0 54.221 54.221 0 0 0 10.987-4.977l6.882-3.839h.047l3.602-2.339c.041-.002.082 0 .124-.002a8.767 8.767 0 0 0 4.654-1.48 14.396 14.396 0 0 1 1.754.058 1.031 1.031 0 0 1 .246.047l2.532.872a1.11 1.11 0 0 1 .293.161l5.991 5.015a.948.948 0 0 0 .503.209l1.28.123a.948.948 0 0 0 1.014-.834l.346-3.887a6.242 6.242 0 0 0 3.393.71 22.082 22.082 0 0 1-5.095 5.347c-9.252 6.494-23.31 12.39-35.358 8.352a47.418 47.418 0 0 1-11.33-5.505q1.331-.508 2.645-1.003zm.105 6.218c-4.37-1.023-11.072-1.346-12.892 2.57-3.184-.211-6.299-.458-9.224-.909 4.119-1.949 9.45-4.153 14.9-6.287a26.307 26.307 0 0 0 7.216 4.626zm16.22 59.721a3.274 3.274 0 0 1 .117-1.095 2.91 2.91 0 0 1 2.954-2.033 7.736 7.736 0 0 1 1.34.22 1.973 1.973 0 0 1 1.637 1.64 4.34 4.34 0 0 1 .075.984c-.066 2.028-.389 2.844-2.844 3.062-2.053.246-2.815-.36-3.112-1.53a6.73 6.73 0 0 1-.168-1.248zm5.213-188.983a.947.947 0 0 1-.123-.152 1.896 1.896 0 0 1-.389-1.488l.278-1.863.482-3.227.937-6.286a2.029 2.029 0 0 1 .948-1.431l10.03-5.82a2.2 2.2 0 0 1 .748-.256 2.057 2.057 0 0 1 1.014.151l10.807 4.162a1.981 1.981 0 0 1 1.185 1.26l3.441 10.978a1.981 1.981 0 0 1-.256 1.706l-4.855 7.103-1.657 2.424a2.308 2.308 0 0 1-1.498.863l-1.139.088a49.323 49.323 0 0 0-2.968.043c-2.2.095-4.745.333-7.96.741a2.025 2.025 0 0 1-1.119-.588l-7.785-8.28zm-62.043 55.54c.815 3.545 3.64 9.053-.863 9.176.062-5.524-3.662-9.936-8.584-11.83a68.843 68.843 0 0 1 8.688-4.351l.189-.04c-.154 3.426-.064 3.185.57 7.045zm-28.747.821c-.092.065-.184.128-.275.194.106-.123.22-.253.338-.387-.02.064-.037.128-.063.193zm80.473 217.684a95.584 95.584 0 0 1-25.231-3.936 289.347 289.347 0 0 1-9.57-37.82q-.286-1.55-.558-3.113-.271-1.55-.528-3.117c-1.298-7.841-2.377-15.938-3.307-24.506 13.46-2.427 27.092-4.124 40.761-4.02 4.38.174 8.781.296 13.127.867 1.58.207 3.152.47 4.714.821.089.578.169 1.155.244 1.733 1.108 8.445.872 16.798 1.538 25.105q.125 1.56.3 3.117c.02.187.038.373.06.56q.145 1.267.26 2.556c1.146 12.774.294 26.949 2.745 38.727a58.37 58.37 0 0 1-3.34.913 82.142 82.142 0 0 1-21.215 2.113zm35.324-16.165c-1.253.423-2.292.824-3.359 1.153a17.79 17.79 0 0 1-5.656.8c-.293-6.519-1.169-16.48-.95-22.685l.002-.066a13.719 13.719 0 0 0 2.971-.504c.505-.127 1.008-.257 1.517-.365l.026-.006c.134-.028.268-.05.403-.074a10.264 10.264 0 0 1 1.093-.15l.673.075c.815 6.996 3.602 14.125 3.252 21.822z" class="cls-3"/><path d="M103.366 164.508q4.38-1.896 8.882-3.498c.65-.226 2.158-.705 4.108-1.311l-.045-.048c-1.97.615-3.495 1.103-4.148 1.34q-4.493 1.62-8.882 3.498c-.925.398-1.958.906-3.01 1.377l.034.042c1.07-.477 2.12-.996 3.06-1.4zm-35.102-60.34a5.4 5.4 0 0 1 .959-.665 3.775 3.775 0 0 0-.96.665zm57.565 52.566c-2.009.61-4.094 1.245-6.026 1.838l.05.046c1.923-.59 4-1.225 6.002-1.835zm-9.95 15.216c1.82-3.916 8.522-3.593 12.892-2.57a26.307 26.307 0 0 1-7.216-4.626c-5.45 2.134-10.781 4.338-14.9 6.287 2.925.45 6.04.698 9.224.908zm21.091-3.271c12.05 4.038 26.107-1.858 35.36-8.352a22.082 22.082 0 0 0 5.094-5.347 6.242 6.242 0 0 1-3.393-.71l-.346 3.887a.948.948 0 0 1-1.014.834l-1.28-.123a.948.948 0 0 1-.503-.209l-5.99-5.015a1.11 1.11 0 0 0-.295-.16l-2.53-.873a1.031 1.031 0 0 0-.247-.047 14.396 14.396 0 0 0-1.754-.058 8.767 8.767 0 0 1-4.654 1.48c-.042.002-.083 0-.124.002l-3.602 2.339h-.047l-6.882 3.84a54.221 54.221 0 0 1-10.987 4.976.948.948 0 0 1-.597 0l-3.972-1.44a.948.948 0 0 1-.54-.541l-.381-.99q-1.312.493-2.645 1.002a47.418 47.418 0 0 0 11.33 5.505z" class="cls-4"/><path d="M160.982 89.544a204.889 204.889 0 0 1-20.777.39c1.181 2.887 2.24 5.655 4.482 7.838 1.479 1.44 4.351 3.195 2.93 7.195-.333.948-2.769 3.052-4.172 3.47-5.128 1.516-17.063.312-13.034-6.086 4.247.199 9.944 2.758 13.12-.323a64.95 64.95 0 0 1-2.097-3.591c-3.245 2.068-12.199 2.171-12.199-3.092 0-2.876 2.355-4.575 4.613-5.544-7.572-.18-14.699-.39-19.382-.257-1.785.05-3.907.029-6.195-.04l-.052.078-.023-.081c-5.614-.173-12.235-.637-17.525-1.065l.19 6.75c.788 3.904 2.304 7.727 2.466 12.18-1.555 2.559-6.294 2.872-9.574 2.701a48.598 48.598 0 0 0-.786-3.278 34.398 34.398 0 0 0-8.64-3.503c4.15 1.447 7.948 6.451 6.544 13.227-2.427-1.384-3.005-7.47-5.84-7.64-4.066-.247-3.327 7.896-3.308 12.655-2.844-2.531-3.29-10.352-1.232-14.362-1.841-.902-2.88.399-3.87 1.407-1.35 6.313-3.294 11.486-.26 17.716 2.688 3.246 6.19 5.41 10.187 5.012 3.678-.36 4.579-4.01 8.589-4.01.042.085.063.161.1.243a3.334 3.334 0 0 1 2.25 2.904c.324 2.306 1.21 19.953 11.311 33.548 1.596-.717 3.25-1.624 4.625-2.199 2.663-1.137 5.138-2.74 7.858-3.725.668-.24 1.602-.559 2.723-.93-4.412-4.904-8.696-10.208-8.922-16.541 4.045 5.615 7.768 10.898 12.173 15.486 1.167-.373 2.425-.77 3.74-1.18-2.984-.379-5.304-2.755-6.557-5.414 0-.067.152-.2.133-.266s0-.104-.057-.151c-1.157-2.768-.55-5.328.796-7.916 1.82-3.507 4.18-6.635 7.783-8.342a31.928 31.928 0 0 1 7.849-2.976 62.019 62.019 0 0 1 8.38-1.119c2.843-.142 5.687.607 8.436.578 2.57 0 5.205-.748 7.859-.748s5.223.73 7.82 1.014a34.657 34.657 0 0 1 7.67 1.422 24.458 24.458 0 0 1 6.787 3.318 19.556 19.556 0 0 1 5.422 5.412 12.094 12.094 0 0 1 1.413 3.995c7.762-14.112 11.311-32.415 10.389-50.217-.186-3.654-.282-7.294-.567-10.71a64.141 64.141 0 0 1-7.121 2.027c-9.1 2.142-14.058 3.555-26.448 4.74zm11.385 30.287a4.739 4.739 0 0 0-.455 1.83l.048.303-.256.17c-4.266 2.73-9.46 6.077-16.665 6.077a22.853 22.853 0 0 1-2.38-.123h-.151l-.114-.095a6.038 6.038 0 0 1-.777-7.773l.12-.162.008-.018c.216-2.206 1.286-11.39 4.1-10.58a4.436 4.436 0 0 1 3.222 4.143s-6.677 4.329-7.322 6.437v.01l.298-.4.36.617a6.634 6.634 0 0 1 .617 1.896c.36 1.479.644 2.38 1.895 2.597 3.318.569 7.148-1.28 10.22-2.768.985-.474 1.924-.929 2.748-1.251 1.422-2.503.408-3.612-1.118-5.261a22.2 22.2 0 0 1-.948-1.08l-.673-.797c-3.726-4.474-8.37-10.077-8.19-16.713v-.227l.189-.142a1.346 1.346 0 0 1 1.318-.275c.787.341 1.023 1.422 1.194 2.237a2.783 2.783 0 0 0 .104.455c1.944 4.57 6.835 10.399 10.58 14.494a14.562 14.562 0 0 0 1.175 1.08c.749.646 1.346 1.157 1.479 1.698a6.332 6.332 0 0 1-.626 3.621zm5.622-18.779c2.92-1.28 7.962-.256 10.55-1.896-.577-1.585-1.252-3.076-1.845-4.643l.243 1.62c-1.185.397-8.892 4.947-8.294-.788.496-4.766 5.067-6.516 6.6-6.973a19.892 19.892 0 0 1-.022-2.648l.029.038h.512c2.436 5.052 4.54 10.427 7.583 14.863-2.057 4.74-15.565 9.025-15.356.427z" class="cls-4"/><path d="M90.552 88.426c-.065.65-.118 1.3-.154 1.952a20.53 20.53 0 0 0 .463 4.807l-.19-6.749z"/><path d="M101.425 272.406c-.146-1.042-.291-2.083-.433-3.112q-.217-1.566-.428-3.117c-.886-6.535-1.685-12.887-2.323-19.339l-14.118-1.802-2.141-4.196c-.278-.027-.539-.06-.78-.098-.028-4.617 7.584-1.157 5.83-3.555s-4.019-2.275-2.843-5.972c2.995 1.08 5.64 7.906 4.692 4.74-4.645-14.836-5.308-11.745-3.839-15.167.578-1.34 1.82-.888 2.791 1.193l1.93.285 4.597 5.925.565 8.253c12.159-1.588 28.333-3.078 42.643-3.877l-.067-1.1c-.114-1.905-.225-3.81-.361-5.713a74.341 74.341 0 0 0-2.918-17.498 1.69 1.69 0 0 1 .11-1.38c-.218.12-.435.24-.654.355q-1.121.596-2.257 1.131a39.62 39.62 0 0 1-2.925 1.25c-8.636 3.241-9.48-4.153-11.375-10.163-1.716-5.441-2.238-6.247-2.664-9.384-1.431-.683-3.138 8.75-4.598 8.057-1.109-.53-5.858-8.057-7.394-10.077a41.592 41.592 0 0 1-4.72-6.26c-.867 2.865-2.165 6.08-4.863 7.455-5.191 2.657-12.096-2.92-16.425-7.418l-2.97 1.086s-8.153 3.602-12.428 6.19c-.413-.245-.836-.47-1.257-.698l-1.606.698s9.863 38.856 9.634 64.603q-.022 2.477-.176 4.775a56.507 56.507 0 0 1-.462 4.417 36.909 36.909 0 0 1-.76 3.848c10.898 5.472 21.035 12.42 36.052 13.199l-1.06-7.534zm42.647-41.687a4.207 4.207 0 0 1-.284-1.39q-.002-.047-.001-.095a4.462 4.462 0 0 1 .07-.787c.33-1.851 1.858-2.978 4.271-3.337a3.114 3.114 0 0 1 2.279.504 4.214 4.214 0 0 1 1.423 1.738 3.948 3.948 0 0 1 .393 1.75 4.173 4.173 0 0 1-1.01 2.9 43.273 43.273 0 0 1 6.929.495c.152.023.308.044.457.067l.458.074c.474.077.928.152 1.36.226 2.914.5 4.917.858 6.585-.123h-.029c4.645-2.891 11.272-.521 16.76-2.588 1.99-.786 3.432-5.356 4.949-9.015 4.123-10.048 8.531-22.722 10.427-32.315.353-1.77 2.824-9.358 3.617-13.232l-14.723-2.53 1.446 5.77.237 3.555-5.473-1.79c.439 5.616-.274 11.514-1.978 14.73-1.658 2.417-5.062 2.142-11.3 1.63s-10.588-3.052-13.432-3.356a6.207 6.207 0 0 0-3.25.983c-.105.051-.21.102-.315.151l-.11.05c-.14.064-.282.127-.425.186a4.452 4.452 0 0 1-3.635.119c-.73.805-1.156 1.365-2.133 2.474a25.288 25.288 0 0 1-2.4 2.06 77.787 77.787 0 0 1-2.168 1.647 83.58 83.58 0 0 1-7.07 4.664 1.825 1.825 0 0 1 1.884 1.307c2.276 7.143 2.802 14.573 3.268 22.003q.07 1.126.142 2.25l.056.876q1.866-.09 3.669-.161a4.228 4.228 0 0 1-.944-1.49zm2.208-21.743c2.73-.407 4.17 2.455 4.095 4a4.19 4.19 0 0 1-4.005 4.368l-.09.003a4.237 4.237 0 0 1-4.34-4.132l-.002-.106c0-2.322 1.602-3.725 4.342-4.133zm-46.935-28.912a94.902 94.902 0 0 1 2.02 3.033l.36.37-2.105-3.308zm13.617 6.57a.86.86 0 0 1 .613-.342c-.055-.46-.085-.915-.104-1.366l-.093-.032z" class="cls-5"/><path d="M78.828 180.955l-.054.02a30.748 30.748 0 0 0 8.06 5.43 8.098 8.098 0 0 0 2.388.691 8.235 8.235 0 0 1-2.313-.69 30.749 30.749 0 0 1-8.08-5.45z" class="cls-5"/><path d="M87.402 88.653a68.843 68.843 0 0 0-8.688 4.35c4.922 1.895 8.646 6.307 8.584 11.831 4.503-.123 1.678-5.63.863-9.176-.634-3.86-.724-3.62-.57-7.044z" class="cls-6"/><path d="M87.738 156.953a7.018 7.018 0 0 1 1.498.423 7.038 7.038 0 0 0-1.5-.43zm9.002 10.171a9.386 9.386 0 0 0 1.659-.445 22.835 22.835 0 0 0 1.906-.77l-.034-.043a23.21 23.21 0 0 1-1.9.771l.009.023a9.38 9.38 0 0 1-1.66.445c-.55.092-1.067.203-1.387-.077.318.303.845.19 1.407.096zm-11.503-39.59c1.839 4.136-3.458 5.515-4.015 8.554a24.648 24.648 0 0 0 .806 5.394 77.923 77.923 0 0 0 4.349 12.549 10.428 10.428 0 0 1 2.864.286c4.74 1.176 7.262 5.404 8.532 9.707.042.206-.136.4-.187.47.396-.15.802-.323 1.212-.508-10.101-13.595-10.986-31.242-11.31-33.548a3.334 3.334 0 0 0-2.251-2.904zm66.508-7.494l-.007.018.006-.009zm7.322-6.437a4.436 4.436 0 0 0-3.223-4.143c-2.813-.81-3.883 8.374-4.099 10.58.645-2.108 7.322-6.437 7.322-6.437zm-92.447-5.03a5.102 5.102 0 0 1-.812.707 7.867 7.867 0 0 1 2.456-5.112 3.775 3.775 0 0 1 .959-.665 6.348 6.348 0 0 1 5.103-.217 34.398 34.398 0 0 1 8.641 3.503c-1.248-4.44-3.368-8.543-7.935-9.045-8.048-.882-13.935 5.782-14.295 12.75-.253 4.747 1.907 11.307 5.624 15.795-3.033-6.23-1.09-11.403.26-17.716z" class="cls-7"/><path d="M73.951 175.096c-.204-.37-.385-.748-.554-1.132l-.01.003c.167.376.345.748.545 1.11l-2.304.645a23.223 23.223 0 0 1-.621-1.078c-4.487 1.275-8.741 2.485-11.845 3.616a26.27 26.27 0 0 0-3.156 1.34 10.739 10.739 0 0 0-5.866.955c.984.358 2.29.844 3.672 1.382 1.975.77 4.098 1.647 5.645 2.42 2.694 2.585 6.744-1.459 15.183-4.521-.258-.297-.498-.58-.717-.844a31.851 31.851 0 0 1-2.351-3.251l2.303-.645c.17.285.341.56.531.835a30.76 30.76 0 0 0 2.493 3.151l.06-.018a30.757 30.757 0 0 1-2.477-3.133c-.19-.275-.36-.55-.531-.835zm-6.297 83.38q.154-2.295.176-4.775c.23-25.747-9.634-64.603-9.634-64.603l1.606-.698a37.03 37.03 0 0 0-10.031-3.684 36.961 36.961 0 0 0-2.374-.425 15.33 15.33 0 0 0-.49 2.394c-.023.166-.048.325-.067.498 8.08 17.33 13.253 38.668 15.546 59.702q.31 2.848.549 5.683.233 2.757.4 5.494a227 227 0 0 1 .34 7.336c.928.433 1.844.885 2.758 1.343a36.909 36.909 0 0 0 .76-3.848 56.52 56.52 0 0 0 .46-4.417zm22.109-36.21l-1.93-.285a13.983 13.983 0 0 1 1.048 3.708 27.794 27.794 0 0 0 4.143 11.005c.615-.084 1.263-.167 1.901-.25l-.565-8.253zm8.478 24.572q-.23-2.321-.43-4.665c-3.827-1.616-11.727-.928-15.83-1.333l2.142 4.196z" class="cls-8"/><path d="M173.268 245.29c-2.492 1.445-6.526 3.36-9.808 2.934.127 5.979.45 11.948.863 17.953q.107 1.557.22 3.117c.061.823.12 1.646.183 2.47 4.127-.576 6.94-1.04 10.817-1.844-.025-.207-.046-.418-.07-.626q-.177-1.543-.321-3.117c-.637-6.953-.89-14.265-1.884-20.887zm10.68-67.106l3.482 1.832-.048-.24-3.777-3.603c.134.655.246 1.328.343 2.01zm-.509-20.554a3.42 3.42 0 0 0 2.006 1.806l-.085-.054z" class="cls-5"/><path d="M173.268 245.29a56.809 56.809 0 0 0-1.375-6.7 25.876 25.876 0 0 0-8.474.948c-.041 2.901-.021 5.795.04 8.686 3.283.425 7.317-1.49 9.81-2.934zm11.677-81.282l1.232 3.354 4.656 1.279 10.015 1.644.716.118a9.594 9.594 0 0 0-3.01-1.577c-1.446-.536-3.38-1.118-6.024-1.872-3.155-1.865-5.364-2.22-7.585-2.946zm18.013 9.582a13.5 13.5 0 0 0-.13-.77l-9.824-1.335-5.874-1.528.3.817.573 2.287 14.723 2.53a7.44 7.44 0 0 0 .232-2.002z" class="cls-8"/><path d="M154.803 272.41q-.075-1.572-.135-3.116-.062-1.576-.11-3.117c-.395-12.634-.13-23.232.023-27.66-4.346-.57-8.746-.692-13.126-.865-13.67-.105-27.301 1.592-40.762 4.019.93 8.568 2.009 16.665 3.307 24.506q.259 1.564.528 3.117.273 1.562.558 3.112a289.347 289.347 0 0 0 9.57 37.82 95.584 95.584 0 0 0 25.231 3.937 75.393 75.393 0 0 0 18.725-7.557 234.788 234.788 0 0 1-3.809-34.197z" class="cls-9"/><path d="M164.442 311.137c-2.451-11.778-1.599-25.953-2.745-38.727q-.116-1.288-.26-2.556c-.022-.187-.04-.373-.06-.56q-.174-1.558-.3-3.117c-.666-8.307-.43-16.66-1.538-25.105a78.038 78.038 0 0 0-.244-1.733 52.713 52.713 0 0 0-4.714-.821c-.153 4.427-.418 15.025-.023 27.659q.048 1.54.11 3.117.06 1.543.135 3.115a234.788 234.788 0 0 0 3.81 34.197 75.393 75.393 0 0 1-18.726 7.557 82.142 82.142 0 0 0 21.215-2.113 58.327 58.327 0 0 0 3.34-.913z" class="cls-10"/><path d="M184.444 237.756l-1.526-.19c-3.669.152-2.095.076-4.617.209.728 7.118 2.257 14.827 3.216 22.403a61.067 61.067 0 0 1 7.416-2.795c-.354-6.924-1.551-14.547-4.489-19.627zm34.761-6.067a8.34 8.34 0 0 0-7.526-4.171c-1.63.436-.967.142-2.057.73-5.025 3.217-13.394 4.44-18.21 7.671.764 4.476 2.38 14.085 2.945 18.472.126.98.202 1.708.202 2.05a4573.103 4573.103 0 0 0 5.885.31c6.7.351 16.896.874 18.212.874 0 0 4.361-8.363 3.666-17.416a42.352 42.352 0 0 0-2.606-7.62 9.429 9.429 0 0 0-.51-.9zm-10.197 4.33q1.217-.11 2.5-.15a14.324 14.324 0 0 0-3.265 1.11c-4.52 2.116-8.274 5.986-13.106 5.678 2.898-4.088 7.715-6.078 13.871-6.637zm-10.705 10.363a5.948 5.948 0 0 1 4.171-2.169 19.241 19.241 0 0 1 4.127-.175 31.122 31.122 0 0 1 3.645.424 27.816 27.816 0 0 1 3.945.972c-1.646.176-3.391.38-5.169.562a107.79 107.79 0 0 1-4.271.362 55.67 55.67 0 0 1-4.08.116 36.316 36.316 0 0 1-2.368-.092zm4.696 7.166a130.9 130.9 0 0 1-3.808-.219c-.383-.027-.776-.053-1.144-.084a5.03 5.03 0 0 1 2.213-1.257 14.56 14.56 0 0 1 4.4-.523 32.508 32.508 0 0 1 11.265 2.226c-3.978.08-8.645.044-12.926-.143z" class="cls-9"/><path d="M218.656 257.625c-1.316 0-11.511-.523-18.212-.874a7022.15 7022.15 0 0 1-3.822-.201l-2.063-.11c0-.341-.076-1.069-.202-2.049-.566-4.387-2.181-13.996-2.945-18.472a10.617 10.617 0 0 0-1.83 1.524c1.604 5.357 2.363 12.243 3.018 19.151.142 1.496.28 2.992.419 4.474q.086.918.175 1.828c.752.047 1.525.058 2.308.051 6.69-.056 14.319-1.754 19.665.546a25.458 25.458 0 0 1-2.66.676c-3.628.755-7.642 1.085-10.516 2.651 2.948 1.422 9.83 1.138 14.323.047h-.028a10.197 10.197 0 0 0 5.146-3.164 15.578 15.578 0 0 0 3.196-13.652c-.576-2.596-1.376-6.332-2.306-9.842.695 9.053-3.666 17.416-3.666 17.416zm-37.139 2.553c.227 1.798.433 3.59.576 5.362.148.006.278-.007.42-.008 2.692-.024 4.242-1.323 6.557-1.764h-.028c.014-.872.014-1.784.003-2.716a93.242 93.242 0 0 0-.112-3.669 61.067 61.067 0 0 0-7.416 2.795z" class="cls-10"/><path d="M113.936 179.177a17.438 17.438 0 0 0 .511-3.957c-2.999-.526-7.893-1.114-12.019-2.017-.466.264-.898.52-1.28.765a11.006 11.006 0 0 0-1.944 1.261v.116c2.41.956 10.823 4.156 14.732 3.832zm-15.415-.745c-.018.12-.038.239-.057.358q.423.61.88 1.274l.276.095zm14.857 6.462l.093.032c-.005-.12-.012-.242-.015-.362z" class="cls-9"/><path d="M113.456 184.564a20.83 20.83 0 0 1 .015-1.332 31.312 31.312 0 0 1 .465-4.055c-3.91.324-12.321-2.876-14.732-3.832v.026a8.046 8.046 0 0 0-.34 1.144c-.142.617-.242 1.27-.343 1.917l1.099 1.727 2.105 3.308c3.7 3.806 4.367 4.556 7.461 10.295 1.87-3.894 2.97-6.29 3.776-7.128l.416-1.74zm-14.09-8.832l.132-.067c-.17.228-.493.455-.132.067z" class="cls-10"/><path d="M180.548 185.922a46.263 46.263 0 0 0-1.245-8.68 4.911 4.911 0 0 0-.38-.097 6.977 6.977 0 0 0-.816-.133 22.043 22.043 0 0 0-5.787.435 10.667 10.667 0 0 0-2.526.734 3.848 3.848 0 0 0-.525.312 3.017 3.017 0 0 0-.572.519 3.214 3.214 0 0 0-.719 1.601 6.587 6.587 0 0 0-.04 1.826c.048.473.123.907.16 1.332.01.098.015.196.02.294a3.509 3.509 0 0 1-.529 2.058l-.009.017a2.54 2.54 0 0 1-.677.76 2.5 2.5 0 0 1-.935.416 13.935 13.935 0 0 1-1.533.193 4.722 4.722 0 0 0-1.983.603 1.433 1.433 0 0 0-.221.176 1.349 1.349 0 0 0-.269.32 1.566 1.566 0 0 0-.193.573 5.18 5.18 0 0 0 .707 2.773 75.01 75.01 0 0 0 16.276 2.086c.068.001.136.005.203.006 1.309-1.697 1.745-4.93 1.593-8.124zm-27.244-4.01c-.062.005-.121.02-.182.027l.023.101a5.415 5.415 0 0 1 .116 1.592 6.063 6.063 0 0 1-2.038 3.926 8.721 8.721 0 0 1-.977.788c.14.593.288 1.264.432 2.079a5.369 5.369 0 0 0 2.227.479c4.845-.08 6.408-8.128.399-8.992z" class="cls-2"/><path fill="#ee3e3b" d="M161.769 189.181a1.566 1.566 0 0 1 .193-.573 1.349 1.349 0 0 1 .269-.32 1.433 1.433 0 0 1 .22-.176 4.722 4.722 0 0 1 1.984-.603 13.935 13.935 0 0 0 1.533-.193 2.5 2.5 0 0 0 .934-.416 2.54 2.54 0 0 0 .678-.76l.01-.017a3.509 3.509 0 0 0 .527-2.058 5.926 5.926 0 0 0-.018-.294c-.038-.425-.113-.86-.161-1.332a6.587 6.587 0 0 1 .04-1.826 3.214 3.214 0 0 1 .72-1.601 3.017 3.017 0 0 1 .57-.519 3.848 3.848 0 0 1 .526-.312 10.667 10.667 0 0 1 2.526-.734 22.043 22.043 0 0 1 5.787-.435 6.977 6.977 0 0 1 .817.133c.13.03.26.06.38.097-.56-2.136-1.325-3.909-2.34-4.497v.038c-1.64-.701-.625-.398-3.165-.559a13.53 13.53 0 0 0-2.87.837c-.17.07-.338.145-.505.22-.17.077-.34.15-.508.23-.37.18-.733.375-1.093.576-2.956 1.659-5.611 3.965-8.638 5.492a18.2 18.2 0 0 1-.88.418l.005.015a11.009 11.009 0 0 1 1.132 3.606 10.77 10.77 0 0 1 6.873.778c-.175.019-.353.035-.53.051-1.867.176-3.82.253-5.19.97a3.807 3.807 0 0 0-.47.277 7.741 7.741 0 0 0-.172 2.875l.025.476c.009.158.012.319.018.48a10.288 10.288 0 0 1-.099 2.037c.525.139 1.052.265 1.58.392a5.18 5.18 0 0 1-.708-2.773zm-31.359-8.956c1.214 0 7.5 1.45 7.945 2.37 2.152 4.398-3.602 3.422 2.483 6.74a8.502 8.502 0 0 0 6.23.482c.104-.029.209-.058.312-.09l.018-.478a20.246 20.246 0 0 0-8.32-2.112l-.031-.002c1.966-.99 4.721-1.124 6.789-2.006a6.213 6.213 0 0 0 .974-.506l.057-1.526c-3.82-.294-5.27-2-7.792-3.375a59.142 59.142 0 0 0-15.632-5.687l-.24-.022-.916-.083c-.132.02-.26.056-.391.082-.07.014-.14.028-.21.044a7.85 7.85 0 0 0-1.238.377h.038c-3.84 2.218-2.854 11.205-2.683 14.655.17 4.577 2.43 9.406 3.598 12.635q-.557-6.96-1.171-13.915c-.834-9.195 2.209-7.583 10.18-7.583zm-7.466 25.184q-.444-.867-.983-1.88a3.424 3.424 0 0 0 .983 1.88zm30.316-21.777a5.415 5.415 0 0 0-.115-1.592 5.658 5.658 0 0 0-.024-.1 7.562 7.562 0 0 0-3.438 1.29 13.363 13.363 0 0 0 .563 5.116 8.721 8.721 0 0 0 .977-.788 6.063 6.063 0 0 0 2.038-3.926z"/><path d="M208.243 236.98a14.324 14.324 0 0 1 3.265-1.11q-1.285.038-2.5.15c-6.156.559-10.973 2.55-13.871 6.637 4.832.308 8.586-3.562 13.106-5.678zm.779 9.016c1.778-.183 3.523-.386 5.169-.562a27.816 27.816 0 0 0-3.945-.972 31.122 31.122 0 0 0-3.645-.424 19.241 19.241 0 0 0-4.127.175 5.948 5.948 0 0 0-4.17 2.17c.77.059 1.564.083 2.367.091 1.335.015 2.702-.03 4.08-.116 1.427-.09 2.858-.217 4.271-.362zm-4.362 5.469a14.56 14.56 0 0 0-4.4.523 5.03 5.03 0 0 0-2.213 1.257c.368.031.76.057 1.144.084 1.214.088 2.487.161 3.808.219 4.281.187 8.948.224 12.927.143a32.508 32.508 0 0 0-11.266-2.226z" class="cls-3"/><path d="M171.59 276.262h-.038a3.532 3.532 0 0 0-1.387-.011c-.135.024-.27.046-.403.074l-.026.006c-.509.108-1.012.238-1.517.365a13.43 13.43 0 0 1-2.973.57c-.219 6.205.657 16.166.95 22.685a17.79 17.79 0 0 0 5.656-.8c.937-.303 1.874-.657 2.98-1.03.35-7.706-2.436-14.826-3.242-21.86z" class="cls-10"/><path d="M155.02 178.537c2.156-1.558 4.106-3.324 6.247-4.913a9.758 9.758 0 0 1 1.289-1.02l.182-.13c-6.444.636-14.5 4.539-20.847 1.722l-.01.038c-.01.341-.455.265-.521.455 4.398 3.44 7.669 4.152 13.66 3.848z" class="cls-7"/><path d="M108.27 89.503l-.074-.002.023.08z"/><path d="M185.752 171.598l-2.233-5.395-1.423-3.436a16.33 16.33 0 0 1-2.193-1.501c-1.867 2.768-4.768 3.858-6.303 6.105 5.438-2.635 8.661 2.237 10.005 8.802l3.777 3.604-1.352-6.787z" class="cls-10"/><path d="M69.223 103.503a5.4 5.4 0 0 0-.96.665 7.867 7.867 0 0 0-2.455 5.112 5.102 5.102 0 0 0 .813-.707c.99-1.008 2.029-2.309 3.87-1.407-2.057 4.01-1.612 11.83 1.232 14.362-.019-4.759-.758-12.902 3.309-12.655 2.834.17 3.412 6.256 5.84 7.64 1.403-6.776-2.395-11.78-6.546-13.227a6.348 6.348 0 0 0-5.103.217z" class="cls-3"/><path fill="#f1f1f2" d="M99.94 42.791a35.4 35.4 0 0 0-1.001 1.716 21.158 21.158 0 0 1-3.596 3.958c-3.452 3.223-8.445 7.181-11.192 8.555-4.171 2.085-11.375 6.067-15.167 9.858s-8.513 8.541-7.878 10.873a101.487 101.487 0 0 0 4.242 9.71 122.144 122.144 0 0 1 15.845-12.108c7.28-4.531 26.22-13.357 38.478-17.234a217.015 217.015 0 0 1 36.64-8.59c-1.63-1.633-2.068-1.525-3.936-3.515-2.038-2.17-2.123-2.086-4.152-4.256-.095-.095.133-.465.047-.57a4.158 4.158 0 0 1-.862-2.89 82.02 82.02 0 0 1 .433-2.709c.142-.805.276-1.525.515-3.13l.01-.076c.423-2.85.307-2.9.739-5.802a4.228 4.228 0 0 1 1.848-3.033c2.579-1.489 2.711-1.261 5.29-2.759s2.407-1.782 4.995-3.27a5.657 5.657 0 0 1 3.66-.218l5.526 2.18c2.787 1.071 2.72 1.223 5.508 2.294a3.792 3.792 0 0 1 2.123 2.626c.882 2.825 1.327 2.73 2.218 5.517s.654 2.844 1.536 5.687a3.706 3.706 0 0 1-.702 3.29c-1.677 2.455-1.327 2.702-3.005 5.147a89.229 89.229 0 0 0-1.352 2.02c-.488.753-.845 1.327-1.713 2.612 2.464.292 5.12.749 8.706 1.302.592.092 1.165.189 1.724.288a56.69 56.69 0 0 1 12.816 3.676c.046-.352.108-.7.143-1.053 3.48-6.314 3.688-9.205 3.318-13.348-2.37-8.133-5.128-11.982-12.124-16.039-8.114-4.72-15.11-7.46-28.638-9.773h-.038c-10.484.74-16.37 1.583-34.22 6-11.696 7.548-14.356 9.394-22.06 15.624-.517.8-1.06 1.64-1.598 2.48a282.408 282.408 0 0 0-3.126 4.96z"/><path d="M59.414 96.48c.026-.066.043-.13.063-.194-.118.134-.232.264-.338.387.091-.066.183-.13.275-.194zM89.9 81.935l.568-.35.224-.137.23-.14.164-.1a120.816 120.816 0 0 1 11.084-6.104c1.073-.5 2.094-.936 3.025-1.277.716-.367 1.429-.73 2.146-1.088a127.88 127.88 0 0 1 5.448-2.575q.811-.36 1.658-.718a121.93 121.93 0 0 1 8.008-3.05 165.84 165.84 0 0 1 4.173-1.369c5.525-1.735 12.34-3.592 21.225-5.704a116.649 116.649 0 0 1 9.814-1.43q2.04-.214 4.102-.374c2.156-.163 4.335-.277 6.537-.359 2.731-.1 5.501-.15 8.325-.155.204 0 .404-.004.609-.004 1.56 0 2.957.037 4.25.1.749.037 1.465.082 2.138.139.384.032.753.068 1.116.107.237.025.476.05.704.078.244.03.48.061.715.094h.005a40.955 40.955 0 0 1 10.362 2.942 4.3 4.3 0 0 1 .202.09c.139-.403.263-.808.387-1.215q.405-1.332.696-2.693c-1.556-.71-5.703-2.297-14.008-3.722-.104-.018-.197-.036-.301-.053-3.823-.646-6.878-1.045-9.594-1.255a55.527 55.527 0 0 0-7.622-.087c-2.314.131-4.688.395-7.478.754-.889.114-1.886.255-2.939.411-9.251 1.37-24.282 4.304-35.32 8.168-12.296 4.304-27.89 10.352-39.815 17.84A91.175 91.175 0 0 0 62.31 93.271l-.024.025-.195.199-.036.036a87.82 87.82 0 0 0-.968 1.001 5.691 5.691 0 0 0 1.1.127h.04c.073 0 .145-.002.217-.003l.023-.01a23.925 23.925 0 0 1 3.275-1.367c.212-.064.427-.114.64-.174a39.221 39.221 0 0 1 7.503-1.362c5.999-4.38 4.498-3.182 8.405-4.912 1.478-.99 4.275-2.834 7.56-4.865z" class="cls-5"/><path fill="#a6a8ab" d="M84.378 51.332c-2.242 1.901-5.525 4.233-9.184 6.835-6.612 4.7-14.473 10.296-19.775 15.916-1.963 7.934-8.996 10.427-.636 17.063a163.139 163.139 0 0 0 2.026 3.45l.088.146.146.237c.304-.283.61-.568.909-.844q1.002-.927 1.963-1.806.72-.66 1.422-1.296 1.122-1.016 2.192-1.968.927-.826 1.819-1.605a101.487 101.487 0 0 1-4.242-9.709c-.635-2.332 4.086-7.08 7.878-10.873S79.98 59.105 84.15 57.02c2.747-1.374 7.74-5.332 11.192-8.555a21.158 21.158 0 0 0 3.596-3.958c.194-.371.546-.97 1.001-1.716.814-1.335 1.96-3.142 3.126-4.96.539-.84 1.081-1.681 1.598-2.48-.326.264-.659.533-1.004.814a193.921 193.921 0 0 1-4.563 3.577c-3.585 2.732-6.933 5.156-11.75 9.113a249.73 249.73 0 0 0-2.969 2.477z"/><path d="M148.27 231.879c2.455-.218 2.778-1.034 2.844-3.062a4.34 4.34 0 0 0-.075-.984 1.973 1.973 0 0 0-1.637-1.64 7.736 7.736 0 0 0-1.34-.22 2.91 2.91 0 0 0-2.954 2.033 3.274 3.274 0 0 0-.118 1.095 6.73 6.73 0 0 0 .168 1.247c.297 1.171 1.059 1.777 3.112 1.53zm-2.673-3.981c0-.027.006-.049.007-.075.037-.892.712-1.29 1.661-1.29a1.672 1.672 0 0 1 .912.24 1.265 1.265 0 0 1 .567 1.172 2.065 2.065 0 0 1-.273 1.108 1.215 1.215 0 0 1-1.101.56 1.821 1.821 0 0 1-1.773-1.715z" class="cls-14"/><path d="M148.47 229.053a2.065 2.065 0 0 0 .274-1.108 1.265 1.265 0 0 0-.567-1.172 1.672 1.672 0 0 0-.912-.24c-.949 0-1.624.398-1.66 1.29-.002.026-.008.048-.008.074a1.821 1.821 0 0 0 1.773 1.716 1.215 1.215 0 0 0 1.1-.56z" class="cls-15"/><path d="M146.28 217.347l.09-.003a4.19 4.19 0 0 0 4.005-4.367c.076-1.546-1.365-4.408-4.095-4-2.74.407-4.342 1.81-4.342 4.132l.001.106a4.237 4.237 0 0 0 4.34 4.132zm-.114-7.499c2.265.2 3.119.806 3.052 2.844s-.388 2.844-2.844 3.071c-2.654.304-3.128-.824-3.28-2.796a2.843 2.843 0 0 1 3.072-3.119z" class="cls-3"/><path d="M146.374 215.763c2.456-.227 2.778-1.033 2.844-3.07s-.787-2.646-3.052-2.845a2.843 2.843 0 0 0-3.072 3.119c.152 1.972.626 3.1 3.28 2.796zm-2.625-3.99c0-.948.692-1.365 1.668-1.365s1.479.464 1.479 1.412-.398 1.668-1.375 1.668a1.744 1.744 0 0 1-1.772-1.715z" class="cls-14"/><path d="M145.521 213.488c.977 0 1.375-.72 1.375-1.668s-.503-1.412-1.479-1.412-1.668.417-1.668 1.365a1.744 1.744 0 0 0 1.772 1.715z" class="cls-15"/><path d="M178.643 95.345c-.598 5.735 7.11 1.185 8.294.787l-.243-1.619a21.331 21.331 0 0 1-1.45-6.14c-1.534.456-6.105 2.206-6.601 6.972zm-49.408 0c0 5.263 8.954 5.16 12.2 3.092a29.318 29.318 0 0 1-3.27-8.54 1412.8 1412.8 0 0 1-4.317-.096c-2.258.97-4.613 2.668-4.613 5.544z" class="cls-7"/><path d="M185.25 85.762l-.029-.038a19.892 19.892 0 0 0 .023 2.648 21.331 21.331 0 0 0 1.45 6.141c.593 1.567 1.268 3.058 1.845 4.643-2.588 1.64-7.63.616-10.55 1.896-.209 8.598 13.3 4.313 15.356-.427-3.043-4.436-5.147-9.81-7.583-14.863z" class="cls-3"/><path fill="#1a1715" d="M204.02 66.48a6.363 6.363 0 0 0-.311-.508 13.963 13.963 0 0 0-3.488-3.336q-.26-.185-.516-.357a26.256 26.256 0 0 0-1.143-.729 21.947 21.947 0 0 0-1.83-1 4.25 4.25 0 0 0-.202-.09 40.955 40.955 0 0 0-10.362-2.94l-.005-.001a42.9 42.9 0 0 0-.715-.094c-.228-.028-.467-.053-.704-.078a50.838 50.838 0 0 0-3.255-.246c-1.292-.063-2.69-.1-4.25-.1-.204 0-.404.003-.608.004a238.54 238.54 0 0 0-8.325.155c-2.202.082-4.381.196-6.537.36q-2.063.155-4.102.373c-3.3.347-6.566.807-9.814 1.43-8.884 2.112-15.7 3.97-21.225 5.704-1.478.464-2.865.92-4.173 1.37a122.27 122.27 0 0 0-8.008 3.049q-.848.359-1.658.718a127.886 127.886 0 0 0-5.448 2.575c-.717.359-1.43.72-2.146 1.088-.931.34-1.952.777-3.025 1.277a120.816 120.816 0 0 0-11.084 6.103c-.054.034-.11.067-.165.1l-.23.141-.223.138c-.19.116-.381.233-.568.35l-.05.03a255.11 255.11 0 0 0-7.56 4.865c-.715.48-1.125.76-1.125.76a328.827 328.827 0 0 0 2.395.228l.808.075c.927.084 2.018.182 3.242.287l1.461.124.131.01.355.03.556.046.439.035.12.01c5.29.428 11.91.892 17.524 1.065l.075.002c2.289.07 4.41.092 6.195.04 4.683-.132 11.81.079 19.382.258 1.428.034 2.872.066 4.317.095a12.09 12.09 0 0 1-.117-.974 7.278 7.278 0 0 1 .307-3.009v-.019a40.26 40.26 0 0 1 1.85 4.041 204.889 204.889 0 0 0 20.777-.391c12.39-1.185 17.348-2.597 26.448-4.74a64.141 64.141 0 0 0 7.121-2.027c.497-.18.965-.366 1.416-.556.183-.076.37-.152.545-.231.187-.083.364-.17.543-.255.54-.257 1.056-.525 1.546-.808a25.248 25.248 0 0 0 5.418-4.342c2.531-4.976 2.531-6.55 0-10.105zm-78.937 19.983c-4.114 0-6.939-.313-12.048-.616L110.6 85.7l-1.59-.097-5.42-.328-8.566-.518a67.617 67.617 0 0 1 5.479-3.541 67.612 67.612 0 0 1 3.318-1.825 51.232 51.232 0 0 1 8.968-3.83c.092-.03.182-.065.274-.094l1.234.886 2.025 1.454 5.19 3.729 7.306 5.25s.436.142-3.735-.323zm7.176.341l-6.913-6.068-4.418-3.878-3.713-3.259 5.309-1.791 3.98 3.919 3.996 3.933 7.258 7.144z"/><path d="M128.818 86.785l-7.307-5.25-5.19-3.728-2.024-1.454-1.234-.886c-.092.029-.182.064-.274.093a51.232 51.232 0 0 0-8.968 3.831 67.579 67.579 0 0 0-3.319 1.825 67.615 67.615 0 0 0-5.478 3.54l8.566.52 5.42.327 1.59.097 2.435.147c5.11.303 7.934.616 12.048.616 4.171.465 3.735.322 3.735.322zm1.682-7.125l-3.995-3.933-3.981-3.919-5.309 1.791 3.713 3.259 4.418 3.878 6.913 6.068h5.499L130.5 79.66z" class="cls-10"/><path d="M143.53 102.028c-3.175 3.081-8.872.522-13.12.323-4.028 6.398 7.907 7.602 13.035 6.086 1.403-.418 3.84-2.522 4.171-3.47 1.422-4-1.45-5.754-2.929-7.195-2.241-2.183-3.3-4.951-4.482-7.837a40.26 40.26 0 0 0-1.85-4.04v.018a7.278 7.278 0 0 0-.307 3.01c.026.319.064.643.118.973a29.318 29.318 0 0 0 3.268 8.54 64.929 64.929 0 0 0 2.097 3.592zm27.984 12.485a14.562 14.562 0 0 1-1.175-1.08c-3.745-4.096-8.636-9.926-10.58-14.495a2.783 2.783 0 0 1-.104-.455c-.17-.815-.407-1.896-1.194-2.237a1.346 1.346 0 0 0-1.318.275l-.19.142v.228c-.18 6.635 4.465 12.238 8.19 16.712l.674.796c.313.389.635.74.948 1.08 1.526 1.65 2.54 2.76 1.118 5.262-.824.322-1.763.777-2.749 1.251-3.07 1.489-6.9 3.337-10.218 2.768-1.252-.218-1.536-1.118-1.896-2.597a6.634 6.634 0 0 0-.617-1.896l-.36-.616-.299.399-.006.008-.121.162a6.038 6.038 0 0 0 .777 7.773l.114.095h.151a22.853 22.853 0 0 0 2.38.123c7.204 0 12.399-3.346 16.665-6.076l.256-.171-.048-.304a4.739 4.739 0 0 1 .455-1.829 6.332 6.332 0 0 0 .626-3.621c-.133-.54-.73-1.052-1.479-1.697z" class="cls-3"/><path fill="#d59e29" d="M85.801 156.837a11.31 11.31 0 0 0-.506.034c-.024.002-.047.002-.071.005a12.19 12.19 0 0 0-.57.073c-.325.048-.65.097-.996.174-.3.073-.597.16-.894.243a25.34 25.34 0 0 0-4.585 1.767c-3.318 1.602-5.65 3.678-5.963 7.754a14.41 14.41 0 0 0-.023 2.174c.005.075.016.15.022.225a14.596 14.596 0 0 0 1.182 4.678c.17.384.35.763.554 1.132.17.285.341.56.53.835a30.757 30.757 0 0 0 2.479 3.133 30.76 30.76 0 0 0 1.868 1.891 30.749 30.749 0 0 0 8.082 5.45 8.235 8.235 0 0 0 2.312.691c1.543.167 2.737-.515 4.048-2.482a17.915 17.915 0 0 0 2.237-5.811l.115-.47a21.095 21.095 0 0 1 .779-2.703c.01-.028.023-.055.034-.082a7.346 7.346 0 0 1 .405-.845 6.001 6.001 0 0 1 1.104-1.436c.373-.325.763-.63 1.146-.943.18-.146.354-.298.536-.441.177-.14.353-.281.532-.419.107-.082.218-.158.325-.239.072-.054.145-.105.217-.16l.016-.011c.44-.328.875-.66 1.325-.973.442-.306.897-.591 1.35-.882a46.503 46.503 0 0 1 3.037-1.819 98.512 98.512 0 0 1 12.22-5.318 316.24 316.24 0 0 1 3.63-1.356 394.367 394.367 0 0 1 4.783-1.719c5.81-2.047 11.424-3.883 14.99-4.938-.011-.005-.023-.008-.035-.012a10.044 10.044 0 0 1-2.397-1.474h-.003c-1.403.351-2.768.882-4.152 1.3-1.198.366-5.22 1.583-9.61 2.92a1653.113 1653.113 0 0 0-9.498 2.915c-1.95.607-3.459 1.086-4.108 1.312q-4.503 1.602-8.882 3.498c-.94.404-1.991.923-3.061 1.4-.635.283-1.275.555-1.906.77a9.386 9.386 0 0 1-1.66.446c-.56.094-1.088.207-1.406-.096a.87.87 0 0 1-.252-.444c-1.082-4.112-2.607-7.82-5.844-9.208a7.018 7.018 0 0 0-1.498-.423 8.687 8.687 0 0 0-1.938-.116zm-11.869 8.211c.303-2.882 5.242-4.417 7.631-5.119a25.982 25.982 0 0 1 2.085-.58 13.947 13.947 0 0 1 1.753-.294c.194-.019.387-.033.578-.04.2-.007.397-.008.59.001.036.002.07.007.104.009 1.628.1 2.966.813 3.1 2.885a2.524 2.524 0 0 1-.306 1.482c-.013.023-.023.048-.037.071a2.53 2.53 0 0 1-1.307 1.054c-.019.01-.038.016-.056.025a28.92 28.92 0 0 1-6.523 2.25 16.69 16.69 0 0 1-3.697.36c-.326.05-.654.07-.982.09a11.365 11.365 0 0 1-1.673-.002c-.019-.002-.037 0-.056-.002-1.033-.294-1.318-1.166-1.204-2.19zm.597 6.787a1.422 1.422 0 0 1 1.432-2.455 4.613 4.613 0 0 0 2.6.336c.308-.024.604-.055.87-.08a19.983 19.983 0 0 0 5.146-1.28c1.117-.421 1.818.61 1.697 1.555a1.43 1.43 0 0 1-.938 1.195 21.032 21.032 0 0 1-7.513 1.571 6.786 6.786 0 0 1-3.294-.842z"/><path d="M99.498 175.665l-.132.067c-.36.388-.038.16.132-.067zm-13.224-5.755c.122-.944-.58-1.975-1.696-1.553a19.983 19.983 0 0 1-5.148 1.28c-.265.024-.56.055-.87.08a4.613 4.613 0 0 1-2.6-.337 1.422 1.422 0 0 0-1.43 2.455 6.786 6.786 0 0 0 3.293.842 21.032 21.032 0 0 0 7.513-1.571 1.43 1.43 0 0 0 .938-1.195zm-11.138-2.672c.019.002.037 0 .056.002a11.365 11.365 0 0 0 1.673.002c.328-.02.657-.04.982-.09a16.69 16.69 0 0 0 3.697-.36 28.92 28.92 0 0 0 6.523-2.25l.056-.025a2.53 2.53 0 0 0 1.307-1.054c.014-.023.024-.048.037-.071a2.524 2.524 0 0 0 .305-1.482c-.133-2.072-1.47-2.785-3.099-2.885-.035-.002-.068-.007-.103-.009a7.457 7.457 0 0 0-.59 0c-.192.006-.385.02-.58.039a13.947 13.947 0 0 0-1.752.294 25.9 25.9 0 0 0-2.085.58c-2.389.702-7.328 2.237-7.631 5.12-.114 1.023.17 1.895 1.204 2.189z" class="cls-3"/><path d="M163.861 33.75l-.509.79.279.849.849.339.799-.467.135-.917-.628-.671-.925.077zm3.508-.235a.457.457 0 0 0 .365.521l3.187.656a6.636 6.636 0 0 0-.3-1.973 6.78 6.78 0 0 0-.864-1.822l-2.268 2.368a.429.429 0 0 0-.12.25zm-4.912-5.131a6.52 6.52 0 0 0-2.914 1.849l2.796 1.675a.409.409 0 0 0 .273.07.457.457 0 0 0 .42-.473l-.064-3.248a4.106 4.106 0 0 0-.51.127zm3.555 3.24l2.493-2.075a6.675 6.675 0 0 0-3.687-1.436l.446 3.212a.422.422 0 0 0 .113.26.47.47 0 0 0 .635.039zm-5.05 2.939a.484.484 0 0 0 .223-.177.456.456 0 0 0-.107-.625l-2.587-1.976a6.57 6.57 0 0 0-.56 3.916zm6.464 1.675v.002l-.093.016a.504.504 0 0 0-.171.062.446.446 0 0 0-.175.6l1.475 2.916a6.56 6.56 0 0 0 2.236-3.305zm-1.26 4.724c.068-.02.138-.029.206-.05l.506-.186-1.818-2.727a.42.42 0 0 0-.218-.174.414.414 0 0 0-.201.002l-.017.003a.439.439 0 0 0-.355.25l-.731 1.615-.608 1.342a6.52 6.52 0 0 0 3.236-.075zm-4.992-.59l.511-1.57.49-1.505a.446.446 0 0 0 0-.282.452.452 0 0 0-.463-.322h-.133l-2.81.704-.301.075a6.655 6.655 0 0 0 2.706 2.9z" class="cls-5"/><path d="M159.23 49.114c3.214-.408 5.758-.646 7.959-.74a49.323 49.323 0 0 1 2.968-.044l1.139-.088a2.308 2.308 0 0 0 1.498-.863l1.657-2.424 4.855-7.103a1.981 1.981 0 0 0 .256-1.706l-3.44-10.977a1.981 1.981 0 0 0-1.186-1.261l-10.807-4.162a2.057 2.057 0 0 0-1.014-.151 2.2 2.2 0 0 0-.749.256l-10.029 5.82a2.029 2.029 0 0 0-.948 1.431l-.937 6.286-.482 3.227-.278 1.863a1.896 1.896 0 0 0 .389 1.488.947.947 0 0 0 .123.152l.121.129 7.785 8.279a2.025 2.025 0 0 0 1.12.588zm1.248-6.658l-.024-.042.08-.248a8.591 8.591 0 0 1-3.997-4.26l-.226.056-.039-.023a.552.552 0 0 0-.32-.08 5.586 5.586 0 0 0-1.043.405 4.001 4.001 0 0 0-.235.115 2.762 2.762 0 0 1-.337.156l-.179.05a.738.738 0 0 1-.08.01.789.789 0 0 1-.877-.423c-.011-.022-.03-.038-.039-.062a.8.8 0 0 1 .558-.972l.03-.004h.17a4.455 4.455 0 0 1 .606-.094 5.922 5.922 0 0 0 1.094-.273.733.733 0 0 0 .201-.244l.02-.038.216-.085c-.024-.112-.038-.225-.057-.338a8.377 8.377 0 0 1 .905-5.451l-.176-.139-.008-.042a.7.7 0 0 0-.13-.299 6.277 6.277 0 0 0-.974-.577 5.033 5.033 0 0 1-.568-.279l-.148-.099a.804.804 0 0 1-.26-1.098.731.731 0 0 1 .585-.319.866.866 0 0 1 .521.152l.151.105a4.013 4.013 0 0 1 .474.433 6.532 6.532 0 0 0 .924.692.444.444 0 0 0 .291-.01l.05-.018.209.12a8.325 8.325 0 0 1 5.063-2.936v-.224l.03-.032a.622.622 0 0 0 .15-.285 6.419 6.419 0 0 0-.158-1.122 4.15 4.15 0 0 1-.135-.616v-.177a.79.79 0 0 1 .503-.822l-.056-.069.2-.025h.013a.788.788 0 0 1 .804.772 1.385 1.385 0 0 1 0 .19v.608a5.76 5.76 0 0 0 0 1.155.407.407 0 0 0 .183.229l.054.032v.239a8.525 8.525 0 0 1 5.425 2.122l.19-.167.048.005a.584.584 0 0 0 .327-.064 6.463 6.463 0 0 0 .77-.814 4.56 4.56 0 0 1 .393-.49l.14-.129a.485.485 0 0 1 .044-.04.756.756 0 0 1 .975 1.155l-.129.12a5.644 5.644 0 0 1-.518.372 5.939 5.939 0 0 0-.932.726.414.414 0 0 0-.051.273l.008.054-.19.197a8.437 8.437 0 0 1 1.761 5.591l.22.048.025.04a.541.541 0 0 0 .243.212 6.536 6.536 0 0 0 1.12.095 4.675 4.675 0 0 1 .634 0h.182a.792.792 0 0 1 .708.86l-.004.029a.773.773 0 0 1-.916.602l-.138.002a2.76 2.76 0 0 1-.394-.11 3.785 3.785 0 0 0-.233-.074 6.032 6.032 0 0 0-1.13-.243.444.444 0 0 0-.26.13l-.032.032h-.233a8.468 8.468 0 0 1-3.281 4.871l.08.164.02.044-.017.045a.427.427 0 0 0 0 .307 5.936 5.936 0 0 0 .359.555c.089.124.18.246.277.362a5.283 5.283 0 0 1 .385.502l.099.167a.698.698 0 0 1 .07.12.756.756 0 1 1-1.376.628 2.247 2.247 0 0 0-.088-.147 3.048 3.048 0 0 1-.16-.378c-.027-.07-.053-.143-.085-.217a5.808 5.808 0 0 0-.513-1.027.398.398 0 0 0-.257-.12l-.053-.004-.137-.202a8.326 8.326 0 0 1-1 .382 8.508 8.508 0 0 1-4.824.028l-.106.236-.052.013a.439.439 0 0 0-.201.11 4.528 4.528 0 0 0-.39 1.149 5.495 5.495 0 0 1-.144.617.357.357 0 0 1-.038.089.282.282 0 0 0-.025.052.26.26 0 0 1-.014.058.752.752 0 0 1-.165.261.775.775 0 0 1-.566.255.765.765 0 0 1-.256-.044.79.79 0 0 1-.46-.828.76.76 0 0 1 .044-.212.562.562 0 0 0 .067-.136l.011-.049a5.036 5.036 0 0 1 .31-.552 7.039 7.039 0 0 0 .485-1.041.585.585 0 0 0-.071-.286z" class="cls-5"/><path d="M159.754 44.335l-.011.049a.562.562 0 0 1-.067.136.76.76 0 0 0-.044.212.79.79 0 0 0 .46.828.765.765 0 0 0 .256.044.775.775 0 0 0 .566-.255.752.752 0 0 0 .165-.26.26.26 0 0 0 .014-.059.282.282 0 0 1 .025-.052.357.357 0 0 0 .038-.088 5.495 5.495 0 0 0 .144-.618 4.528 4.528 0 0 1 .39-1.15.439.439 0 0 1 .2-.109l.053-.013.106-.236a8.508 8.508 0 0 0 4.825-.028 8.326 8.326 0 0 0 .999-.382l.137.202.053.005a.398.398 0 0 1 .257.119 5.808 5.808 0 0 1 .513 1.027c.032.074.058.146.085.217a3.048 3.048 0 0 0 .16.378s.063.097.088.147a.756.756 0 1 0 1.376-.627.698.698 0 0 0-.07-.12l-.099-.168a5.283 5.283 0 0 0-.385-.502 5.882 5.882 0 0 1-.277-.362 5.936 5.936 0 0 1-.36-.555.427.427 0 0 1 0-.307l.018-.045-.02-.044-.08-.164a8.468 8.468 0 0 0 3.28-4.871h.234l.033-.033a.444.444 0 0 1 .259-.13 6.032 6.032 0 0 1 1.13.244c.082.023.158.049.233.074a2.76 2.76 0 0 0 .394.11l.138-.002a.773.773 0 0 0 .916-.602l.004-.028a.792.792 0 0 0-.708-.86H175a4.675 4.675 0 0 0-.634 0 6.536 6.536 0 0 1-1.12-.096.541.541 0 0 1-.243-.212l-.026-.04-.219-.048a8.437 8.437 0 0 0-1.761-5.59l.19-.198-.008-.054a.414.414 0 0 1 .051-.273 5.939 5.939 0 0 1 .932-.726 5.644 5.644 0 0 0 .518-.373l.129-.119a.756.756 0 0 0-.975-1.156.485.485 0 0 0-.045.041l-.139.13a4.56 4.56 0 0 0-.394.49 6.463 6.463 0 0 1-.77.814.584.584 0 0 1-.327.063l-.047-.005-.19.167a8.525 8.525 0 0 0-5.425-2.122v-.239l-.054-.032a.407.407 0 0 1-.184-.229 5.76 5.76 0 0 1 .001-1.155v-.608a1.385 1.385 0 0 0 0-.19.788.788 0 0 0-.804-.772h-.014l-.199.025.056.069a.79.79 0 0 0-.504.822l.001.177a4.15 4.15 0 0 0 .135.617 6.419 6.419 0 0 1 .157 1.122.622.622 0 0 1-.15.284l-.029.032v.224a8.325 8.325 0 0 0-5.063 2.937l-.21-.121-.049.018a.444.444 0 0 1-.291.01 6.532 6.532 0 0 1-.925-.692 4.013 4.013 0 0 0-.473-.433l-.151-.105a.866.866 0 0 0-.521-.152.731.731 0 0 0-.585.319.804.804 0 0 0 .26 1.098l.148.1a5.033 5.033 0 0 0 .567.278 6.277 6.277 0 0 1 .975.577.7.7 0 0 1 .13.3l.008.041.176.139a8.377 8.377 0 0 0-.905 5.451c.02.113.033.226.057.338l-.217.085-.02.038a.733.733 0 0 1-.2.244 5.922 5.922 0 0 1-1.094.273 4.455 4.455 0 0 0-.606.094h-.17l-.03.004a.8.8 0 0 0-.558.972c.01.024.028.04.039.062a.789.789 0 0 0 .878.423.738.738 0 0 0 .079-.01l.18-.05a2.762 2.762 0 0 0 .336-.155c.073-.039.147-.077.235-.116a5.586 5.586 0 0 1 1.043-.405.552.552 0 0 1 .32.08l.04.023.225-.055a8.591 8.591 0 0 0 3.997 4.259l-.08.248.023.042a.585.585 0 0 1 .072.286 7.039 7.039 0 0 1-.485 1.04 5.036 5.036 0 0 0-.31.553zm10.003-13.438a6.78 6.78 0 0 1 .864 1.822 6.636 6.636 0 0 1 .3 1.973l-3.187-.656a.457.457 0 0 1-.365-.521.429.429 0 0 1 .12-.25zm-1.295 8.937l-1.475-2.916a.446.446 0 0 1 .175-.6.504.504 0 0 1 .17-.062l.094-.016v-.002l3.272.291a6.56 6.56 0 0 1-2.236 3.305zm-3.198-8.51l-.446-3.211a6.675 6.675 0 0 1 3.687 1.436l-2.493 2.075a.47.47 0 0 1-.635-.039.422.422 0 0 1-.113-.26zm-.995 6.756a.439.439 0 0 1 .355-.25l.017-.003a.414.414 0 0 1 .2-.002.42.42 0 0 1 .22.174l1.817 2.727-.506.186c-.068.021-.138.03-.206.05a6.52 6.52 0 0 1-3.236.075l.608-1.342zm1.01-2.819l-.799.467-.849-.34-.279-.848.509-.79.925-.077.628.67zm-3.7 1.432h.133a.452.452 0 0 1 .463.322.446.446 0 0 1 0 .282l-.49 1.505-.51 1.57a6.655 6.655 0 0 1-2.707-2.9l.302-.075zm1.033-4.715a.409.409 0 0 1-.273-.07l-2.796-1.675a6.52 6.52 0 0 1 2.914-1.849 4.106 4.106 0 0 1 .512-.127l.063 3.248a.457.457 0 0 1-.42.473zm-4.12-.193l2.586 1.976a.456.456 0 0 1 .107.625.484.484 0 0 1-.223.177l-3.031 1.138a6.57 6.57 0 0 1 .56-3.916z" class="cls-9"/><path fill="#fff100" d="M177.638 137.795l-.001-.001.001.001zm4.048 10.73l-.008.016zm-21.794.247a4.957 4.957 0 0 1-.43.614 4.937 4.937 0 0 0 .459-.643 1.878 1.878 0 0 1 .19-.187c-.018.015-.038.026-.055.042a1.892 1.892 0 0 0-.164.174zm-36.258 3.408a3.772 3.772 0 0 1-2.164.552q-.185-.009-.368-.036a6.235 6.235 0 0 1-3.417-2.231 6.255 6.255 0 0 0 3.446 2.26 3.835 3.835 0 0 0 4.303-3.2 3.795 3.795 0 0 0 .038-.421 1.264 1.264 0 0 1 .282-.906 1.241 1.241 0 0 0-.31.934 3.787 3.787 0 0 1-1.81 3.047zm11.793-1.602c-.01.008-.017.018-.026.026l.032-.028a4.335 4.335 0 0 0 1.206-1.757 1.725 1.725 0 0 1 .313-.533 1.694 1.694 0 0 0-.342.562 4.32 4.32 0 0 1-1.183 1.73zm12.354-.303a2.97 2.97 0 0 1-.486.652 3.028 3.028 0 0 0 .495-.642 2.242 2.242 0 0 0 .3-.935 1.622 1.622 0 0 1 .471-1.063 1.511 1.511 0 0 0-.5 1.092 2.23 2.23 0 0 1-.28.896zm23.007-.715a4.07 4.07 0 0 0 .764-1.082 1.72 1.72 0 0 1 .147-.25 1.606 1.606 0 0 0-.175.278 4.084 4.084 0 0 1-.736 1.054z"/><path d="M117.685 150.465a6.235 6.235 0 0 0 3.417 2.231q.183.027.368.036a3.795 3.795 0 0 0 3.974-3.6 1.241 1.241 0 0 1 .31-.934 1.338 1.338 0 0 1 2.173.621 4.447 4.447 0 0 0 3.681 2.86 4.862 4.862 0 0 0 3.793-1.075c.01-.008.017-.018.026-.026a4.32 4.32 0 0 0 1.184-1.73 1.694 1.694 0 0 1 .341-.562.895.895 0 0 1 1.507.116c.282.36.596.73.93 1.095a9.418 9.418 0 0 0 3.093 2.35l.039.016a4.964 4.964 0 0 0 1.067.33 3.84 3.84 0 0 0 1.771-.147l.053-.018a4.699 4.699 0 0 0 1.883-1.1 2.97 2.97 0 0 0 .486-.653 2.23 2.23 0 0 0 .28-.896 1.511 1.511 0 0 1 .5-1.092c.433-.401 1.068-.362 1.501.456 1.815 3.303 7.028 3.477 9.4.643a4.957 4.957 0 0 0 .43-.614 1.892 1.892 0 0 1 .164-.174c.017-.016.037-.027.055-.042a1.864 1.864 0 0 1 .25-.19l.001-.001a2.02 2.02 0 0 1 2.228.129 1.89 1.89 0 0 1 .175.164 5.336 5.336 0 0 0 8.023.902 4.084 4.084 0 0 0 .736-1.054 1.606 1.606 0 0 1 .175-.279c.805-1.133 2.438-.118 2.251 1.199a2.161 2.161 0 0 0 1.281 2.28 4.04 4.04 0 0 0 2.957.317 6.613 6.613 0 0 0 3.237-2.961c.092-.17.177-.343.253-.521l.008-.016c1.715-3.877-1.29-8.18-4.048-10.73l-.001-.001a20.277 20.277 0 0 0-7.213-3.99 31.503 31.503 0 0 0-8.105-1.782c-2.389-.19-4.797-.067-7.223-.114s-4.807-.237-7.214-.18-4.854-.304-7.252-.17a73.94 73.94 0 0 0-9.48 1.051 22.353 22.353 0 0 0-8.816 3.555 16.959 16.959 0 0 0-5.526 7.129 7.014 7.014 0 0 0-.417 5.128 9.279 9.279 0 0 0 .81 1.413c.026.037.056.071.083.108.128.177.26.353.4.523z" class="cls-6"/><path fill="none" stroke="#221f1f" stroke-linecap="round" stroke-linejoin="round" stroke-width="0" d="M160.362 148.364a1.868 1.868 0 0 1 .416-.183"/></svg>