<?xml version="1.0" encoding="utf-8"?>
<!-- Generator: Adobe Illustrator 25.2.0, SVG Export Plug-In . SVG Version: 6.00 Build 0)  -->
<svg version="1.1" id="Layer_1" xmlns="http://www.w3.org/2000/svg" xmlns:xlink="http://www.w3.org/1999/xlink" x="0px" y="0px"
	 viewBox="0 0 2024 1560" style="enable-background:new 0 0 2024 1560;" xml:space="preserve">
<style type="text/css">
	.st0{opacity:0.17;}
	.st1{fill:#D23933;}
	.st2{fill:#EE3E3B;}
	.st3{fill:#221F1F;}
	.st4{fill:#F0D6B7;}
	.st5{fill:#345161;}
	.st6{fill:#6D6C6D;}
	.st7{fill:#DBD8D7;}
	.st8{fill:#F6E3CC;}
	.st9{fill:#49728B;}
	.st10{fill:#FFFFFF;}
	.st11{fill:none;stroke:#D23933;stroke-width:2;}
	.st12{fill:#81AFC3;}
	.st13{fill:#1C1818;}
	.st14{enable-background:new    ;}
</style>
<rect width="2024" height="1560"/>
<g id="g3393_1_" class="st0">
	<path id="path22_1_" class="st1" d="M1507.5,755.9c0,284.1-225.1,514.4-502.9,514.4c-277.7,0-502.9-230.3-502.9-514.4
		c0-284.1,225.1-514.4,502.9-514.4C1282.3,241.6,1507.5,471.9,1507.5,755.9"/>
	<path id="path24_1_" class="st2" d="M522.2,883.3c0,0-36.4-536.4,457.9-551.7l-34.5-57.5l-268.2,90l-76.6,88.1l-67.1,128.4
		l-38.3,149.4l11.5,99.6"/>
	<path id="path26_1_" class="st3" d="M660.2,405C571.9,495.3,517.3,620,517.3,757.9l0,0c0,137.9,54.6,262.5,142.8,352.8l0,0
		c88.3,90.3,209.9,146,344.4,146l0,0c134.5,0,256.2-55.7,344.4-146l0,0c88.2-90.3,142.8-214.9,142.8-352.8l0,0
		c0-137.9-54.6-262.5-142.8-352.8l0,0c-88.3-90.2-209.9-145.9-344.4-146l0,0C870.1,259.1,748.4,314.8,660.2,405L660.2,405z
		 M637.8,1132.5c-93.8-95.9-151.7-228.4-151.7-374.6l0,0c0-146.2,58-278.7,151.7-374.6l0,0c93.7-95.9,223.5-155.4,366.8-155.4l0,0
		c143.2,0,273,59.4,366.8,155.4l0,0c93.8,95.9,151.8,228.4,151.7,374.6l0,0c0,146.2-58,278.7-151.7,374.6l0,0
		c-93.7,95.9-223.5,155.4-366.8,155.4l0,0C861.3,1287.9,731.6,1228.4,637.8,1132.5L637.8,1132.5"/>
	<path id="path28_1_" class="st4" d="M1216.3,758.8l-76.6,11.5l-103.5,11.5l-67.1,1.9l-65.1-1.9l-49.8-15.3l-44.1-47.9l-34.5-97.7
		l-7.7-21.1l-46-15.3l-26.8-44.1L676,477.2l21.1-55.6l49.8-17.2l40.2,19.2l19.2,42.1l23-3.8l7.7-9.6l-7.7-44.1l-1.9-55.6l11.5-76.6
		l-0.4-43.8l34.9-55.8l61.3-44.1l107.3-46l118.8,17.2l103.5,74.7l47.9,76.6l30.7,55.6l7.7,137.9l-23,118.8l-42.1,105.4l-40.2,55.6"
		/>
	<path id="path30_1_" class="st5" d="M1151.1,1090.2l-274,11.5v46l23,160.9l-11.5,13.4l-191.6-65.1l-13.4-23l-19.2-216.5
		l-44.1-130.3l-9.6-30.7l153.3-105.4l47.9-19.2l42.1,51.7l36.4,32.6l42.2,13.4l19.2,5.7l23,99.6l17.2,21.1l44.1-15.3l-30.7,59.4
		l166.7,78.5L1151.1,1090.2"/>
	<path id="path32_1_" class="st6" d="M697.1,421.6l49.8-17.2l40.2,19.2l19.2,42.1l23-3.8l5.7-23l-11.5-44.1L835,289.4l-9.6-57.5
		l34.5-40.2l74.7-59.4l-21.1-28.7l-105.4,51.7l-44.1,34.5l-24.9,53.6l-38.3,51.7l-11.5,61.3L697.1,421.6"/>
	<path id="path34_1_" class="st7" d="M775.7,241.5c0,0,28.7-70.9,143.7-105.4s5.7-24.9,5.7-24.9l-124.5,47.9l-47.9,47.9l-21.1,38.3
		L775.7,241.5"/>
	<path id="path36_1_" class="st7" d="M718.2,408.2c0,0-40.2-134.1,113-153.3l-5.7-23l-105.4,24.9l-30.7,99.6l7.7,65.1L718.2,408.2"
		/>
	<path id="path38_1_" class="st8" d="M779.5,586.4l25.1-24.3c0,0,11.3,1.3,13.2,14.7c1.9,13.4,7.7,134.1,90,199.2
		c7.5,5.9-61.3-9.6-61.3-9.6l-61.3-95.8"/>
	<path id="path40_1_" class="st8" d="M1132,550c0,0,4.5-58.1,20.1-53.6c15.6,4.5,15.6,20.1,15.6,20.1S1129.8,541,1132,550"/>
	<path id="path42_1_" class="st8" d="M1291,337.3c0,0-31.6,6.7-34.5,34.5c-2.9,27.8,34.5,5.7,40.2,3.8"/>
	<path id="path44_1_" class="st8" d="M1059.2,339.2c0,0-42.2,5.7-42.2,32.6c0,26.8,47.9,24.9,61.3,13.4"/>
	<path id="path46_1_" class="st8" d="M798.6,463.8c0,0-72.8-44.1-80.5-1.9c-7.7,42.1-24.9,72.8,11.5,116.9l-24.9-7.7l-23-59.4
		l-7.7-57.5l44.1-46L768,412l28.7,23L798.6,463.8"/>
	<path id="path48_1_" class="st8" d="M833.1,343.1c0,0,32.6-168.6,197.3-201.2c135.6-26.8,206.9,5.7,233.7,36.4
		c0,0-120.7-143.7-235.6-99.6c-114.9,44.1-199.2,124.5-197.3,176.2C834.5,343,833.1,343.1,833.1,343.1"/>
	<path id="path50_1_" class="st8" d="M1277.6,197.5c0,0-55.6-1.9-57.5,47.9c0,0,0,7.7,3.8,15.3c0,0,44.1-49.8,70.9-23"/>
	<path id="path52_1_" class="st8" d="M1034.3,265.9c0,0-9.6-76.5-74.7-32c-42.1,28.7-38.3,69-30.7,76.6c7.7,7.7,5.6,23.1,11.4,12.5
		c5.8-10.6,3.9-45.1,25-54.7C986.4,258.8,1020.9,248.1,1034.3,265.9"/>
	<path id="path54_1_" class="st9" d="M854.2,783.7l-180.1,80.5c0,0,74.7,296.9,36.4,388.9l-26.8-9.6l-1.9-113L632,915.9l-21.1-59.4
		l187.7-126.4L854.2,783.7"/>
	<path id="path56_1_" class="st9" d="M872.7,947.9l25.5,31.2v114.9h-30.7c0,0-3.8-80.5-3.8-90c0-9.6,3.8-44.1,3.8-44.1"/>
	<path id="path58_1_" class="st9" d="M873.4,1111.3l-86.2,3.8l24.9,17.2l61.3,9.6"/>
	<path id="path60_1_" class="st5" d="M1168.4,1092.1l70.9-1.9l17.2,176.3l-72.8,9.6L1168.4,1092.1"/>
	<path id="path62_1_" class="st5" d="M1187.5,1092.1l107.3-5.7c0,0,44.1-111.1,44.1-116.9c0-5.7,38.3-160.9,38.3-160.9l-86.2-90
		l-17.2-15.3l-46,46v178.2L1187.5,1092.1"/>
	<path id="path64_1_" class="st9" d="M1235.4,1078.7l-67,13.4l9.6,53.6c24.9,11.5,67.1-19.2,67.1-19.2"/>
	<path id="path66_1_" class="st9" d="M1237.4,743.5l134.1,99.6l3.8-46l-101.5-93.9L1237.4,743.5"/>
	<path id="path68_1_" class="st10" d="M939.8,1469.6l-39.7-160.9l-19.7-118.8l-3.3-88.1l179.5-9.6l111.7,0l-10.2,201.2l17.2,155.2
		l-1.9,28.7l-145.6,11.5L939.8,1469.6"/>
	<path id="path70_1_" class="st7" d="M1143.5,1090.2c0,0-9.6,199.2,19.2,341c0,0-57.5,36.4-141.8,46l160.9-5.7l19.2-11.5l-23-314.2
		l-5.7-67.1"/>
	<path id="path72_1_" class="st10" d="M1259.8,1251.2l74.7-21.1l141.8-7.7l21.1-65.1l-38.3-113l-44.1-5.7l-61.3,19.2l-58.8,28.7
		l-31.2-5.7l-24.3,9.6"/>
	<path id="path74_1_" class="st7" d="M1258.4,1212.8c0,0,49.8-23,57.5-21.1l-21.1-105.4l24.9-9.6c0,0,17.2,99.6,17.2,111.1
		c0,0,107.3,5.7,116.9,5.7c0,0,23-44.1,17.2-90l21.1,61.3l1.9,34.5l-30.7,46l-34.5,7.7l-57.5-1.9l-19.2-24.9l-67.1,9.6l-21.1,7.7"/>
	<path id="path76_1_" class="st10" d="M1183.1,1076.8L1141,969.5l-44.1-63.2c0,0,9.6-26.8,23-26.8c13.4,0,44.1,0,44.1,0l42.1,15.3
		l-3.8,70.9L1183.1,1076.8"/>
	<path id="path78_1_" class="st7" d="M1191.4,1040.4c0,0-53.6-103.4-53.6-118.8c0,0,9.6-23,23-17.2s42.2,21.1,42.2,21.1v-36.4
		l-65.1-13.4l-44.1,5.7l74.7,176.3l15.3,1.9"/>
	<path id="path80_1_" class="st10" d="M957.1,787.6l-53.1-5.8l-49.8-15.3v17.2l24.3,26.8l76.6,34.5"/>
	<path id="path82_1_" class="st7" d="M871.4,793.3c0,0,59.4,24.9,78.5,19.2l1.9,23L898.3,824l-32.6-23L871.4,793.3"/>
	<path id="path84_1_" class="st1" d="M1259.6,886c-32.5-1-61.9-4.8-87.6-12.1c1.7-10.5-1.5-20.9,1.1-28.5c7.2-5.2,19.2-5.1,30-6.3
		c-9.4-4.6-22.5-6.4-33.3-3.8c-0.3-7.3-3.5-11.9-5.5-17.6c18.3-6.5,61.4-49.3,85.7-35.1c11.6,6.7,16.5,45.2,17.4,63.9
		C1268,862.2,1265.9,877.8,1259.6,886"/>
	<path id="path86_1_" class="st11" d="M1259.6,886c-32.5-1-61.9-4.8-87.6-12.1c1.7-10.5-1.5-20.9,1.1-28.5c7.2-5.2,19.2-5.1,30-6.3
		c-9.4-4.6-22.5-6.4-33.3-3.8c-0.3-7.3-3.5-11.9-5.5-17.6c18.3-6.5,61.4-49.3,85.7-35.1c11.6,6.7,16.5,45.2,17.4,63.9
		C1268,862.2,1265.9,877.8,1259.6,886z"/>
	<path id="path88_1_" class="st1" d="M1104.1,832.9c-0.1,2.5-0.2,4.9-0.3,7.4c-10.1,6.7-26.5,6.6-37.7,12.2
		c16.4,0.7,29.3,4.7,40.5,10.2c-0.2,6.2-0.5,12.4-0.7,18.6c-18.6,12.7-35.6,31.7-57.5,43.6c-10.4,5.6-46.7,20.2-57.7,17.6
		c-6.2-1.4-6.8-9.2-9.3-16.5c-5.3-15.6-17.5-40.5-18.6-64c-1.4-29.7-4.4-79.5,27.6-73.3c25.8,4.9,55.8,16.8,75.8,27.7
		C1078.5,823.2,1085.6,831.5,1104.1,832.9"/>
	<path id="path90_1_" class="st11" d="M1104.1,832.9c-0.1,2.5-0.2,4.9-0.3,7.4c-10.1,6.7-26.5,6.6-37.7,12.2
		c16.4,0.7,29.3,4.7,40.5,10.2c-0.2,6.2-0.5,12.4-0.7,18.6c-18.6,12.7-35.6,31.7-57.5,43.6c-10.4,5.6-46.7,20.2-57.7,17.6
		c-6.2-1.4-6.8-9.2-9.3-16.5c-5.3-15.6-17.5-40.5-18.6-64c-1.4-29.7-4.4-79.5,27.6-73.3c25.8,4.9,55.8,16.8,75.8,27.7
		C1078.5,823.2,1085.6,831.5,1104.1,832.9z"/>
	<path id="path92_1_" class="st1" d="M1122.6,868.3c-2.8-16.2-6.1-20.8-4.9-34.9C1160.9,804.7,1169,882.8,1122.6,868.3"/>
	<path id="path94_1_" class="st11" d="M1122.6,868.3c-2.8-16.2-6.1-20.8-4.9-34.9C1160.9,804.7,1169,882.8,1122.6,868.3z"/>
	<path id="path96_1_" class="st2" d="M1185.1,881.4c0,0-13.4-19.2-3.8-24.9s19.2,0,24.9-9.6s0-15.3,1.9-26.8
		c1.9-11.5,11.5-13.4,21.1-15.3c9.6-1.9,36.4-5.7,40.2,3.8l-11.5-34.5l-23-7.7l-72.8,42.1l-3.8,21.1v42.1"/>
	<path id="path98_1_" class="st2" d="M983.9,944.6c-2.3-29.9-4.7-59.8-7.4-89.6c-4.1-44.6,10.7-36.8,49.4-36.8
		c5.9,0,36.4,7,38.5,11.5c10.4,21.3-17.5,16.6,12,32.7c24.9,13.6,68.9-8.2,58.8-38.4c-5.6-6.7-29.3-2.1-37.8-6.5
		c-15-7.8-29.9-15.5-44.9-23.3c-19-9.9-63.1-24.3-83.4-10.5c-51.4,35,3.2,122.4,21.6,158.9"/>
	<path id="path100_1_" class="st3" d="M1034.3,265.9c-52.2-12.2-78.2,21.9-94,57.1c-14.1-3.4-8.5-22.6-4.9-32.4
		c9.3-25.7,47-59.9,77.8-55.3C1026.4,237.3,1044.3,249.4,1034.3,265.9"/>
	<path id="path102_1_" class="st3" d="M1288.7,325.3c0.8,0,1.7,0.1,2.5,0.1c11.8,24.5,22,50.5,36.9,72.1
		c-10,23.2-75.5,43.8-74.5,2.1c14.2-6.2,38.6-1.3,51.2-9.2C1297.5,370.5,1287.1,353.5,1288.7,325.3"/>
	<path id="path104_1_" class="st3" d="M1061,326c11.2,20.5,14.8,42.1,30.8,57.6c7.2,7,21.1,15.5,14.2,34.9
		c-1.6,4.6-13.4,14.8-20.2,16.8c-24.9,7.3-82.9,1.5-63.2-29.5c20.6,1,48.2,13.4,63.6-1.6C1074.3,385.3,1053.3,348,1061,326"/>
	<path id="path106_1_" class="st3" d="M1279.4,534.6c-37.5,24.1-79.2,50.2-140.6,44.2c-13.1-11.4-18.1-36.8-5.4-53.5
		c6.6,11.4,2.5,32.4,20.9,35.5c34.8,6,75.4-21.3,100.4-30.8c15.5-26.2-1.3-35.8-15.3-52.7c-28.7-34.5-67.1-77.3-65.7-129
		c11.6-8.4,12.6,12.8,14.2,16.7c15,35,52.6,79.8,80.1,109.8c6.7,7.4,17.9,14.5,19.1,19.3C1290.7,508.1,1277.9,525.1,1279.4,534.6"/>
	<path id="path108_1_" class="st3" d="M785.5,509.2c-11.7-6.7-14.5-36.2-28.3-37.1c-19.7-1.2-16.1,38.3-16,61.4
		c-13.6-12.3-15.9-50.2-6-69.7c-11.4-5.6-16.4,6.1-22.7,10.3C720.6,415.4,798.5,446.9,785.5,509.2"/>
	<path id="path110_1_" class="st3" d="M1303.2,559.1c-17.4,33.2-42.1,69.7-93.3,70.8c-1-10.7-1.8-27,0.1-33.5
		C1249.1,592.6,1273.3,572.7,1303.2,559.1"/>
	<path id="path112_1_" class="st3" d="M1058.1,580.6c32.6,17.2,92.6,19,137,17.7c2.4,9.7,2.3,21.7,2.4,33.6
		C1140.5,634.7,1073,620.6,1058.1,580.6"/>
	<path id="path114_1_" class="st3" d="M1051.9,612.6c22.6,56.7,100.1,50.1,165.5,48.6c-2.9,7.4-9.1,16-16.9,19.2
		c-21,8.5-78.8,15-107.9-0.5c-18.5-9.8-30.3-32-40.4-45C1047.4,628.6,1023.1,612.6,1051.9,612.6"/>
	<path id="path116_1_" class="st12" d="M1276.7,925.1c-26.5,45.4-51.8,91.9-83.2,132c13.2-38.7,18.8-103.6,20.8-153
		C1241.8,891.2,1265.4,907,1276.7,925.1"/>
	<path id="path118_1_" class="st3" d="M1419.2,1088.2c-29.7,5.9-50.5,34.8-79.4,32.9C1355.7,1098.6,1383.5,1089.2,1419.2,1088.2"/>
	<path id="path120_1_" class="st3" d="M1432.2,1134.6c-24.2,2.6-52.6,6.5-77.1,4.4C1366.8,1121.3,1411.5,1127.4,1432.2,1134.6"/>
	<path id="path122_1_" class="st3" d="M1440.6,1174.6c-27.2,0.6-60.9,0-86.7-2.1C1369.2,1156,1423,1166.4,1440.6,1174.6"/>
	<path id="path124_1_" class="st7" d="M1225.6,1284c3.9,34.1,17.4,68.7,15.7,106c-15,5.1-23.6,9.5-43.8,9.5
		c-1.4-31.7-5.7-80.3-4.4-110.5C1203,1289.6,1217.6,1281.9,1225.6,1284"/>
	<path id="path126_1_" class="st4" d="M1181.8,781.3c-13.6,8.9-25.3,20-38.4,29.5c-29,1.4-44.9-2-66.2-18.7c0.4-1.3,2.5-0.7,2.6-2.4
		C1110.8,803.6,1150.4,784.1,1181.8,781.3"/>
	<path id="path128_1_" class="st12" d="M1018.5,993.3c8.5-37,42-56.2,72.4-76.6c31.4,39.8,50.5,91,71.5,140.4
		C1112.8,1042.2,1062,1017.9,1018.5,993.3"/>
	<path id="path130_1_" class="st3" d="M1193.1,1289c-1.3,30.3,3,78.8,4.4,110.5c20.1,0,28.7-4.4,43.8-9.5
		c1.7-37.4-11.8-71.9-15.7-106C1217.6,1281.9,1203,1289.6,1193.1,1289z M879.8,1116.9c13.3,122,32.5,224.5,67.7,332.5
		c78.2,23.8,172.5,25.8,241.7,4.4c-12.7-61-7.1-135.2-14.6-200.2c-5.6-48.9-2.7-98.1-10.4-148
		C1080.5,1088.1,962,1101.5,879.8,1116.9z M1184.1,1106.3c-0.7,52.4,2.3,104.1,6.3,156.5c20.1-3,33.8-5,52.5-9.1
		c-6.1-50.5-5.3-107.3-17.7-152C1210.9,1101.9,1198.3,1101.6,1184.1,1106.3z M1286.1,1097.9c-9.5-2.2-20.7-0.1-29.8,0.1
		c4.3,42.7,14.7,89.8,18.4,134.6c14.4,0.4,22-6.3,33.8-8.6C1309.1,1184.7,1305,1130.5,1286.1,1097.9L1286.1,1097.9z M1440.6,1239.1
		c29.9-7.3,48.7-43.9,40.4-81.5c-5.6-25.3-15.6-72.9-26.3-89.1c-7.9-12-29.4-27.6-46.5-16.7c-27.9,17.8-76.9,23-97.2,44.6
		c10.2,33.9,13.3,80.5,17.5,123.4c34.8,2.2,77.6-9.6,106.5,2.9c-20.2,6.5-46.4,6.6-63.9,16.1
		C1385.4,1245.7,1418.8,1244.3,1440.6,1239.1L1440.6,1239.1z M1162.4,1057.1c-21-49.4-40.1-100.6-71.5-140.4
		c-30.4,20.4-63.9,39.6-72.4,76.6C1062,1017.9,1112.8,1042.2,1162.4,1057.1z M1214.2,904.1c-2,49.4-7.6,114.2-20.8,153
		c31.4-40,56.8-86.6,83.2-132C1265.4,907,1241.8,891.2,1214.2,904.1z M1155.5,883.2c-11.9-1.3-22,13.7-37.5,7.2
		c-3.5,3.9-6.8,8.2-10.4,12c34.2,41.2,49.7,99.6,76.1,148.1c14.2-46.5,12.5-97.5,15.7-148.2C1179.9,903.5,1169.1,884.7,1155.5,883.2
		z M1117.7,833.4c-1.3,14.1,2,18.7,4.9,34.9C1169,882.8,1160.9,804.7,1117.7,833.4z M1066.3,816.5c-20-10.9-50-22.8-75.8-27.7
		c-32-6.1-29,43.6-27.6,73.3c1.1,23.5,13.3,48.4,18.6,64c2.5,7.3,3.1,15,9.3,16.5c11,2.6,47.4-12,57.7-17.6
		c21.9-11.9,38.9-30.9,57.5-43.6c0.2-6.2,0.5-12.4,0.7-18.6c-11.2-5.6-24.1-9.5-40.5-10.2c11.1-5.6,27.5-5.5,37.7-12.2
		c0.1-2.5,0.2-5,0.3-7.4C1085.6,831.5,1078.5,823.2,1066.3,816.5z M875.4,781.9c-16.6,16.8,46.5,39.8,66.6,41
		c-0.1-10.7,6.1-20.7,4.8-28.3C923,790.4,891.6,793.1,875.4,781.9z M1079.8,789.8c-0.1,1.6-2.2,1-2.6,2.4
		c21.3,16.7,37.2,20.1,66.2,18.7c13.1-9.5,24.7-20.6,38.4-29.5C1150.4,784.1,1110.8,803.6,1079.8,789.8z M1267.3,846.6
		c-0.9-18.7-5.8-57.2-17.4-63.9c-24.3-14.2-67.4,28.6-85.7,35.1c2,5.7,5.3,10.3,5.5,17.6c10.8-2.7,24-0.8,33.3,3.8
		c-10.8,1.2-22.8,1.1-30,6.3c-2.6,7.6,0.6,17.9-1.1,28.5c25.7,7.3,55.1,11.1,87.6,12.1C1265.9,877.8,1268,862.2,1267.3,846.6z
		 M847.5,798.1c-5.2-3.7-40.4-49.6-45.3-47.7c-63.8,25.1-123.4,68.6-176.7,109.7c50.8,109,71.3,242.5,74.9,371.2
		c58.2,27.2,109.3,66.4,188.3,70.5c-9.1-64.6-17.5-122.3-22.7-183.2c-19.8-8.4-48.3,0.4-66.9-2.6c-0.2-22.4,28.4-9.8,30.7-24.8
		c1.8-11.4-15.7-12.2-10-30.2c14.5,5.3,22.1,16.9,37.6,21.3c14.1-30.9-0.2-85.7,1.8-111.6c0.4-4.9,2.4-26.9,13.3-23
		c9.6,3.4-0.6,58.6,0.5,83.1c1,22.6-2.7,44.4,6.4,58.5c76.3-10.4,153.8-17.1,236.4-19.4c-18.2-7.8-39.7-15.2-63.4-28.5
		c-12.8-7.2-53.2-22.3-56.9-34.5c-5.9-19.4,15.5-29.7,19.1-46.4c-38.5,21-46-20.1-55.1-49.3c-8.3-26.4-13-46.1-15-61.3
		C911.5,834.4,876.1,818.4,847.5,798.1L847.5,798.1z M1233.6,756c53.1-25.8,62.7,96.3,41.9,135.6c3.2,11.7,14.3,16.2,18.8,26.8
		c-29.6,53.1-62.6,102.7-92.8,155.2c22.5-14,54.6-2.5,81.1-13c9.7-3.8,16.7-26,24-43.7c20.2-48.8,41.3-110.2,50.7-156.8
		c2.1-10.6,7.9-33.7,6.6-43.1c-2.3-16.9-25.2-29.4-36.9-39.9c-21.5-19.3-35-36.3-57.4-54.3C1260.5,736.1,1241,745.1,1233.6,756
		L1233.6,756z M726,284.9c-25.3,27.9-20,80-16.9,117.2c45.8-28.8,106.5,2.3,105.9,51.2c21.8-0.6,8.2-27.3,4.2-44.5
		c-12.9-56.2,21.8-117.2,1.6-168.6C781.6,243.2,749.4,259.2,726,284.9L726,284.9z M907.1,123.3c-57.3,16.2-130.7,57.9-154.3,109.4
		c18.2-2.6,30.9-11.8,48.9-13c6.8-0.4,15.7,2.9,23.5,0.9c15.6-3.9,28.7-38.8,40.5-51.8c11.4-12.7,25.2-18.1,34.6-29.7
		c6.1-2.9,15-2.7,15.3-11.8C913,124.5,910.3,122.4,907.1,123.3z M1205.4,138.6C1146,105,1045.3,79.8,982,111.3
		c-51.1,25.5-120.1,67.6-143.6,120.9c22,51.5-6.5,98.7-8.3,151c-1,27.8,13.1,52.1,14.2,82.4c-7.5,12.4-30.5,13.9-46.4,13.1
		c-5.4-26.8-14.7-56.9-42.3-59.9c-39-4.3-67.6,28-69.4,61.8c-2.1,39.7,30.5,105.5,76.7,101c17.8-1.8,22.2-19.7,41.7-19.5
		c10.5,21-16.3,27.6-19,42.7c-0.7,3.9,2.2,19.1,3.9,26.2c8.4,34.7,27.1,79.5,45.5,105.9c23.4,33.5,69.3,38.5,118.7,41.8
		c8.8-19,41.3-17.4,62.5-12.5c-25.4-10.1-49-34.4-68.5-56c-22.5-24.7-45.2-51.3-46.4-83.6c42.4,58.9,77.5,110.3,154.7,136.2
		c58.4,19.6,126.6-9,171.5-40.5c18.6-13.1,29.7-33.9,43-52.9c49.5-71.2,72.6-172.9,67.6-271.5c-2.1-40.6-2-81.2-15.6-108.5
		c-14.3-28.6-62.5-54.2-90.7-28.3c-5.2-27.8,23.5-45,57.2-35C1264.8,195.1,1239.6,157.8,1205.4,138.6L1205.4,138.6z M1316.2,1055.6
		c46.5-23.1,133.3-62.2,162.5,0.1c10.8,23,23.4,61.8,28.9,85.5c7.9,33.4-8.5,103.7-42.9,114.9c-30.4,9.9-65.8,9.3-102.3,2
		c-4.3-3.6-9.1-9.8-12.4-16.3c-26.1-1-50.5,1.4-71.2,12.1c2,19.3-11.1,22.4-23.3,26.4c-9.1,36,18.2,83,11.6,115.8
		c-4.6,23.4-33.4,27-54.5,31.4c-0.7,13,0.9,23.8,2.4,34.8c-4.8,17.8-26.5,27.9-47.1,30.4c-67.6,8.1-170.2,11.8-235.2-11.6
		c-18.1-44.5-32.4-98.6-47.5-149.4c-63.4,6.8-114.7-27.4-163-49.7c-16.7-7.8-39.9-12-46.1-25.4c-6.1-12.9-3.6-37.6-5.1-61
		c-3.8-59.6-7.1-117.2-22.9-178.2c-7.1-27.4-19.4-51.6-28-78c-7.9-24.5-21.8-54.7-25.5-79.1c-5.4-36.2,28.7-38.2,50.5-53.9
		c33.7-24.2,60.1-37.6,96.5-59.5c10.8-6.5,43.4-22.9,47.1-30.4c7.4-15-12.6-36.1-18-47.8c-8.5-18.6-12.9-34.3-14.1-52.6
		c-30.6-4.8-53.8-23-67.8-43.6c-23.2-34-39.2-96.8-19.2-144.6c1.6-3.8,9.4-11.2,10.6-16.9c2.3-11.4-4.3-26.5-4.7-38.6
		c-2.1-62.1,10.5-115.7,52.3-134.4c17-67.6,77.7-90.1,135-123.7c21.4-12.6,45-20.6,69.4-29.6c87.4-32.2,221.5-26.1,294.1,28.8
		c30.8,23.3,79.9,72.4,97.5,108c46.4,93.9,43.2,250.8,10.7,365c-4.4,15.3-10.7,37.9-19.5,56.3c-6.2,12.9-25.3,38.6-23,50
		c2.4,11.7,43.7,43.1,52.6,51.6c15.9,15.4,46.2,35.8,48.7,55.2c2.6,20.7-9.1,48.9-15.1,68.9
		C1358.2,934.8,1338.8,996.3,1316.2,1055.6"/>
	<path id="path132_1_" class="st8" d="M1006.2,595.1c2.5-3.4,16.4-8.5,35.8,0.9c0,0-23,3.8-21.1,42.2l-9.6-1.9
		C1011.3,636.2,1001.4,601.4,1006.2,595.1"/>
	<path id="path134_1_" class="st13" d="M1174.1,924.5c0,5.8-4.7,10.5-10.5,10.5c-5.8,0-10.5-4.7-10.5-10.5c0-5.8,4.7-10.5,10.5-10.5
		C1169.4,914,1174.1,918.7,1174.1,924.5"/>
	<path id="path136_1_" class="st13" d="M1184.7,973.4c0,5.8-4.7,10.5-10.5,10.5c-5.8,0-10.5-4.7-10.5-10.5c0-5.8,4.7-10.5,10.5-10.5
		C1179.9,962.8,1184.7,967.5,1184.7,973.4"/>
</g>
<g id="g10" transform="matrix(1.25,0,0,-1.25,10,321.85516)">
	<g id="g3393">
		<path id="path22" class="st1" d="M447.3-247.5c0-109.3-86.7-198-193.6-198c-106.9,0-193.6,88.6-193.6,198
			c0,109.4,86.7,198,193.6,198C360.6-49.5,447.3-138.1,447.3-247.5"/>
		<path id="path24" class="st2" d="M68-296.5c0,0-14,206.5,176.2,212.4L231-62L127.8-96.7l-29.5-33.9L72.5-180l-14.7-57.5l4.4-38.3"
			/>
		<path id="path26" class="st3" d="M121.1-112.4c-34-34.8-55-82.7-55-135.8l0,0c0-53.1,21-101.1,55-135.8l0,0
			c34-34.7,80.8-56.2,132.6-56.2l0,0c51.8,0,98.6,21.4,132.6,56.2l0,0c34,34.7,55,82.7,55,135.8l0,0c0,53.1-21,101.1-55,135.8l0,0
			c-34,34.7-80.8,56.2-132.6,56.2l0,0C202-56.2,155.1-77.7,121.1-112.4L121.1-112.4z M112.6-392.4c-36.1,36.9-58.4,87.9-58.4,144.2
			l0,0c0,56.3,22.3,107.3,58.4,144.2l0,0c36.1,36.9,86,59.8,141.2,59.8l0,0c55.1,0,105.1-22.9,141.2-59.8l0,0
			c36.1-36.9,58.4-87.9,58.4-144.2l0,0c0-56.3-22.3-107.3-58.4-144.2l0,0c-36.1-36.9-86-59.8-141.2-59.8l0,0
			C198.6-452.2,148.6-429.3,112.6-392.4L112.6-392.4"/>
		<path id="path28" class="st4" d="M335.2-248.6l-29.5-4.4l-39.8-4.4l-25.8-0.7l-25.1,0.7l-19.2,5.9l-17,18.4l-13.3,37.6l-2.9,8.1
			l-17.7,5.9l-10.3,17l-7.4,24.3l8.1,21.4l19.2,6.6l15.5-7.4l7.4-16.2l8.8,1.5l2.9,3.7l-2.9,17l-0.7,21.4l4.4,29.5l-0.2,16.8
			l13.4,21.5l23.6,17l41.3,17.7l45.7-6.6l39.8-28.8l18.4-29.5L383.9-76l2.9-53.1l-8.8-45.7l-16.2-40.6l-15.5-21.4"/>
		<path id="path30" class="st5" d="M310.1-376.1l-105.5-4.4v-17.7l8.8-61.9l-4.4-5.2l-73.7,25.1l-5.2,8.8l-7.4,83.3l-17,50.1
			l-3.7,11.8l59,40.6l18.4,7.4l16.2-19.9l14-12.5l16.2-5.2l7.4-2.2l8.8-38.3l6.6-8.1l17,5.9l-11.8-22.9l64.2-30.2L310.1-376.1"/>
		<path id="path32" class="st6" d="M135.4-118.8l19.2,6.6l15.5-7.4l7.4-16.2l8.8,1.5l2.2,8.8l-4.4,17l4.4,40.6l-3.7,22.1L198-30.3
			l28.8,22.9l-8.1,11.1l-40.6-19.9l-17-13.3l-9.6-20.6l-14.7-19.9l-4.4-23.6L135.4-118.8"/>
		<path id="path34" class="st7" d="M165.6-49.5c0,0,11.1,27.3,55.3,40.6s2.2,9.6,2.2,9.6l-47.9-18.4l-18.4-18.4l-8.1-14.7
			L165.6-49.5"/>
		<path id="path36" class="st7" d="M143.5-113.6c0,0-15.5,51.6,43.5,59l-2.2,8.8l-40.6-9.6l-11.8-38.3l3-25.1L143.5-113.6"/>
		<path id="path38" class="st8" d="M167.1-182.2l9.7,9.4c0,0,4.4-0.5,5.1-5.7c0.7-5.2,2.9-51.6,34.7-76.7c2.9-2.3-23.6,3.7-23.6,3.7
			l-23.6,36.9"/>
		<path id="path40" class="st8" d="M302.8-168.2c0,0,1.7,22.4,7.7,20.6c6-1.7,6-7.7,6-7.7S301.9-164.8,302.8-168.2"/>
		<path id="path42" class="st8" d="M364-86.3c0,0-12.2-2.6-13.3-13.3c-1.1-10.7,13.3-2.2,15.5-1.5"/>
		<path id="path44" class="st8" d="M274.7-87.1c0,0-16.2-2.2-16.2-12.5c0-10.3,18.4-9.6,23.6-5.2"/>
		<path id="path46" class="st8" d="M174.5-135c0,0-28,17-31,0.7c-2.9-16.2-9.6-28,4.4-45l-9.6,2.9l-8.8,22.9l-2.9,22.1l17,17.7
			l19.2-1.5l11.1-8.8L174.5-135"/>
		<path id="path48" class="st8" d="M187.7-88.5c0,0,12.5,64.9,76,77.4c52.2,10.3,79.6-2.2,90-14c0,0-46.5,55.3-90.7,38.3
			c-44.2-17-76.7-47.9-76-67.8C188.2-88.5,187.7-88.5,187.7-88.5"/>
		<path id="path50" class="st8" d="M358.8-32.5c0,0-21.4,0.7-22.1-18.4c0,0,0-2.9,1.5-5.9c0,0,17,19.2,27.3,8.8"/>
		<path id="path52" class="st8" d="M265.2-58.8c0,0-3.7,29.4-28.8,12.3c-16.2-11.1-14.7-26.5-11.8-29.5c2.9-3,2.1-8.9,4.4-4.8
			c2.2,4.1,1.5,17.4,9.6,21C246.7-56.1,260-52,265.2-58.8"/>
		<path id="path54" class="st9" d="M195.8-258.2l-69.3-31c0,0,28.8-114.3,14-149.7l-10.3,3.7l-0.7,43.5L110.3-309l-8.1,22.9
			l72.3,48.7L195.8-258.2"/>
		<path id="path56" class="st9" d="M203-321.4l9.8-12v-44.2H201c0,0-1.5,31-1.5,34.7c0,3.7,1.5,17,1.5,17"/>
		<path id="path58" class="st9" d="M203.2-384.3l-33.2-1.5l9.6-6.6l23.6-3.7"/>
		<path id="path60" class="st5" d="M316.8-376.9l27.3,0.7l6.6-67.8l-28-3.7L316.8-376.9"/>
		<path id="path62" class="st5" d="M324.1-376.9l41.3,2.2c0,0,17,42.8,17,45s14.7,61.9,14.7,61.9L364-233.1l-6.6,5.9l-17.7-17.7
			v-68.6L324.1-376.9"/>
		<path id="path64" class="st9" d="M342.6-371.7l-25.8-5.2l3.7-20.6c9.6-4.4,25.8,7.4,25.8,7.4"/>
		<path id="path66" class="st9" d="M343.3-242.7l51.6-38.3l1.5,17.7l-39.1,36.1L343.3-242.7"/>
		<path id="path68" class="st10" d="M228.8-522.2l-15.3,62l-7.6,45.7l-1.3,33.9l69.1,3.7l43,0l-3.9-77.4l6.6-59.7l-0.7-11.1l-56-4.4
			L228.8-522.2"/>
		<path id="path70" class="st7" d="M307.2-376.1c0,0-3.7-76.7,7.4-131.3c0,0-22.1-14-54.6-17.7l61.9,2.2l7.4,4.4l-8.8,120.9
			l-2.2,25.8"/>
		<path id="path72" class="st10" d="M352-438.1l28.8,8.1l54.6,2.9l8.1,25.1l-14.7,43.5l-17,2.2l-23.6-7.4l-22.6-11.1l-12,2.2
			l-9.4-3.7"/>
		<path id="path74" class="st7" d="M351.4-423.3c0,0,19.2,8.8,22.1,8.1l-8.1,40.6l9.6,3.7c0,0,6.6-38.3,6.6-42.8
			c0,0,41.3-2.2,45-2.2c0,0,8.8,17,6.6,34.7l8.1-23.6l0.7-13.3l-11.8-17.7l-13.3-2.9l-22.1,0.7l-7.4,9.6l-25.8-3.7l-8.1-3"/>
		<path id="path76" class="st10" d="M322.5-371l-16.2,41.3l-17,24.3c0,0,3.7,10.3,8.8,10.3s17,0,17,0l16.2-5.9l-1.5-27.3L322.5-371"
			/>
		<path id="path78" class="st7" d="M325.6-357c0,0-20.6,39.8-20.6,45.7c0,0,3.7,8.8,8.8,6.6s16.2-8.1,16.2-8.1v14l-25.1,5.2l-17-2.2
			l28.8-67.8l5.9-0.7"/>
		<path id="path80" class="st10" d="M235.4-259.6l-20.4,2.2l-19.2,5.9v-6.6l9.4-10.3l29.5-13.3"/>
		<path id="path82" class="st7" d="M202.5-261.8c0,0,22.9-9.6,30.2-7.4l0.7-8.8l-20.6,4.4l-12.5,8.8L202.5-261.8"/>
		<path id="path84" class="st1" d="M351.9-297.5c-12.5,0.4-23.8,1.9-33.7,4.6c0.7,4.1-0.6,8,0.4,11c2.8,2,7.4,2,11.6,2.4
			c-3.6,1.8-8.7,2.5-12.8,1.4c-0.1,2.8-1.4,4.6-2.1,6.8c7,2.5,23.6,19,33,13.5c4.5-2.6,6.3-17.4,6.7-24.6
			C355.1-288.4,354.3-294.4,351.9-297.5"/>
		<path id="path86" class="st11" d="M351.9-297.5c-12.5,0.4-23.8,1.9-33.7,4.6c0.7,4.1-0.6,8,0.4,11c2.8,2,7.4,2,11.6,2.4
			c-3.6,1.8-8.7,2.5-12.8,1.4c-0.1,2.8-1.4,4.6-2.1,6.8c7,2.5,23.6,19,33,13.5c4.5-2.6,6.3-17.4,6.7-24.6
			C355.1-288.4,354.3-294.4,351.9-297.5z"/>
		<path id="path88" class="st1" d="M292-277.1c0-0.9-0.1-1.9-0.1-2.9c-3.9-2.6-10.2-2.5-14.5-4.7c6.3-0.3,11.3-1.8,15.6-3.9
			c-0.1-2.4-0.2-4.8-0.3-7.2c-7.2-4.9-13.7-12.2-22.1-16.8c-4-2.2-18-7.8-22.2-6.8c-2.4,0.6-2.6,3.5-3.6,6.3c-2,6-6.7,15.6-7.2,24.6
			c-0.5,11.4-1.7,30.6,10.6,28.2c9.9-1.9,21.5-6.5,29.2-10.7C282.2-273.4,284.9-276.5,292-277.1"/>
		<path id="path90" class="st11" d="M292-277.1c0-0.9-0.1-1.9-0.1-2.9c-3.9-2.6-10.2-2.5-14.5-4.7c6.3-0.3,11.3-1.8,15.6-3.9
			c-0.1-2.4-0.2-4.8-0.3-7.2c-7.2-4.9-13.7-12.2-22.1-16.8c-4-2.2-18-7.8-22.2-6.8c-2.4,0.6-2.6,3.5-3.6,6.3c-2,6-6.7,15.6-7.2,24.6
			c-0.5,11.4-1.7,30.6,10.6,28.2c9.9-1.9,21.5-6.5,29.2-10.7C282.2-273.4,284.9-276.5,292-277.1z"/>
		<path id="path92" class="st1" d="M299.2-290.7c-1.1,6.2-2.4,8-1.9,13.4C313.9-266.2,317-296.3,299.2-290.7"/>
		<path id="path94" class="st11" d="M299.2-290.7c-1.1,6.2-2.4,8-1.9,13.4C313.9-266.2,317-296.3,299.2-290.7z"/>
		<path id="path96" class="st2" d="M323.2-295.8c0,0-5.2,7.4-1.5,9.6c3.7,2.2,7.4,0,9.6,3.7c2.2,3.7,0,5.9,0.7,10.3
			c0.7,4.4,4.4,5.2,8.1,5.9c3.7,0.7,14,2.2,15.5-1.5l-4.4,13.3l-8.8,2.9l-28-16.2l-1.5-8.1v-16.2"/>
		<path id="path98" class="st2" d="M245.8-320.1c-0.9,11.5-1.8,23-2.9,34.5c-1.6,17.2,4.1,14.2,19,14.2c2.3,0,14-2.7,14.8-4.4
			c4-8.2-6.7-6.4,4.6-12.6c9.6-5.2,26.5,3.2,22.7,14.8c-2.2,2.6-11.3,0.8-14.6,2.5c-5.8,3-11.5,6-17.3,9c-7.3,3.8-24.3,9.3-32.1,4
			c-19.8-13.5,1.2-47.1,8.3-61.2"/>
		<path id="path100" class="st3" d="M265.2-58.8c-20.1,4.7-30.1-8.4-36.2-22c-5.4,1.3-3.3,8.7-1.9,12.5c3.6,9.9,18.1,23.1,29.9,21.3
			C262.1-47.8,269-52.5,265.2-58.8"/>
		<path id="path102" class="st3" d="M363.1-81.7c0.3,0,0.6,0,1,0c4.5-9.4,8.5-19.4,14.2-27.8c-3.8-8.9-29.1-16.9-28.7-0.8
			c5.5,2.4,14.9,0.5,19.7,3.5C366.5-99.1,362.5-92.6,363.1-81.7"/>
		<path id="path104" class="st3" d="M275.5-82c4.3-7.9,5.7-16.2,11.8-22.2c2.8-2.7,8.1-6,5.5-13.4c-0.6-1.8-5.2-5.7-7.8-6.5
			c-9.6-2.8-31.9-0.6-24.3,11.4c7.9-0.4,18.6-5.1,24.5,0.6C280.6-104.8,272.5-90.4,275.5-82"/>
		<path id="path106" class="st3" d="M359.5-162.3c-14.4-9.3-30.5-19.3-54.1-17c-5,4.4-7,14.2-2.1,20.6c2.6-4.4,0.9-12.5,8.1-13.7
			c13.4-2.3,29,8.2,38.7,11.9c6,10.1-0.5,13.8-5.9,20.3c-11,13.3-25.8,29.8-25.3,49.7c4.5,3.2,4.8-4.9,5.5-6.4
			c5.8-13.5,20.3-30.7,30.8-42.2c2.6-2.8,6.9-5.6,7.3-7.4C363.9-152.1,358.9-158.6,359.5-162.3"/>
		<path id="path108" class="st3" d="M169.4-152.5c-4.5,2.6-5.6,13.9-10.9,14.3c-7.6,0.5-6.2-14.7-6.2-23.6
			c-5.2,4.7-6.1,19.3-2.3,26.8c-4.4,2.1-6.3-2.4-8.7-4C144.4-116.4,174.4-128.5,169.4-152.5"/>
		<path id="path110" class="st3" d="M368.7-171.7c-6.7-12.8-16.2-26.8-35.9-27.3c-0.4,4.1-0.7,10.4,0,12.9
			C347.9-184.6,357.2-176.9,368.7-171.7"/>
		<path id="path112" class="st3" d="M274.3-180c12.6-6.6,35.6-7.3,52.7-6.8c0.9-3.7,0.9-8.4,0.9-12.9
			C306-200.8,280.1-195.4,274.3-180"/>
		<path id="path114" class="st3" d="M271.9-192.3c8.7-21.8,38.5-19.3,63.7-18.7c-1.1-2.8-3.5-6.2-6.5-7.4
			c-8.1-3.3-30.3-5.8-41.5,0.2c-7.1,3.8-11.7,12.3-15.6,17.3C270.2-198.5,260.8-192.3,271.9-192.3"/>
		<path id="path116" class="st12" d="M358.5-312.6c-10.2-17.5-19.9-35.4-32-50.8c5.1,14.9,7.2,39.9,8,58.9
			C345-299.5,354.1-305.6,358.5-312.6"/>
		<path id="path118" class="st3" d="M413.3-375.3c-11.4-2.3-19.4-13.4-30.6-12.7C388.9-379.4,399.6-375.7,413.3-375.3"/>
		<path id="path120" class="st3" d="M418.3-393.2c-9.3-1-20.2-2.5-29.7-1.7C393.1-388.1,410.4-390.5,418.3-393.2"/>
		<path id="path122" class="st3" d="M421.6-408.6c-10.5-0.2-23.4,0-33.4,0.8C394.1-401.5,414.8-405.4,421.6-408.6"/>
		<path id="path124" class="st7" d="M338.8-450.7c1.5-13.1,6.7-26.4,6.1-40.8c-5.8-1.9-9.1-3.7-16.8-3.6
			c-0.5,12.2-2.2,30.9-1.7,42.6C330.1-452.9,335.7-449.9,338.8-450.7"/>
		<path id="path126" class="st4" d="M321.9-257.2c-5.2-3.4-9.7-7.7-14.8-11.4c-11.2-0.6-17.3,0.8-25.5,7.2c0.1,0.5,1,0.3,1,0.9
			C294.6-265.8,309.8-258.3,321.9-257.2"/>
		<path id="path128" class="st12" d="M259.1-338.8c3.3,14.2,16.2,21.6,27.9,29.5c12.1-15.3,19.4-35,27.5-54.1
			C295.4-357.6,275.8-348.3,259.1-338.8"/>
		<path id="path130" class="st3" d="M326.3-452.7c-0.5-11.6,1.1-30.3,1.7-42.6c7.7,0,11.1,1.7,16.8,3.6c0.7,14.4-4.6,27.7-6.1,40.8
			C335.7-449.9,330.1-452.9,326.3-452.7z M205.7-386.4c5.1-47,12.5-86.4,26.1-128c30.1-9.1,66.4-9.9,93-1.7
			c-4.9,23.5-2.8,52-5.6,77.1c-2.2,18.8-1.1,37.8-4,57C282.9-375.3,237.3-380.5,205.7-386.4z M322.8-382.3
			c-0.3-20.2,0.9-40.1,2.4-60.2c7.7,1.2,13,1.9,20.2,3.5c-2.3,19.4-2,41.3-6.8,58.5C333.1-380.6,328.3-380.5,322.8-382.3z
			 M362.1-379.1c-3.7,0.8-8,0-11.5,0c1.7-16.4,5.7-34.6,7.1-51.8c5.5-0.2,8.5,2.4,13,3.3C370.9-412.5,369.4-391.6,362.1-379.1
			L362.1-379.1z M421.6-433.4c11.5,2.8,18.8,16.9,15.5,31.4c-2.2,9.7-6,28.1-10.1,34.3c-3,4.6-11.3,10.6-17.9,6.4
			c-10.7-6.9-29.6-8.9-37.4-17.2c3.9-13.1,5.1-31,6.8-47.5c13.4-0.8,29.9,3.7,41-1.1c-7.8-2.5-17.9-2.5-24.6-6.2
			C400.3-436,413.2-435.5,421.6-433.4L421.6-433.4z M314.5-363.4c-8.1,19-15.4,38.7-27.5,54.1c-11.7-7.8-24.6-15.2-27.9-29.5
			C275.8-348.3,295.4-357.6,314.5-363.4z M334.4-304.5c-0.8-19-2.9-44-8-58.9c12.1,15.4,21.8,33.3,32,50.8
			C354.1-305.6,345-299.5,334.4-304.5z M311.8-296.5c-4.6,0.5-8.5-5.3-14.4-2.8c-1.4-1.5-2.6-3.1-4-4.6c13.2-15.9,19.1-38.4,29.3-57
			c5.5,17.9,4.8,37.5,6,57.1C321.2-304.3,317.1-297,311.8-296.5z M297.3-277.3c-0.5-5.4,0.8-7.2,1.9-13.4
			C317-296.3,313.9-266.2,297.3-277.3z M277.5-270.8c-7.7,4.2-19.2,8.8-29.2,10.7c-12.3,2.4-11.2-16.8-10.6-28.2
			c0.4-9,5.1-18.6,7.2-24.6c1-2.8,1.2-5.8,3.6-6.3c4.2-1,18.2,4.6,22.2,6.8c8.4,4.6,15,11.9,22.1,16.8c0.1,2.4,0.2,4.8,0.3,7.2
			c-4.3,2.1-9.3,3.7-15.6,3.9c4.3,2.2,10.6,2.1,14.5,4.7c0,1,0.1,1.9,0.1,2.9C284.9-276.5,282.2-273.4,277.5-270.8z M204-257.4
			c-6.4-6.5,17.9-15.3,25.6-15.8c0,4.1,2.3,8,1.9,10.9C222.3-260.7,210.2-261.8,204-257.4z M282.7-260.5c0-0.6-0.9-0.4-1-0.9
			c8.2-6.4,14.3-7.7,25.5-7.2c5,3.7,9.5,7.9,14.8,11.4C309.8-258.3,294.6-265.8,282.7-260.5z M354.8-282.4c-0.3,7.2-2.2,22-6.7,24.6
			c-9.3,5.5-25.9-11-33-13.5c0.8-2.2,2-3.9,2.1-6.8c4.2,1,9.2,0.3,12.8-1.4c-4.2-0.5-8.8-0.4-11.6-2.4c-1-2.9,0.2-6.9-0.4-11
			c9.9-2.8,21.2-4.3,33.7-4.6C354.3-294.4,355.1-288.4,354.8-282.4z M193.3-263.7c-2,1.4-15.6,19.1-17.4,18.3
			c-24.5-9.7-47.5-26.4-68-42.2c19.6-42,27.4-93.4,28.8-142.9c22.4-10.5,42.1-25.6,72.5-27.2c-3.5,24.9-6.7,47.1-8.7,70.5
			c-7.6,3.2-18.6-0.1-25.7,1c-0.1,8.6,10.9,3.8,11.8,9.6c0.7,4.4-6,4.7-3.8,11.6c5.6-2,8.5-6.5,14.5-8.2c5.4,11.9-0.1,33,0.7,42.9
			c0.1,1.9,0.9,10.4,5.1,8.9c3.7-1.3-0.2-22.6,0.2-32c0.4-8.7-1-17.1,2.5-22.5c29.4,4,59.2,6.6,91,7.5c-7,3-15.3,5.8-24.4,11
			c-4.9,2.8-20.5,8.6-21.9,13.3c-2.3,7.5,6,11.4,7.4,17.9c-14.8-8.1-17.7,7.7-21.2,19c-3.2,10.2-5,17.8-5.8,23.6
			C217.9-277.7,204.3-271.5,193.3-263.7L193.3-263.7z M341.9-247.5c20.4,9.9,24.1-37.1,16.1-52.2c1.2-4.5,5.5-6.2,7.2-10.3
			c-11.4-20.4-24.1-39.5-35.7-59.7c8.7,5.4,21,1,31.2,5c3.7,1.5,6.4,10,9.2,16.8c7.8,18.8,15.9,42.4,19.5,60.3
			c0.8,4.1,3,13,2.5,16.6c-0.9,6.5-9.7,11.3-14.2,15.3c-8.3,7.4-13.5,14-22.1,20.9C352.2-239.8,344.7-243.3,341.9-247.5L341.9-247.5
			z M146.5-66.2c-9.7-10.7-7.7-30.8-6.5-45.1c17.6,11.1,41-0.9,40.8-19.7c8.4,0.2,3.1,10.5,1.6,17.1c-5,21.6,8.4,45.1,0.6,64.9
			C167.9-50.1,155.5-56.3,146.5-66.2L146.5-66.2z M216.2-4c-22.1-6.3-50.3-22.3-59.4-42.1c7,1,11.9,4.6,18.8,5
			c2.6,0.2,6-1.1,9.1-0.3c6,1.5,11.1,14.9,15.6,19.9c4.4,4.9,9.7,7,13.3,11.4c2.3,1.1,5.8,1,5.9,4.5C218.5-4.4,217.4-3.6,216.2-4z
			 M331-9.8c-22.9,12.9-61.6,22.6-86,10.5c-19.7-9.8-46.2-26-55.3-46.6c8.5-19.8-2.5-38-3.2-58.1c-0.4-10.7,5-20.1,5.5-31.7
			c-2.9-4.8-11.7-5.4-17.9-5c-2.1,10.3-5.7,21.9-16.3,23.1c-15,1.6-26-10.8-26.7-23.8c-0.8-15.3,11.7-40.6,29.5-38.9
			c6.9,0.7,8.6,7.6,16,7.5c4.1-8.1-6.3-10.6-7.3-16.4c-0.3-1.5,0.9-7.3,1.5-10.1c3.2-13.3,10.4-30.6,17.5-40.8
			c9-12.9,26.7-14.8,45.7-16.1c3.4,7.3,15.9,6.7,24.1,4.8c-9.8,3.9-18.9,13.2-26.4,21.6c-8.6,9.5-17.4,19.7-17.8,32.2
			c16.3-22.7,29.8-42.5,59.5-52.4c22.5-7.5,48.7,3.5,66,15.6c7.2,5,11.4,13,16.5,20.4c19.1,27.4,28,66.6,26,104.5
			c-0.8,15.6-0.8,31.2-6,41.8c-5.5,11-24,20.9-34.9,10.9c-2,10.7,9,17.3,22,13.5C353.9-31.6,344.2-17.3,331-9.8L331-9.8z
			 M373.7-362.8c17.9,8.9,51.3,23.9,62.5,0c4.1-8.8,9-23.8,11.1-32.9c3-12.9-3.3-39.9-16.5-44.2c-11.7-3.8-25.3-3.6-39.4-0.8
			c-1.7,1.4-3.5,3.8-4.8,6.3c-10,0.4-19.5-0.5-27.4-4.7c0.8-7.4-4.3-8.6-9-10.2c-3.5-13.9,7-31.9,4.5-44.6c-1.8-9-12.9-10.4-21-12.1
			c-0.3-5,0.4-9.2,0.9-13.4c-1.9-6.9-10.2-10.8-18.1-11.7c-26-3.1-65.5-4.5-90.5,4.5c-7,17.1-12.5,38-18.3,57.5
			c-24.4-2.6-44.1,10.5-62.7,19.1c-6.4,3-15.4,4.6-17.8,9.8c-2.3,5-1.4,14.5-2,23.5c-1.5,23-2.7,45.1-8.8,68.6
			c-2.7,10.5-7.5,19.9-10.8,30c-3.1,9.4-8.4,21.1-9.8,30.5c-2.1,13.9,11,14.7,19.4,20.7c13,9.3,23.1,14.5,37.2,22.9
			c4.2,2.5,16.7,8.8,18.1,11.7c2.8,5.8-4.9,13.9-6.9,18.4c-3.3,7.1-5,13.2-5.4,20.3c-11.8,1.9-20.7,8.9-26.1,16.8
			c-8.9,13.1-15.1,37.3-7.4,55.7c0.6,1.4,3.6,4.3,4.1,6.5c0.9,4.4-1.7,10.2-1.8,14.9c-0.8,23.9,4,44.5,20.1,51.7
			c6.5,26,29.9,34.7,52,47.6c8.2,4.8,17.3,7.9,26.7,11.4C259.5,23.3,311.1,21,339-0.1c11.8-9,30.8-27.9,37.5-41.6
			c17.9-36.1,16.6-96.5,4.1-140.5c-1.7-5.9-4.1-14.6-7.5-21.7c-2.4-5-9.8-14.9-8.9-19.2c0.9-4.5,16.8-16.6,20.2-19.9
			c6.1-5.9,17.8-13.8,18.7-21.3c1-8-3.5-18.8-5.8-26.5C389.8-316.3,382.4-340,373.7-362.8"/>
		<path id="path132" class="st8" d="M254.3-185.5c1,1.3,6.3,3.3,13.8-0.3c0,0-8.8-1.5-8.1-16.2l-3.7,0.7
			C256.3-201.4,252.5-188,254.3-185.5"/>
		<path id="path134" class="st13" d="M319-312.4c0-2.2-1.8-4.1-4.1-4.1c-2.2,0-4.1,1.8-4.1,4.1c0,2.2,1.8,4.1,4.1,4.1
			C317.2-308.3,319-310.1,319-312.4"/>
		<path id="path136" class="st13" d="M323-331.2c0-2.2-1.8-4.1-4.1-4.1c-2.2,0-4.1,1.8-4.1,4.1s1.8,4.1,4.1,4.1
			C321.2-327.1,323-328.9,323-331.2"/>
	</g>
	<g class="st14">
		<path class="st10" d="M631.6-135.2c-3.5-0.4-6.4-0.9-8.8-1.3c-2.4-0.4-5.1-1-8.2-1.8c-3.5-1-5.8-2.6-6.8-5.1
			c-1-2.4-1.5-5.2-1.5-8.3v-101.3c0-9.3-1.9-17.9-5.6-25.6c-3.8-7.8-8.9-14.3-15.5-19.6c-6.6-5.2-14.1-9.1-22.3-11.7
			c-8.2-2.6-17-3.9-26.3-3.9c-16.1,0-29.1,3.9-39,11.6c-9.9,7.8-14.8,18.4-14.8,32c0,8,2.3,14.7,6.8,19.9c4.5,5.3,10.8,7.9,18.7,7.9
			c7.5,0,13.5-2.2,17.9-6.6c4.4-4.4,6.7-9.8,6.7-16.3c0-5.5-1.9-10.6-5.8-15.3c-3.8-4.7-8.2-9-13.1-13v-1.7c0.8-1.7,2.5-3.2,5.1-4.4
			c2.6-1.2,5.2-1.8,7.9-1.8c10.4,0,18.5,3.7,24.5,11.1c5.9,7.4,8.9,18.7,8.9,33.7v103.8c0,3.1-0.5,5.7-1.4,7.8
			c-1,2.1-3.3,3.9-6.9,5.4c-2.6,1.1-5.7,2.1-9.4,2.8c-3.7,0.8-6.7,1.3-9.2,1.7v10.1h98.1V-135.2z"/>
		<path class="st10" d="M785.1-277.8c-3-4.9-6.7-9.6-10.9-13.9c-4.3-4.4-9.1-8.1-14.6-11.2c-5.8-3.3-11.6-5.8-17.5-7.4
			c-5.9-1.7-12.7-2.5-20.4-2.5c-12.8,0-23.8,1.8-33.1,5.4c-9.3,3.6-16.9,8.5-23,14.6c-6,6.1-10.5,13.4-13.5,21.7
			c-3,8.3-4.5,17.4-4.5,27.1c0,8.8,1.6,17.2,4.9,25.3c3.2,8.1,7.8,15.2,13.8,21.5c5.9,6.1,13.3,11.1,22.2,14.9
			c8.9,3.8,18.9,5.7,30,5.7c12.1,0,22-1.5,29.8-4.4c7.8-2.9,14.2-7,19.3-12.2c4.9-4.9,8.5-10.7,10.7-17.4c2.2-6.7,3.4-13.7,3.4-21
			v-8.4h-87.5c0-17.7,3.4-31.1,10.2-40.4c6.8-9.2,17.6-13.8,32.5-13.8c8.1,0,15.4,2.2,21.9,6.7c6.5,4.4,12,10.1,16.6,16.9
			L785.1-277.8z M735.6-228.6c0,5.2-0.3,10.5-0.8,15.9c-0.5,5.4-1.4,9.9-2.7,13.3c-1.5,4.1-3.5,7.1-6,9.2c-2.5,2.1-5.8,3.1-9.6,3.1
			c-6.6,0-12-3.4-15.9-10.1c-4-6.7-6.1-17.4-6.5-32L735.6-228.6z"/>
		<path class="st10" d="M968.3-308.7h-77.8v9.4c1.6,0.2,3.6,0.4,6,0.6c2.3,0.3,4.1,0.7,5.3,1.3c1.8,0.9,3.1,2.3,3.9,4.1
			s1.2,4.5,1.2,8v60.6c0,8.8-1.6,15.4-4.9,19.9c-3.2,4.4-8,6.7-14.3,6.7c-3.5,0-6.7-0.5-9.7-1.6c-3-1-5.9-2.5-8.8-4.5
			c-2.5-1.7-4.5-3.5-6-5.3c-1.5-1.8-2.8-3.4-3.8-4.8v-69.5c0-3,0.4-5.5,1.3-7.6c0.9-2,2.3-3.6,4.3-4.6c1.4-0.8,3.1-1.5,5.2-2.1
			c2.1-0.6,4.1-1,6.1-1.3v-9.4h-78.7v9.4c2.2,0.2,4.3,0.4,6.5,0.7c2.2,0.3,4.1,0.7,5.6,1.2c2.8,0.9,4.7,2.4,5.7,4.4
			c1,2,1.6,4.6,1.6,7.8v75.3c0,2.7-0.7,5.3-2.1,7.9c-1.4,2.6-3.2,4.7-5.4,6.3c-1.6,1-3.5,1.9-5.9,2.6c-2.4,0.7-5,1.2-7.8,1.4v9.4
			l61.7,3.4l1.9-1.9v-18.8h0.5c2.4,2.2,5.3,4.7,8.8,7.8c3.4,3,6.6,5.5,9.6,7.4c3.2,2.1,7.4,3.8,12.6,5.3c5.2,1.5,10.7,2.2,16.6,2.2
			c14.1,0,24.6-4,31.6-12c7-8,10.5-18.6,10.5-31.8V-284c0-3.2,0.5-5.7,1.4-7.6c0.9-1.9,2.7-3.4,5.3-4.5c1.4-0.6,3.1-1.2,5.1-1.8
			c2-0.6,4.3-1,6.9-1.3V-308.7z"/>
		<path class="st10" d="M1146.4-308.7h-61c-7.5,13.2-14.4,24.3-20.6,33.5c-6.2,9.2-12.1,17.7-17.6,25.5l-7.6-6.4v-28.2
			c0-3.1,0.5-5.7,1.4-7.6c0.9-2,2.7-3.5,5.2-4.4c1.6-0.7,3.4-1.3,5.4-1.8s4.1-0.9,6.2-1v-9.4h-80.4v9.4c2.2,0.2,4.3,0.4,6.5,0.7
			c2.2,0.3,4.1,0.7,5.7,1.2c2.8,0.9,4.7,2.4,5.7,4.4c1,2,1.5,4.6,1.5,7.8v144.3c0,2.8-0.6,5.8-1.9,8.9c-1.3,3.1-3.1,5.4-5.5,6.9
			c-1.6,1-4.1,1.9-7.4,2.6c-3.3,0.7-6.3,1.1-8.9,1.3v9.4l64.4,3.4l1.9-2.1V-244c6.4,5.7,13.5,12.3,21.5,19.8
			c8,7.5,14.4,13.7,19.2,18.6c2.8,2.9,4.4,5.2,4.7,6.7c0.3,1.5,0.5,2.4,0.5,2.8c0,1.6-1.4,2.8-4.1,3.9c-2.7,1-6.8,1.9-12.3,2.7v9.2
			h65.7v-8.9c-8.6-2.4-15.2-4.7-19.7-6.8c-4.5-2.1-9.5-4.9-14.8-8.5c-3.5-2.3-7-4.8-10.3-7.3c-3.3-2.6-7.1-5.7-11.4-9.5
			c8.4-12.2,16.2-23.6,23.4-34c7.1-10.4,14.6-21.5,22.5-33.1c2.7-4.1,6-6.8,9.9-8.1c4-1.4,7.9-2.2,11.9-2.6V-308.7z"/>
		<path class="st10" d="M1229.6-308.7h-81.8v9.4c2.2,0.2,4.4,0.4,6.6,0.6c2.2,0.3,4,0.7,5.6,1.3c2.8,1,4.7,2.5,5.8,4.5
			c1.1,1.9,1.7,4.5,1.7,7.7v75.3c0,3-0.7,5.7-2.1,8c-1.4,2.3-3.1,4.1-5.2,5.5c-1.6,1-3.9,2-7.1,3c-3.2,0.9-6,1.6-8.6,1.8v9.4
			l63.4,3.4l1.9-1.9v-102.8c0-3,0.6-5.6,1.9-7.7c1.3-2.1,3.1-3.7,5.6-4.7c1.7-0.8,3.6-1.5,5.7-2.1c2.1-0.6,4.2-1,6.5-1.3V-308.7z
			 M1210.7-132.2c0-6.6-2.5-12.1-7.6-16.8c-5-4.6-11-6.9-17.9-6.9c-7,0-13,2.3-18.1,6.9c-5,4.6-7.6,10.2-7.6,16.8
			c0,6.6,2.5,12.2,7.6,16.8s11.1,7,18.1,7c7,0,13-2.3,18-7C1208.2-120,1210.7-125.6,1210.7-132.2z"/>
		<path class="st10" d="M1412.4-308.7h-77.8v9.4c1.6,0.2,3.6,0.4,6,0.6c2.3,0.3,4.1,0.7,5.3,1.3c1.8,0.9,3.1,2.3,3.9,4.1
			c0.8,1.8,1.2,4.5,1.2,8v60.6c0,8.8-1.6,15.4-4.9,19.9c-3.2,4.4-8,6.7-14.3,6.7c-3.5,0-6.7-0.5-9.7-1.6c-3-1-5.9-2.5-8.8-4.5
			c-2.5-1.7-4.5-3.5-6-5.3c-1.5-1.8-2.8-3.4-3.8-4.8v-69.5c0-3,0.4-5.5,1.3-7.6c0.9-2,2.3-3.6,4.3-4.6c1.4-0.8,3.1-1.5,5.2-2.1
			c2.1-0.6,4.1-1,6.1-1.3v-9.4h-78.7v9.4c2.2,0.2,4.3,0.4,6.5,0.7c2.2,0.3,4.1,0.7,5.6,1.2c2.8,0.9,4.7,2.4,5.7,4.4
			c1,2,1.6,4.6,1.6,7.8v75.3c0,2.7-0.7,5.3-2.1,7.9c-1.4,2.6-3.2,4.7-5.4,6.3c-1.6,1-3.5,1.9-5.9,2.6c-2.4,0.7-5,1.2-7.8,1.4v9.4
			l61.7,3.4l1.9-1.9v-18.8h0.5c2.4,2.2,5.3,4.7,8.8,7.8c3.4,3,6.6,5.5,9.6,7.4c3.2,2.1,7.4,3.8,12.6,5.3c5.2,1.5,10.7,2.2,16.6,2.2
			c14.1,0,24.6-4,31.6-12c7-8,10.5-18.6,10.5-31.8V-284c0-3.2,0.5-5.7,1.4-7.6c0.9-1.9,2.7-3.4,5.3-4.5c1.4-0.6,3.1-1.2,5.1-1.8
			c2-0.6,4.3-1,6.9-1.3V-308.7z"/>
		<path class="st10" d="M1484.3-313.1c-8.4,0-16.5,1.2-24.5,3.7c-8,2.5-14.2,5.1-18.6,7.8l-3.9-8.8h-10.1l-1.7,48.3h9.4
			c1.3-3.9,3.4-8.3,6.5-13.1c3-4.9,6.5-9.3,10.4-13.1c4.1-3.9,8.7-7.2,13.9-9.8c5.2-2.7,10.8-4,16.8-4c7.9,0,13.7,1.5,17.5,4.6
			c3.8,3.1,5.8,7.8,5.8,14.2c0,3.4-0.9,6.3-2.6,8.5c-1.7,2.2-4.1,4.2-7.1,5.8c-3.4,1.7-7.1,3.2-11.1,4.4c-4,1.2-9,2.7-14.8,4.4
			c-5.9,1.7-10.9,3.5-15.1,5.2c-4.2,1.8-8.5,4.6-13,8.3c-3.9,3.4-7,7.4-9.3,12.2c-2.3,4.7-3.5,10.4-3.5,17c0,12.2,5.1,22,15.3,29.5
			c10.2,7.5,23.6,11.3,40.2,11.3c7.9,0,15.1-0.8,21.7-2.4c6.6-1.6,12.1-3.3,16.6-5.2l2.7,7.6h9.8l2.1-44.1h-9.1
			c-3,9-8.2,16.7-15.5,23.2c-7.3,6.5-15.2,9.8-23.7,9.8c-6.6,0-11.9-1.4-15.7-4.1c-3.8-2.8-5.7-6.6-5.7-11.5
			c0-6.6,2.8-11.3,8.3-14.2c5.6-2.9,13.3-5.7,23.3-8.3c15.4-4,26.7-9.4,33.9-16.2c7.1-6.9,10.7-15.6,10.7-26.2
			c0-14.2-5.5-25.1-16.6-32.9C1516.7-309.3,1502.2-313.1,1484.3-313.1z"/>
	</g>
</g>
<g>
	<path class="st10" d="M665.7,853.7c-6.1,0-12-1.2-17.6-3.6c-5.6-2.4-10.6-5.9-14.9-10.4c-4.3-4.5-7.7-10.1-10.2-16.6
		c-2.5-6.5-3.8-13.9-3.8-22.1s1.2-15.6,3.8-22.3c2.5-6.7,6-12.4,10.4-17.2c4.4-4.8,9.5-8.5,15.5-11.1c6-2.6,12.3-3.9,19.1-3.9
		c5,0,9.6,0.6,13.7,1.9c4.1,1.3,8,3,11.7,5.3l3-4.9h5.8l0.6,36.5h-5.9c-0.8-3.6-1.9-7.4-3.5-11.6c-1.5-4.2-3.3-7.7-5.4-10.6
		c-2.3-3.3-5-5.8-8.2-7.7c-3.2-1.9-6.8-2.8-10.9-2.8c-4.7,0-9,1-13,3.1s-7.5,5.1-10.4,9.2c-2.8,3.9-5,8.9-6.6,14.9
		c-1.6,6-2.4,12.7-2.4,20.2c0,6.6,0.8,12.6,2.5,18c1.7,5.5,4,10.3,7.1,14.4c3.1,4.1,6.7,7.3,10.9,9.6s8.9,3.5,14.1,3.5
		c3.9,0,7.5-0.6,10.7-1.8c3.3-1.2,6.1-2.9,8.5-4.9c2.4-2.1,4.5-4.5,6.3-7.2c1.8-2.7,3.3-5.6,4.5-8.8l5.4,2.6
		c-4.1,10.2-9.6,17.4-16.4,21.8C683.3,851.5,675.2,853.7,665.7,853.7z"/>
	<path class="st10" d="M783.2,814.9c0,5-0.8,9.9-2.4,14.8c-1.6,4.8-3.9,8.9-6.8,12.3c-3.3,3.9-7.2,6.7-11.6,8.6
		c-4.4,1.9-9.3,2.8-14.7,2.8c-4.5,0-8.8-0.9-12.9-2.6s-7.7-4.2-10.9-7.5c-3.1-3.2-5.6-7.2-7.5-11.8c-1.9-4.6-2.8-9.9-2.8-15.6
		c0-11.1,3.2-20.2,9.7-27.3c6.5-7.1,15-10.6,25.5-10.6c10,0,18.2,3.4,24.7,10.1C779.9,794.8,783.2,803.7,783.2,814.9z M768.2,815
		c0-3.6-0.4-7.4-1.1-11.4c-0.7-4-1.8-7.4-3.3-10.2c-1.5-3-3.6-5.4-6.1-7.2c-2.5-1.8-5.6-2.7-9.2-2.7c-3.7,0-6.9,0.9-9.5,2.7
		c-2.6,1.8-4.8,4.3-6.4,7.5c-1.5,2.9-2.6,6.3-3.3,10c-0.6,3.8-0.9,7.4-0.9,10.9c0,4.6,0.4,8.9,1.1,12.8c0.7,3.9,1.9,7.4,3.6,10.5
		c1.6,3.1,3.7,5.5,6.2,7.3c2.5,1.8,5.6,2.6,9.2,2.6c6,0,10.8-2.9,14.3-8.7C766.5,833.3,768.2,825.3,768.2,815z"/>
	<path class="st10" d="M872,851.2h-34.8v-4.8c1.1-0.1,2.3-0.2,3.6-0.3c1.3-0.1,2.4-0.3,3.3-0.6c1.3-0.4,2.3-1.2,3-2.3s1-2.5,1-4.2
		v-36.6c0-5.1-1.2-9-3.6-11.7c-2.4-2.7-5.3-4.1-8.7-4.1c-2.6,0-4.9,0.4-7,1.2c-2.1,0.8-4,1.8-5.6,2.9c-1.6,1.1-2.9,2.3-3.8,3.6
		s-1.6,2.3-2.1,3.1v40.9c0,1.6,0.3,3,1,4c0.7,1.1,1.7,1.9,3,2.5c1,0.5,2.1,0.8,3.3,1.1c1.2,0.2,2.4,0.4,3.6,0.5v4.8h-34.9v-4.8
		c1.1-0.1,2.2-0.2,3.4-0.3c1.2-0.1,2.2-0.3,3.1-0.6c1.3-0.4,2.3-1.2,3-2.3s1-2.5,1-4.2v-43.9c0-1.6-0.3-3.1-1-4.5
		c-0.7-1.4-1.7-2.5-2.9-3.4c-0.9-0.6-2-1-3.2-1.3c-1.3-0.3-2.6-0.4-4-0.5v-4.8l23.7-1.6l1,1v10h0.4c1.2-1.2,2.6-2.5,4.3-4.2
		c1.7-1.6,3.4-2.9,4.9-3.9c1.8-1.2,3.9-2.1,6.4-2.9c2.5-0.8,5.2-1.2,8.3-1.2c6.8,0,11.9,2.1,15.2,6.4c3.3,4.3,4.9,9.9,4.9,17v37
		c0,1.7,0.3,3,0.9,4.1c0.6,1,1.6,1.8,3,2.4c1.2,0.5,2.2,0.8,3,1c0.8,0.2,2,0.3,3.5,0.4V851.2z"/>
	<path class="st10" d="M924.8,848.1c-3.1,1.3-6.1,2.4-8.9,3.3c-2.8,0.9-6.2,1.3-10.3,1.3c-6,0-10.2-1.5-12.6-4.5
		c-2.4-3-3.6-7.3-3.6-12.7v-48.2h-12.9v-6.9h13.1v-22.2h13.1v22.2h20.4v6.9h-20.3V827c0,3,0.1,5.5,0.3,7.5c0.2,2,0.7,3.7,1.6,5.2
		c0.8,1.4,1.9,2.5,3.5,3.2c1.5,0.7,3.6,1.1,6.2,1.1c1.2,0,3-0.1,5.3-0.3c2.3-0.2,4-0.5,4.9-0.8V848.1z"/>
	<path class="st10" d="M986.3,789.2c0,2.5-0.6,4.6-1.8,6.5c-1.2,1.9-3.1,2.9-5.6,2.9c-2.7,0-4.8-0.7-6.2-2.1
		c-1.4-1.4-2.1-2.9-2.1-4.6c0-1.1,0.1-2,0.3-2.9c0.2-0.9,0.3-1.7,0.5-2.6c-2.3,0-4.9,0.9-7.9,2.7c-3,1.8-5.6,4.4-7.7,7.8v41.4
		c0,1.7,0.3,3.1,1,4.1c0.6,1.1,1.7,1.9,3.1,2.4c1.2,0.5,2.8,0.8,4.7,1.1c1.9,0.2,3.5,0.4,4.9,0.5v4.8h-37.5v-4.8
		c1.1-0.1,2.2-0.2,3.4-0.3c1.2-0.1,2.2-0.3,3.1-0.6c1.3-0.4,2.3-1.2,3-2.3s1-2.5,1-4.2v-43.9c0-1.5-0.3-3-1-4.4
		c-0.7-1.4-1.7-2.6-2.9-3.5c-0.9-0.6-2-1-3.2-1.3c-1.3-0.3-2.6-0.4-4-0.5v-4.8l23.7-1.6l1,1v10h0.4c3-3.9,6.3-6.9,10-8.9
		c3.7-2,7-3,10-3c3,0,5.5,1,7.4,3C985.4,783.2,986.3,785.9,986.3,789.2z"/>
	<path class="st10" d="M1026.9,851.2h-34.4v-4.8c1.1-0.1,2.2-0.2,3.4-0.3c1.2-0.1,2.2-0.3,3.1-0.6c1.3-0.4,2.3-1.2,3-2.3
		c0.6-1.1,1-2.5,1-4.2v-43.9c0-1.5-0.3-2.9-1-4.2c-0.7-1.3-1.7-2.3-2.9-3.2c-0.9-0.6-2.2-1.1-4-1.5s-3.3-0.7-4.8-0.8v-4.8l25.1-1.6
		l1,1v58.1c0,1.7,0.3,3.1,1,4.2c0.6,1.1,1.7,1.9,3,2.5c1.1,0.4,2.1,0.8,3.1,1c1,0.3,2.1,0.4,3.4,0.5V851.2z M1017.9,751.1
		c0,2.7-0.9,5.1-2.7,7.2c-1.8,2-4,3.1-6.7,3.1c-2.5,0-4.6-1-6.4-2.9c-1.8-1.9-2.7-4.2-2.7-6.7c0-2.6,0.9-5,2.7-6.9
		c1.8-2,3.9-3,6.4-3c2.7,0,5,0.9,6.8,2.8C1017,746.4,1017.9,748.6,1017.9,751.1z"/>
	<path class="st10" d="M1108,815.5c0,10.7-3.4,19.7-10.1,26.9c-6.7,7.3-14.6,10.9-23.5,10.9c-3.9,0-7.7-0.6-11.5-1.8
		c-3.8-1.2-7.3-2.8-10.6-4.8l-5.3,8.3l-4.5-1c0.2-3.6,0.4-7.9,0.5-12.9c0.1-5,0.1-9.8,0.1-14.5v-70.5c0-1.6-0.4-3.3-1.1-4.9
		c-0.7-1.6-1.7-2.8-2.9-3.5c-0.9-0.6-2.4-1.1-4.6-1.4s-3.9-0.5-5.2-0.6V741l26.1-1.6l1,1.1v46.9l0.5,0.1c3-3.2,6.2-5.6,9.8-7.1
		c3.5-1.6,7-2.4,10.4-2.4c8.8,0,16.1,3.5,22,10.4C1105.1,795.4,1108,804.4,1108,815.5z M1092.9,816c0-3.6-0.4-7.2-1.2-10.9
		c-0.8-3.7-2-6.9-3.6-9.7c-1.6-2.8-3.8-5.1-6.4-6.8c-2.6-1.7-5.8-2.6-9.5-2.6c-3.4,0-6.3,0.7-8.8,2c-2.5,1.3-4.8,3.1-6.8,5.4v41.4
		c0.3,1.2,0.9,2.5,1.7,4c0.8,1.5,2,3,3.4,4.4c1.4,1.3,3.1,2.4,4.9,3.3c1.8,0.8,4.1,1.3,6.7,1.3c5.9,0,10.6-2.8,14.2-8.5
		S1092.9,825.9,1092.9,816z"/>
	<path class="st10" d="M1194.9,849.9l-23.2,1.6l-1.1-1v-9h-0.4c-1.2,1.2-2.5,2.5-3.9,3.9c-1.4,1.4-3.1,2.6-5,3.7
		c-2.2,1.3-4.3,2.3-6.3,3c-2,0.7-4.9,1-8.6,1c-6.3,0-11.1-2.1-14.4-6.2s-4.9-10.1-4.9-17.9v-34c0-1.7-0.3-3.2-1-4.4
		s-1.6-2.2-2.9-3.1c-0.9-0.6-2-1-3.3-1.3s-2.7-0.4-4.1-0.5v-4.8l23.8-1.7l1.1,1v49.5c0,5.2,1.2,9,3.5,11.6s5.1,3.9,8.3,3.9
		c2.6,0,5-0.4,7.1-1.2c2.1-0.8,3.8-1.8,5.2-2.9c1.3-1,2.4-2.1,3.4-3.2c1-1.1,1.7-2.2,2.3-3.1v-40.3c0-1.6-0.3-3-1-4.2
		c-0.7-1.2-1.6-2.3-2.8-3.1c-0.9-0.6-2.2-0.9-3.9-1c-1.7-0.1-3.6-0.2-5.7-0.3v-4.8l25.9-1.7l1.1,1v56.5c0,1.6,0.3,3,1,4.2
		c0.7,1.2,1.6,2.1,2.8,3c0.9,0.5,1.9,0.9,3.1,1c1.2,0.2,2.5,0.3,4,0.3V849.9z"/>
	<path class="st10" d="M1247.6,848.1c-3.1,1.3-6.1,2.4-8.9,3.3c-2.8,0.9-6.2,1.3-10.3,1.3c-6,0-10.2-1.5-12.6-4.5s-3.6-7.3-3.6-12.7
		v-48.2h-12.9v-6.9h13.1v-22.2h13.1v22.2h20.4v6.9h-20.3V827c0,3,0.1,5.5,0.3,7.5c0.2,2,0.7,3.7,1.6,5.2c0.8,1.4,1.9,2.5,3.5,3.2
		c1.5,0.7,3.6,1.1,6.2,1.1c1.2,0,3-0.1,5.3-0.3c2.3-0.2,4-0.5,4.9-0.8V848.1z"/>
	<path class="st10" d="M1324.1,814.9c0,5-0.8,9.9-2.4,14.8c-1.6,4.8-3.9,8.9-6.8,12.3c-3.3,3.9-7.2,6.7-11.6,8.6
		c-4.4,1.9-9.3,2.8-14.7,2.8c-4.5,0-8.8-0.9-12.9-2.6c-4.1-1.7-7.7-4.2-10.9-7.5c-3.1-3.2-5.6-7.2-7.5-11.8
		c-1.9-4.6-2.8-9.9-2.8-15.6c0-11.1,3.2-20.2,9.7-27.3c6.5-7.1,15-10.6,25.5-10.6c10,0,18.2,3.4,24.7,10.1
		C1320.9,794.8,1324.1,803.7,1324.1,814.9z M1309.2,815c0-3.6-0.4-7.4-1.1-11.4c-0.7-4-1.8-7.4-3.3-10.2c-1.5-3-3.6-5.4-6.1-7.2
		c-2.5-1.8-5.6-2.7-9.2-2.7c-3.7,0-6.9,0.9-9.5,2.7c-2.6,1.8-4.8,4.3-6.4,7.5c-1.5,2.9-2.6,6.3-3.3,10c-0.6,3.8-0.9,7.4-0.9,10.9
		c0,4.6,0.4,8.9,1.1,12.8c0.7,3.9,1.9,7.4,3.6,10.5c1.6,3.1,3.7,5.5,6.2,7.3c2.5,1.8,5.6,2.6,9.2,2.6c6,0,10.8-2.9,14.3-8.7
		C1307.4,833.3,1309.2,825.3,1309.2,815z"/>
	<path class="st10" d="M1388.9,789.2c0,2.5-0.6,4.6-1.8,6.5s-3.1,2.9-5.6,2.9c-2.7,0-4.8-0.7-6.2-2.1c-1.4-1.4-2.1-2.9-2.1-4.6
		c0-1.1,0.1-2,0.3-2.9c0.2-0.9,0.3-1.7,0.5-2.6c-2.3,0-4.9,0.9-7.9,2.7s-5.6,4.4-7.7,7.8v41.4c0,1.7,0.3,3.1,1,4.1
		c0.7,1.1,1.7,1.9,3.1,2.4c1.2,0.5,2.8,0.8,4.7,1.1c1.9,0.2,3.5,0.4,4.9,0.5v4.8h-37.5v-4.8c1.1-0.1,2.2-0.2,3.4-0.3
		c1.2-0.1,2.2-0.3,3.1-0.6c1.3-0.4,2.3-1.2,3-2.3c0.6-1.1,1-2.5,1-4.2v-43.9c0-1.5-0.3-3-1-4.4c-0.7-1.4-1.7-2.6-2.9-3.5
		c-0.9-0.6-2-1-3.2-1.3c-1.3-0.3-2.6-0.4-4-0.5v-4.8l23.7-1.6l1,1v10h0.4c3-3.9,6.3-6.9,10-8.9c3.7-2,7-3,10-3s5.5,1,7.4,3
		S1388.9,785.9,1388.9,789.2z"/>
	<path class="st10" d="M1496.2,804.2c2.2,2.4,3.8,5,4.8,7.9c1,2.9,1.6,6.2,1.6,10c0,9.1-3.3,16.5-10,22.4c-6.7,5.9-15,8.8-24.9,8.8
		c-4.6,0-9.1-0.7-13.7-2.1c-4.6-1.4-8.5-3.1-11.8-5.2l-3.1,5.3h-5.8l-1-35.1h5.8c1.2,4.3,2.6,8.2,4.2,11.7c1.6,3.5,3.7,6.8,6.4,9.8
		c2.5,2.8,5.4,5.1,8.8,6.8c3.3,1.7,7.2,2.5,11.7,2.5c3.3,0,6.2-0.4,8.7-1.3c2.5-0.9,4.5-2.1,6-3.7c1.5-1.6,2.7-3.5,3.4-5.6
		c0.7-2.1,1.1-4.6,1.1-7.4c0-4.1-1.2-7.9-3.5-11.5c-2.3-3.5-5.8-6.2-10.3-8.1c-3.1-1.2-6.7-2.6-10.8-4.1c-4-1.5-7.5-2.9-10.5-4.3
		c-5.8-2.6-10.3-6-13.5-10.2c-3.2-4.2-4.8-9.7-4.8-16.5c0-3.9,0.8-7.5,2.4-10.9c1.6-3.4,3.9-6.4,6.8-9c2.8-2.5,6.1-4.5,9.9-5.9
		c3.8-1.4,7.8-2.1,11.9-2.1c4.7,0,8.9,0.7,12.7,2.2c3.7,1.4,7.1,3.1,10.2,5.1l3-4.9h5.8l0.6,34h-5.8c-1.1-3.9-2.2-7.6-3.6-11.2
		c-1.3-3.6-3-6.8-5.2-9.7c-2.1-2.8-4.6-5-7.6-6.7c-3-1.7-6.6-2.5-11-2.5c-4.6,0-8.5,1.5-11.7,4.4c-3.2,2.9-4.8,6.5-4.8,10.8
		c0,4.4,1,8.1,3.1,11c2.1,2.9,5.1,5.3,9,7.2c3.5,1.7,7,3.1,10.4,4.4s6.7,2.5,9.9,3.9c2.9,1.3,5.7,2.7,8.3,4.3
		S1494.3,802.1,1496.2,804.2z"/>
	<path class="st10" d="M1589.9,849.9l-23.2,1.6l-1.1-1v-9h-0.4c-1.2,1.2-2.5,2.5-3.9,3.9c-1.4,1.4-3.1,2.6-5,3.7
		c-2.2,1.3-4.3,2.3-6.3,3c-2,0.7-4.9,1-8.6,1c-6.3,0-11.1-2.1-14.4-6.2s-4.9-10.1-4.9-17.9v-34c0-1.7-0.3-3.2-1-4.4
		s-1.6-2.2-2.9-3.1c-0.9-0.6-2-1-3.3-1.3s-2.7-0.4-4.1-0.5v-4.8l23.8-1.7l1.1,1v49.5c0,5.2,1.2,9,3.5,11.6s5.1,3.9,8.3,3.9
		c2.6,0,5-0.4,7.1-1.2c2.1-0.8,3.8-1.8,5.2-2.9c1.3-1,2.4-2.1,3.4-3.2c1-1.1,1.7-2.2,2.3-3.1v-40.3c0-1.6-0.3-3-1-4.2
		c-0.7-1.2-1.6-2.3-2.8-3.1c-0.9-0.6-2.2-0.9-3.9-1c-1.7-0.1-3.6-0.2-5.7-0.3v-4.8l25.9-1.7l1.1,1v56.5c0,1.6,0.3,3,1,4.2
		c0.7,1.2,1.6,2.1,2.8,3c0.9,0.5,1.9,0.9,3.1,1c1.2,0.2,2.5,0.3,4,0.3V849.9z"/>
	<path class="st10" d="M1720.4,851.2h-34.7v-4.8c1.1-0.1,2.2-0.2,3.4-0.3c1.1-0.1,2.1-0.3,3-0.6c1.3-0.4,2.3-1.2,3-2.3
		c0.7-1.1,1-2.5,1-4.2v-36.8c0-5-1.1-8.9-3.4-11.6c-2.3-2.7-5.1-4.1-8.6-4.1c-2.4,0-4.6,0.4-6.6,1.1c-2.1,0.7-4,1.7-5.7,3
		c-1.4,1.1-2.6,2.2-3.5,3.4c-0.9,1.2-1.6,2.3-2.1,3.1v41.1c0,1.7,0.3,3.1,0.9,4.2c0.6,1.1,1.6,1.9,3,2.5c1.1,0.4,2.1,0.8,3,1
		s2.1,0.4,3.5,0.5v4.8h-33.9v-4.8c1.1-0.1,2.2-0.2,3.2-0.3c1-0.1,2-0.3,2.9-0.6c1.3-0.4,2.3-1.2,3-2.3c0.7-1.1,1-2.5,1-4.2v-36.8
		c0-5-1.1-8.9-3.4-11.6c-2.3-2.7-5.2-4.1-8.6-4.1c-2.4,0-4.6,0.4-6.7,1.1c-2.1,0.7-4,1.8-5.7,3.1c-1.4,1.1-2.6,2.3-3.5,3.6
		c-1,1.3-1.7,2.3-2.2,3v40.8c0,1.6,0.3,3,1,4.1c0.7,1.1,1.7,1.9,3,2.5c1,0.5,2,0.8,3.1,1.1c1.1,0.2,2.2,0.4,3.5,0.5v4.8h-34.6v-4.8
		c1.1-0.1,2.2-0.2,3.4-0.3c1.2-0.1,2.2-0.3,3.1-0.6c1.3-0.4,2.3-1.2,3-2.3s1-2.5,1-4.2v-44.2c0-1.5-0.3-2.9-1-4.1
		c-0.7-1.2-1.7-2.3-2.9-3.1c-0.9-0.6-2-1-3.4-1.4c-1.3-0.4-2.7-0.6-4.2-0.7v-4.8l23.8-1.6l1,1v10.2h0.5c1.2-1.2,2.7-2.6,4.4-4.3
		c1.7-1.6,3.3-3,4.8-4c1.7-1.2,3.8-2.1,6.3-2.9c2.5-0.8,5.3-1.2,8.2-1.2c4.6,0,8.6,1.2,11.9,3.7c3.3,2.5,5.7,5.5,7.1,9
		c1.7-1.7,3.3-3.2,4.6-4.4c1.3-1.3,3.1-2.6,5.2-4.1c1.8-1.3,4-2.3,6.5-3c2.5-0.8,5.2-1.2,8.3-1.2c6,0,10.8,2,14.3,5.9
		c3.5,3.9,5.3,10,5.3,18.2v36.2c0,1.7,0.3,3.1,0.9,4.2c0.6,1.1,1.6,1.9,3,2.5c1.1,0.4,2.2,0.8,3.3,1s2.3,0.4,3.6,0.5V851.2z"/>
	<path class="st10" d="M1850.7,851.2H1816v-4.8c1.1-0.1,2.2-0.2,3.4-0.3c1.1-0.1,2.1-0.3,3-0.6c1.3-0.4,2.3-1.2,3-2.3
		c0.7-1.1,1-2.5,1-4.2v-36.8c0-5-1.1-8.9-3.4-11.6c-2.3-2.7-5.1-4.1-8.6-4.1c-2.4,0-4.6,0.4-6.6,1.1c-2.1,0.7-4,1.7-5.7,3
		c-1.4,1.1-2.6,2.2-3.5,3.4c-0.9,1.2-1.6,2.3-2.1,3.1v41.1c0,1.7,0.3,3.1,0.9,4.2c0.6,1.1,1.6,1.9,3,2.5c1.1,0.4,2.1,0.8,3,1
		s2.1,0.4,3.5,0.5v4.8h-33.9v-4.8c1.1-0.1,2.2-0.2,3.2-0.3c1-0.1,2-0.3,2.9-0.6c1.3-0.4,2.3-1.2,3-2.3c0.7-1.1,1-2.5,1-4.2v-36.8
		c0-5-1.1-8.9-3.4-11.6c-2.3-2.7-5.2-4.1-8.6-4.1c-2.4,0-4.6,0.4-6.7,1.1c-2.1,0.7-4,1.8-5.7,3.1c-1.4,1.1-2.6,2.3-3.5,3.6
		c-1,1.3-1.7,2.3-2.2,3v40.8c0,1.6,0.3,3,1,4.1c0.7,1.1,1.7,1.9,3,2.5c1,0.5,2,0.8,3.1,1.1c1.1,0.2,2.2,0.4,3.5,0.5v4.8h-34.6v-4.8
		c1.1-0.1,2.2-0.2,3.4-0.3c1.2-0.1,2.2-0.3,3.1-0.6c1.3-0.4,2.3-1.2,3-2.3s1-2.5,1-4.2v-44.2c0-1.5-0.3-2.9-1-4.1
		c-0.7-1.2-1.7-2.3-2.9-3.1c-0.9-0.6-2-1-3.4-1.4c-1.3-0.4-2.7-0.6-4.2-0.7v-4.8l23.8-1.6l1,1v10.2h0.5c1.2-1.2,2.7-2.6,4.4-4.3
		c1.7-1.6,3.3-3,4.8-4c1.7-1.2,3.8-2.1,6.3-2.9c2.5-0.8,5.3-1.2,8.2-1.2c4.6,0,8.6,1.2,11.9,3.7c3.3,2.5,5.7,5.5,7.1,9
		c1.7-1.7,3.3-3.2,4.6-4.4c1.3-1.3,3.1-2.6,5.2-4.1c1.8-1.3,4-2.3,6.5-3c2.5-0.8,5.2-1.2,8.3-1.2c6,0,10.8,2,14.3,5.9
		c3.5,3.9,5.3,10,5.3,18.2v36.2c0,1.7,0.3,3.1,0.9,4.2c0.6,1.1,1.6,1.9,3,2.5c1.1,0.4,2.2,0.8,3.3,1s2.3,0.4,3.6,0.5V851.2z"/>
	<path class="st10" d="M1893.6,851.2h-34.4v-4.8c1.1-0.1,2.2-0.2,3.4-0.3c1.2-0.1,2.2-0.3,3.1-0.6c1.3-0.4,2.3-1.2,3-2.3
		c0.6-1.1,1-2.5,1-4.2v-43.9c0-1.5-0.3-2.9-1-4.2c-0.7-1.3-1.7-2.3-2.9-3.2c-0.9-0.6-2.2-1.1-4-1.5s-3.3-0.7-4.8-0.8v-4.8l25.1-1.6
		l1,1v58.1c0,1.7,0.3,3.1,1,4.2c0.6,1.1,1.7,1.9,3,2.5c1.1,0.4,2.1,0.8,3.1,1c1,0.3,2.1,0.4,3.4,0.5V851.2z M1884.6,751.1
		c0,2.7-0.9,5.1-2.7,7.2c-1.8,2-4,3.1-6.7,3.1c-2.5,0-4.6-1-6.4-2.9c-1.8-1.9-2.7-4.2-2.7-6.7c0-2.6,0.9-5,2.7-6.9
		c1.8-2,3.9-3,6.4-3c2.7,0,5,0.9,6.8,2.8C1883.7,746.4,1884.6,748.6,1884.6,751.1z"/>
	<path class="st10" d="M1946.4,848.1c-3.1,1.3-6.1,2.4-8.9,3.3c-2.8,0.9-6.2,1.3-10.3,1.3c-6,0-10.2-1.5-12.6-4.5s-3.6-7.3-3.6-12.7
		v-48.2h-12.9v-6.9h13.1v-22.2h13.1v22.2h20.4v6.9h-20.3V827c0,3,0.1,5.5,0.3,7.5c0.2,2,0.7,3.7,1.6,5.2c0.8,1.4,1.9,2.5,3.5,3.2
		c1.5,0.7,3.6,1.1,6.2,1.1c1.2,0,3-0.1,5.3-0.3c2.3-0.2,4-0.5,4.9-0.8V848.1z"/>
</g>
<g>
	<path class="st10" d="M1248.4,907.8c-1.4,0.2-2.6,0.4-3.6,0.5s-2.1,0.4-3.3,0.7c-1.5,0.4-2.4,1.1-2.8,2.1c-0.4,1-0.6,2.1-0.6,3.4
		v41.6c0,3.8-0.8,7.3-2.3,10.5c-1.5,3.2-3.7,5.9-6.4,8c-2.7,2.1-5.8,3.7-9.1,4.8c-3.4,1.1-7,1.6-10.8,1.6c-6.6,0-12-1.6-16-4.8
		s-6.1-7.6-6.1-13.1c0-3.3,0.9-6,2.8-8.2c1.9-2.2,4.4-3.2,7.7-3.2c3.1,0,5.5,0.9,7.4,2.7c1.8,1.8,2.7,4,2.7,6.7
		c0,2.3-0.8,4.4-2.4,6.3c-1.6,1.9-3.4,3.7-5.4,5.3v0.7c0.3,0.7,1,1.3,2.1,1.8s2.2,0.7,3.3,0.7c4.3,0,7.6-1.5,10-4.6
		s3.7-7.7,3.7-13.8v-42.6c0-1.3-0.2-2.3-0.6-3.2c-0.4-0.9-1.3-1.6-2.8-2.2c-1.1-0.5-2.4-0.9-3.9-1.2s-2.8-0.5-3.8-0.7v-4.1h40.3
		V907.8z"/>
	<path class="st10" d="M1323.6,978l-25.4,1.5l-0.8-0.7v-7h-0.3c-1.2,1.1-2.4,2.2-3.5,3.2c-1.2,1-2.5,2-4.1,2.8
		c-1.8,1-3.5,1.7-5.1,2.1c-1.6,0.5-4,0.7-7,0.7c-5.3,0-9.4-1.6-12.3-4.8c-2.8-3.2-4.3-7.8-4.3-13.7v-23.9c0-1.4-0.3-2.5-0.8-3.4
		c-0.5-0.9-1.2-1.6-2.1-2.3c-0.7-0.5-1.6-0.9-2.7-1.1c-1.1-0.2-2.1-0.4-3.1-0.5v-3.9l25.7-1.4l0.6,0.8v35.4c0,3.7,0.7,6.3,2.1,8.1
		c1.4,1.7,3.3,2.6,5.8,2.6c2.5,0,4.8-0.7,6.8-2c2-1.3,3.5-2.7,4.4-4.2v-28.7c0-1.2-0.2-2.3-0.7-3.2c-0.5-1-1.1-1.7-2-2.3
		c-0.6-0.4-1.6-0.7-2.7-0.9c-1.2-0.1-2.4-0.2-3.6-0.3v-3.9l25.8-1.4l0.8,0.8v41c0,1.2,0.2,2.3,0.7,3.2c0.5,0.9,1.2,1.6,2.2,2.2
		c0.7,0.4,1.5,0.7,2.6,0.9c1.1,0.2,2.1,0.3,3.2,0.3V978z"/>
	<path class="st10" d="M1398.1,979.1h-31.9v-3.9c0.7-0.1,1.5-0.2,2.4-0.3s1.7-0.3,2.2-0.5c0.7-0.4,1.3-1,1.6-1.7s0.5-1.8,0.5-3.3
		v-24.9c0-3.6-0.7-6.3-2-8.2c-1.3-1.8-3.3-2.7-5.9-2.7c-1.4,0-2.7,0.2-4,0.6c-1.2,0.4-2.4,1-3.6,1.9c-1,0.7-1.9,1.4-2.5,2.2
		s-1.1,1.4-1.6,2v28.5c0,1.2,0.2,2.3,0.5,3.1c0.4,0.8,0.9,1.5,1.8,1.9c0.6,0.3,1.3,0.6,2.1,0.9s1.7,0.4,2.5,0.5v3.9H1328v-3.9
		c0.9-0.1,1.8-0.2,2.7-0.3c0.9-0.1,1.7-0.3,2.3-0.5c1.1-0.4,1.9-1,2.3-1.8c0.4-0.8,0.6-1.9,0.6-3.2v-30.9c0-1.1-0.3-2.2-0.9-3.2
		c-0.6-1.1-1.3-1.9-2.2-2.6c-0.6-0.4-1.4-0.8-2.4-1.1c-1-0.3-2-0.5-3.2-0.6v-3.9l25.4-1.4l0.8,0.8v7.7h0.2c1-0.9,2.2-1.9,3.6-3.2
		c1.4-1.2,2.7-2.3,3.9-3c1.3-0.9,3-1.6,5.2-2.2s4.4-0.9,6.8-0.9c5.8,0,10.1,1.6,13,4.9c2.9,3.3,4.3,7.6,4.3,13.1v26
		c0,1.3,0.2,2.4,0.6,3.1s1.1,1.4,2.2,1.9c0.6,0.2,1.3,0.5,2.1,0.7s1.8,0.4,2.8,0.5V979.1z"/>
	<path class="st10" d="M1460.2,966.4c-1.2,2-2.7,3.9-4.5,5.7c-1.8,1.8-3.7,3.3-6,4.6c-2.4,1.3-4.8,2.4-7.2,3.1c-2.4,0.7-5.2,1-8.4,1
		c-5.2,0-9.8-0.7-13.6-2.2c-3.8-1.5-7-3.5-9.4-6c-2.5-2.5-4.3-5.5-5.6-8.9s-1.8-7.1-1.8-11.1c0-3.6,0.7-7.1,2-10.4
		c1.3-3.3,3.2-6.3,5.7-8.9c2.4-2.5,5.4-4.6,9.1-6.1s7.8-2.3,12.3-2.3c5,0,9,0.6,12.2,1.8c3.2,1.2,5.8,2.9,7.9,5c2,2,3.5,4.4,4.4,7.2
		c0.9,2.7,1.4,5.6,1.4,8.6v3.5h-35.9c0,7.3,1.4,12.8,4.2,16.6c2.8,3.8,7.2,5.7,13.3,5.7c3.3,0,6.3-0.9,9-2.7
		c2.7-1.8,4.9-4.1,6.8-6.9L1460.2,966.4z M1439.9,946.2c0-2.1-0.1-4.3-0.3-6.5s-0.6-4.1-1.1-5.5c-0.6-1.7-1.4-2.9-2.5-3.8
		c-1-0.9-2.4-1.3-4-1.3c-2.7,0-4.9,1.4-6.5,4.1c-1.6,2.8-2.5,7.1-2.7,13.1L1439.9,946.2z"/>
	<path class="st10" d="M1553.4,979.1h-57.6v-9.6c2.5-2.6,5.3-4.9,8.3-7c3-2.1,6-4,9.1-5.6c3.3-1.7,6.1-3.3,8.3-4.7s4-2.8,5.3-4.3
		c1.3-1.4,2.2-2.9,2.7-4.5c0.5-1.6,0.8-3.5,0.8-5.5c0-4.5-1.1-7.8-3.2-9.8c-2.1-2.1-5-3.1-8.5-3.1c-1.1,0-2.1,0.1-3.1,0.2
		c-1,0.2-2,0.5-3.1,0.9c0.5,1.6,1,3.2,1.5,4.9s0.7,3.6,0.7,5.7c0,2.5-0.9,4.5-2.7,6s-4.1,2.2-6.9,2.2c-2.7,0-4.8-0.9-6.4-2.6
		s-2.4-3.8-2.4-6.3c0-4.3,2.5-8.1,7.5-11.2c5-3.2,11.2-4.7,18.4-4.7c8.4,0,15.1,1.4,20.3,4.3c5.2,2.9,7.7,7.5,7.7,13.9
		c0,3.3-0.7,6-2,8c-1.4,2-3.4,3.8-6,5.3c-2.4,1.4-5,2.5-7.9,3.4c-2.9,0.9-6,1.7-9.3,2.6c-3.5,0.9-6.6,1.8-9.2,2.8s-4.9,2.2-6.9,3.6
		v0.6h44.4V979.1z"/>
	<path class="st10" d="M1609.3,953.9c2.7,1.8,4.9,4.2,6.7,7.1c1.8,3,2.7,6.7,2.7,11.1c0,7.8-3,14.2-9.1,19.1
		c-6,4.9-13.8,7.4-23.2,7.4c-7.3,0-13.3-1.6-18.2-4.7c-4.9-3.1-7.3-6.8-7.3-11.1c0-2.5,0.8-4.6,2.4-6.4c1.6-1.7,3.8-2.6,6.5-2.6
		c2.8,0,5.1,0.8,6.9,2.3c1.8,1.5,2.7,3.5,2.7,6c0,1.8-0.3,3.7-0.9,5.8c-0.6,2.1-1.1,3.7-1.5,4.8c0.9,0.3,1.8,0.6,3,0.7
		c1.1,0.2,2.2,0.2,3.2,0.2c2,0,4-0.5,6-1.4c1.9-0.9,3.6-2.2,5-4c1.6-2,2.8-4.3,3.6-7c0.8-2.7,1.2-5.8,1.2-9.2c0-5-1.3-9.1-4-12.3
		c-2.7-3.2-6.1-4.8-10.4-4.8c-3.3,0-6.1,0.7-8.3,2c-2.2,1.3-4.2,3.1-6,5.2l-4.1-1.4l5.2-39.1h44.9v14.7h-41.1l-2.2,17.5
		c1.9-1.2,4.4-2.4,7.4-3.5s6.6-1.6,10.6-1.6c3.2,0,6.3,0.3,9.3,1C1603.4,950.7,1606.4,952,1609.3,953.9z"/>
	<path class="st10" d="M1652,976.3c0,4.3-1.8,8.7-5.4,13.3c-3.6,4.5-8,7.9-13,10.2l-2.3-3.8c1.7-0.9,3.4-1.9,4.9-3
		c1.5-1.1,2.9-2.3,4.1-3.7c1.2-1.5,2.2-3,3-4.5c0.7-1.5,1.2-3.4,1.4-5.7h-3c-3.6,0-6.3-0.8-8.2-2.4c-1.8-1.6-2.8-3.9-2.8-6.8
		c0-2.3,0.9-4.3,2.7-6.1c1.8-1.8,4-2.7,6.5-2.7c4,0,7,1.4,9.1,4.1C1650.9,967.8,1652,971.5,1652,976.3z"/>
	<path class="st10" d="M1750.1,979.1h-57.6v-9.6c2.5-2.6,5.3-4.9,8.3-7c3-2.1,6-4,9.1-5.6c3.3-1.7,6.1-3.3,8.3-4.7s4-2.8,5.3-4.3
		c1.3-1.4,2.2-2.9,2.7-4.5c0.5-1.6,0.8-3.5,0.8-5.5c0-4.5-1.1-7.8-3.2-9.8c-2.1-2.1-5-3.1-8.5-3.1c-1.1,0-2.1,0.1-3.1,0.2
		c-1,0.2-2,0.5-3.1,0.9c0.5,1.6,1,3.2,1.5,4.9s0.7,3.6,0.7,5.7c0,2.5-0.9,4.5-2.7,6s-4.1,2.2-6.9,2.2c-2.7,0-4.8-0.9-6.4-2.6
		s-2.4-3.8-2.4-6.3c0-4.3,2.5-8.1,7.5-11.2c5-3.2,11.2-4.7,18.4-4.7c8.4,0,15.1,1.4,20.3,4.3c5.2,2.9,7.7,7.5,7.7,13.9
		c0,3.3-0.7,6-2,8c-1.4,2-3.4,3.8-6,5.3c-2.4,1.4-5,2.5-7.9,3.4c-2.9,0.9-6,1.7-9.3,2.6c-3.5,0.9-6.6,1.8-9.2,2.8s-4.9,2.2-6.9,3.6
		v0.6h44.4V979.1z"/>
	<path class="st10" d="M1817.8,929.6c2.7,2.8,4.7,6.1,6,9.7s1.9,7.4,1.9,11.3c0,4.6-0.8,8.8-2.4,12.6c-1.6,3.7-3.8,6.9-6.6,9.5
		c-2.9,2.7-6.4,4.7-10.3,6.2s-8.4,2.1-13.4,2.1c-5.4,0-10.1-0.8-14.2-2.5c-4.1-1.7-7.5-3.9-10.2-6.6c-2.7-2.7-4.7-5.9-6.1-9.5
		c-1.4-3.6-2.1-7.6-2.1-11.7c0-4.1,0.7-8,2-11.5s3.4-6.8,6.1-9.6c2.7-2.8,6.1-5,10.3-6.7c4.1-1.7,8.9-2.5,14.3-2.5
		c5.6,0,10.4,0.9,14.6,2.6S1815.2,926.8,1817.8,929.6z M1802.8,969.2c1-2.4,1.8-5,2.2-7.9c0.4-2.9,0.7-6.5,0.7-10.7
		c0-3.8-0.2-7.1-0.6-10.2c-0.4-3-1.1-5.7-2-8c-1-2.4-2.3-4.3-3.9-5.6c-1.6-1.3-3.6-2-6-2c-2.4,0-4.4,0.6-6.1,1.9s-3,3.1-4,5.5
		c-0.9,2.2-1.6,4.8-2,7.9c-0.4,3.1-0.6,6.6-0.6,10.3c0,3.9,0.2,7.3,0.6,10c0.4,2.8,1.1,5.4,2,8c0.9,2.3,2.2,4.2,3.8,5.6
		c1.7,1.4,3.7,2.1,6.2,2.1c2.3,0,4.2-0.6,5.9-1.9C1800.6,973.1,1801.9,971.4,1802.8,969.2z"/>
	<path class="st10" d="M1894.7,979.1h-57.6v-9.6c2.5-2.6,5.3-4.9,8.3-7c3-2.1,6-4,9.1-5.6c3.3-1.7,6.1-3.3,8.3-4.7s4-2.8,5.3-4.3
		c1.3-1.4,2.2-2.9,2.7-4.5c0.5-1.6,0.8-3.5,0.8-5.5c0-4.5-1.1-7.8-3.2-9.8c-2.1-2.1-5-3.1-8.5-3.1c-1.1,0-2.1,0.1-3.1,0.2
		c-1,0.2-2,0.5-3.1,0.9c0.5,1.6,1,3.2,1.5,4.9s0.7,3.6,0.7,5.7c0,2.5-0.9,4.5-2.7,6s-4.1,2.2-6.9,2.2c-2.7,0-4.8-0.9-6.4-2.6
		s-2.4-3.8-2.4-6.3c0-4.3,2.5-8.1,7.5-11.2c5-3.2,11.2-4.7,18.4-4.7c8.4,0,15.1,1.4,20.3,4.3c5.2,2.9,7.7,7.5,7.7,13.9
		c0,3.3-0.7,6-2,8c-1.4,2-3.4,3.8-6,5.3c-2.4,1.4-5,2.5-7.9,3.4c-2.9,0.9-6,1.7-9.3,2.6c-3.5,0.9-6.6,1.8-9.2,2.8s-4.9,2.2-6.9,3.6
		v0.6h44.4V979.1z"/>
	<path class="st10" d="M1949.7,979.1h-43.9v-4c1.1-0.1,2.8-0.2,5.1-0.5s3.9-0.6,4.8-0.9c1.1-0.4,1.9-1,2.5-1.8
		c0.6-0.9,0.9-2,0.9-3.5v-33.7h-13.4v-5h2.9c3.1,0,5.7-0.3,8-1c2.2-0.7,4.1-1.5,5.6-2.4c1.5-1,2.8-2,3.7-3.1c1-1.1,1.7-2,2.3-2.8
		h9.4c-0.1,2.3-0.2,5-0.3,8.1c-0.1,3.1-0.2,5.8-0.2,8.3v31.2c0,1.3,0.3,2.4,0.8,3.3c0.5,0.9,1.3,1.7,2.4,2.2
		c0.9,0.4,2.5,0.8,4.6,1.2c2.2,0.4,3.8,0.6,4.8,0.6V979.1z"/>
</g>
<g>
	<path class="st1" d="M1324.5,1262.7H698.8c-6.5,0-11.7,5.3-11.7,11.9v150.7c0,6.6,5.3,11.9,11.7,11.9h625.6
		c6.5,0,11.7-5.3,11.7-11.9v-150.7C1336.2,1268.1,1331,1262.7,1324.5,1262.7z"/>
	<g>
		<path class="st10" d="M819.2,1373h-9.8c-1.9,0-3.2-0.7-4-2.2l-12.3-18.7c-0.5-0.7-1-1.2-1.5-1.5c-0.6-0.3-1.4-0.4-2.4-0.4h-4.6
			v22.8h-10.9v-58.5h17.8c4,0,7.4,0.4,10.2,1.2c2.8,0.8,5.2,2,7,3.5c1.8,1.5,3.2,3.3,4,5.3c0.9,2.1,1.3,4.3,1.3,6.8
			c0,2-0.3,3.8-0.9,5.6c-0.6,1.8-1.4,3.3-2.5,4.8c-1.1,1.4-2.4,2.7-4,3.8c-1.6,1.1-3.4,1.9-5.5,2.5c0.7,0.4,1.3,0.9,1.9,1.4
			c0.6,0.6,1.1,1.2,1.6,2L819.2,1373z M791.2,1342.3c2,0,3.8-0.3,5.4-0.8s2.8-1.2,3.8-2.1c1-0.9,1.7-2,2.2-3.2
			c0.5-1.2,0.7-2.6,0.7-4.1c0-3-1-5.2-2.9-6.8s-4.9-2.4-9-2.4h-7v19.4H791.2z"/>
		<path class="st10" d="M828.9,1353.5c0.2,2.1,0.5,4,1.1,5.5c0.6,1.6,1.4,2.8,2.3,3.8c1,1,2.1,1.8,3.5,2.3s2.8,0.7,4.4,0.7
			s3-0.2,4.2-0.6c1.2-0.4,2.2-0.8,3.1-1.3c0.9-0.5,1.6-0.9,2.3-1.3c0.7-0.4,1.3-0.6,1.9-0.6c0.8,0,1.5,0.3,1.9,0.9l2.9,3.6
			c-1.1,1.3-2.3,2.4-3.7,3.3c-1.4,0.9-2.8,1.6-4.3,2.1s-3,0.9-4.6,1.1c-1.6,0.2-3.1,0.3-4.5,0.3c-2.9,0-5.6-0.5-8-1.4
			c-2.5-1-4.6-2.4-6.5-4.2c-1.8-1.9-3.3-4.2-4.3-7c-1.1-2.8-1.6-6-1.6-9.6c0-2.8,0.5-5.5,1.4-8c0.9-2.5,2.2-4.7,3.9-6.5
			c1.7-1.8,3.8-3.3,6.3-4.4c2.5-1.1,5.2-1.6,8.3-1.6c2.6,0,5,0.4,7.2,1.3c2.2,0.8,4.1,2.1,5.7,3.7c1.6,1.6,2.8,3.6,3.7,5.9
			c0.9,2.3,1.4,5,1.4,8c0,1.5-0.2,2.5-0.5,3.1c-0.3,0.5-0.9,0.8-1.9,0.8H828.9z M847.9,1347.5c0-1.3-0.2-2.5-0.5-3.7
			c-0.4-1.1-0.9-2.1-1.6-3c-0.7-0.9-1.7-1.5-2.8-2c-1.1-0.5-2.4-0.7-3.9-0.7c-2.9,0-5.2,0.8-6.8,2.5c-1.7,1.6-2.7,4-3.2,7H847.9z"/>
		<path class="st10" d="M900.8,1332.9v3.7c0,1.2-0.7,1.9-2.1,2.2l-3.7,0.7c0.6,1.4,0.8,3,0.8,4.7c0,2-0.4,3.9-1.2,5.6
			c-0.8,1.7-2,3.1-3.4,4.2c-1.5,1.2-3.2,2.1-5.2,2.7c-2,0.6-4.1,1-6.4,1c-0.8,0-1.6,0-2.3-0.1c-0.8-0.1-1.5-0.2-2.2-0.3
			c-1.3,0.8-1.9,1.7-1.9,2.6c0,0.8,0.4,1.4,1.2,1.8c0.8,0.4,1.8,0.7,3.1,0.8c1.3,0.2,2.7,0.3,4.3,0.3c1.6,0,3.3,0.1,5,0.3
			c1.7,0.1,3.4,0.4,5,0.7s3.1,0.9,4.3,1.6c1.3,0.7,2.3,1.7,3.1,3c0.8,1.3,1.2,2.9,1.2,4.8c0,1.8-0.5,3.6-1.4,5.3s-2.2,3.3-3.9,4.6
			s-3.8,2.4-6.3,3.3s-5.3,1.2-8.5,1.2c-3.1,0-5.8-0.3-8.2-0.9s-4.2-1.4-5.8-2.4s-2.7-2.2-3.4-3.5c-0.8-1.3-1.1-2.7-1.1-4.1
			c0-1.9,0.6-3.6,1.8-4.9c1.2-1.3,2.8-2.4,4.8-3.1c-1.1-0.6-2-1.3-2.6-2.3c-0.6-0.9-1-2.2-1-3.7c0-0.6,0.1-1.3,0.3-1.9
			c0.2-0.7,0.6-1.3,1-2c0.4-0.6,1-1.3,1.7-1.8c0.7-0.6,1.5-1.1,2.4-1.6c-2.1-1.1-3.8-2.6-5-4.5c-1.2-1.9-1.8-4.1-1.8-6.6
			c0-2,0.4-3.9,1.2-5.6c0.8-1.7,2-3.1,3.4-4.2c1.5-1.2,3.2-2.1,5.2-2.7c2-0.6,4.2-0.9,6.6-0.9c1.8,0,3.5,0.2,5,0.5
			c1.6,0.4,3,0.9,4.3,1.6H900.8z M890.8,1374.8c0-0.8-0.2-1.5-0.7-2c-0.5-0.5-1.1-0.9-2-1.2c-0.8-0.3-1.8-0.5-2.9-0.6
			c-1.1-0.1-2.3-0.2-3.6-0.3c-1.3-0.1-2.5-0.1-3.9-0.2c-1.3-0.1-2.6-0.2-3.9-0.3c-1.1,0.6-2,1.3-2.7,2.2c-0.7,0.8-1,1.8-1,2.9
			c0,0.7,0.2,1.4,0.5,2c0.4,0.6,0.9,1.2,1.7,1.6c0.8,0.5,1.8,0.8,3.1,1.1c1.3,0.3,2.8,0.4,4.6,0.4c1.9,0,3.5-0.1,4.8-0.4
			c1.3-0.3,2.5-0.7,3.3-1.2c0.9-0.5,1.5-1.1,1.9-1.8S890.8,1375.6,890.8,1374.8z M879.6,1351.2c1.2,0,2.3-0.2,3.2-0.5
			s1.7-0.8,2.3-1.4s1.1-1.3,1.4-2.1c0.3-0.8,0.5-1.8,0.5-2.7c0-2-0.6-3.7-1.8-4.9c-1.2-1.2-3.1-1.8-5.5-1.8c-2.5,0-4.3,0.6-5.5,1.8
			c-1.2,1.2-1.8,2.8-1.8,4.9c0,1,0.2,1.9,0.5,2.7c0.3,0.8,0.8,1.6,1.4,2.2s1.4,1.1,2.3,1.4S878.3,1351.2,879.6,1351.2z"/>
		<path class="st10" d="M918.8,1319.4c0,0.9-0.2,1.7-0.5,2.4c-0.4,0.8-0.8,1.4-1.4,2c-0.6,0.6-1.3,1-2,1.4c-0.8,0.3-1.6,0.5-2.5,0.5
			c-0.9,0-1.7-0.2-2.4-0.5c-0.8-0.3-1.4-0.8-2-1.4c-0.6-0.6-1-1.2-1.4-2c-0.3-0.8-0.5-1.6-0.5-2.4c0-0.9,0.2-1.7,0.5-2.5
			c0.3-0.8,0.8-1.5,1.4-2c0.6-0.6,1.2-1,2-1.4c0.8-0.3,1.6-0.5,2.4-0.5c0.9,0,1.7,0.2,2.5,0.5c0.8,0.3,1.5,0.8,2,1.4
			c0.6,0.6,1,1.2,1.4,2C918.6,1317.7,918.8,1318.5,918.8,1319.4z M917.4,1331.5v41.5h-10v-41.5H917.4z"/>
		<path class="st10" d="M952.9,1339.6c-0.3,0.4-0.6,0.7-0.8,0.9c-0.3,0.2-0.7,0.3-1.1,0.3c-0.5,0-1-0.1-1.6-0.4
			c-0.6-0.3-1.2-0.6-1.9-0.9c-0.7-0.3-1.6-0.6-2.5-0.9c-0.9-0.3-2-0.4-3.3-0.4c-2,0-3.5,0.4-4.6,1.3c-1.1,0.8-1.7,1.9-1.7,3.3
			c0,0.9,0.3,1.6,0.9,2.2c0.6,0.6,1.3,1.1,2.3,1.6c1,0.5,2,0.9,3.3,1.2c1.2,0.4,2.4,0.8,3.7,1.2c1.3,0.4,2.5,0.9,3.7,1.5
			s2.3,1.3,3.3,2.1c1,0.8,1.7,1.9,2.3,3.1c0.6,1.2,0.9,2.6,0.9,4.3c0,2-0.4,3.8-1.1,5.5s-1.8,3.1-3.2,4.4c-1.4,1.2-3.1,2.2-5.2,2.9
			c-2.1,0.7-4.4,1-7.1,1c-1.4,0-2.8-0.1-4.2-0.4c-1.4-0.3-2.7-0.6-3.9-1.1c-1.3-0.5-2.4-1-3.5-1.6c-1.1-0.6-2-1.3-2.8-2l2.3-3.8
			c0.3-0.5,0.6-0.8,1.1-1.1c0.4-0.2,0.9-0.4,1.5-0.4s1.2,0.2,1.8,0.5c0.6,0.4,1.2,0.7,1.9,1.1c0.7,0.4,1.6,0.8,2.6,1.1
			c1,0.4,2.2,0.5,3.7,0.5c1.2,0,2.2-0.1,3.1-0.4c0.8-0.3,1.5-0.7,2.1-1.1c0.6-0.5,1-1,1.2-1.6c0.3-0.6,0.4-1.2,0.4-1.9
			c0-1-0.3-1.8-0.9-2.4c-0.6-0.6-1.3-1.2-2.3-1.6c-1-0.5-2-0.9-3.3-1.2c-1.2-0.4-2.5-0.8-3.8-1.2c-1.3-0.4-2.5-0.9-3.8-1.5
			c-1.2-0.6-2.3-1.3-3.3-2.2c-1-0.9-1.7-2-2.3-3.3c-0.6-1.3-0.9-2.9-0.9-4.7c0-1.7,0.3-3.3,1-4.9c0.7-1.5,1.7-2.9,3-4
			c1.3-1.1,2.9-2.1,4.9-2.8s4.2-1,6.8-1c2.9,0,5.5,0.5,7.8,1.4s4.3,2.2,5.9,3.7L952.9,1339.6z"/>
		<path class="st10" d="M977,1373.6c-3.6,0-6.4-1-8.3-3.1c-1.9-2-2.9-4.8-2.9-8.4V1339h-4.2c-0.5,0-1-0.2-1.4-0.5
			c-0.4-0.4-0.6-0.9-0.6-1.6v-4l6.7-1.1l2.1-11.3c0.1-0.5,0.4-1,0.8-1.3c0.4-0.3,0.9-0.4,1.5-0.4h5.2v13.1h11.1v7.1h-11.1v22.5
			c0,1.3,0.3,2.3,1,3c0.6,0.7,1.5,1.1,2.6,1.1c0.6,0,1.1-0.1,1.6-0.2c0.4-0.1,0.8-0.3,1.1-0.5c0.3-0.2,0.6-0.3,0.8-0.5
			c0.2-0.1,0.5-0.2,0.7-0.2c0.3,0,0.5,0.1,0.7,0.2s0.4,0.4,0.6,0.7l3,4.9c-1.5,1.2-3.1,2.1-5,2.7C981,1373.3,979,1373.6,977,1373.6z
			"/>
		<path class="st10" d="M1000.6,1353.5c0.2,2.1,0.5,4,1.1,5.5c0.6,1.6,1.4,2.8,2.3,3.8c1,1,2.1,1.8,3.5,2.3s2.8,0.7,4.4,0.7
			c1.6,0,3-0.2,4.2-0.6c1.2-0.4,2.2-0.8,3.1-1.3c0.9-0.5,1.6-0.9,2.3-1.3c0.7-0.4,1.3-0.6,1.9-0.6c0.8,0,1.5,0.3,1.9,0.9l2.9,3.6
			c-1.1,1.3-2.3,2.4-3.7,3.3c-1.4,0.9-2.8,1.6-4.3,2.1s-3,0.9-4.6,1.1c-1.6,0.2-3.1,0.3-4.5,0.3c-2.9,0-5.6-0.5-8-1.4
			c-2.5-1-4.6-2.4-6.5-4.2c-1.8-1.9-3.3-4.2-4.3-7c-1.1-2.8-1.6-6-1.6-9.6c0-2.8,0.5-5.5,1.4-8c0.9-2.5,2.2-4.7,3.9-6.5
			c1.7-1.8,3.8-3.3,6.3-4.4c2.5-1.1,5.2-1.6,8.3-1.6c2.6,0,5,0.4,7.2,1.3c2.2,0.8,4.1,2.1,5.7,3.7c1.6,1.6,2.8,3.6,3.7,5.9
			c0.9,2.3,1.4,5,1.4,8c0,1.5-0.2,2.5-0.5,3.1c-0.3,0.5-0.9,0.8-1.9,0.8H1000.6z M1019.6,1347.5c0-1.3-0.2-2.5-0.5-3.7
			c-0.4-1.1-0.9-2.1-1.6-3c-0.7-0.9-1.7-1.5-2.8-2c-1.1-0.5-2.4-0.7-3.9-0.7c-2.9,0-5.2,0.8-6.8,2.5c-1.7,1.6-2.7,4-3.2,7H1019.6z"
			/>
		<path class="st10" d="M1045.5,1338.7c1.3-2.5,2.8-4.4,4.6-5.8s3.9-2.1,6.3-2.1c1.9,0,3.5,0.4,4.6,1.3l-0.6,7.5
			c-0.1,0.5-0.3,0.8-0.6,1s-0.6,0.3-1,0.3c-0.4,0-1-0.1-1.8-0.2c-0.8-0.1-1.6-0.2-2.3-0.2c-1.1,0-2.1,0.2-3,0.5
			c-0.9,0.3-1.6,0.8-2.3,1.4s-1.3,1.3-1.8,2.2s-1,1.8-1.5,3v25.6h-10v-41.5h5.9c1,0,1.7,0.2,2.1,0.5c0.4,0.4,0.7,1,0.8,2
			L1045.5,1338.7z"/>
		<path class="st10" d="M1135.1,1314.5v58.5h-5.6c-0.9,0-1.6-0.1-2.2-0.4c-0.6-0.3-1.1-0.8-1.7-1.4l-30.5-39
			c0.2,1.8,0.2,3.4,0.2,4.9v35.9h-9.6v-58.5h5.7c0.5,0,0.9,0,1.2,0.1c0.3,0,0.6,0.1,0.9,0.2c0.3,0.1,0.5,0.3,0.7,0.5
			c0.2,0.2,0.5,0.5,0.8,0.9l30.6,39.1c-0.1-0.9-0.1-1.9-0.2-2.8c-0.1-0.9-0.1-1.8-0.1-2.5v-35.5H1135.1z"/>
		<path class="st10" d="M1163.6,1330.8c3.1,0,5.9,0.5,8.4,1.5c2.5,1,4.7,2.4,6.5,4.2c1.8,1.8,3.2,4.1,4.1,6.7s1.5,5.6,1.5,8.9
			c0,3.3-0.5,6.3-1.5,8.9s-2.4,4.9-4.1,6.8c-1.8,1.9-3.9,3.3-6.5,4.3s-5.3,1.5-8.4,1.5c-3.1,0-5.9-0.5-8.5-1.5
			c-2.5-1-4.7-2.4-6.5-4.3c-1.8-1.9-3.2-4.1-4.2-6.8c-1-2.6-1.5-5.6-1.5-8.9c0-3.3,0.5-6.2,1.5-8.9c1-2.6,2.4-4.9,4.2-6.7
			c1.8-1.8,4-3.2,6.5-4.2C1157.7,1331.3,1160.5,1330.8,1163.6,1330.8z M1163.6,1365.9c3.4,0,6-1.2,7.7-3.5c1.7-2.3,2.5-5.7,2.5-10.2
			c0-4.5-0.8-7.9-2.5-10.2c-1.7-2.3-4.2-3.5-7.7-3.5c-3.5,0-6.1,1.2-7.8,3.5s-2.5,5.8-2.5,10.2c0,4.4,0.8,7.8,2.5,10.2
			S1160.1,1365.9,1163.6,1365.9z"/>
		<path class="st10" d="M1250.3,1331.5l-13.2,41.5h-8c-0.9,0-1.6-0.6-1.9-1.8l-7.4-24c-0.2-0.8-0.5-1.6-0.7-2.4
			c-0.2-0.8-0.4-1.6-0.5-2.4c-0.2,0.8-0.3,1.6-0.5,2.4s-0.4,1.6-0.7,2.4l-7.6,23.9c-0.3,1.2-1,1.8-2.1,1.8h-7.7l-13.1-41.5h8
			c0.7,0,1.3,0.2,1.9,0.5c0.5,0.4,0.8,0.8,1,1.3l5.9,22.2c0.3,1.2,0.6,2.4,0.8,3.6c0.2,1.2,0.4,2.3,0.6,3.5c0.3-1.2,0.6-2.3,1-3.5
			c0.3-1.2,0.7-2.3,1.1-3.6l6.9-22.2c0.2-0.5,0.5-1,1-1.3c0.5-0.3,1-0.5,1.7-0.5h4.4c0.7,0,1.3,0.2,1.8,0.5c0.5,0.4,0.8,0.8,1,1.3
			l6.7,22.2c0.3,1.2,0.7,2.4,1,3.6s0.6,2.3,0.9,3.5c0.3-2.3,0.8-4.6,1.5-7.1l6.1-22.2c0.2-0.5,0.5-1,1-1.3c0.5-0.3,1.1-0.5,1.7-0.5
			H1250.3z"/>
	</g>
</g>
</svg>
