<svg width="576" height="349" viewBox="0 0 576 349" fill="none" xmlns="http://www.w3.org/2000/svg">
<path d="M10.5814 330.088C11.5785 330.092 12.4606 330.735 12.7697 331.683C14.1875 335.913 19.1112 338.617 25.2832 338.617C32.218 338.617 36.9799 335.296 36.9799 330.719C36.9799 326.659 33.9979 324.416 26.4852 322.729L18.3484 320.934C6.86739 318.476 1.21166 312.643 1.21166 303.535C1.21166 292.054 11.1439 284.449 25.0443 284.449C38.3823 284.449 47.151 290.759 48.6535 300.53C48.7553 301.2 48.5575 301.882 48.1124 302.394C47.6674 302.905 47.0201 303.196 46.3419 303.188H38.5595C37.5141 303.185 36.601 302.48 36.3326 301.47C35.1306 297.24 30.8464 294.728 25.0674 294.728C18.6335 294.728 14.2799 297.81 14.2799 302.433C14.2799 306.286 17.3004 308.436 24.4664 310.077L32.0254 311.672C44.5003 314.346 49.9403 319.701 49.9403 329.201C49.9403 341.291 40.1391 348.935 24.6822 348.935C10.8665 348.935 1.68168 342.878 0.0250341 332.754C-0.074247 332.084 0.124719 331.405 0.569454 330.895C1.01419 330.385 1.66003 330.096 2.33664 330.103L10.5814 330.088Z" fill="black"/>
<path d="M87.9431 318.776C86.9186 318.773 86.0186 318.095 85.7317 317.112C84.6144 313.197 81.4783 310.616 76.9091 310.616C70.7448 310.616 66.8459 315.887 66.8459 324.648C66.8459 333.586 70.6986 338.764 76.9476 338.764C81.4629 338.764 84.5836 336.529 85.7471 332.507C86.0415 331.535 86.9355 330.87 87.9508 330.866H95.217C95.9078 330.855 96.5674 331.154 97.0148 331.68C97.4623 332.207 97.6507 332.906 97.5286 333.586C95.7564 342.886 88.051 348.657 76.8397 348.657C62.9701 348.657 54.0858 339.588 54.0858 324.655C54.0858 309.977 62.9393 300.769 76.755 300.769C88.1666 300.769 95.818 307.079 97.5055 316.11C97.6225 316.788 97.4316 317.482 96.9848 318.005C96.5379 318.528 95.8815 318.825 95.1939 318.815L87.9431 318.776Z" fill="black"/>
<path d="M105.272 301.524H112.824C114.1 301.524 115.135 302.559 115.135 303.835V309.853H115.397C116.977 304.144 120.961 300.984 126.4 300.984C126.945 300.984 127.459 301.008 127.942 301.054C129.118 301.184 130.006 302.182 129.999 303.365V309.661C130.004 310.326 129.722 310.962 129.224 311.405C128.727 311.848 128.063 312.054 127.402 311.972C126.745 311.894 126.084 311.855 125.422 311.857C119.204 311.857 115.574 315.655 115.574 322.174V345.521C115.574 346.798 114.54 347.833 113.263 347.833H105.272C103.996 347.833 102.961 346.798 102.961 345.521V303.835C102.961 302.559 103.996 301.524 105.272 301.524Z" fill="black"/>
<path fill-rule="evenodd" clip-rule="evenodd" d="M174.73 334.661C174.296 334.038 173.584 333.668 172.825 333.67L165.721 333.694C164.895 333.681 164.129 334.122 163.725 334.842C162.215 337.654 158.909 339.349 154.895 339.349C148.553 339.349 144.277 334.903 144.277 328.385V327.614H173.873C175.15 327.614 176.185 326.579 176.185 325.302V323.761C176.185 309.691 167.64 300.753 154.209 300.753C140.563 300.753 131.879 310.177 131.879 324.902C131.879 339.627 140.517 348.65 154.679 348.65C164.673 348.65 172.355 344.042 174.998 336.791C175.264 336.08 175.164 335.284 174.73 334.661ZM164.049 319.855H144.408C144.839 314.068 148.761 310.054 154.332 310.054C159.903 310.054 163.787 313.937 164.049 319.855Z" fill="black"/>
<path d="M230.77 347.833H220.914C219.857 347.834 218.933 347.117 218.672 346.092L210.743 315.108H210.481L202.591 346.092C202.33 347.117 201.407 347.834 200.349 347.833H190.671C189.623 347.833 188.705 347.128 188.436 346.115L177.364 304.452C177.179 303.758 177.328 303.018 177.766 302.449C178.203 301.88 178.88 301.547 179.598 301.547H187.396C188.495 301.547 189.442 302.32 189.661 303.396L196.28 335.867H196.542L204.325 303.319C204.574 302.279 205.505 301.546 206.575 301.547H215.051C216.12 301.546 217.051 302.279 217.301 303.319L225.121 335.874H225.383L232.041 303.396C232.261 302.32 233.208 301.547 234.306 301.547H241.804C242.521 301.547 243.199 301.88 243.636 302.449C244.074 303.018 244.222 303.758 244.038 304.452L233.004 346.115C232.735 347.128 231.818 347.833 230.77 347.833Z" fill="black"/>
<path fill-rule="evenodd" clip-rule="evenodd" d="M263.409 301.023C251.882 301.023 244.454 310.131 244.454 324.64C244.454 339.241 251.82 348.395 263.325 348.365C270.144 348.365 275.499 344.982 277.741 339.889H277.957V345.521C277.957 346.798 278.992 347.833 280.269 347.833H288.082C289.358 347.833 290.393 346.798 290.393 345.521V287.847C290.393 286.57 289.358 285.535 288.082 285.535H280.099C278.822 285.535 277.787 286.57 277.787 287.847V309.499H277.525C275.237 304.39 270.105 301.023 263.409 301.023ZM267.593 338.278C261.329 338.278 257.361 333.054 257.361 324.725V324.694C257.361 316.403 261.329 311.171 267.593 311.171C273.858 311.171 277.872 316.441 277.872 324.725C277.872 333.008 273.858 338.278 267.593 338.278Z" fill="black"/>
<path d="M299.355 301.524H306.906C308.183 301.524 309.218 302.559 309.218 303.835V309.853H309.48C311.075 304.113 315.051 300.961 320.491 300.961C321.035 300.961 321.549 300.984 322.032 301.031C323.208 301.161 324.096 302.159 324.089 303.342V309.638C324.094 310.303 323.812 310.939 323.314 311.382C322.817 311.825 322.153 312.031 321.492 311.949C320.835 311.871 320.174 311.832 319.512 311.834C313.294 311.834 309.665 315.632 309.665 322.151V345.521C309.665 346.798 308.63 347.833 307.353 347.833H299.355C298.078 347.833 297.043 346.798 297.043 345.521V303.835C297.043 302.559 298.078 301.524 299.355 301.524Z" fill="black"/>
<path fill-rule="evenodd" clip-rule="evenodd" d="M332.17 283.579C329.659 284.693 328.074 287.22 328.165 289.966C328.168 291.731 328.886 293.42 330.155 294.648C331.423 295.876 333.135 296.539 334.9 296.485C337.647 296.486 340.121 294.82 341.153 292.274C342.184 289.727 341.567 286.809 339.593 284.898C337.619 282.987 334.682 282.465 332.17 283.579ZM338.891 301.524H330.908C329.632 301.524 328.597 302.559 328.597 303.835V345.521C328.597 346.798 329.632 347.833 330.908 347.833H338.891C340.168 347.833 341.203 346.798 341.203 345.521V303.835C341.203 302.559 340.168 301.524 338.891 301.524Z" fill="black"/>
<path d="M373.958 347.833H363.009C362.026 347.837 361.148 347.219 360.82 346.292L346.411 304.606C346.161 303.897 346.27 303.11 346.706 302.497C347.141 301.884 347.848 301.521 348.6 301.524H357.075C358.117 301.525 359.028 302.222 359.302 303.227L368.464 336.668H368.726L377.849 303.227C378.125 302.214 379.049 301.515 380.099 301.524H388.267C389.019 301.521 389.725 301.884 390.161 302.497C390.596 303.11 390.706 303.897 390.455 304.606L376.154 346.269C375.833 347.207 374.95 347.837 373.958 347.833Z" fill="black"/>
<path fill-rule="evenodd" clip-rule="evenodd" d="M433.044 334.661C432.61 334.038 431.899 333.668 431.14 333.67L424.035 333.694C423.21 333.681 422.444 334.122 422.04 334.842C420.529 337.654 417.224 339.349 413.209 339.349C406.868 339.349 402.591 334.903 402.591 328.385V327.614H432.18C433.456 327.614 434.491 326.579 434.491 325.302V323.761C434.491 309.691 425.946 300.753 412.516 300.753C398.877 300.753 390.193 310.177 390.193 324.902C390.193 339.627 398.831 348.65 412.993 348.65C422.987 348.65 430.67 344.042 433.313 336.791C433.578 336.08 433.478 335.284 433.044 334.661ZM422.355 319.855H402.714C403.146 314.068 407.068 310.054 412.639 310.054C418.21 310.054 422.093 313.937 422.355 319.855Z" fill="black"/>
<path d="M442.281 301.524H449.848C451.125 301.524 452.16 302.559 452.16 303.835V309.853H452.422C454.017 304.113 457.993 300.961 463.433 300.961C463.977 300.961 464.491 300.984 464.974 301.031C466.15 301.161 467.038 302.159 467.031 303.342V309.638C467.036 310.303 466.754 310.939 466.256 311.382C465.759 311.825 465.095 312.031 464.434 311.949C463.777 311.871 463.116 311.832 462.454 311.834C456.236 311.834 452.607 315.632 452.607 322.151V345.521C452.607 346.798 451.572 347.833 450.295 347.833H442.281C441.005 347.833 439.97 346.798 439.97 345.521V303.835C439.97 302.559 441.005 301.524 442.281 301.524Z" fill="black"/>
<path d="M465.328 341.399C465.328 337.569 468.433 334.464 472.263 334.464C476.093 334.464 479.198 337.569 479.198 341.399C479.198 345.229 476.093 348.334 472.263 348.334C470.42 348.346 468.649 347.62 467.346 346.316C466.042 345.013 465.316 343.242 465.328 341.399Z" fill="black"/>
<path d="M517.046 318.776C516.022 318.773 515.122 318.095 514.835 317.112C513.71 313.19 510.582 310.616 505.981 310.616C499.817 310.616 495.918 315.887 495.918 324.648C495.918 333.586 499.771 338.764 506.02 338.764C510.535 338.764 513.656 336.529 514.819 332.507C515.114 331.535 516.008 330.87 517.023 330.866H524.289C524.98 330.855 525.64 331.154 526.087 331.68C526.535 332.207 526.723 332.906 526.601 333.586C524.829 342.886 517.123 348.657 505.912 348.657C492.042 348.657 483.158 339.588 483.158 324.655C483.158 309.977 492.012 300.769 505.827 300.769C517.239 300.769 524.89 307.079 526.578 316.11C526.695 316.788 526.504 317.482 526.057 318.005C525.61 318.528 524.954 318.825 524.266 318.815L517.046 318.776Z" fill="black"/>
<path fill-rule="evenodd" clip-rule="evenodd" d="M549.016 301.023C537.489 301.023 530.061 310.131 530.061 324.64C530.061 339.241 537.443 348.395 548.923 348.365C555.75 348.365 561.106 344.982 563.348 339.889H563.564V345.521C563.564 346.798 564.599 347.833 565.875 347.833H573.688C574.965 347.833 576 346.798 576 345.521V287.847C576 286.57 574.965 285.535 573.688 285.535H565.706C564.429 285.535 563.394 286.57 563.394 287.847V309.499H563.132C560.844 304.39 555.704 301.023 549.016 301.023ZM553.2 338.278C546.936 338.278 542.967 333.054 542.967 324.725L542.975 324.694C542.975 316.403 546.936 311.171 553.2 311.171C559.464 311.171 563.479 316.441 563.479 324.725C563.479 333.008 559.464 338.278 553.2 338.278Z" fill="black"/>
<path d="M354.216 73.2555C354.799 77.5958 355.097 81.9696 355.108 86.3488V114.08C370.163 126.454 376.889 146.301 372.459 165.279C368.029 184.257 353.211 199.075 334.234 203.505C315.256 207.935 295.409 201.209 283.034 186.153C279.735 182.131 277.068 177.629 275.124 172.803C272.679 166.749 271.421 160.283 271.417 153.755V102.48H293.245V86.366C293.241 81.5428 292.309 76.7653 290.499 72.2945C289.807 70.5796 288.992 68.9166 288.062 67.318H236.272V153.738C236.262 159.546 236.837 165.342 237.989 171.035C238.48 173.461 239.052 175.852 239.705 178.208C240.442 180.696 241.3 183.15 242.244 185.536C256.795 222.223 294.352 244.391 333.503 239.401C372.654 234.411 403.45 203.53 408.332 164.366C413.214 125.201 390.943 87.7051 354.216 73.2555Z" fill="black"/>
<path d="M340.007 69.0513C339.515 66.6259 338.943 64.2349 338.291 61.8782C337.553 59.39 336.695 56.9361 335.751 54.5508C321.194 17.8656 283.634 -4.29675 244.484 0.699523C205.334 5.6958 174.543 36.5811 169.666 75.7463C164.79 114.911 187.067 152.404 223.797 166.848C223.214 162.508 222.916 158.134 222.904 153.755V126.024C204.527 110.933 198.961 85.1744 209.468 63.8426C219.976 42.5108 243.79 31.224 266.955 36.5967C290.119 41.9694 306.533 62.5867 306.578 86.3661V137.624H284.767V153.738C284.771 158.561 285.703 163.338 287.513 167.809C288.206 169.524 289.02 171.187 289.95 172.786H341.723V86.3661C341.734 80.5515 341.159 74.7505 340.007 69.0513Z" fill="black"/>
</svg>
