<?xml version="1.0" encoding="UTF-8"?><svg id="a" xmlns="http://www.w3.org/2000/svg" xmlns:xlink="http://www.w3.org/1999/xlink" viewBox="0 0 382.46 288.11"><defs><linearGradient id="b" x1="205.65" y1="140.05" x2="59.36" y2="145.6" gradientTransform="translate(0 -5.2)" gradientUnits="userSpaceOnUse"><stop offset="0" stop-color="#ed1c24"/><stop offset="1" stop-color="#f7941d"/></linearGradient><linearGradient id="c" x1="207.32" y1="184.01" x2="61.04" y2="189.57" gradientTransform="translate(0 -5.2)" gradientUnits="userSpaceOnUse"><stop offset="0" stop-color="#ed1c24"/><stop offset="1" stop-color="#f7941d"/></linearGradient><linearGradient id="d" x1="204.71" y1="115.26" x2="58.43" y2="120.82" gradientTransform="translate(0 -5.2)" gradientUnits="userSpaceOnUse"><stop offset="0" stop-color="#ed1c24"/><stop offset="1" stop-color="#f7941d"/></linearGradient><linearGradient id="e" x1="360.32" y1="108.21" x2="183.78" y2="115.15" gradientTransform="translate(0 -5.2)" gradientUnits="userSpaceOnUse"><stop offset="0" stop-color="#ed1c24"/><stop offset="1" stop-color="#f7941d"/></linearGradient></defs><path d="m13.52,284.2c-6,0-9.06-5.15-9.06-11.32s3.05-11.33,9.06-11.33c2.84-.07,5.54,1.23,7.26,3.48l3-2.58c-2.47-3.17-6.3-4.96-10.31-4.84-8.71,0-13.47,7.22-13.47,15.19s4.65,15.3,13.55,15.3c4.02.12,7.84-1.71,10.28-4.9l-3-2.77c-1.66,2.39-4.4,3.8-7.31,3.77h0Zm29.56-26.59c-2.95,0-5.9.3-8.78.93v28.43c2.86.73,5.8,1.11,8.75,1.13,8.9,0,13.86-7.3,13.86-15.46s-5.08-15.03-13.83-15.03Zm-.11,26.43c-1.57,0-3.12-.24-4.61-.74v-21.24c1.51-.34,3.06-.51,4.61-.51,6.09,0,9.53,5,9.53,11.09s-3.21,11.4-9.53,11.4Zm25.73-1.32c-1.42-.04-2.61,1.08-2.66,2.5-.04,1.42,1.08,2.61,2.5,2.66,1.42.04,2.61-1.08,2.66-2.5v-.13c0-1.39-1.11-2.52-2.5-2.53Zm13.44,5.15h4.06v-13.31h13.55l.31-3.79h-13.86v-9.18h14.68l.31-3.79h-19.05v30.07Zm41.51-30.26c-8.94,0-13.59,7.26-13.59,15.19s4.65,15.3,13.59,15.3,13.51-7.34,13.51-15.3-4.76-15.19-13.51-15.19Zm0,26.55c-6,0-9.1-5.15-9.1-11.32s3-11.33,9.1-11.33,9.1,5.12,9.1,11.33-3.09,11.36-9.14,11.36l.04-.04Zm40.92-6.29c0,3.17-2.61,6.21-6.87,6.21-4.8,0-7-3-7-6.21v-20.07l-4.06.31v20.09c0,6.75,5.66,9.87,11.09,9.87,5.12,0,10.94-3.27,10.94-9.87v-20.4l-4.07.31-.03,19.76Zm34.45,5.04c-5.12-6.56-11.48-23.15-15.62-25.11h-4v30.07h4.06v-24.33c4.8,7.42,10.5,22.49,15.62,24.33h4.06v-30.07l-4.06.31-.06,24.8Zm24.17-25.3c-2.95,0-5.9.3-8.78.93v28.43c2.86.73,5.79,1.11,8.74,1.13,8.91,0,13.86-7.3,13.86-15.46s-5.07-15.03-13.82-15.03h0Zm-.12,26.43c-1.56,0-3.12-.24-4.6-.74v-21.24c1.51-.34,3.05-.51,4.6-.51,6.1,0,9.53,5,9.53,11.09s-3.2,11.4-9.53,11.4Zm32.11-26.24c-4.69,9.14-9.46,20-10.86,30.07h4.06c.42-2.76,1.02-5.48,1.8-8.16h14.17c.78,2.68,1.38,5.4,1.8,8.16h4.06c-1.41-10-6.17-20.93-10.86-30.07h-4.17Zm-3.79,18.12c1.68-4.76,3.64-9.42,5.89-13.94,2.22,4.53,4.18,9.18,5.86,13.94h-11.75Zm24.68-14.68h8.28v26.63h4.06v-26.63h7.85l.31-3.44h-20.19l-.31,3.44Zm31.24,26.63h4.06v-30.07l-4.06.32v29.75h0Zm28.27-30.26c-8.94,0-13.59,7.26-13.59,15.19s4.65,15.3,13.59,15.3,13.51-7.34,13.51-15.3-4.76-15.19-13.51-15.19Zm0,26.55c-6.05,0-9.1-5.15-9.1-11.32s3-11.33,9.1-11.33,9.1,5.12,9.1,11.33-3.08,11.36-9.14,11.36l.04-.04Zm42.8-26.05v24.8c-5.11-6.56-11.48-23.15-15.62-25.11h-4v30.07h4.02v-24.33c4.81,7.42,10.51,22.49,15.62,24.33h4.06v-30.07l-4.08.31Z" fill="#f9f9f9" stroke-width="0"/><path d="m133.95,181.39c1.42-.19,2.8-.44,4.15-.76s2.66-.69,4-1.12c7.72-2.62,14.41-7.41,20.81-14.07l-.08-.1c-8.55,8.86-17.56,14.5-28.88,16.05h0Z" fill="#c49a6c" stroke-width="0"/><path d="m173.78,152.05c-3.34,4.71-7,9.18-10.95,13.39-6.4,6.66-13.09,11.45-20.81,14.07-1.31.44-2.65.82-4,1.12-1.39.31-2.73.57-4.15.76-.47.07-.94.13-1.42.18l-.77.07c-.61.05-1.22.1-1.84.13h-2.59c-2.61,0-5.21-.3-7.76-.88-1.94-.43-3.85-.99-5.71-1.69-1.3-.48-2.58-1.03-3.82-1.65-1.26-.65-2.5-1.28-3.72-2-5.61-3.35-10.52-7.77-14.44-13-.87-1.17-1.69-2.39-2.46-3.64-.38-.63-.74-1.26-1.09-1.91-.7-1.3-1.34-2.64-1.91-4-4.16-9.83-4.16-20.92,0-30.75.57-1.36,1.21-2.7,1.91-4,.35-.65.71-1.28,1.09-1.91.77-1.25,1.59-2.47,2.46-3.64,3.92-5.23,8.83-9.64,14.44-13,1.22-.72,2.46-1.39,3.72-2,1.25-.56,2.52-1.06,3.82-1.5,1.9-.72,3.85-1.31,5.83-1.75,2.55-.58,5.15-.87,7.76-.88h2.64c.61,0,1.22.08,1.82.13l.88.09.86.1c1.52.2,3,.47,4.45.81.72.17,1.43.36,2.13.56,3.5,1.03,6.86,2.5,10,4.37,1.26.75,2.49,1.56,3.71,2.44,2.5,1.82,4.87,3.83,7.08,6,1.15,1.12,2.29,2.3,3.43,3.54l.07-.11c3.33,3.75,6.45,7.68,9.34,11.77,4.59-7.24,11.53-18.12,14-21.73,1-1.45,2-2.92,3.09-4.4-11.43-13.94-25.18-25.52-43.55-30.46h-.13c-.89-.24-1.78-.46-2.69-.67l-.38-.09c-.88-.19-1.77-.37-2.66-.53l-.53-.1c-1-.18-2.09-.34-3.16-.48h-.12c-.58-.08-1.16-.14-1.75-.2h-.33l-1.58-.14h-.48l-1.48-.1h-.57l-1.5-.06h-2.63c-39.21-.21-73.55,34.17-73.55,73.37s34.38,73.59,73.59,73.59h2.65l1.46-.06h.62l1.41-.08h.57l1.44-.13h.48l1.53-.18.35-.05,1.66-.23h.18c1-.16,2-.34,3-.53l.55-.12c.81-.17,1.61-.35,2.41-.54l.49-.12c.85-.22,1.7-.44,2.54-.69l.2-.06c17.5-5.13,30.75-16.37,41.83-29.78-1.19-1.79-2.33-3.61-3.41-5.47l-13.55-21.18Z" fill="url(#b)" stroke-width="0"/><path d="m129.78,181.78h.19c.62,0,1.23-.08,1.84-.13-.61.05-1.22.1-1.85.13h-.18Z" fill="url(#c)" stroke-width="0"/><path d="m164.37,111.54l-.07.11.07-.11Z" fill="url(#d)" stroke-width="0"/><path d="m318.9,0v79.91c-12.61-10.09-28.25-15.66-44.4-15.81h-2.63l-1.5.06-.59.04-1.48.1h-.48l-1.58.14h-.33c-.59.06-1.17.12-1.75.2h-.13c-1.06.13-2.11.3-3.15.48l-.53.1c-.9.16-1.78.34-2.66.53l-.38.09c-25.62,5.79-42.49,24.32-56.41,44.59-.59.86-1.14,1.73-1.72,2.59-1.9,2.89-4.61,7.11-7.29,11.31-3.52,5.51-7,11-8.39,13.22l17.41,27.13s18.57,34.16,52.07,43.46l.2.06c.84.25,1.69.47,2.54.69l.49.12c.79.2,1.6.37,2.41.54l.55.12c1,.19,2,.37,3,.53h.18l1.66.23.35.05,1.53.18h.48l1.44.13h.57l1.41.08h.62l1.46.06h2.65c46.18,0,72.9-26.14,73.57-71.81V0h-29.19Zm-44.4,181.84h-2.59c-.62,0-1.23-.08-1.84-.13l-.77-.07c-.48-.05-.95-.11-1.42-.18-2.75-.37-5.46-1.01-8.08-1.92-1.92-.66-3.79-1.46-5.6-2.39-1.83-.94-3.59-2.01-5.28-3.18-.85-.59-1.7-1.21-2.54-1.87-2.6-2.05-5.05-4.29-7.33-6.69l-.08.1c-1.06-1.1-2.1-2.27-3.15-3.47-.13-.14-.25-.3-.38-.45-.53-.61-1.06-1.22-1.59-1.87s-.95-1.18-1.42-1.77-.75-.93-1.13-1.42c-1.7-2.19-3.39-4.51-5.11-7-.59-.84-1.18-1.71-1.78-2.58-.32-.48-.65-1-1-1.46-.57-.86-1.15-1.7-1.73-2.58l-.3-.46c-1-1.53-2-3.11-3.08-4.73,1.66-2.59,3.3-5.09,4.91-7.48,1.61-2.39,3.2-4.69,4.78-6.87s3.14-4.26,4.72-6.23,3.14-3.82,4.73-5.56c1.14-1.24,2.28-2.42,3.43-3.54,1.16-1.13,2.32-2.19,3.51-3.19s2.37-1.93,3.59-2.81c2.07-1.47,4.26-2.77,6.54-3.9.28-.14.56-.31.85-.45l.19-.1c1.19-.55,2.4-1,3.63-1.46l.41-.17c.23-.07.47-.12.7-.2.92-.3,1.87-.57,2.82-.8l1.16-.29c1.31-.28,2.64-.53,4-.71l.86-.1.88-.09c.6,0,1.21-.1,1.82-.13h2.64c1.29,0,2.58.08,3.86.22,1.98.24,3.93.62,5.85,1.14,1.3.36,2.6.78,3.88,1.27,1.3.49,2.58,1.04,3.82,1.65,1.26.61,2.5,1.28,3.72,2s2.42,1.52,3.58,2.35,2.3,1.73,3.4,2.68c2.78,2.38,5.28,5.07,7.46,8,.87,1.17,1.69,2.39,2.46,3.64,1.92,3.15,3.43,6.53,4.49,10.06.41,1.43.75,2.89,1,4.36.4,2.25.6,4.54.6,6.83.06,30.36-13.56,44-44.09,44h0Z" fill="url(#e)" stroke-width="0"/></svg>