<svg width="81.329mm" height="64.746mm" version="1.1" viewBox="0 0 81.329 64.746" xmlns="http://www.w3.org/2000/svg"><g transform="translate(-46.527 94.526)"><g fill="#fff"><path transform="matrix(.26458 0 0 .26458 46.527 -94.526)" d="m156.21 37.801c-7.5296-0.027354-15.292 0.060903-21.209 0.26953-2.6298 0.092599-4.8926 0.20756-6.6426 0.35156-0.87497 0.071811-1.6196 0.14927-2.252 0.24414-0.63229 0.094488-1.0276 0.094517-1.8496 0.49023-0.82198 0.39583-1.0689 0.70718-1.5371 1.1426-0.4682 0.43536-0.99194 0.96819-1.5938 1.6074-1.2036 1.2785-2.7036 2.9762-4.416 4.9746-3.425 3.9969-7.6863 9.1885-11.875 14.441-4.1887 5.2529-8.3032 10.562-11.437 14.791-1.5671 2.1144-2.8867 3.954-3.8652 5.4121-0.48928 0.72903-0.89065 1.3606-1.2109 1.9141-0.32032 0.5534-0.57033 0.86225-0.77344 1.752-0.20311 0.8897-0.11084 1.2744-0.0625 1.9121 0.047698 0.63772 0.13534 1.3827 0.25977 2.252 0.24884 1.7386 0.64057 3.9711 1.1348 6.5566 0.98838 5.1711 2.3909 11.739 3.8848 18.291 1.4939 6.5517 3.0768 13.078 4.4277 18.166 0.67545 2.5442 1.2908 4.7258 1.8203 6.4004 0.26476 0.83728 0.50544 1.545 0.73828 2.1406 0.23286 0.59557 0.31989 0.98365 0.88867 1.6973 0.56872 0.71358 0.92851 0.88441 1.457 1.2441 0.52854 0.35981 1.1649 0.75257 1.9219 1.1973 1.5139 0.88932 3.5013 1.9757 5.8301 3.2012 4.6575 2.4508 10.665 5.4471 16.717 8.3633 6.0517 2.9162 12.14 5.7476 16.959 7.8633 2.4095 1.0578 4.4979 1.9385 6.1367 2.5684 0.8194 0.31484 1.5241 0.56467 2.1348 0.75391 0.61064 0.18935 0.96664 0.36328 1.8789 0.36328 0.91233 1.1e-4 1.2702-0.17393 1.8809-0.36328 0.6107-0.18898 1.3133-0.4411 2.1328-0.75586 1.639-0.62952 3.7269-1.5071 6.1367-2.5644 4.8196-2.1146 10.91-4.9445 16.963-7.8594 6.0526-2.9149 12.06-5.9096 16.719-8.3594 2.3292-1.2249 4.3179-2.3122 5.832-3.2012 0.75708-0.44451 1.3933-0.83764 1.9219-1.1973 0.52865-0.35943 0.88814-0.53072 1.457-1.2441 0.56889-0.71343 0.65374-1.1018 0.88672-1.6973 0.23318-0.5955 0.47525-1.3015 0.74023-2.1387 0.52993-1.6744 1.1481-3.8546 1.8242-6.3984 1.3523-5.0878 2.934-11.615 4.4297-18.166 1.4957-6.5511 2.9028-13.118 3.8926-18.289 0.49493-2.5853 0.88746-4.8201 1.1367-6.5586 0.12473-0.86925 0.21297-1.6104 0.26172-2.248 0.04838-0.63764 0.13851-1.0243-0.06445-1.9141-0.20296-0.88981-0.45328-1.1965-0.77344-1.75-0.32013-0.55351-0.72179-1.1849-1.2109-1.9141-0.97825-1.4583-2.2985-3.3031-3.8652-5.418-3.1334-4.2296-7.2478-9.5369-11.436-14.791-4.1877-5.2541-8.443-10.448-11.867-14.445-1.7121-1.9989-3.2146-3.6958-4.418-4.9746-0.60169-0.63938-1.1257-1.1719-1.5938-1.6074-0.46811-0.43552-0.71328-0.74848-1.5352-1.1445-1.2328-0.5941-1.7614-0.49801-2.8848-0.61914-1.1233-0.12132-2.5393-0.22248-4.209-0.31055-3.3394-0.17613-7.6839-0.29531-12.447-0.36523-2.3817-0.034961-4.8651-0.057289-7.375-0.066407zm-2.5742 10.889c0.04396-7.56e-4 0.08315 0.004224 0.12696 0.003906 0.04365 3.78e-4 0.08296-0.004507 0.12695-0.003906v0.007813c4.8056-0.003916 8.1186 1.6872 8.6934 2.291 0.31763 0.86288 0.47814 7.8249 0.51367 9.4609h13.939a3.2129 3.2129 0 0 1 3.2109 3.3281l-0.77343 20.154c5.6071 2.2176 9.8242 4.0742 9.8242 4.0742-0.94286 3.5188-4.0566 14.345-6.4082 22.146-4.3582-1.66-8.0918-3.7812-8.0918-3.7812l-3.0117-1.8965c-10.607 9.497-26.854 8.015-36.709 0.07422l-2.8496 1.875s-3.0892 1.8291-7 3.4121c-2.6713-7.9266-6.031-18.206-7.002-21.83 0 0 4.2169-1.8554 9.8223-4.0723l-0.77343-20.156a3.2129 3.2129 0 0 1 3.2109-3.3281h13.941c0.03595-1.636 0.19999-8.5981 0.51758-9.4609 0.57474-0.60385 3.8857-2.2952 8.6914-2.291v-0.007813zm-19.812 18.182 0.56446 14.66c6.7392-2.4596 14.04-4.7748 18.723-5.1484v-0.058593c0.21771 0 0.43495 0.012413 0.65235 0.021484 0.21719-0.008693 0.43284-0.021484 0.65039-0.021484v0.058593c4.684 0.37336 11.988 2.6882 18.729 5.1484l0.56446-14.66h-39.883zm37.654 44.254 2.5098 1.5879s10.041 5.8301 16.824 5.8301v7.5606c-8.7528 0-16.029-4.1974-18.678-5.8242-2.6545 2.0693-8.637 6.1597-19.119 5.8164-10.303-0.33741-16.192-4.0221-18.779-5.8457-2.5925 1.6346-9.7449 5.8535-18.771 5.8535v-7.5606c7.2787 0 16.764-5.793 16.764-5.793l2.377-1.5664 2.1562 1.8535s5.9224 5.1595 16.498 5.5059c10.313 0.33774 16.086-5.3516 16.086-5.3516l2.1328-2.0664zm0 17c5.7098 3.6106 12.673 4.9111 19.334 5.418v7.5606c-8.7528 0-16.029-2.1974-18.678-3.8242-2.6545 2.0693-8.637 4.7846-19.119 4.4414-10.303-0.3374-16.192-2.6472-18.779-4.4707-2.5925 1.6345-9.7449 3.8535-18.771 3.8535v-7.5606c5.8141-0.10697 13.324-2.015 19.141-5.3594 5.1414 4.4195 11.956 5.7251 18.654 5.9844 4.1987 0.07106 13.22-1.2103 18.219-6.043z" stop-color="#000000" style="paint-order:markers fill stroke"/><g transform="matrix(.070446 0 0 .070446 64.787 -110.31)" aria-label="SHIPWRIGHT"><g fill="#fff" stroke-width="18.904" aria-label="SHIPWRIGHT"><path d="m-81.101 1001.1c25.366 0 37.669-12.683 37.669-27.522 0-32.596-51.621-21.308-51.621-37.669 0-5.5806 4.6928-10.147 16.869-10.147 7.8636 0 16.361 2.283 24.605 6.9758l6.3416-15.6c-8.2441-5.2001-19.659-7.8636-30.82-7.8636-25.24 0-37.415 12.556-37.415 27.649 0 32.976 51.621 21.561 51.621 38.176 0 5.4538-4.9464 9.5124-17.122 9.5124-10.654 0-21.815-3.805-29.298-9.2587l-6.9758 15.474c7.8636 6.0879 22.069 10.273 36.147 10.273z"/><path d="m31.525 910.81v35.006h-40.333v-35.006h-20.547v88.782h20.547v-36.401h40.333v36.401h20.547v-88.782z"/><path d="m73.126 999.59h20.547v-88.782h-20.547z"/><path d="m153.16 910.81h-38.43v88.782h20.547v-24.479h17.883c23.718 0 38.557-12.303 38.557-32.088 0-19.913-14.839-32.215-38.557-32.215zm-1.1415 47.562h-16.742v-30.82h16.742c12.556 0 18.898 5.7074 18.898 15.474 0 9.6392-6.3416 15.347-18.898 15.347z"/><path d="m319.81 910.81-20.674 62.909-20.293-62.909h-19.025l-20.927 62.401-20.039-62.401h-21.308l29.171 88.782h21.942l20.166-60.118 19.532 60.118h22.069l29.045-88.782z"/><path d="m429.52 999.59-19.913-28.537c11.542-4.9464 18.264-14.713 18.264-28.03 0-19.913-14.839-32.215-38.557-32.215h-38.43v88.782h20.547v-24.732h18.898l17.122 24.732zm-22.449-56.567c0 9.6392-6.3416 15.474-18.898 15.474h-16.742v-30.947h16.742c12.556 0 18.898 5.7074 18.898 15.474z"/><path d="m444.11 999.59h20.547v-88.782h-20.547z"/><path d="m545.7 979.81c-5.2001 2.7903-10.4 3.805-15.981 3.805-16.995 0-28.791-11.795-28.791-28.41 0-16.869 11.795-28.41 29.045-28.41 9.0051 0 16.488 3.1708 22.957 10.02l13.191-12.176c-8.6246-10.02-21.561-15.347-37.162-15.347-28.284 0-48.83 19.152-48.83 45.913 0 26.762 20.547 45.913 48.45 45.913 12.683 0 26.127-3.9318 35.893-11.288v-36.02h-18.771z"/><path d="m644.38 910.81v35.006h-40.333v-35.006h-20.547v88.782h20.547v-36.401h40.333v36.401h20.547v-88.782z"/><path d="m704.37 999.59h20.547v-72.041h28.41v-16.742h-77.368v16.742h28.41z"/></g></g></g></g></svg>
