<svg width="35.065mm" height="34.493mm" version="1.1" viewBox="0 0 35.065 34.493" xmlns="http://www.w3.org/2000/svg"><g transform="translate(-69.659 84.526)"><g transform="translate(94.809 -158.7)"><path d="m-14.319 74.34c-0.2315 0.019-0.42832 0.0397-0.59562 0.0648-0.16729 0.025-0.272 0.0249-0.4895 0.1296-0.21748 0.10473-0.28278 0.18684-0.40666 0.30204-0.12388 0.11519-0.26217 0.25615-0.4214 0.42528-0.31846 0.33827-0.71564 0.78757-1.1687 1.3163-0.90618 1.0575-2.0334 2.4312-3.1417 3.821s-2.1969 2.7945-3.0261 3.9133c-0.41464 0.55943-0.76371 1.0465-1.0226 1.4323-0.12946 0.19289-0.23604 0.35966-0.32078 0.50609-0.08475 0.14642-0.15095 0.2282-0.20469 0.4636s-0.02934 0.33748-0.01655 0.5062c0.01262 0.16873 0.03624 0.3655 0.06916 0.5955 0.06584 0.46 0.16914 1.0505 0.29989 1.7346 0.26151 1.3682 0.6327 3.1063 1.0279 4.8398 0.39526 1.7335 0.81392 3.4602 1.1714 4.8064 0.17871 0.67315 0.34185 1.2502 0.48194 1.6932 0.07005 0.22153 0.13348 0.40877 0.19508 0.56635 0.06161 0.15758 0.08496 0.26058 0.23545 0.44939 0.15047 0.1888 0.24527 0.23375 0.38511 0.32893 0.13984 0.0952 0.30832 0.19934 0.5086 0.317 0.40055 0.2353 0.92651 0.5226 1.5427 0.84683 1.2323 0.64844 2.8216 1.441 4.4228 2.2126 1.6012 0.77157 3.2123 1.5207 4.4873 2.0805 0.6375 0.27989 1.1902 0.51286 1.6238 0.67952 0.2168 0.0833 0.40292 0.14957 0.56448 0.19964 0.16156 0.0501 0.25566 0.0964 0.49703 0.0964 0.24139 3e-5 0.33627-0.0461 0.49785-0.0962 0.16158-0.05 0.34749-0.11692 0.56432-0.2002 0.43366-0.16656 0.98604-0.39874 1.6236-0.6785 1.2752-0.5595 2.8866-1.3083 4.488-2.0795 1.6014-0.77123 3.1911-1.5636 4.4236-2.2118 0.61626-0.32409 1.1427-0.61146 1.5433-0.84668 0.20031-0.11761 0.36861-0.22169 0.50847-0.31684 0.13987-0.0951 0.2349-0.14061 0.38543-0.32937 0.15052-0.18876 0.17299-0.29118 0.23464-0.44874s0.12568-0.34438 0.19579-0.56588c0.14021-0.44301 0.30368-1.0199 0.48258-1.693 0.3578-1.3462 0.77645-3.0731 1.1722-4.8064s0.76803-3.471 1.0299-4.839c0.13095-0.68403 0.23443-1.2753 0.30038-1.7353 0.03298-0.22999 0.05645-0.42648 0.0693-0.5952 0.01284-0.16871 0.03693-0.27058-0.01675-0.506-0.05368-0.23543-0.11993-0.31703-0.20464-0.46348s-0.19084-0.31324-0.32025-0.50617c-0.25883-0.38585-0.60815-0.87374-1.0227-1.4333-0.82905-1.1191-1.9179-2.5233-3.0259-3.9135s-2.234-2.7645-3.1399-3.8222c-0.45299-0.52888-0.85048-0.9777-1.1689-1.316-0.1592-0.16917-0.29788-0.31026-0.42173-0.42549s-0.18872-0.19817-0.40617-0.30296c-0.32619-0.15719-0.466-0.13168-0.76321-0.16373-0.29721-0.0321-0.67155-0.0587-1.1133-0.082-0.88355-0.0466-2.0333-0.0784-3.2936-0.0969-2.5206-0.037-5.4752-0.0195-7.5626 0.0541-0.69581 0.0245-1.2949 0.0548-1.7579 0.0929z" fill="#7c8fa4" stop-color="#000000" style="paint-order:markers fill stroke"/><g fill="#0e232e"><path d="m-13.756 80.168a0.85009 0.85009 0 0 0-0.84961 0.88086l0.24609 6.4121a0.85009 0.85009 0 0 0 0.84961 0.81641h11.826a0.85009 0.85009 0 0 0 0.84766-0.81641l0.24609-6.4121a0.85009 0.85009 0 0 0-0.84961-0.88086zm0.88281 1.6992h10.553l-0.18164 4.7109h-10.189z" color="#000000" color-rendering="auto" dominant-baseline="auto" image-rendering="auto" shape-rendering="auto" solid-color="#000000" stop-color="#000000" style="font-feature-settings:normal;font-variant-alternates:normal;font-variant-caps:normal;font-variant-east-asian:normal;font-variant-ligatures:normal;font-variant-numeric:normal;font-variant-position:normal;font-variation-settings:normal;inline-size:0;isolation:auto;mix-blend-mode:normal;shape-margin:0;shape-padding:0;text-decoration-color:#000000;text-decoration-line:none;text-decoration-style:solid;text-indent:0;text-orientation:mixed;text-transform:none;white-space:normal"/><path d="m-7.6305 77.057v0.0019c-1.2715-0.0011-2.148 0.44622-2.3001 0.60599-0.094081 0.25561-0.14426 2.7799-0.14426 2.7799l2.4476 0.15796v0.0038l0.030265-0.0021 0.030265 0.0021v-0.0038l2.4472-0.15796s-0.049775-2.5243-0.14386-2.7799c-0.15206-0.15976-1.0286-0.60702-2.3001-0.60598v-0.0019c-0.011629-1.59e-4 -0.021938 1e-3 -0.033497 9.37e-4 -0.011575 8.4e-5 -0.02186-0.0011-0.033497-9.37e-4z"/><path d="m-7.7696 84.368v0.01551c-2.8096 0.2242-9.2299 3.0753-9.2299 3.0753 0.3879 1.4477 1.0078 3.1612 1.4371 4.3005 0.28094-0.09516 0.52547-0.19451 0.73432-0.29249 0.85291-0.40012 1.0604-0.678 1.0604-0.678l0.66198-0.76946 0.76016 0.67386s1.7932 1.6071 4.8199 1.6071 5.0276-1.6325 5.0276-1.6325l0.57051-0.46715 0.61495 0.40669s0.71118 0.45544 1.8066 0.894c0.41106-1.1391 0.95281-2.7057 1.311-4.0426 0 0-6.4201-2.8513-9.2299-3.0753v-0.0155c-0.057558 0-0.11462 0.0034-0.17208 0.0057-0.057516-0.0024-0.11499-0.0057-0.1726-0.0057z"/><path d="m-7.7696 84.368v0.01551c-2.8096 0.2242-9.2299 3.0753-9.2299 3.0753 0.3879 1.4477 2.2536 7.0403 2.683 8.1796 4.7225-1.532 9.0541-2.2144 13.789-0.29224 0.41106-1.1391 1.9747-6.5505 2.3329-7.8874 0 0-6.4201-2.8513-9.2299-3.0753v-0.0155c-0.057558 0-0.11462 0.0034-0.17208 0.0057-0.057516-0.0024-0.11499-0.0057-0.1726-0.0057z"/></g><g shape-rendering="auto"><path d="m-2.8284 91.816c-2.8064 2.5127-7.1053 2.1205-9.7129 0.01953l-0.75391 0.49609s-2.4947 1.5-4.3262 1.5v10.338c2.377 0 4.1894-1.0371 4.9648-1.5195 0.77974 0.52905 2.3136 1.4308 4.9629 1.5176 2.7065 0.0886 4.274-0.90739 5.0742-1.5059 0.79191 0.48078 2.6256 1.5078 4.9336 1.5078v-10.338c-1.6957 0-4.3457-1.5137-4.3457-1.5137z" color="#000000" color-rendering="auto" dominant-baseline="auto" fill="#7c8fa4" image-rendering="auto" solid-color="#000000" stop-color="#000000" style="font-feature-settings:normal;font-variant-alternates:normal;font-variant-caps:normal;font-variant-east-asian:normal;font-variant-ligatures:normal;font-variant-numeric:normal;font-variant-position:normal;font-variation-settings:normal;inline-size:0;isolation:auto;mix-blend-mode:normal;shape-margin:0;shape-padding:0;text-decoration-color:#000000;text-decoration-line:none;text-decoration-style:solid;text-indent:0;text-orientation:mixed;text-transform:none;white-space:normal"/><path d="m-2.9102 93.576-0.56445 0.54688s-1.5273 1.5054-4.2559 1.416c-2.7981-0.09164-4.3652-1.457-4.3652-1.457l-0.57031-0.49023-0.62891 0.41406s-2.5097 1.5332-4.4355 1.5332v2c2.3883 0 4.2809-1.1164 4.9668-1.5488 0.68448 0.48248 2.2428 1.4576 4.9688 1.5469 2.7734 0.09083 4.3563-0.99154 5.0586-1.5391 0.70092 0.43043 2.6256 1.541 4.9414 1.541v-2c-1.7946 0-4.4512-1.543-4.4512-1.543z" color="#000000" color-rendering="auto" dominant-baseline="auto" fill="#fff" image-rendering="auto" solid-color="#000000" stop-color="#000000" style="font-feature-settings:normal;font-variant-alternates:normal;font-variant-caps:normal;font-variant-east-asian:normal;font-variant-ligatures:normal;font-variant-numeric:normal;font-variant-position:normal;font-variation-settings:normal;inline-size:0;isolation:auto;mix-blend-mode:normal;shape-margin:0;shape-padding:0;text-decoration-color:#000000;text-decoration-line:none;text-decoration-style:solid;text-indent:0;text-orientation:mixed;text-transform:none;white-space:normal"/><path d="m-2.9102 98.074c-1.3225 1.2787-3.7094 1.6179-4.8203 1.5991-1.7723-0.06861-3.5752-0.41414-4.9355-1.5835-1.539 0.88486-3.5261 1.3898-5.0645 1.4181v2c2.3883 0 4.2809-0.58717 4.9668-1.0196 0.68448 0.48247 2.2428 1.0938 4.9688 1.183 2.7734 0.0908 4.3563-0.62773 5.0586-1.1752 0.70092 0.43042 2.6256 1.0118 4.9414 1.0118v-2c-1.7623-0.1341-3.6045-0.47842-5.1152-1.4337z" color="#000000" color-rendering="auto" dominant-baseline="auto" fill="#fff" image-rendering="auto" solid-color="#000000" stop-color="#000000" style="font-feature-settings:normal;font-variant-alternates:normal;font-variant-caps:normal;font-variant-east-asian:normal;font-variant-ligatures:normal;font-variant-numeric:normal;font-variant-position:normal;font-variation-settings:normal;inline-size:0;isolation:auto;mix-blend-mode:normal;shape-margin:0;shape-padding:0;text-decoration-color:#000000;text-decoration-line:none;text-decoration-style:solid;text-indent:0;text-orientation:mixed;text-transform:none;white-space:normal"/></g></g></g></svg>
