<svg width="234.47mm" height="54.493mm" version="1.1" viewBox="0 0 234.47 54.493" xmlns="http://www.w3.org/2000/svg"><g transform="translate(-59.659 94.526)"><g fill="#fff"><path d="m87.859-84.525c-1.9922-7e-3 -4.0455 0.0161-5.611 0.0713-0.69581 0.0245-1.295 0.0549-1.758 0.093-0.2315 0.019-0.42853 0.0395-0.59583 0.0646-0.16729 0.025-0.27188 0.025-0.48938 0.12971-0.21748 0.10473-0.28282 0.18711-0.40669 0.30231-0.12388 0.11519-0.26193 0.25616-0.42116 0.42529-0.31846 0.33827-0.71583 0.78745-1.1689 1.3162-0.90618 1.0575-2.0331 2.4311-3.1414 3.821-1.1083 1.3898-2.1969 2.7946-3.0262 3.9134-0.41464 0.55943-0.76377 1.0462-1.0227 1.432-0.12946 0.19289-0.23617 0.36-0.32091 0.50643-0.08475 0.14642-0.1509 0.22814-0.20464 0.46354s-0.02933 0.33719-0.01654 0.50591c0.01262 0.16873 0.03633 0.36583 0.06925 0.59583 0.06584 0.46 0.16897 1.0507 0.29972 1.7348 0.26151 1.3682 0.63259 3.106 1.0278 4.8395 0.39526 1.7335 0.81408 3.4601 1.1715 4.8064 0.17871 0.67315 0.34205 1.2504 0.48214 1.6934 0.07005 0.22153 0.13322 0.40879 0.19482 0.56638 0.06161 0.15758 0.08515 0.26026 0.23564 0.44907 0.15048 0.1888 0.24515 0.234 0.38499 0.32918 0.13984 0.0952 0.30822 0.19912 0.5085 0.31678 0.40055 0.2353 0.92639 0.52274 1.5425 0.84698 1.2323 0.64844 2.8218 1.4412 4.423 2.2128 1.6012 0.77157 3.2121 1.5207 4.4871 2.0805 0.6375 0.27989 1.1906 0.51289 1.6242 0.67955 0.2168 0.0833 0.40274 0.1494 0.56431 0.19947 0.16156 0.0501 0.25576 0.09612 0.49713 0.09612 0.24139 3e-5 0.33607-0.04602 0.49764-0.09612 0.16158-0.05 0.34747-0.11671 0.56431-0.19999 0.43366-0.16656 0.98608-0.39875 1.6237-0.67851 1.2752-0.5595 2.8867-1.3082 4.4881-2.0795 1.6014-0.77123 3.191-1.5636 4.4235-2.2118 0.61625-0.32409 1.143-0.61176 1.5436-0.84698 0.20031-0.11761 0.36863-0.22162 0.5085-0.31678 0.13987-0.0951 0.23446-0.14042 0.38499-0.32918 0.15052-0.18876 0.17296-0.29151 0.23461-0.44907 0.0617-0.15756 0.12574-0.34436 0.19585-0.56586 0.14021-0.44301 0.30376-1.0199 0.48266-1.6929 0.3578-1.3462 0.7768-3.0731 1.1725-4.8064 0.39574-1.7333 0.76802-3.4709 1.0299-4.839 0.13095-0.68403 0.23429-1.2753 0.30024-1.7353 0.033-0.22999 0.0563-0.42608 0.0692-0.5948 0.0128-0.16871 0.0367-0.27101-0.017-0.50643-0.0537-0.23543-0.11993-0.31657-0.20464-0.46302-0.0847-0.14645-0.19046-0.3135-0.31988-0.50643-0.25883-0.38585-0.60815-0.87394-1.0227-1.4335-0.82905-1.1191-1.9182-2.5233-3.0262-3.9135-1.108-1.3901-2.2339-2.7642-3.1399-3.822-0.45298-0.52888-0.85053-0.97785-1.1689-1.3162-0.1592-0.16917-0.29783-0.31007-0.42168-0.4253-0.12385-0.11523-0.18872-0.19803-0.40618-0.30282-0.32619-0.15719-0.46605-0.13176-0.76326-0.16381-0.29721-0.0321-0.67134-0.0589-1.1131-0.0822-0.88355-0.0466-2.0335-0.0781-3.2939-0.0966-0.63016-9e-3 -1.2872-0.0152-1.9513-0.0176zm-0.6811 2.881c0.01164-2e-4 0.02199 1e-3 0.03359 1e-3 0.01154 1e-4 0.02196-1e-3 0.03359-1e-3v2e-3c1.2715-1e-3 2.1481 0.44641 2.3001 0.60617 0.08404 0.2283 0.12651 2.0704 0.13591 2.5032h3.6881a0.85009 0.85009 0 0 1 0.84956 0.88057l-0.20464 5.3325c1.4835 0.58674 2.5993 1.078 2.5993 1.078-0.24946 0.931-1.0733 3.7956-1.6955 5.8596-1.1531-0.4392-2.141-1.0005-2.141-1.0005l-0.79685-0.50181c-2.8064 2.5127-7.105 2.1206-9.7126 0.01963l-0.75396 0.49609s-0.81736 0.48395-1.8521 0.90279c-0.70677-2.0972-1.5957-4.8171-1.8526-5.7759 0 0 1.1157-0.49091 2.5988-1.0775l-0.20464-5.333a0.85009 0.85009 0 0 1 0.84956-0.88057h3.6887c0.0095-0.43285 0.05291-2.2749 0.13694-2.5032 0.15207-0.15976 1.0281-0.60726 2.2996-0.60616zm-5.2421 4.8106 0.14935 3.8788c1.7831-0.65078 3.7147-1.2633 4.9537-1.3622v-0.0155c0.0576 0 0.11508 3e-3 0.1726 6e-3 0.05747-2e-3 0.11452-6e-3 0.17208-6e-3v0.0155c1.2393 0.0988 3.1719 0.71126 4.9553 1.3622l0.14935-3.8788zm9.9627 11.709 0.66404 0.42013s2.6568 1.5425 4.4514 1.5425v2.0004c-2.3158 0-4.2409-1.1106-4.9418-1.541-0.70234 0.54751-2.2852 1.6298-5.0586 1.5389-2.726-0.08927-4.2842-1.0642-4.9687-1.5467-0.68594 0.43248-2.5783 1.5487-4.9666 1.5487v-2.0004c1.9258 0 4.4354-1.5327 4.4354-1.5327l0.6289-0.41445 0.5705 0.49041s1.567 1.3651 4.3651 1.4568c2.7286 0.08936 4.2561-1.4159 4.2561-1.4159zm0 4.4979c1.5107 0.95531 3.3532 1.2994 5.1155 1.4335v2.0004c-2.3158 0-4.2409-0.58141-4.9418-1.0118-0.70234 0.54751-2.2852 1.2659-5.0586 1.1751-2.726-0.08927-4.2842-0.7004-4.9687-1.1829-0.68594 0.43247-2.5783 1.0196-4.9666 1.0196v-2.0004c1.5383-0.0283 3.5253-0.53314 5.0643-1.418 1.3603 1.1693 3.1634 1.5148 4.9356 1.5834 1.1109 0.01881 3.4979-0.32021 4.8204-1.5989z" stop-color="#000000" style="paint-order:markers fill stroke"/><g transform="matrix(.19537 0 0 .19537 136.95 -253.89)" aria-label="SHIPWRIGHT"><g fill="#fff" stroke-width="18.904" aria-label="SHIPWRIGHT"><path d="m-81.101 1001.1c25.366 0 37.669-12.683 37.669-27.522 0-32.596-51.621-21.308-51.621-37.669 0-5.5806 4.6928-10.147 16.869-10.147 7.8636 0 16.361 2.283 24.605 6.9758l6.3416-15.6c-8.2441-5.2001-19.659-7.8636-30.82-7.8636-25.24 0-37.415 12.556-37.415 27.649 0 32.976 51.621 21.561 51.621 38.176 0 5.4538-4.9464 9.5124-17.122 9.5124-10.654 0-21.815-3.805-29.298-9.2587l-6.9758 15.474c7.8636 6.0879 22.069 10.273 36.147 10.273z"/><path d="m31.525 910.81v35.006h-40.333v-35.006h-20.547v88.782h20.547v-36.401h40.333v36.401h20.547v-88.782z"/><path d="m73.126 999.59h20.547v-88.782h-20.547z"/><path d="m153.16 910.81h-38.43v88.782h20.547v-24.479h17.883c23.718 0 38.557-12.303 38.557-32.088 0-19.913-14.839-32.215-38.557-32.215zm-1.1415 47.562h-16.742v-30.82h16.742c12.556 0 18.898 5.7074 18.898 15.474 0 9.6392-6.3416 15.347-18.898 15.347z"/><path d="m319.81 910.81-20.674 62.909-20.293-62.909h-19.025l-20.927 62.401-20.039-62.401h-21.308l29.171 88.782h21.942l20.166-60.118 19.532 60.118h22.069l29.045-88.782z"/><path d="m429.52 999.59-19.913-28.537c11.542-4.9464 18.264-14.713 18.264-28.03 0-19.913-14.839-32.215-38.557-32.215h-38.43v88.782h20.547v-24.732h18.898l17.122 24.732zm-22.449-56.567c0 9.6392-6.3416 15.474-18.898 15.474h-16.742v-30.947h16.742c12.556 0 18.898 5.7074 18.898 15.474z"/><path d="m444.11 999.59h20.547v-88.782h-20.547z"/><path d="m545.7 979.81c-5.2001 2.7903-10.4 3.805-15.981 3.805-16.995 0-28.791-11.795-28.791-28.41 0-16.869 11.795-28.41 29.045-28.41 9.0051 0 16.488 3.1708 22.957 10.02l13.191-12.176c-8.6246-10.02-21.561-15.347-37.162-15.347-28.284 0-48.83 19.152-48.83 45.913 0 26.762 20.547 45.913 48.45 45.913 12.683 0 26.127-3.9318 35.893-11.288v-36.02h-18.771z"/><path d="m644.38 910.81v35.006h-40.333v-35.006h-20.547v88.782h20.547v-36.401h40.333v36.401h20.547v-88.782z"/><path d="m704.37 999.59h20.547v-72.041h28.41v-16.742h-77.368v16.742h28.41z"/></g></g></g></g></svg>
