<svg xmlns="http://www.w3.org/2000/svg" role="img" viewBox="28.73 -0.77 295.78 338.78"><defs><style>.cls-1{fill-rule:evenodd}</style></defs><path id="Shape" d="M64.336 243.247c107.567 10.662 193.94-52.962 215.476-80.226 21.545-27.263-11.124-157.337-11.124-157.337-35.413 86.998-99.8 218.858-204.353 237.6z" class="cls-1"/><path d="M114.076 208.528c63.451 2.336 111.747-37.564 123.39-54.104s-6.182-91.039-6.182-91.039c-17.634 51.607-66.696 126.809-117.207 145.145z" class="cls-1"/><path d="M39.46 302.512a23.16 23.16 0 0 0 6.988 4.96 19.562 19.562 0 0 0 8.35 1.878 13.316 13.316 0 0 0 8.563-2.464 8.584 8.584 0 0 0 2.34-10.01 7.757 7.757 0 0 0-1.943-2.495 14.216 14.216 0 0 0-2.92-1.879l-3.61-1.743-7.966-3.412a37.931 37.931 0 0 1-3.976-1.999 16.288 16.288 0 0 1-3.64-2.825 13.509 13.509 0 0 1-2.63-3.953 13.699 13.699 0 0 1 .29-11.032 14.147 14.147 0 0 1 3.64-4.629 16.984 16.984 0 0 1 5.505-3.006 21.61 21.61 0 0 1 6.988-1.082 22.6 22.6 0 0 1 9.175 1.879 23.263 23.263 0 0 1 7.203 4.87l-3.808 4.508a19.898 19.898 0 0 0-5.642-3.787 17.075 17.075 0 0 0-6.989-1.368 12.218 12.218 0 0 0-7.508 2.119 6.915 6.915 0 0 0-2.844 5.877 6.565 6.565 0 0 0 .81 3.366 8.384 8.384 0 0 0 2.217 2.36 17.51 17.51 0 0 0 2.967 1.833q1.606.797 3.303 1.503l7.89 3.337a34.068 34.068 0 0 1 4.497 2.284 16.129 16.129 0 0 1 3.639 3.006 13.002 13.002 0 0 1 2.416 3.998 14.53 14.53 0 0 1 .887 5.29 14.275 14.275 0 0 1-1.315 6.012 14.664 14.664 0 0 1-3.777 4.96 17.986 17.986 0 0 1-5.933 3.337 23.957 23.957 0 0 1-7.876 1.202 26.914 26.914 0 0 1-19.497-8.086z"/><path d="M80.307 317.907v13.671H73.66v-57.602h5.506l.57 4.663h.248a29.849 29.849 0 0 1 5.843-4.001 14.27 14.27 0 0 1 6.675-1.67 14.838 14.838 0 0 1 6.72 1.504 13.154 13.154 0 0 1 4.863 4.166 19.821 19.821 0 0 1 2.921 6.498 33.184 33.184 0 0 1 1.008 8.542 28.52 28.52 0 0 1-1.373 9.22 21.497 21.497 0 0 1-3.724 6.873 15.809 15.809 0 0 1-5.42 4.286 14.97 14.97 0 0 1-6.47 1.504 12.96 12.96 0 0 1-5.463-1.248 27.5 27.5 0 0 1-5.463-3.414zm0-12.423a17.567 17.567 0 0 0 5.185 3.294 12.709 12.709 0 0 0 4.382.963 9.23 9.23 0 0 0 4.499-1.128 10.834 10.834 0 0 0 3.564-3.174 15.736 15.736 0 0 0 2.351-5.038 24.736 24.736 0 0 0 .848-6.753 30.189 30.189 0 0 0-.57-6.016 13.769 13.769 0 0 0-1.826-4.707 8.858 8.858 0 0 0-3.243-3.008 9.752 9.752 0 0 0-4.732-1.083 10.356 10.356 0 0 0-5.054 1.414 29.672 29.672 0 0 0-5.463 4.09zm34.781-40.02a5.41 5.41 0 0 1-3.598-1.224 4.084 4.084 0 0 1 0-6.257 6.033 6.033 0 0 1 7.18 0 4.07 4.07 0 0 1 0 6.257 5.392 5.392 0 0 1-3.582 1.224zm-3.726 8.175h7.277v39.75h-7.277zm12.818.299h5.683l.582 5.681h.253a32.72 32.72 0 0 1 6.071-4.744 14.148 14.148 0 0 1 7.458-1.904q6.369 0 9.307 3.895t2.983 11.525v24.998h-6.786v-24.105q0-5.594-1.82-8.068a6.707 6.707 0 0 0-5.787-2.475 10.025 10.025 0 0 0-5.534 1.537 35.736 35.736 0 0 0-5.46 4.54v28.57h-6.786zm36.381 0h5.634l.583 5.681h.254a32.774 32.774 0 0 1 6.082-4.744 14.179 14.179 0 0 1 7.471-1.904q6.381 0 9.325 3.895t2.989 11.525v24.998h-6.934v-24.105q0-5.594-1.823-8.068a6.726 6.726 0 0 0-5.798-2.475 10.058 10.058 0 0 0-5.544 1.537 35.788 35.788 0 0 0-5.47 4.54v28.57h-6.769zm36.395 29.976a11.19 11.19 0 0 1 6.105-10.195q6.105-3.544 19.246-4.955a18.376 18.376 0 0 0-.381-3.739 8.927 8.927 0 0 0-1.359-3.243 7.331 7.331 0 0 0-2.579-2.282 8.65 8.65 0 0 0-4.152-.871 16.812 16.812 0 0 0-6.73 1.336 33.386 33.386 0 0 0-5.54 3.003l-2.794-4.745a45.259 45.259 0 0 1 7.021-3.543 23.798 23.798 0 0 1 9.158-1.712q7.524 0 10.913 4.505a19.79 19.79 0 0 1 3.388 12.102v24.82h-5.754l-.595-4.82h-.168a34.247 34.247 0 0 1-6.38 4.114 16.023 16.023 0 0 1-7.235 1.712 12.689 12.689 0 0 1-8.669-3.003 10.678 10.678 0 0 1-3.495-8.484zm6.853-.495a5.736 5.736 0 0 0 2.076 5 8.509 8.509 0 0 0 5.113 1.501 12.114 12.114 0 0 0 5.632-1.381 27.337 27.337 0 0 0 5.632-4.04v-11.23a73.291 73.291 0 0 0-8.715 1.576 23.123 23.123 0 0 0-5.709 2.162 8.109 8.109 0 0 0-3.052 2.868 6.985 6.985 0 0 0-.977 3.544zm34.464-.608v10.53h-6.882l-.091-58.57h6.872v39.693h.262l17.583-21.079h7.66l-13.783 16.047 15.764 23.949h-7.66l-12.066-19.301-7.659 8.731z"/><path d="M259.6 294.36a24.366 24.366 0 0 1 1.506-9 20.986 20.986 0 0 1 4.096-6.691 17.723 17.723 0 0 1 5.798-4.2 16.407 16.407 0 0 1 6.761-1.5 17.057 17.057 0 0 1 6.882 1.335 13.427 13.427 0 0 1 5.09 3.825 17.53 17.53 0 0 1 3.133 6 26.292 26.292 0 0 1 1.084 7.816 23.436 23.436 0 0 1-.256 3.735h-27.288a16.017 16.017 0 0 0 4.05 10.396 12.464 12.464 0 0 0 9.473 3.825 16.019 16.019 0 0 0 5.391-.87 23.844 23.844 0 0 0 4.714-2.28l2.424 4.5a34.688 34.688 0 0 1-5.933 2.91 20.688 20.688 0 0 1-7.424 1.246 19.93 19.93 0 0 1-7.635-1.5 18.076 18.076 0 0 1-6.174-4.156 19.219 19.219 0 0 1-4.127-6.615 24.65 24.65 0 0 1-1.566-8.776zm28.386-3.075q0-6.24-2.635-9.526a8.93 8.93 0 0 0-7.394-3.285 10.032 10.032 0 0 0-4.126.87 11.444 11.444 0 0 0-3.554 2.49 13.301 13.301 0 0 0-2.636 3.99 18.381 18.381 0 0 0-1.37 5.446zm8.008-17.407h5.637l.583 7.157h.254a18.317 18.317 0 0 1 5.009-5.867 10.504 10.504 0 0 1 6.429-2.2 10.904 10.904 0 0 1 4.305.807l-1.33 5.866a16.14 16.14 0 0 0-1.824-.484 11.116 11.116 0 0 0-2.078-.16 9.07 9.07 0 0 0-5.353 2.038 16.12 16.12 0 0 0-4.844 7.069v25.284h-6.803z"/></svg>