<?xml version="1.0" encoding="utf-8"?>
<!-- Generator: Adobe Illustrator 24.0.2, SVG Export Plug-In . SVG Version: 6.00 Build 0)  -->
<svg version="1.1" id="Layer_1" xmlns="http://www.w3.org/2000/svg" xmlns:xlink="http://www.w3.org/1999/xlink" x="0px" y="0px"
	 viewBox="0 0 776 990" style="enable-background:new 0 0 776 990;" xml:space="preserve">
<style type="text/css">
	.st0{fill:#FFFFFF;}
</style>
<g>
	<path class="st0" d="M666.6,475.5c0.2-0.2,0.4-0.3,0.5-0.5c-0.2,0-0.4,0-0.6-0.1C666.5,475.1,666.6,475.3,666.6,475.5z"/>
	<path class="st0" d="M459.2,151.2l35.7-5.8l-13.1,33.8l22.2-3.6l-38.5,60.9l5.9-35.6l-17.4,5.2
		C454.1,206.2,454.1,206.2,459.2,151.2z"/>
	<path class="st0" d="M425,113.7c-1.4-1.8-4-2.1-5.8-0.7c-8,6.4-14.8,13.9-20.2,22.4c-5.5,8.5-9.5,18-11.9,27.8
		c-0.5,2.2,0.8,4.4,3,5c2.2,0.5,4.4-0.8,5-3c2.2-9,5.8-17.6,10.8-25.3c4.9-7.7,11.1-14.6,18.4-20.4
		C426.1,118.1,426.4,115.5,425,113.7z"/>
	<path class="st0" d="M384.7,135.9c2,1.2,4.5,0.5,5.7-1.5c7.1-12,16.6-22.3,27.7-30.3c11.1-8,23.9-13.7,37.5-16.5
		c2.2-0.5,3.6-2.6,3.2-4.9c-0.5-2.2-2.6-3.6-4.9-3.2c-14.8,3.1-28.6,9.3-40.7,17.9c-12.1,8.7-22.4,19.8-30,32.8
		C382.1,132.2,382.7,134.8,384.7,135.9z"/>
	<path class="st0" d="M376.5,440.4c-0.8-3.4-2.5-6.5-5.2-8.8c-13-11-34.9,5.6-44.9,13.8l0,0c-9.9,8.2-30.8,26.7-22.3,41.5
		c1.3,2.3,3.2,4.2,5.5,5.6c13.7,8.1,34.5-3.5,45.2-12.4C365.2,471.7,379.6,454.9,376.5,440.4z M347.2,470.9L347.2,470.9L347.2,470.9
		c-9.2,7.5-24.9,15.6-31.8,11.5c-11.7-6.9,46.2-54.8,49.5-39.6C366.6,450.5,356,463.7,347.2,470.9z"/>
	<path class="st0" d="M433.7,113c1.7-1,3.5-2,5.3-2.8c1.8-0.9,3.6-1.7,5.5-2.5c2.1-0.9,3.1-3.3,2.2-5.4c-0.9-2.1-3.3-3.1-5.4-2.2
		c-2,0.8-4,1.7-6,2.7c-2,1-3.9,2-5.8,3.1c-2,1.1-2.6,3.7-1.5,5.6C429.2,113.5,431.8,114.2,433.7,113z"/>
	<path class="st0" d="M209,284.5c-1.9-1.2-4.9-0.8-6.8,0.9c-1.9,1.7-2,4.1-0.1,5.3c1.8,1.2,4.9,0.8,6.8-0.9
		C210.7,288.1,210.8,285.8,209,284.5z"/>
	<path class="st0" d="M642.8,33.1C568.5-30.1,490.2,5.8,524.3,68.5c6.6,12.1,17.1,20.7,27.7,26.9c38.9,22.4,78.3,53.3,105.4,94.6
		c19.7,30,32.6,65.8,31.7,104.6c-1.5,64.3-39.4,115.7-81.1,150.3c-4.1,3.4-8.4,6.5-12.9,9.3c4.3-4.9,7.9-10.3,10.9-16.7
		c4.6-9.7,7.8-20.1,12.4-30c1-2.3,1.4-4.5,1-6.9c-2.1-14.8-12.1-34.4-19.5-47.3c-6.3-11-13.9-22.7-22.5-32.1
		c-7.8-8.6-20.3-19-32.4-11.3c-16.1,10.2-21.9,26.8-19.3,45c1.1,7.6,3.6,15.2,6.9,22.2c-6.4,1.5-12.9,3.3-19.2,5.5
		c-9.8,2.2-18.4,6.3-25.3,12.3c-1.2,0.8-2.4,1.7-3.6,2.5c-2.2,1.7-3.7,3.8-4.4,6.3c-2.6,3.7-4.9,7.8-6.6,12.4c0.1-3.2,0.1-6.3,0-9.5
		c3.6-2.2,6.1-6.1,6-10.6c0-7.8-1.7-16.8-3.4-24.5c-2.3-10.6-5.2-21.2-8.7-31.4c-5.7-16.9-16.4-43.7-32.4-53.3
		c-12.1-7.2-29.9-3.2-37.8,8.5c-11.5-10.6-24.1-19.9-37.6-27.6c-0.3-7.5-1.1-14.9-2.6-22.2c-3.1-15.6-8.9-30.4-17.5-43.9
		c-8.5-13.3-19.5-24.7-32.2-34c-5.5-4-12.9-3.9-18.1,0.4c-24.1,19.7-36.1,47.5-44.5,76.5c-60.8,9-109.9,52-127.6,111.7
		c-35.1,2.8-69.5,10-97.6,32.9c-6.1,4.9-7.9,13.3-4.7,20.5c7.6,16.7,18,31.8,31.2,44.6c13.3,12.9,28.8,22.9,45.8,30
		c10.9,4.6,22.3,7.9,33.9,10c0.5,0.1,1,0.2,1.4,0.3c3,6.9,6.5,13.5,10.6,20c5.6,8.8,11.8,17.3,18.6,25.3c2.8,3.3,5.6,6.6,8.7,9.6
		c8.2,8.6,25.2,9.3,36.2,11.6c14,3,28.3,4,42.4,3.3c0.1,13.1,2.7,26.2,8.2,38.1c11.2,24,31.4,37.3,54.9,42.6c0.7,1,1.4,2,2.1,2.9
		c2.3,3,5.4,4.6,9.2,4.8c12.8,0.6,26.1-1.5,36.5-8.5c19.1,12.3,40,18.1,73,20.1c36.8,2.2,75.3-7.3,104-31.1
		c12-9.9,21.2-21.5,28-34.2c3.4,1.4,7.1,1.6,11-0.3c1.1-0.5,2.1-1.2,3.1-2c6.6-5.9,16.6-11.2,25.7-8.8c5.9,1.6,12,1.7,17.9,0.1
		c22.6-5.9,34.9-33.4,41.2-53.6c4-12.9,7-27.1,8.2-40.7c6.6-5.9,13-12.3,19.2-19c51.1-55.9,75.4-123.9,76.3-207.6
		C763.4,175.1,720.4,99.1,642.8,33.1z M550.8,76.9l-0.3,0.5c-37.1-28-24.7-82.5,38-59.2c5.1,1.9,10.2,4.2,15.3,6.9
		c6.6,8.6,7.9,21.1,5,32.7c-1.5,5.9-4.1,11.6-7.8,16.2c-3.5,4.5-7.9,8.1-13.2,10.2C578.3,88.1,565.7,86.9,550.8,76.9z M611.2,119.1
		c-8.9-7.4-18.4-14.5-28.6-21.4c3.4-0.4,6.6-1.3,9.7-2.5c7.3-2.9,13.3-7.9,18.1-14c4.6-6,8-13.1,9.9-20.5c2.1-8.3,2.4-17,0.8-25.1
		c10.1,6.9,20,15.1,29.6,24.1c7.2,8.6,8.7,21.6,5.7,33.5c-1.5,5.9-4.2,11.5-7.8,16.2c-3.5,4.5-7.9,8.1-13.2,10.2
		C628.6,122.4,620.5,122.6,611.2,119.1z M653.4,161.9c-7.8-9.7-16.5-19.3-26.2-28.5c4.4-0.3,8.6-1.3,12.4-2.8
		c7.3-2.9,13.4-7.8,18.1-14c4.6-6,8-13.1,9.9-20.5c1.4-5.6,2.1-11.5,1.8-17.2c11.4,12.6,22.2,26.1,31.8,39.7
		c0.9,5.8,0.5,12.1-1,18.1c-1.5,5.9-4.1,11.5-7.8,16.2c-3.5,4.5-7.9,8.1-13.2,10.2C672.2,166,663.5,166.1,653.4,161.9z M664.4,176.8
		c7,0.7,13.5-0.4,19.3-2.7c7.3-2.9,13.3-7.8,18.1-14c4.6-6,8-13.1,9.9-20.5c0.4-1.4,0.6-2.7,0.9-4.1c8.5,13.4,15.8,26.6,21.4,38.7
		c-0.7,5.3-2.4,10.7-5,15.7c-2.9,5.4-6.7,10.3-11.3,13.9c-4.4,3.6-9.6,6-15.2,6.9c-6.4,0.9-13.5-0.3-20.9-4.7
		C676.6,196.1,670.9,186.4,664.4,176.8z M688.2,221.5c5.5,1.4,10.8,1.6,15.8,0.8c7.7-1.1,14.8-4.5,20.8-9.3
		c5.9-4.7,10.8-10.9,14.4-17.6c0.6-1.2,1.2-2.4,1.8-3.7c1.4,4,2.6,7.8,3.5,11.4c3.3,13.2,5.6,26.5,6.9,39.8
		c-1.3,2.1-2.7,4.2-4.3,6.2c-3.9,4.7-8.6,8.7-13.9,11.4c-5.1,2.6-10.7,4-16.3,3.7c-6.2-0.4-12.6-2.8-18.8-8.1
		C695.9,244.5,692.6,232.9,688.2,221.5z M608.1,462.4c2.3-1.7,4.6-3.4,6.8-5.3c5.2-4.3,10.1-8.6,14.8-13.1c1.8,6.7,5,12.4,9.2,16.9
		c-10.7,1.3-20.3,5.7-28.6,13C607.4,469,607.4,462.9,608.1,462.4z M599.5,468.1c0.6-0.4,0.6,3.5,2.2,7.1c0.7,1.7,1.6,3.3,2.6,4.8
		c-0.2,0.3-0.4,0.5-0.7,0.8c-2.5,3-4.8,6.2-6.9,9.6c-4.5-5.3-9.4-9.7-14.7-13.2C587.7,474.7,593.6,471.8,599.5,468.1z M545.8,387.1
		c6.2,3.6,14.5,6.2,20.4,6.4l5.4-0.6l-9.2-4.1c-10.2-5.3-18.2-15-22.2-26.1c-4.6-14.4-5-32,11.5-42.4c12.7-8.1,52.1,57.3,55.6,82.1
		c-11.5,24.6-10,35.4-32,54c0,0-41.9-32.9-83.2-49.1C508.8,394.7,533.2,389.2,545.8,387.1z M488.9,419.2c4.6,1.9,9.1,3.9,13.6,6
		c15.7,7.6,30.9,16.8,45.4,26.6c6.7,4.5,13.5,9.3,19.8,14.3c0.3,0.2,0.6,0.5,0.9,0.7c-2.2,0.7-4.3,1.4-6.5,2.1
		c-7.5-1.6-15.5-1.9-24-0.7c-16-17-34.8-25.6-55.3-29C483.4,431,485.6,424.5,488.9,419.2z M523.6,471.1c-10.3,3-20.1,7.4-29.7,12.1
		c-3.9,1.9-6.3,5.4-6.8,9.8c-0.1,0.8-0.1,1.5,0,2.3c-2.8,1.5-5.5,3.2-7.9,4.9c-10.9,7.8-19.7,18.4-25.5,30.5
		c-1.2,1.2-3.6,2.6-4.9,3.8c-5.1,4.6-20.6,6-27.2,6.3c-9.3,0.4-19.1,0.1-28.4-1c-12.3-1.4-23.3-10-31.5-18.8c-0.7-0.7-1.4-1.5-2-2.3
		c0.3-0.2,0.5-0.4,0.8-0.7c22.4-18.1,41.7-39.6,55.4-63.6C457.9,446.5,495.3,445.7,523.6,471.1z M422.8,440.7
		c3.5-7.5,6.4-15.3,8.7-23.2c5.2-0.6,10.3-1.6,15.4-2.9c4.8-1.2,9.5-2.7,14.2-4.2l0.2-0.1c0,9.1-0.6,18.2-2,27.1
		C447.5,437.4,435.2,438.7,422.8,440.7z M407.4,302.6c4.8-7.7,16.1-8.4,21.5-5.2c21,12.6,38.3,79,38.4,98.6
		c-5.2,0.2-17.7,6.1-32.6,8.6c2.1-10.3,3.2-21,3.1-31.9c-0.1-11.6-0.7-29.8-7.6-39.9c-2.4-3.6-5.1-7.1-7.8-10.6
		c-5-6.3-10.3-12.4-15.9-18.1C406.8,303.6,407.1,303.1,407.4,302.6z M297.7,178.3c0.4-0.3,0.7-0.6,1.1-0.9c0.2,0,0.4,0,0.6,0
		c34.5,25.3,44.4,59.6,46.7,83.2c-8.6-4.1-17.6-7.5-26.9-10.3c-8.3-2.5-16.5-4.3-24.6-5.5C291,222.4,290.4,196.9,297.7,178.3z
		 M281.4,196.3c-1.3,9.9-1.3,20.1-0.6,29.7c0.4,5.8,1,11.6,1.9,17.3c-7.8-0.6-15.4-0.7-22.9-0.3
		C264.9,226.4,271.5,210.2,281.4,196.3z M313.9,265.1c49.7,14.8,83.4,51.9,96.4,68.7c-12.8,5.1-33.7,14.3-53.1,25.1
		c-4.4,2.4-6.4,3.9-9.4,6c-1.6-1.9-3.3-3.8-5.2-5.4c-5.1-4.6-11.3-6.9-17.7-7.8c28.5-13.3,50.9-21.6,42.5-33.9
		c-10.3-15.1-55.6-45.1-85.4-46.5c-24-1.1-51.6,10-75.6,27.3c-7.6-5.7-15-10.5-21.3-13.8C220.2,260.2,266.4,251,313.9,265.1z
		 M308.5,372.6c-17.6,4.8-42.4,27.7-36.1,39.3c3.9,7.3,20.3,7.7,32.6,5.1c3.9-0.8,6.3-1.3,8.1-2.1c1,1.3,2.4,2.6,3.1,4
		c1.2,2.6,0.7,7.1-1.7,11.8l0,0c-2.2,4.2-5.9,8.6-11.2,12.1c-0.3,0.2-0.6,0.3-1,0.5c-18.7,9.4-38.6,10-49.2-8.3
		c-8.5-14.7,6.1-40.1,23.6-54.2l0.1-0.1l0.1-0.1c17.3-14.4,45.1-23.6,57.8-12.4c12.8,11.4,12.2,26.2,4.7,40.2c-4,5.2-8.3,6.8-12.7,6
		c-1.8-0.4-4.6-1.9-7.1-3.5c-0.6-0.4-1.2-0.8-1.7-1.1c0.7-1.2,1.5-2.8,2.5-4.7C328,390.6,331.6,366.3,308.5,372.6z M298.3,343.3
		c1.8,2.2,1.5,5.4-0.7,7.2c-2.2,1.8-5.4,1.4-7.1-0.8c-5.4-6.6-8-14.5-7.8-22c0.2-7.7,3.3-14.9,9.3-19.8c4.1-3.3,9-5.2,14.1-5.6
		c5.1-0.4,10.5,0.7,15.5,3.1c2.5,1.2,3.6,4.3,2.4,6.8c-1.2,2.5-4.2,3.6-6.7,2.3c-3.3-1.6-6.9-2.3-10.2-2.1c-3.1,0.2-6.1,1.3-8.6,3.4
		c-3.7,3-5.6,7.5-5.7,12.3C292.7,333.2,294.5,338.7,298.3,343.3z M192,417c0.7,2.7-0.9,5.5-3.6,6.1c-2.7,0.7-5.5-1-6.2-3.7
		c-1.4-5.4-1.4-10.8,0.1-15.8c1.4-4.9,4.2-9.4,8.2-12.7c6-4.9,13.7-6.5,21.3-5.2c7.3,1.3,14.6,5.4,20,12c1.8,2.2,1.5,5.4-0.7,7.2
		c-2.2,1.8-5.4,1.4-7.2-0.8c-3.8-4.6-8.8-7.5-13.7-8.4c-4.7-0.8-9.5,0.1-13.2,3.1c-2.5,2-4.1,4.7-5,7.7
		C191.1,409.8,191.1,413.4,192,417z M113.5,372.3c-1.7,8.9-2.7,18.2-3,27.7c-7.5-2.9-15.1-5.4-22.8-7.5c-10.8-3-22.4-5.3-34-6.2
		C72.3,378.1,92.8,374.3,113.5,372.3z M27.9,402.6c0-0.2,0.1-0.5,0.1-0.7c0.4-0.4,0.9-0.7,1.3-1c24.4-4.4,55.5,3.4,81.3,13.8
		c0.2,3.5,0.4,7,0.8,10.6c1.9,18,4.7,35.7,9.9,52.6C95.2,471.5,51.4,453.6,27.9,402.6z M122.6,424.1
		c-5.7-55.3,17.1-103.7,54.6-133.7c6.7,3.5,14.2,8.1,21.8,13.5c-26.5,21.3-47.4,49.9-51.6,77.1c-4.6,29.5,17.7,78.4,30.5,91.5
		c14,14.3,32.5-19.9,61.1-55.1c-1.5,8.1-0.8,16.3,3.5,23.7c0.9,1.6,1.9,3.1,3,4.5c-18.7,17.7-29.5,31-40.8,46.1
		c-13.9,18.6-22.6,34.2-28.3,44.9C169.5,529.6,128.9,484.9,122.6,424.1z M205.7,549.1c-10.9-2.3-18.1-5.2-22.4-7.5
		c5.6-10.5,14.2-26,28.2-44.7c11-14.8,21.5-27.7,39.8-44.9c3.5,3.2,7.6,5.7,12.2,7.4c21,7.9,44.9-3,61.4-15.9l0,0
		c0.5-0.4,0.9-0.7,1.4-1.1c16.8-13.5,33.9-35.8,30.1-59c-0.7-4.1-2-8-3.8-11.5c2.9-2,4.7-3.4,8.9-5.7c20.2-11.1,41.9-20.6,54.3-25.4
		c0.6,0.8,0.8,1.3,0.8,1.3s5.4,7.8,5.6,30.2c0.5,56.3-29.4,99-69.3,136.1C308.5,540,260.8,560.8,205.7,549.1z M356.8,533.7
		c-6.4-0.9-12.9-0.9-19.2,0.5c4.1-2.5,8.1-5.2,12-8C351.8,528.6,354.2,531.2,356.8,533.7z M256.3,563.4c6.2-0.7,12.3-1.8,18.4-3.2
		c-2.7,3.7-4.9,7.8-6.3,12.4c-1.3,4.2-1.3,5.3-1.8,9.6c-0.2,3,2.1,5.6,5.2,5.8c3,0.2,5.6-2.1,5.8-5.2c2.1-17.3,15.1-27.4,30.4-32.2
		c-9.2,9-16.2,21.3-17.7,33.8c-0.1,0.8-0.2,1.6-0.2,2.4c-2,14,1.7,29.3,8.2,42.7C268.5,618,256.2,590.8,256.3,563.4z M355.7,626.7
		c-4.5,6.5-14.6,15-36.6,13.9c-10.6-13.9-19.7-35-17-52.5c0-0.7,0.1-1.5,0.2-2.2c1.4-11.8,9.5-23.3,18.4-30.2
		c6.2-4.8,12.6-7.8,19.1-9.3c35.6-8.3,90.2,39.6,61.3,70.8c-2.1,2.2-4.3,3.9-6.6,5.2c-0.6-0.1-1.2-0.1-1.9,0
		c-25.6,4.5-42.7-2.1-51.2-27.9c-2.4-7.1,0-1.1-3-8.2c-1.1,6-1.1,7.3,0.1,13.4c2.6,12.8,8.9,21.4,17.4,26.7
		C355.9,626.4,355.8,626.6,355.7,626.7z M428.6,652.2c-29-1.7-47.5-6.4-64.3-16.4c0.1-0.1,0.2-0.2,0.3-0.3c2.5,0.8,4.9,1.3,7.2,1.8
		c14.3,2.5,28.2-0.9,38.3-11.8c6.7-7.3,10.9-16.1,11.4-26c1-18.3-10.3-35.1-24.2-46.8c16.1,1.3,40.8,1.2,54.4-5.5
		c-1.3,9-1.1,18.2,0.3,27.1l0.8,4.8c0.5,3,3.3,5,6.3,4.5c3-0.5,5-3.3,4.5-6.3c-0.9-5.6-2.1-11.5-2-17.2c0.3-12.4,2.9-23.6,8.2-32.9
		c5.1-7.5,11.3-13.5,17.5-17.8c1.9-1.1,3.9-2.1,6.1-3c0.4,0.6,0.8,1.2,1.1,1.7c2.4,3.5,4.7,7.1,7,10.7c6.3,9.8,12.5,19.8,18.9,29.6
		c7.3,11.4,14.7,22.9,22.6,33.8c2.2,3,4.6,6.2,7.1,9C528,635,478.5,655.2,428.6,652.2z M602.8,576.1c-6.5-1.7-21.1-2.7-37,11.5
		c-6.1,5.4-60-88.4-66.4-93.4c26.9-13.3,67.3-30,94.2,12.6c-1.3,8.3,0.1,16.2,3.6,24c0.4-9,2.2-17.8,5.3-25.6
		c3-6.2,7.7-14.4,14.7-21c6.8-5.7,15.4-9.7,26.1-11c0.6,0,1.2-0.2,1.7-0.4c2.3,0,4.7,0.2,7.2,0.5
		C662.1,474.9,645.9,587.7,602.8,576.1z M666.6,475.5c0-0.2-0.1-0.4-0.1-0.6c0.2,0,0.4,0.1,0.6,0.1
		C666.9,475.2,666.8,475.4,666.6,475.5z M678.4,463.6c-5.6,0.5-11.2,0-16.4-1.6c-5.5-1.7-10.5-4.5-14.3-8.6
		c-4.3-4.7-7.2-11.1-7.9-19.4c6.9-7.2,13.2-14.6,18.9-22.2c1.3,2,2.8,3.9,4.4,5.6c5.3,5.7,12.1,9.7,19.5,11.9
		c6.9,2.1,14.3,2.7,21.5,2.1C696.4,442.7,687.8,453.5,678.4,463.6z M712.8,417.6c-2.9,0.9-5.9,1.5-8.9,1.9
		c-6.1,0.7-12.3,0.2-17.9-1.5c-5.5-1.7-10.5-4.5-14.3-8.6c-2.2-2.3-4-5.1-5.3-8.4c6.3-9.4,11.8-19.1,16.5-29
		c3.1,3.6,6.6,6.6,10.4,8.8c6.7,4,14.4,5.8,22.1,5.8c4.8,0,9.6-0.6,14.3-1.9C724.7,396.1,719.1,407,712.8,417.6z M735.5,370
		c-0.8,0.4-1.7,0.8-2.5,1.2c-5.6,2.4-11.7,3.8-17.6,3.8c-5.7,0-11.3-1.3-16.1-4.2c-4.2-2.5-8-6.2-10.9-11.4
		c5-12.8,8.5-25.7,10.7-38.9c4.1,3,8.4,5,12.9,6.3c7.5,2.1,15.3,1.9,22.8,0c4.9-1.3,9.6-3.2,14-5.8
		C745.7,337.7,741.3,354.1,735.5,370z M751,304.6c-1,0.9-2.1,1.9-3.2,2.7c-4.8,3.8-10.3,6.6-16.1,8.1c-5.5,1.4-11.3,1.6-16.7,0
		c-5.1-1.4-10-4.4-14.3-9.2c1-11.5,0.9-23-0.3-34.5c5.2,2.6,10.6,3.9,15.8,4.2c7.8,0.4,15.4-1.4,22.3-5c5.2-2.7,10-6.2,14.1-10.5
		C753.2,275.3,752.7,290.1,751,304.6z"/>
	<path class="st0" d="M222.4,850.4l-46.5,122.3l-1.2-26c0-2-0.6-4.8-1.6-8.4c-1-3.6-1.9-6-2.8-7.1c-1.2-1.7-3.6-3.3-7-5
		c5.6-1.4,10.4-3.2,14.1-5.4c5.9-3.4,11.2-7.8,15.9-13.3c4.7-5.4,8.5-11.9,11.3-19.4c3.3-8.6,4.4-16,3.2-22
		c-1.2-6-4.1-10.1-8.9-12.3c-4.7-2.2-12.4-3.3-23-3.3h-55.1h-2.1H16.4L6.2,877.6h35.1L0,985.7h34.3l41.3-108h32.8l0,0h40.8v0.1h8.6
		c6.3,0,10.1,1.2,11.5,3.5c1.4,2.3,1.2,5.7-0.4,10.1c-1.1,3-2.8,5.6-5.2,7.9c-2.3,2.3-4.7,3.7-7.2,4.2c-5,1.2-8.3,1.9-9.8,1.9h-14.5
		l6.6-17.4h-34.4l-37.2,97.7h34.4l20.8-54.8h3c3.1,0,5.5,1,7.2,3.1c1.2,1.6,1.9,5.1,2.2,10.4l2.6,41.3h33.2h5.6h28.9l51.5-135.3
		H222.4z"/>
	<path class="st0" d="M180.3,310.2c1.8,1.2,4.9,0.8,6.8-0.9c1.9-1.7,2-4.1,0.2-5.3c-1.9-1.2-4.9-0.8-6.8,0.9
		C178.5,306.6,178.4,309,180.3,310.2z"/>
	<path class="st0" d="M525.1,252c-2.6,1.9-5.4,3.7-8.4,5.4c-3,1.7-6,3.1-9.1,4.4c-2.1,0.9-3.1,3.3-2.2,5.4c0.9,2.1,3.3,3.1,5.4,2.2
		c3.5-1.4,6.8-3,10-4.8c3.2-1.8,6.3-3.8,9.3-5.9c1.8-1.3,2.2-3.9,0.9-5.8C529.5,251.1,526.9,250.7,525.1,252z"/>
	<path class="st0" d="M623,840.5l26.8-78.2c2.5-7.3,4.2-16.1,5.2-26.5c1,13.2,2.8,24.4,5.4,33.5l20,71.2h40.4L776,679.1h-40.4
		l-16.3,47.8c-4.9,14.4-8.5,28.6-10.7,42.4c-0.8-8.9-2.9-19.3-6.4-31l-17.4-59.1H638l-15.6,45.8c-0.4-9-2.7-17-7-23.8
		c-9-14.5-24.8-21.8-47-21.9l0,0h-146l-40,38.7h33.1l-39.5,115.4l1.1,7.3h43.4l42-122.7h24.5c-10.9,12.5-19.2,26.9-24.9,43.4
		c-8.6,24.9-8.4,44.7,0.8,59.5c9.2,14.8,25.1,22.3,47.8,22.3c22.6,0,43.6-7.6,63.2-22.8c9.6-7.4,17.8-16.1,24.8-25.9l-15.8,46.3H623
		z M564,756.6c-6.6,19.1-13,32.3-19.2,39.5c-6.2,7.2-13.5,10.8-21.9,10.8c-15.7,0-18.4-14.8-8.1-44.4c11-31.6,24.6-47.4,40.9-47.4
		C570.8,715.1,573.6,728.9,564,756.6z"/>
	<path class="st0" d="M465.5,236.5l38.5-60.9l-22.2,3.6l13.1-33.8l-35.7,5.8c-5.1,54.9-5.1,54.9-5.1,54.9l17.4-5.2L465.5,236.5z"/>
	<path class="st0" d="M735,848.1c-11.2,0-20.6,1.7-28.3,5.1c-7.7,3.4-14.3,8.1-19.8,14.1c-5.5,6-9.5,12.3-12,19
		c-3.9,10.2-4,18.6-0.2,25.2c3.7,6.6,12,11.9,25,15.9c8,2.4,12.6,4.9,14,7.6c1.4,2.7,1.4,5.7,0.2,9.1c-1.4,3.6-3.8,6.7-7.4,9.4
		c-3.6,2.7-7.7,4-12.4,4c-6.3,0-10.2-2.7-11.6-7.9c-0.9-3.2-0.5-8,1.2-14.2l-32.4,2.4c-4.1,13.2-4.2,24-0.5,32.6
		c3.8,8.6,14.8,12.8,33,12.8c10.4,0,19.7-1.8,27.9-5.5c8.2-3.6,15.6-9,22.1-16.1c6.5-7.1,11.3-14.8,14.5-23.2
		c2.7-7.1,3.8-13.6,3.1-19.3c-0.6-5.8-3.4-10.6-8.2-14.5c-4.8-3.9-13.6-7.8-26.7-11.6c-5.3-1.5-8.4-3.1-9.2-4.8
		c-0.9-1.7-1-3.5-0.2-5.6c1.1-2.9,3-5.3,5.7-7.3c2.7-2,6-3,9.8-3c4.7,0,7.8,1.3,9.5,4c1.6,2.7,1.7,7,0.3,12.9l32-2.3
		c3.8-13.6,3.3-23.5-1.5-29.7C758,851.2,748.7,848.1,735,848.1z"/>
	<polygon class="st0" points="365.4,679.1 298.2,745.7 321,679.1 274.3,679.1 232.2,802 166.1,802 175.1,775.6 233.9,775.6 
		246.2,739.8 187.3,739.8 195.4,716.3 252.8,716.3 265.6,679.1 171.5,679.1 159.5,679.1 57.8,679.1 44.5,717.8 77.9,717.8 36,840.5 
		82.9,840.5 124.9,717.8 146.2,717.8 104.3,840.5 219.1,840.5 225.8,840.5 265.8,840.5 278.6,803.2 303.3,779.8 310.4,840.5 
		364.6,840.5 349,738 409.8,679.1 	"/>
	<path class="st0" d="M545.5,230.6c-1.3,1.9-0.7,4.5,1.2,5.7c1.9,1.2,4.5,0.7,5.7-1.2c8.2-12.4,13.3-26.7,14.7-41.6
		c1.4-14.3-0.6-29.2-6.4-43.5c-0.9-2.1-3.3-3.1-5.4-2.2c-2.1,0.9-3.1,3.3-2.2,5.4c5.3,13,7.1,26.5,5.8,39.5
		C557.6,206.3,553,219.3,545.5,230.6z"/>
	<path class="st0" d="M548.9,252.4c-1.5,1.7-1.5,4.3,0.2,5.8c1.7,1.5,4.3,1.5,5.8-0.2c7.5-8.1,13.8-17.5,18.6-27.7
		c4.6-9.9,7.8-20.7,9.2-32.2c0.3-2.3-1.3-4.3-3.6-4.6c-2.3-0.3-4.3,1.3-4.6,3.6c-1.3,10.6-4.2,20.5-8.5,29.7
		C561.7,236.2,555.9,244.9,548.9,252.4z"/>
	<path class="st0" d="M407.4,197.4c6.6,38.4,43,64.1,81.4,57.6c38.4-6.6,64.1-43,57.6-81.4c-6.6-38.4-43-64.1-81.4-57.6
		C426.6,122.6,400.8,159,407.4,197.4z M466.8,126.8c32.4-5.6,63.2,16.2,68.8,48.6c5.6,32.4-16.2,63.2-48.6,68.8
		c-32.4,5.6-63.2-16.2-68.8-48.6C412.6,163.1,434.4,132.3,466.8,126.8z"/>
	<path class="st0" d="M357,886.4c1.3-8.7,1-15.9-0.8-21.6c-1.8-5.7-5.3-9.9-10.3-12.6c-5-2.7-13.7-4.1-26-4.1
		c-12.7,0-23.7,2.2-32.9,6.5c-11.8,5.7-22.3,14-31.4,24.9c-9.2,10.9-16.5,23.7-22.2,38.5c-5.3,14-7.8,26.5-7.3,37.3
		c0.4,10.8,3.8,19,10,24.4c20.7,18.3,77.4,12.4,94.4-19.7l19.6-51.5l0,0h-42.6l-9.7,28h11.7l-0.2,0.2c-8.4,22-40.3,30.3-46.4,12.1
		c-2.1-6.3-0.4-16.7,5.1-31.3c5.2-13.8,11.3-23.9,18.2-30.2c6.9-6.4,14.1-9.5,21.6-9.5c5.1,0,8.7,1.4,10.9,4.1
		c2.2,2.7,3,6.7,2.4,11.8L357,886.4z"/>
	<path class="st0" d="M474.5,886.4c1.3-8.7,1-15.9-0.8-21.6c-1.8-5.7-5.3-9.9-10.4-12.6c-5-2.7-13.7-4.1-26-4.1
		c-12.7,0-23.7,2.2-32.9,6.5c-11.8,5.7-22.3,14-31.4,24.9c-9.2,10.9-16.5,23.7-22.2,38.5c-5.3,14-7.8,26.5-7.3,37.3
		c0.4,10.8,3.8,19,10,24.4c20.7,18.3,77.4,12.4,94.4-19.7l19.6-51.5l-0.6,0.4l0.5-0.4H425l-9.7,28H427l-0.2,0.2
		c-8.4,22-40.3,30.3-46.4,12.1c-2.1-6.3-0.4-16.7,5.1-31.3c5.2-13.8,11.3-23.9,18.2-30.2c6.9-6.4,14.1-9.5,21.6-9.5
		c5.1,0,8.7,1.4,10.9,4.1c2.2,2.7,3,6.7,2.4,11.8L474.5,886.4z"/>
	<path class="st0" d="M677.6,865.4c-1.1-5.8-4-9.8-8.6-11.9c-4.6-2.2-12-3.2-22.2-3.2h-55.2L552,955.1h-65.3l10.1-26.6h53.9
		l10.5-27.6h-53.9l8.2-21.6h52.8l11-28.9h-87.3l-51.5,135.3h130.8l0,0h2.3l21.4-57.6h2.9c3,0,5.4,1,7,3c1.2,1.5,1.9,4.9,2.2,10.1
		l2.5,39.9h37.5l-1.7-37.8c0-1.9-0.6-4.6-1.5-8.1c-1-3.5-1.9-5.8-2.7-6.9c-1.2-1.6-3.5-3.2-6.8-4.8c5.4-1.4,10-3.1,13.6-5.2
		c5.7-3.3,10.8-7.5,15.4-12.8c4.6-5.3,8.2-11.5,11-18.8C677.6,878.3,678.7,871.2,677.6,865.4z M640,889.9c-1.1,2.9-2.7,5.4-5,7.6
		c-2.2,2.2-4.5,3.6-6.9,4.1c-4.8,1.2-8,1.8-9.5,1.8h-14l10.1-26.6h14.6c6.1,0,9.8,1.1,11.1,3.4C641.7,882.4,641.6,885.7,640,889.9z"
		/>
</g>
</svg>
