<svg width="118" height="184" viewBox="0 0 118 184" fill="none" xmlns="http://www.w3.org/2000/svg">
<path d="M46.3395 131.149C35.4108 128.839 25.7191 123.391 17.2859 114.71C5.75479 102.96 0 88.7711 0 72.1066V53.547H25.2888V72.1066C25.2888 81.0962 28.5696 88.7356 35.1526 95.0721C41.7141 101.432 49.674 104.607 59 104.607C68.3152 104.607 76.2536 101.444 82.8474 95.0721C89.4089 88.7356 92.7112 81.108 92.7112 72.1066V53.547H118V72.1066C118 88.7711 112.213 102.96 100.714 114.71C92.2917 123.391 82.5893 128.839 71.639 131.149V183.476H46.3502V131.149H46.3395Z" fill="url(#paint0_linear_269_1775)"/>
<path d="M74.5434 91.886C74.5434 91.886 82.0408 81.7948 71.7037 65.7817C61.3666 49.7686 38.9606 25.2041 59.3874 -3.05176e-05C59.3874 -3.05176e-05 56.8058 14.6984 79.3086 42.3305C101.801 69.9627 74.5434 91.886 74.5434 91.886Z" fill="#EE9B15"/>
<path d="M32.3882 64.1945C32.3882 64.1945 36.1961 74.4633 41.3055 79.722C44.242 82.7423 51.0294 83.6069 45.4145 74.0724C39.7888 64.5261 30.6672 48.738 44.0484 32.2867C44.0484 32.2867 46.3288 46.4285 63.3457 69.7967C80.3735 93.1532 60.2694 102.332 48.1682 97.8197C36.3251 93.4019 30.9253 80.4919 32.399 64.2063L32.3882 64.1945Z" fill="url(#paint1_linear_269_1775)"/>
<defs>
<linearGradient id="paint0_linear_269_1775" x1="83.8478" y1="69.9865" x2="83.8478" y2="168.908" gradientUnits="userSpaceOnUse">
<stop stop-color="#CC635E"/>
<stop offset="1" stop-color="#70130E"/>
</linearGradient>
<linearGradient id="paint1_linear_269_1775" x1="43.887" y1="26.9806" x2="76.2405" y2="78.8091" gradientUnits="userSpaceOnUse">
<stop stop-color="#FFEC87"/>
<stop offset="1" stop-color="#EA8C00"/>
</linearGradient>
</defs>
</svg>
