<svg width="119" height="31" viewBox="0 0 119 31" fill="none" xmlns="http://www.w3.org/2000/svg">
<path d="M107.48 8.89771H119V30.4809H114.392V13.5217H107.48C105.996 13.5217 104.728 14.1277 103.679 15.326C102.631 16.5302 102.107 17.9824 102.107 19.6883C102.107 21.3923 102.631 22.8504 103.679 24.0506C104.728 25.2548 105.996 25.855 107.48 25.855H112.858V30.4809H107.48C104.728 30.4809 102.374 29.4282 100.426 27.3189C98.4758 25.2135 97.5017 22.6733 97.5017 19.6903C97.5017 16.7113 98.4758 14.1651 100.426 12.0617C102.376 9.9563 104.728 8.89967 107.48 8.89967V8.89771Z" fill="white"/>
<path d="M90.593 8.89771H95.1988V30.4809H90.593V8.89771Z" fill="white"/>
<path d="M68.3284 15.4539C68.3284 13.6437 68.9673 12.0971 70.2412 10.8181C71.5152 9.53916 73.0498 8.89771 74.8529 8.89771H88.2901V13.5237H74.8529C74.3237 13.5237 73.8671 13.7126 73.4947 14.0864C73.1223 14.4662 72.9342 14.9168 72.9342 15.4539C72.9342 15.9852 73.1223 16.4437 73.4947 16.8175C73.8671 17.1914 74.3237 17.3803 74.8529 17.3803H81.7655C83.5628 17.3803 85.1033 18.0178 86.3772 19.2948C87.6511 20.5777 88.2901 22.1204 88.2901 23.9306C88.2901 25.7408 87.6511 27.2815 86.3772 28.5605C85.1033 29.8395 83.5628 30.4809 81.7655 30.4809H68.3284V25.855H81.7655C82.2947 25.855 82.7455 25.6661 83.1237 25.2922C83.4961 24.9184 83.6843 24.4619 83.6843 23.9286C83.6843 23.3915 83.4961 22.9389 83.1237 22.5651C82.7474 22.1853 82.2967 22.0023 81.7655 22.0023H74.8529C73.0498 22.0023 71.5152 21.3608 70.2412 20.0819C68.9673 18.8029 68.3284 17.2563 68.3284 15.452V15.4539Z" fill="white"/>
<path d="M61.4216 25.0876C61.4216 24.4462 61.1962 23.9031 60.7454 23.4505C60.2946 22.998 59.7498 22.7717 59.1148 22.7717H46.0657V18.1457H59.1148C59.7498 18.1457 60.2946 17.9194 60.7454 17.4669C61.1962 17.0143 61.4216 16.4732 61.4216 15.8357C61.4216 15.1982 61.1962 14.6512 60.7454 14.1986C60.2946 13.746 59.7498 13.5198 59.1148 13.5198H46.0657V8.8938H59.1148C61.0218 8.8938 62.6465 9.57264 63.9989 10.9303C65.3512 12.288 66.0274 13.9192 66.0274 15.8337C66.0274 17.6125 65.4355 19.1532 64.2615 20.4577C65.4355 21.7623 66.0274 23.3049 66.0274 25.0837V30.477H61.4216V25.0837V25.0876Z" fill="white"/>
<path d="M30.708 21.7878C28.7167 21.4041 26.9508 20.499 25.4142 19.0567C23.3132 17.1048 22.2646 14.7476 22.2646 11.9791V8.89575H26.8724V11.9791C26.8724 13.4725 27.4702 14.7417 28.6696 15.7944C29.8652 16.851 31.3155 17.3783 33.0148 17.3783C34.7121 17.3783 36.1585 16.853 37.3599 15.7944C38.5554 14.7417 39.1571 13.4745 39.1571 11.9791V8.89575H43.7649V11.9791C43.7649 14.7476 42.7105 17.1048 40.6153 19.0567C39.0807 20.499 37.3129 21.4041 35.3177 21.7878V30.4809H30.7099V21.7878H30.708Z" fill="url(#paint0_linear_150_58)"/>
<path d="M13.0511 22.7717H4.60776V30.4809H0V18.1477H13.0491C13.6841 18.1477 14.229 17.9214 14.6797 17.4688C15.1305 17.0163 15.3559 16.4752 15.3559 15.8376C15.3559 15.2001 15.1305 14.6531 14.6797 14.2006C14.229 13.748 13.6841 13.5217 13.0491 13.5217H0V8.89575H13.0491C14.9561 8.89575 16.5809 9.57459 17.9332 10.9323C19.2855 12.29 19.9617 13.9211 19.9617 15.8357C19.9617 17.7463 19.2855 19.3814 17.9332 20.7351C16.5809 22.0928 14.9561 22.7717 13.0491 22.7717H13.0511Z" fill="white"/>
<path d="M35.8467 15.2651C35.8467 15.2651 37.2128 13.5886 35.3293 10.9284C33.4458 8.2681 29.3633 4.18717 33.0852 0C33.0852 0 32.6148 2.44186 36.7149 7.03241C40.8131 11.623 35.8467 15.2651 35.8467 15.2651Z" fill="#EE9B15"/>
<path d="M28.1661 10.6646C28.1661 10.6646 28.8599 12.3706 29.7908 13.2442C30.3259 13.746 31.5626 13.8896 30.5395 12.3057C29.5145 10.7197 27.8525 8.09685 30.2906 5.36377C30.2906 5.36377 30.7061 7.71315 33.8067 11.5953C36.9092 15.4756 33.2462 17.0005 31.0413 16.2508C28.8834 15.5169 27.8995 13.3721 28.168 10.6666L28.1661 10.6646Z" fill="url(#paint1_linear_150_58)"/>
<path d="M112.862 22.1597V24.5779H110.569V22.1597H112.862Z" fill="white"/>
<path d="M112.862 18.8167V21.2349H110.569V18.8167H112.862Z" fill="white"/>
<path d="M112.862 15.4856V17.9038H110.569V15.4856H112.862Z" fill="white"/>
<defs>
<linearGradient id="paint0_linear_150_58" x1="37.5422" y1="11.6269" x2="37.5422" y2="28.0607" gradientUnits="userSpaceOnUse">
<stop stop-color="#CC635E"/>
<stop offset="1" stop-color="#70130E"/>
</linearGradient>
<linearGradient id="paint1_linear_150_58" x1="30.2612" y1="4.48226" x2="35.4052" y2="13.52" gradientUnits="userSpaceOnUse">
<stop stop-color="#FFEC87"/>
<stop offset="1" stop-color="#EA8C00"/>
</linearGradient>
</defs>
</svg>
