<svg width="430" height="499" viewBox="0 0 430 499" fill="none" xmlns="http://www.w3.org/2000/svg">
<path d="M226.649 70.6989C226.649 70.6989 232.417 62.9346 224.464 50.6138C216.51 38.293 199.27 19.3925 214.987 0C214.987 0 213.001 11.3093 230.315 32.57C247.621 53.8307 226.649 70.6989 226.649 70.6989V70.6989Z" fill="#EE9B15"/>
<path d="M194.214 49.3926C194.214 49.3926 197.143 57.2936 201.075 61.3397C203.334 63.6636 208.556 64.3288 204.236 56.9928C199.908 49.6477 192.889 37.5 203.185 24.842C203.185 24.842 204.94 35.723 218.033 53.703C231.134 71.6739 215.666 78.7365 206.355 75.2645C197.243 71.8653 193.088 61.9321 194.222 49.4017L194.214 49.3926Z" fill="url(#paint0_linear_269_3709)"/>
<path d="M226.649 493.512C226.649 493.512 232.417 485.748 224.464 473.427C216.51 461.106 199.27 442.206 214.987 422.813C214.987 422.813 213.001 434.123 230.315 455.383C247.621 476.644 226.649 493.512 226.649 493.512V493.512Z" fill="#174E6C"/>
<path d="M194.214 472.206C194.214 472.206 197.143 480.107 201.075 484.153C203.334 486.477 208.556 487.142 204.236 479.806C199.908 472.461 192.889 460.313 203.185 447.655C203.185 447.655 204.94 458.536 218.033 476.516C231.134 494.487 215.666 501.55 206.355 498.078C197.243 494.679 193.088 484.745 194.222 472.215L194.214 472.206Z" fill="#174E6C"/>
<path d="M82.9159 130.587C82.9159 130.587 88.6846 122.823 80.731 110.502C72.7774 98.1815 55.5378 79.2811 71.2546 59.8885C71.2546 59.8885 69.2682 71.1978 86.5824 92.4585C103.888 113.719 82.9159 130.587 82.9159 130.587V130.587Z" fill="#174E6C"/>
<path d="M50.4808 109.281C50.4808 109.281 53.4107 117.182 57.3419 121.228C59.6014 123.552 64.8238 124.217 60.5035 116.881C56.175 109.536 49.1566 97.3886 59.4524 84.7306C59.4524 84.7306 61.207 95.6116 74.3002 113.592C87.4016 131.562 71.9331 138.625 62.6223 135.153C53.51 131.754 49.3553 121.821 50.4891 109.29L50.4808 109.281Z" fill="#174E6C"/>
<path d="M82.9159 424.042C82.9159 424.042 88.6846 416.277 80.731 403.957C72.7774 391.636 55.5378 372.735 71.2546 353.343C71.2546 353.343 69.2682 364.652 86.5824 385.913C103.888 407.173 82.9159 424.042 82.9159 424.042V424.042Z" fill="#174E6C"/>
<path d="M50.4808 402.735C50.4808 402.735 53.4107 410.636 57.3419 414.682C59.6014 417.006 64.8238 417.671 60.5035 410.335C56.175 402.99 49.1566 390.843 59.4524 378.185C59.4524 378.185 61.207 389.066 74.3002 407.046C87.4016 425.016 71.9331 432.079 62.6223 428.607C53.51 425.208 49.3553 415.275 50.4891 402.744L50.4808 402.735Z" fill="#174E6C"/>
<path d="M369.183 424.042C369.183 424.042 374.952 416.277 366.998 403.957C359.045 391.636 341.805 372.735 357.522 353.343C357.522 353.343 355.536 364.652 372.85 385.913C390.156 407.173 369.183 424.042 369.183 424.042V424.042Z" fill="#174E6C"/>
<path d="M336.748 402.735C336.748 402.735 339.678 410.636 343.609 414.682C345.869 417.006 351.091 417.671 346.771 410.335C342.442 402.99 335.424 390.843 345.72 378.185C345.72 378.185 347.474 389.066 360.568 407.046C373.669 425.016 358.201 432.079 348.89 428.607C339.777 425.208 335.623 415.275 336.757 402.744L336.748 402.735Z" fill="#174E6C"/>
<path d="M419.49 281.507C419.49 281.507 425.258 273.742 417.305 261.422C409.351 249.101 392.112 230.2 407.828 210.808C407.828 210.808 405.842 222.117 423.156 243.378C440.462 264.639 419.49 281.507 419.49 281.507V281.507Z" fill="#174E6C"/>
<path d="M387.055 260.201C387.055 260.201 389.985 268.102 393.916 272.148C396.175 274.472 401.398 275.137 397.077 267.801C392.749 260.456 385.73 248.308 396.026 235.65C396.026 235.65 397.781 246.531 410.874 264.511C423.975 282.482 408.507 289.545 399.196 286.072C390.084 282.673 385.929 272.74 387.063 260.21L387.055 260.201Z" fill="#174E6C"/>
<path d="M32.6095 281.507C32.6095 281.507 38.3782 273.742 30.4246 261.422C22.471 249.101 5.23139 230.2 20.9482 210.808C20.9482 210.808 18.9618 222.117 36.276 243.378C53.5818 264.639 32.6095 281.507 32.6095 281.507V281.507Z" fill="#174E6C"/>
<path d="M0.174448 260.201C0.174448 260.201 3.10428 268.102 7.03555 272.148C9.29499 274.472 14.5174 275.137 10.1971 267.801C5.86858 260.456 -1.14977 248.308 9.14601 235.65C9.14601 235.65 10.9006 246.531 23.9938 264.511C37.0952 282.482 21.6267 289.545 12.3159 286.072C3.20359 282.673 -0.951127 272.74 0.182733 260.21L0.174448 260.201Z" fill="#174E6C"/>
<circle cx="214.422" cy="253.408" r="150.627" fill="#70130E"/>
<path d="M196.93 306.449C181.831 303.237 168.44 295.66 156.789 283.585C140.857 267.244 132.906 247.51 132.906 224.332V198.519H167.846V224.332C167.846 236.835 172.379 247.46 181.474 256.273C190.54 265.119 201.537 269.534 214.422 269.534C227.292 269.534 238.26 265.135 247.37 256.273C256.436 247.46 260.999 236.852 260.999 224.332V198.519H295.938V224.332C295.938 247.51 287.943 267.244 272.056 283.585C260.419 295.66 247.014 303.237 231.885 306.449V379.226H196.945V306.449H196.93Z" fill="black" fill-opacity="0.3"/>
<path d="M235.897 251.842C235.897 251.842 246.256 237.807 231.974 215.536C217.692 193.265 186.735 159.1 214.957 124.046C214.957 124.046 211.391 144.489 242.481 182.92C273.557 221.351 235.897 251.842 235.897 251.842Z" fill="black" fill-opacity="0.3"/>
<path d="M177.655 213.328C177.655 213.328 182.916 227.61 189.975 234.924C194.033 239.125 203.41 240.327 195.653 227.067C187.88 213.79 175.277 191.831 193.765 168.951C193.765 168.951 196.916 188.619 220.427 221.12C243.953 253.604 216.176 266.371 199.457 260.095C183.094 253.95 175.634 235.995 177.67 213.345L177.655 213.328Z" fill="black" fill-opacity="0.3"/>
<path d="M369.61 130.699C369.61 130.699 375.378 122.935 367.425 110.614C359.471 98.293 342.231 79.3925 357.948 60C357.948 60 355.962 71.3093 373.276 92.57C390.582 113.831 369.61 130.699 369.61 130.699V130.699Z" fill="#EE9B15"/>
<path d="M337.174 109.393C337.174 109.393 340.104 117.294 344.036 121.34C346.295 123.664 351.517 124.329 347.197 116.993C342.869 109.648 335.85 97.5 346.146 84.842C346.146 84.842 347.901 95.723 360.994 113.703C374.095 131.674 358.627 138.737 349.316 135.264C340.204 131.865 336.049 121.932 337.183 109.402L337.174 109.393Z" fill="url(#paint1_linear_269_3709)"/>
<defs>
<linearGradient id="paint0_linear_269_3709" x1="203.061" y1="20.7594" x2="227.954" y2="60.6373" gradientUnits="userSpaceOnUse">
<stop stop-color="#FFEC87"/>
<stop offset="1" stop-color="#EA8C00"/>
</linearGradient>
<linearGradient id="paint1_linear_269_3709" x1="346.022" y1="80.7594" x2="370.915" y2="120.637" gradientUnits="userSpaceOnUse">
<stop stop-color="#FFEC87"/>
<stop offset="1" stop-color="#EA8C00"/>
</linearGradient>
</defs>
</svg>
