<svg width="176" height="147" viewBox="0 0 176 147" fill="none" xmlns="http://www.w3.org/2000/svg">
<path fill-rule="evenodd" clip-rule="evenodd" d="M60.2276 33.254L60.6685 32.9786L61.323 34.0083C61.1727 34.0977 61.0246 34.184 60.8757 34.2746L60.2276 33.254ZM61.7534 32.3635L62.2025 32.102L62.8178 33.1539C62.6666 33.2357 62.5165 33.3223 62.3661 33.4062L61.7534 32.3635ZM63.3056 31.5268L63.7635 31.281L64.3436 32.3527C64.1891 32.4308 64.0352 32.5094 63.8819 32.5886L63.3056 31.5268ZM64.8912 30.7421L65.3566 30.5124L65.897 31.6034C65.7399 31.6746 65.5833 31.7465 65.4272 31.8214L64.8912 30.7421ZM66.4988 30.016L66.9738 29.8021L67.4726 30.9081C67.3144 30.9746 67.1559 31.0445 66.9975 31.1139L66.4988 30.016ZM68.1317 29.3467L68.6125 29.149L69.0756 30.2735C68.9124 30.3336 68.7506 30.3928 68.5913 30.4562L68.1317 29.3467ZM69.785 28.736L70.2743 28.5558L70.6954 29.6946C70.5319 29.7489 70.3687 29.8084 70.2068 29.8649L69.785 28.736ZM71.4594 28.181L71.9544 28.0166L72.3371 29.1725C72.1705 29.2224 72.0065 29.2705 71.8403 29.3234L71.4594 28.181ZM73.1532 27.6854L73.6533 27.5392L73.9956 28.7094C73.8285 28.7531 73.6617 28.7965 73.4944 28.8431L73.1532 27.6854ZM74.8693 27.2479L75.3712 27.1182L75.675 28.3023C75.5071 28.3394 75.3374 28.3794 75.1707 28.4184L74.8693 27.2479ZM76.5932 26.872L77.102 26.7592L77.3635 27.9578C77.1946 27.989 77.0238 28.0205 76.8532 28.0546L76.5932 26.872ZM78.3295 26.5559L78.8415 26.4617L79.0607 27.6687C78.8917 27.6934 78.7215 27.7228 78.5501 27.7503L78.3295 26.5559ZM80.0708 26.3036L80.5844 26.2264L80.7634 27.4458C80.5922 27.465 80.4206 27.4838 80.2488 27.5045L80.0708 26.3036ZM81.8244 26.1101L82.3435 26.0516L82.4784 27.2768C82.3043 27.2897 82.1337 27.3074 81.9625 27.3227L81.8244 26.1101ZM83.5837 25.9784L84.1035 25.938L84.1989 27.1718C84.0245 27.1795 83.8533 27.1855 83.6803 27.1944L83.5837 25.9784ZM85.3484 25.9065L85.8667 25.8842L85.9184 27.1252C85.7463 27.1269 85.5738 27.1311 85.4004 27.1348L85.3484 25.9065ZM87.1121 25.8978L87.6335 25.893L87.6402 27.1395C87.4683 27.1344 87.2954 27.1301 87.1222 27.1287L87.1121 25.8978ZM88.8764 25.9507L89.3987 25.9628L89.3624 27.2104C89.1905 27.1999 89.0189 27.1898 88.8442 27.1823L88.8764 25.9507ZM90.6378 26.0648L91.1592 26.095L91.0778 27.3416C90.9064 27.3264 90.7339 27.3097 90.5622 27.2963L90.6378 26.0648ZM92.3923 26.2391L92.9141 26.2872L92.789 27.5355C92.6168 27.5137 92.4471 27.4907 92.2746 27.4707L92.3923 26.2391ZM95.872 26.7751L96.3885 26.8592L96.1778 28.0927C96.0072 28.0599 95.8381 28.0238 95.6681 27.9917L95.872 26.7751ZM97.6 27.1321L98.1115 27.2356L97.8566 28.4569C97.6885 28.4168 97.5191 28.381 97.3513 28.3435L97.6 27.1321ZM99.3033 27.5514L99.8111 27.6729L99.5164 28.8822C99.3492 28.8355 99.182 28.7888 99.0164 28.7453L99.3033 27.5514ZM101 28.03L101.504 28.1683L101.165 29.3627C101.002 29.3131 100.834 29.2626 100.669 29.213L101 28.03ZM102.681 28.566L103.179 28.7215L102.801 29.9036C102.638 29.8467 102.474 29.7889 102.311 29.7327L102.681 28.566ZM104.341 29.1595L104.834 29.3322L104.416 30.4986C104.254 30.4361 104.091 30.3744 103.931 30.3138L104.341 29.1595ZM105.98 29.8141L106.468 30.0033L106.011 31.1516C105.853 31.083 105.695 31.0141 105.534 30.9492L105.98 29.8141ZM107.596 30.5228L108.074 30.7297L107.58 31.8577C107.424 31.7846 107.268 31.7112 107.111 31.64L107.596 30.5228ZM109.184 31.2883L109.657 31.5108L109.124 32.618C108.971 32.5384 108.819 32.4598 108.663 32.3833L109.184 31.2883ZM110.747 32.1063L111.212 32.3467L110.642 33.431C110.49 33.3474 110.339 33.2607 110.19 33.1783L110.747 32.1063ZM112.278 32.9804L112.733 33.2376L112.131 34.2957C111.984 34.2055 111.833 34.1218 111.682 34.0325L112.278 32.9804ZM113.779 33.9076L114.226 34.179L113.586 35.2165C113.441 35.1222 113.299 35.0238 113.151 34.9314L113.779 33.9076ZM115.247 34.8848L115.684 35.1732L115.011 36.1839C114.868 36.0844 114.726 35.9862 114.583 35.888L115.247 34.8848ZM116.679 35.9148L117.105 36.2178L116.396 37.2046C116.26 37.0989 116.123 36.9941 115.985 36.8913L116.679 35.9148ZM118.091 36.9939L118.506 37.311L117.758 38.2798C117.625 38.169 117.493 38.0584 117.356 37.9524L118.091 36.9939ZM119.432 38.1191L119.837 38.4503L119.064 39.3825C118.933 39.2669 118.801 39.1566 118.671 39.0429L119.432 38.1191ZM120.751 39.2911L121.145 39.6354L120.336 40.5422C120.21 40.4238 120.085 40.3047 119.959 40.1863L120.751 39.2911ZM122.026 40.5098L122.406 40.8672L121.569 41.7436C121.448 41.619 121.324 41.4998 121.201 41.3771L122.026 40.5098ZM123.258 41.7708L123.627 42.1395L122.755 42.991C122.639 42.863 122.52 42.7354 122.404 42.6094L123.258 41.7708ZM124.444 43.0735L124.799 43.4562L123.898 44.2774C123.783 44.1473 123.672 44.0153 123.556 43.8852L124.444 43.0735ZM125.586 44.4184L125.926 44.8146L124.997 45.6024C124.89 45.4667 124.779 45.3351 124.669 45.2013L125.586 44.4184ZM126.679 45.8033L127.004 46.2099L126.045 46.9687C125.943 46.829 125.84 46.6889 125.736 46.5515L126.679 45.8033ZM127.723 47.2239L128.035 47.6423L127.05 48.367C126.95 48.2248 126.851 48.0837 126.751 47.9422L127.723 47.2239ZM128.718 48.6794L129.014 49.1096L128.002 49.8005C127.911 49.6547 127.815 49.51 127.721 49.3641L128.718 48.6794ZM129.658 50.1708L129.942 50.6098L128.903 51.2664C128.816 51.119 128.728 50.9703 128.639 50.822L129.658 50.1708ZM130.549 51.6947L130.817 52.1429L129.758 52.7613C129.677 52.6095 129.591 52.4594 129.505 52.3092L130.549 51.6947ZM131.384 53.2452L131.636 53.704L130.555 54.2865C130.477 54.1322 130.398 53.9772 130.319 53.8234L131.384 53.2452ZM132.165 54.8271L132.4 55.2931L131.298 55.8379C131.228 55.6811 131.154 55.5247 131.079 55.368L132.165 54.8271ZM132.887 56.4401L133.106 56.913L131.986 57.4194C131.919 57.2614 131.851 57.1006 131.783 56.9431L132.887 56.4401ZM133.557 58.0724L133.759 58.5533L132.614 59.022C132.555 58.8602 132.495 58.697 132.432 58.5362L133.557 58.0724ZM134.168 59.7251L134.353 60.213L133.196 60.6439C133.141 60.4809 133.081 60.3179 133.025 60.1538L134.168 59.7251ZM134.723 61.4001L134.891 61.8935L133.712 62.2854C133.662 62.1188 133.615 61.9537 133.564 61.7863L134.723 61.4001ZM135.217 63.0908L135.367 63.5925L134.172 63.9403C134.128 63.7736 134.081 63.6047 134.038 63.4376L135.217 63.0908ZM135.654 64.8L135.788 65.3087L134.575 65.6146C134.537 65.4469 134.5 65.2748 134.459 65.1081L135.654 64.8ZM136.027 66.5234L136.145 67.0347L134.917 67.3018C134.886 67.1294 134.853 66.9597 134.821 66.7909L136.027 66.5234ZM136.344 68.2592L136.442 68.7726L135.202 68.998C135.177 68.827 135.148 68.6556 135.12 68.485L136.344 68.2592ZM136.621 70.0118L136.701 70.5288L135.424 70.7153C135.405 70.5418 135.385 70.3707 135.365 70.1984L136.621 70.0118ZM136.814 71.7654L136.877 72.2846L135.595 72.427C135.58 72.2549 135.561 72.0825 135.547 71.9092L136.814 71.7654ZM136.947 73.5262L136.99 74.0465L135.692 74.1433C135.686 73.9716 135.68 73.7984 135.671 73.6256L136.947 73.5262ZM137.018 75.2892L137.045 75.8098L135.739 75.8649C135.738 75.6905 135.734 75.5178 135.73 75.3428L137.018 75.2892ZM137.027 77.0524L137.033 77.5752L135.722 77.582L135.737 77.0618L137.027 77.0524ZM136.974 78.8147L136.965 79.3369L135.647 79.2977C135.658 79.1253 135.667 78.9517 135.676 78.7804L136.974 78.8147ZM136.862 80.5746L136.835 81.0977L135.514 81.0124C135.531 80.84 135.545 80.6674 135.562 80.4934L136.862 80.5746ZM136.685 82.3309L136.64 82.8519L135.32 82.7216C135.343 82.5502 135.365 82.3778 135.386 82.2061L136.685 82.3309ZM136.432 84.063L136.368 84.581L135.071 84.4053C135.101 84.2352 135.125 84.0631 135.15 83.8943L136.432 84.063ZM136.134 85.802L136.05 86.3167L134.76 86.0974C134.793 85.9268 134.829 85.7574 134.86 85.588L136.134 85.802ZM135.756 87.5135L135.653 88.0248L134.397 87.7642C134.436 87.597 134.472 87.4257 134.509 87.2577L135.756 87.5135ZM135.338 89.2267L135.221 89.7347L133.969 89.43C134.016 89.2628 134.063 89.0963 134.106 88.93L135.338 89.2267ZM134.863 90.9251L134.727 91.4275L133.488 91.0789C133.541 90.9149 133.585 90.7492 133.638 90.5811L134.863 90.9251ZM134.326 92.6056L134.172 93.1029L132.946 92.7117C133.003 92.5485 133.063 92.3849 133.118 92.221L134.326 92.6056ZM133.732 94.2644L133.562 94.7576L132.352 94.3252C132.415 94.163 132.476 94.0007 132.537 93.8384L133.732 94.2644ZM133.08 95.9033L132.893 96.39L131.7 95.9147C131.769 95.7562 131.837 95.5959 131.903 95.4375L133.08 95.9033ZM132.353 97.4993L132.146 97.9795L130.996 97.4737C131.071 97.3176 131.142 97.1594 131.213 97.0045L132.353 97.4993ZM131.586 99.0887L131.365 99.5596L130.238 99.017C130.317 98.8641 130.393 98.7074 130.473 98.5527L131.586 99.0887ZM130.766 100.649L130.528 101.113L129.421 100.532C129.506 100.38 129.591 100.229 129.674 100.079L130.766 100.649ZM129.893 102.181L129.639 102.637L128.558 102.019C128.648 101.871 128.733 101.722 128.822 101.572L129.893 102.181ZM128.968 103.677L128.699 104.125L127.638 103.47C127.734 103.325 127.831 103.182 127.922 103.036L128.968 103.677ZM127.972 105.126L127.687 105.564L126.673 104.889C126.775 104.747 126.871 104.602 126.969 104.461L127.972 105.126ZM126.943 106.56L126.64 106.987L125.651 106.277C125.756 106.14 125.863 106 125.966 105.863L126.943 106.56ZM125.864 107.955L125.552 108.369L124.588 107.623C124.699 107.49 124.808 107.352 124.916 107.218L125.864 107.955ZM124.74 109.309L124.41 109.713L123.475 108.936C123.588 108.806 123.702 108.675 123.814 108.544L124.74 109.309ZM123.568 110.628L123.223 111.018L122.316 110.208C122.435 110.083 122.554 109.957 122.672 109.83L123.568 110.628ZM122.351 111.901L121.994 112.28L121.116 111.442C121.239 111.319 121.361 111.194 121.483 111.074L122.351 111.901ZM121.09 113.133L120.72 113.498L119.868 112.625C119.996 112.509 120.123 112.391 120.25 112.274L121.09 113.133ZM119.787 114.319L119.403 114.672L118.581 113.771C118.713 113.658 118.845 113.544 118.976 113.43L119.787 114.319ZM118.443 115.459L118.047 115.798L117.255 114.867C117.392 114.759 117.525 114.649 117.66 114.539L118.443 115.459ZM117.059 116.551L116.652 116.877L115.891 115.914C116.031 115.811 116.172 115.708 116.308 115.605L117.059 116.551ZM115.639 117.596L115.222 117.905L114.495 116.919C114.638 116.819 114.779 116.719 114.921 116.619L115.639 117.596ZM114.183 118.588L113.755 118.886L113.062 117.87C113.208 117.777 113.353 117.681 113.499 117.587L114.183 118.588ZM112.694 119.531L112.255 119.811L111.596 118.771C111.746 118.682 111.895 118.595 112.044 118.506L112.694 119.531ZM111.172 120.42L110.724 120.685L110.104 119.624C110.257 119.543 110.406 119.456 110.557 119.37L111.172 120.42ZM109.605 121.231L109.147 121.48L108.578 120.421C108.733 120.343 108.888 120.266 109.042 120.188L109.605 121.231ZM108.026 122.01L107.56 122.244L107.027 121.166C107.185 121.094 107.342 121.021 107.499 120.947L108.026 122.01ZM106.421 122.737L105.947 122.952L105.452 121.857L105.93 121.653L106.421 122.737ZM104.793 123.402L104.311 123.604L103.852 122.485C104.016 122.425 104.178 122.366 104.339 122.303L104.793 123.402ZM103.14 124.014L102.653 124.198L102.233 123.065C102.397 123.01 102.561 122.95 102.724 122.893L103.14 124.014ZM101.469 124.567L100.975 124.734L100.593 123.582C100.76 123.532 100.925 123.484 101.091 123.433L101.469 124.567ZM99.7781 125.062L99.2792 125.21L98.9384 124.042C99.1061 123.999 99.2745 123.953 99.4404 123.908L99.7781 125.062ZM98.0699 125.497L97.5647 125.628L97.2629 124.445C97.4326 124.407 97.6028 124.37 97.7706 124.33L98.0699 125.497ZM96.3375 125.847L95.8303 125.961L95.5732 124.789C95.7432 124.757 95.9131 124.727 96.0841 124.693L96.3375 125.847ZM94.6057 126.163L94.093 126.259L93.8774 125.074L94.3904 124.993L94.6057 126.163ZM92.8644 126.416L92.3492 126.494L92.1743 125.296C92.3457 125.275 92.5192 125.256 92.6899 125.235L92.8644 126.416ZM91.1137 126.61L90.5964 126.668L90.46 125.463C90.6333 125.45 90.8057 125.432 90.9769 125.418L91.1137 126.61ZM89.3574 126.741L88.8379 126.782L88.7461 125.562C88.9207 125.556 89.0939 125.549 89.266 125.54L89.3574 126.741ZM87.59 126.788L87.0687 126.811L87.0191 125.61C87.1929 125.609 87.3662 125.604 87.5397 125.602L87.59 126.788ZM85.8287 126.796L85.3077 126.801L85.3012 125.596C85.4726 125.598 85.6461 125.603 85.8204 125.607L85.8287 126.796ZM84.0681 126.744L83.5486 126.731L83.5836 125.52C83.756 125.532 83.9266 125.54 84.1022 125.548L84.0681 126.744ZM82.3116 126.631L81.7918 126.599L81.8699 125.387C82.0423 125.404 82.2148 125.418 82.3868 125.433L82.3116 126.631ZM80.559 126.456L80.0416 126.406L80.1612 125.193C80.3329 125.214 80.5038 125.236 80.6758 125.257L80.559 126.456ZM78.815 126.221L78.2993 126.152L78.4609 124.942C78.6312 124.971 78.8018 124.996 78.9742 125.025L78.815 126.221ZM77.0782 125.924L76.5647 125.837L76.7705 124.632C76.94 124.666 77.1103 124.702 77.2805 124.733L77.0782 125.924ZM75.3496 125.543L74.8383 125.44L75.0811 124.264C75.2502 124.306 75.4189 124.34 75.5879 124.378L75.3496 125.543ZM73.6404 125.126L73.1339 125.004L73.4192 123.835C73.5864 123.881 73.7529 123.928 73.9212 123.974L73.6404 125.126ZM71.9466 124.65L71.4446 124.51L71.7687 123.353C71.9348 123.406 72.1006 123.454 72.2657 123.504L71.9466 124.65ZM70.2708 124.139L69.7746 123.984L70.1488 122.815C70.3134 122.873 70.4741 122.931 70.6398 122.987L70.2708 124.139ZM68.6128 123.546L68.1221 123.374L68.5329 122.222C68.6932 122.284 68.8564 122.346 69.0192 122.408L68.6128 123.546ZM66.9779 122.895L66.4918 122.705L66.9437 121.569C67.1022 121.638 67.2599 121.707 67.4209 121.772L66.9779 122.895ZM65.3668 122.213L64.8914 122.005L65.3895 120.867C65.5459 120.941 65.7023 121.015 65.8587 121.085L65.3668 122.213ZM63.78 121.448L63.3087 121.226L63.8454 120.108C64.0005 120.19 64.1542 120.266 64.3108 120.345L63.78 121.448ZM62.2193 120.606L61.7571 120.367L62.3216 119.288C62.4738 119.374 62.6251 119.458 62.7764 119.541L62.2193 120.606ZM60.69 119.735L60.236 119.48L60.8356 118.426C60.9835 118.516 61.1336 118.6 61.2827 118.691L60.69 119.735ZM59.1913 118.808L58.7471 118.538L59.3895 117.504C59.533 117.598 59.6774 117.697 59.8223 117.789L59.1913 118.808ZM57.7263 117.832L57.2917 117.547L57.9627 116.538C58.1036 116.638 58.2466 116.736 58.3904 116.834L57.7263 117.832ZM56.2965 116.806L55.8715 116.502L56.5786 115.519C56.7159 115.624 56.8533 115.728 56.9908 115.832L56.2965 116.806ZM54.9027 115.73L54.4905 115.412L55.2291 114.453C55.3635 114.563 55.4981 114.673 55.6328 114.781L54.9027 115.73ZM53.5511 114.604L53.1499 114.274L53.9197 113.343C54.0502 113.456 54.1821 113.569 54.3127 113.683L53.5511 114.604ZM52.2339 113.434L51.8459 113.09L52.6504 112.183C52.7772 112.303 52.903 112.422 53.0299 112.54L52.2339 113.434ZM50.9621 112.219L50.5848 111.86L51.42 110.984C51.5421 111.108 51.6661 111.229 51.7881 111.351L50.9621 112.219ZM49.7315 110.956L49.367 110.588L50.2366 109.738C50.3531 109.865 50.4712 109.993 50.5882 110.119L49.7315 110.956ZM48.5452 109.654L48.1939 109.27L49.0935 108.451C49.2063 108.583 49.3197 108.712 49.4339 108.843L48.5452 109.654ZM47.4066 108.312L47.0687 107.916L47.9974 107.128C48.1053 107.262 48.215 107.396 48.3251 107.531L47.4066 108.312ZM46.3145 106.93L45.9914 106.522L46.953 105.763C47.0561 105.902 47.1578 106.042 47.2626 106.18L46.3145 106.93ZM45.2713 105.513L44.964 105.093L45.947 104.369C46.0469 104.511 46.1465 104.653 46.2459 104.794L45.2713 105.513ZM44.2801 104.057L43.985 103.628L44.9962 102.939C45.0889 103.083 45.1841 103.228 45.2785 103.374L44.2801 104.057ZM43.3408 102.568L43.0613 102.128L44.0982 101.473C44.1862 101.622 44.2731 101.77 44.363 101.918L43.3408 102.568ZM42.4529 101.047L42.1889 100.599L43.2447 99.9803C43.3277 100.132 43.4143 100.282 43.4991 100.433L42.4529 101.047ZM41.6173 99.4976L41.3693 99.0396L42.4492 98.4571C42.526 98.6114 42.6024 98.7665 42.6831 98.9207L41.6173 99.4976ZM40.8346 97.9194L40.6028 97.4549L41.7033 96.9101C41.7761 97.0672 41.8487 97.2232 41.924 97.3791L40.8346 97.9194ZM40.1118 96.3149L39.8954 95.8418L41.013 95.337C41.0787 95.4957 41.1493 95.6543 41.2169 95.814L40.1118 96.3149ZM39.443 94.6867L39.2429 94.2064L40.3837 93.7368C40.4438 93.9 40.5027 94.0614 40.566 94.223L39.443 94.6867ZM38.8308 93.0345L38.6488 92.5464L39.8035 92.1168C39.8572 92.2802 39.918 92.4436 39.9738 92.6077L38.8308 93.0345ZM38.2776 91.3626L38.1117 90.8686L39.2868 90.4796C39.3363 90.6448 39.3836 90.8116 39.4359 90.9777L38.2776 91.3626ZM37.7842 89.6727L37.6362 89.1739L38.8253 88.8242C38.8683 88.9919 38.9128 89.1585 38.9593 89.3258L37.7842 89.6727ZM37.3546 87.9521L37.2245 87.449L38.4192 87.1431C38.4571 87.3121 38.4966 87.4811 38.535 87.6492L37.3546 87.9521ZM36.9857 86.2179L36.873 85.7101L38.075 85.4457C38.1066 85.6159 38.1374 85.7856 38.1719 85.9553L36.9857 86.2179ZM36.6706 84.4863L36.576 83.9745L37.7906 83.7528C37.8166 83.9237 37.8452 84.0943 37.8713 84.2651L36.6706 84.4863ZM36.4173 82.7458L36.3398 82.2318L37.5698 82.0508C37.5895 82.2228 37.6072 82.395 37.6289 82.5667L36.4173 82.7458ZM36.2242 80.9974L36.1647 80.4795L37.4037 80.3431C37.4154 80.5153 37.4328 80.6872 37.4482 80.86L36.2242 80.9974ZM36.0918 79.2418L36.0503 78.7228L37.2994 78.6281C37.3061 78.7999 37.3135 78.9727 37.3218 79.1463L36.0918 79.2418ZM36.0202 77.483L35.9976 76.9643L37.2524 76.9127C37.2529 77.0862 37.2571 77.2587 37.2616 77.4309L36.0202 77.483ZM36.0119 75.7245L36.0084 75.205L37.2642 75.1976C37.2593 75.3705 37.2541 75.5436 37.2522 75.716L36.0119 75.7245ZM36.0638 73.9651L36.0775 73.4467L37.3411 73.4822C37.3302 73.6551 37.3206 73.8276 37.3125 73.9996L36.0638 73.9651ZM36.1777 72.2088L36.21 71.6927L37.4731 71.7734C37.4564 71.9458 37.4414 72.1176 37.4271 72.2905L36.1777 72.2088ZM36.3519 70.4572L36.4014 69.9415L37.6648 70.0654C37.6433 70.2373 37.6196 70.4092 37.5998 70.581L36.3519 70.4572ZM36.593 68.7056L36.6614 68.1903L37.9146 68.3581C37.8853 68.529 37.8608 68.6997 37.8359 68.8691L36.593 68.7056ZM36.89 66.9689L36.9763 66.4585L38.2254 66.6697C38.1919 66.8392 38.1556 67.0095 38.1245 67.1795L36.89 66.9689ZM37.2464 65.2463L37.3494 64.7395L38.5881 64.9942C38.5487 65.1618 38.5137 65.3307 38.4747 65.4996L37.2464 65.2463ZM37.6616 63.5365L37.7827 63.0335L39.0165 63.3311C38.9703 63.499 38.9223 63.6644 38.8789 63.8316L37.6616 63.5365ZM38.1371 61.8413L38.2753 61.3432L39.4954 61.6844C39.444 61.8496 39.3946 62.0153 39.346 62.1806L38.1371 61.8413ZM38.6721 60.1661L38.8282 59.6724L40.0347 60.0557C39.9772 60.219 39.9202 60.3823 39.8638 60.5455L38.6721 60.1661ZM39.2594 58.5161L39.4327 58.0288L40.6238 58.4542C40.5615 58.6148 40.5 58.7766 40.4401 58.9383L39.2594 58.5161ZM39.91 56.8812L40.0997 56.3994L41.2736 56.8648C41.205 57.0228 41.1378 57.1822 41.072 57.343L39.91 56.8812ZM40.6162 55.2691L40.8226 54.7947L41.9761 55.2981L41.7583 55.7673L40.6162 55.2691ZM41.38 53.6844L41.6032 53.2174L42.7329 53.7595C42.654 53.9138 42.577 54.0683 42.4998 54.2225L41.38 53.6844ZM42.198 52.1268L42.4369 51.6674L43.5466 52.2472C43.4618 52.3985 43.3757 52.5495 43.2923 52.7004L42.198 52.1268ZM43.0685 50.597L43.3257 50.1472L44.4062 50.7611C44.317 50.91 44.2325 51.0594 44.1426 51.2089L43.0685 50.597ZM43.9969 49.0965L44.2691 48.6547L45.3279 49.3064C45.2328 49.4508 45.1356 49.5954 45.0427 49.7414L43.9969 49.0965ZM44.9749 47.6323L45.261 47.2016L46.2911 47.8856C46.1911 48.0279 46.0942 48.1696 45.9967 48.3123L44.9749 47.6323ZM46.0003 46.2033L46.3019 45.783L47.3054 46.5017C47.2007 46.6402 47.0967 46.7776 46.9937 46.9154L46.0003 46.2033ZM47.0767 44.8124L47.3923 44.4004L48.3677 45.1531C48.2591 45.2877 48.1502 45.422 48.0424 45.5577L47.0767 44.8124ZM48.2006 43.4588L48.5292 43.0589L49.4758 43.8424C49.3616 43.9729 49.2489 44.1038 49.1378 44.2351L48.2006 43.4588ZM49.3701 42.1448L49.714 41.7567L50.6334 42.573C50.5152 42.6996 50.3943 42.8237 50.277 42.9513L49.3701 42.1448ZM50.5853 40.8733L50.9425 40.4977L51.8301 41.343C51.707 41.4648 51.5863 41.5893 51.464 41.7105L50.5853 40.8733ZM51.8447 39.6435L52.2135 39.2812L53.0717 40.1571C52.9453 40.2751 52.8164 40.3917 52.6915 40.5109L51.8447 39.6435ZM53.1453 38.4604L53.5269 38.1093L54.3545 39.0166C54.2233 39.1293 54.0924 39.2423 53.9628 39.3572L53.1453 38.4604ZM54.4864 37.3216L54.8815 36.9852L55.6742 37.9182C55.5387 38.0256 55.4068 38.1372 55.2723 38.2467L54.4864 37.3216ZM55.8674 36.231L56.2721 35.9097L57.0366 36.8697C56.8976 36.972 56.7574 37.0734 56.62 37.178L55.8674 36.231ZM57.2847 35.1888L57.7016 34.8809L58.4291 35.8685C58.2873 35.9684 58.1466 36.0675 58.0048 36.1674L57.2847 35.1888ZM95.0366 33.9956C95.5319 34.0924 96.0402 34.1906 96.5318 34.3164C96.6266 33.9206 96.7214 33.523 96.8162 33.1237C96.5105 33.0446 96.2051 32.9668 95.9037 32.8891C95.9824 32.5338 96.0585 32.1803 96.1371 31.8233C96.6175 31.9481 97.0973 32.0723 97.5763 32.1962C97.7461 32.2411 97.9129 32.2848 98.0845 32.3268C98.0408 32.5029 97.9939 32.68 97.9488 32.8549L97.6624 33.9778C97.5662 34.3504 97.3922 35.0289 97.2955 35.4029C97.29 35.4239 97.2858 35.4444 97.2831 35.4632C96.4295 35.2383 95.5667 35.0417 94.7021 34.8688L95.0366 33.9956ZM62.9999 41.155C62.9891 41.1396 62.979 41.1253 62.9687 41.1106C62.5833 40.5503 62.015 39.7318 61.6289 39.1704C61.2427 38.609 60.8569 38.0479 60.4713 37.4873C59.8953 37.8974 59.3204 38.3076 58.7465 38.7181L57.0207 39.949C57.3895 40.4103 57.7573 40.8749 58.1246 41.3372C58.4919 41.7994 58.9081 42.3303 59.2748 42.7925C59.7479 42.4126 60.2316 42.0088 60.7328 41.6509C60.4896 41.3227 60.2447 40.9952 60.0012 40.6667L59.2327 41.2157C59.0115 40.927 58.79 40.6386 58.5683 40.3503L59.7794 39.4862C59.9216 39.3861 60.063 39.2832 60.2049 39.1827C60.3107 39.3275 60.4183 39.477 60.5226 39.6245C60.7475 39.9382 60.9741 40.2522 61.1987 40.5656C61.4233 40.8789 61.8305 41.4501 62.0547 41.7637C62.0606 41.7721 62.0674 41.7817 62.0735 41.7905C62.0175 41.83 61.9618 41.8692 61.905 41.9092C60.9155 42.6155 59.9669 43.361 59.0579 44.134C58.4344 44.6656 57.8298 45.2114 57.2439 45.7714C57.2319 45.759 57.2183 45.7466 57.2059 45.7345C56.7289 45.2481 56.0277 44.5413 55.55 44.0554C55.0723 43.5694 54.5953 43.083 54.1169 42.5976C53.6223 43.102 53.1276 43.6058 52.6326 44.1091C52.1376 44.6124 51.6425 45.1165 51.1472 45.6214C51.5912 46.0127 52.0334 46.4062 52.4754 46.7978C52.9173 47.1894 53.4197 47.6388 53.8606 48.0311C54.261 47.5753 54.6669 47.0937 55.0993 46.6536C54.8019 46.373 54.5045 46.0934 54.2073 45.8115C53.9868 46.037 53.7655 46.2608 53.5456 46.4848C53.2772 46.2408 53.0088 45.9955 52.7406 45.7491L53.7815 44.687C53.903 44.563 54.0258 44.4376 54.1486 44.3138C54.2793 44.441 54.4093 44.5688 54.5383 44.6934C54.8142 44.9648 55.0904 45.2349 55.3669 45.504C55.6418 45.7737 56.1419 46.2641 56.4183 46.5343C56.4243 46.5428 56.4335 46.5489 56.4408 46.5569C55.5381 47.4662 54.6835 48.4096 53.877 49.387C53.3561 50.0185 52.8561 50.6618 52.3771 51.3169C52.3619 51.3062 52.3451 51.2956 52.3311 51.2851C51.7777 50.8887 50.9629 50.314 50.4079 49.9193C49.8529 49.5245 49.2992 49.1283 48.7442 48.7335C48.3451 49.3162 47.9453 49.8986 47.545 50.4807L46.3444 52.2277C46.8495 52.5358 47.3536 52.8448 47.8567 53.1549C48.3597 53.4635 48.9324 53.8189 49.4349 54.1267C49.7486 53.6092 50.0655 53.0636 50.4145 52.5595C50.0729 52.3341 49.7317 52.1091 49.3908 51.8847C49.2108 52.1436 49.0335 52.4033 48.8544 52.6627C48.548 52.469 48.2415 52.2721 47.9345 52.0776C48.2151 51.6695 48.4956 51.2611 48.7762 50.8526L49.0724 50.4208C49.2237 50.5226 49.3728 50.6253 49.5226 50.7282C49.839 50.9439 50.1611 51.1639 50.477 51.3827C50.7929 51.6016 51.3736 51.9963 51.6913 52.2145C51.7019 52.2218 51.7123 52.2288 51.723 52.2354C50.9954 53.2864 50.3199 54.3653 49.6967 55.4721C49.2953 56.1825 48.915 56.9028 48.5559 57.6332C48.5349 57.6228 48.5131 57.6129 48.4917 57.6027C47.879 57.3089 46.9769 56.8845 46.3621 56.5922C45.7472 56.3 45.1326 56.0058 44.5167 55.7121C44.2248 56.3563 43.9323 56.9993 43.6391 57.6412C43.3459 58.283 43.0533 58.926 42.7612 59.5699C43.311 59.7858 43.8601 60.0021 44.4086 60.2189C44.9579 60.4351 45.5848 60.686 46.1324 60.9045C46.3533 60.3393 46.5701 59.7474 46.8251 59.1862C46.4496 59.0236 46.0757 58.8626 45.7 58.6996L45.308 59.5591C44.9722 59.4202 44.6368 59.2813 44.3017 59.1423L44.9177 57.7883C44.9908 57.6305 45.0625 57.4709 45.1356 57.313C45.3014 57.3865 45.4673 57.4632 45.6318 57.5365C45.983 57.6965 46.3359 57.8558 46.6867 58.0144L48.0275 58.6227C48.0435 58.6306 48.0579 58.637 48.0746 58.6444C47.5668 59.7517 47.1086 60.8774 46.6997 62.0214C46.4057 62.8415 46.1339 63.67 45.8918 64.5062C45.8648 64.4983 45.8379 64.492 45.8112 64.4845C45.1558 64.302 44.1947 64.0398 43.5374 63.8585C42.8801 63.6773 42.2252 63.4949 41.5684 63.3127C41.3925 63.997 41.216 64.6806 41.039 65.3634C40.8621 66.0462 40.6858 66.73 40.5102 67.4147C41.0903 67.5336 41.6692 67.6518 42.2469 67.7693C42.8245 67.8888 43.4859 68.0261 44.064 68.1447C44.1834 67.5506 44.2934 66.9299 44.4476 66.3338C44.0511 66.238 43.6529 66.1452 43.2539 66.0496C43.1756 66.3542 43.096 66.6591 43.0174 66.964C42.6625 66.885 42.3079 66.8058 41.9518 66.7277C42.0752 66.2475 42.1994 65.7676 42.3244 65.2881C42.3683 65.119 42.4116 64.9499 42.4545 64.7808C42.6322 64.8256 42.8083 64.8706 42.9828 64.9159C43.3558 65.0117 43.7301 65.1072 44.1056 65.2023C44.4782 65.2985 45.1571 65.4738 45.53 65.5697C45.5518 65.5757 45.5732 65.5804 45.5953 65.5846C45.2863 66.7617 45.0275 67.9492 44.8188 69.1471C44.6702 70.0051 44.548 70.8673 44.4522 71.7338C44.4229 71.7304 44.3941 71.7292 44.3643 71.7266C43.687 71.6593 42.6948 71.5687 42.0155 71.5055C41.3361 71.4424 40.6593 71.3752 39.98 71.3098C39.9254 72.0138 39.8704 72.718 39.815 73.4223C39.7595 74.1266 39.7044 74.831 39.6498 75.5355C40.2405 75.5498 40.8324 75.5665 41.4222 75.5826C42.0119 75.5987 42.6868 75.6196 43.2757 75.6368C43.2883 75.0319 43.2913 74.4003 43.339 73.7861C42.9312 73.7614 42.5236 73.7393 42.1163 73.7153C42.092 74.0296 42.0658 74.3441 42.0421 74.6569L40.9535 74.6106L41.0714 73.1278C41.0845 72.9541 41.0998 72.7788 41.1117 72.6059C41.294 72.6195 41.4752 72.6339 41.656 72.6469C42.0423 72.6764 42.4271 72.7058 42.8103 72.7352C43.1949 72.7642 43.8937 72.8192 44.2782 72.8482L44.3473 72.8544C44.24 74.1219 44.1896 75.3936 44.1961 76.6695C44.1994 77.483 44.2301 78.2964 44.2814 79.1101C44.2553 79.112 44.2303 79.1154 44.2044 79.1177C43.5258 79.1708 42.5329 79.2534 41.8542 79.3071L39.8161 79.4673L40.02 81.5766C40.0884 82.2793 40.1562 82.9824 40.2235 83.6862C40.8096 83.5987 41.3942 83.5118 41.9775 83.4255C42.5624 83.3381 43.229 83.243 43.8129 83.1558C43.7207 82.5579 43.612 81.9365 43.5543 81.323C43.1483 81.3694 42.7434 81.4172 42.3369 81.4628C42.3683 81.7767 42.3985 82.0902 42.4276 82.4034L41.347 82.5467L41.204 81.0672C41.1869 80.8934 41.1707 80.7195 41.1545 80.5462C41.3358 80.5281 41.5142 80.512 41.6967 80.4932C42.0811 80.456 42.4658 80.4175 42.8492 80.3804C43.2327 80.3433 43.9326 80.2753 44.3141 80.2362C44.3333 80.2331 44.3499 80.2318 44.3683 80.2299C44.4816 81.4955 44.6522 82.7569 44.88 84.0139C45.0258 84.814 45.1947 85.6111 45.3866 86.405C45.3671 86.41 45.3472 86.4152 45.3282 86.4209C44.6691 86.5897 43.7069 86.8436 43.046 87.0153C42.3851 87.1869 41.7275 87.3557 41.0676 87.5272C41.2571 88.2077 41.4462 88.8882 41.6349 89.5686C41.8235 90.2489 42.0092 90.9292 42.1919 91.6094L43.8736 91.0477C44.4341 90.8602 45.074 90.6502 45.6357 90.4645C45.4397 89.8898 45.2267 89.2969 45.0612 88.704C44.67 88.8211 44.279 88.9386 43.886 89.0547C43.9714 89.3581 44.0547 89.6624 44.1387 89.9646C43.7933 90.0751 43.4451 90.184 43.0999 90.2949C42.9671 89.8172 42.834 89.3395 42.7006 88.8617C42.6547 88.6945 42.6077 88.5258 42.5633 88.3553C42.7376 88.3055 42.9127 88.2567 43.0861 88.2064C43.4584 88.1028 43.8303 87.9985 44.202 87.8936L45.6219 87.4965C45.6337 87.4939 45.6453 87.4906 45.6568 87.4867C45.9879 88.7093 46.3761 89.9205 46.8212 91.1202C46.8219 91.1205 46.8224 91.1209 46.8228 91.1215C46.8233 91.1221 46.8235 91.1228 46.8236 91.1235C47.1074 91.8852 47.411 92.6424 47.741 93.3919L47.6922 93.4137C47.0732 93.6962 46.1672 94.1139 45.5483 94.3958L43.6898 95.2438C43.9932 95.8821 44.2963 96.5199 44.599 97.1572C44.9017 97.7946 45.2064 98.4321 45.5132 99.07C46.0318 98.7874 46.5528 98.5065 47.0708 98.2239C47.5889 97.9412 48.1844 97.6253 48.7041 97.3443C48.4129 96.8125 48.0992 96.2659 47.8331 95.7099C47.4681 95.8938 47.1024 96.0767 46.7359 96.2585C46.8726 96.5421 47.0073 96.8261 47.1438 97.1116C46.8227 97.2785 46.4988 97.4469 46.1771 97.6159C45.9634 97.1688 45.7498 96.7215 45.5362 96.274C45.4617 96.117 45.3866 95.9588 45.3121 95.8002C45.4755 95.7208 45.6398 95.6428 45.8035 95.5637C46.1506 95.3965 46.4995 95.2286 46.8468 95.0624C47.1941 94.8962 47.8283 94.5931 48.1744 94.426C48.1845 94.4217 48.194 94.4156 48.2039 94.4119C48.7411 95.5544 49.3377 96.6776 49.9863 97.7844L49.9889 97.7881C50.3985 98.4864 50.8306 99.1777 51.2852 99.862C51.2709 99.8721 51.2551 99.8832 51.2401 99.8938C50.6786 100.279 49.8604 100.847 49.2991 101.232C48.7378 101.618 48.1769 102.005 47.6155 102.391C48.026 102.966 48.436 103.541 48.8456 104.116C49.2552 104.691 49.6658 105.266 50.0776 105.841C50.5403 105.472 51.0027 105.104 51.4648 104.737C51.9282 104.369 52.458 103.954 52.9209 103.587C52.5414 103.113 52.1375 102.63 51.7796 102.128C51.4511 102.372 51.1243 102.616 50.7945 102.86C50.9765 103.118 51.1601 103.372 51.3433 103.629C51.0556 103.851 50.7667 104.072 50.4783 104.294C50.1909 103.89 49.9032 103.487 49.615 103.084C49.5143 102.941 49.4137 102.798 49.3109 102.657C49.4583 102.55 49.6065 102.444 49.7538 102.339L50.6943 101.664C51.0081 101.439 51.5786 101.032 51.8921 100.807L51.9199 100.787C51.9597 100.844 51.9999 100.901 52.0397 100.957C52.7462 101.947 53.4895 102.894 54.2634 103.803C54.7939 104.426 55.3415 105.032 55.9006 105.618L55.8624 105.657C55.376 106.134 54.6695 106.837 54.1834 107.313C53.6973 107.79 53.2108 108.268 52.7251 108.746C53.2307 109.242 53.7327 109.736 54.2366 110.23C54.7405 110.724 55.2461 111.222 55.7489 111.715C56.1408 111.272 56.5332 110.831 56.9244 110.389C57.3156 109.947 57.7652 109.444 58.1582 109.003C57.7026 108.603 57.2199 108.196 56.7811 107.766C56.5005 108.063 56.2198 108.36 55.9389 108.658C56.1629 108.877 56.3877 109.097 56.6131 109.318L55.8769 110.122C55.523 109.776 55.1684 109.428 54.8148 109.082C54.6905 108.96 54.5665 108.837 54.4421 108.715C54.5693 108.584 54.6966 108.454 54.8246 108.324L55.6334 107.495C55.9039 107.22 56.3941 106.72 56.6642 106.444C56.6715 106.435 56.6794 106.427 56.6877 106.42C57.5964 107.322 58.5397 108.176 59.5177 108.982C60.1492 109.505 60.7924 110.005 61.4473 110.484C61.4374 110.5 61.4263 110.516 61.416 110.532C61.0203 111.085 60.4448 111.9 60.0498 112.454C59.6547 113.009 59.2585 113.563 58.8635 114.117C59.4466 114.517 60.0285 114.917 60.6093 115.317C61.1902 115.717 61.7726 116.117 62.3567 116.517C62.6656 116.012 62.9748 115.508 63.2842 115.005C63.5935 114.502 63.948 113.929 64.2565 113.428C63.7393 113.112 63.1935 112.796 62.6871 112.45L62.0122 113.474C62.2715 113.652 62.5308 113.83 62.7902 114.009C62.5964 114.315 62.3997 114.622 62.2054 114.929C61.7981 114.648 61.3895 114.368 60.9796 114.087C60.8373 113.99 60.6924 113.888 60.5491 113.788C60.6511 113.637 60.7544 113.488 60.8568 113.338L61.5106 112.384C61.7288 112.066 62.1254 111.487 62.3426 111.168L62.3631 111.137C63.4145 111.865 64.4919 112.539 65.5954 113.161C65.5968 113.162 65.5983 113.162 65.5998 113.163C66.3114 113.566 67.0318 113.947 67.7612 114.306C67.751 114.326 67.7418 114.347 67.7322 114.369C67.4374 114.984 67.0122 115.885 66.7196 116.5C66.427 117.115 66.1333 117.728 65.8411 118.345C66.4851 118.637 67.1278 118.929 67.7689 119.222C68.4101 119.516 69.0531 119.808 69.6979 120.101C69.9152 119.55 70.1313 119.001 70.3463 118.452C70.5631 117.904 70.8144 117.277 71.0318 116.728C70.4668 116.508 69.8748 116.292 69.3149 116.036C69.1522 116.412 68.9913 116.787 68.8272 117.162C69.1139 117.292 69.4006 117.423 69.6874 117.554C69.5486 117.888 69.4098 118.225 69.271 118.56C68.8202 118.355 68.3679 118.149 67.9175 117.945C67.7584 117.872 67.5995 117.799 67.4408 117.728C67.5146 117.56 67.59 117.394 67.6651 117.23C67.8245 116.879 67.9832 116.526 68.1425 116.175C68.3019 115.823 68.5919 115.184 68.7502 114.834C68.7579 114.819 68.7648 114.803 68.7726 114.788C69.8837 115.297 71.0133 115.756 72.1614 116.165C72.9783 116.458 73.8026 116.727 74.6345 116.97C74.6286 116.997 74.6213 117.024 74.6149 117.052C74.4321 117.707 74.1695 118.668 73.987 119.324L73.4417 121.293C74.126 121.469 74.8088 121.646 75.4935 121.825C76.1783 122.004 76.8617 122.177 77.5453 122.354C77.6622 121.772 77.7802 121.193 77.8994 120.616C78.0189 120.039 78.1562 119.378 78.2742 118.798C77.6808 118.681 77.0586 118.57 76.4631 118.416C76.3696 118.814 76.2739 119.21 76.1792 119.61C76.4852 119.689 76.7894 119.766 77.0945 119.846C77.0151 120.201 76.9359 120.555 76.8596 120.909C76.3798 120.786 75.8989 120.662 75.4198 120.538C75.2504 120.493 75.0817 120.447 74.9126 120.408C74.9571 120.231 75.002 120.054 75.0475 119.88C75.1436 119.506 75.2387 119.131 75.3343 118.757C75.43 118.384 75.6056 117.705 75.7012 117.332C75.7057 117.31 75.7108 117.29 75.7157 117.267C76.8922 117.576 78.0792 117.834 79.2766 118.041C80.1355 118.191 80.9975 118.314 81.8627 118.408C81.8608 118.436 81.8592 118.466 81.8553 118.492C81.7899 119.169 81.6989 120.162 81.6341 120.841C81.5693 121.52 81.5046 122.196 81.4388 122.876C82.1426 122.928 82.8464 122.983 83.5504 123.041L85.6642 123.206C85.6795 122.614 85.6952 122.023 85.7112 121.433C85.7274 120.842 85.7484 120.168 85.7648 119.578C85.1604 119.566 84.5285 119.564 83.915 119.516C83.8906 119.924 83.8666 120.332 83.8431 120.741C84.1557 120.764 84.4695 120.789 84.7842 120.814C84.7684 121.176 84.7531 121.539 84.7385 121.903C84.2439 121.865 83.7498 121.827 83.2562 121.788C83.082 121.774 82.9073 121.76 82.7338 121.747C82.7468 121.566 82.7606 121.384 82.7752 121.202L82.8631 120.048C82.8926 119.663 82.9463 118.964 82.9764 118.581C82.9775 118.56 82.9783 118.538 82.9813 118.518C84.2487 118.624 85.5201 118.674 86.7953 118.669C87.6094 118.665 88.4233 118.637 89.237 118.585C89.2399 118.609 89.2421 118.634 89.2442 118.658C89.2954 119.335 89.3796 120.33 89.4322 121.008C89.4848 121.685 89.5406 122.365 89.5935 123.045C90.298 122.977 90.9993 122.91 91.7025 122.843C92.4058 122.776 93.109 122.705 93.812 122.638L93.5509 120.883C93.4637 120.298 93.3687 119.633 93.2819 119.049C92.684 119.141 92.0626 119.25 91.4489 119.307C91.4952 119.713 91.5431 120.118 91.59 120.526C91.9032 120.495 92.2169 120.465 92.5311 120.436C92.5786 120.795 92.6263 121.155 92.6742 121.516C92.1817 121.564 91.687 121.612 91.1938 121.658C91.0206 121.676 90.8456 121.692 90.6738 121.709C90.6557 121.528 90.6374 121.346 90.6201 121.166C90.5829 120.781 90.544 120.397 90.5073 120.013C90.4706 119.63 90.4029 118.931 90.3631 118.548C90.3621 118.532 90.3592 118.516 90.3568 118.498C91.6229 118.386 92.8842 118.215 94.1405 117.986C94.9408 117.841 95.7382 117.672 96.5327 117.481L96.5472 117.534C96.7162 118.194 96.9691 119.156 97.1421 119.817C97.315 120.478 97.4837 121.136 97.6534 121.795C98.3354 121.607 99.0161 121.418 99.6956 121.229C100.375 121.039 101.056 120.85 101.737 120.661C101.549 120.099 101.362 119.539 101.176 118.98C100.989 118.42 100.778 117.78 100.593 117.219C100.017 117.413 99.4266 117.627 98.8321 117.792C98.9495 118.184 99.0672 118.575 99.1844 118.97C99.4869 118.884 99.7906 118.8 100.095 118.716C100.204 119.062 100.314 119.41 100.424 119.757C99.9472 119.889 99.4686 120.021 98.9921 120.155C98.8229 120.199 98.6547 120.247 98.4858 120.292C98.4362 120.118 98.3863 119.943 98.336 119.768C98.234 119.397 98.128 119.024 98.0241 118.653C97.9202 118.282 97.733 117.606 97.6291 117.236C97.6262 117.224 97.6222 117.214 97.6193 117.203C98.8413 116.873 100.051 116.485 101.249 116.041L101.252 116.039C101.252 116.038 101.253 116.038 101.254 116.037C101.254 116.037 101.255 116.037 101.256 116.036C102.017 115.754 102.774 115.45 103.524 115.12C103.531 115.137 103.538 115.151 103.545 115.166C103.827 115.786 104.246 116.692 104.528 117.311C104.81 117.931 105.092 118.549 105.375 119.17C106.012 118.864 106.65 118.56 107.288 118.258C107.925 117.955 108.563 117.65 109.199 117.344C108.917 116.824 108.635 116.305 108.354 115.785C108.073 115.266 107.755 114.672 107.474 114.153C106.942 114.443 106.395 114.759 105.839 115.024C106.021 115.389 106.205 115.753 106.387 116.118C106.67 115.984 106.956 115.848 107.24 115.712C107.407 116.033 107.575 116.357 107.744 116.679C107.297 116.893 106.849 117.105 106.404 117.32C106.246 117.394 106.087 117.469 105.93 117.544C105.851 117.381 105.772 117.217 105.694 117.053C105.527 116.705 105.359 116.356 105.193 116.008C105.026 115.661 104.723 115.03 104.556 114.681C104.552 114.672 104.548 114.663 104.543 114.655C105.686 114.117 106.809 113.52 107.915 112.872L107.919 112.869C108.617 112.459 109.309 112.027 109.993 111.573C110.002 111.586 110.013 111.601 110.023 111.615C110.407 112.176 110.976 112.996 111.362 113.556C111.748 114.117 112.133 114.679 112.519 115.24C113.094 114.829 113.67 114.419 114.245 114.011C114.819 113.599 115.393 113.189 115.97 112.777C115.6 112.316 115.232 111.852 114.866 111.39C114.5 110.929 114.081 110.398 113.716 109.935C113.242 110.315 112.759 110.719 112.256 111.074C112.5 111.403 112.744 111.729 112.988 112.06C113.243 111.876 113.498 111.693 113.757 111.51C113.979 111.798 114.199 112.088 114.421 112.374C114.018 112.664 113.615 112.953 113.211 113.239C113.069 113.34 112.926 113.44 112.785 113.543C112.677 113.395 112.572 113.247 112.466 113.099C112.244 112.785 112.015 112.472 111.791 112.159C111.567 111.847 111.159 111.275 110.935 110.962C110.928 110.953 110.923 110.945 110.916 110.935C110.973 110.894 111.032 110.857 111.088 110.814C112.077 110.107 113.025 109.366 113.932 108.591C114.556 108.062 115.161 107.516 115.748 106.953C115.761 106.967 115.773 106.978 115.785 106.991C116.262 107.477 116.964 108.185 117.442 108.669C117.919 109.154 118.396 109.642 118.874 110.128C119.369 109.624 119.864 109.121 120.36 108.618C120.856 108.115 121.351 107.611 121.845 107.105C121.4 106.712 120.958 106.321 120.517 105.93C120.076 105.537 119.572 105.087 119.132 104.695C118.732 105.15 118.325 105.633 117.893 106.073C118.191 106.356 118.488 106.633 118.785 106.915C119.004 106.69 119.225 106.467 119.448 106.241C119.715 106.486 119.984 106.732 120.251 106.976L119.21 108.038C119.089 108.163 118.965 108.287 118.843 108.41C118.713 108.286 118.584 108.159 118.453 108.032C118.178 107.763 117.899 107.49 117.625 107.222C117.351 106.955 116.85 106.461 116.574 106.192C116.567 106.185 116.559 106.178 116.552 106.17C117.454 105.262 118.309 104.319 119.115 103.34C119.636 102.707 120.136 102.064 120.615 101.409C120.63 101.419 120.646 101.429 120.661 101.44C121.214 101.835 122.029 102.409 122.583 102.805C123.137 103.202 123.69 103.598 124.247 103.991C124.648 103.41 125.048 102.829 125.447 102.246L126.648 100.498C126.143 100.191 125.639 99.8819 125.135 99.5713C124.632 99.2627 124.06 98.9079 123.558 98.5989C123.243 99.1159 122.926 99.6605 122.576 100.168C122.917 100.393 123.258 100.618 123.6 100.844C123.779 100.583 123.957 100.325 124.135 100.065C124.443 100.259 124.75 100.455 125.055 100.649L124.221 101.889C124.12 102.033 124.022 102.176 123.922 102.321C123.771 102.218 123.622 102.118 123.472 102.015C123.154 101.796 122.836 101.578 122.518 101.36C122.201 101.143 121.622 100.745 121.302 100.53C121.293 100.522 121.283 100.515 121.273 100.509C121.976 99.4925 122.631 98.4509 123.238 97.3842C123.237 97.3816 123.24 97.379 123.241 97.3747C123.247 97.366 123.253 97.357 123.258 97.3476C123.261 97.3393 123.266 97.3314 123.271 97.3239C123.273 97.3187 123.277 97.3162 123.279 97.311C123.285 97.299 123.291 97.2866 123.299 97.2759C123.702 96.5646 124.083 95.8423 124.443 95.109C124.463 95.1198 124.483 95.1292 124.504 95.1372C125.119 95.4321 126.019 95.8572 126.633 96.1509C127.248 96.4447 127.863 96.7368 128.478 97.0306C128.77 96.3858 129.064 95.7428 129.358 95.1015L130.235 93.1733C129.685 92.9551 129.136 92.739 128.587 92.5249C128.038 92.3082 127.412 92.0559 126.863 91.838C126.643 92.4034 126.427 92.9951 126.172 93.5553C126.546 93.7181 126.921 93.8804 127.297 94.0421C127.425 93.7575 127.556 93.4708 127.688 93.182C128.023 93.3212 128.361 93.4608 128.696 93.5978C128.491 94.0486 128.285 94.5001 128.08 94.9524C128.006 95.1107 127.936 95.2692 127.863 95.4287C127.697 95.3552 127.531 95.2785 127.366 95.2033C127.015 95.0439 126.662 94.8853 126.311 94.7256C125.959 94.5658 125.32 94.2768 124.97 94.1196C124.955 94.1116 124.941 94.1065 124.925 94.0972C125.432 92.9885 125.89 91.8617 126.299 90.7166C126.593 89.8957 126.862 89.0673 127.107 88.2314C127.133 88.2394 127.159 88.2453 127.185 88.2527C127.842 88.4348 128.803 88.6967 129.457 88.8784C130.112 89.0601 130.771 89.2419 131.427 89.4256C131.605 88.7403 131.781 88.057 131.957 87.3757C132.132 86.6943 132.309 86.0094 132.487 85.3211C131.906 85.2041 131.327 85.0863 130.749 84.9676C130.172 84.8477 129.511 84.7097 128.932 84.5931C128.813 85.1869 128.703 85.8077 128.549 86.4034C128.948 86.4977 129.344 86.5927 129.742 86.687C129.82 86.3822 129.899 86.0775 129.98 85.7728C130.335 85.852 130.689 85.9314 131.045 86.0096C130.922 86.4904 130.796 86.9688 130.674 87.4494C130.628 87.6181 130.583 87.7875 130.543 87.9562C130.366 87.9121 130.189 87.8671 130.014 87.8205C129.641 87.7251 129.265 87.6313 128.892 87.5334C128.518 87.4356 127.84 87.2639 127.466 87.1668C127.445 87.1625 127.425 87.1571 127.404 87.1506C127.713 85.975 127.972 84.7874 128.181 83.5879C128.331 82.7295 128.453 81.8673 128.547 81.0014C128.575 81.0036 128.604 81.0041 128.629 81.0066C129.308 81.0767 130.298 81.1645 130.976 81.2309C131.654 81.2973 132.333 81.3597 133.011 81.4258C133.067 80.7201 133.12 80.0175 133.177 79.3129L133.343 77.1998C132.751 77.1846 132.16 77.1689 131.569 77.1528C130.979 77.137 130.306 77.1148 129.715 77.0973C129.704 77.7032 129.7 78.3351 129.654 78.9501L130.876 79.021C130.901 78.7087 130.928 78.3932 130.952 78.079C131.314 78.0948 131.677 78.1115 132.041 78.1263C132.001 78.6193 131.961 79.1142 131.925 79.6081C131.91 79.7821 131.897 79.9563 131.884 80.1305C131.701 80.1174 131.519 80.1033 131.341 80.0891L130.183 79.9998C129.8 79.9707 129.099 79.9152 128.714 79.8879C128.695 79.8865 128.675 79.8853 128.655 79.8826C128.76 78.6153 128.813 77.3419 128.806 76.0675C128.802 75.2528 128.773 74.4387 128.721 73.625C128.745 73.6233 128.769 73.621 128.792 73.6182C129.471 73.565 130.463 73.4828 131.141 73.4287C131.82 73.3746 132.5 73.3215 133.18 73.2686C133.112 72.5641 133.045 71.8628 132.977 71.1591C132.91 70.4555 132.84 69.753 132.772 69.05C132.186 69.1378 131.603 69.2242 131.018 69.3112C130.432 69.3982 129.767 69.4938 129.183 69.5797C129.276 70.1791 129.384 70.7994 129.442 71.4139C129.848 71.3672 130.253 71.3193 130.659 71.2737C130.629 70.9598 130.598 70.6464 130.568 70.3334C130.928 70.2856 131.289 70.2371 131.649 70.188C131.695 70.6827 131.743 71.1774 131.791 71.6699C131.809 71.8424 131.825 72.0173 131.843 72.1902C131.661 72.2083 131.48 72.2267 131.298 72.2448C130.916 72.2791 130.529 72.3197 130.146 72.3582C129.763 72.3966 129.066 72.4605 128.682 72.5006C128.665 72.5015 128.65 72.5041 128.631 72.5062C128.518 71.2411 128.348 69.9799 128.12 68.7224C127.975 67.9226 127.807 67.1255 127.616 66.331C127.632 66.3248 127.65 66.3219 127.669 66.3158C128.327 66.1475 129.29 65.8932 129.95 65.7213C130.61 65.5494 131.269 65.3804 131.928 65.2099C131.74 64.5279 131.552 63.8473 131.364 63.1681C131.175 62.4888 130.986 61.8082 130.795 61.1262C130.233 61.3144 129.673 61.5015 129.113 61.6875C128.552 61.8752 127.912 62.085 127.351 62.2702C127.546 62.8462 127.76 63.4389 127.927 64.0308C128.316 63.9131 128.709 63.7972 129.099 63.6808C129.015 63.3758 128.932 63.0744 128.848 62.7696C129.195 62.66 129.539 62.5509 129.887 62.4401C130.019 62.9189 130.152 63.3971 130.285 63.8746C130.331 64.0402 130.378 64.2105 130.426 64.3787C130.25 64.4293 130.076 64.4789 129.902 64.5284C129.529 64.6304 129.157 64.7357 128.786 64.84C128.415 64.9442 127.739 65.1326 127.366 65.237C127.357 65.2396 127.348 65.2422 127.337 65.2461C127.007 64.0239 126.618 62.8135 126.172 61.6149C126.172 61.6149 126.17 61.6113 126.169 61.6102C125.886 60.8479 125.584 60.0933 125.255 59.3427L125.297 59.3242C125.919 59.0407 126.821 58.6247 127.442 58.3419C128.063 58.0591 128.681 57.7771 129.3 57.4942C128.996 56.8561 128.693 56.2183 128.39 55.5807C128.088 54.9431 127.783 54.3057 127.476 53.6683L125.917 54.5141C125.397 54.7946 124.803 55.1119 124.285 55.3943C124.576 55.9256 124.889 56.4722 125.156 57.0287C125.52 56.8456 125.885 56.6628 126.25 56.4802C126.114 56.1969 125.98 55.9131 125.844 55.627C126.166 55.4609 126.488 55.291 126.81 55.1226C127.024 55.5691 127.237 56.0164 127.449 56.4646C127.526 56.6214 127.6 56.7803 127.674 56.9395C127.513 57.0174 127.347 57.0972 127.185 57.1746C126.837 57.3411 126.489 57.5097 126.139 57.6755C125.789 57.8413 125.161 58.1451 124.813 58.3112C124.805 58.3163 124.797 58.3208 124.788 58.3247C124.249 57.1808 123.654 56.0553 123.002 54.9482C122.592 54.2505 122.159 53.5598 121.703 52.8761C121.718 52.8655 121.731 52.8567 121.746 52.8462C122.307 52.4603 123.124 51.8931 123.686 51.5073C124.247 51.1214 124.808 50.7356 125.369 50.35C124.959 49.7736 124.55 49.2001 124.14 48.6237C123.731 48.0474 123.318 47.4748 122.908 46.8987C122.446 47.2678 121.983 47.6358 121.52 48.003C121.058 48.3703 120.527 48.7868 120.064 49.1541C120.444 49.6267 120.849 50.1094 121.206 50.6107L122.189 49.8808C122.008 49.6243 121.825 49.3696 121.643 49.1105C121.927 48.8912 122.218 48.6679 122.507 48.4471C122.795 48.8501 123.083 49.2535 123.37 49.6573C123.471 49.7994 123.572 49.9435 123.675 50.0839C123.527 50.1905 123.38 50.2962 123.232 50.4021C122.919 50.6254 122.605 50.8524 122.292 51.0767C121.979 51.301 121.408 51.7086 121.094 51.934L121.069 51.9516C121.029 51.8951 120.989 51.838 120.95 51.7826C120.243 50.7925 119.499 49.8443 118.725 48.9355C118.194 48.3109 117.648 47.7056 117.088 47.1196C117.102 47.1098 117.112 47.0955 117.124 47.0831C117.611 46.6069 118.316 45.905 118.803 45.4278C119.29 44.9506 119.773 44.4702 120.261 43.995C119.756 43.4984 119.254 43.0049 118.75 42.5095C118.246 42.0142 117.741 41.5204 117.237 41.0254C116.845 41.4677 116.454 41.9098 116.062 42.3518C115.669 42.7932 115.22 43.2957 114.829 43.7374C115.283 44.1385 115.766 44.5437 116.205 44.9753L117.048 44.0837C116.823 43.8642 116.6 43.6424 116.373 43.4224C116.618 43.1537 116.866 42.8853 117.11 42.6175C117.463 42.9639 117.817 43.3107 118.171 43.6581C118.296 43.7791 118.421 43.9034 118.544 44.0254L118.165 44.4152C117.896 44.6895 117.623 44.9687 117.355 45.2426C117.087 45.5165 116.595 46.0192 116.325 46.2967C116.318 46.3019 116.313 46.3107 116.306 46.3184C115.395 45.4151 114.451 44.5606 113.475 43.7536C112.844 43.2332 112.201 42.7331 111.545 42.2532L111.574 42.2076C111.971 41.6542 112.544 40.841 112.941 40.2862L114.127 38.6225C113.546 38.2214 112.964 37.8213 112.382 37.4219C111.798 37.0234 111.216 36.623 110.635 36.2215L109.707 37.7339C109.398 38.2368 109.041 38.8115 108.733 39.3123C109.251 39.6275 109.795 39.9434 110.304 40.2917L110.978 39.2685C110.718 39.0905 110.46 38.912 110.2 38.733C110.395 38.4268 110.59 38.1197 110.785 37.8119C111.193 38.0935 111.603 38.3731 112.01 38.6548L112.443 38.9505L112.136 39.4007C111.916 39.7198 111.698 40.0383 111.481 40.3555C111.264 40.6727 110.866 41.2516 110.649 41.5709C110.643 41.5808 110.636 41.5903 110.629 41.5994C109.613 40.8978 108.571 40.2428 107.503 39.6344C107.501 39.6334 107.499 39.632 107.497 39.6303C107.487 39.6255 107.478 39.6201 107.468 39.6142L107.433 39.5948C107.42 39.5874 107.408 39.5819 107.396 39.5749C107.396 39.5749 107.394 39.5723 107.393 39.5716C106.683 39.1697 105.962 38.7891 105.232 38.4297C105.24 38.4096 105.252 38.3888 105.259 38.3689C105.555 37.7539 105.979 36.8524 106.272 36.2381L107.152 34.3926C106.508 34.1008 105.865 33.8078 105.224 33.5139C104.582 33.2199 103.939 32.9275 103.295 32.6367C103.078 33.1873 102.861 33.7372 102.644 34.2866C102.427 34.8351 102.177 35.4612 101.959 36.0108C102.525 36.2298 103.115 36.4477 103.675 36.7028C103.837 36.3279 104 35.9525 104.163 35.5767C103.877 35.4456 103.59 35.3167 103.303 35.1855C103.442 34.8494 103.582 34.5126 103.718 34.1767C104.17 34.3824 104.621 34.5882 105.072 34.794C105.232 34.8651 105.39 34.9383 105.549 35.0102C105.474 35.1771 105.399 35.3428 105.324 35.5072C105.165 35.8587 105.006 36.2115 104.847 36.5631C104.687 36.9147 104.397 37.5521 104.239 37.9026C104.233 37.9177 104.226 37.9319 104.219 37.9469C103.111 37.4392 101.984 36.9812 100.839 36.5728C100.019 36.2783 99.191 36.0087 98.3553 35.764L98.3765 35.686C98.5579 35.0313 98.8197 34.0695 99.0014 33.4129C99.1832 32.7563 99.3654 32.1005 99.5472 31.444C98.8644 31.267 98.1811 31.0903 97.4973 30.9141L96.0317 30.5357L96.1192 29.4323C96.6626 29.5726 97.2085 29.7139 97.7517 29.8538C98.6229 30.0808 99.4945 30.3064 100.367 30.5306C100.542 30.5765 100.716 30.6215 100.894 30.6674C100.841 30.8417 100.789 31.0159 100.737 31.1897C100.545 31.8429 100.35 32.4977 100.156 33.1506C99.9624 33.8035 99.7687 34.457 99.5761 35.1108C100.069 35.2376 100.563 35.4093 101.034 35.5791C101.26 34.9939 101.51 34.3569 101.697 33.8567L102.512 31.6845L102.704 31.1718C102.867 31.2484 103.036 31.322 103.201 31.3973C104.019 31.7711 104.84 32.1438 105.658 32.5179L108.117 33.6368C108.282 33.7118 108.447 33.7872 108.612 33.8629C108.529 34.0261 108.449 34.1894 108.368 34.3507C108.064 34.961 107.759 35.5709 107.455 36.1804C107.153 36.7903 106.847 37.4006 106.544 38.0094C107.006 38.2205 107.464 38.4755 107.898 38.7236C108.222 38.1863 108.579 37.6035 108.851 37.1441L110.029 35.1456C110.123 34.9889 110.216 34.832 110.308 34.675C110.456 34.7788 110.607 34.8809 110.757 34.9832C111.499 35.493 112.241 36.0026 112.983 36.5122C113.725 37.0218 114.468 37.5316 115.212 38.0417C115.361 38.1446 115.51 38.2477 115.659 38.351C115.551 38.4959 115.443 38.6432 115.335 38.787C114.931 39.3363 114.524 39.8828 114.118 40.4314C113.713 40.9801 113.307 41.5269 112.902 42.0744C113.321 42.3631 113.728 42.6931 114.112 43.0131C114.525 42.5414 114.979 42.0269 115.325 41.6222C115.829 41.0334 116.331 40.4462 116.835 39.8582C116.953 39.7206 117.07 39.583 117.19 39.4441C117.32 39.5714 117.451 39.6986 117.581 39.8266C118.223 40.4569 118.864 41.0879 119.506 41.7197C120.148 42.3515 120.79 42.9824 121.435 43.6125C121.564 43.7405 121.694 43.8659 121.823 43.9941C121.691 44.1186 121.557 44.2442 121.428 44.3676L119.945 45.7748C119.451 46.2434 118.957 46.7122 118.462 47.1813C118.824 47.5394 119.166 47.9353 119.49 48.3158C119.98 47.9214 120.513 47.4963 120.926 47.1571C121.524 46.667 122.12 46.1745 122.718 45.6819L123.14 45.3353C123.244 45.4837 123.349 45.6325 123.456 45.7787C123.979 46.5123 124.502 47.2449 125.025 47.9765C125.548 48.708 126.072 49.4414 126.595 50.1767C126.698 50.3232 126.803 50.4724 126.912 50.6187C126.759 50.7188 126.606 50.82 126.455 50.9193C125.888 51.2957 125.319 51.6718 124.75 52.0476C124.18 52.4235 123.612 52.7997 123.045 53.1763C123.34 53.5897 123.61 54.0393 123.861 54.4734C124.409 54.1696 125.011 53.8419 125.476 53.58C126.15 53.2 126.823 52.8197 127.496 52.439L127.973 52.1699C128.052 52.334 128.131 52.4974 128.21 52.6612C128.595 53.473 128.985 54.287 129.371 55.0978C129.757 55.9085 130.147 56.7244 130.535 57.5366C130.613 57.7007 130.691 57.8649 130.771 58.028C130.603 58.1012 130.435 58.1733 130.267 58.2465C129.645 58.5199 129.017 58.7886 128.394 59.0598C127.771 59.3309 127.144 59.6043 126.519 59.8759C126.737 60.3352 126.923 60.8239 127.095 61.2934C127.688 61.09 128.336 60.8708 128.839 60.6939C129.568 60.4379 130.297 60.1785 131.026 59.9207C131.199 59.8608 131.37 59.8014 131.543 59.7398C131.593 59.9139 131.641 60.0889 131.689 60.2646L132.412 62.8661C132.652 63.7334 132.893 64.6036 133.133 65.4694L133.279 65.9943C133.103 66.0358 132.924 66.0795 132.748 66.1213C132.087 66.2804 131.422 66.4391 130.761 66.5983C130.101 66.7576 129.435 66.9161 128.772 67.0752C128.907 67.5638 129.007 68.0801 129.096 68.5717C129.715 68.4743 130.391 68.3723 130.919 68.2855C131.681 68.1591 132.444 68.0321 133.207 67.9046C133.387 67.8741 133.566 67.8453 133.747 67.8152C133.764 67.9955 133.781 68.175 133.799 68.3567C133.885 69.2524 133.972 70.1482 134.059 71.0441C134.146 71.94 134.233 72.8367 134.32 73.7342C134.337 73.9144 134.354 74.0939 134.37 74.2779C134.189 74.2861 134.007 74.2983 133.828 74.3084C133.145 74.3508 132.465 74.3911 131.785 74.432C131.104 74.4728 130.426 74.5151 129.745 74.5562C129.792 75.063 129.801 75.587 129.803 76.086C130.429 76.1004 131.112 76.1155 131.648 76.1232C132.42 76.1301 133.195 76.1351 133.966 76.145C134.15 76.146 134.331 76.1491 134.515 76.1502C134.499 76.3317 134.485 76.5108 134.471 76.6927C134.401 77.5896 134.331 78.4871 134.26 79.3852C134.189 80.2832 134.12 81.1787 134.054 82.0717C134.039 82.251 134.025 82.4326 134.01 82.6142C133.83 82.5919 133.648 82.5709 133.469 82.5508C132.791 82.4736 132.114 82.3967 131.437 82.32C130.761 82.2434 130.083 82.166 129.405 82.0879C129.365 82.5959 129.282 83.1139 129.197 83.6055C129.811 83.7278 130.485 83.8631 131.01 83.9605C131.771 84.1025 132.531 84.2433 133.29 84.383C133.47 84.4173 133.649 84.4517 133.829 84.4841C133.783 84.6602 133.738 84.8354 133.692 85.0118C133.466 85.884 133.241 86.7553 133.017 87.6258C132.79 88.4979 132.566 89.3718 132.342 90.2425C132.296 90.4172 132.249 90.5921 132.204 90.7699C132.03 90.7163 131.855 90.664 131.682 90.6144C131.028 90.4212 130.375 90.2267 129.721 90.0308C129.068 89.8399 128.414 89.6443 127.762 89.4503C127.634 89.9441 127.461 90.4388 127.293 90.9102C127.877 91.1357 128.514 91.3849 129.015 91.5726C129.738 91.8451 130.463 92.1172 131.188 92.389C131.359 92.4515 131.529 92.5147 131.7 92.5808C131.624 92.7439 131.549 92.911 131.474 93.0762C131.102 93.8947 130.727 94.7151 130.354 95.5344C129.981 96.3536 129.608 97.1728 129.235 97.9925C129.159 98.1556 129.084 98.3231 129.008 98.4875L128.522 98.2423C127.912 97.9386 127.302 97.6344 126.692 97.3298C126.082 97.0269 125.472 96.7218 124.862 96.4189C124.65 96.8815 124.396 97.3394 124.147 97.7741C124.685 98.0973 125.269 98.4537 125.729 98.7252C126.394 99.119 127.06 99.5121 127.726 99.9045L128.197 100.184C128.094 100.332 127.992 100.481 127.889 100.632C127.379 101.374 126.87 102.116 126.36 102.857C125.851 103.598 125.341 104.341 124.831 105.086C124.726 105.234 124.624 105.385 124.522 105.533C124.375 105.426 124.229 105.316 124.084 105.209C123.534 104.805 122.988 104.397 122.439 103.992C121.891 103.587 121.344 103.18 120.798 102.775C120.508 103.194 120.177 103.602 119.857 103.985C120.328 104.398 120.844 104.85 121.248 105.196C121.835 105.701 122.423 106.202 123.012 106.706C123.152 106.827 123.288 106.942 123.427 107.062L123.044 107.451L121.151 109.378C120.521 110.02 119.89 110.662 119.259 111.306C119.13 111.434 119.003 111.565 118.876 111.696C118.75 111.563 118.624 111.428 118.501 111.299C118.031 110.804 117.562 110.309 117.093 109.814C116.624 109.319 116.156 108.825 115.687 108.33C115.331 108.694 114.933 109.038 114.552 109.36C114.946 109.85 115.371 110.383 115.71 110.796C116.202 111.394 116.693 111.99 117.185 112.588C117.302 112.727 117.417 112.869 117.533 113.01C117.384 113.115 117.236 113.219 117.089 113.328C116.356 113.85 115.623 114.373 114.891 114.895C114.159 115.418 113.424 115.941 112.693 116.465C112.544 116.57 112.396 116.675 112.249 116.782C112.148 116.629 112.047 116.476 111.949 116.325C111.572 115.757 111.196 115.189 110.821 114.621C110.446 114.052 110.07 113.484 109.693 112.915C109.277 113.208 108.83 113.48 108.396 113.731C108.698 114.28 109.026 114.881 109.288 115.346C109.668 116.019 110.048 116.693 110.429 117.367C110.519 117.526 110.607 117.684 110.699 117.844L110.207 118.081C109.394 118.468 108.582 118.856 107.77 119.245C106.958 119.633 106.145 120.021 105.331 120.408L104.839 120.643C104.766 120.475 104.693 120.307 104.623 120.143C104.35 119.518 104.08 118.892 103.808 118.267C103.536 117.642 103.264 117.018 102.992 116.392C102.533 116.611 102.043 116.799 101.573 116.97C101.776 117.563 101.994 118.209 102.171 118.712C102.427 119.442 102.686 120.171 102.944 120.9C103.005 121.072 103.066 121.244 103.126 121.416C102.952 121.464 102.776 121.511 102.601 121.562C101.735 121.803 100.867 122.043 99.999 122.284C99.1308 122.524 98.2632 122.766 97.3964 123.008L96.8713 123.153C96.829 122.974 96.7879 122.798 96.7453 122.622C96.585 121.959 96.4277 121.296 96.2676 120.632C96.1074 119.968 95.9494 119.308 95.7914 118.645C95.3009 118.781 94.7865 118.88 94.2946 118.969C94.3915 119.588 94.4939 120.264 94.5799 120.79C94.7065 121.554 94.8336 122.317 94.9613 123.08C94.9914 123.26 95.0215 123.441 95.0506 123.62C94.8704 123.637 94.6909 123.654 94.5088 123.673C93.6145 123.76 92.7188 123.847 91.8218 123.934C90.9248 124.021 90.0293 124.106 89.1353 124.19C88.9547 124.208 88.7742 124.225 88.5939 124.242C88.5828 124.059 88.5711 123.875 88.561 123.698C88.5201 123.017 88.4793 122.336 88.4384 121.655C88.3976 120.975 88.3559 120.294 88.3134 119.615C87.8081 119.665 87.2831 119.672 86.7829 119.673C86.7719 120.301 86.7552 120.985 86.7497 121.519C86.7407 122.291 86.733 123.064 86.7268 123.838C86.7246 124.02 86.7233 124.203 86.7215 124.386C86.5401 124.369 86.3592 124.357 86.1773 124.341C85.2819 124.272 84.3846 124.202 83.4855 124.131C82.5863 124.06 81.6885 123.99 80.7919 123.92L80.2501 123.878C80.2701 123.696 80.292 123.514 80.3124 123.335C80.3884 122.658 80.4656 121.981 80.5439 121.303C80.6194 120.626 80.6983 119.951 80.7757 119.273C80.2695 119.233 79.7515 119.15 79.2581 119.064C79.138 119.681 79.0023 120.354 78.9035 120.879C78.7631 121.639 78.6224 122.399 78.4812 123.159C78.4488 123.339 78.4134 123.517 78.3806 123.697C78.206 123.652 78.0297 123.606 77.8539 123.56C76.9817 123.334 76.1103 123.109 75.2397 122.884C74.3686 122.66 73.4957 122.432 72.6254 122.209C72.4494 122.163 72.2744 122.116 72.0977 122.072C72.1506 121.897 72.2036 121.723 72.2543 121.55C72.447 120.895 72.6408 120.241 72.8357 119.588C73.0306 118.936 73.2242 118.283 73.4165 117.629C72.9232 117.5 72.4277 117.329 71.957 117.16C71.7318 117.744 71.4813 118.382 71.2947 118.881C71.0222 119.605 70.7506 120.329 70.4796 121.054C70.4158 121.226 70.3519 121.396 70.2869 121.566C70.1224 121.492 69.9574 121.416 69.7917 121.341C68.9732 120.967 68.1537 120.594 67.3332 120.221C66.5127 119.849 65.6932 119.476 64.8747 119.102C64.7118 119.026 64.5464 118.953 64.38 118.877C64.4626 118.715 64.5441 118.551 64.6245 118.389L65.5371 116.559C65.8393 115.95 66.1434 115.341 66.4494 114.73C65.9875 114.52 65.5288 114.264 65.0938 114.016C64.7699 114.552 64.4139 115.136 64.1428 115.595C63.7493 116.261 63.3571 116.929 62.9634 117.595C62.8701 117.751 62.7781 117.909 62.685 118.065C62.5357 117.963 62.3861 117.86 62.2354 117.756C61.4936 117.248 60.75 116.737 60.0085 116.229C59.2669 115.721 58.5228 115.21 57.7795 114.699C57.6311 114.597 57.4815 114.494 57.3307 114.392C57.4404 114.245 57.5496 114.099 57.6567 113.953C58.0621 113.406 58.4676 112.858 58.8733 112.31C59.279 111.761 59.6844 111.214 60.0896 110.667C59.6708 110.379 59.2626 110.047 58.879 109.727C58.4687 110.199 58.0158 110.713 57.6667 111.119C57.1637 111.707 56.6612 112.294 56.1589 112.883C56.0407 113.021 55.9221 113.159 55.8032 113.298C55.6732 113.17 55.5432 113.042 55.4136 112.914C54.7724 112.285 54.1302 111.654 53.487 111.022C52.8439 110.391 52.2013 109.759 51.5595 109.129C51.4295 109.001 51.3009 108.876 51.1694 108.746C51.3018 108.622 51.4337 108.498 51.5653 108.374C52.0569 107.904 52.5547 107.434 53.0488 106.965C53.543 106.495 54.0372 106.027 54.5313 105.558C54.1707 105.202 53.825 104.804 53.503 104.424C53.0129 104.818 52.4804 105.244 52.0681 105.582C51.4696 106.073 50.872 106.564 50.2755 107.056C50.1354 107.173 49.994 107.288 49.8529 107.404C49.7496 107.258 49.6445 107.108 49.5364 106.96C49.0135 106.229 48.4907 105.496 47.9681 104.763C47.4456 104.029 46.9223 103.296 46.3982 102.564C46.295 102.417 46.1899 102.268 46.0823 102.12C46.2354 102.021 46.3873 101.92 46.5382 101.82C47.1065 101.444 47.6748 101.068 48.2432 100.692L49.9479 99.5638C49.6549 99.1478 49.3842 98.6998 49.1308 98.2675C48.5825 98.5704 47.9841 98.897 47.5174 99.1599C46.8431 99.5399 46.1693 99.9205 45.496 100.302L45.0201 100.57C44.9418 100.406 44.8635 100.241 44.7837 100.078C44.3946 99.2665 44.0067 98.4543 43.62 97.6418C43.2334 96.8292 42.8454 96.0164 42.4561 95.2032C42.3782 95.0388 42.2998 94.8747 42.2197 94.7118L42.7196 94.4961C43.3435 94.2212 43.9713 93.9528 44.5956 93.6808C45.2199 93.4089 45.8453 93.1377 46.4701 92.8649C46.2511 92.4062 46.0634 91.9139 45.8899 91.445C45.2979 91.6476 44.6506 91.8651 44.1472 92.0432C43.4179 92.301 42.6886 92.5588 41.9593 92.8166L41.4431 92.9983C41.3952 92.8236 41.3463 92.6492 41.2985 92.4739C41.0571 91.6066 40.8163 90.7389 40.5758 89.8709C40.3354 89.0029 40.0943 88.1352 39.8525 87.2678L39.7069 86.7427C39.8849 86.7012 40.0599 86.6585 40.2375 86.6173C40.9004 86.4569 41.564 86.2992 42.2253 86.1404C42.8865 85.9817 43.5509 85.8219 44.2137 85.6631C44.0788 85.1726 43.9793 84.6577 43.8895 84.166C43.2712 84.2627 42.5942 84.3657 42.0673 84.4528C41.3047 84.5787 40.5418 84.7058 39.7786 84.834C39.5996 84.8631 39.4199 84.8937 39.2385 84.9234C39.2212 84.7431 39.2044 84.5636 39.1858 84.3815L38.9265 81.6939L38.6662 79.0048C38.6488 78.8244 38.6311 78.6435 38.613 78.4622C38.7957 78.453 38.9771 78.442 39.1576 78.4305C39.8391 78.3892 40.5199 78.3482 41.2001 78.3077C41.8803 78.2672 42.5605 78.2254 43.2408 78.1824C43.1916 77.6758 43.1841 77.1515 43.1807 76.6516C42.5545 76.6399 41.8716 76.6231 41.3365 76.6184C40.5632 76.6104 39.7901 76.6025 39.017 76.5947L38.4696 76.5905C38.4847 76.4088 38.4996 76.2283 38.5133 76.047C38.5834 75.1497 38.6538 74.2522 38.7246 73.3548L38.935 70.6614C38.9497 70.48 38.9637 70.2997 38.9771 70.118C39.1581 70.1413 39.3395 70.1599 39.5198 70.1816C40.1971 70.2574 40.8744 70.3347 41.5515 70.4133C42.2285 70.4886 42.9054 70.5677 43.5832 70.6441C43.6233 70.1367 43.7057 69.6186 43.7914 69.1268C43.1763 69.0063 42.5063 68.8701 41.9811 68.7729C41.2229 68.6305 40.4627 68.4897 39.7006 68.3507C39.5218 68.3171 39.3433 68.2832 39.1638 68.2502C39.2096 68.0748 39.2543 67.8985 39.2996 67.723C39.5263 66.8513 39.7518 65.9797 39.976 65.1082L40.6521 62.4937C40.6975 62.3176 40.7427 62.142 40.7887 61.966C40.9629 62.0188 41.1366 62.0708 41.3113 62.1226C41.9656 62.3152 42.6191 62.5089 43.2716 62.7036C43.9241 62.8982 44.5774 63.0914 45.2315 63.2831C45.3596 62.791 45.5302 62.2953 45.6998 61.8254C45.1151 61.5986 44.4784 61.3507 43.9787 61.1637C43.2543 60.8911 42.5288 60.6208 41.8057 60.3477C41.635 60.2843 41.4649 60.2204 41.2935 60.1569C41.3694 59.9938 41.444 59.8256 41.5196 59.6605C41.8929 58.8412 42.2661 58.0219 42.6392 57.2024L43.7582 54.7435C43.8338 54.5807 43.9089 54.4126 43.9847 54.2485C44.1471 54.3304 44.31 54.4114 44.4715 54.4928C45.0822 54.7962 45.6924 55.1022 46.3016 55.405C46.9108 55.7079 47.5208 56.0134 48.1311 56.3171C48.342 55.8544 48.597 55.3968 48.8458 54.9623C48.3089 54.6392 47.7242 54.2823 47.2656 54.011C46.5994 53.6173 45.9328 53.2242 45.2659 52.8317C45.1101 52.7397 44.9533 52.6467 44.7954 52.5529C44.8986 52.4051 45.0012 52.255 45.1037 52.1055L46.6317 49.8777L48.1605 47.6495C48.2643 47.5002 48.3668 47.3507 48.4694 47.2006C48.6159 47.3106 48.7611 47.4178 48.9073 47.5265C49.4564 47.9309 50.0032 48.3374 50.5513 48.7436C51.0995 49.1497 51.6457 49.554 52.195 49.9593C52.4809 49.5386 52.8133 49.1324 53.1341 48.7496C52.6622 48.338 52.148 47.8859 51.7417 47.5372C51.1548 47.0339 50.5669 46.5307 49.9782 46.0276C49.8399 45.9101 49.7017 45.7918 49.5637 45.6726C49.6899 45.5442 49.8171 45.4151 49.9444 45.2844L51.8371 43.358L53.7297 41.4299C53.8585 41.3014 53.9857 41.1706 54.1132 41.0403C54.2381 41.1716 54.3626 41.3032 54.4886 41.4371C54.9582 41.9309 55.4274 42.4252 55.8962 42.92C56.3649 43.4148 56.834 43.909 57.3034 44.4026C57.66 44.0417 58.056 43.6971 58.4367 43.3751C58.0431 42.8848 57.6171 42.3531 57.278 41.9395C56.7867 41.3422 56.2952 40.745 55.8034 40.148C55.6888 40.0094 55.5721 39.8663 55.456 39.7249L55.8991 39.409L58.0972 37.8398L60.2967 36.2703L60.7387 35.9545C60.8388 36.1066 60.9384 36.259 61.0393 36.41C61.4154 36.979 61.7934 37.5467 62.1679 38.1158C62.5424 38.6848 62.9198 39.2518 63.2968 39.8197C63.7112 39.5245 64.1608 39.256 64.5924 39.0024C64.2891 38.4551 63.9637 37.8553 63.6993 37.3896C63.3199 36.716 62.9399 36.0423 62.5595 35.3683C62.4695 35.2094 62.38 35.0506 62.2909 34.8919L62.7822 34.6555C63.5924 34.2675 64.4045 33.8803 65.2185 33.4937C66.0305 33.106 66.8447 32.7161 67.6566 32.329C67.8207 32.2507 67.9848 32.1724 68.1479 32.0926C68.22 32.2611 68.2932 32.4289 68.3635 32.5948C68.638 33.2179 68.9073 33.844 69.1801 34.4694C69.4528 35.0947 69.7222 35.7192 69.9938 36.3438C70.4533 36.1259 70.9427 35.938 71.4116 35.7661C71.2115 35.1707 70.9918 34.5234 70.8132 34.0208C70.557 33.2912 70.2974 32.5622 70.04 31.8333C69.9791 31.6619 69.9178 31.4901 69.8578 31.317L70.3828 31.1719L72.9848 30.4494C73.8519 30.2092 74.7197 29.9683 75.5882 29.7264L76.1134 29.5808C76.1534 29.7598 76.1983 29.9349 76.2373 30.1125C76.3992 30.7743 76.5569 31.4379 76.7154 32.1004C76.8739 32.7629 77.0338 33.425 77.193 34.0876C77.6833 33.9517 78.1979 33.8524 78.6902 33.7644C78.5934 33.1445 78.4905 32.4691 78.4038 31.9419C78.2772 31.179 78.1504 30.4158 78.0234 29.6521C77.9926 29.4737 77.9631 29.2933 77.9329 29.1127C78.1132 29.0954 78.2927 29.0786 78.4744 29.0603L81.1621 28.801L83.8524 28.541L84.3932 28.489C84.4052 28.6703 84.4148 28.8537 84.4269 29.0327C84.4683 29.7142 84.5092 30.395 84.5497 31.0752C84.5928 31.7544 84.6314 32.4366 84.6742 33.1154C85.1816 33.0667 85.7055 33.0578 86.2051 33.0563C86.2161 32.4306 86.2339 31.7459 86.2398 31.2127C86.2478 30.4394 86.2559 29.6662 86.2639 28.893C86.2643 28.7106 86.2646 28.5289 86.2674 28.346C86.4489 28.3602 86.6305 28.3743 86.8103 28.3891C87.7077 28.4591 88.6056 28.5292 89.504 28.5993L91.3427 28.7445L90.8818 29.7917C90.3395 29.7488 89.979 29.7297 89.437 29.6865C88.7303 29.6328 88.0254 29.5779 87.3225 29.5218C87.3071 30.1142 87.2915 30.7053 87.2759 31.2949C87.2603 31.8854 87.2378 32.5586 87.222 33.1488C87.8268 33.1613 88.4581 33.164 89.0721 33.2113C89.0968 32.8035 89.1197 32.3954 89.1451 31.9871C88.8303 31.9643 88.5163 31.9366 88.2028 31.9134C88.2181 31.5506 88.2345 31.1871 88.2493 30.8236L89.7303 30.9411L90.2521 30.9815C90.2396 31.163 90.227 31.3435 90.2126 31.5247C90.1815 31.9102 90.1528 32.296 90.1259 32.679C90.0991 33.062 90.0408 33.7615 90.0113 34.1469C90.0096 34.1679 90.0094 34.1894 90.0067 34.2121C88.74 34.1054 87.4683 34.055 86.1917 34.0609C86.1917 34.0609 86.1917 34.0609 86.1929 34.0573C85.3793 34.0635 84.5658 34.0924 83.7523 34.1441C83.7495 34.1198 83.746 34.0938 83.7443 34.0697C83.6919 33.3912 83.6082 32.3975 83.556 31.7187C83.5039 31.0399 83.4478 30.3617 83.3947 29.6814C82.6907 29.7507 81.9892 29.8172 81.2858 29.885L79.1761 30.0891C79.2634 30.6746 79.3491 31.2602 79.4381 31.8428C79.5272 32.4253 79.6199 33.0948 79.7059 33.6784C80.3042 33.586 80.9255 33.4772 81.5387 33.4198C81.4919 33.0141 81.4452 32.6084 81.3985 32.2027L80.46 32.2941C80.4118 31.9344 80.3664 31.5727 80.3182 31.2124L81.7973 31.0697C81.9704 31.0531 82.1442 31.0376 82.3187 31.0199C82.3368 31.2013 82.3544 31.3819 82.3727 31.5636C82.4104 31.9456 82.4492 32.3322 82.4859 32.7159C82.5226 33.0996 82.59 33.7939 82.6291 34.1809C82.6314 34.1974 82.634 34.2136 82.6347 34.2318C81.3694 34.3434 80.1083 34.5138 78.8515 34.743C78.0521 34.8868 77.2554 35.0556 76.4613 35.2494C76.457 35.23 76.4507 35.2103 76.4453 35.1916C76.2756 34.532 76.0234 33.5698 75.8522 32.908C75.681 32.2462 75.5109 31.5907 75.3381 30.9328C74.6564 31.1206 73.9756 31.3093 73.2959 31.499C72.6162 31.6886 71.9352 31.8777 71.2529 32.0662C71.4417 32.6285 71.6284 33.1878 71.8157 33.7478C72.0029 34.3079 72.2118 34.9492 72.4007 35.5086C72.9735 35.3146 73.5665 35.1009 74.1594 34.9354C74.0431 34.543 73.9252 34.153 73.809 33.76C73.5066 33.8452 73.2033 33.9284 72.8986 34.0125C72.7894 33.6666 72.6793 33.3204 72.5685 32.9741C73.0457 32.8405 73.5234 32.7074 74.0017 32.5748C74.1704 32.5279 74.3392 32.4819 74.5065 32.4353L74.6527 32.9612C74.7567 33.3315 74.8625 33.7043 74.9657 34.0758C75.0689 34.4472 75.257 35.1229 75.3628 35.4957C75.3667 35.5067 75.3694 35.5191 75.3724 35.5312C74.1492 35.862 72.9373 36.2506 71.7365 36.6969C70.9743 36.9801 70.2189 37.2854 69.4703 37.6127C69.4633 37.5974 69.4543 37.5823 69.4476 37.5673C69.1662 36.9475 68.7487 36.0419 68.4653 35.4224C68.1819 34.8029 67.9008 34.1835 67.6191 33.5633C66.9801 33.8672 66.3421 34.1704 65.7053 34.4727C65.0684 34.7751 64.4304 35.08 63.7912 35.3873C64.0751 35.9072 64.3557 36.4278 64.6388 36.9456C64.9218 37.4633 65.2366 38.0597 65.5184 38.5788C66.0503 38.287 66.5951 37.9739 67.1523 37.7071C66.9686 37.3426 66.7862 36.9777 66.6048 36.6123C66.3206 36.7489 66.0364 36.8844 65.7523 37.0187C65.5847 36.6982 65.4162 36.376 65.247 36.0522L66.5891 35.4122L67.0625 35.1884C67.1434 35.3508 67.2214 35.5152 67.299 35.6798C67.4652 36.0271 67.633 36.3766 67.7989 36.7235L68.4358 38.0519C68.441 38.0592 68.445 38.0696 68.4489 38.0783C67.3057 38.616 66.1786 39.2142 65.0739 39.8635C64.3721 40.2674 63.682 40.6997 63.0009 41.1548L62.9999 41.155ZM58.739 34.1967L59.1651 33.9049L59.8568 34.9133C59.7101 35.0079 59.5671 35.1037 59.4224 35.198L58.739 34.1967Z" fill="#82231E"/>
<path d="M83 19.0083L20.75 35.4699L20.75 2.54662L83 19.0083Z" fill="url(#paint0_linear_269_1907)"/>
<path fill-rule="evenodd" clip-rule="evenodd" d="M64.5561 34.7456L64.2136 34.8841L64.2136 26.6788L64.2138 26.6692C64.2323 25.5548 65.2942 24.6558 66.6043 24.6457C66.612 24.6456 66.6197 24.6456 66.6242 24.6456C67.0607 24.6456 67.4715 24.745 67.8258 24.9192L69.3091 24.2297C69.3727 23.1446 70.4279 22.2806 71.719 22.2806C72.0899 22.2806 72.4414 22.352 72.7555 22.4794V17.7279L82.2669 8.31792V6.70556C82.2669 5.1023 83.7959 3.80151 85.6803 3.80151C87.5649 3.80151 89.0938 5.1023 89.0938 6.70556V8.20856L98.7532 17.7291V22.4245C99.0282 22.3316 99.328 22.2806 99.6418 22.2806C99.6483 22.2806 99.6548 22.2806 99.6613 22.2807C100.985 22.2897 102.055 23.2063 102.055 24.3335V24.4065L103.346 25.0072C103.738 24.7731 104.215 24.6357 104.73 24.6357C106.062 24.6357 107.143 25.5553 107.143 26.6885L107.143 34.8762L106.808 34.7407L106.808 35.4531L100.929 40.2766L101.018 40.9513L101.457 44.2217L101.72 45.9975L101.725 45.9989L101.767 46.3137L101.882 47.0888L101.87 47.0895L102.237 49.8339L102.217 49.8355L102.582 52.5615L102.581 52.5616L102.801 54.1743L102.802 54.1743L102.822 54.3243L102.955 55.3001L102.953 55.3004L103.317 58.0191L103.315 58.0194L103.535 59.6465L103.538 59.6469L103.916 62.5012L104.422 66.2319L104.416 66.2331L104.479 66.6986C105.249 67.0339 107.813 68.9403 108.588 69.2664L106.681 70.0985C106.221 70.1605 105.42 70.3692 104.959 70.427L105.315 71.681L105.143 71.7234L105.512 74.4655L105.51 74.466L105.727 76.0707L105.729 76.0706L106.093 78.8067L106.094 78.8066L106.614 82.6952L106.613 82.6953L106.982 85.4437L106.981 85.4442L107.351 88.1882L107.348 88.1893L107.562 89.7678L107.564 89.7676L107.652 90.4289L107.72 90.9306L107.719 90.931L107.929 92.5044L107.929 92.5044L108.455 96.4266L108.454 96.427L108.824 99.1748L108.821 99.1757L109.032 100.731L109.034 100.73L109.401 103.474L109.405 103.474L109.764 106.213L109.767 106.212L110.298 110.168L105.04 112.337L99.6804 113.988L99.6471 113.602L84.3096 115L71.1232 113.818L61 110.691L61.2523 108.777L61.2513 108.776L61.2871 108.513L61.4896 106.976L61.4954 106.978L61.7315 105.238L61.9827 103.319L61.9789 103.318L62.0662 102.681L62.2174 101.526L62.2241 101.529L62.3521 100.595L62.3501 100.594L62.7171 97.8668L62.7142 97.8663L63.2678 93.7622L63.6809 90.6435L63.6842 90.6448L64.0386 87.982L64.0403 87.9826L64.4031 85.2558L64.4049 85.2563L64.7689 82.5339L64.7728 82.5352L64.9083 81.5218L64.9072 81.5217L65.2724 78.8031L65.2713 78.803L65.6354 76.0862L65.6343 76.0861L66.2264 71.678L66.2278 71.6784L66.3932 70.4209C65.9467 70.3646 65.5005 70.3063 65.0547 70.2461L62.3618 69.2665C63.1295 68.9437 66.131 67.0395 66.8934 66.7078L67.3169 63.4952L67.3231 63.4968L67.4265 62.7276L67.4259 62.7277L67.7989 59.9439L67.7983 59.9439L68.4257 55.2617L68.4283 55.2624L68.5258 54.5177L68.5214 54.5181L68.6362 53.6751L68.7749 52.6152L68.7803 52.6165L68.8865 51.8362L68.881 51.8368L69.3971 48.037L69.8753 44.4439L69.8778 44.4444L69.9795 43.6769L69.9792 43.6769L69.9918 43.5838L70.196 42.0417H70.1998L70.4364 40.2872L64.5562 35.4631V34.7457L64.5561 34.7456Z" fill="black"/>
<path d="M65.3883 89.9026L65.2014 91.3071L71.9446 92.3637L65.5246 89.949L65.3883 89.9026Z" fill="#FF9D00"/>
<path d="M65.7543 87.1667L65.5675 88.5712L72.19 89.5449L65.8828 87.2098L65.7543 87.1667Z" fill="#FF9D00"/>
<path d="M65.0223 92.6353L64.8354 94.0463L71.7033 95.1857L65.1625 92.6883L65.0223 92.6353Z" fill="#FF9D00"/>
<path d="M66.8562 78.9655L66.6693 80.3566L72.9181 81.0853L66.9613 78.9986L66.8562 78.9655Z" fill="#FF9D00"/>
<path d="M67.5881 73.4937L67.4012 74.8848L73.4086 75.4445L67.6816 73.5201L67.5881 73.4937Z" fill="#FF9D00"/>
<path d="M67.2221 76.2263L67.0352 77.6208L73.1633 78.2667L67.3194 76.2561L67.2221 76.2263Z" fill="#FF9D00"/>
<path d="M63.5545 103.572L63.3677 105L70.7299 106.464L63.7259 103.642L63.5545 103.572Z" fill="#FF9D00"/>
<path d="M66.1204 84.4341L65.9335 85.8319L72.4353 86.7229L66.241 84.4738L66.1204 84.4341Z" fill="#FF9D00"/>
<path d="M66.4902 81.6981L66.3033 83.0959L72.6767 83.9041L66.6031 81.7346L66.4902 81.6981Z" fill="#FF9D00"/>
<path d="M64.6564 95.3712L64.4656 96.7855L71.4619 98.0044L64.8043 95.4275L64.6564 95.3712Z" fill="#FF9D00"/>
<path d="M63.1925 106.305L62.9978 107.739L70.4886 109.283L63.3677 106.378L63.1925 106.305Z" fill="#FF9D00"/>
<path d="M63.9244 100.84L63.7297 102.261L70.9713 103.642L64.084 100.903L63.9244 100.84Z" fill="#FF9D00"/>
<path d="M67.954 70.7577L67.771 72.1488L73.65 72.6258L68.0397 70.7809L67.954 70.7577Z" fill="#FF9D00"/>
<path d="M64.2904 98.1069L64.0996 99.5246L71.2166 100.823L64.4461 98.1633L64.2904 98.1069Z" fill="#FF9D00"/>
<path d="M71.6216 43.3983L71.4347 44.8094L71.5515 44.7928L76.0833 44.4284L71.6333 43.3983H71.6216Z" fill="#FF9D00"/>
<path d="M70.8896 48.8701L70.6989 50.2745L70.7923 50.2645L75.5966 50.0691L70.9129 48.8767L70.8896 48.8701Z" fill="#FF9D00"/>
<path d="M71.9915 40.6626L71.8007 42.0769L71.933 42.0604L76.3286 41.6099L71.9915 40.6626Z" fill="#FF9D00"/>
<path d="M62.8227 109.041L62.7253 109.78L70.2433 112.101L63.0057 109.117L62.8227 109.041Z" fill="#FF9D00"/>
<path d="M71.2556 46.1343L71.0687 47.5387L71.1738 47.5287L75.842 47.2505L71.2712 46.1376L71.2556 46.1343Z" fill="#FF9D00"/>
<path d="M69.0559 62.5499L68.869 63.9411H68.8963L74.3819 64.1696L69.1182 62.5665L69.0559 62.5499Z" fill="#FF9D00"/>
<path d="M70.5237 51.6061L70.3329 53.0072L70.4147 53.0005L75.3553 52.8879L70.5548 51.6127L70.5237 51.6061Z" fill="#FF9D00"/>
<path d="M68.686 65.2859L68.5031 66.6737H68.5147L74.1367 66.9884L68.76 65.3058L68.686 65.2859Z" fill="#FF9D00"/>
<path d="M70.1538 54.3422L69.9708 55.7399L70.0331 55.7333L75.11 55.7068L70.1966 54.3521L70.1538 54.3422Z" fill="#FF9D00"/>
<path d="M69.4219 59.8141L69.235 61.2086L69.2739 61.2052L74.6233 61.3477L69.4764 59.8273L69.4219 59.8141Z" fill="#FF9D00"/>
<path d="M69.7878 57.0781L69.601 58.4726L69.6554 58.4693L74.8647 58.5289L69.8345 57.0914L69.7878 57.0781Z" fill="#FF9D00"/>
<path d="M101.721 109.23L108.211 106.61L108.016 105.126L101.495 106.358L107.845 103.847L107.646 102.36L101.265 103.483L107.475 101.091L107.273 99.5975L101.039 100.611L107.105 98.3356L106.903 96.8318L100.814 97.736L106.735 95.5764L106.533 94.066L100.584 94.8676L106.366 92.8206L106.163 91.3036L100.358 91.9925L105.996 90.0582L105.789 88.5379L100.132 89.1208L105.626 87.3024L105.419 85.7722L99.9026 86.2458L105.256 84.5433L105.05 83.0064L99.6768 83.3741L104.886 81.7809L104.68 80.2373L99.451 80.5023L104.516 79.0217L104.31 77.4716L99.2252 77.6273L104.146 76.2593L103.936 74.7026L98.9955 74.7556L103.776 73.5002L103.566 71.9368L98.7697 71.8805L103.407 70.7378L97.6328 71.6917L101.117 112.101L104.419 111.084L108.585 109.365L108.386 107.885L101.721 109.23Z" fill="#FF9D00"/>
<path d="M91.7189 16.2445H79.7898V22.6405H91.7189V16.2445Z" fill="#FF9D00"/>
<path d="M94.4481 22.6405H97.1579V16.8274L94.4481 16.2445V22.6405Z" fill="#FF9D00"/>
<path d="M74.3507 16.8274V22.6405H77.0566V16.2445L74.3507 16.8274Z" fill="#FF9D00"/>
<path d="M90.8689 14.2739L94.4362 15.5193L88.4135 9.51086L90.8689 14.2739Z" fill="#FF9D00"/>
<path d="M80.6358 14.2739L83.0913 9.51086L77.0686 15.5193L80.6358 14.2739Z" fill="#FF9D00"/>
<path d="M87.4985 6.70515C87.4985 5.85099 86.6843 5.15833 85.6803 5.15833C84.6764 5.15833 83.8622 5.85099 83.8622 6.70515V8.3613L87.4985 8.36127V6.70515H87.4985Z" fill="#FF9D00"/>
<path d="M91.5359 89.144H89.9124V81.8736C89.9124 79.5782 88.0202 77.7167 85.6804 77.7167C83.3405 77.7167 81.4522 79.5782 81.4483 81.8736V89.144H79.8248V90.1807L91.5359 90.1808V89.144V89.144ZM88.8495 89.144H82.5073V81.8736C82.5073 80.1545 83.9283 78.7567 85.6803 78.7567C87.4323 78.7567 88.8534 80.1545 88.8573 81.8736L88.8495 89.144Z" fill="#FF9D00"/>
<path d="M93.1945 89.608V90.3897L97.5784 90.2936L97.4733 89.0681L93.1945 89.608Z" fill="#FF9D00"/>
<path d="M97.2279 86.2458L91.567 86.9513V87.574L97.3369 87.4713L97.2279 86.2458Z" fill="#FF9D00"/>
<path d="M98.5555 101.588L98.4465 100.346L85.6842 102.029L98.5555 101.588Z" fill="#FF9D00"/>
<path d="M96.5972 78.9985L96.4921 77.7863L89.4413 78.6242C89.6297 78.7531 89.8107 78.8934 89.9784 79.0414L96.5972 78.9985V78.9985Z" fill="#FF9D00"/>
<path d="M96.8464 81.8239L96.7452 80.6083L91.3724 81.2707C91.4315 81.4763 91.4784 81.6864 91.5084 81.8966L96.8464 81.8239V81.8239Z" fill="#FF9D00"/>
<path d="M97.0917 84.6462L96.9865 83.4272L91.567 84.093V84.7257L97.0917 84.6462Z" fill="#FF9D00"/>
<path d="M85.6842 96.2921L98.0649 95.9409L97.9598 94.7088L85.6842 96.2921Z" fill="#FF9D00"/>
<path d="M85.6842 107.769L99.0422 107.236L98.9331 105.987L85.6842 107.769Z" fill="#FF9D00"/>
<path d="M96.3596 76.1732L96.2584 74.9675L85.6842 76.1997L96.3596 76.1732Z" fill="#FF9D00"/>
<path d="M85.6842 93.42L97.8235 93.1186L97.7184 91.8898L85.6842 93.42Z" fill="#FF9D00"/>
<path d="M99.2836 110.058L99.1784 108.806L85.6842 110.641L99.2836 110.058Z" fill="#FF9D00"/>
<path d="M85.6842 99.1603L98.3102 98.7661L98.205 97.5273L85.6842 99.1603Z" fill="#FF9D00"/>
<path d="M85.6842 73.3313L96.1183 73.3479L96.0132 72.1455L85.6842 73.3313Z" fill="#FF9D00"/>
<path d="M91.567 55.5182V56.2933L94.6544 56.3893L94.5532 55.2168L91.567 55.5182Z" fill="#FF9D00"/>
<path d="M85.6842 41.7588L93.4358 42.2424L93.3346 41.103L85.6842 41.7588Z" fill="#FF9D00"/>
<path d="M93.6772 45.0745L93.5798 43.9285L85.6842 44.6307L93.6772 45.0745Z" fill="#FF9D00"/>
<path d="M85.6842 113.509L99.5288 112.247L99.4198 111.625L85.6842 113.509Z" fill="#FF9D00"/>
<path d="M98.6918 103.165L85.6803 104.9L98.7969 104.41L98.6918 103.165Z" fill="#FF9D00"/>
<path d="M88.7638 47.224C89.0403 47.3583 89.3023 47.5163 89.5426 47.6943L93.9109 47.9096L93.8097 46.757L88.7638 47.224V47.224Z" fill="#FF9D00"/>
<path d="M85.6842 61.8511L95.141 62.0432L95.0398 60.8607L85.6842 61.8511Z" fill="#FF9D00"/>
<path d="M85.6842 64.7195L95.3863 64.8719L95.2812 63.6827L85.6842 64.7195Z" fill="#FF9D00"/>
<path d="M93.1945 58.2042V59.1714L94.8997 59.2177L94.7946 58.0386L93.1945 58.2042Z" fill="#FF9D00"/>
<path d="M91.567 52.6626V53.4576L94.4091 53.5603L94.3079 52.3977L91.567 52.6626Z" fill="#FF9D00"/>
<path d="M91.2322 49.8408C91.3341 50.0931 91.4143 50.3534 91.4694 50.6161L94.1675 50.732L94.0663 49.5728L91.2322 49.8408V49.8408Z" fill="#FF9D00"/>
<path d="M95.6316 67.6972L95.5265 66.5048L85.6842 67.5879L95.6316 67.6972Z" fill="#FF9D00"/>
<path d="M81.4483 50.8676V58.1381H79.8248V59.1748H91.5359V58.1381H89.9124V50.8676C89.9124 48.549 88.0319 46.7008 85.6959 46.7008C83.3599 46.7008 81.4522 48.549 81.4483 50.8676V50.8676ZM88.8456 50.8676V58.1381H82.5073V50.8676C82.5073 49.1453 83.9284 47.7475 85.6804 47.7475C87.4324 47.7475 88.8534 49.1353 88.8573 50.8676H88.8456Z" fill="#FF9D00"/>
<path d="M71.9603 31.1628L66.1514 33.4814V34.8859L72.042 39.7184H72.9297L67.6776 34.4188L70.9324 33.4251L76.1612 39.6886L76.7997 39.6886L73.0698 33.1502H84.6019L85.3533 39.7251H85.9528L86.0697 38.9169L93.1905 39.4137L93.0932 38.2809L86.0852 38.8606L86.4746 36.0849L92.9375 36.585L92.8401 35.4589L86.4979 35.9624L86.8872 33.1569H98.2908L94.5649 39.7317H94.8764L97.3292 68.1642C93.4514 68.4557 89.5736 68.6025 85.6959 68.6047C79.8839 68.6047 74.0572 68.2652 68.3103 67.6133C67.3098 68.0538 66.3053 68.4844 65.3047 68.9051C72.0318 69.8137 78.8603 70.2741 85.6888 70.2741C92.5278 70.2741 99.357 69.8136 106.091 68.9063C105.09 68.4856 104.086 68.055 103.085 67.6145H102.995L102.832 66.3922L98.3234 66.1272L102.676 65.2031L102.462 63.6232L98.0976 63.2555L102.302 62.4407L102.092 60.8541L97.8718 60.3838L101.933 59.675L101.718 58.0851L97.6421 57.5121L101.563 56.9092L101.348 55.3128L97.4162 54.6503L101.193 54.1568L100.975 52.5569L97.1904 51.7785L100.819 51.3844L100.605 49.7846L96.9646 48.9035L100.469 48.6153L100.254 47.0122L96.7505 46.0185L100.087 45.8297L99.8519 44.2431L96.4997 43.16L99.6961 43.0672L99.4819 41.4707L96.2739 40.2684H99.3223L99.2484 39.7086H99.3223L105.213 34.876L105.213 33.4882L99.408 31.1696H71.9601V31.163L71.9603 31.1628Z" fill="#FF9D00"/>
<path d="M71.7189 23.6376C71.2674 23.6376 70.9013 23.9491 70.9013 24.3332L70.9012 30.6994L71.5631 30.4344H72.5364V26.1284H83.574V24.7008H72.5364V24.3365C72.5365 24.3354 72.5365 24.3343 72.5365 24.3332C72.5365 23.9491 72.1703 23.6376 71.7189 23.6376H71.7188L71.7189 23.6376Z" fill="#FF9D00"/>
<path d="M99.6456 23.6376C99.6443 23.6376 99.643 23.6376 99.6417 23.6376C99.1903 23.6376 98.8241 23.9491 98.8241 24.3332V30.4344H99.7974L100.463 30.6994V26.7247L103.967 28.3543C104.079 28.4087 104.205 28.4374 104.334 28.4374C104.341 28.4374 104.349 28.4372 104.357 28.4371C104.62 28.4356 104.865 28.3209 105.007 28.1324C105.087 28.239 105.13 28.3633 105.13 28.4901C105.13 28.8542 104.784 29.1502 104.357 29.1525C104.353 29.1525 104.35 29.1526 104.347 29.1526C104.215 29.1526 104.084 29.1251 103.967 29.073L103.913 29.0465V32.064L105.548 32.7265L105.548 26.6883C105.548 26.3042 105.182 25.9927 104.73 25.9927C104.279 25.9927 103.913 26.3042 103.913 26.6883V26.8175L100.459 25.211V24.3333C100.459 24.3332 100.459 24.3332 100.459 24.3332C100.459 23.9504 100.096 23.6394 99.6455 23.6376L99.6455 23.6377L99.6456 23.6376Z" fill="#FF9D00"/>
<path d="M86.4979 24.3332C86.4979 23.9491 86.1318 23.6376 85.6803 23.6376C85.2289 23.6376 84.8627 23.9491 84.8627 24.3332L84.8627 30.4343H86.4979V26.1284H97.5393V24.7008H86.4979V24.3331L86.4979 24.3332Z" fill="#FF9D00"/>
<path d="M67.2221 28.2582L69.6126 27.1453V25.6349L67.4323 26.6484C67.4057 26.2854 67.0518 26.0025 66.6241 26.0025C66.6224 26.0025 66.6205 26.0025 66.6187 26.0025C66.1747 26.006 65.8151 26.3105 65.8089 26.6882L65.8088 32.7364L67.4479 32.0739V28.861L67.2221 28.967C67.1106 29.0168 66.9862 29.043 66.8601 29.043C66.4301 29.043 66.0814 28.7463 66.0814 28.3805C66.0814 28.2552 66.1233 28.1322 66.2021 28.0264C66.3448 28.218 66.5931 28.3343 66.8598 28.3343C66.986 28.3343 67.1105 28.3081 67.2221 28.2582L67.2221 28.2582H67.2221Z" fill="#FF9D00"/>
<path d="M99 19.0083L156.75 35.4699L156.75 2.54663L99 19.0083Z" fill="url(#paint1_linear_269_1907)"/>
<defs>
<linearGradient id="paint0_linear_269_1907" x1="83" y1="19.0083" x2="4.33501e-08" y2="19.0083" gradientUnits="userSpaceOnUse">
<stop offset="0.160116" stop-color="#FF9D00"/>
<stop offset="0.781579" stop-color="#FF9D00" stop-opacity="0"/>
</linearGradient>
<linearGradient id="paint1_linear_269_1907" x1="99" y1="19.0083" x2="176" y2="19.0083" gradientUnits="userSpaceOnUse">
<stop offset="0.160116" stop-color="#FF9D00"/>
<stop offset="0.781579" stop-color="#FF9D00" stop-opacity="0"/>
</linearGradient>
</defs>
</svg>
