<svg width="113" height="113" viewBox="0 0 113 113" fill="none" xmlns="http://www.w3.org/2000/svg">
<path fill-rule="evenodd" clip-rule="evenodd" d="M53.4789 5.74391L53.9977 5.71051L54.0855 6.92749C53.9108 6.93493 53.7395 6.94059 53.5654 6.94975L53.4789 5.74391ZM55.2445 5.68362L55.7639 5.66642L55.8067 6.88429C55.6348 6.88462 55.4615 6.88961 55.2894 6.89222L55.2445 5.68362ZM57.0079 5.68321L57.5276 5.68402L57.5299 6.90269C57.3569 6.89818 57.1842 6.89439 57.0116 6.89132L57.0079 5.68321ZM58.776 5.74453L59.2947 5.76307L59.2529 6.97981C59.0808 6.96796 58.9089 6.957 58.7359 6.94888L58.776 5.74453ZM60.5357 5.86781L61.0552 5.90476L60.9698 7.115C60.799 7.09848 60.6262 7.08491 60.4539 7.07084L60.5357 5.86781ZM62.2906 6.05305L62.8077 6.107L62.682 7.31666C62.5098 7.29219 62.3393 7.26751 62.169 7.24777L62.2906 6.05305ZM64.0358 6.29952L64.552 6.37298L64.3826 7.57525C64.2129 7.54551 64.041 7.52054 63.8716 7.49347L64.0358 6.29952ZM65.7731 6.60516L66.2868 6.69518L66.0755 7.89435C65.9052 7.85927 65.7379 7.82382 65.5666 7.79157L65.7731 6.60516ZM67.4993 6.97219L68.009 7.08075L67.7553 8.27327C67.5874 8.23248 67.42 8.19163 67.2506 8.15327L67.4993 6.97219ZM69.2176 7.4011L69.7209 7.52487L69.4268 8.71141C69.2614 8.66446 69.093 8.61921 68.9278 8.57449L69.2176 7.4011ZM70.9135 7.8878L71.415 8.02985L71.0766 9.20905C70.9132 9.15644 70.7479 9.10315 70.5815 9.05225L70.9135 7.8878ZM72.592 8.433L73.0875 8.59293L72.7079 9.75948C72.5474 9.7011 72.3837 9.64626 72.2198 9.58919L72.592 8.433ZM74.2446 9.03685L74.7334 9.21248L74.3127 10.3709C74.1528 10.3065 73.9929 10.2418 73.8318 10.1785L74.2446 9.03685ZM75.8802 9.69827L76.365 9.89289L75.9026 11.0355C75.7433 10.9644 75.5846 10.899 75.4266 10.8313L75.8802 9.69827ZM77.4915 10.4168L77.9683 10.6277L77.4671 11.7592C77.3099 11.6833 77.1563 11.6073 76.9998 11.5331L77.4915 10.4168ZM79.0792 11.1905L79.5461 11.4166L79.003 12.5337C78.8507 12.4536 78.6968 12.3754 78.5424 12.2965L79.0792 11.1905ZM80.636 12.0194L81.0973 12.2624L80.512 13.3629C80.3631 13.277 80.2128 13.1912 80.0611 13.1078L80.636 12.0194ZM82.1642 12.9027L82.6182 13.1611L81.9945 14.2423C81.8482 14.1515 81.7019 14.0611 81.5517 13.9717L82.1642 12.9027ZM83.6607 13.8386L84.1053 14.1126L83.4424 15.1714C83.2987 15.0767 83.1549 14.9802 83.0101 14.8869L83.6607 13.8386ZM85.1226 14.8243L85.5592 15.1141L84.8569 16.1537C84.7157 16.0528 84.5772 15.9521 84.4348 15.8527L85.1226 14.8243ZM87.9318 16.9466L88.3466 17.2656L87.576 18.2516C87.4414 18.1418 87.3097 18.0299 87.1752 17.9209L87.9318 16.9466ZM89.2837 18.0805L89.6849 18.4142L88.8812 19.3685C88.7523 19.2535 88.6201 19.1416 88.4901 19.029L89.2837 18.0805ZM90.5843 19.2575L90.9737 19.6053L90.1407 20.5301C90.0157 20.4097 89.8906 20.2893 89.7655 20.1725L90.5843 19.2575ZM91.8512 20.4837L92.2295 20.8446L91.3639 21.735C91.2438 21.6139 91.1205 21.4901 90.9984 21.368L91.8512 20.4837ZM93.0767 21.7528L93.4411 22.1258L92.5481 22.9874C92.4317 22.86 92.3147 22.7314 92.1979 22.6046L93.0767 21.7528ZM94.2565 23.0626L94.6084 23.4483L93.6876 24.2772C93.5747 24.1454 93.4605 24.0137 93.3484 23.8845L94.2565 23.0626ZM95.3892 24.4165L95.7291 24.8145L94.782 25.6085C94.6754 25.4732 94.5689 25.3375 94.458 25.2041L95.3892 24.4165ZM96.4752 25.8066L96.7984 26.2156L95.8286 26.9745C95.7257 26.8361 95.6228 26.6972 95.5188 26.5602L96.4752 25.8066ZM97.5107 27.234L97.8212 27.654L96.8271 28.3761C96.73 28.2333 96.6331 28.0919 96.5327 27.9509L97.5107 27.234ZM98.4988 28.6955L98.7935 29.1273L97.7778 29.8118C97.6835 29.666 97.5917 29.5181 97.4996 29.3748L98.4988 28.6955ZM99.4318 30.1911L99.7107 30.6335L98.6785 31.2793C98.5915 31.1299 98.4987 30.9848 98.408 30.8346L99.4318 30.1911ZM100.313 31.7191L100.578 32.17L99.5223 32.7798C99.4395 32.6281 99.361 32.4741 99.2751 32.3228L100.313 31.7191ZM101.143 33.276L101.39 33.737L100.318 34.3073C100.239 34.1519 100.161 33.9983 100.082 33.844L101.143 33.276ZM101.914 34.8618L102.146 35.3307L101.054 35.8631C100.984 35.7054 100.913 35.5482 100.84 35.3922L101.914 34.8618ZM102.646 36.4815L102.861 36.9577L101.743 37.4558C101.678 37.2951 101.614 37.1349 101.544 36.9767L102.646 36.4815ZM103.292 38.1081L103.492 38.592L102.369 39.0456C102.309 38.8821 102.245 38.7223 102.184 38.5603L103.292 38.1081ZM103.898 39.7654L104.081 40.2554L102.939 40.6701C102.884 40.5061 102.831 40.3419 102.776 40.1778L103.898 39.7654ZM104.442 41.4432L104.607 41.938L103.455 42.3125C103.407 42.1453 103.355 41.9818 103.305 41.8154L104.442 41.4432ZM104.928 43.1374L105.079 43.6372L103.907 43.9733C103.865 43.8054 103.822 43.6368 103.779 43.4708L104.928 43.1374ZM105.355 44.8469L105.486 45.3525L104.303 45.6477C104.264 45.479 104.228 45.3099 104.188 45.1405L105.355 44.8469ZM105.722 46.5725L105.834 47.0828L104.642 47.3356C104.612 47.1654 104.577 46.9967 104.544 46.8269L105.722 46.5725ZM106.027 48.3101L106.121 48.8225L104.917 49.0357C104.893 48.8643 104.869 48.6921 104.843 48.5219L106.027 48.3101ZM106.273 50.0558L106.35 50.5726L105.138 50.7432C105.118 50.5705 105.097 50.3992 105.077 50.2274L106.273 50.0558ZM106.458 51.8091L106.515 52.3283L105.297 52.4569C105.285 52.285 105.269 52.1121 105.256 51.9391L106.458 51.8091ZM106.579 53.5684L106.621 54.0894L105.395 54.1747C105.388 54.0036 105.381 53.831 105.373 53.6582L106.579 53.5684ZM106.641 55.3326L106.663 55.854L105.438 55.8963C105.439 55.7243 105.434 55.551 105.43 55.3782L106.641 55.3326ZM106.64 57.0934L106.644 57.617L105.416 57.6168C105.421 57.4442 105.424 57.27 105.429 57.0975L106.64 57.0934ZM106.577 58.8566L106.563 59.3784L105.334 59.335C105.348 59.1641 105.356 58.991 105.365 58.8176L106.577 58.8566ZM106.448 60.6189L106.416 61.1391L105.19 61.0538C105.206 60.883 105.222 60.7091 105.237 60.538L106.448 60.6189ZM106.263 62.3737L106.213 62.893L104.983 62.7626C105.008 62.5922 105.032 62.4199 105.053 62.2486L106.263 62.3737ZM106.018 64.1188L105.949 64.6358L104.726 64.4666C104.755 64.297 104.779 64.1248 104.808 63.9539L106.018 64.1188ZM105.711 65.8562L105.625 66.3704L104.401 66.1561C104.437 65.9858 104.474 65.8183 104.508 65.6467L105.711 65.8562ZM105.345 67.5792L105.238 68.0918L104.022 67.8315C104.062 67.6637 104.101 67.4929 104.142 67.325L105.345 67.5792ZM104.918 69.2909L104.795 69.8023L103.582 69.4964C103.628 69.3306 103.677 69.1618 103.72 68.9954L104.918 69.2909ZM104.43 70.9852L104.291 71.4913L103.083 71.1441C103.137 70.9774 103.189 70.8127 103.241 70.6485L104.43 70.9852ZM103.885 72.6636L103.728 73.1624L102.53 72.7726C102.589 72.6102 102.645 72.4455 102.7 72.2817L103.885 72.6636ZM103.297 74.3378L103.123 74.831L101.911 74.3896C101.976 74.2278 102.039 74.0676 102.104 73.9064L103.297 74.3378ZM102.636 75.9734L102.445 76.4604L101.249 75.9774C101.317 75.8188 101.383 75.6584 101.453 75.4992L102.636 75.9734ZM101.918 77.5865L101.709 78.0652L100.52 77.5344C100.597 77.3807 100.674 77.2252 100.747 77.0688L101.918 77.5865ZM101.144 79.1723L100.921 79.6434L99.7454 79.0725C99.8267 78.9183 99.9053 78.7644 99.985 78.6086L101.144 79.1723ZM100.316 80.729L100.073 81.192L98.916 80.5761L99.1756 80.1251L100.316 80.729ZM99.4336 82.2553L99.1782 82.7108L98.0362 82.0511C98.1279 81.9046 98.2175 81.7557 98.3074 81.6095L99.4336 82.2553ZM98.5004 83.7515L98.2282 84.1991L97.1056 83.4973C97.2026 83.3538 97.2966 83.2085 97.3938 83.0631L98.5004 83.7515ZM97.5116 85.2138L97.2246 85.6509L96.1239 84.9099C96.2254 84.77 96.3267 84.6287 96.4267 84.4876L97.5116 85.2138ZM96.4672 86.6186L96.1648 87.0441L95.1067 86.2745C95.2137 86.1388 95.3165 85.9987 95.4184 85.8619L96.4672 86.6186ZM95.3794 88.0079L95.0615 88.4212L94.0299 87.6164C94.1397 87.4818 94.2516 87.3496 94.3601 87.2156L95.3794 88.0079ZM94.2349 89.3353L93.9016 89.7365L92.92 88.9117C93.0336 88.7829 93.1467 88.6493 93.2588 88.5189L94.2349 89.3353ZM93.0545 90.6454L92.7111 91.0374L91.7529 90.175C91.8733 90.05 91.9939 89.9258 92.1106 89.7998L93.0545 90.6454ZM91.8304 91.9152L91.4727 92.2931L90.5477 91.3987C90.6715 91.2791 90.7892 91.1544 90.9153 91.0314L91.8304 91.9152ZM90.5613 93.1402L90.1897 93.5049L89.2962 92.5792C89.4235 92.4624 89.5541 92.3469 89.6798 92.2284L90.5613 93.1402ZM89.2513 94.3187L88.8676 94.6722L88.0076 93.7177C88.1397 93.6046 88.271 93.491 88.4015 93.3769L89.2513 94.3187ZM87.9003 95.4524L87.5045 95.792L86.6793 94.8076C86.8155 94.7009 86.9514 94.5921 87.0847 94.484L87.9003 95.4524ZM86.5025 96.5123L86.0927 96.8369L85.3201 95.8461C85.4605 95.7444 85.5981 95.639 85.7343 95.5364L86.5025 96.5123ZM85.0738 97.5479L84.6559 97.8577L83.9208 96.8453C84.0631 96.7483 84.2044 96.6464 84.3479 96.548L85.0738 97.5479ZM83.6119 98.5325L83.1828 98.8282L82.4832 97.7912C82.6305 97.6981 82.7769 97.6052 82.9207 97.513L83.6119 98.5325ZM82.1169 99.4668L81.6771 99.7485L81.0183 98.6912C81.1677 98.6042 81.313 98.5132 81.4624 98.423L82.1169 99.4668ZM80.5926 100.346L80.1438 100.612L79.5202 99.532C79.6734 99.4509 79.8268 99.3706 79.9764 99.2854L80.5926 100.346ZM79.0286 101.149L78.5697 101.399L77.9977 100.324C78.1546 100.247 78.3077 100.165 78.4614 100.088L79.0286 101.149ZM77.4426 101.924L76.9737 102.155L76.4397 101.061C76.5973 100.99 76.7574 100.917 76.9136 100.846L77.4426 101.924ZM75.8311 102.64L75.3604 102.856L74.8655 101.742C75.0266 101.677 75.1875 101.608 75.3456 101.541L75.8311 102.64ZM74.1995 103.298L73.7174 103.498L73.2623 102.37C73.4239 102.309 73.5858 102.248 73.7472 102.185L74.1995 103.298ZM72.5421 103.903L72.0532 104.083L71.6396 102.94C71.8032 102.887 71.9672 102.832 72.1314 102.776L72.5421 103.903ZM70.867 104.447L70.373 104.611L69.9974 103.457C70.1639 103.408 70.3301 103.355 70.495 103.307L70.867 104.447ZM69.1724 104.934L68.673 105.08L68.3372 103.907C68.5047 103.865 68.6732 103.822 68.8401 103.779L69.1724 104.934ZM67.4629 105.36L66.9569 105.489L66.6613 104.305C66.8307 104.268 67.0013 104.23 67.1701 104.192L67.4629 105.36ZM65.7384 105.726L65.2293 105.836L64.9731 104.641C65.1451 104.611 65.3148 104.577 65.486 104.545L65.7384 105.726ZM64.0022 106.031L63.4893 106.125L63.2765 104.916C63.4483 104.892 63.6215 104.868 63.7903 104.842L64.0022 106.031ZM62.2567 106.278L61.7423 106.352L61.571 105.139C61.7441 105.118 61.9154 105.097 62.0876 105.077L62.2567 106.278ZM60.5043 106.46L59.9863 106.519L59.858 105.296C60.0308 105.284 60.2036 105.268 60.3767 105.255L60.5043 106.46ZM58.7463 106.584L58.2267 106.622L58.1402 105.394C58.3146 105.387 58.4868 105.381 58.6601 105.373L58.7463 106.584ZM56.9842 106.644L56.4645 106.666L56.4217 105.437C56.5948 105.438 56.7679 105.433 56.9412 105.429L56.9842 106.644ZM55.22 106.615L54.6993 106.617L54.7004 105.415C54.8739 105.42 55.0465 105.425 55.2195 105.429L55.22 106.615ZM53.4609 106.553L52.9393 106.537L52.9815 105.335C53.1545 105.347 53.3277 105.357 53.5009 105.367L53.4609 106.553ZM51.7032 106.431L51.1833 106.395L51.2674 105.197L51.785 105.244L51.7032 106.431ZM49.9544 106.244L49.4345 106.193L49.561 104.991C49.7333 105.015 49.9042 105.04 50.076 105.061L49.9544 106.244ZM48.2094 105.999L47.6928 105.93L47.8606 104.734C48.0316 104.762 48.2039 104.788 48.3747 104.815L48.2094 105.999ZM46.4752 105.693L45.9613 105.606L46.1717 104.411C46.3421 104.446 46.5104 104.482 46.6809 104.516L46.4752 105.693ZM44.7522 105.327L44.2428 105.22L44.4968 104.031C44.6648 104.072 44.8348 104.112 45.0024 104.15L44.7522 105.327ZM43.0418 104.9L42.5348 104.776L42.8305 103.591C42.9978 103.638 43.1652 103.686 43.3321 103.73L43.0418 104.9ZM41.3508 104.386L40.85 104.246L41.1797 103.092C41.3445 103.145 41.5085 103.199 41.6753 103.25L41.3508 104.386ZM39.6762 103.843L39.1794 103.684L39.5516 102.539L40.0418 102.711L39.6762 103.843ZM38.0236 103.239L37.5326 103.064L37.9472 101.926C38.1078 101.99 38.2696 102.055 38.4301 102.117L38.0236 103.239ZM36.3901 102.58L35.9071 102.386L36.3588 101.26C36.5173 101.331 36.6778 101.397 36.835 101.466L36.3901 102.58ZM34.7816 101.863L34.3049 101.652L34.8027 100.535C34.9596 100.612 35.1151 100.688 35.2711 100.762L34.7816 101.863ZM33.2037 101.065L32.7336 100.839L33.2598 99.7576C33.4132 99.8394 33.5679 99.9174 33.722 99.9973L33.2037 101.065ZM31.6492 100.237L31.1884 99.9941L31.7541 98.9302C31.9041 99.0133 32.0544 99.1 32.2061 99.1861L31.6492 100.237ZM30.124 99.3562L29.6728 99.0984L30.2777 98.0492C30.4242 98.1409 30.5703 98.2295 30.7214 98.3192L30.124 99.3562ZM28.6311 98.4239L28.1886 98.1493L28.8324 97.1189C28.9763 97.2154 29.1213 97.31 29.2654 97.4051L28.6311 98.4239ZM27.1714 97.438L26.7395 97.149L27.4199 96.1382C27.561 96.2382 27.7013 96.3383 27.8428 96.4382L27.1714 97.438ZM25.7475 96.404L25.3259 96.0993L26.0424 95.1103C26.1784 95.2168 26.3167 95.3198 26.455 95.4265L25.7475 96.404ZM24.3595 95.3187L23.9482 94.9992L24.7012 94.0357C24.8345 94.1457 24.9672 94.2584 25.1021 94.3668L24.3595 95.3187ZM23.0181 94.1637L22.6169 93.8304L23.3882 92.9107C23.5174 93.0275 23.6498 93.1376 23.7804 93.2514L23.0181 94.1637ZM21.7115 92.9856L21.3231 92.6386L22.129 91.7441C22.2541 91.8645 22.3782 91.985 22.5046 92.1053L21.7115 92.9856ZM20.446 91.7633L20.0704 91.4021L20.9043 90.5376C21.0254 90.663 21.1487 90.7837 21.2704 90.9059L20.446 91.7633ZM19.2131 90.5185L18.8497 90.1468L19.7335 89.2954C19.851 89.4244 19.9647 89.552 20.0843 89.6794L19.2131 90.5185ZM18.0347 89.2099L17.6843 88.8258L18.5923 88.0066C18.7038 88.1377 18.818 88.2698 18.9322 88.401L18.0347 89.2099ZM16.9041 87.8617L16.5661 87.4644L17.5028 86.6783C17.6095 86.8145 17.716 86.9493 17.8264 87.0837L16.9041 87.8617ZM15.8093 86.497L15.4894 86.0884L16.4675 85.3232C16.5704 85.4621 16.6729 85.6014 16.7772 85.7374L15.8093 86.497ZM14.7749 85.0713L14.4655 84.652L15.4682 83.9226C15.566 84.068 15.665 84.2082 15.7657 84.3514L14.7749 85.0713ZM13.8006 83.5892L13.5067 83.1604L14.5155 82.4781C14.6091 82.6253 14.702 82.7717 14.7961 82.9162L13.8006 83.5892ZM12.8672 82.0976L12.5886 81.6575L13.6161 81.0145C13.7036 81.1638 13.796 81.309 13.8844 81.4591L12.8672 82.0976ZM11.9877 80.5703L11.7244 80.1224L12.7807 79.5162C12.8621 79.6676 12.9426 79.8227 13.0265 79.9724L11.9877 80.5703ZM11.1605 79.0168L10.9133 78.5593L11.9826 77.9894C12.059 78.1446 12.1388 78.298 12.2188 78.4527L11.1605 79.0168ZM10.3887 77.435L10.1586 76.966L11.2475 76.4357C11.3185 76.5933 11.39 76.7503 11.462 76.9066L10.3887 77.435ZM9.67192 75.8267L9.45996 75.351L10.565 74.8572C10.631 75.0181 10.6976 75.1782 10.7649 75.3375L9.67192 75.8267ZM9.01631 74.1939L8.81955 73.7133L9.9388 73.2588C9.99978 73.4208 10.0625 73.5825 10.1235 73.7445L9.01631 74.1939ZM8.4114 72.5397L8.23325 72.0523L9.37148 71.6357C9.42616 71.8016 9.48063 71.9657 9.53643 72.1297L8.4114 72.5397ZM7.8683 70.8663L7.70603 70.372L8.85691 69.9968C8.9058 70.1634 8.95731 70.3293 9.00693 70.4944L7.8683 70.8663ZM7.38356 69.1715L7.2376 68.6739L8.4063 68.3381C8.44852 68.5055 8.49179 68.6741 8.53484 68.8409L7.38356 69.1715ZM6.95712 67.462L6.82975 66.9576L8.01021 66.6633C8.04685 66.8332 8.08546 67.0006 8.12422 67.1693L6.95712 67.462ZM6.59111 65.7407L6.48167 65.2315L7.67293 64.9783C7.70413 65.1479 7.73755 65.3173 7.7703 65.4885L6.59111 65.7407ZM6.28532 64.0059L6.19408 63.494L7.40065 63.2819C7.42567 63.4527 7.44858 63.6247 7.47543 63.7957L6.28532 64.0059ZM6.03912 62.2634L5.96774 61.7479L7.17617 61.5775C7.19685 61.7497 7.21747 61.9215 7.23804 62.0929L6.03912 62.2634ZM5.85684 60.512L5.80054 59.9941L7.01776 59.867C7.03066 60.0383 7.04595 60.2108 7.05995 60.3838L5.85684 60.512ZM5.73625 58.7554L5.69869 58.2357L6.92233 58.1507C6.9291 58.3237 6.93527 58.4954 6.94466 58.6676L5.73625 58.7554ZM5.67577 56.9956L5.65584 56.4761L6.87894 56.4317C6.87988 56.605 6.88526 56.7777 6.88842 56.9507L5.67577 56.9956ZM5.67523 55.235L5.6741 54.7141L6.9011 54.7135C6.89559 54.8858 6.88925 55.0585 6.88712 55.2326L5.67523 55.235ZM5.73474 53.4744L5.751 52.9555L6.97819 52.9978C6.96778 53.1706 6.95771 53.3424 6.95003 53.5154L5.73474 53.4744ZM5.85944 51.719L5.89327 51.1998L7.11663 51.2854C7.09923 51.4564 7.08615 51.6295 7.06986 51.8021L5.85944 51.719ZM6.04294 49.9683L6.09456 49.4506L7.3216 49.5782C7.29713 49.7505 7.2724 49.9205 7.25155 50.0927L6.04294 49.9683ZM6.28763 48.2234L6.35886 47.7074L7.5792 47.8769C7.54897 48.0462 7.52499 48.2188 7.4963 48.3898L6.28763 48.2234ZM6.59364 46.4891L6.68188 45.9756L7.90088 46.1904C7.86609 46.3594 7.82862 46.5287 7.79588 46.6997L6.59364 46.4891ZM6.96075 44.7674L7.06709 44.2581L8.27978 44.5143C8.2381 44.6823 8.1982 44.85 8.15984 45.0194L6.96075 44.7674ZM7.39868 43.049L7.52274 42.5442L8.7196 42.8416C8.67281 43.0084 8.62746 43.1759 8.5815 43.3422L7.39868 43.049ZM7.89641 41.3472L8.03813 40.8467L9.22173 41.1841C9.16883 41.3489 9.11537 41.5129 9.06531 41.6787L7.89641 41.3472ZM8.44037 39.6734L8.59985 39.1779L9.77424 39.5588C9.71612 39.7216 9.66039 39.8854 9.60228 40.0481L8.44037 39.6734ZM9.04288 38.0209L9.21846 37.5317L10.3872 37.9557C10.323 38.1165 10.2568 38.2765 10.1945 38.438L9.04288 38.0209ZM9.70217 36.3901L9.89551 35.906L11.051 36.3736C10.9795 36.5307 10.9134 36.6903 10.8449 36.8498L9.70217 36.3901ZM10.4183 34.7818L10.6279 34.3052L11.7725 34.8143C11.6969 34.9687 11.6215 35.1243 11.5464 35.2811L10.4183 34.7818ZM11.1895 33.1994L11.4156 32.7321L12.5448 33.2818C12.4629 33.4348 12.3848 33.5886 12.3071 33.7424L11.1895 33.1994ZM12.0163 31.6473L12.2596 31.1883L13.3687 31.7775C13.2824 31.9274 13.1956 32.0773 13.1122 32.2282L12.0163 31.6473ZM12.8965 30.1232L13.1544 29.6732L14.25 30.3038C14.1584 30.4508 14.0682 30.5982 13.9793 30.7458L12.8965 30.1232ZM13.8297 28.631L14.103 28.1919L15.1767 28.8621C15.0802 29.0059 14.9855 29.15 14.891 29.2955L13.8297 28.631ZM14.8139 27.1716L15.1022 26.741L16.1556 27.4493C16.0551 27.5905 15.9528 27.7305 15.8538 27.8724L14.8139 27.1716ZM15.8569 25.7439L16.1617 25.3226L17.1853 26.0648C17.0784 26.2013 16.9759 26.34 16.8736 26.4773L15.8569 25.7439ZM16.9422 24.3558L17.2602 23.9474L18.2597 24.7258C18.1498 24.8591 18.037 24.9919 17.9291 25.1267L16.9422 24.3558ZM18.073 23.0083L18.404 22.611L19.3737 23.4228C19.2596 23.5516 19.1486 23.6837 19.0342 23.8139L18.073 23.0083ZM19.2495 21.7001L19.5947 21.3146L20.5397 22.1619C20.4194 22.2878 20.2987 22.4107 20.1811 22.5372L19.2495 21.7001ZM20.4721 20.4332L20.83 20.0602L21.7424 20.9394C21.6187 21.0603 21.4967 21.1829 21.3755 21.3053L20.4721 20.4332ZM21.7377 19.2122L22.1093 18.8516L22.9896 19.7612C22.8615 19.8777 22.7339 19.9945 22.6068 20.1115L21.7377 19.2122ZM23.0374 18.0381L23.421 17.6914L24.2679 18.6308C24.1368 18.7427 24.006 18.8559 23.8765 18.9699L23.0374 18.0381ZM24.3856 16.9074L24.7811 16.5733L25.5938 17.5398C25.4585 17.6463 25.3237 17.7548 25.1895 17.8651L24.3856 16.9074ZM25.7719 15.8232L26.1786 15.5035L26.9553 16.4937L26.541 16.8035L25.7719 15.8232ZM27.196 14.7904L27.6139 14.4851L28.3513 15.4982C28.2088 15.5965 28.0677 15.6961 27.9265 15.7952L27.196 14.7904ZM28.6549 13.8071L29.0831 13.516L29.785 14.5527C29.6386 14.6457 29.4912 14.7379 29.3462 14.8311L28.6549 13.8071ZM30.1468 12.8732L30.5866 12.5991L31.2466 13.6522C31.0975 13.741 30.9522 13.8324 30.8022 13.9213L30.1468 12.8732ZM31.6758 11.9925L32.125 11.7327L32.748 12.8087C32.5958 12.8907 32.4417 12.9719 32.2907 13.0564L31.6758 11.9925ZM33.2314 11.1674L33.6875 10.924L34.2699 12.0147C34.1144 12.0925 33.9618 12.1714 33.8084 12.2507L33.2314 11.1674ZM34.8118 10.3957L35.2767 10.1688L35.8193 11.2775C35.6613 11.3497 35.5047 11.4214 35.3486 11.4938L34.8118 10.3957ZM36.4191 9.6818L36.8924 9.46877L37.3941 10.5941C37.2346 10.6611 37.0751 10.7276 36.9158 10.796L36.4191 9.6818ZM38.0506 9.02319L38.5296 8.82709L38.9913 9.96577C38.8289 10.0265 38.6676 10.0883 38.5075 10.1512L38.0506 9.02319ZM39.7034 8.42116L40.1903 8.24262L40.6124 9.39734C40.4484 9.45269 40.2831 9.50459 40.1193 9.56128L39.7034 8.42116ZM41.3763 7.87811L41.8689 7.71694L42.2494 8.88208C42.0833 8.93092 41.918 8.98326 41.7528 9.032L41.3763 7.87811ZM43.0684 7.39281L43.5649 7.24878L43.9049 8.4269C43.7378 8.4709 43.5689 8.51239 43.4024 8.55811L43.0684 7.39281ZM44.7745 6.96812L45.2769 6.84008L45.5753 8.03134C45.4063 8.06832 45.2375 8.10575 45.0689 8.14541L44.7745 6.96812ZM46.4953 6.60172L47.0027 6.49294L47.258 7.69027C47.0878 7.72064 46.9187 7.75628 46.7484 7.78892L46.4953 6.60172ZM48.2284 6.29659L48.7371 6.20572L48.9548 7.41344C48.7838 7.43757 48.6123 7.46042 48.4417 7.48722L48.2284 6.29659ZM49.9705 6.05133L50.4835 5.978L50.6555 7.19255C50.4833 7.21323 50.3124 7.23374 50.1402 7.25442L49.9705 6.05133ZM83.7715 22.9069C84.1617 23.2271 84.5626 23.5546 84.9357 23.8985C85.2069 23.5951 85.4789 23.2901 85.7518 22.9834C85.5202 22.7688 85.2882 22.5556 85.0597 22.3442C85.2975 22.0687 85.5322 21.7935 85.7707 21.5166C86.1345 21.8543 86.4979 22.1912 86.8609 22.5275C86.9891 22.6475 87.1152 22.7651 87.2463 22.8835C87.1243 23.0177 86.9991 23.1515 86.8764 23.2841L86.0916 24.1367C85.8303 24.4191 85.3553 24.9339 85.0927 25.2174C85.0779 25.2331 85.0645 25.2492 85.0532 25.2646C84.4084 24.6616 83.7421 24.0793 83.0628 23.5171L83.7715 22.9069ZM52.172 14.0145C52.1698 13.9958 52.1677 13.9784 52.1656 13.9606C52.0921 13.2846 51.98 12.2944 51.9063 11.617C51.8327 10.9397 51.7591 10.2627 51.6856 9.58624C50.984 9.67408 50.2833 9.76257 49.5834 9.85171L47.4802 10.1168C47.5861 10.6978 47.6896 11.2813 47.7936 11.8625C47.8977 12.4437 48.0123 13.1085 48.1159 13.6892C48.7126 13.5792 49.33 13.4532 49.941 13.3758C49.8825 12.9715 49.8222 12.567 49.7637 12.1623L48.8267 12.2811C48.7689 11.9221 48.7107 11.5631 48.6523 11.2041L50.1283 11.0179C50.301 10.9971 50.4743 10.9736 50.6469 10.9525C50.6714 11.1301 50.6951 11.3128 50.7171 11.4921C50.7662 11.8749 50.8168 12.2589 50.8659 12.6413C50.9149 13.0236 51.0026 13.7197 51.0512 14.1021C51.0524 14.1123 51.0538 14.1239 51.0551 14.1346C50.987 14.1427 50.9194 14.1509 50.8504 14.1591C49.6443 14.3116 48.4556 14.518 47.2887 14.7673C46.4877 14.9396 45.6965 15.1333 44.9151 15.3484C44.9104 15.3318 44.9043 15.3145 44.8991 15.298C44.7099 14.6435 44.4278 13.6887 44.2378 13.0343C44.0477 12.3799 43.8585 11.7254 43.6675 11.0712C42.9929 11.2807 42.3184 11.4896 41.6439 11.6979C40.9695 11.9061 40.2945 12.1151 39.619 12.3247C39.8242 12.8797 40.0269 13.436 40.2302 13.9903C40.4336 14.5447 40.6627 15.1786 40.8647 15.7331C41.4335 15.5217 42.0192 15.2902 42.6086 15.108C42.4799 14.7198 42.3508 14.3326 42.2228 13.9435C41.9216 14.0374 41.6207 14.1295 41.3208 14.2224C41.2003 13.8802 41.0804 13.537 40.9611 13.1929L42.3812 12.7515C42.5471 12.7 42.7146 12.6479 42.8814 12.5971C42.9362 12.7711 42.9901 12.9453 43.0444 13.1162C43.1586 13.4859 43.2737 13.8548 43.3895 14.2228C43.5036 14.5906 43.7112 15.2596 43.8264 15.6286C43.8276 15.6388 43.8329 15.6486 43.8355 15.6591C42.6095 16.0314 41.4097 16.4565 40.2361 16.9345C39.478 17.2435 38.7327 17.5727 38.0002 17.9221C37.9919 17.9055 37.9822 17.8882 37.9749 17.8724C37.6757 17.2609 37.2309 16.3685 36.9296 15.7577C36.6283 15.1469 36.3287 14.5355 36.0274 13.9247C35.3996 14.2484 34.7714 14.5715 34.1429 14.8941L32.2573 15.8626C32.5558 16.3734 32.853 16.8846 33.1489 17.3962C33.4454 17.9064 33.781 18.491 34.0774 19.0003C34.599 18.6934 35.1368 18.3634 35.6831 18.0852C35.4893 17.7247 35.2956 17.3648 35.102 17.0055C34.8207 17.1481 34.5414 17.2927 34.2607 17.4361C34.0828 17.1202 33.9064 16.8014 33.7284 16.4847C34.169 16.2584 34.6096 16.032 35.0504 15.8054L35.516 15.5658C35.6009 15.7271 35.6834 15.8883 35.7665 16.0499C35.9427 16.3899 36.122 16.7364 36.2963 17.0789C36.4706 17.4214 36.7946 18.0443 36.9708 18.387C36.9766 18.3985 36.9825 18.4096 36.9888 18.4205C35.8497 19.0006 34.7433 19.63 33.6697 20.3088C32.9794 20.7438 32.303 21.1977 31.6404 21.6703C31.6268 21.6511 31.6123 21.6321 31.5983 21.613C31.1983 21.0638 30.6054 20.2623 30.2027 19.7133C29.8 19.1644 29.3985 18.6139 28.9956 18.0632C28.4331 18.4919 27.8706 18.9193 27.308 19.3453C26.7455 19.7713 26.1829 20.1985 25.6204 20.6269C26.0019 21.0777 26.3828 21.5286 26.7629 21.9795C27.1439 22.4304 27.5767 22.9486 27.9552 23.4007C28.4177 23.0079 28.8894 22.5897 29.38 22.2166C29.1266 21.8953 28.8738 21.5762 28.6203 21.2545L27.8676 21.8252C27.6379 21.5437 27.4084 21.2623 27.1793 20.981L28.3639 20.0813C28.503 19.977 28.6419 19.8704 28.7811 19.7662C28.8922 19.9095 29.0019 20.0557 29.112 20.1982C29.3453 20.5056 29.5804 20.8133 29.814 21.1193L30.7059 22.2908C30.7162 22.3054 30.7258 22.3178 30.737 22.3322C29.7648 23.0662 28.8274 23.8399 27.9249 24.6531C27.277 25.2356 26.6448 25.8361 26.035 26.4574C26.015 26.4377 25.9943 26.4194 25.9744 26.4001C25.4839 25.9285 24.7622 25.2418 24.2695 24.7705C23.7768 24.2992 23.2869 23.828 22.795 23.3561C22.3156 23.8751 21.836 24.3931 21.3563 24.9103C20.8767 25.4275 20.3971 25.9458 19.9178 26.4654C20.3721 26.8451 20.8257 27.2238 21.2785 27.6013C21.7303 27.9805 22.2475 28.415 22.7002 28.7936C23.0871 28.3273 23.4783 27.8329 23.8968 27.3814C23.5932 27.109 23.2867 26.8383 22.9807 26.5649C22.7673 26.796 22.5526 27.0267 22.3388 27.2578C22.0638 27.0199 21.7892 26.782 21.5128 26.5443C21.8492 26.1801 22.1861 25.8165 22.5236 25.4537C22.6424 25.3256 22.7608 25.1974 22.8787 25.0688C23.014 25.1925 23.1476 25.3157 23.2797 25.4383C23.5627 25.6996 23.847 25.9612 24.1324 26.223C24.4148 26.4844 24.9293 26.9608 25.2122 27.2221C25.2285 27.2377 25.2451 27.252 25.2626 27.2661C24.4322 28.1559 23.6411 29.0785 22.8893 30.0341C22.3515 30.719 21.8349 31.4201 21.3396 32.1375C21.3154 32.1205 21.2906 32.1059 21.2656 32.0895C20.7012 31.709 19.8708 31.1585 19.3027 30.7807C18.7345 30.4029 18.1706 30.0227 17.6036 29.6429C17.2216 30.2369 16.8392 30.8307 16.4563 31.4245C16.0734 32.0182 15.6908 32.6122 15.3086 33.2065C15.8219 33.4992 16.335 33.7947 16.8465 34.0886C17.3581 34.3825 17.9423 34.721 18.4526 35.0154C18.7506 34.4889 19.0528 33.9344 19.3861 33.4163C19.0388 33.2011 18.6905 32.9883 18.3433 32.774C18.1729 33.0391 18.0006 33.3036 17.8314 33.5677L16.895 33.0106L17.7021 31.7611C17.796 31.6144 17.8926 31.4674 17.9851 31.3208C18.1392 31.4193 18.2918 31.5179 18.4448 31.6151C18.7709 31.8242 19.0957 32.0326 19.4192 32.2403C19.7439 32.4483 20.3331 32.8281 20.6578 33.036L20.7157 33.0742C20.0201 34.1392 19.3725 35.2349 18.7731 36.3612C18.3902 37.0789 18.0314 37.8095 17.6905 38.5502C17.6667 38.5396 17.643 38.5307 17.6192 38.5204C16.9966 38.2453 16.0833 37.847 15.4603 37.5724L13.5901 36.7468L12.7691 38.7004C12.496 39.3514 12.2222 40.0026 11.9477 40.6541C12.5051 40.8551 13.0611 41.0559 13.6155 41.2566C14.1718 41.4571 14.8038 41.6895 15.3592 41.8897C15.5616 41.3196 15.7606 40.721 16.0009 40.1535C15.6215 40.0018 15.2423 39.8518 14.8628 39.6992C14.7416 39.9903 14.6195 40.2807 14.4965 40.5702L13.4772 40.1838L14.0531 38.8136C14.1204 38.6524 14.1887 38.4916 14.2566 38.3313C14.4248 38.4014 14.5895 38.472 14.7591 38.5419C15.1152 38.6915 15.4721 38.84 15.8272 38.9893C16.1824 39.1385 16.8308 39.4105 17.1852 39.5572C17.2036 39.5635 17.2189 39.5703 17.236 39.5773C16.7354 40.7452 16.2873 41.9366 15.8917 43.1512C15.6405 43.9248 15.4111 44.7066 15.2035 45.4966C15.184 45.4917 15.164 45.4869 15.1445 45.4829C14.4842 45.3188 13.5168 45.086 12.8535 44.9237C12.1902 44.7613 11.5313 44.598 10.869 44.4359C10.713 45.1249 10.5567 45.8137 10.4001 46.5021C10.2435 47.1906 10.0843 47.8776 9.9225 48.5631L11.6695 48.8662C12.2518 48.9669 12.9148 49.0855 13.4973 49.1885C13.5974 48.5896 13.691 47.9666 13.8266 47.3662C13.4267 47.2837 13.0267 47.2017 12.6257 47.1176C12.557 47.4251 12.486 47.7325 12.4166 48.0384C12.0601 47.9719 11.7019 47.9025 11.3454 47.8365C11.455 47.3529 11.5644 46.8692 11.6737 46.3854C11.7125 46.2164 11.7512 46.0456 11.7929 45.8744C11.97 45.9132 12.1473 45.9533 12.3239 45.9913C12.7007 46.0767 13.0776 46.1613 13.4546 46.2451L14.893 46.5691C14.9046 46.5724 14.9164 46.575 14.9283 46.577C14.6399 47.8104 14.4072 49.0608 14.2301 50.3281C14.2305 50.3286 14.2307 50.3293 14.2308 50.33C14.2309 50.3307 14.2308 50.3314 14.2305 50.3321C14.1191 51.1373 14.0272 51.9479 13.9623 52.7643L13.909 52.7603C13.23 52.7154 12.2343 52.6534 11.5557 52.608L9.51742 52.4731C9.48177 53.1789 9.44605 53.8842 9.41026 54.5888C9.37447 55.2935 9.34031 55.9993 9.30781 56.7063C9.89844 56.7036 10.4903 56.7034 11.0804 56.7003C11.6706 56.6971 12.3447 56.7015 12.9355 56.7006C12.9314 56.0943 12.9144 55.4643 12.9439 54.8486C12.5353 54.8374 12.1266 54.8249 11.7177 54.8111C11.7036 55.1257 11.6875 55.4396 11.6722 55.7556C11.3104 55.7503 10.9454 55.7449 10.582 55.7411C10.6059 55.2462 10.63 54.751 10.6542 54.2557C10.6632 54.0822 10.672 53.9073 10.6817 53.7324C10.8632 53.7399 11.0449 53.7493 11.2264 53.7573C11.6114 53.7747 11.9981 53.7924 12.3827 53.8108C12.7673 53.8291 13.4694 53.8631 13.8534 53.8802C13.8643 53.8812 13.8755 53.8803 13.886 53.8817C13.8171 55.1424 13.8095 56.4142 13.8555 57.6962L13.856 57.7007C13.8854 58.5098 13.938 59.3233 14.0136 60.1413C13.9962 60.1434 13.9771 60.1457 13.9589 60.1479C13.2818 60.2206 12.2921 60.3326 11.6151 60.4058C10.9381 60.4789 10.2609 60.5535 9.58349 60.6271C9.67214 61.328 9.76033 62.0287 9.84806 62.7294C9.93579 63.4301 10.0246 64.1311 10.1145 64.8324C10.6969 64.7269 11.2785 64.6224 11.8592 64.5186C12.4417 64.4144 13.1052 64.3 13.6869 64.1963C13.5773 63.5995 13.4509 62.9826 13.3739 62.3711C12.9691 62.4296 12.5655 62.4898 12.1598 62.5476C12.1975 62.8613 12.2385 63.1724 12.2779 63.4855C11.9196 63.5439 11.5604 63.6015 11.2013 63.6599C11.1396 63.1686 11.0776 62.6771 11.0152 62.1852C10.9944 62.0117 10.9735 61.8381 10.9497 61.6658C11.1305 61.6409 11.311 61.6183 11.4907 61.5954L12.6386 61.4477C13.0214 61.3986 13.717 61.3105 14.0997 61.261L14.1335 61.2569C14.1418 61.3255 14.1501 61.3949 14.1583 61.4634C14.3108 62.6699 14.516 63.8561 14.7663 65.0233C14.9377 65.8235 15.1323 66.6169 15.3466 67.3979L15.2948 67.4136C14.6403 67.6028 13.6848 67.8868 13.0308 68.0759C12.3767 68.265 11.7218 68.4547 11.0675 68.6452C11.2774 69.3216 11.4851 69.9946 11.6942 70.6688C11.9034 71.3431 12.1125 72.0209 12.3211 72.6938C12.8766 72.489 13.4311 72.2869 13.985 72.0836C14.5389 71.8804 15.1736 71.6502 15.7286 71.4486C15.5173 70.8803 15.2856 70.2928 15.1032 69.7061C14.7153 69.8345 14.3271 69.9631 13.9387 70.0919C14.0318 70.3914 14.1252 70.6918 14.2189 70.9933L13.1893 71.3521C13.0422 70.879 12.895 70.4046 12.7479 69.932C12.6964 69.7657 12.6456 69.5984 12.5936 69.4327C12.7677 69.3779 12.9417 69.3232 13.1158 69.2698L14.2214 68.923C14.5897 68.8097 15.2586 68.6017 15.6273 68.487C15.6377 68.4829 15.6485 68.4795 15.6594 68.4768C16.0314 69.7023 16.4567 70.9018 16.9352 72.0753C17.2434 72.8347 17.5722 73.5804 17.9217 74.3126C17.9052 74.3222 17.8882 74.3306 17.8713 74.3403C17.2607 74.6394 16.3677 75.0833 15.7569 75.3842C15.1461 75.6851 14.5346 75.9847 13.9238 76.2855C14.2475 76.9139 14.5702 77.542 14.8918 78.1698C15.2133 78.7975 15.5363 79.426 15.8608 80.0552C16.3722 79.7572 16.8834 79.4602 17.3944 79.1641C17.9055 78.8675 18.4895 78.5311 18.9986 78.2365C18.6929 77.7134 18.3625 77.1761 18.0808 76.6312L17.0012 77.2122C17.1449 77.492 17.2885 77.7722 17.4321 78.0526C17.1162 78.2305 16.7975 78.4073 16.4811 78.5848C16.2555 78.1448 16.0288 77.7041 15.8009 77.2629C15.722 77.1094 15.6425 76.9514 15.5641 76.7947C15.7252 76.7108 15.8869 76.6286 16.0483 76.5447L17.0764 76.015C17.4195 75.8383 18.0428 75.5174 18.3853 75.3395L18.4184 75.3216C18.9988 76.4609 19.6273 77.5659 20.3039 78.6365C20.3048 78.6379 20.3057 78.6393 20.3067 78.6407C20.742 79.333 21.1955 80.0101 21.6675 80.6718C21.6491 80.6844 21.631 80.6988 21.612 80.7137C21.0611 81.1148 20.2594 81.7063 19.71 82.1091C19.1606 82.5118 18.611 82.9128 18.0614 83.3169C18.49 83.8792 18.917 84.4414 19.3424 85.0038C19.7678 85.5661 20.195 86.1288 20.6241 86.6919C21.0764 86.3104 21.5272 85.9293 21.9766 85.5484C22.4276 85.1683 22.9463 84.7354 23.3981 84.3552C23.005 83.8936 22.5864 83.4224 22.2147 82.9321C21.893 83.186 21.5736 83.4397 21.2513 83.692C21.4418 83.9427 21.6323 84.1936 21.8229 84.4446C21.542 84.6733 21.26 84.904 20.9791 85.1328C20.6794 84.7385 20.379 84.3425 20.079 83.9496C19.9738 83.8097 19.8683 83.6705 19.7626 83.5321C19.9071 83.4195 20.0519 83.3096 20.1959 83.2006C20.5028 82.9669 20.81 82.7314 21.1169 82.4977C21.4238 82.2641 21.9823 81.839 22.2879 81.6055C22.3017 81.5961 22.3153 81.5855 22.3295 81.5757C23.066 82.5512 23.8426 83.4912 24.6594 84.3957C25.2395 85.0412 25.8379 85.6685 26.4546 86.2777C26.4368 86.2983 26.4176 86.3187 26.3989 86.3399C25.9273 86.8299 25.2401 87.5517 24.7685 88.0421L23.3542 89.5176C23.8732 89.997 24.3904 90.4767 24.9083 90.959C25.4262 91.4412 25.9458 91.9179 26.4638 92.3975C26.8425 91.9412 27.2211 91.4873 27.5997 91.0358C27.9788 90.584 28.413 90.0678 28.7919 89.6133C28.3253 89.2282 27.8303 88.8353 27.3788 88.4177C27.1077 88.7238 26.8357 89.0269 26.5628 89.3337C26.7945 89.5488 27.0258 89.7607 27.2562 89.9764C27.0183 90.2506 26.7804 90.5252 26.5453 90.8008C26.1812 90.4648 25.817 90.1271 25.4539 89.791C25.3261 89.6709 25.1993 89.5507 25.069 89.4358C25.1919 89.3014 25.3157 89.1665 25.4381 89.0353C25.7002 88.7515 25.962 88.4659 26.2233 88.1826C26.4845 87.8993 26.961 87.3853 27.2222 87.102C27.2368 87.0844 27.2508 87.0692 27.2658 87.0516C28.1549 87.8818 29.0775 88.672 30.0335 89.4222C30.7185 89.9615 31.4193 90.4781 32.136 90.9721C32.1212 90.9955 32.1057 91.0208 32.0898 91.0422C31.7111 91.6072 31.1603 92.4377 30.781 93.0051C30.4017 93.5726 30.0243 94.1366 29.644 94.7037C30.2387 95.0838 30.8322 95.4661 31.4246 95.8506L33.2071 96.9987C33.5012 96.4851 33.7954 95.9722 34.0896 95.4598C34.3839 94.9477 34.722 94.3645 35.0163 93.8529C34.4903 93.5548 33.9349 93.2536 33.4173 92.9207C33.2026 93.2679 32.9878 93.616 32.7729 93.9651C33.0374 94.1333 33.3017 94.3043 33.567 94.4756C33.3813 94.7868 33.1956 95.0993 33.01 95.4129C32.5928 95.1445 32.1761 94.8763 31.7599 94.6081C31.613 94.5133 31.4661 94.4177 31.3195 94.3242C31.4169 94.1708 31.5151 94.0175 31.6142 93.8645L32.2389 92.8901C32.4477 92.5648 32.8266 91.9749 33.0347 91.652C33.0457 91.6339 33.0566 91.6155 33.069 91.5986C34.1345 92.2933 35.2298 92.9407 36.3549 93.5409C37.0733 93.9239 37.8031 94.2853 38.5442 94.6252C38.5352 94.648 38.5257 94.6704 38.5158 94.6932C38.2399 95.3132 37.8424 96.2287 37.5671 96.8504C37.2919 97.4722 37.0184 98.0973 36.7425 98.721C37.3952 98.9947 38.0443 99.2685 38.6953 99.5429C39.3463 99.8174 39.9988 100.089 40.6497 100.363L41.2521 98.6942C41.4526 98.1383 41.6844 97.5078 41.8854 96.9519C41.3153 96.7494 40.7166 96.5504 40.1492 96.3097C39.9974 96.6891 39.8475 97.0683 39.6951 97.45C39.9854 97.5717 40.2758 97.6941 40.5663 97.8172C40.4378 98.1559 40.3091 98.4953 40.1802 98.8356C39.7238 98.6443 39.2655 98.4519 38.8094 98.2588C38.6483 98.1924 38.4866 98.1238 38.3274 98.0571C38.3975 97.8889 38.4675 97.7202 38.5378 97.5533C38.6873 97.1972 38.8355 96.8404 38.9851 96.4852C39.1348 96.1299 39.4066 95.4829 39.553 95.1271C39.5598 95.1123 39.5651 95.0963 39.5713 95.0798C40.7393 95.5813 41.9307 96.0292 43.1452 96.4236C43.9188 96.6751 44.7006 96.9051 45.4907 97.1136L45.4783 97.1675C45.3142 97.8282 45.0805 98.7953 44.9191 99.4594C44.7578 100.123 44.5944 100.782 44.4313 101.443C45.1208 101.601 45.8096 101.758 46.4977 101.913C47.1857 102.069 47.8745 102.225 48.5642 102.382C48.6648 101.798 48.7659 101.216 48.8675 100.635C48.9688 100.054 49.0868 99.3902 49.1899 98.8085C48.5907 98.7062 47.969 98.6152 47.3674 98.4783C47.285 98.8787 47.2031 99.2791 47.1192 99.6819C47.4262 99.7498 47.7331 99.8204 48.0409 99.8909C47.9725 100.247 47.9049 100.605 47.8373 100.963C47.3546 100.853 46.8708 100.742 46.3879 100.634C46.2177 100.593 46.047 100.555 45.8769 100.515C45.9159 100.338 45.9548 100.16 45.9936 99.9823C46.0796 99.6077 46.1636 99.2283 46.248 98.8525C46.3325 98.4766 46.4879 97.7934 46.5724 97.4176C46.5751 97.4064 46.5765 97.3954 46.5792 97.3843C47.8118 97.673 49.0608 97.9059 50.3263 98.083L50.3294 98.0826C50.33 98.0822 50.3308 98.082 50.3315 98.0819C50.3323 98.0818 50.3331 98.0818 50.3338 98.082C51.1383 98.1945 51.9489 98.2863 52.7657 98.3513C52.7638 98.3695 52.7634 98.3854 52.7623 98.4022C52.7165 99.0813 52.6555 100.077 52.6097 100.756C52.5639 101.435 52.5194 102.114 52.4738 102.794C53.18 102.828 53.8856 102.863 54.5906 102.899C55.2956 102.935 56.0011 102.969 56.7071 103.001C56.7048 102.41 56.703 101.819 56.7019 101.228C56.701 100.637 56.7032 99.9634 56.7014 99.3731C56.096 99.3767 55.4644 99.3956 54.8494 99.3647C54.8365 99.7726 54.825 100.18 54.8125 100.588C55.1259 100.604 55.4412 100.62 55.7558 100.635C55.7509 100.996 55.7455 101.361 55.7413 101.725C55.2464 101.701 54.7517 101.676 54.257 101.654C54.0829 101.644 53.9079 101.634 53.734 101.626C53.7416 101.445 53.7496 101.263 53.7589 101.082C53.7772 100.696 53.7949 100.31 53.8133 99.9248C53.8316 99.5398 53.8637 98.8411 53.8819 98.4543C53.883 98.4445 53.8833 98.4346 53.8828 98.4248C55.1439 98.4937 56.4165 98.5008 57.6972 98.4545L57.7025 98.4538C58.5116 98.4244 59.325 98.3719 60.1427 98.2963C60.1447 98.3128 60.1469 98.331 60.1489 98.3479C60.2216 99.0245 60.3329 100.016 60.4069 100.692C60.4809 101.369 60.5537 102.046 60.6272 102.723C61.3287 102.634 62.0295 102.546 62.7297 102.46C63.4308 102.37 64.1303 102.281 64.8334 102.192C64.727 101.61 64.6232 101.027 64.5197 100.448C64.4162 99.8677 64.2991 99.2009 64.1975 98.6213C63.5997 98.73 62.983 98.8574 62.3724 98.9307C62.4305 99.3359 62.4906 99.739 62.549 100.146C62.8601 100.105 63.1713 100.065 63.4864 100.027C63.5448 100.386 63.6019 100.745 63.6606 101.102C63.1684 101.167 62.6767 101.229 62.1857 101.29C62.013 101.311 61.839 101.332 61.6662 101.356C61.6413 101.174 61.6192 100.994 61.5957 100.813C61.5499 100.432 61.497 100.047 61.448 99.666C61.399 99.2845 61.3109 98.5877 61.2619 98.2057C61.2605 98.1942 61.2593 98.1848 61.2579 98.1728C61.3278 98.1644 61.3971 98.1593 61.4666 98.1478C62.6727 97.9951 63.8589 97.7925 65.0252 97.54C65.8256 97.3701 66.6173 97.1767 67.4002 96.9596C67.4055 96.9774 67.4106 96.9935 67.4158 97.0101C67.6049 97.6646 67.8872 98.6203 68.0776 99.2737C68.268 99.9271 68.4564 100.583 68.6469 101.237C69.3216 101.028 69.9964 100.82 70.6712 100.612C71.3461 100.405 72.021 100.196 72.6961 99.9851C72.4908 99.4283 72.2868 98.8736 72.0841 98.3209C71.882 97.7655 71.6523 97.1308 71.4504 96.5767C70.8825 96.7876 70.295 97.0197 69.7064 97.2014C69.8346 97.5924 69.9644 97.9772 70.0923 98.3664C70.3916 98.2718 70.6926 98.1805 70.9952 98.0873C71.1148 98.4296 71.2342 98.7738 71.3538 99.1156L69.9337 99.557C69.7679 99.6089 69.6002 99.6598 69.4343 99.7104C69.3785 99.5392 69.3252 99.3655 69.2705 99.1919C69.1555 98.8247 69.0399 98.4521 68.9256 98.0866C68.8113 97.7211 68.6042 97.0489 68.4891 96.6812C68.4854 96.6716 68.4822 96.6617 68.4797 96.6516C69.7049 96.28 70.9044 95.8546 72.0782 95.3754C72.8374 95.0658 73.5829 94.7364 74.3148 94.3873C74.323 94.403 74.3326 94.419 74.341 94.4365C74.6399 95.0462 75.0857 95.9385 75.3853 96.5499C75.6848 97.1613 75.9835 97.7724 76.2875 98.3829C76.9162 98.0618 77.5444 97.7394 78.1722 97.4158L80.0577 96.4468C79.7596 95.9369 79.4624 95.4257 79.1661 94.9132C78.8697 94.403 78.5337 93.8189 78.2386 93.309C77.7159 93.6146 77.1784 93.9437 76.6298 94.2245C76.8234 94.5841 77.0171 94.9442 77.2109 95.305C77.492 95.1602 77.7715 95.0179 78.0513 94.8737C78.2306 95.1903 78.4073 95.5081 78.5839 95.8242L77.2615 96.5197C77.1048 96.5986 76.9501 96.6785 76.7936 96.7587C76.7096 96.5964 76.6259 96.4375 76.5433 96.2755C76.3666 95.9319 76.19 95.5888 76.0135 95.247C75.837 94.9052 75.5163 94.2796 75.3368 93.9386C75.3324 93.9275 75.327 93.9168 75.3207 93.9067C76.422 93.3453 77.493 92.7391 78.5335 92.088C78.5332 92.0849 78.5376 92.0844 78.5403 92.0809C78.5498 92.0762 78.559 92.0709 78.5678 92.065C78.575 92.0594 78.5827 92.0546 78.5909 92.0505C78.5949 92.0468 78.5994 92.0463 78.6035 92.0426C78.6152 92.0353 78.6264 92.0272 78.6379 92.0213C79.3303 91.5864 80.0087 91.1314 80.6731 90.6565C80.6852 90.6752 80.6985 90.6931 80.713 90.7099C81.1146 91.2612 81.7056 92.0625 82.1071 92.6125C82.5085 93.1625 82.9122 93.7118 83.3136 94.2618C83.877 93.833 84.4402 93.406 85.0032 92.9808L86.6899 91.6993C86.3096 91.2466 85.9285 90.7957 85.5465 90.3468C85.1664 89.8958 84.7353 89.3769 84.355 88.9246C83.8935 89.3182 83.4222 89.7364 82.9319 90.1085C83.1838 90.4292 83.4369 90.7499 83.6912 91.0706C83.9393 90.881 84.1902 90.6905 84.4438 90.499C84.6731 90.7808 84.9039 91.0637 85.1343 91.3434C84.7396 91.6427 84.3446 91.9428 83.9494 92.2437C83.8094 92.3481 83.6718 92.454 83.5319 92.5597C83.4207 92.4164 83.3111 92.2702 83.2017 92.1258C82.968 91.8189 82.733 91.5121 82.4992 91.2047C82.2655 90.8973 81.8401 90.3398 81.6067 90.0356C81.5973 90.0214 81.5869 90.01 81.5769 89.994C82.5496 89.2587 83.4874 88.484 84.3904 87.6698C85.0382 87.0864 85.6681 86.4848 86.2802 85.8651C86.2993 85.8845 86.3199 85.9023 86.3394 85.9212C86.8307 86.3927 87.5529 87.0793 88.0427 87.5496C88.5326 88.0199 89.0264 88.4925 89.517 88.9654C89.9985 88.4465 90.4781 87.9287 90.9558 87.4121C91.4334 86.8955 91.9139 86.3764 92.3972 85.8549C91.9409 85.4762 91.4869 85.0978 91.0352 84.7195C90.5833 84.3399 90.0675 83.9052 89.6127 83.5278C89.2262 83.994 88.835 84.4884 88.417 84.9399C88.7233 85.212 89.0267 85.4834 89.333 85.7555C89.546 85.524 89.7602 85.2933 89.9758 85.0634C90.2504 85.3013 90.5246 85.5393 90.801 85.777C90.4647 86.1419 90.127 86.5035 89.7912 86.8684C89.671 86.9952 89.5509 87.123 89.4355 87.2524C89.3011 87.1299 89.1662 87.0062 89.0349 86.8824C88.7511 86.6213 88.4647 86.3604 88.1826 86.0972C87.9004 85.834 87.385 85.3613 87.1015 85.0983C87.0852 85.0846 87.0696 85.07 87.0547 85.0547C87.8844 84.1663 88.6757 83.2436 89.4285 82.2867C89.9675 81.602 90.4839 80.9009 90.9778 80.1834C91.0013 80.1986 91.0264 80.2127 91.0475 80.2269C91.6119 80.6106 92.4419 81.1575 93.0071 81.5374C93.5724 81.9174 94.1404 82.2944 94.7056 82.6739C95.0898 82.0793 95.47 81.486 95.8543 80.8927L97.0025 79.1111C96.4892 78.8172 95.9763 78.5231 95.4636 78.2286C94.9516 77.9347 94.3696 77.596 93.8578 77.3004C93.56 77.8282 93.2573 78.3828 92.9246 78.9022L93.9674 79.5445C94.1371 79.2813 94.3103 79.0162 94.4807 78.7511C94.7919 78.9367 95.1038 79.1237 95.4168 79.3091C95.1479 79.7243 94.8783 80.1413 94.612 80.5588C94.5167 80.7051 94.422 80.8519 94.328 80.9992C94.1731 80.9009 94.02 80.8023 93.8697 80.7052L92.8923 80.0772C92.569 79.87 91.9788 79.4889 91.6524 79.282C91.6363 79.2718 91.6192 79.2612 91.6033 79.2496C92.2966 78.1835 92.9474 77.0878 93.546 75.9627C93.9282 75.2432 94.2894 74.513 94.6297 73.7721C94.6512 73.7817 94.6735 73.7912 94.6948 73.7995C95.3184 74.075 96.2303 74.4729 96.8533 74.7471C97.4762 75.0213 98.1003 75.2972 98.724 75.5731C98.9977 74.9204 99.2715 74.2712 99.5459 73.6198C99.8203 72.9684 100.092 72.3168 100.366 71.6658C99.8082 71.4651 99.2536 71.2644 98.6972 71.0635C98.1408 70.8625 97.5094 70.6309 96.9548 70.4298C96.7526 71.0017 96.5534 71.5989 96.3129 72.1673C96.6922 72.3186 97.0714 72.4686 97.4509 72.6212C97.5727 72.3303 97.6947 72.04 97.8167 71.7502C98.1563 71.8789 98.4966 72.0072 98.8376 72.1351C98.6433 72.5923 98.4509 73.0506 98.2597 73.5069C98.1931 73.6671 98.1245 73.8288 98.058 73.9894C97.8898 73.9193 97.7211 73.8493 97.5528 73.7792C97.1997 73.6279 96.8398 73.4801 96.4843 73.3323C96.1289 73.1844 95.4856 72.9104 95.128 72.7633C95.1127 72.7561 95.0986 72.7515 95.0805 72.7442C95.5815 71.577 96.0299 70.386 96.4258 69.1709C96.6773 68.3979 96.9073 67.6164 97.1159 66.8263C97.1333 66.8287 97.1507 66.8347 97.1701 66.8383C97.8291 67.0021 98.7979 67.2352 99.4602 67.3967C100.122 67.5583 100.783 67.7223 101.444 67.8846C101.602 67.195 101.759 66.5066 101.915 65.8194C102.072 65.1321 102.228 64.4431 102.384 63.7523C101.8 63.6515 101.217 63.5502 100.636 63.4484C100.054 63.3477 99.391 63.229 98.8093 63.126C98.707 63.7251 98.6143 64.3484 98.4805 64.9487C98.8794 65.0299 99.28 65.1141 99.6787 65.1967C99.7496 64.8884 99.819 64.5835 99.8895 64.2753C100.247 64.3434 100.602 64.4109 100.961 64.4784C100.85 64.9625 100.74 65.4463 100.631 65.9298C100.593 66.0974 100.553 66.2696 100.516 66.4403C100.337 66.4016 100.16 66.3628 99.9832 66.3236C99.6067 66.2365 99.2291 66.1527 98.8533 66.0687C98.4776 65.9847 97.7931 65.8299 97.4149 65.7448C97.4057 65.7427 97.3964 65.7407 97.3849 65.7389C97.6739 64.5063 97.9063 63.2566 98.082 61.9898C98.082 61.9898 98.0814 61.9854 98.0813 61.984C98.1936 61.1787 98.2858 60.3712 98.3521 59.5543L98.3976 59.5578C99.0803 59.6036 100.071 59.6648 100.752 59.7104C101.433 59.756 102.111 59.801 102.79 59.8454C102.825 59.1399 102.861 58.4346 102.897 57.7296C102.933 57.0247 102.967 56.3189 102.999 55.6122L101.225 55.6175C100.635 55.6179 99.9609 55.6153 99.3712 55.6184C99.3748 56.2238 99.3918 56.8538 99.3628 57.4704C99.7699 57.4817 100.178 57.4937 100.586 57.5064C100.6 57.1923 100.617 56.8788 100.633 56.5626C100.995 56.5688 101.36 56.5724 101.723 56.5767C101.699 57.0713 101.675 57.5662 101.649 58.0614C101.643 58.236 101.632 58.411 101.622 58.5861C101.443 58.5782 101.259 58.5696 101.079 58.5609C100.694 58.5426 100.308 58.5258 99.921 58.5059C99.5344 58.4859 98.8373 58.4554 98.4522 58.4366C98.4429 58.4373 98.4336 58.4374 98.4242 58.4368C98.4924 57.1742 98.502 55.9009 98.4533 54.6171C98.4226 53.8081 98.3691 52.9947 98.2926 52.1768C98.3108 52.1746 98.3259 52.1728 98.3442 52.1706C99.0211 52.097 100.01 51.9855 100.687 51.912C101.364 51.8384 102.041 51.7652 102.718 51.6916C102.63 50.9897 102.542 50.2906 102.455 49.5891C102.368 48.8876 102.276 48.1876 102.189 47.4861C101.606 47.5916 101.024 47.6962 100.443 47.8C99.8618 47.9041 99.197 48.0191 98.6144 48.1224C98.7248 48.7187 98.8526 49.3358 98.9291 49.9465L100.141 49.7703C100.103 49.4588 100.063 49.1476 100.025 48.833C100.379 48.7746 100.742 48.7163 101.1 48.6587C101.163 49.1502 101.225 49.6419 101.287 50.1338C101.308 50.3065 101.329 50.4814 101.353 50.6537C101.172 50.6776 100.993 50.701 100.812 50.724C100.43 50.7721 100.046 50.8228 99.6641 50.8718C99.2822 50.9208 98.5862 51.0089 98.203 51.0585L98.1727 51.0621C98.1645 50.9936 98.1562 50.9241 98.1481 50.8569C97.9955 49.65 97.7897 48.4621 97.5399 47.2952C97.3684 46.4933 97.1749 45.7014 96.9595 44.9198C96.9764 44.9178 96.9922 44.91 97.0087 44.9049C97.6633 44.7166 98.6171 44.4332 99.272 44.244C99.9269 44.0548 100.58 43.8612 101.235 43.6742C101.027 42.9977 100.818 42.3248 100.609 41.6496C100.4 40.9745 100.19 40.3004 99.9817 39.6257C99.427 39.8292 98.8724 40.0326 98.3177 40.2358C97.7623 40.4379 97.1289 40.6675 96.575 40.8707C96.7845 41.4393 97.0179 42.0252 97.1995 42.6134L98.3646 42.2283C98.2703 41.9282 98.1791 41.6271 98.0842 41.3261C98.4269 41.2055 98.7724 41.0868 99.1142 40.9668C99.2613 41.4394 99.4084 41.9127 99.5556 42.3865C99.608 42.5522 99.6589 42.7208 99.7095 42.8867L99.191 43.0501C98.8236 43.1637 98.4511 43.2802 98.0851 43.3942C97.7191 43.5081 97.0476 43.7173 96.6788 43.8339C96.6699 43.8349 96.6615 43.8405 96.6511 43.8435C96.278 42.6165 95.8518 41.4163 95.3759 40.2431C95.0671 39.4856 94.7377 38.7401 94.3878 38.0065L94.4357 37.9804C95.0472 37.6813 95.9379 37.2376 96.5506 36.9374L98.3836 36.0352C98.0622 35.4065 97.7398 34.7782 97.4165 34.1504C97.0914 33.5226 96.769 32.894 96.4484 32.2653L94.9139 33.1565C94.4031 33.4526 93.816 33.789 93.3074 34.0839C93.6145 34.6073 93.9434 35.1434 94.2263 35.6914L95.3051 35.1104C95.1604 34.8303 95.018 34.5507 94.8737 34.2697C95.1906 34.0926 95.5083 33.9149 95.8259 33.7364C96.0509 34.1775 96.2794 34.6183 96.5044 35.0594L96.7449 35.5249L96.2613 35.7757C95.9168 35.9525 95.5732 36.1292 95.2319 36.3056C94.8905 36.4821 94.2659 36.8031 93.9229 36.9811C93.9128 36.9868 93.9026 36.9921 93.8923 36.9969C93.3299 35.897 92.7232 34.8261 92.0723 33.7843C92.0707 33.7822 92.0694 33.78 92.0684 33.7776C92.0621 33.7687 92.0563 33.7594 92.0511 33.7498L92.0289 33.7159C92.0211 33.7033 92.0135 33.6929 92.0057 33.6808C92.0057 33.6808 92.0054 33.6777 92.0053 33.6768C91.5702 32.9859 91.1163 32.309 90.6437 31.6461C90.6605 31.6324 90.6806 31.6196 90.6971 31.6059C91.2489 31.2046 92.0495 30.6119 92.5995 30.2104L94.2491 29.0029C93.8204 28.4404 93.3935 27.8777 92.9683 27.3147C92.5432 26.7518 92.1159 26.1894 91.6863 25.6276C91.234 26.0093 90.7822 26.3906 90.3307 26.7714C89.8797 27.1515 89.3628 27.5842 88.91 27.9645C89.304 28.4255 89.7204 28.8974 90.0926 29.3877C90.4128 29.1344 90.7341 28.8811 91.0564 28.6278C90.8665 28.3765 90.6749 28.1269 90.4844 27.8752C90.7665 27.6454 91.049 27.4151 91.3287 27.1843C91.6287 27.5795 91.9284 27.9747 92.2277 28.3698C92.3346 28.5082 92.4394 28.6477 92.545 28.7863C92.3997 28.8976 92.2553 29.008 92.1116 29.1173C91.8042 29.3511 91.4975 29.5865 91.1901 29.8203C90.8828 30.054 90.325 30.4776 90.0194 30.7112C90.0072 30.7217 89.9943 30.7309 89.9815 30.741C89.2465 29.7683 88.4718 28.8306 87.6573 27.928C87.0751 27.2797 86.4741 26.6497 85.8544 26.0379L85.9101 25.9793C86.3804 25.489 87.067 24.7664 87.5384 24.2746C88.0098 23.7828 88.4813 23.2918 88.9528 22.8C88.4356 22.3204 87.9178 21.8408 87.3995 21.3612L86.2887 20.333L86.889 19.4031C87.3009 19.7844 87.7144 20.1677 88.1263 20.5485C88.7856 21.1616 89.4459 21.7736 90.1074 22.3847C90.2401 22.5082 90.3721 22.6305 90.5067 22.7552C90.3777 22.8836 90.2486 23.0119 90.121 23.1406C89.6423 23.6247 89.1595 24.1084 88.6793 24.5913C88.1992 25.0742 87.7186 25.5576 87.239 26.0419C87.6123 26.3871 87.9661 26.7726 88.3002 27.1456C88.7767 26.7376 89.2988 26.2952 89.7013 25.944L91.449 24.4182L91.8608 24.0577C91.9685 24.2027 92.0816 24.3472 92.1915 24.492C92.734 25.2088 93.2802 25.9265 93.8227 26.6438L95.4571 28.7952C95.5671 28.9397 95.6768 29.0844 95.786 29.2293C95.6355 29.3336 95.487 29.439 95.3396 29.5429C94.7821 29.9358 94.2249 30.3283 93.6679 30.7205C93.1125 31.1141 92.5537 31.5062 91.9981 31.8984C92.305 32.3036 92.5869 32.7451 92.8518 33.1697C93.3918 32.8503 93.9821 32.5063 94.4398 32.231L96.4252 31.0306C96.5816 30.9369 96.7378 30.8429 96.8939 30.7486C96.9746 30.91 97.059 31.0714 97.143 31.2329C97.5542 32.0335 97.9656 32.8341 98.3771 33.6346C98.7886 34.4352 99.2008 35.2364 99.6137 36.0383C99.6963 36.1996 99.7787 36.3611 99.8611 36.5228C99.6968 36.5989 99.532 36.6774 99.3691 36.753C98.7522 37.0446 98.1349 37.3327 97.5179 37.6235C96.9009 37.9143 96.2836 38.2028 95.6679 38.493C95.8992 38.9456 96.1017 39.4296 96.2874 39.8931C96.8746 39.6736 97.5183 39.4361 98.0153 39.2441C98.7385 38.965 99.4585 38.6858 100.182 38.4075C100.35 38.3421 100.519 38.2767 100.69 38.2111C100.745 38.3851 100.799 38.5591 100.853 38.7333C101.119 39.5925 101.384 40.4524 101.65 41.313C101.915 42.1735 102.182 43.0339 102.45 43.8941C102.503 44.0683 102.558 44.24 102.611 44.4143C102.436 44.4614 102.258 44.5081 102.086 44.5558L100.113 45.0911C99.4561 45.2696 98.7985 45.4478 98.14 45.6259C98.2887 46.1128 98.4024 46.6238 98.5071 47.1123C99.1254 46.9975 99.7966 46.8762 100.321 46.7735C101.08 46.6256 101.838 46.4745 102.598 46.3246L103.134 46.2196C103.156 46.3998 103.177 46.5805 103.202 46.76C103.314 47.6536 103.427 48.5466 103.541 49.4389C103.655 50.3312 103.767 51.2251 103.879 52.1206C103.901 52.2986 103.923 52.4797 103.949 52.6602C103.766 52.6754 103.584 52.6919 103.404 52.7081C102.726 52.7702 102.047 52.8317 101.368 52.8925C100.688 52.9533 100.009 53.015 99.3312 53.0774C99.3948 53.5813 99.4193 54.1052 99.4343 54.6063C100.061 54.5988 100.746 54.596 101.28 54.5861C102.054 54.5712 102.827 54.5557 103.6 54.5397L104.147 54.529C104.138 54.7106 104.131 54.8921 104.122 55.0737C104.076 55.9709 104.034 56.8726 103.989 57.7696C103.945 58.6666 103.901 59.5698 103.857 60.4685C103.848 60.6502 103.839 60.8318 103.832 61.0133C103.65 60.9982 103.467 60.9817 103.285 60.9666C102.608 60.9124 101.927 60.851 101.25 60.7941C100.573 60.7373 99.8909 60.6806 99.2122 60.6234C99.1865 61.1313 99.1183 61.6496 99.0468 62.1444C99.6654 62.2467 100.34 62.3611 100.866 62.4438C101.63 62.5643 102.394 62.6816 103.159 62.8006C103.339 62.8296 103.518 62.8586 103.7 62.8865C103.661 63.0633 103.62 63.2403 103.579 63.4175L102.982 66.0507C102.781 66.9281 102.581 67.8085 102.381 68.6844L102.261 69.2158C102.086 69.169 101.908 69.1227 101.734 69.0759C101.076 68.9025 100.415 68.7268 99.7584 68.5537C99.1016 68.3807 98.4397 68.2041 97.7809 68.0299C97.6683 68.5243 97.5114 69.0262 97.3566 69.5012C97.9473 69.7088 98.5912 69.9399 99.0965 70.1135C99.8275 70.3637 100.559 70.6138 101.292 70.8635C101.465 70.9222 101.636 70.9819 101.81 71.0411C101.739 71.2079 101.669 71.374 101.599 71.5426C101.25 72.3719 100.901 73.2016 100.553 74.0316C100.205 74.8617 99.8558 75.6923 99.5062 76.5234C99.436 76.6903 99.3656 76.8563 99.293 77.0262C99.1296 76.9474 98.9639 76.872 98.8012 76.7958C98.1799 76.5093 97.5622 76.2222 96.9435 75.9353C96.3249 75.6484 95.7079 75.3641 95.0888 75.0772C94.89 75.5458 94.6493 76.0112 94.4146 76.4516C94.9592 76.7614 95.5532 77.0986 96.0211 77.3594C96.6978 77.7319 97.3772 78.1036 98.0515 78.4781C98.2129 78.5662 98.3707 78.6547 98.5325 78.7432C98.4321 78.8952 98.3351 79.0464 98.2366 79.1999C97.7495 79.9564 97.2617 80.713 96.7732 81.47C96.2847 82.2269 95.7997 82.9827 95.3182 83.7376C95.2193 83.8881 95.1208 84.0412 95.0222 84.1944C94.8742 84.0893 94.7234 83.9842 94.5757 83.8818C94.0158 83.4925 93.4561 83.1035 92.8966 82.715C92.3371 82.3265 91.7775 81.9371 91.2177 81.5468C90.9414 81.9751 90.6226 82.3917 90.3144 82.784C90.797 83.1829 91.3264 83.6218 91.7422 83.9565C92.3444 84.4423 92.9468 84.9267 93.5492 85.41C93.6908 85.5253 93.8324 85.6406 93.9752 85.7544C93.8512 85.8875 93.7286 86.0205 93.6047 86.1541C92.9918 86.8146 92.3803 87.4749 91.7703 88.1351C91.1575 88.7955 90.545 89.4582 89.9354 90.1188C89.8117 90.2505 89.6875 90.3824 89.5633 90.5174C89.4358 90.3878 89.3066 90.2588 89.1777 90.133C88.6939 89.6529 88.2108 89.1717 87.7286 88.6894C87.2436 88.2112 86.7614 87.7292 86.2789 87.249C85.9319 87.6229 85.545 87.9763 85.1735 88.3117C85.581 88.7874 86.0237 89.3089 86.375 89.7114C86.8829 90.2946 87.3916 90.8777 87.901 91.4609C88.0221 91.5972 88.1414 91.7332 88.2611 91.8728C88.1169 91.9804 87.9713 92.0918 87.827 92.2017C87.1113 92.7458 86.3925 93.2903 85.6754 93.8347C84.9584 94.379 84.2408 94.9229 83.5239 95.4677C83.3797 95.5753 83.2342 95.6871 83.0897 95.7961L82.7779 95.3496C82.3848 94.7927 81.9919 94.2355 81.5993 93.678C81.2067 93.1224 80.8137 92.5642 80.4205 92.0082C80.015 92.3151 79.5735 92.5975 79.1488 92.8625C79.4687 93.4019 79.8136 93.9926 80.0897 94.4497C80.4889 95.1121 80.8886 95.774 81.2888 96.4353L81.5709 96.9044C81.4101 96.9864 81.2493 97.0689 81.0874 97.1529C80.2863 97.5648 79.4859 97.9762 78.6861 98.387C77.8864 98.7978 77.0852 99.2101 76.2825 99.6237C76.1197 99.7046 75.9587 99.7885 75.7984 99.8709C75.72 99.7065 75.6436 99.5405 75.5667 99.3773C75.2742 98.761 74.9865 98.1431 74.6957 97.5261C74.4049 96.9091 74.1168 96.2918 73.828 95.6759C73.3741 95.9078 72.8896 96.11 72.4261 96.2957C72.6442 96.8826 72.8843 97.5247 73.0762 98.0212C73.3535 98.7442 73.6336 99.464 73.9127 100.187C73.9786 100.36 74.0437 100.526 74.1094 100.697L73.587 100.858L71.0075 101.657C70.1479 101.923 69.2877 102.189 68.4268 102.457C68.2524 102.509 68.0784 102.563 67.9044 102.618C67.8569 102.441 67.8099 102.263 67.763 102.091C67.584 101.433 67.4055 100.774 67.2275 100.116C67.0494 99.4579 66.8716 98.8003 66.694 98.1432C66.2079 98.2941 65.6942 98.4077 65.2055 98.5111C65.3208 99.1293 65.4415 99.8001 65.5442 100.325C65.6941 101.084 65.8432 101.842 65.9932 102.602C66.0299 102.78 66.0636 102.959 66.0991 103.138C65.9184 103.16 65.7381 103.181 65.558 103.207C64.6643 103.319 63.7713 103.432 62.8788 103.544C61.9868 103.658 61.0915 103.77 60.1992 103.885C60.0185 103.906 59.8387 103.928 59.6584 103.953C59.6423 103.77 59.6258 103.588 59.6106 103.408C59.5481 102.729 59.4866 102.051 59.4263 101.373C59.366 100.695 59.3045 100.016 59.2419 99.3363C58.7367 99.3969 58.214 99.424 57.7134 99.4394C57.7191 100.066 57.7222 100.75 57.7326 101.284C57.7477 102.057 57.7632 102.83 57.7791 103.604C57.7826 103.787 57.7849 103.968 57.7894 104.153L57.2446 104.128C56.3454 104.083 55.4463 104.04 54.5472 103.996C53.6481 103.953 52.7485 103.909 51.8483 103.864L51.3033 103.837C51.3188 103.654 51.3348 103.472 51.3506 103.295C51.4066 102.615 51.4655 101.936 51.5226 101.257C51.5797 100.578 51.6364 99.899 51.6938 99.219C51.1856 99.1938 50.6656 99.1271 50.1702 99.0543C50.0679 99.6724 49.9531 100.344 49.8706 100.872C49.7496 101.636 49.6324 102.4 49.5138 103.165C49.4853 103.345 49.4573 103.525 49.4292 103.705C49.2524 103.665 49.0754 103.623 48.8974 103.584C48.0205 103.385 47.1428 103.186 46.2644 102.986C45.3859 102.786 44.5077 102.587 43.6297 102.389L43.0983 102.268C43.146 102.09 43.1937 101.915 43.2395 101.74C43.4131 101.08 43.5887 100.423 43.7627 99.7621C43.9366 99.1015 44.1107 98.4454 44.2862 97.7864C43.7897 97.674 43.29 97.5169 42.8145 97.3622C42.6064 97.9529 42.3759 98.5968 42.202 99.1007C41.9511 99.8333 41.701 100.566 41.4518 101.297C41.3927 101.471 41.3335 101.644 41.2742 101.815C41.1073 101.745 40.9413 101.675 40.7722 101.605C39.9437 101.257 39.1139 100.909 38.2829 100.56C37.4519 100.211 36.623 99.8617 35.7963 99.5113C35.629 99.4411 35.4618 99.3709 35.2947 99.3006C35.3718 99.1343 35.4492 98.9661 35.5242 98.8054C35.8111 98.1867 36.098 97.5681 36.3849 96.9495C36.6718 96.3308 36.9578 95.7121 37.2429 95.0934C36.7743 94.8978 36.3086 94.6553 35.8676 94.4193C35.5604 94.9663 35.221 95.561 34.9629 96.0285C34.5888 96.7037 34.2155 97.3806 33.8428 98.0592C33.7548 98.2178 33.6667 98.3787 33.5785 98.5387C33.4264 98.4383 33.2731 98.3415 33.1206 98.2411C32.365 97.7558 31.6082 97.2686 30.8504 96.7796C30.0925 96.2906 29.3354 95.8029 28.579 95.3164L28.122 95.0223C28.2262 94.8712 28.3316 94.7217 28.4344 94.574C28.8225 94.0139 29.2117 93.4542 29.602 92.8947C29.9895 92.3349 30.3794 91.7775 30.7691 91.2174C30.3423 90.9422 29.9257 90.6234 29.532 90.314C29.1338 90.7997 28.6952 91.3278 28.3591 91.7433C27.8752 92.3456 27.3907 92.948 26.9057 93.5507C26.7919 93.6935 26.6764 93.8333 26.5622 93.9762C26.4297 93.8539 26.2964 93.7295 26.1633 93.606C25.5028 92.993 24.8425 92.3814 24.1823 91.7712C23.5221 91.1601 22.8615 90.546 22.2014 89.9363C22.0682 89.8123 21.9364 89.6882 21.8016 89.5658C21.931 89.4369 22.0601 89.309 22.1873 89.18C22.6675 88.695 23.1482 88.2114 23.6294 87.7292C24.1105 87.2471 24.5907 86.764 25.0698 86.28C24.6967 85.9325 24.342 85.5462 24.0076 85.1746C23.5323 85.582 23.0094 86.0245 22.6082 86.3755C22.0251 86.8835 21.4424 87.3922 20.8601 87.9019C20.7224 88.0227 20.5855 88.1421 20.4473 88.2616C20.3379 88.1179 20.2283 87.9734 20.1185 87.8279C19.5752 87.1106 19.0307 86.3935 18.485 85.6764C17.9394 84.9594 17.3949 84.2422 16.8516 83.5249C16.744 83.3812 16.6334 83.2378 16.5225 83.0927C16.6725 82.9884 16.8219 82.8829 16.9692 82.779L18.6408 81.6004C19.1956 81.2079 19.7525 80.8155 20.3112 80.4234C20.0045 80.0191 19.722 79.5763 19.4565 79.1517C18.9173 79.4698 18.3271 79.8146 17.8704 80.0907C17.2082 80.4903 16.5459 80.8926 15.8837 81.2917C15.7278 81.3845 15.5718 81.48 15.4155 81.5737C15.3326 81.413 15.2499 81.2509 15.1663 81.0885C14.7543 80.2892 14.342 79.4868 13.93 78.6879C13.5181 77.8891 13.1057 77.0858 12.6934 76.2838C12.6114 76.123 12.5284 75.9617 12.4443 75.8C12.6102 75.7231 12.7757 75.6464 12.9393 75.5685C13.5556 75.2793 14.1724 74.9895 14.7897 74.699C15.4071 74.4085 16.0237 74.1186 16.6397 73.8295C16.4076 73.3774 16.2057 72.8915 16.02 72.4276C15.4348 72.6486 14.7924 72.886 14.2923 73.0784C13.5709 73.357 12.8495 73.6362 12.1283 73.916C11.9588 73.9812 11.7888 74.0468 11.6183 74.1127C11.5644 73.9386 11.5105 73.7645 11.4571 73.5903C11.1913 72.7319 10.9251 71.8721 10.6585 71.0108C10.392 70.1495 10.1257 69.2891 9.8597 68.4295C9.80584 68.2554 9.75191 68.0845 9.69812 67.9072C9.8732 67.8613 10.0482 67.8146 10.2231 67.7674C10.8786 67.5871 11.5399 67.4093 12.1975 67.2306C12.855 67.0519 13.5122 66.8741 14.1697 66.6954C14.0213 66.2107 13.9054 65.6969 13.8022 65.2095C13.1839 65.3239 12.5132 65.446 11.9896 65.5486C11.23 65.6966 10.4709 65.8457 9.71244 65.9958C9.53357 66.0326 9.35477 66.0662 9.17529 66.1018C9.15392 65.9238 9.13217 65.7426 9.1072 65.561C8.99379 64.669 8.88103 63.7761 8.76893 62.8824C8.65682 61.9888 8.54383 61.0952 8.42994 60.2017C8.40857 60.0237 8.38683 59.8426 8.36197 59.6618C8.54404 59.6466 8.72538 59.6304 8.90601 59.6132C9.58457 59.5519 10.2633 59.4904 10.9421 59.4288L12.9777 59.2445C12.9171 58.7393 12.8913 58.2165 12.8732 57.7157C12.2469 57.7223 11.5652 57.726 11.0296 57.7361C10.2558 57.7508 9.48202 57.7663 8.70838 57.7828L8.16241 57.7928C8.1713 57.6111 8.1802 57.4295 8.18731 57.248C8.22983 56.3487 8.2736 55.4497 8.3186 54.551C8.36361 53.6523 8.4076 52.7527 8.45057 51.8522C8.45991 51.6705 8.4688 51.4888 8.47546 51.3074L9.01793 51.3547C9.69752 51.4086 10.3776 51.47 11.0562 51.5267C11.7347 51.5834 12.4139 51.6414 13.0933 51.6975C13.1182 51.1898 13.1864 50.6674 13.2561 50.1723C12.6388 50.0699 11.9658 49.9543 11.4381 49.8723C10.6738 49.7534 9.90951 49.6344 9.1452 49.5155L8.60453 49.4305C8.6452 49.2541 8.68493 49.0773 8.72599 48.9004C8.92486 48.0223 9.12433 47.1442 9.32439 46.266C9.52445 45.3879 9.72375 44.5096 9.92229 43.6313L10.0431 43.0999C10.2195 43.1478 10.3938 43.1932 10.5698 43.2412C11.2294 43.4144 11.8885 43.5903 12.5459 43.7642C13.2033 43.9381 13.864 44.1125 14.5229 44.2871C14.6367 43.7913 14.7933 43.2908 14.9475 42.8154C14.3573 42.6072 13.7125 42.3768 13.2073 42.2036C12.4762 41.9527 11.7443 41.7027 11.0116 41.4536C10.8402 41.3943 10.6675 41.336 10.4937 41.2761C10.564 41.1092 10.6343 40.9432 10.7043 40.774L11.7508 38.285L12.7972 35.7942C12.8674 35.6271 12.9376 35.4595 13.0077 35.2913C13.1729 35.3698 13.3378 35.4462 13.5022 35.5217C14.1217 35.8085 14.7405 36.0954 15.3585 36.3824C15.9766 36.6693 16.5952 36.9552 17.2145 37.2399C17.4114 36.7707 17.6535 36.3055 17.8876 35.8638C17.3419 35.5564 16.7487 35.2177 16.2798 34.9598C15.6029 34.586 14.926 34.2124 14.2491 33.8388L13.7692 33.5755C13.8687 33.4227 13.9674 33.2709 14.0655 33.1178C14.5528 32.361 15.0404 31.6044 15.5284 30.8478L16.9911 28.5765C17.0902 28.4238 17.1879 28.2716 17.286 28.1181C17.4342 28.2245 17.5851 28.3269 17.7335 28.4314C18.2939 28.8195 18.8535 29.2088 19.4123 29.5992C19.9725 29.9865 20.531 30.3773 21.0914 30.766C21.3674 30.3383 21.6857 29.9213 21.9943 29.5289C21.51 29.1311 20.9848 28.6935 20.5685 28.3588C19.9686 27.8737 19.3661 27.3892 18.7611 26.9054C18.6196 26.791 18.4786 26.6765 18.3362 26.5622C18.4598 26.4296 18.5827 26.2956 18.7058 26.1626C19.3188 25.5027 19.9307 24.8423 20.5415 24.1815L22.3768 22.2005C22.5003 22.0669 22.6234 21.9338 22.7473 21.8007C22.8757 21.9297 23.0039 22.0579 23.1331 22.1864C23.6178 22.6664 24.1012 23.1468 24.5833 23.6276C25.0655 24.1085 25.5489 24.5884 26.0338 25.0675C26.3801 24.695 26.7654 24.3395 27.1376 24.0063C26.7304 23.5292 26.2874 23.0091 25.9362 22.6074C25.4278 22.0238 24.9173 21.4417 24.4103 20.8584C24.29 20.7216 24.1706 20.5847 24.0499 20.4475C24.1941 20.3399 24.3394 20.2272 24.4843 20.1177C25.2015 19.5735 25.9187 19.0291 26.6359 18.4847L28.7873 16.8508C28.9311 16.7432 29.0769 16.6309 29.2215 16.5224C29.3256 16.6715 29.4306 16.82 29.5341 16.9683C29.9279 17.5251 30.32 18.0839 30.7126 18.6395C31.1053 19.195 31.4974 19.7534 31.8906 20.3102C32.2957 20.0029 32.7373 19.721 33.1624 19.4564C32.843 18.9173 32.4975 18.3259 32.2224 17.8695C31.8227 17.2069 31.4223 16.5447 31.0214 15.8828C30.9279 15.7279 30.8339 15.5717 30.7394 15.4142C30.9003 15.333 31.0619 15.2495 31.223 15.1665L33.6249 13.9301L36.0276 12.6935C36.1898 12.6113 36.3509 12.5283 36.5124 12.4448C36.5893 12.6112 36.6662 12.7744 36.7434 12.9394C37.035 13.5559 37.3235 14.1732 37.6135 14.7907C37.9034 15.4083 38.1926 16.0232 38.4839 16.6406C38.9351 16.4059 39.4204 16.2058 39.8844 16.021C39.6641 15.4348 39.4259 14.793 39.2336 14.2933C38.9556 13.5718 38.6768 12.85 38.3972 12.1278C38.3311 11.9588 38.2656 11.7891 38.2006 11.6187C38.3726 11.5655 38.5458 11.5122 38.7198 11.4575L41.2998 10.6593L43.8806 9.85961C44.0549 9.80753 44.2289 9.75278 44.403 9.69847C44.4506 9.87334 44.4978 10.0483 44.5453 10.2258C44.7244 10.8833 44.903 11.541 45.081 12.199C45.259 12.8569 45.4376 13.5145 45.6167 14.1717C46.1018 14.0231 46.6139 13.9075 47.1018 13.8047C46.9878 13.1863 46.8649 12.5162 46.7626 11.9912C46.6134 11.2323 46.4639 10.4735 46.3141 9.71463C46.279 9.53826 46.2441 9.3569 46.209 9.17737L46.7489 9.10939L49.4283 8.77056L52.1091 8.43202L52.648 8.36371C52.6639 8.54509 52.6794 8.72653 52.6966 8.90731C52.7578 9.58663 52.8213 10.2657 52.8811 10.9443C52.9409 11.6229 53.0042 12.301 53.0668 12.9798C53.5716 12.9164 54.0948 12.8934 54.595 12.8748C54.5876 12.2491 54.5856 11.5667 54.5737 11.0314C54.5592 10.2584 54.5443 9.48503 54.529 8.71125C54.5252 8.52872 54.5216 8.34645 54.5184 8.16445L55.0632 8.18934C55.9604 8.23211 56.859 8.27637 57.759 8.32212C58.6577 8.36592 59.5595 8.4089 60.4578 8.4532C60.6394 8.46209 60.8211 8.47098 61.0025 8.4781C60.9861 8.66066 60.9709 8.84306 60.9541 9.0225C60.9002 9.70121 60.8404 10.3802 60.7838 11.0601C60.7273 11.74 60.6683 12.4175 60.6111 13.0961C61.119 13.1223 61.639 13.189 62.1333 13.2601C62.2395 12.6411 62.3532 11.9669 62.4344 11.4398C62.5549 10.6759 62.6721 9.91105 62.7912 9.14732C62.8188 8.96748 62.8464 8.7872 62.8757 8.60626L63.4067 8.72761L66.0401 9.32567C66.9174 9.52554 67.7956 9.72499 68.6749 9.92402L69.2063 10.0449C69.1567 10.2215 69.1132 10.3969 69.0633 10.5717C68.8919 11.2311 68.7159 11.8902 68.5412 12.5486C68.3666 13.207 68.1933 13.8658 68.0191 14.5246C68.5153 14.6375 69.0153 14.7942 69.4905 14.9502C69.6994 14.3585 69.9291 13.7152 70.1028 13.2099C70.3532 12.4783 70.6036 11.7462 70.854 11.0136C70.9115 10.842 70.9711 10.6691 71.0302 10.4959C71.1971 10.5661 71.3631 10.6365 71.5318 10.7065L74.0208 11.7531L76.5127 12.8002L77.0134 13.0109C76.9379 13.1762 76.8594 13.3423 76.7852 13.5056C76.4984 14.1251 76.2115 14.7439 75.9245 15.362C75.6403 15.9803 75.3507 16.5992 75.0664 17.2171C75.5362 17.4149 76.0017 17.6556 76.4421 17.8912C76.7486 17.3456 77.089 16.7513 77.3472 16.2846C77.721 15.6077 78.0948 14.9308 78.4686 14.2538C78.5555 14.0935 78.6419 13.9337 78.7311 13.774C78.8843 13.8726 79.0374 13.9711 79.1887 14.0694C79.9455 14.5567 80.7027 15.0443 81.4604 15.5321L83.0103 16.532L82.1078 17.2354C81.6507 16.9404 81.3424 16.7526 80.8858 16.4575C80.2891 16.075 79.6946 15.6923 79.1024 15.3096C78.8078 15.8238 78.5137 16.3367 78.2203 16.8484C77.9265 17.3609 77.5874 17.9429 77.2936 18.4549C77.8201 18.7529 78.3746 19.0547 78.8926 19.3875C79.1078 19.0402 79.3215 18.6918 79.5376 18.3444C79.2712 18.175 79.008 18.0017 78.743 17.8326C78.9285 17.5205 79.1154 17.2082 79.3009 16.8952L80.5488 17.7011L80.9891 17.9841C80.892 18.138 80.7953 18.2909 80.6967 18.4436C80.4864 18.7682 80.2782 19.0943 80.0729 19.4187C79.8676 19.7432 79.4845 20.3314 79.2757 20.6566C79.2643 20.6743 79.2539 20.6931 79.2408 20.7118C78.1762 20.0171 77.0806 19.3695 75.9539 18.7692C75.9539 18.7692 75.9539 18.7692 75.9567 18.7666C75.2375 18.3862 74.5075 18.0258 73.7669 17.6855C73.7759 17.6628 73.7852 17.6382 73.7952 17.6162C74.0708 16.994 74.4684 16.0794 74.7445 15.4571C75.0206 14.8348 75.2929 14.2112 75.5688 13.5871C74.9161 13.3142 74.267 13.04 73.6156 12.766L71.6615 11.9451C71.4607 12.502 71.2583 13.0581 71.0604 13.6132C70.8625 14.1683 70.6266 14.8016 70.4255 15.3562C70.996 15.5586 71.5946 15.7576 72.1616 15.9979C72.3129 15.6186 72.4642 15.2392 72.6155 14.8599L71.746 14.4952C71.8741 14.1557 72.0057 13.8157 72.1342 13.4757L73.504 14.0517C73.6643 14.1191 73.8247 14.1879 73.9867 14.2551C73.9166 14.4233 73.8464 14.5907 73.7763 14.7594C73.6283 15.1135 73.4791 15.4722 73.3294 15.8275C73.1797 16.1827 72.9098 16.8259 72.7606 17.1851C72.7548 17.2007 72.7494 17.2163 72.7414 17.2326C71.5745 16.7307 70.3835 16.2826 69.1683 15.8882C68.3964 15.6356 67.615 15.4064 66.8239 15.2003C66.8293 15.1812 66.8332 15.1609 66.8372 15.1419C67.0008 14.4807 67.235 13.514 67.3982 12.8502C67.5614 12.1863 67.7226 11.5286 67.8825 10.8674C67.1933 10.7094 66.5045 10.5527 65.8162 10.3972C65.1278 10.2418 64.4386 10.0853 63.7485 9.92764C63.648 10.5122 63.5471 11.0931 63.4463 11.675C63.3455 12.2568 63.2252 12.9205 63.1262 13.5025C63.7226 13.6034 64.3459 13.6965 64.9464 13.8321C65.0301 13.4315 65.1113 13.0322 65.1954 12.6311C64.8888 12.5627 64.5824 12.4921 64.2741 12.4216C64.3421 12.0652 64.4094 11.7083 64.4761 11.3509C64.9595 11.4596 65.4432 11.569 65.9272 11.6792C66.098 11.7178 66.2684 11.7574 66.4378 11.7957L66.317 12.3281C66.233 12.7034 66.1493 13.0818 66.064 13.4578C65.9786 13.8337 65.8237 14.5177 65.74 14.8962C65.7382 14.9077 65.7348 14.9198 65.7317 14.9319C64.4979 14.643 63.2467 14.4103 61.9779 14.2336C61.1726 14.1214 60.3627 14.0319 59.5484 13.965C59.5495 13.9482 59.5488 13.9307 59.55 13.9143C59.5962 13.2351 59.6582 12.2399 59.7026 11.5601C59.7469 10.8803 59.7932 10.2016 59.8394 9.52201C59.1326 9.48647 58.4272 9.45077 57.7232 9.4149C57.0191 9.37904 56.3128 9.34479 55.6043 9.31217C55.6077 9.90453 55.6078 10.4959 55.6114 11.086C55.615 11.6761 55.6092 12.3504 55.6111 12.9411C56.2177 12.9365 56.8459 12.9193 57.463 12.9486C57.4742 12.5406 57.4866 12.1328 57.5003 11.7252C57.1852 11.7106 56.8708 11.6951 56.557 11.6786C56.5614 11.3169 56.566 10.9534 56.5706 10.588L58.0556 10.6612L58.5786 10.6887C58.5728 10.87 58.5634 11.0517 58.5537 11.2335C58.5353 11.6181 58.5172 12.0053 58.4988 12.3895L58.4294 13.861C58.4305 13.8699 58.4291 13.8809 58.4284 13.8905C57.1669 13.8216 55.891 13.8136 54.6105 13.8612C53.801 13.8839 52.9885 13.9372 52.173 14.0148L52.172 14.0145ZM51.7213 5.86777L52.2348 5.8129L52.3654 7.02881C52.1915 7.04247 52.0201 7.05898 51.848 7.07332L51.7213 5.86777Z" fill="#82231E"/>
<path d="M64.3091 61.6942C63.3513 62.5571 62.2497 63.2457 61.0544 63.7286C59.5664 64.3346 57.907 64.6399 56.1248 64.6399H55.9872C54.205 64.6399 52.5456 64.3327 51.0558 63.7267C49.8612 63.2437 48.7604 62.5552 47.8034 61.6923C47.3029 61.2411 46.8458 60.7439 46.4383 60.2071C46.3049 60.5335 46.146 60.8488 45.9629 61.1501C45.2992 62.9456 43.7897 65.6644 40.5873 66.4826V67.0286H71.5247V66.4845C68.3223 65.6662 66.8128 62.9474 66.1491 61.1519C65.9662 60.8505 65.8073 60.5352 65.6737 60.209C65.2662 60.7456 64.8093 61.2428 64.3091 61.6942V61.6942Z" fill="#FF9D00"/>
<path d="M79.2767 51.184C79.0961 51.238 78.9083 51.2644 78.7198 51.2624H62.1357L61.9982 51.3082C61.5062 52.4782 60.6799 53.4769 59.6227 54.1793C58.5655 54.8816 57.3245 55.2562 56.0553 55.2562C54.7861 55.2562 53.5451 54.8816 52.4879 54.1793C51.4307 53.4769 50.6043 52.4782 50.1123 51.3082L49.9748 51.2624H33.3931C33.2046 51.2644 33.0168 51.238 32.8361 51.184C31.7685 52.2369 31.0864 53.6671 31.0864 55.5635C31.0864 61.1881 35.455 63.8092 39.3871 63.4819C43.3193 63.1546 45.5577 61.0781 45.8309 57.7469C46.1041 54.4157 43.1295 53.0602 40.9159 53.3233C38.7023 53.5864 37.9125 56.3272 39.4417 55.6153C43.3734 53.977 43.5921 59.3284 40.4245 59.9843C38.9361 60.2919 37.7374 58.743 37.5077 57.0139C37.5077 57.0139 37.5077 57.0075 37.5077 56.9992C37.4921 56.877 37.4813 56.7548 37.4752 56.6325C37.4338 56.0137 37.529 55.3934 37.7539 54.8154C38.1664 53.685 39.1749 52.5395 41.5549 52.5234C43.8121 52.5106 45.1153 53.5319 45.83 54.7315C46.3342 55.4824 46.5662 56.3671 46.5918 57.2436C46.6161 57.6318 46.5918 57.9596 46.5423 58.1792C46.5423 58.1792 48.8343 63.4764 55.99 63.4764H56.1275C63.2813 63.4764 65.5747 58.1792 65.5747 58.1792C65.5242 57.9596 65.5009 57.6318 65.5256 57.2436C65.5513 56.3671 65.7841 55.4824 66.2875 54.7315C67.0021 53.5314 68.3044 52.5106 70.5621 52.5234C72.9412 52.5376 73.9487 53.6832 74.3636 54.8154C74.5885 55.3934 74.6836 56.0137 74.6423 56.6325C74.6362 56.7548 74.6253 56.877 74.6097 56.9992C74.6097 57.0075 74.6097 57.0125 74.6097 57.0139C74.3805 58.743 73.1818 60.2919 71.6934 59.9843C68.5258 59.3288 68.7445 53.9793 72.6762 55.6153C74.2054 56.3254 73.4151 53.5851 71.202 53.3233C68.9888 53.0616 66.0092 54.4175 66.282 57.7469C66.5547 61.0763 68.794 63.1533 72.7262 63.481C76.6583 63.8088 81.0264 61.189 81.0264 55.5626C81.0264 53.6671 80.3443 52.2369 79.2767 51.184Z" fill="#FF9D00"/>
<path d="M56.0574 43.2862C54.9654 43.286 53.8978 43.6097 52.9898 44.2162C52.0817 44.8228 51.374 45.685 50.956 46.6938C50.538 47.7027 50.4285 48.8128 50.6415 49.8839C50.8545 50.9549 51.3803 51.9387 52.1524 52.7109C52.9245 53.4831 53.9083 54.009 54.9793 54.222C56.0503 54.4351 57.1605 54.3257 58.1694 53.9078C59.1782 53.4899 60.0405 52.7822 60.6472 51.8742C61.2538 50.9662 61.5775 49.8987 61.5774 48.8067C61.5773 47.3427 60.9957 45.9387 59.9605 44.9034C58.9254 43.8681 57.5214 43.2864 56.0574 43.2862V43.2862ZM61.087 48.8067C61.0848 50.0479 60.6217 51.2441 59.7876 52.1633C58.9534 53.0824 57.8076 53.659 56.5724 53.7812C55.3372 53.9034 54.1006 53.5625 53.1025 52.8246C52.1045 52.0867 51.416 51.0045 51.1706 49.7877C50.9253 48.571 51.1406 47.3065 51.7747 46.2395C52.4089 45.1725 53.4167 44.3791 54.6028 44.013C55.7888 43.647 57.0685 43.7345 58.1937 44.2586C59.3188 44.7827 60.2093 45.7059 60.6923 46.8493C60.9533 47.4689 61.0875 48.1344 61.087 48.8067ZM57.8222 44.6243C56.7781 44.1811 55.6064 44.1427 54.5355 44.5166C53.4646 44.8906 52.5714 45.65 52.0301 46.6468C51.4889 47.6436 51.3383 48.8062 51.6078 49.908C51.8773 51.0098 52.5475 51.9717 53.4878 52.6061C54.428 53.2406 55.5709 53.502 56.6935 53.3394C57.816 53.1768 58.8378 52.6019 59.5595 51.7269C60.2812 50.8518 60.651 49.7393 60.5968 48.6063C60.5427 47.4733 60.0685 46.4011 59.2666 45.5988C58.8528 45.1835 58.3623 44.8525 57.8222 44.6243V44.6243ZM57.588 46.7453C58.2297 46.8319 58.5506 46.3327 58.5621 45.949C58.5621 45.949 58.8986 46.6655 58.4493 47.3086C58.255 47.5589 57.7865 47.2784 57.4303 47.7102C57.2193 47.3915 56.9036 47.1564 56.5378 47.0455C56.6464 46.958 57.0443 46.6706 57.588 46.7453ZM55.8401 46.2268C56.3242 45.8716 56.1747 45.31 55.9057 45.029C55.9057 45.029 56.6428 45.321 56.8101 46.0668C56.8623 46.3712 56.3544 46.4767 56.4282 47.0121C56.2747 46.9737 56.1164 46.9583 55.9584 46.9662C55.7526 46.9767 55.551 47.0284 55.3657 47.1184C55.3721 46.9873 55.4275 46.5262 55.8401 46.2268ZM54.8124 46.2374C55.092 46.4161 54.7844 46.8434 55.2644 47.172C54.9292 47.3439 54.6684 47.6323 54.5309 47.983C54.4324 47.8853 54.1142 47.5204 54.1931 47.0203C54.2847 46.4336 53.7296 46.1388 53.3024 46.126C53.3019 46.1274 54.0982 45.823 54.811 46.2374H54.8124ZM53.4372 47.7148C53.7897 47.6648 53.9139 48.1645 54.5373 48.0934C54.4918 48.2433 54.4745 48.4003 54.4864 48.5564C54.5003 48.7608 54.5611 48.9593 54.6643 49.1363C54.5117 49.1294 53.9767 49.0721 53.6265 48.6683C53.2139 48.1915 52.5639 48.335 52.2371 48.5972C52.3583 48.3696 52.529 48.1722 52.7367 48.0195C52.9444 47.8667 53.1838 47.7626 53.4372 47.7148V47.7148ZM52.3604 49.2458C52.3361 49.261 52.332 49.2555 52.3604 49.2458V49.2458ZM59.1823 51.3582C58.9911 51.5667 58.3741 51.8537 57.4404 51.3582C56.5066 50.8626 55.9084 51.4911 55.9084 51.4911L55.8919 51.5085C55.3455 52.0187 54.3246 51.3994 54.3246 51.3994C53.0869 50.8035 52.6542 50.859 52.5644 50.8878C52.5832 50.8745 52.6004 50.8592 52.6157 50.842C52.8073 50.6325 53.4243 50.346 54.3608 50.842C55.2974 51.338 55.8919 50.7104 55.8919 50.7104L55.9084 50.6921C56.4548 50.1824 57.4752 50.8003 57.4752 50.8003C58.7161 51.4003 59.1488 51.3417 59.2368 51.3119C59.2167 51.3248 59.1983 51.3403 59.1823 51.3582V51.3582ZM52.5621 50.5436C52.5392 50.5578 52.5355 50.5537 52.5621 50.5436V50.5436ZM59.2346 50.9699C59.2561 50.9552 59.2607 50.9603 59.2346 50.9699V50.9699ZM59.6201 50.1058C59.4115 50.335 58.7335 50.6486 57.7076 50.1058C56.6817 49.5631 56.028 50.2493 56.028 50.2493L56.0102 50.2685C55.4101 50.8287 54.2916 50.1498 54.2916 50.1498C52.932 49.4938 52.458 49.5576 52.3604 49.5887C52.3814 49.5751 52.4002 49.5584 52.4163 49.5392C52.6267 49.31 53.3029 48.9965 54.3292 49.5392C55.3556 50.082 56.0102 49.3957 56.0102 49.3957L56.028 49.3751C56.624 48.815 57.7461 49.4938 57.7461 49.4938C59.1048 50.1512 59.5797 50.0861 59.6778 50.0554C59.6562 50.0693 59.6368 50.0863 59.6201 50.1058V50.1058ZM59.6778 49.712C59.7021 49.6955 59.7058 49.7024 59.6778 49.712V49.712ZM58.6638 49.2316C58.3072 49.2811 58.1816 48.7815 57.5518 48.853C57.5971 48.7034 57.615 48.5469 57.6045 48.3909C57.5883 48.1853 57.5256 47.9861 57.4211 47.8083C57.5751 47.8161 58.1151 47.8739 58.4704 48.2791C58.8875 48.7558 59.5444 48.6123 59.874 48.3511C59.7511 48.579 59.5785 48.7765 59.3691 48.9289C59.1596 49.0814 58.9186 49.1848 58.6638 49.2316ZM78.7198 47.2784H62.0212C62.2779 48.2806 62.2779 49.3314 62.0212 50.3336H78.7198C78.9687 50.3336 79.1695 50.2566 79.1695 50.1622V47.4526C79.1695 47.3582 78.9687 47.2784 78.7198 47.2784ZM78.3838 49.712H76.6487V48.8067H77.0828V49.2692H77.9511V48.3423H76.216V49.712H74.481V48.8067H74.9151V49.2692H75.7805V48.3423H74.0478V49.712H72.3141V48.8067H72.7468V49.2692H73.6146V48.3423H71.8795V49.712H70.145V48.8067H70.5791V49.2692H71.4459V48.3423H69.7127V49.712H67.9781V48.8067H68.4113V49.2692H69.2786V48.3423H67.5435V49.712H65.8094V48.8067H66.243V49.2692H67.1108V48.3423H65.3748V49.712H63.6416V48.8067H64.0753V49.2692H64.9426V48.3423H63.2144V47.9023H78.3838V49.712ZM33.3931 47.2784C33.1456 47.2784 32.943 47.3563 32.943 47.4526V50.1622C32.943 50.2566 33.1456 50.3336 33.3931 50.3336H50.0922C49.8367 49.3312 49.8367 48.2808 50.0922 47.2784H33.3931ZM48.8999 48.3423H47.1708V49.2692H48.0386V48.8067H48.4713V49.712H46.7376V48.3423H45.0035V49.2692H45.8699V48.8067H46.3054V49.712H44.5689V48.3423H42.8344V49.2692H43.7026V48.8067H44.1353V49.712H42.4016V48.3423H40.667V49.2692H41.5334V48.8067H41.968V49.712H40.2348V48.3423H38.4997V49.2692H39.3661V48.8067H39.8002V49.712H38.0656V48.3423H36.331V49.2692H37.1992V48.8067H37.632V49.712H35.8997V48.3423H34.1637V49.2692H35.0287V48.8067H35.4642V49.712H33.7296V47.9023H48.8999V48.3423Z" fill="#FF9D00"/>
<path d="M80.3892 42.0866H31.7236C31.5306 42.0866 31.3748 42.3639 31.3748 42.7059V46.1663C31.3748 46.5083 31.5306 46.7856 31.7236 46.7856H32.2696C32.491 46.533 32.8604 46.3497 33.3931 46.3497H50.0945C50.5823 45.1692 51.4095 44.1601 52.4713 43.45C53.5331 42.74 54.7816 42.361 56.0589 42.361C57.3362 42.361 58.5848 42.74 59.6466 43.45C60.7084 44.1601 61.5355 45.1692 62.0234 46.3497H78.7197C79.2524 46.3497 79.6219 46.533 79.8433 46.7833H80.3892C80.5822 46.7833 80.7381 46.5083 80.7381 46.164V42.7059C80.7381 42.3639 80.5822 42.0866 80.3892 42.0866Z" fill="#FF9D00"/>
<path d="M43.5622 82.0261H68.551C69.0383 82.0261 69.433 81.7396 69.433 81.3903C69.433 81.041 69.0383 80.7508 68.551 80.7508H43.5622C43.0754 80.7508 42.6798 81.0355 42.6798 81.3903C42.6798 81.7451 43.0754 82.0261 43.5622 82.0261Z" fill="#FF9D00"/>
<path d="M68.5955 79.8377V77.575C68.5955 77.1354 68.8939 76.776 69.2565 76.776C69.3168 76.7766 69.3765 76.7876 69.433 76.8086V73.5865H42.6798V76.8086C42.7363 76.7875 42.796 76.7765 42.8563 76.776C43.2198 76.776 43.5146 77.1354 43.5146 77.575V79.8377H46.0243V77.575C46.0243 77.3649 46.1078 77.1634 46.2563 77.0149C46.4049 76.8663 46.6063 76.7829 46.8164 76.7829C47.0265 76.7829 47.228 76.8663 47.3765 77.0149C47.5251 77.1634 47.6085 77.3649 47.6085 77.575V79.8377H50.1151V77.575C50.1151 77.1354 50.5276 76.776 51.0401 76.776C51.5526 76.776 51.9629 77.1354 51.9629 77.575V79.8377H54.7399V77.575C54.7399 77.1354 55.2097 76.776 55.7942 76.776C56.3787 76.776 56.8485 77.1354 56.8485 77.575V79.8377H59.5531V77.575C59.5531 77.1354 59.9941 76.776 60.5414 76.776C61.0887 76.776 61.5329 77.1354 61.5329 77.575V79.8377H64.2375V77.575C64.2349 77.4694 64.2535 77.3644 64.2922 77.2661C64.3308 77.1678 64.3888 77.0782 64.4626 77.0026C64.5363 76.927 64.6245 76.867 64.7218 76.826C64.8192 76.785 64.9237 76.7638 65.0294 76.7638C65.135 76.7638 65.2395 76.785 65.3369 76.826C65.4342 76.867 65.5224 76.927 65.5962 77.0026C65.67 77.0782 65.7279 77.1678 65.7665 77.2661C65.8052 77.3644 65.8238 77.4694 65.8212 77.575V79.8377H68.5955Z" fill="#FF9D00"/>
<path d="M71.8424 72.0371C71.8424 71.6836 71.483 71.399 71.0402 71.399H41.075C40.6322 71.399 40.2705 71.6836 40.2705 72.0371C40.2705 72.3905 40.6322 72.6752 41.075 72.6752H71.0402C71.483 72.6752 71.8424 72.39 71.8424 72.0371Z" fill="#FF9D00"/>
<path d="M73.6718 69.3582C73.6718 68.7315 73.03 68.225 72.2443 68.225H39.8716C39.0822 68.225 38.4432 68.7293 38.4432 69.3582C38.4432 69.9871 39.0822 70.4932 39.8716 70.4932H72.242C73.03 70.4932 73.6718 69.9848 73.6718 69.3582Z" fill="#FF9D00"/>
<path d="M44.3411 96.4217C44.897 96.657 45.4579 96.8746 46.0239 97.0745V83.6034C46.0239 83.3151 46.3759 83.0781 46.816 83.0781C47.2561 83.0781 47.6076 83.3151 47.6076 83.6034V97.5847C48.4346 97.8261 49.2706 98.0314 50.1156 98.2007V83.6034C50.1156 83.3151 50.5281 83.0781 51.042 83.0781C51.5558 83.0781 51.9634 83.3151 51.9634 83.6034V98.5111C52.8802 98.6352 53.8042 98.7171 54.7353 98.7568V83.6034C54.7353 83.3151 55.2088 83.0781 55.7919 83.0781C56.375 83.0781 56.8463 83.3151 56.8463 83.6034V98.7765C57.7557 98.753 58.6582 98.6897 59.5536 98.5867V83.6034C59.5536 83.3151 59.9964 83.0781 60.5414 83.0781C61.0865 83.0781 61.5339 83.3151 61.5339 83.6034V98.2897C62.4458 98.1225 63.3473 97.9132 64.2384 97.6617V83.6034C64.2384 83.3151 64.5886 83.0781 65.0296 83.0781C65.4706 83.0781 65.8208 83.3151 65.8208 83.6034V97.1661C66.4763 96.9412 67.1254 96.6931 67.7681 96.4217C68.0459 96.304 68.3209 96.1818 68.5932 96.055V83.6034C68.5932 83.3151 68.888 83.0781 69.2515 83.0781V82.9406H42.8563V83.0781C43.2194 83.0781 43.5178 83.3151 43.5178 83.6034V96.0582C43.7901 96.1829 44.0651 96.304 44.3429 96.4217H44.3411Z" fill="#FF9D00"/>
</svg>
