<svg width="101" height="101" viewBox="0 0 101 101" fill="none" xmlns="http://www.w3.org/2000/svg">
<path fill-rule="evenodd" clip-rule="evenodd" d="M53.8479 0.124613L54.367 0.153296L54.3092 1.37207C54.1348 1.35863 53.964 1.34383 53.7901 1.33218L53.8479 0.124613ZM55.6082 0.275222L56.1259 0.320046L56.0233 1.53434C55.8525 1.51417 55.6799 1.49848 55.5087 1.48055L55.6082 0.275222ZM57.359 0.484997L57.8749 0.547752L57.732 1.75801C57.5607 1.73291 57.3897 1.70855 57.2187 1.68495L57.359 0.484997ZM59.1072 0.756635L59.62 0.836867L59.4335 2.03996C59.2641 2.00768 59.0946 1.9763 58.9238 1.94762L59.1072 0.756635ZM60.8396 1.08879L61.3511 1.1874L61.122 2.37883C60.9544 2.34207 60.7845 2.308 60.6151 2.27349L60.8396 1.08879ZM62.56 1.48189L63.067 1.59709L62.798 2.78314C62.6299 2.73832 62.4636 2.69349 62.2969 2.6536L62.56 1.48189ZM64.2633 1.93462L64.7671 2.06909L64.4556 3.24259C64.2907 3.19284 64.123 3.14756 63.9581 3.1005L64.2633 1.93462ZM65.9518 2.44516L66.4512 2.59578L66.0984 3.76121C65.9335 3.70608 65.7716 3.65094 65.6054 3.5985L65.9518 2.44516ZM67.622 3.01533L68.1151 3.18387L67.7211 4.33765C67.5592 4.27714 67.3979 4.21663 67.2343 4.15836L67.622 3.01533ZM69.2769 3.64601L69.7619 3.82889L69.3285 4.97191C69.1698 4.90557 69.008 4.84058 68.8493 4.77648L69.2769 3.64601ZM70.9027 4.33138L71.3837 4.53219L70.9072 5.66266C70.7512 5.59094 70.5934 5.51833 70.4343 5.44795L70.9027 4.33138ZM72.5043 5.07277L72.9772 5.29062L72.4612 6.40361C72.3088 6.32651 72.1528 6.25255 71.9969 6.17635L72.5043 5.07277ZM74.0731 5.8693L74.5375 6.10194L73.9817 7.20192C73.8306 7.119 73.6796 7.03563 73.5272 6.9536L74.0731 5.8693ZM75.6182 6.72096L76.0763 6.97198L75.4811 8.05135C75.3313 7.9617 75.1816 7.87788 75.0328 7.79181L75.6182 6.72096ZM77.1324 7.62641L77.5806 7.89267L76.9482 8.95635C76.8011 8.86222 76.6577 8.76854 76.5111 8.6762L77.1324 7.62641ZM78.6165 8.58386L79.0531 8.86401L78.3807 9.90842C78.2391 9.8107 78.0957 9.71478 77.9518 9.61796L78.6165 8.58386ZM80.0634 9.59241L80.4924 9.8887L79.7802 10.9116C79.6425 10.8085 79.5036 10.7054 79.3628 10.6045L80.0634 9.59241ZM81.4754 10.6516L81.8954 10.9622L81.1473 11.9614C81.0128 11.8538 80.8784 11.7467 80.7398 11.64L81.4754 10.6516ZM82.8497 11.7592L83.2585 12.0842L82.4741 13.0564C82.3428 12.9453 82.2114 12.8323 82.0787 12.7225L82.8497 11.7592ZM84.1837 12.9121L84.5826 13.2519L83.7615 14.2003C83.6333 14.0834 83.5077 13.9668 83.3782 13.8512L84.1837 12.9121ZM86.7199 15.3541L87.0937 15.7203L86.2111 16.6074C86.0905 16.4824 85.9731 16.3555 85.8525 16.2313L86.7199 15.3541ZM87.927 16.641L88.2856 17.0202L87.3738 17.8719C87.2595 17.7424 87.1417 17.6155 87.026 17.4882L87.927 16.641ZM89.0781 17.9647L89.4232 18.3565L88.4859 19.1754C88.3761 19.0409 88.2663 18.9065 88.156 18.7756L89.0781 17.9647ZM90.1897 19.3332L90.5223 19.7366L89.5568 20.5174C89.4519 20.383 89.3443 20.2454 89.2376 20.1095L90.1897 19.3332ZM91.2552 20.7393L91.5725 21.1531L90.5833 21.9021C90.4829 21.7618 90.382 21.6201 90.2811 21.4803L91.2552 20.7393ZM92.2705 22.1804L92.5739 22.6054L91.5609 23.3185C91.4645 23.1742 91.3668 23.0299 91.2709 22.8882L92.2705 22.1804ZM93.2337 23.6596L93.5238 24.0953L92.4887 24.7708C92.3991 24.6238 92.3095 24.4763 92.2153 24.3307L93.2337 23.6596ZM94.1463 25.1693L94.4184 25.614L93.3651 26.2518C93.2795 26.1021 93.1938 25.952 93.1069 25.8036L94.1463 25.1693ZM95.0043 26.7099L95.2625 27.164L94.1894 27.7624C94.11 27.6091 94.0307 27.4572 93.9478 27.3052L95.0043 26.7099ZM95.8111 28.2788L96.0523 28.7427L94.9622 29.3012C94.886 29.1452 94.8124 28.9875 94.738 28.8342L95.8111 28.2788ZM96.5592 29.875L96.7834 30.3474L95.6816 30.8656C95.613 30.7069 95.5382 30.5518 95.466 30.3918L96.5592 29.875ZM97.2522 31.4972L97.4611 31.9763L96.3405 32.456C96.2764 32.2955 96.2168 32.1332 96.1496 31.9728L97.2522 31.4972ZM97.8901 33.1418L98.081 33.629L96.9483 34.0674C96.8887 33.9038 96.8295 33.742 96.769 33.5793L97.8901 33.1418ZM98.4674 34.8083L98.6413 35.3014L97.4934 35.6999C97.4427 35.5349 97.3912 35.3704 97.3374 35.2068L98.4674 34.8083ZM99.0004 36.5036L99.1573 37.002L97.9878 37.3633C97.943 37.1961 97.8982 37.0294 97.8475 36.864L99.0004 36.5036ZM99.4486 38.1957L99.5894 38.7L98.4199 39.0164C98.38 38.847 98.3356 38.6807 98.2944 38.5126L99.4486 38.1957ZM99.852 39.9134L99.9758 40.4217L98.7924 40.6974C98.7574 40.5279 98.7238 40.3585 98.6889 40.1891L99.852 39.9134ZM100.193 41.6441L100.298 42.1551L99.1084 42.3895C99.0811 42.2178 99.0488 42.0493 99.0188 41.878L100.193 41.6441ZM100.473 43.3841L100.563 43.8983L99.3599 44.0924C99.3384 43.9207 99.315 43.7481 99.2926 43.5782L100.473 43.3841ZM100.693 45.1323L100.763 45.65L99.5531 45.802C99.5347 45.6298 99.5194 45.4577 99.4997 45.2847L100.693 45.1323ZM100.852 46.8894L100.902 47.4094L99.6889 47.5183C99.6795 47.3457 99.6642 47.174 99.6517 47.0015L100.852 46.8894ZM100.948 48.651L100.98 49.171L99.7593 49.2391C99.7561 49.0661 99.7525 48.8921 99.7467 48.72L100.948 48.651ZM100.983 50.4135L100.998 50.9357L99.7754 50.9608C99.7754 50.7869 99.7754 50.6143 99.7754 50.4413L100.983 50.4135ZM100.959 52.1764L100.953 52.6986L99.7283 52.6812C99.7373 52.509 99.7422 52.3356 99.7494 52.1621L100.959 52.1764ZM100.869 53.9376L100.848 54.4598L99.6208 54.3984C99.6342 54.2276 99.6481 54.0555 99.6606 53.8829L100.869 53.9376ZM100.72 55.6965L100.68 56.2169L99.4589 56.1129C99.48 55.9421 99.4957 55.7696 99.5123 55.5974L100.72 55.6965ZM100.509 57.4446L100.451 57.965L99.2317 57.8185C99.2572 57.6477 99.2814 57.4751 99.3061 57.3043L100.509 57.4446ZM100.237 59.1879L100.161 59.7042L98.9457 59.5146C98.9793 59.3465 99.0084 59.1758 99.0376 59.0045L100.237 59.1879ZM99.8982 60.9221L99.805 61.4349L98.5979 61.2041C98.6342 61.0364 98.6709 60.8656 98.7059 60.6975L99.8982 60.9221ZM99.506 62.6425L99.3944 63.1521L98.1886 62.876C98.2334 62.7097 98.2783 62.5416 98.3195 62.374L99.506 62.6425ZM99.0542 64.3458L98.9242 64.851L97.7305 64.5372C97.7794 64.3722 97.8238 64.2041 97.8726 64.0378L99.0542 64.3458ZM98.5427 66.0343L98.3961 66.5346L97.2065 66.176C97.2616 66.011 97.3186 65.8492 97.3733 65.6829L98.5427 66.0343ZM97.9735 67.7013L97.8067 68.1975L96.6301 67.7941C96.6897 67.6323 96.7489 67.4674 96.8094 67.3055L97.9735 67.7013ZM97.3459 69.35L97.1626 69.843L95.9949 69.3948C96.0604 69.2357 96.1294 69.0739 96.1917 68.9138L97.3459 69.35ZM96.6588 70.974L96.4606 71.4599L95.3033 70.9713C95.3768 70.8122 95.4481 70.6548 95.5184 70.4979L96.6588 70.974ZM95.9183 72.5755L95.7031 73.052L94.5596 72.5222C94.6376 72.368 94.7125 72.2111 94.7873 72.0551L95.9183 72.5755ZM95.1352 74.1677L94.903 74.6366L93.7519 74.0539C93.8362 73.901 93.9182 73.7495 94.0011 73.5971L95.1352 74.1677ZM94.2835 75.7128L94.0361 76.1736L92.9056 75.5514C92.9926 75.4022 93.0769 75.2507 93.1652 75.1009L94.2835 75.7128ZM93.3781 77.2288L93.1141 77.6792L91.9966 77.0105C92.0912 76.867 92.1857 76.7218 92.2776 76.5752L93.3781 77.2288ZM92.4211 78.7111L92.1431 79.1522L91.0441 78.4453C91.1431 78.3019 91.2395 78.1584 91.3372 78.0132L92.4211 78.7111ZM91.4134 80.158L91.1171 80.5888L90.0413 79.8393L90.3529 79.4225L91.4134 80.158ZM90.3551 81.5682L90.0472 81.99L88.992 81.1988C89.1005 81.0644 89.2072 80.9272 89.3138 80.7927L90.3551 81.5682ZM89.2502 82.9425L88.9266 83.3545L87.8956 82.5239C88.009 82.393 88.1197 82.2598 88.2336 82.1272L89.2502 82.9425ZM88.0942 84.2765L87.7571 84.6763L86.7526 83.8094C86.87 83.6826 86.9875 83.5544 87.1036 83.4262L88.0942 84.2765ZM86.8897 85.5468L86.5388 85.9332L85.58 85.043C85.7023 84.9211 85.8211 84.7942 85.9386 84.6705L86.8897 85.5468ZM85.6441 86.7965L85.2792 87.169L84.3509 86.247C84.4759 86.1264 84.6028 86.0085 84.7265 85.8884L85.6441 86.7965ZM84.3496 87.9781L83.9708 88.3367L83.0945 87.4007C83.2227 87.2864 83.3509 87.1672 83.4777 87.0511L84.3496 87.9781ZM83.0214 89.1381L82.6337 89.4864L81.7851 88.516C81.9196 88.4062 82.0541 88.2972 82.185 88.1861L83.0214 89.1381ZM81.6547 90.2529L81.2544 90.5855L80.4427 89.5873C80.5798 89.4833 80.7116 89.3735 80.8515 89.2663L81.6547 90.2529ZM80.2486 91.3179L79.8362 91.6358L79.0594 90.6102C79.1997 90.5093 79.3431 90.4102 79.4821 90.3076L80.2486 91.3179ZM78.8075 92.3319L78.3843 92.6371L77.6443 91.5869C77.7889 91.4904 77.9328 91.3932 78.0759 91.2955L78.8075 92.3319ZM77.331 93.2965L76.8975 93.5865L76.1955 92.5107C76.3435 92.4211 76.4914 92.3292 76.6366 92.2377L77.331 93.2965ZM75.8168 94.1822L75.3712 94.4556L74.7222 93.3799C74.8737 93.2956 75.023 93.2073 75.1704 93.1217L75.8168 94.1822ZM74.2748 95.0402L73.823 95.2979L73.2138 94.2051C73.3667 94.1257 73.5191 94.0415 73.6733 93.9608L74.2748 95.0402ZM72.706 95.8434L72.2447 96.0859L71.6737 94.9729C71.831 94.8981 71.9874 94.8232 72.1412 94.7488L72.706 95.8434ZM71.1102 96.5929L70.64 96.8201L70.112 95.6919C70.2707 95.6233 70.4258 95.5503 70.5849 95.4785L71.1102 96.5929ZM69.4921 97.2841L69.0147 97.4947L68.5243 96.3481C68.6861 96.2858 68.8479 96.2244 69.0066 96.1576L69.4921 97.2841ZM67.8434 97.895L67.358 98.0887L66.9183 96.9528C67.0832 96.895 67.245 96.8322 67.4068 96.7735L67.8434 97.895ZM66.1764 98.475L65.6833 98.649L65.2835 97.4992C65.4485 97.4477 65.6161 97.3943 65.7797 97.3419L66.1764 98.475ZM64.491 98.9941L63.998 99.1528L63.6394 97.9874C63.807 97.9425 63.9751 97.8928 64.14 97.8453L64.491 98.9941ZM62.7926 99.4531L62.2901 99.5939L61.9728 98.4199C62.1404 98.3787 62.3085 98.3374 62.4762 98.2944L62.7926 99.4531ZM61.075 99.8565L60.568 99.9771L60.2937 98.7924C60.4625 98.7589 60.6318 98.7243 60.8015 98.6884L61.075 99.8565ZM59.347 100.197L58.8369 100.301L58.6015 99.1102C58.7728 99.0811 58.944 99.0488 59.1134 99.0206L59.347 100.197ZM57.6064 100.478L57.0932 100.563L56.8996 99.359C57.0708 99.3375 57.2434 99.3142 57.4142 99.2917L57.6064 100.478ZM55.8583 100.697L55.3406 100.765L55.1882 99.5544C55.3608 99.5378 55.5347 99.5208 55.7068 99.5029L55.8583 100.697ZM54.1025 100.855L53.5839 100.904L53.4719 99.6871C53.6462 99.6777 53.8188 99.6642 53.9927 99.6521L54.1025 100.855ZM52.3423 100.951L51.8219 100.983L51.7546 99.7575C51.9281 99.7543 52.1029 99.7512 52.2737 99.7449L52.3423 100.951ZM50.5798 100.988L50.0603 101L50.0347 99.7754C50.2091 99.7754 50.3817 99.7754 50.5551 99.7754L50.5798 100.988ZM48.8182 100.96L48.2969 100.957L48.3153 99.727C48.4883 99.736 48.6618 99.7404 48.8352 99.7481L48.8182 100.96ZM47.0579 100.874L46.5375 100.849L46.598 99.6199C46.772 99.6338 46.9436 99.6485 47.1167 99.6611L47.0579 100.874ZM45.3013 100.723L44.7827 100.683L44.8866 99.458C45.0583 99.4796 45.2309 99.4948 45.4035 99.5114L45.3013 100.723ZM43.5531 100.484L43.0358 100.424L43.1802 99.2308C43.3519 99.2563 43.5226 99.2823 43.6939 99.307L43.5531 100.484ZM41.8139 100.212L41.298 100.134L41.4831 98.9466C41.6535 98.9789 41.8242 99.0094 41.995 99.0398L41.8139 100.212ZM40.0833 99.8825L39.5714 99.7848L39.7977 98.605L40.306 98.7131L40.0833 99.8825ZM38.3692 99.4885L37.8591 99.3756L38.128 98.1971C38.2961 98.242 38.4629 98.2868 38.631 98.3285L38.3692 99.4885ZM36.6659 99.0367L36.1611 98.9072L36.4704 97.739C36.6367 97.7879 36.8048 97.8336 36.9711 97.8811L36.6659 99.0367ZM34.9805 98.5266L34.4807 98.3787L34.8321 97.2168C34.997 97.272 35.1598 97.3284 35.3252 97.3818L34.9805 98.5266ZM33.3135 97.9573L32.8204 97.791L33.2144 96.6399C33.3762 96.7013 33.5403 96.761 33.7021 96.8192L33.3135 97.9573ZM31.6662 97.3298L31.1776 97.146L31.6124 96.0048C31.7728 96.0716 31.9333 96.1392 32.0938 96.2029L31.6662 97.3298ZM30.0484 96.618L29.5679 96.4194L30.0328 95.3131C30.1901 95.3849 30.3465 95.4579 30.5061 95.5283L30.0484 96.618ZM28.4505 95.8793L27.9762 95.6623L28.4823 94.5695L28.9485 94.7986L28.4505 95.8793ZM26.8816 95.0827L26.415 94.8506L26.9623 93.7698C27.1142 93.8519 27.2671 93.9361 27.4191 94.0168L26.8816 95.0827ZM25.3383 94.2338L24.882 93.9832L25.4647 92.9191C25.6135 93.0087 25.765 93.093 25.9129 93.1804L25.3383 94.2338ZM23.8268 93.3297L23.3786 93.0639L24.0061 92.0136C24.1527 92.1086 24.2979 92.2032 24.4441 92.2947L23.8268 93.3297ZM22.3552 92.3498L21.9155 92.0688L22.5668 91.058C22.7094 91.1575 22.8537 91.2534 22.9971 91.3511L22.3552 92.3498ZM20.9106 91.3422L20.482 91.0459L21.1705 90.057C21.3095 90.1574 21.4484 90.2614 21.5887 90.365L20.9106 91.3422ZM19.5013 90.2856L19.084 89.9759L19.8097 89.0064C19.9441 89.1148 20.0786 89.2202 20.218 89.3273L19.5013 90.2856ZM18.1301 89.1821L17.7235 88.8566L18.4856 87.9104C18.6169 88.0234 18.7496 88.1345 18.8814 88.2461L18.1301 89.1821ZM16.7984 88.0292L16.4039 87.6908L17.2 86.7683C17.3282 86.8844 17.4555 87.0005 17.5841 87.1166L16.7984 88.0292ZM15.5079 86.8328L15.1255 86.4801L15.9548 85.5836C16.0771 85.7055 16.2022 85.8243 16.3268 85.9466L15.5079 86.8328ZM14.2591 85.5898L13.8888 85.2236L14.7512 84.3567C14.8705 84.4818 14.9888 84.6095 15.1098 84.7333L14.2591 85.5898ZM13.065 84.2832L12.7064 83.9045L13.5818 83.0833C13.6961 83.2146 13.8144 83.3397 13.9305 83.4683L13.065 84.2832ZM11.908 82.9578L11.5638 82.5669L12.4706 81.7748C12.5804 81.9093 12.6893 82.0438 12.8005 82.1783L11.908 82.9578ZM10.7973 81.5933L10.4674 81.1899L11.3984 80.431C11.5037 80.57 11.6117 80.7044 11.718 80.8403L10.7973 81.5933ZM9.7215 80.2105L9.40505 79.7981L10.384 79.058C10.4853 79.2001 10.583 79.3404 10.6866 79.4812L9.7215 80.2105ZM8.70758 78.7707L8.40546 78.3476L9.4046 77.6425C9.49962 77.7859 9.59734 77.9307 9.69506 78.0746L8.70758 78.7707ZM7.74565 77.2973L7.45743 76.8625L8.48122 76.1938C8.57087 76.3417 8.66051 76.4883 8.7542 76.6348L7.74565 77.2973ZM6.82137 75.8119L6.55242 75.3681L7.61476 74.7249C7.70037 74.875 7.78554 75.0256 7.87295 75.1731L6.82137 75.8119ZM5.96433 74.273L5.70704 73.8199L6.78955 73.2152C6.86933 73.3712 6.95091 73.5222 7.03384 73.6764L5.96433 74.273ZM5.17363 72.6854L4.93292 72.2246L6.01588 71.6674C6.09118 71.8247 6.16604 71.9812 6.24224 72.1358L5.17363 72.6854ZM4.42461 71.0932L4.20049 70.623L5.29734 70.1071C5.36637 70.2657 5.44078 70.4208 5.51071 70.5804L4.42461 71.0932ZM3.73342 69.4719L3.52544 68.9959L4.64649 68.5198C4.70925 68.6799 4.77066 68.8435 4.8361 69.0021L3.73342 69.4719ZM3.09736 67.8309L2.90641 67.3472L4.03599 66.9088C4.09336 67.072 4.15432 67.2338 4.21528 67.397L3.09736 67.8309ZM2.51958 66.1683L2.347 65.6753L3.49137 65.2786C3.54307 65.4435 3.59536 65.6079 3.64825 65.7717L2.51958 66.1683ZM1.99961 64.4861L1.84587 63.9885L3.00189 63.6299C3.04821 63.7976 3.09527 63.9645 3.14308 64.1306L1.99961 64.4861ZM1.5433 62.7868L1.40524 62.2861L2.57067 61.9683C2.61191 62.1364 2.65495 62.3045 2.69619 62.4726L1.5433 62.7868ZM1.13989 61.0723L1.0211 60.5671L2.20087 60.2892C2.23539 60.4604 2.26991 60.6299 2.30577 60.7993L1.13989 61.0723ZM0.800113 59.3461L0.697918 58.836L1.88531 58.6007C1.914 58.7719 1.94538 58.9427 1.97496 59.1126L0.800113 59.3461ZM0.520859 57.6056L0.435248 57.0941L1.63564 56.9C1.6576 57.0712 1.68046 57.2438 1.70332 57.4146L0.520859 57.6056ZM0.301224 55.8574L0.234879 55.3415L1.442 55.19C1.45814 55.363 1.47651 55.5338 1.49489 55.7059L0.301224 55.8574ZM0.142992 54.1048L0.0950274 53.5862L1.30798 53.4768C1.31873 53.6489 1.33173 53.821 1.34383 53.995L0.142992 54.1048ZM0.0461704 52.3459L0.0165848 51.8268L1.23984 51.76C1.24433 51.9326 1.24657 52.1061 1.25284 52.2791L0.0461704 52.3459ZM0.00941683 50.5865L0 50.0661L1.22012 50.041C1.22012 50.2145 1.22012 50.3875 1.22012 50.5601L0.00941683 50.5865ZM0.0372077 48.8258L0.0430351 48.3049L1.26674 48.3238C1.25912 48.4955 1.25374 48.6685 1.24702 48.8419L0.0372077 48.8258ZM0.126856 47.0674L0.151506 46.5469L1.37656 46.6084C1.36266 46.7809 1.34832 46.9522 1.33711 47.1243L0.126856 47.0674ZM0.276568 45.3129L0.3187 44.7948L1.53837 44.8965C1.51865 45.0686 1.50341 45.2408 1.48593 45.4129L0.276568 45.3129ZM0.4859 43.5648L0.54686 43.0475L1.76518 43.1932C1.73918 43.3635 1.71229 43.5343 1.68943 43.7069L0.4859 43.5648ZM0.754846 41.8238L0.83284 41.3106L2.04623 41.4988C2.0153 41.6692 1.98482 41.8386 1.95658 42.0094L0.754846 41.8238ZM1.08789 40.0958L1.18336 39.5844L2.38779 39.8152C2.35014 39.9829 2.31652 40.1532 2.27977 40.3226L1.08789 40.0958ZM1.47875 38.3795L1.59171 37.8716L2.7948 38.1446C2.74997 38.3127 2.70515 38.4786 2.66391 38.6471L1.47875 38.3795ZM1.92969 36.6762L2.06192 36.1723L3.25335 36.4861C3.20315 36.6506 3.15877 36.8192 3.10991 36.9855L1.92969 36.6762ZM2.44024 34.9908L2.58905 34.4914L3.77376 34.85C3.71908 35.0136 3.6617 35.1772 3.60881 35.3431L2.44024 34.9908ZM3.00996 33.3251L3.17625 32.832L4.34976 33.231C4.28835 33.3928 4.22873 33.5546 4.17046 33.7182L3.00996 33.3251ZM3.6496 31.6711L3.83293 31.1847L4.98581 31.6227C4.91947 31.7827 4.85448 31.9436 4.78904 32.1032L3.6496 31.6711ZM4.34662 30.0408L4.54698 29.5608L5.68193 30.0368C5.60977 30.1941 5.53715 30.3506 5.46767 30.5092L4.34662 30.0408ZM5.08622 28.4437L5.30362 27.9708L6.42423 28.489C6.34713 28.6436 6.27227 28.7996 6.19518 28.9543L5.08622 28.4437ZM5.88141 26.8749L6.11404 26.4101L7.22389 26.9704C7.14097 27.1223 7.05625 27.2734 6.97511 27.4262L5.88141 26.8749ZM6.73038 25.3343L6.98005 24.8766L8.07152 25.4786C7.98187 25.6261 7.89715 25.7767 7.81019 25.9268L6.73038 25.3343ZM7.63314 23.8228L7.89805 23.3745L8.97384 24.0164C8.8803 24.1608 8.78692 24.3063 8.69368 24.453L7.63314 23.8228ZM8.58745 22.3436L8.8676 21.9066L9.92321 22.587C9.8237 22.7291 9.72778 22.8725 9.6323 23.016L8.58745 22.3436ZM9.59331 20.9011L9.88959 20.4744L10.9206 21.1916C10.817 21.3301 10.713 21.4686 10.6122 21.6085L9.59331 20.9011ZM10.6489 19.4928L10.9587 19.0768L11.9712 19.8334C11.8628 19.9685 11.7556 20.104 11.6498 20.24L10.6489 19.4928ZM11.7534 18.1225L12.077 17.7191L13.0632 18.5125C12.9502 18.6438 12.839 18.7756 12.7279 18.9087L11.7534 18.1225ZM12.9045 16.7907L13.242 16.3976L14.2035 17.2264C14.0869 17.3546 13.9686 17.4815 13.8534 17.6106L12.9045 16.7907ZM14.1103 15.4976L14.463 15.1157L15.3909 15.9745C15.2685 16.0973 15.1502 16.2228 15.0323 16.347L14.1103 15.4976ZM15.3532 14.2488L15.7177 13.8812L16.6173 14.7732C16.4922 14.8924 16.3645 15.0108 16.2412 15.1318L15.3532 14.2488ZM16.6366 13.0457L17.0126 12.6907L17.8786 13.6123C17.75 13.7266 17.624 13.8444 17.4949 13.9601L16.6366 13.0457ZM17.9607 11.887L18.3493 11.5454L19.1866 12.4993C19.0521 12.61 18.9177 12.7176 18.7859 12.8292L17.9607 11.887ZM19.3256 10.7749L19.7254 10.4472L20.5264 11.4289C20.3892 11.5342 20.2534 11.6413 20.1185 11.7485L19.3256 10.7749ZM20.7277 9.71343L21.1396 9.39966L21.9052 10.4078C21.7642 10.5082 21.6236 10.6089 21.4834 10.7099L20.7277 9.71343ZM22.158 8.70265L22.5803 8.40412L23.3091 9.43776C23.1657 9.53324 23.0222 9.63006 22.8801 9.72778L22.158 8.70265ZM23.6314 7.74071L24.0639 7.45608L24.7556 8.51259C24.6086 8.60224 24.4618 8.69383 24.3154 8.78737L23.6314 7.74071ZM25.137 6.82944L25.579 6.56049L26.2321 7.63627L25.7839 7.89446L25.137 6.82944ZM26.6741 5.97374L27.1255 5.72048L27.7369 6.8142C27.5836 6.89488 27.4316 6.97691 27.2796 7.05849L26.6741 5.97374ZM28.2398 5.17138L28.6997 4.93336L29.273 6.04636C29.1165 6.12121 28.9592 6.19517 28.8041 6.27048L28.2398 5.17138ZM29.8324 4.42192L30.3017 4.20228L30.8315 5.32647C30.6729 5.39685 30.5178 5.47036 30.3582 5.54074L29.8324 4.42192ZM31.4555 3.72983L31.9324 3.52544L32.4228 4.66801C32.2619 4.73121 32.0992 4.79352 31.9391 4.85941L31.4555 3.72983ZM33.0983 3.09601L33.5802 2.90865L34.0284 4.06108C33.8648 4.1198 33.7039 4.17987 33.542 4.24038L33.0983 3.09601ZM34.7595 2.51823L35.2481 2.34835L35.6546 3.51378C35.4892 3.56667 35.3252 3.61911 35.1616 3.67246L34.7595 2.51823ZM36.4404 2.00096L36.9357 1.84586L37.2997 3.02295C37.1334 3.07046 36.9671 3.11753 36.8008 3.16639L36.4404 2.00096ZM38.1388 1.54151L38.6377 1.4039L38.9604 2.5895C38.7919 2.63044 38.6244 2.67258 38.4579 2.71591L38.1388 1.54151ZM39.8515 1.14078L40.3562 1.02155L40.6377 2.21836C40.4683 2.25377 40.298 2.28559 40.1285 2.32235L39.8515 1.14078ZM41.5773 0.801011L42.0856 0.699707L42.3245 1.90189C42.1537 1.93058 41.9834 1.96285 41.8135 1.99154L41.5773 0.801011ZM43.3151 0.520859L43.8252 0.437037L44.0224 1.64729C43.8512 1.67105 43.6786 1.69212 43.5078 1.71767L43.3151 0.520859ZM45.0597 0.302564L45.5738 0.235328L45.728 1.45365C45.5559 1.47024 45.3837 1.48727 45.2116 1.50655L45.0597 0.302564ZM46.8118 0.143884L47.3287 0.0963734L47.4394 1.31559C47.2668 1.32545 47.0947 1.34069 46.9217 1.3528L46.8118 0.143884ZM48.569 0.047511L49.0849 0.0179308L49.1571 1.24298C48.9845 1.24656 48.8115 1.24881 48.6389 1.25508L48.569 0.047511ZM50.3279 0.0116548L50.846 0L50.872 1.22639C50.6986 1.22639 50.5264 1.22639 50.353 1.22639L50.3279 0.0116548ZM81.8788 20.7761C82.228 21.1405 82.587 21.5134 82.9165 21.8994C83.2219 21.6304 83.5284 21.36 83.8359 21.0881C83.6315 20.8474 83.4266 20.608 83.2249 20.3709C83.4939 20.1257 83.7597 19.8805 84.0295 19.634C84.3504 20.0126 84.6711 20.3904 84.9914 20.7676C85.1044 20.902 85.2156 21.0338 85.3316 21.167C85.1945 21.2857 85.0542 21.4036 84.9166 21.5206L84.0358 22.2737C83.7426 22.5229 83.2097 22.9774 82.9152 23.2275C82.8986 23.2414 82.8833 23.2558 82.8703 23.2697C82.302 22.5942 81.7098 21.9366 81.1025 21.2974L81.8788 20.7761ZM51.5646 8.18044C51.5646 8.16162 51.5646 8.14414 51.5646 8.12621C51.5722 7.44622 51.5789 6.44977 51.5865 5.76844C51.5942 5.08711 51.6018 4.40623 51.6094 3.7258C50.9024 3.72939 50.1961 3.73372 49.4906 3.7388L47.3708 3.75135C47.4067 4.34079 47.4398 4.93247 47.4739 5.52191C47.508 6.11135 47.5425 6.78506 47.5761 7.37405C48.1817 7.33595 48.8097 7.2844 49.4256 7.28037C49.4157 6.87202 49.404 6.46322 49.3942 6.05442L48.4497 6.0607C48.4351 5.69732 48.4201 5.33395 48.4049 4.97057L49.8926 4.9616C50.0665 4.9616 50.2414 4.95892 50.4153 4.95847C50.4184 5.13777 50.4202 5.32199 50.4207 5.50264C50.4238 5.88857 50.4283 6.27586 50.4314 6.66134C50.4346 7.04683 50.4386 7.74833 50.4413 8.13382C50.4413 8.14413 50.4413 8.15579 50.4413 8.16654C50.3727 8.16654 50.3046 8.16654 50.2351 8.16654C49.0195 8.17416 47.8146 8.23737 46.6263 8.34584C45.8105 8.42145 45.0018 8.51946 44.2004 8.63989C44.1977 8.62286 44.1937 8.60493 44.1905 8.58789C44.0807 7.91553 43.9144 6.93388 43.8037 6.26151C43.693 5.58914 43.5832 4.91678 43.4715 4.24441C42.7768 4.37201 42.0821 4.49902 41.3877 4.62542C40.6932 4.75183 39.9981 4.87883 39.3024 5.00643C39.44 5.58197 39.575 6.15841 39.7108 6.73306C39.8466 7.30771 39.9985 7.96439 40.133 8.53904C40.7229 8.39694 41.3321 8.23692 41.939 8.12621C41.8574 7.72548 41.7754 7.32564 41.6947 6.92401C41.3845 6.98139 41.0748 7.03697 40.7659 7.09345C40.6871 6.73934 40.6089 6.38433 40.5315 6.02843L41.9941 5.75948C42.1649 5.7281 42.3375 5.69628 42.5092 5.6658C42.5428 5.8451 42.5755 6.02439 42.6091 6.20055C42.6784 6.58126 42.7487 6.96122 42.8198 7.34043C42.8893 7.7192 43.0157 8.40815 43.0861 8.78826C43.0861 8.79857 43.0901 8.80888 43.0914 8.81964C41.8298 9.04316 40.5878 9.32227 39.3656 9.65695C38.5761 9.87331 37.7969 10.1113 37.028 10.371C37.0218 10.3535 37.0141 10.3351 37.0088 10.3186C36.7846 9.67578 36.4494 8.73671 36.223 8.09438C35.9966 7.45205 35.7721 6.80926 35.5457 6.16693C34.8838 6.41347 34.2216 6.65941 33.5591 6.90474L31.5716 7.64165C31.8071 8.18433 32.0412 8.7273 32.274 9.27057C32.5075 9.81249 32.7711 10.4329 33.0046 10.9739C33.5591 10.7314 34.1324 10.4678 34.7079 10.2567C34.5585 9.8757 34.4091 9.49529 34.2597 9.11548C33.9634 9.2235 33.6689 9.33377 33.3731 9.4427C33.2341 9.10786 33.097 8.77033 32.958 8.43459C33.4224 8.26247 33.8869 8.0902 34.3516 7.91777L34.8424 7.73533C34.9074 7.90567 34.9702 8.07555 35.0334 8.24588C35.1678 8.60448 35.3045 8.9698 35.4368 9.33064C35.569 9.69147 35.8164 10.3486 35.9505 10.7099C35.955 10.722 35.9594 10.7336 35.9644 10.7453C34.7643 11.1855 33.5908 11.6785 32.4439 12.2245C31.7066 12.5741 30.9809 12.9441 30.2667 13.3343C30.2555 13.3137 30.2434 13.2931 30.2318 13.2725C29.9001 12.6795 29.407 11.813 29.0726 11.22C28.7382 10.627 28.4052 10.0326 28.0708 9.43776C27.4612 9.79636 26.8517 10.1536 26.2424 10.5095C25.6331 10.8654 25.0236 11.2225 24.414 11.5808C24.7392 12.0739 25.0635 12.567 25.3872 13.06C25.7117 13.5531 26.0797 14.1192 26.4015 14.6132C26.9076 14.2783 27.4258 13.9193 27.9574 13.6073C27.744 13.2581 27.5311 12.9112 27.3177 12.5616L26.5024 13.0385C26.3079 12.7316 26.1136 12.4249 25.9197 12.1183L27.203 11.3661C27.3536 11.2791 27.5042 11.1899 27.6548 11.103C27.7481 11.2585 27.8395 11.4168 27.9318 11.5714C28.1268 11.9045 28.3236 12.2379 28.519 12.5696L29.2649 13.8391C29.2734 13.8548 29.2815 13.8682 29.2909 13.8839C28.2381 14.4968 27.2152 15.1532 26.2222 15.853C25.5095 16.3542 24.8103 16.875 24.1307 17.4192C24.1133 17.3972 24.0949 17.3766 24.0774 17.3551C23.6466 16.8284 23.0119 16.0606 22.5789 15.5339C22.1459 15.0072 21.7156 14.4809 21.2835 13.9538C20.7456 14.4119 20.2077 14.8691 19.6698 15.3254C19.1319 15.7818 18.594 16.2393 18.0561 16.698C18.462 17.1292 18.8672 17.5592 19.2718 17.988C19.6752 18.4183 20.1369 18.9114 20.5412 19.3413C20.9809 18.9244 21.4283 18.4802 21.8976 18.0817C21.6286 17.7751 21.3566 17.4698 21.0854 17.1619C20.846 17.3658 20.6053 17.5693 20.3655 17.7733C20.1208 17.5044 19.8765 17.2354 19.6304 16.9665C20.0078 16.6449 20.3857 16.3241 20.764 16.0041C20.8973 15.8911 21.0301 15.7779 21.1625 15.6643C21.282 15.8033 21.4 15.9415 21.5166 16.0789C21.7664 16.3721 22.0174 16.6657 22.2696 16.9597C22.5189 17.2529 22.9729 17.7872 23.2226 18.0803C23.2369 18.0978 23.2517 18.114 23.2674 18.1301C22.3369 18.9145 21.4414 19.7363 20.5811 20.5954C19.9655 21.2113 19.369 21.8459 18.7917 22.4991C18.7697 22.4794 18.7469 22.4619 18.724 22.4426C18.209 21.9975 17.4501 21.3521 16.9311 20.9092C16.412 20.4663 15.8974 20.0217 15.3797 19.577C14.9296 20.1212 14.4792 20.6652 14.0282 21.2091C13.5773 21.753 13.1267 22.2971 12.6763 22.8416C13.151 23.1935 13.6253 23.548 14.0982 23.9008C14.571 24.2536 15.1107 24.6592 15.5823 25.0124C15.9409 24.5252 16.3071 24.0106 16.6998 23.5359C16.3806 23.2809 16.0601 23.0281 15.741 22.7739C15.5402 23.0168 15.3375 23.2589 15.1381 23.501L14.2748 22.8362L15.225 21.6918C15.3358 21.5574 15.4492 21.4229 15.5585 21.2884C15.6997 21.4045 15.8396 21.5206 15.9799 21.6354C16.2787 21.8819 16.5763 22.1275 16.8728 22.3723C17.1704 22.6175 17.7101 23.0648 18.0077 23.31L18.0606 23.3548C17.243 24.3293 16.4695 25.3399 15.7401 26.3867C15.2743 27.0537 14.831 27.7364 14.4043 28.4312C14.3819 28.4177 14.3595 28.4061 14.3371 28.3931C13.7517 28.0457 12.8924 27.5414 12.3065 27.1945L10.5481 26.1519L9.50007 27.9937C9.15134 28.6075 8.80186 29.2214 8.45163 29.8355C8.98116 30.1015 9.50919 30.3671 10.0357 30.6325C10.5642 30.8979 11.164 31.204 11.6915 31.4689C11.9605 30.927 12.2294 30.3564 12.5356 29.8216C12.177 29.6257 11.8184 29.4317 11.4598 29.2349C11.3047 29.5095 11.1489 29.7832 10.9923 30.0561L10.0263 29.5509L10.7614 28.2591C10.8475 28.1071 10.9344 27.9556 11.021 27.8045C11.1796 27.8942 11.3347 27.9838 11.4948 28.0735C11.8305 28.2644 12.1671 28.4545 12.502 28.645C12.8368 28.8355 13.4482 29.1829 13.7826 29.3707C13.8001 29.3792 13.8144 29.3877 13.8306 29.3967C13.1943 30.4967 12.6074 31.6261 12.0699 32.785C11.7283 33.5231 11.4073 34.2719 11.107 35.0316C11.0882 35.0244 11.0689 35.0172 11.0501 35.011C10.414 34.7693 9.48124 34.4229 8.84205 34.1826C8.20285 33.9423 7.56814 33.7016 6.92984 33.4618C6.69287 34.1273 6.45561 34.7925 6.21804 35.4574C5.98047 36.1223 5.74051 36.7854 5.49816 37.4467L7.19655 37.9559C7.76268 38.1253 8.40681 38.3221 8.97294 38.4938C9.14372 37.9111 9.31091 37.3037 9.51711 36.7237C9.12982 36.5941 8.74254 36.4651 8.35436 36.3337C8.24947 36.6309 8.14234 36.9276 8.03701 37.223C7.69096 37.1146 7.34357 37.0029 6.99753 36.8949C7.16397 36.4279 7.33027 35.9606 7.49642 35.4933C7.55514 35.3301 7.61386 35.1651 7.67572 35.0002C7.84695 35.0598 8.01818 35.1208 8.18896 35.1795C8.55294 35.3092 8.91706 35.4381 9.28133 35.5663L10.6709 36.0594C10.682 36.064 10.6934 36.0681 10.705 36.0715C10.2716 37.2617 9.89154 38.4754 9.56462 39.7126C9.56497 39.7132 9.56516 39.7139 9.56516 39.7146C9.56516 39.7153 9.56497 39.716 9.56462 39.7166C9.35798 40.5028 9.17017 41.2967 9.00835 42.0995L8.95591 42.0892C8.28713 41.9637 7.30592 41.7835 6.63759 41.6575L4.62991 41.2805C4.51038 41.9771 4.39084 42.6731 4.27131 43.3684C4.15178 44.0638 4.03374 44.7605 3.9172 45.4586C4.50395 45.5263 5.0916 45.5967 5.6779 45.6639C6.2642 45.7311 6.93298 45.8159 7.51973 45.8853C7.58786 45.2829 7.64614 44.6554 7.74878 44.0475C7.34447 43.9878 6.94016 43.9267 6.53584 43.8642C6.48429 44.1748 6.43095 44.4846 6.37806 44.7965C6.01946 44.7481 5.65773 44.6993 5.29734 44.6522C5.38012 44.1636 5.46304 43.6749 5.54611 43.186C5.5757 43.0148 5.60528 42.8422 5.63576 42.6696C5.81506 42.6988 5.99436 42.7297 6.17366 42.7593C6.55377 42.8225 6.93567 42.8861 7.31534 42.9502C7.695 43.0143 8.38798 43.1318 8.7672 43.1945C8.77795 43.1968 8.78916 43.1972 8.79947 43.1999C8.58073 44.4433 8.4216 45.7051 8.31447 46.9835V46.988C8.24723 47.7949 8.20241 48.6089 8.17999 49.43C8.16251 49.43 8.14324 49.43 8.12486 49.43C7.44398 49.4215 6.44798 49.4148 5.7671 49.4067C5.08622 49.3987 4.40489 49.3919 3.72356 49.3843C3.72804 50.0908 3.73208 50.797 3.73566 51.5032C3.73925 52.2093 3.74388 52.9159 3.74956 53.6229C4.34034 53.5877 4.93023 53.5531 5.51922 53.5194C6.11001 53.4853 6.78237 53.4508 7.37226 53.4172C7.33461 52.8116 7.28261 52.184 7.27903 51.5677C6.87023 51.5776 6.46233 51.5892 6.05263 51.5982C6.05263 51.9142 6.05622 52.228 6.05801 52.5435C5.69538 52.5588 5.33186 52.5731 4.96833 52.5884C4.96564 52.0932 4.96265 51.5978 4.95937 51.102C4.95937 50.9272 4.95937 50.7524 4.95623 50.5784C5.13867 50.5753 5.32065 50.5744 5.50174 50.5731L6.65911 50.5632C7.04504 50.5601 7.7461 50.5556 8.13203 50.552H8.1661C8.1661 50.621 8.1661 50.6909 8.1661 50.76C8.17372 51.9761 8.23603 53.1783 8.3454 54.367C8.42025 55.1819 8.51887 55.9928 8.63855 56.7938L8.58521 56.8032C7.91284 56.913 6.93029 57.0811 6.25837 57.1909C5.58646 57.3007 4.91364 57.411 4.24128 57.5222C4.36903 58.2188 4.49498 58.9117 4.62229 59.6061C4.74959 60.3004 4.87644 60.9983 5.00329 61.6913C5.57929 61.5541 6.15393 61.4197 6.72813 61.2838C7.30233 61.148 7.95991 60.9952 8.535 60.8611C8.39291 60.2717 8.23289 59.6608 8.12172 59.0565C7.72129 59.1378 7.32056 59.2192 6.91953 59.3008C6.97631 59.6092 7.03324 59.9186 7.09032 60.2291L6.02529 60.4627C5.93564 59.9754 5.84599 59.4868 5.75634 59C5.72497 58.8288 5.69449 58.6567 5.66266 58.4859C5.84196 58.4523 6.02126 58.4187 6.20055 58.3864L7.33954 58.1739C7.71875 58.1054 8.4077 57.9785 8.78737 57.9086C8.79827 57.9057 8.80935 57.9037 8.82053 57.9023C9.04376 59.1634 9.32302 60.405 9.6583 61.6272C9.87376 62.4179 10.1113 63.1975 10.371 63.9661C10.3535 63.9738 10.3356 63.98 10.3177 63.9876C9.67578 64.2118 8.73627 64.5462 8.09393 64.7721C7.4516 64.998 6.80882 65.2226 6.16649 65.4485C6.41302 66.111 6.65851 66.773 6.90295 67.4346C7.14739 68.0962 7.39318 68.7587 7.64031 69.4222C8.18358 69.1873 8.72655 68.9533 9.26923 68.7202C9.81205 68.4867 10.432 68.2222 10.9726 67.9905C10.7314 67.4346 10.4674 66.8618 10.2527 66.2871L9.11144 66.7354C9.22082 67.0303 9.33004 67.3256 9.43911 67.6211C9.10428 67.7601 8.76674 67.8977 8.43146 68.0362C8.25993 67.5724 8.08736 67.1079 7.91374 66.6426C7.85367 66.4808 7.79361 66.3145 7.73444 66.1495C7.90433 66.0854 8.07466 66.0231 8.24499 65.959L9.32884 65.5556C9.69057 65.4211 10.3477 65.1768 10.709 65.041L10.7439 65.0271C11.1844 66.2275 11.6767 67.3995 12.2209 68.5431C12.2216 68.5447 12.2223 68.5462 12.2232 68.5476C12.5728 69.2869 12.9424 70.0132 13.3321 70.7265C13.3124 70.7368 13.2927 70.7489 13.272 70.7615C12.6772 71.0941 11.8108 71.5858 11.2173 71.9202C10.6238 72.2546 10.0303 72.5872 9.43642 72.9229C9.79502 73.5322 10.152 74.1414 10.5073 74.7504C10.8626 75.3594 11.2197 75.969 11.5786 76.5792C12.0731 76.2544 12.5662 75.9297 13.0578 75.6052C13.5508 75.2816 14.1174 74.9136 14.6114 74.59C14.2761 74.0848 13.9166 73.5671 13.606 73.0359C13.2564 73.2497 12.909 73.4635 12.5589 73.6755C12.7182 73.9472 12.8774 74.219 13.0367 74.4909C12.7306 74.6845 12.4231 74.88 12.1169 75.0736C11.8664 74.6464 11.6153 74.2175 11.3643 73.7916C11.2765 73.6401 11.1883 73.4894 11.0999 73.3393C11.2567 73.2448 11.4136 73.1529 11.5696 73.0619C11.9022 72.8665 12.2353 72.6692 12.5678 72.4738C12.9004 72.2784 13.5056 71.9229 13.8368 71.7275C13.8516 71.7198 13.8664 71.7109 13.8817 71.7028C14.4966 72.7592 15.1557 73.7851 15.8589 74.7805C16.3579 75.4905 16.8773 76.1846 17.4169 76.863C17.3968 76.8814 17.3753 76.8993 17.3542 76.9181C16.8275 77.3484 16.0592 77.9831 15.5325 78.4139L13.9525 79.7102C14.4106 80.2481 14.8669 80.786 15.3236 81.3266C15.7804 81.8672 16.2394 82.4024 16.6966 82.9403C17.1269 82.5324 17.5569 82.1269 17.9867 81.7237C18.417 81.3203 18.9096 80.8595 19.3399 80.4534C18.9226 80.0155 18.4779 79.5663 18.0795 79.0979C17.7738 79.3696 17.4676 79.6381 17.1601 79.9101C17.3645 80.1513 17.5689 80.3893 17.772 80.6309C17.503 80.8748 17.2341 81.1191 16.9678 81.3647C16.6464 80.9877 16.325 80.609 16.0045 80.232C15.892 80.0975 15.7804 79.963 15.6648 79.8335C15.8028 79.7147 15.9418 79.5955 16.0789 79.4798C16.373 79.2293 16.667 78.9769 16.9602 78.7268C17.2533 78.4767 17.7876 78.023 18.0808 77.7729C18.0974 77.7572 18.1131 77.7438 18.1301 77.7281C18.9139 78.6584 19.7357 79.5529 20.5954 80.4117C21.2113 81.0288 21.8456 81.6253 22.4982 82.2011C22.4808 82.2226 22.4624 82.2459 22.444 82.2652C22.0007 82.7812 21.3548 83.54 20.9106 84.0582C20.4663 84.5764 20.0244 85.0914 19.5793 85.6091C20.1243 86.0574 20.6681 86.5077 21.2104 86.9601L22.8434 88.3125C23.1966 87.8376 23.5498 87.3634 23.903 86.8897C24.2562 86.4164 24.6615 85.8776 25.0147 85.4047C24.5279 85.0461 24.0124 84.6808 23.5382 84.2886C23.2836 84.6077 23.0288 84.9278 22.7739 85.2487C23.0164 85.4473 23.2585 85.6486 23.5014 85.8503C23.28 86.1371 23.0584 86.4252 22.8367 86.7145C22.4545 86.3983 22.0727 86.0823 21.6914 85.7664C21.5569 85.6548 21.4225 85.5423 21.288 85.4321C21.403 85.2913 21.5188 85.1509 21.6354 85.0107L22.3718 84.1178C22.6179 83.8197 23.0644 83.2791 23.3096 82.9833C23.3226 82.9667 23.3356 82.9497 23.3499 82.9344C24.325 83.7511 25.3353 84.5245 26.3809 85.2546C27.0485 85.7204 27.73 86.1663 28.4254 86.5921C28.4137 86.6136 28.4016 86.6347 28.3891 86.6562C28.0412 87.2389 27.5374 88.1005 27.19 88.685C26.8426 89.2695 26.4966 89.8576 26.1483 90.4439C26.7637 90.7935 27.3756 91.1427 27.9892 91.4928C28.6029 91.8428 29.2183 92.1902 29.8319 92.5399L30.6289 90.9549C30.8943 90.4268 31.1995 89.8284 31.4653 89.3004C30.9234 89.0315 30.3528 88.7625 29.8181 88.4559C29.6222 88.8145 29.4281 89.1731 29.2313 89.5339C29.505 89.6893 29.7788 89.8455 30.0525 90.0023C29.8845 90.3233 29.7163 90.645 29.5478 90.9674C29.1174 90.7231 28.6853 90.4775 28.2555 90.2314C28.1035 90.1462 27.9511 90.0588 27.801 89.9737C27.8906 89.815 27.9803 89.6559 28.0699 89.4985C28.2609 89.1628 28.4505 88.8262 28.6414 88.4913C28.8324 88.1565 29.1793 87.5464 29.3671 87.2107C29.3756 87.1968 29.3828 87.1815 29.3909 87.1659C30.4909 87.803 31.6203 88.3897 32.7791 88.9261C33.5173 89.268 34.2661 89.5895 35.0257 89.8907L35.0069 89.9427C34.7653 90.5792 34.4179 91.5116 34.1786 92.1517C33.9392 92.7918 33.6985 93.4265 33.4578 94.063C34.1236 94.302 34.7888 94.5398 35.4534 94.7761C36.118 95.0125 36.7833 95.2496 37.4494 95.4875C37.6188 94.9197 37.7886 94.3539 37.9586 93.79C38.1285 93.2248 38.3248 92.5798 38.4965 92.0145C37.9138 91.8415 37.3073 91.677 36.7264 91.4694C36.5968 91.8572 36.4677 92.2449 36.3364 92.6349C36.6331 92.7389 36.9294 92.8456 37.2266 92.9522C37.1164 93.2974 37.0065 93.6452 36.8967 93.9922C36.4305 93.8259 35.9635 93.6578 35.4968 93.4928C35.3328 93.4319 35.1678 93.374 35.0038 93.3135C35.0635 93.1426 35.1233 92.9711 35.1831 92.7989C35.3131 92.4372 35.4417 92.0705 35.5704 91.7075C35.699 91.3444 35.9348 90.6846 36.0634 90.3215C36.0675 90.3107 36.0701 90.3 36.0742 90.2892C37.2635 90.7228 38.4759 91.1029 39.7112 91.4296H39.7144C39.7151 91.4293 39.7158 91.4291 39.7166 91.4291C39.7174 91.4291 39.7181 91.4293 39.7188 91.4296C40.5042 91.6371 41.298 91.8249 42.1013 91.9867C42.0972 92.0046 42.095 92.0203 42.0918 92.0369C41.9654 92.7057 41.7861 93.6874 41.6597 94.3561C41.5333 95.0249 41.4083 95.6933 41.2819 96.3634C41.979 96.4808 42.6755 96.5994 43.3711 96.7193C44.0668 96.8391 44.7632 96.957 45.4604 97.0729C45.5285 96.4857 45.5973 95.8987 45.6666 95.3118C45.7361 94.7255 45.8185 94.0567 45.8871 93.4704C45.2856 93.4018 44.6563 93.3453 44.0493 93.2414C43.9879 93.6448 43.9279 94.0482 43.8669 94.4516C44.1762 94.5045 44.4873 94.5583 44.7979 94.6103C44.7499 94.9689 44.7011 95.3306 44.6536 95.691C44.165 95.6085 43.6768 95.5243 43.1883 95.4436C43.0166 95.4131 42.844 95.3826 42.6723 95.3539C42.7015 95.1746 42.731 94.9953 42.762 94.816C42.8261 94.4355 42.8897 94.054 42.9538 93.6739C43.0179 93.2938 43.1331 92.604 43.1972 92.222C43.1995 92.2125 43.201 92.2027 43.2017 92.1929C44.4456 92.4117 45.7083 92.5703 46.9853 92.677H46.9907C47.7975 92.7443 48.6114 92.7891 49.4323 92.8115C49.4323 92.8281 49.4323 92.8465 49.4323 92.8635C49.4238 93.5439 49.4162 94.5413 49.409 95.2217C49.4018 95.9021 49.3933 96.5839 49.3857 97.2643C50.0927 97.2599 50.799 97.2563 51.5045 97.2536C52.2114 97.2478 52.9165 97.2433 53.6251 97.2383C53.5888 96.648 53.5552 96.0572 53.5216 95.4691C53.488 94.881 53.4512 94.2051 53.4194 93.6174C52.8129 93.6542 52.1854 93.7071 51.5704 93.7071C51.5798 94.1163 51.5915 94.5238 51.6009 94.9348C51.9147 94.9317 52.2284 94.9285 52.5458 94.9285C52.561 95.2916 52.5749 95.6552 52.5906 96.0169C52.0943 96.022 51.5986 96.0255 51.1038 96.0276C50.9299 96.0276 50.7546 96.0276 50.5802 96.0308C50.5771 95.8474 50.5766 95.6659 50.5749 95.4839C50.5749 95.0998 50.5681 94.7116 50.565 94.327C50.5619 93.9424 50.5574 93.24 50.5542 92.855C50.5542 92.8433 50.5542 92.8339 50.5542 92.8218C50.6246 92.8218 50.6941 92.8249 50.7645 92.8218C51.9801 92.814 53.182 92.7543 54.3701 92.6425C55.185 92.5693 55.9941 92.4716 56.7974 92.3494C56.8005 92.3677 56.8036 92.3843 56.8068 92.4013C56.9166 93.0737 57.0829 94.0563 57.1941 94.7277C57.3052 95.3992 57.4142 96.0725 57.5253 96.7448C58.2201 96.6181 58.9149 96.4919 59.6096 96.3661C60.3044 96.2402 60.9995 96.1131 61.6949 95.9846C61.5574 95.4073 61.421 94.8322 61.2856 94.2593C61.1512 93.6838 60.9988 93.0262 60.8643 92.452C60.2753 92.5936 59.6643 92.7541 59.0583 92.8644C59.139 93.2678 59.2219 93.6654 59.3026 94.067C59.611 94.0088 59.9207 93.9541 60.2323 93.8976C60.3103 94.2517 60.3878 94.6076 60.4658 94.9613L59.0032 95.2302C58.8324 95.262 58.6598 95.2925 58.489 95.323C58.4541 95.1464 58.4218 94.9675 58.3882 94.7887C58.3178 94.4104 58.2474 94.0267 58.1775 93.6502C58.1076 93.2736 57.9821 92.5815 57.9117 92.2028C57.9091 92.1928 57.9072 92.1826 57.9059 92.1723C59.1666 91.9494 60.4083 91.67 61.6308 91.3341C62.4215 91.1171 63.201 90.879 63.9693 90.6196C63.9755 90.6362 63.9832 90.6532 63.9894 90.6716C64.2136 91.3126 64.5497 92.2516 64.7743 92.8944C64.9989 93.5372 65.2226 94.1795 65.4516 94.8219C66.1141 94.578 66.7763 94.3328 67.4382 94.0863L69.4257 93.3489C69.1906 92.8072 68.9564 92.2642 68.7233 91.72C68.4898 91.1781 68.2258 90.5582 67.9936 90.0167C67.4382 90.2578 66.8654 90.5205 66.2871 90.7339C66.4365 91.114 66.586 91.4947 66.7354 91.876C67.0317 91.7657 67.3262 91.6577 67.6211 91.5479C67.7614 91.8836 67.899 92.2203 68.0366 92.5551L66.6408 93.0881C66.4758 93.1477 66.3127 93.2086 66.1477 93.2696C66.0836 93.0984 66.0195 92.9307 65.9568 92.7599C65.8223 92.3978 65.6878 92.036 65.5534 91.6756C65.4189 91.3153 65.175 90.6559 65.0374 90.2959C65.0344 90.2844 65.0304 90.2731 65.0253 90.2623C66.1857 89.8362 67.3212 89.362 68.432 88.8396C68.432 88.8365 68.4365 88.8365 68.4396 88.8333C68.4496 88.8298 68.4593 88.8256 68.4687 88.8208C68.4766 88.8162 68.4848 88.8123 68.4934 88.8091C68.4979 88.806 68.5023 88.806 68.5068 88.8028C68.5194 88.797 68.5315 88.7903 68.5436 88.7858C69.2829 88.4365 70.0107 88.0656 70.727 87.6733C70.7367 87.6933 70.7478 87.7126 70.7601 87.7311C71.0932 88.3264 71.5845 89.1924 71.9175 89.7863C72.2506 90.3802 72.5859 90.9737 72.9189 91.5676C73.5294 91.209 74.1395 90.8522 74.7491 90.4972L76.5766 89.4259C76.2529 88.931 75.9282 88.438 75.6025 87.9467C75.2789 87.4536 74.9127 86.8871 74.5891 86.3926C74.0839 86.7284 73.5662 87.0874 73.035 87.3985C73.2469 87.7469 73.4599 88.0955 73.6742 88.4443C73.9431 88.2856 74.2149 88.1263 74.4895 87.9664C74.6836 88.2735 74.8791 88.5819 75.0745 88.8871C74.6469 89.1372 74.219 89.3881 73.7907 89.6397C73.6392 89.7267 73.49 89.8154 73.3384 89.9037C73.2452 89.7482 73.1538 89.59 73.0623 89.4335C72.8669 89.1009 72.6701 88.7683 72.4747 88.4353C72.2792 88.1022 71.9233 87.498 71.7279 87.1681C71.7203 87.1529 71.7113 87.1403 71.7033 87.1233C72.7566 86.5092 73.7801 85.8518 74.7737 85.151C75.4864 84.649 76.1836 84.1268 76.8652 83.5844C76.8818 83.6059 76.9002 83.6261 76.9172 83.6471C77.3489 84.1738 77.984 84.9417 78.4144 85.467C78.8447 85.9924 79.2786 86.5204 79.7093 87.0484C80.2493 86.5906 80.7872 86.1337 81.323 85.6777C81.8588 85.2217 82.3977 84.7636 82.9398 84.3034C82.5319 83.8731 82.1263 83.4432 81.7228 83.0138C81.3194 82.583 80.8591 82.09 80.4525 81.661C80.0132 82.0779 79.5659 82.5221 79.097 82.9205C79.3687 83.2271 79.6376 83.5328 79.9093 83.8394C80.1483 83.635 80.3886 83.4316 80.63 83.2289C80.8743 83.4979 81.1182 83.7668 81.3642 84.0358C80.9868 84.3581 80.6085 84.6768 80.2315 84.9991C80.0971 85.1107 79.9626 85.2232 79.8326 85.3379C79.7138 85.2003 79.5946 85.0614 79.4789 84.9229C79.2284 84.6297 78.9751 84.3365 78.7263 84.0416C78.4776 83.7467 78.0221 83.2159 77.772 82.921C77.7574 82.9054 77.7437 82.8891 77.7308 82.8721C78.6604 82.0889 79.556 81.2671 80.4176 80.4068C81.0343 79.7912 81.6307 79.1567 82.2065 78.5031C82.228 78.521 82.2513 78.5381 82.2706 78.5547C82.7852 79.0029 83.544 79.6448 84.06 80.0894C84.5759 80.5341 85.095 80.9761 85.6109 81.4203C86.0632 80.8757 86.5114 80.3319 86.9637 79.7887L88.3161 78.1566C87.8415 77.8037 87.3673 77.4505 86.8933 77.097C86.42 76.7442 85.8825 76.3385 85.4096 75.984C85.051 76.4726 84.6844 76.9871 84.2922 77.4632L85.251 78.2252C85.4509 77.984 85.6544 77.7415 85.8552 77.4986C86.1421 77.72 86.4294 77.9428 86.7181 78.1642C86.4016 78.5444 86.0843 78.9263 85.77 79.3091C85.658 79.4429 85.5465 79.5774 85.4356 79.7125C85.2936 79.5964 85.1532 79.4803 85.0156 79.366L84.12 78.6259C83.8238 78.3816 83.2832 77.9329 82.9837 77.6887C82.969 77.6765 82.9533 77.664 82.9389 77.6506C83.7543 76.6747 84.5311 75.6644 85.2595 74.6186C85.7248 73.9499 86.1705 73.2679 86.5966 72.5729C86.6168 72.585 86.6378 72.5971 86.658 72.6078C87.2443 72.9557 88.1022 73.4595 88.6881 73.806C89.2739 74.1525 89.8607 74.5008 90.447 74.849C90.7966 74.2336 91.1458 73.6217 91.4959 73.0076C91.846 72.3936 92.1933 71.779 92.543 71.1654C92.0132 70.8996 91.4865 70.6342 90.958 70.3684C90.4295 70.1026 89.8302 69.7973 89.3035 69.5315C89.0346 70.0752 88.7656 70.6445 88.459 71.1802C88.8176 71.3756 89.1762 71.5697 89.5348 71.7665C89.6905 71.4921 89.8462 71.2184 90.0019 70.9453C90.3237 71.1135 90.6463 71.2815 90.9697 71.4491C90.7222 71.8799 90.4766 72.312 90.2323 72.7423C90.1471 72.8934 90.0597 73.0457 89.9746 73.1973C89.8159 73.1076 89.6567 73.018 89.4981 72.9283C89.1655 72.736 88.8257 72.5464 88.4904 72.3572C88.1551 72.1681 87.5491 71.8194 87.2116 71.6306C87.1972 71.6217 87.1838 71.6154 87.1668 71.606C87.8033 70.5069 88.3905 69.3778 88.9284 68.2186C89.2702 67.4811 89.5918 66.7325 89.893 65.9729C89.91 65.9774 89.9266 65.9855 89.9454 65.9913C90.5801 66.2324 91.5143 66.5794 92.1526 66.8187C92.7909 67.0581 93.4274 67.2997 94.0639 67.5395C94.3029 66.8737 94.5411 66.209 94.7784 65.5453C95.0156 64.8816 95.2528 64.2161 95.4897 63.5488C94.922 63.3791 94.3557 63.2091 93.7909 63.0387C93.2243 62.8693 92.5806 62.6725 92.0154 62.5008C91.8424 63.0835 91.6761 63.6914 91.4717 64.2714C91.8581 64.3996 92.2458 64.5309 92.6317 64.6605C92.7389 64.3628 92.8442 64.0683 92.9509 63.7707C93.2978 63.881 93.6425 63.9903 93.9908 64.1002C93.8229 64.5675 93.6558 65.0347 93.4897 65.5018C93.4319 65.6636 93.3722 65.8299 93.3144 65.9949C93.1419 65.9353 92.9711 65.8756 92.7998 65.8156C92.4363 65.6842 92.0714 65.556 91.7084 65.4278C91.3453 65.2997 90.6841 65.0643 90.3188 64.9348C90.3098 64.9316 90.3009 64.9285 90.2897 64.9254C90.7236 63.736 91.1032 62.5229 91.4287 61.2861C91.4287 61.2861 91.4287 61.2816 91.4287 61.2803C91.6362 60.494 91.824 59.7033 91.9872 58.9001L92.032 58.909C92.7044 59.0359 93.6806 59.2147 94.3512 59.3411C95.0218 59.4676 95.6897 59.5931 96.3584 59.7181C96.478 59.0219 96.5975 58.3259 96.717 57.6302C96.8366 56.9345 96.9545 56.2378 97.0707 55.5401L95.3091 55.3339C94.7228 55.2639 94.054 55.181 93.4682 55.1138C93.3996 55.7153 93.3413 56.3429 93.2391 56.9516C93.6419 57.0113 94.0454 57.0719 94.4494 57.1331C94.5009 56.8229 94.5547 56.5136 94.6085 56.2017C94.9671 56.251 95.3288 56.298 95.6888 56.3455C95.6066 56.8338 95.5232 57.3223 95.4386 57.8109C95.4113 57.9834 95.3804 58.156 95.349 58.3286C95.1724 58.2994 94.9904 58.269 94.8133 58.2389C94.4332 58.1748 94.0513 58.1121 93.6699 58.0462C93.2884 57.9803 92.5999 57.8669 92.2198 57.8023C92.2105 57.802 92.2012 57.8009 92.192 57.7992C92.4102 56.5537 92.5715 55.2907 92.6761 54.0102C92.7422 53.2034 92.7859 52.3893 92.8075 51.5682C92.8258 51.5682 92.8411 51.5682 92.8594 51.5682C93.5403 51.5758 94.5354 51.583 95.2163 51.5906C95.8972 51.5982 96.5785 51.6063 97.259 51.6139C97.2558 50.9066 97.2513 50.2019 97.2486 49.495C97.2459 48.7882 97.2379 48.0822 97.2348 47.3753C96.644 47.4106 96.0538 47.4451 95.4642 47.4788C94.8748 47.5129 94.201 47.5479 93.6102 47.581C93.6488 48.1862 93.7021 48.8142 93.7053 49.4296L94.9294 49.3991C94.9294 49.0853 94.9263 48.7716 94.9263 48.4547C95.2849 48.439 95.6516 48.4242 96.0146 48.4098C96.0182 48.9053 96.0214 49.4009 96.024 49.8967C96.024 50.0706 96.024 50.2467 96.0272 50.4207C95.8452 50.4229 95.6641 50.4247 95.4821 50.426C95.0975 50.4283 94.7098 50.4328 94.3247 50.4359C93.9397 50.439 93.2382 50.4435 92.8518 50.4471H92.8214C92.8214 50.3781 92.8214 50.3082 92.8214 50.2405C92.8137 49.0239 92.751 47.82 92.6421 46.6317C92.5674 45.815 92.4696 45.0057 92.3489 44.204C92.3659 44.204 92.3825 44.1981 92.3996 44.195C93.0719 44.0861 94.0527 43.9184 94.7255 43.8086C95.3983 43.6988 96.0702 43.5845 96.7426 43.4769C96.6162 42.7804 96.4893 42.0874 96.3625 41.3921C96.2356 40.6969 96.1074 40.0026 95.9806 39.3078C95.4056 39.4438 94.8307 39.5796 94.2557 39.7153C93.6802 39.8497 93.024 40.0021 92.4498 40.138C92.5901 40.7274 92.7519 41.337 92.8621 41.9426L94.0648 41.6992C94.007 41.3899 93.9523 41.0802 93.894 40.77C94.2486 40.6911 94.6058 40.6144 94.9595 40.536C95.0491 41.0228 95.1388 41.5102 95.2284 41.9982C95.2607 42.1689 95.2912 42.3424 95.3216 42.5132L94.7873 42.6136C94.409 42.6826 94.0253 42.7539 93.6484 42.8234C93.2714 42.8929 92.5797 43.0206 92.1996 43.0923C92.1907 43.0923 92.1817 43.0968 92.1709 43.0986C91.9468 41.8359 91.6667 40.5934 91.3341 39.3719C91.1177 38.583 90.8796 37.8035 90.6196 37.0334L90.6702 37.0133C91.313 36.7891 92.2503 36.4547 92.8944 36.2297L94.8219 35.5524C94.5777 34.8899 94.3325 34.2277 94.0863 33.5658C93.8384 32.9038 93.5932 32.2413 93.3498 31.5787L91.72 32.2807C91.1776 32.5138 90.5546 32.7778 90.0144 33.01C90.2569 33.5663 90.5196 34.1378 90.7352 34.7156L91.8756 34.2673C91.7653 33.9719 91.6573 33.6774 91.5474 33.3811C91.8832 33.2431 92.2198 33.1046 92.5564 32.9652C92.7272 33.43 92.9016 33.8948 93.0724 34.3597L93.2557 34.8505L92.7456 35.0419C92.3825 35.1764 92.0203 35.3108 91.6604 35.4453C91.3005 35.5798 90.642 35.8241 90.2803 35.9599C90.2695 35.9644 90.2587 35.9684 90.248 35.972C89.8207 34.8128 89.346 33.6773 88.8239 32.5653C88.8225 32.5631 88.8215 32.5607 88.8208 32.5582C88.8156 32.5486 88.811 32.5387 88.8069 32.5286L88.7889 32.4923C88.7827 32.4788 88.7764 32.4676 88.7701 32.4546C88.7701 32.4546 88.7701 32.4515 88.7701 32.4506C88.4205 31.7128 88.0505 30.9866 87.6603 30.2721C87.6786 30.2605 87.7002 30.2502 87.7181 30.2385C88.3138 29.9059 89.1794 29.4128 89.7733 29.0798L91.5551 28.0775C91.1965 27.4679 90.8397 26.8583 90.4847 26.2487C90.1296 25.6391 89.7724 25.0298 89.4129 24.4207C88.9183 24.7459 88.4242 25.0706 87.9306 25.3948C87.4375 25.7184 86.8727 26.0864 86.3779 26.4101C86.714 26.9148 87.0713 27.4329 87.3824 27.9641C87.7305 27.7508 88.0797 27.5375 88.4299 27.3245C88.2712 27.0524 88.1108 26.7816 87.9516 26.5091C88.2591 26.3146 88.5671 26.1196 88.8723 25.9237C89.123 26.3519 89.3735 26.78 89.6236 27.2079C89.7132 27.3581 89.8006 27.5091 89.8889 27.6593C89.7315 27.7525 89.5749 27.8449 89.4192 27.9363C89.0861 28.1318 88.7535 28.329 88.4205 28.5244C88.0874 28.7199 87.4832 29.074 87.152 29.2694C87.1385 29.2784 87.1246 29.286 87.1107 29.2945C86.4969 28.2411 85.8395 27.2178 85.1385 26.2245C84.6376 25.5115 84.116 24.8143 83.5736 24.133L83.6359 24.0814C84.1613 23.6507 84.9291 23.0151 85.4558 22.5829C85.9825 22.1508 86.5092 21.7196 87.0359 21.2875C86.5796 20.7496 86.1226 20.2117 85.6651 19.6739L84.6848 18.5205L85.3917 17.6689C85.7552 18.0965 86.1201 18.5263 86.4836 18.9535C87.0652 19.6408 87.6479 20.3272 88.2318 21.0128C88.3488 21.1513 88.4653 21.2884 88.5841 21.4283C88.4407 21.5403 88.2972 21.6524 88.1551 21.7649C87.6222 22.1885 87.0852 22.6112 86.5509 23.0334C86.0166 23.4557 85.4818 23.8784 84.948 24.302C85.2774 24.6892 85.5827 25.1142 85.87 25.5243C86.3917 25.176 86.9628 24.7991 87.4043 24.4983L89.3215 23.1917L89.7733 22.8828C89.8629 23.0397 89.958 23.1966 90.0499 23.3535C90.503 24.1298 90.9598 24.9075 91.413 25.6843L92.7792 28.0152C92.8712 28.1718 92.9629 28.3285 93.054 28.4854C92.8922 28.571 92.7321 28.658 92.5735 28.7436C91.9731 29.0672 91.3731 29.3906 90.7733 29.7136C90.1749 30.0381 89.5734 30.3609 88.975 30.6841C89.2314 31.1229 89.4586 31.5949 89.6711 32.0481C90.2453 31.7953 90.8724 31.5241 91.3596 31.3053L93.474 30.3501C93.6404 30.2757 93.8067 30.201 93.9729 30.126C94.0339 30.2959 94.0984 30.4662 94.1625 30.6365C94.4754 31.4804 94.7884 32.3243 95.1016 33.1682C95.4147 34.0121 95.7285 34.8568 96.0429 35.7021C96.1056 35.8722 96.1682 36.0424 96.2307 36.2127C96.0586 36.2687 95.8855 36.327 95.7148 36.3826C95.0675 36.5986 94.4202 36.8111 93.773 37.0263C93.1257 37.2414 92.4784 37.4543 91.8325 37.669C92.0082 38.146 92.1517 38.6507 92.2808 39.133C92.8899 38.9851 93.5574 38.8259 94.0737 38.6946C94.825 38.5037 95.5731 38.3123 96.3244 38.1222C96.4996 38.0774 96.6749 38.0326 96.8524 37.9877C96.886 38.167 96.9196 38.3463 96.9519 38.5256C97.1136 39.4105 97.2748 40.2959 97.4356 41.1819C97.5963 42.0679 97.7586 42.954 97.9224 43.84C97.9546 44.0193 97.9883 44.1964 98.0201 44.3757C97.8408 44.4016 97.6584 44.4268 97.4822 44.4536L95.4593 44.7499C94.786 44.8489 94.1118 44.9475 93.4368 45.0458C93.5264 45.5469 93.5784 46.0678 93.6241 46.5653C94.2517 46.525 94.9326 46.4846 95.4655 46.4452C96.2365 46.3887 97.007 46.3291 97.7798 46.2708L98.3244 46.2305C98.3244 46.412 98.3244 46.594 98.3276 46.7751C98.3324 47.6758 98.338 48.5758 98.3446 49.4753C98.3512 50.3748 98.3567 51.2758 98.3612 52.1782C98.3612 52.3575 98.3612 52.54 98.3661 52.7224C98.1828 52.7157 97.9995 52.7103 97.8193 52.7049C97.1385 52.6858 96.4572 52.6659 95.7753 52.6453C95.0933 52.6247 94.412 52.6049 93.7313 52.5861C93.7344 53.094 93.6963 53.6171 93.6515 54.1164C94.2745 54.1837 94.9554 54.2626 95.4866 54.3163C96.2564 54.3937 97.0259 54.4705 97.7951 54.5467L98.3401 54.6014C98.3096 54.7807 98.2805 54.96 98.2505 55.1393C98.0976 56.0246 97.9479 56.9148 97.7969 57.8001C97.6458 58.6854 97.4947 59.5769 97.3437 60.464C97.3132 60.6433 97.2827 60.8226 97.254 61.0019C97.0747 60.9651 96.8954 60.927 96.7161 60.8903C96.0505 60.7558 95.3822 60.6137 94.7165 60.4766C94.0509 60.3394 93.3807 60.2018 92.7138 60.0642C92.6277 60.5653 92.4982 61.0718 92.3682 61.5546C92.9702 61.7298 93.6264 61.9239 94.1392 62.0687C94.8828 62.2794 95.6278 62.4869 96.3728 62.6963C96.5481 62.7465 96.7224 62.7967 96.8995 62.846C96.8397 63.0169 96.7786 63.1878 96.7161 63.3588L95.8093 65.9021C95.5059 66.7493 95.202 67.5996 94.8994 68.4454L94.7165 68.9587C94.5489 68.8914 94.3776 68.8242 94.2096 68.757C93.5775 68.5064 92.9424 68.2531 92.3108 68.003C91.6792 67.7529 91.0432 67.4987 90.4098 67.2473C90.239 67.7247 90.0234 68.2043 89.8132 68.6574C90.3748 68.934 90.9867 69.2402 91.4676 69.4728C92.1636 69.8084 92.8603 70.1438 93.5578 70.4791C93.7228 70.558 93.8859 70.6378 94.0509 70.7171C93.9612 70.8745 93.8716 71.0309 93.7819 71.19C93.3364 71.9718 92.8913 72.7539 92.4466 73.5366C92.002 74.3192 91.5566 75.1023 91.1104 75.8858C91.0208 76.0432 90.9311 76.1996 90.8388 76.3596C90.6859 76.2619 90.5304 76.1673 90.378 76.0723C89.7953 75.7137 89.2161 75.3551 88.6361 74.9965C88.0561 74.6379 87.4774 74.282 86.8969 73.9234C86.6437 74.3649 86.3492 74.7984 86.0636 75.2076C86.5675 75.5801 87.117 75.9858 87.5505 76.3004C88.178 76.7509 88.8082 77.201 89.4331 77.6532C89.5828 77.7599 89.7289 77.8666 89.8791 77.9737C89.7612 78.1127 89.6469 78.2512 89.5308 78.3919C88.957 79.0849 88.3825 79.7781 87.8073 80.4714C87.2321 81.1646 86.6604 81.8573 86.0923 82.5494C85.9762 82.687 85.8601 82.8273 85.744 82.9676C85.6096 82.8457 85.4724 82.7233 85.3379 82.6041C84.8284 82.1508 84.3191 81.6979 83.8099 81.2455C83.3007 80.793 82.7915 80.3397 82.2822 79.8855C81.9568 80.2777 81.5906 80.6533 81.2378 81.0061C81.6695 81.4597 82.1428 81.9586 82.5158 82.3405C83.0558 82.8946 83.5961 83.4474 84.1366 83.999C84.2635 84.1304 84.3903 84.2617 84.5185 84.3917C84.3796 84.5091 84.242 84.6266 84.103 84.7445C83.4157 85.3272 82.7299 85.9099 82.0456 86.4926C81.3584 87.0753 80.6713 87.6603 79.9872 88.2434C79.8487 88.3595 79.7098 88.4756 79.5704 88.5949C79.4592 88.451 79.3463 88.3075 79.2333 88.1672C78.8102 87.6329 78.3879 87.0976 77.9666 86.5612C77.5421 86.0287 77.1207 85.4926 76.6989 84.9583C76.3099 85.2882 75.8836 85.593 75.4748 85.8816C75.8226 86.4025 76.2 86.9731 76.5008 87.4146C76.9356 88.0541 77.3711 88.6938 77.8074 89.3336C77.9114 89.4833 78.0136 89.6326 78.1158 89.7854C77.9598 89.8751 77.8021 89.9683 77.6456 90.0602C76.8702 90.5151 76.0916 90.9701 75.3148 91.4251C74.5379 91.88 73.7607 92.3346 72.9839 92.79C72.8279 92.8796 72.6701 92.9733 72.5137 93.0643L72.2573 92.5838C71.9334 91.984 71.6097 91.384 71.2864 90.7836C70.9628 90.1852 70.6391 89.5841 70.315 88.9853C69.8758 89.2417 69.4038 89.4694 68.9506 89.6819C69.2039 90.2556 69.4759 90.8831 69.6956 91.3699C70.0129 92.0752 70.3309 92.78 70.6494 93.4843L70.8736 93.9836C70.7041 94.046 70.5347 94.1087 70.3639 94.1728C69.5194 94.4863 68.6757 94.7993 67.8327 95.1119C66.9897 95.4244 66.145 95.7382 65.2988 96.0532C65.1275 96.1141 64.9576 96.1783 64.7887 96.241C64.7304 96.0684 64.6743 95.8945 64.6174 95.7233C64.4005 95.0765 64.1885 94.4288 63.9733 93.7815C63.7581 93.1342 63.5457 92.487 63.3323 91.841C62.854 92.0172 62.3489 92.1602 61.8666 92.2893C62.0131 92.898 62.175 93.5641 62.3063 94.08C62.4954 94.8308 62.6877 95.5789 62.8787 96.3302C62.9235 96.5095 62.9683 96.6825 63.0132 96.86L62.4753 96.9577L59.819 97.4432C58.9339 97.6046 58.048 97.7668 57.1613 97.93C56.982 97.9605 56.8028 97.9941 56.6235 98.0277C56.5975 97.8462 56.5719 97.6642 56.5459 97.4876C56.4467 96.8125 56.3479 96.1376 56.2496 95.4629C56.1513 94.7881 56.0531 94.1139 55.9551 93.4404C55.4544 93.5323 54.9309 93.5838 54.4333 93.6282C54.4741 94.2557 54.514 94.9362 54.5535 95.4691C54.6117 96.2415 54.6696 97.0111 54.7278 97.7834C54.7431 97.9649 54.7552 98.1469 54.7691 98.3285C54.5871 98.3285 54.4055 98.3285 54.2236 98.333C53.3229 98.3377 52.4228 98.3428 51.5233 98.3482C50.6242 98.3545 49.7218 98.359 48.8222 98.3666C48.6402 98.3666 48.4592 98.3666 48.2772 98.3697C48.283 98.1864 48.2884 98.0035 48.2946 97.8233C48.3135 97.142 48.3333 96.4611 48.3543 95.7807C48.3752 95.1002 48.395 94.4189 48.4139 93.7367C47.9051 93.7367 47.3829 93.7013 46.884 93.6569C46.815 94.2799 46.7365 94.9595 46.6832 95.4906C46.6061 96.2598 46.5293 97.0296 46.4528 97.8C46.4344 97.982 46.4152 98.1622 46.3977 98.3455L45.8598 98.2559C44.9723 98.1047 44.0847 97.954 43.1972 97.804C42.3097 97.654 41.4217 97.503 40.5333 97.3509L39.9954 97.259C40.0326 97.0797 40.0703 96.9004 40.107 96.7264C40.2437 96.0577 40.3831 95.3907 40.5208 94.7232C40.6584 94.0558 40.7955 93.3888 40.9336 92.7205C40.432 92.6349 39.9237 92.5067 39.4405 92.3754C39.2652 92.9769 39.0711 93.6304 38.9264 94.1446C38.7152 94.8882 38.5077 95.6332 38.2988 96.3782C38.2491 96.5534 38.1997 96.7296 38.1504 96.9048C37.9797 96.8439 37.8089 96.7811 37.6368 96.7215C36.7899 96.4194 35.9422 96.1167 35.0939 95.8134C34.2455 95.5101 33.3973 95.2078 32.5492 94.9066L32.036 94.7232C32.1045 94.5525 32.1727 94.3844 32.239 94.2163C32.49 93.5816 32.7428 92.9495 32.9943 92.3144C33.2458 91.6792 33.4968 91.0486 33.7496 90.4152C33.27 90.2444 32.7926 90.0288 32.339 89.8186C32.062 90.3802 31.7563 90.9921 31.5236 91.4717C31.1871 92.1692 30.8515 92.8663 30.5169 93.5632C30.4375 93.7282 30.3582 93.8931 30.2788 94.0563C30.1215 93.9666 29.9651 93.877 29.8055 93.7873C29.0244 93.3433 28.242 92.8986 27.4585 92.4533C26.675 92.0081 25.8937 91.5622 25.1146 91.1158C24.9568 91.0261 24.7992 90.9365 24.6417 90.8468C24.7381 90.6909 24.8349 90.5331 24.9286 90.3825C25.2872 89.8024 25.6458 89.2224 26.0044 88.6424C26.363 88.0624 26.7207 87.4822 27.0775 86.9018C26.6355 86.6517 26.2021 86.3554 25.7924 86.0686C25.4221 86.5751 25.0142 87.1251 24.7022 87.5585C24.2504 88.1843 23.799 88.8118 23.3481 89.4411C23.2419 89.5882 23.1352 89.7374 23.0285 89.8858C22.8895 89.7679 22.7488 89.6536 22.6094 89.5357C21.917 88.9638 21.2237 88.3899 20.5295 87.814C19.8354 87.2382 19.1418 86.6637 18.4488 86.0905L18.0301 85.744C18.1516 85.6064 18.274 85.4706 18.3937 85.3361C18.8458 84.8263 19.299 84.317 19.7532 83.8081C20.2046 83.2984 20.6582 82.7915 21.1118 82.2818C20.7209 81.9577 20.3453 81.5915 19.9912 81.2374C19.538 81.6722 19.0396 82.1442 18.6563 82.5167C18.1041 83.057 17.5513 83.5974 16.9978 84.138C16.8679 84.2662 16.7365 84.3912 16.6061 84.5194C16.4891 84.3823 16.3716 84.2429 16.2542 84.1044C15.6715 83.4171 15.0888 82.7311 14.5061 82.0465C13.9233 81.3611 13.3406 80.6726 12.7579 79.9886C12.6405 79.8496 12.5244 79.7107 12.4051 79.5731C12.549 79.4606 12.6925 79.3489 12.8341 79.236C13.3687 78.8117 13.9036 78.3888 14.4388 77.9675C14.974 77.5461 15.5083 77.1237 16.0417 76.7003C15.7127 76.3107 15.4066 75.8849 15.1188 75.4761C14.5984 75.824 14.0264 76.2009 13.5863 76.5017C12.9468 76.9365 12.3076 77.3722 11.6687 77.8088C11.5176 77.9123 11.3675 78.0145 11.216 78.1167C11.1245 77.961 11.0329 77.8045 10.9412 77.647C10.4873 76.87 10.0321 76.0931 9.57582 75.3161C9.11951 74.5391 8.6644 73.7622 8.21048 72.9852C8.12083 72.8297 8.02804 72.6742 7.93525 72.5168C8.09662 72.4312 8.25754 72.3443 8.41622 72.2586L10.2164 71.2877C10.814 70.9641 11.4136 70.6409 12.0152 70.3182C11.7588 69.8803 11.5311 69.4069 11.3181 68.9537C10.7448 69.2052 10.1177 69.4773 9.63141 69.6969C8.92632 70.0147 8.22079 70.3352 7.5157 70.6526C7.34985 70.7261 7.18355 70.8023 7.01725 70.8767C6.95405 70.7073 6.8913 70.5365 6.82765 70.3653C6.51388 69.5226 6.20011 68.6767 5.88634 67.8345C5.57256 66.9922 5.25879 66.1455 4.94502 65.3001C4.88287 65.1307 4.81967 64.9606 4.75542 64.79C4.92934 64.7335 5.1028 64.677 5.27448 64.6192C5.92085 64.4056 6.56782 64.1913 7.21538 63.9764C7.86294 63.7616 8.50975 63.5473 9.15582 63.3337C8.97921 62.8572 8.83667 62.3507 8.70758 61.8679C8.10021 62.0176 7.43412 62.1767 6.9146 62.3081C6.16514 62.4987 5.41568 62.69 4.66621 62.8818C4.4902 62.9264 4.3136 62.9712 4.13639 63.0163C4.10367 62.837 4.07095 62.6577 4.03867 62.4784C3.87701 61.5945 3.71519 60.709 3.55323 59.8221C3.39126 58.9352 3.22945 58.0492 3.06778 57.164C3.03506 56.9847 3.00189 56.8086 2.96961 56.6261C3.14891 56.6015 3.32821 56.5759 3.5075 56.5499C4.17987 56.4491 4.85762 56.3514 5.53177 56.2523C6.20593 56.1532 6.87964 56.0551 7.5538 55.956C7.46415 55.4571 7.41036 54.9331 7.36599 54.4369C6.73845 54.4768 6.05801 54.5181 5.52595 54.5575C4.75407 54.614 3.98264 54.6715 3.21167 54.7301C3.02968 54.7453 2.84814 54.7574 2.66571 54.7713C2.66571 54.592 2.6657 54.4096 2.66257 54.2262C2.65629 53.3271 2.65076 52.4272 2.64598 51.5265C2.6412 50.6258 2.63552 49.7251 2.62895 48.8245C2.62895 48.6452 2.62895 48.4627 2.62581 48.2803C2.8084 48.2869 2.99038 48.2924 3.17177 48.2969C3.8528 48.3169 4.53398 48.3368 5.21531 48.3565L7.25841 48.4161C7.25841 47.9074 7.29516 47.3852 7.33685 46.8858C6.71424 46.8177 6.03694 46.7401 5.50398 46.6863C4.7339 46.6087 3.96382 46.5318 3.19373 46.4559L2.65046 46.4008C2.68094 46.2215 2.71142 46.0422 2.74011 45.8629C2.88953 44.9751 3.04014 44.0877 3.19194 43.2008C3.34375 42.3139 3.49466 41.4259 3.64467 40.5369C3.6756 40.3576 3.70608 40.1783 3.73432 39.999L4.26728 40.1106C4.93561 40.2451 5.60349 40.3872 6.27048 40.5243C6.93746 40.6615 7.6049 40.8 8.27278 40.9367C8.35795 40.4356 8.48794 39.925 8.61614 39.4418C8.01549 39.2666 7.36105 39.0716 6.84692 38.9272C6.10224 38.7181 5.35756 38.5089 4.61287 38.2997L4.08619 38.1509C4.1476 37.9806 4.20811 37.8098 4.26997 37.639C4.57208 36.7909 4.8748 35.9428 5.17811 35.0948C5.48142 34.2467 5.78398 33.3985 6.0858 32.5501L6.26913 32.0369C6.43857 32.1054 6.60621 32.1713 6.7752 32.2399C7.40946 32.4905 8.04283 32.7437 8.67486 32.9948C9.30688 33.2458 9.94204 33.4977 10.5754 33.7496C10.7475 33.2709 10.9627 32.7926 11.1725 32.339C10.6113 32.062 9.99852 31.7563 9.51756 31.5241C8.82158 31.1879 8.12471 30.8524 7.42695 30.5178C7.26379 30.4384 7.09928 30.36 6.93388 30.2797C7.02353 30.1224 7.11318 29.966 7.20283 29.8064L8.53859 27.4598L9.87436 25.1115C9.964 24.954 10.0537 24.7959 10.1433 24.6373C10.2979 24.735 10.4526 24.8304 10.6068 24.925C11.1877 25.2836 11.7679 25.6422 12.3473 26.0008C12.9267 26.3594 13.5069 26.717 14.0878 27.0735C14.3393 26.631 14.6351 26.198 14.9202 25.7874C14.4151 25.4172 13.8664 25.0102 13.4316 24.6982C12.8041 24.2464 12.1765 23.7947 11.549 23.3432L11.1039 23.0245C11.2209 22.8846 11.337 22.7457 11.4526 22.6054C12.0267 21.9121 12.601 21.2189 13.1757 20.526L14.8987 18.4452C15.0153 18.3054 15.1305 18.166 15.2461 18.0252C15.3806 18.1485 15.5182 18.2682 15.6531 18.3896C16.1632 18.8418 16.6724 19.2949 17.1807 19.7492C17.6908 20.2005 18.1987 20.6551 18.7088 21.1078C19.0338 20.716 19.3995 20.3399 19.7527 19.9872C19.3193 19.5344 18.85 19.0373 18.4766 18.6554C17.9387 18.1023 17.3983 17.5495 16.8553 16.9969C16.7284 16.8665 16.602 16.7361 16.4743 16.6056C16.6128 16.4886 16.7509 16.3703 16.8889 16.2529C17.5762 15.6707 18.2625 15.088 18.9477 14.5047L21.006 12.7566C21.1445 12.6387 21.2826 12.5212 21.4216 12.4038C21.5336 12.5472 21.6457 12.6898 21.7586 12.8328C22.1827 13.3671 22.6054 13.9017 23.0267 14.4366C23.4481 14.9715 23.8709 15.5056 24.2952 16.039C24.6834 15.7105 25.1084 15.4034 25.5176 15.117C25.1702 14.5948 24.7923 14.0255 24.4916 13.5849C24.0563 12.9448 23.6188 12.3061 23.1849 11.6664C23.0818 11.5163 22.9796 11.3661 22.8761 11.2155C23.0321 11.1258 23.1899 11.0313 23.3468 10.9398C24.1237 10.485 24.9007 10.03 25.6776 9.57493L28.0085 8.20913C28.164 8.11948 28.3223 8.02535 28.4787 7.93481C28.5643 8.09528 28.6508 8.2553 28.736 8.41487C29.0605 9.01462 29.3833 9.61617 29.7069 10.2146C30.0305 10.813 30.3533 11.4141 30.6773 12.0138C31.1162 11.757 31.5882 11.5297 32.0418 11.3177C31.789 10.7444 31.5164 10.116 31.2977 9.63006C30.9797 8.92453 30.6612 8.21929 30.342 7.51435C30.2676 7.3494 30.1929 7.1831 30.1179 7.01546C30.2874 6.95405 30.4577 6.8904 30.6276 6.82719L33.1597 5.88588L35.6927 4.94457C35.8635 4.88226 36.0334 4.81906 36.2037 4.75541C36.2602 4.92978 36.3171 5.10101 36.3741 5.27403C36.5901 5.92085 36.803 6.56811 37.0173 7.21582C37.2315 7.86353 37.4454 8.50856 37.661 9.15627C38.137 8.97697 38.6426 8.83622 39.1254 8.70803C38.9766 8.09976 38.8165 7.43412 38.6852 6.91505C38.4951 6.16559 38.3043 5.41568 38.1128 4.66532C38.0674 4.4896 38.0226 4.3133 37.9783 4.13639C38.1554 4.10412 38.3338 4.07184 38.5131 4.03822L41.1698 3.55323L43.8275 3.06688C44.0067 3.03595 44.186 3.00233 44.3653 2.96916C44.3918 3.14846 44.4178 3.32776 44.4438 3.50974C44.5433 4.1839 44.6422 4.85821 44.7405 5.53267C44.8388 6.20712 44.9378 6.88128 45.0373 7.55514C45.5366 7.46549 46.0588 7.4117 46.5555 7.36778C46.516 6.74024 46.4739 6.06025 46.4349 5.52684C46.3772 4.75556 46.3192 3.98428 46.261 3.21301C46.2471 3.03371 46.2341 2.84948 46.2206 2.66705L46.7648 2.66391L49.4654 2.64687L52.1675 2.63029L52.7107 2.62671C52.7049 2.80869 52.6986 2.99068 52.6941 3.17222C52.674 3.854 52.6561 4.53578 52.6345 5.21666C52.613 5.89754 52.5951 6.57842 52.5763 7.25975C53.085 7.25706 53.6072 7.2965 54.1061 7.33774C54.1733 6.71558 54.2527 6.03784 54.3047 5.50487C54.3824 4.73569 54.4598 3.96605 54.5369 3.19597C54.5548 3.01428 54.573 2.8329 54.5916 2.65181L55.1295 2.74146C56.0152 2.89087 56.9021 3.04193 57.7902 3.19463C58.6773 3.34524 59.5675 3.4954 60.4541 3.64646C60.6334 3.67694 60.8127 3.70742 60.992 3.73611C60.9539 3.91541 60.9172 4.09471 60.8791 4.27086C60.7446 4.9383 60.6043 5.60528 60.4671 6.27361C60.33 6.94194 60.1906 7.60759 60.053 8.27457C60.5541 8.36108 61.0624 8.48928 61.5447 8.61883C61.724 8.01684 61.9172 7.36105 62.0606 6.84737C62.2713 6.10328 62.4789 5.35785 62.6882 4.61377C62.737 4.4385 62.7859 4.26279 62.8366 4.08663L63.3493 4.27042L65.8927 5.17811C66.7399 5.48112 67.5881 5.78384 68.4373 6.08625L68.9506 6.26958C68.8802 6.43902 68.8161 6.60801 68.7457 6.77565C68.497 7.40991 68.2437 8.04328 67.9918 8.6762C67.7399 9.30912 67.4893 9.94248 67.2379 10.5759C67.717 10.7471 68.1949 10.9622 68.648 11.1738C68.9259 10.6113 69.2307 9.99986 69.4634 9.5189C69.7993 8.82233 70.1352 8.12531 70.471 7.42784C70.5486 7.26423 70.6284 7.09973 70.7077 6.93477C70.865 7.02442 71.0215 7.11407 71.1806 7.20372L73.5272 8.53949L75.8764 9.87615L76.3484 10.1451C76.2538 10.3002 76.1561 10.4557 76.0629 10.609C75.7043 11.1899 75.3457 11.7701 74.9871 12.3496C74.6312 12.9296 74.2699 13.5096 73.914 14.0892C74.3569 14.3415 74.7903 14.636 75.1996 14.9225C75.5689 14.4173 75.9777 13.8678 76.2897 13.4352C76.7415 12.8077 77.1933 12.1801 77.6452 11.5526C77.7505 11.4038 77.8554 11.2554 77.963 11.1075C78.1033 11.2236 78.2436 11.3397 78.3821 11.4553C79.0754 12.0294 79.7691 12.6037 80.4633 13.1784L81.8829 14.3559L80.903 14.9467C80.4843 14.5993 80.2006 14.3761 79.7824 14.0287C79.2355 13.5777 78.6909 13.127 78.1485 12.6763C77.7947 13.1518 77.4417 13.626 77.0893 14.0991C76.7366 14.5728 76.3305 15.1103 75.9777 15.5836C76.465 15.9422 76.9795 16.308 77.4542 16.7002C77.7093 16.3811 77.963 16.0606 78.2189 15.7414C77.9746 15.5415 77.7339 15.338 77.491 15.1385C77.7124 14.8508 77.9352 14.563 78.1566 14.2743L79.2996 15.2232L79.7031 15.5567C79.5883 15.6979 79.474 15.8382 79.3579 15.9781C79.1105 16.2753 78.8648 16.5743 78.6223 16.8719C78.3798 17.1695 77.9294 17.7079 77.6833 18.0059C77.6698 18.0221 77.6573 18.0396 77.642 18.0566C76.6678 17.2399 75.6572 16.4664 74.6101 15.736C74.6101 15.736 74.6101 15.736 74.6132 15.7338C73.9445 15.2703 73.2627 14.8255 72.5679 14.3994C72.5796 14.3779 72.5917 14.3545 72.6042 14.3339C72.9521 13.749 73.4559 12.8883 73.8042 12.3034C74.1525 11.7184 74.4972 11.1317 74.8454 10.5449C74.23 10.1962 73.6182 9.84656 73.0041 9.49693L71.1618 8.44894C70.896 8.97787 70.6288 9.5059 70.3661 10.0335C70.1035 10.5611 69.7937 11.1617 69.5279 11.6884C70.0703 11.9573 70.6409 12.2263 71.1752 12.5324C71.3707 12.1738 71.5661 11.8152 71.7615 11.4567L70.9417 10.9909C71.1093 10.6691 71.2806 10.3473 71.4487 10.025L72.74 10.7601C72.8911 10.8461 73.0422 10.9336 73.195 11.0196C73.1054 11.1783 73.0157 11.3361 72.9261 11.4952C72.7369 11.8291 72.546 12.1676 72.355 12.5024C72.1641 12.8372 71.8194 13.4437 71.6284 13.7826C71.6208 13.7974 71.6136 13.8122 71.6037 13.8274C70.505 13.19 69.3758 12.6031 68.2164 12.0667C67.4801 11.724 66.7315 11.4032 65.9707 11.1043C65.9783 11.086 65.9846 11.0662 65.9908 11.0479C66.232 10.4109 66.5798 9.479 66.821 8.83936C67.0621 8.19971 67.3006 7.5659 67.5382 6.9285C66.8727 6.68943 66.2075 6.45172 65.5426 6.21534C64.8777 5.97897 64.2121 5.7414 63.5457 5.50264C63.3762 6.07101 63.2068 6.6358 63.0374 7.20148C62.8679 7.76716 62.6694 8.41174 62.5017 8.97787C63.0817 9.1491 63.6896 9.31584 64.2696 9.52203C64.4005 9.1343 64.5287 8.74747 64.66 8.35929C64.3637 8.25485 64.0679 8.14817 63.7702 8.04149C63.8802 7.69574 63.9896 7.3494 64.0984 7.00246C64.5654 7.16801 65.0327 7.33431 65.5 7.50135C65.665 7.56007 65.8295 7.61969 65.9931 7.67796L65.8098 8.1921C65.6816 8.55473 65.5534 8.92049 65.4238 9.28357C65.2943 9.64665 65.0589 10.3074 64.9307 10.6731C64.9276 10.6843 64.9227 10.696 64.9182 10.7076C63.7277 10.2737 62.5131 9.89348 61.2744 9.56686C60.4882 9.35947 59.6948 9.17405 58.8943 9.01059C58.8974 8.99401 58.8987 8.97652 58.9019 8.96039C59.0287 8.29161 59.2089 7.31085 59.334 6.64118C59.459 5.9715 59.5859 5.30317 59.7127 4.63394C59.0153 4.51441 58.3192 4.39488 57.6244 4.27535C56.9296 4.15581 56.2324 4.03763 55.5329 3.92078C55.4656 4.50933 55.3953 5.09653 55.3285 5.68283C55.2617 6.26913 55.1756 6.93791 55.107 7.52466C55.7099 7.59235 56.3357 7.65017 56.9448 7.75282C57.0046 7.3491 57.0656 6.94568 57.1277 6.54256C56.8166 6.49056 56.5063 6.43767 56.1967 6.38388C56.2442 6.02528 56.2921 5.6649 56.3402 5.30272L57.8059 5.55239L58.3218 5.64204C58.2945 5.82134 58.2636 6.00063 58.2322 6.17993C58.1681 6.55959 58.104 6.94194 58.0399 7.32116L57.7956 8.77392C57.7956 8.78288 57.7929 8.79364 57.7911 8.80305C56.5468 8.58431 55.281 8.42429 54.0039 8.31895C53.1975 8.24499 52.3844 8.20106 51.5655 8.18089L51.5646 8.18044ZM52.0881 0.0380996L52.6045 0.0448243L52.5893 1.26763C52.4149 1.26046 52.2428 1.25643 52.0702 1.25015L52.0881 0.0380996Z" fill="#82231E"/>
<path fill-rule="evenodd" clip-rule="evenodd" d="M35.5198 37.2208C35.4033 37.2091 34.8923 37.8542 34.8165 37.977C34.2831 38.834 34.4812 40.3173 34.2889 41.1456C34.7901 40.9018 36.3137 39.8457 36.7543 38.3961C36.5697 38.5162 36.3773 38.6238 36.1783 38.7179C35.8869 38.8632 35.7654 38.9716 35.5749 39.2325C35.4113 39.4566 35.133 39.7449 35.0819 39.7704C35.12 39.7256 35.323 39.3903 35.4696 39.1478C35.9178 38.4006 35.4024 37.9308 35.5216 37.2203L35.5198 37.2208ZM33.4328 42.4141C33.3288 42.4451 33.1145 43.1793 33.0912 43.3106C32.9308 44.2349 33.7008 45.1525 33.8205 45.9338C33.9693 44.741 35.3683 44.4546 34.8479 42.7329C34.6336 43.0565 34.3167 43.8172 34.1186 44.096C34.0738 44.1569 33.9182 44.931 33.8667 44.996C33.8922 44.914 34.0146 44.1251 34.0231 44.0493C34.0931 43.4344 33.5413 42.909 33.431 42.4146L33.4328 42.4141ZM34.1258 39.939C33.8528 40.1568 33.4453 40.7525 33.401 41.445C33.3561 42.1237 34.0733 43.0982 34.1182 43.7396C34.28 43.4922 34.5498 42.7938 34.8941 42.2156C35.0792 41.9018 35.4602 41.0569 35.432 40.5544C35.1361 40.9578 34.544 40.9896 34.3485 41.4881C34.2616 41.7122 34.119 42.0062 34.0473 41.9986C34.3427 41.4204 33.9967 40.3661 34.124 39.9394L34.1258 39.939ZM33.1975 44.6433C33.0244 44.9472 32.8698 45.6532 33.0849 46.3121C33.2965 46.9584 33.7125 47.5672 33.9931 48.1463C34.2567 47.3932 35.4445 45.9947 34.7762 44.6159C34.7367 44.8158 34.1935 45.4586 33.9658 45.9019C33.8833 46.0629 34.0137 46.685 33.9124 46.7155C33.9707 46.0696 33.2365 45.087 33.1957 44.6437L33.1975 44.6433ZM37.9905 35.1405C38.1456 35.4901 37.8336 36.1069 37.5786 36.357C37.2285 36.7008 36.7816 37.0048 36.458 37.7677C36.7144 36.9658 37.081 36.5552 37.4105 36.171C37.6651 35.8725 37.9116 35.5784 37.9887 35.1405H37.9905ZM69.0592 31.7209C69.1092 31.7014 69.1632 31.6944 69.2166 31.7002C69.2699 31.7061 69.3211 31.7247 69.3658 31.7545C69.6362 31.9205 69.8935 32.1071 70.1354 32.3125C70.2376 32.447 70.3017 32.5501 70.2788 32.5653C69.8575 32.1978 69.0547 31.906 68.8803 31.9687C68.8315 31.9867 68.8068 31.9728 68.7629 32.0055C67.549 32.8782 66.198 33.1606 65.3356 34.7483C64.9264 35.4991 64.1312 37.1625 63.9192 37.7748C63.9129 37.4996 63.7358 37.0836 63.7399 36.6542C63.5019 36.968 63.4041 37.1392 62.9904 37.3477C61.348 38.1729 58.7693 38.7305 57.5026 41.3124C56.6688 42.3214 58.1709 41.1573 59.6541 41.7709C57.2847 41.6813 54.6298 43 53.7248 43.637L75.4646 24.3468L75.1441 26.3101C75.0921 26.6324 74.9455 26.956 74.7241 27.2819C74.6555 27.2339 74.4251 27.1994 74.3655 27.2819C73.3731 28.6715 70.9396 30.269 69.2268 31.4367C69.0897 31.5326 69.0928 31.5604 69.0592 31.7209ZM68.0914 84.6073C79.7224 77.9285 87.586 65.3777 87.586 51.0518C87.586 42.5737 84.832 34.7201 80.1729 28.3357C80.1362 28.3693 80.0994 28.4039 80.06 28.4357C79.3607 29.0408 78.5637 29.035 78.3593 29.2829C78.2601 29.4024 78.1603 29.5245 78.0599 29.6491L78.0814 29.6648C78.1881 29.741 78.1711 29.9422 78.0783 30.0606C76.4691 32.0853 75.4157 34.4811 73.7231 36.405C73.6667 36.4243 73.5412 36.4216 73.5031 36.3718C73.465 36.3221 73.5322 36.1571 73.4954 36.1078C73.491 36.1038 73.4896 36.0988 73.4847 36.0948C73.3399 36.2781 73.1839 36.4686 73.0207 36.6627C72.6496 37.1056 72.3484 38.0581 71.3582 38.9891C70.8302 39.4862 68.1923 41.2357 67.9493 41.4096C67.5723 41.684 67.0896 42.7853 66.7875 43.0767C65.8946 43.9395 66.5817 43.2878 65.5068 44.5321C63.6426 46.694 62.617 46.8051 61.4964 48.3969C61.1253 48.9235 60.4655 50.6345 60.365 51.3396C60.2871 51.873 59.5058 52.6278 59.2234 53.3347C58.8307 54.3208 58.6855 54.2437 58.4062 52.9792C58.0705 51.4601 57.8096 48.92 57.9391 47.5815C57.9656 47.2937 57.9759 47.1732 57.8553 47.6398C57.477 49.097 57.5366 50.5359 57.6922 51.7708C57.7818 52.501 58.0956 54.3415 58.2995 54.9677C58.6263 55.9717 59.1575 56.4298 59.5882 58.7141C59.7653 59.6603 60.002 60.4802 59.6752 62.5058C59.599 62.9791 58.8065 64.4628 58.4461 64.9559C58.2995 65.1558 60.1862 63.0369 60.37 63.2951C61.3149 64.6246 61.8214 65.2141 61.3709 66.388C61.2185 66.7865 60.8935 67.852 60.9711 68.3876C61.0966 69.2639 61.6627 70.2926 61.6434 71.1448C61.6201 72.16 61.3696 73.1507 61.431 74.0516C61.4964 75.0176 62.5543 76.3233 62.1683 77.6022C62.2553 77.8039 61.2033 79.3624 59.2234 80.4525C59.2785 80.7103 62.7241 79.1257 62.9913 77.993C63.1621 77.7868 64.0599 79.002 64.8659 79.8756C65.0416 80.0648 65.3419 81.2558 65.5131 81.4633C66.6346 82.8013 67.58 83.9439 68.0914 84.6073ZM50.4974 10.925C60.7532 10.925 70.117 14.8611 77.1594 21.2992L82.7104 16.4048L81.7893 17.0243C81.5203 16.9136 81.2689 16.845 81.0075 16.6854C80.956 16.654 80.8197 16.5769 80.8184 16.5106C81.8381 15.5191 84.58 14.0139 85.9284 13.9108C85.5859 15.4832 84.3147 17.4143 83.1466 18.5546C83.0793 18.551 83.0094 18.4089 82.9789 18.3574C82.8503 18.1364 82.7956 17.8643 82.7189 17.6272L82.6947 17.551L78.2482 21.8918L78.3826 21.9635C78.5171 21.8362 78.7444 21.6116 78.769 21.5897C78.7937 21.5677 79.0241 21.5094 79.2621 21.4673C79.5337 21.4225 79.8345 21.3951 79.8762 21.4323C79.969 21.517 80.3307 21.9281 80.384 22.015C80.4988 22.2562 80.6669 22.0702 80.8009 22.2943C80.9139 22.4861 81.2317 22.994 81.2285 23.1666C81.2254 23.3391 81.125 23.431 81.1093 23.4624C81.1582 23.5072 81.285 23.5149 81.3334 23.5521C81.4894 23.6744 81.4477 23.5292 81.6544 23.8349C81.9946 24.3432 82.0192 24.6373 82.0416 24.7314C82.2052 24.8735 82.2434 25.1079 82.3962 25.3078C82.4527 25.3818 82.3379 25.7086 82.3258 25.7736C82.2626 26.0547 82.1368 26.3179 81.9578 26.5436C87.0431 33.2018 90.071 41.5087 90.071 50.5C90.071 72.2954 72.2919 90.0741 50.497 90.0741C48.3799 90.0743 46.2664 89.9039 44.1767 89.5644C42.0382 89.2435 40.0574 88.7616 38.3841 88.1507C38.38 86.8956 40.1667 83.6046 40.3716 81.263C40.381 81.1451 40.4209 80.5296 40.7158 80.7148C40.736 80.7282 42.1085 81.7161 43.8984 81.899C43.5676 81.5709 42.564 81.1984 42.2905 81.0734C41.3295 80.6386 40.9834 80.4167 41.0444 79.6569C41.1686 78.1271 41.8898 78.4081 41.996 76.8047C42.1202 74.9149 41.6594 75.7119 41.234 74.17C41.1973 74.0355 42.9589 74.3376 42.9091 74.2188C42.8692 74.1211 41.9723 73.8064 41.7464 73.6603C41.5043 73.5043 41.1161 73.4362 40.7513 73.3577C39.4209 73.0771 39.7364 72.069 38.3455 71.5365C37.7471 71.3075 36.9609 70.9794 36.3818 70.6176C35.8094 70.2617 35.4302 69.8619 35.6063 69.4849C35.6785 69.3307 35.995 69.2209 36.5207 69.0815C37.7646 68.7484 39.6692 69.1971 40.6522 69.4612C38.1627 68.0644 36.1375 68.3943 35.0514 69.0035C33.5834 69.826 32.2275 68.9623 30.876 69.5777C30.2072 69.8825 31.036 69.7283 30.0638 69.8493C29.984 69.0537 32.1306 66.1988 32.686 64.5749C32.6851 64.5764 32.6841 64.578 32.6829 64.5793C32.4059 65.0814 30.6443 67.5333 29.0579 69.3164C28.9598 69.4262 28.7684 69.4249 28.5613 69.4128L28.5729 69.3531C27.6558 70.3805 26.9185 71.2138 26.8042 71.4016C26.3416 71.6903 24.7844 72.455 24.3478 72.5558C23.3509 72.7831 22.6288 72.4886 21.6184 72.6258C20.2961 73.0933 19.7161 72.3357 19.691 71.3801C19.7596 71.4397 19.8308 71.498 19.8927 71.5594C19.9962 71.6598 20.1697 71.7181 20.2513 71.8494C19.9762 71.3901 19.766 70.8948 19.6269 70.3778C19.5991 69.9959 19.9313 69.4921 19.9725 68.9488C20.0173 68.3307 19.7667 67.6646 19.8501 67.3656C20.2038 66.1061 21.0155 65.0796 22.0752 64.2068C22.6691 63.7187 23.298 63.4377 24.0134 63.0378C24.2573 62.9002 25.1282 63.4314 25.3048 63.6241C25.3048 63.6116 25.3048 63.5995 25.3048 63.5874C25.1049 63.2759 24.8395 62.8908 24.5742 62.7258C24.5197 62.6894 24.4572 62.6668 24.3921 62.6599C24.327 62.6531 24.2612 62.6621 24.2003 62.6864C24.1873 62.4623 24.1613 62.3475 24.4132 62.2135C26.996 60.824 30.032 59.7831 31.7591 58.4034C31.8586 58.3241 31.9868 58.3586 32.0625 58.3774C32.1562 58.4066 32.4982 58.7625 32.6851 59.1502C32.6887 58.9454 32.3646 58.3102 32.3821 58.2936C32.4607 58.2203 32.5337 58.1412 32.6004 58.0569C33.0415 57.7961 33.5803 54.8874 34.2141 54.3814C34.483 54.1644 34.8515 54.0026 35.0881 53.8255C36.4885 52.7744 36.1429 53.4288 37.1756 53.4051C37.2473 53.4051 37.3123 53.401 37.3711 53.4006C37.3539 53.3815 37.3317 53.3676 37.307 53.3607C36.8341 53.2043 36.4033 53.0227 36.4607 52.8466C36.4871 52.7654 36.5118 52.6861 36.5324 52.6135C36.778 51.7457 36.5772 51.4185 36.3056 50.6775C36.2245 50.4556 36.1554 50.2414 36.1043 50.136C35.8802 50.3781 35.4911 50.3794 35.3956 50.0657C35.7807 49.8474 35.237 49.3521 34.9609 49.6542C34.8004 49.8312 34.0957 49.7618 34.2791 48.8379C34.2937 48.8243 34.3069 48.8093 34.3185 48.7931C34.5216 48.5143 34.4234 48.0495 34.3544 47.7433C34.3208 47.902 34.1119 48.2364 34.0016 48.3892C33.8715 48.2826 33.7554 48.16 33.656 48.0244C33.5422 47.8451 33.4583 47.6106 33.3656 47.4192C33.3431 47.3663 33.3234 47.2776 33.2813 47.235C33.0903 47.3825 33.0545 47.9876 33.18 48.2722C33.2325 48.3797 33.3043 48.4765 33.392 48.5578C33.2217 48.4905 33.2127 48.8554 32.7241 48.7012C31.9621 48.461 31.2799 47.4672 30.9715 47.1377C30.6313 46.7742 30.2816 46.7877 30.0243 46.4896C29.858 46.2959 29.8083 46.0956 29.5429 45.8015C29.2211 45.4474 28.7016 44.9575 28.7863 44.1771L28.4564 43.658C28.4241 43.6087 28.4335 43.5312 28.4241 43.5052C28.3785 43.3897 28.3506 43.2681 28.3412 43.1443C28.3466 42.9946 28.1413 42.6185 28.2139 42.4038C28.2914 42.169 28.5962 41.9108 28.4152 40.9202C28.3488 40.5486 28.6092 40.3424 28.7495 39.9874C28.815 39.8202 28.6913 39.3486 28.8499 39.1572C28.9351 39.077 29.5559 38.393 29.581 38.28C29.6335 38.0335 29.9159 37.2665 30.1037 37.0913C30.274 36.9321 30.668 36.8815 30.8549 36.7062C31.1279 36.4521 31.5313 36.3028 31.6878 35.989C31.95 35.4677 32.37 35.5515 32.846 35.4018C33.1737 35.0975 33.959 35.1683 34.2325 34.872C34.86 34.1929 35.865 34.4686 35.9882 34.6748C36.046 34.7716 36.1621 34.4749 36.2832 34.461C36.7117 34.4121 36.9833 34.4767 37.1568 34.5829V34.5789C37.6301 34.7075 37.9636 35.6502 37.2962 35.8339C37.4692 35.6219 37.2227 35.3028 36.9134 35.2799C36.579 35.5157 36.241 35.8402 36.0644 36.1701C35.3979 37.4073 36.1451 37.5148 35.8623 38.6225C36.0716 38.5987 37.3751 37.8797 37.991 36.7896C38.1994 36.4216 38.3841 35.8608 38.3774 35.4189C38.3832 35.2656 38.3814 35.1522 38.3549 35.1158C38.3168 34.8142 38.2232 34.4906 38.0268 34.4067C38.71 34.1669 40.1986 34.716 39.7925 35.9698C39.9413 36.1042 40.5509 36.5865 41.1977 37.1307C41.3465 37.2576 41.4268 37.5162 41.585 37.6269C42.5393 38.2993 43.8518 38.4302 44.4488 38.8797C44.6187 39.007 44.8011 39.2518 44.9159 39.4239C44.9836 39.5302 45.0477 39.687 45.0028 39.8148C44.9105 40.0788 44.5994 40.2787 44.4623 40.5037C44.3471 40.6933 44.5264 40.6763 44.6537 40.779C44.8666 40.9497 44.7881 41.1757 44.841 41.2357C45.0342 41.4558 44.8702 41.5983 44.8724 41.7091C45.0584 41.7113 45.1288 41.8305 45.2059 41.9435C45.3973 42.2259 45.2104 42.5141 45.4677 42.6217C45.5818 42.6727 45.6899 42.7363 45.79 42.8113C46.1808 42.9319 46.6277 43.3106 46.7425 43.5482C46.7734 43.6128 46.9666 43.719 47.0504 43.7611C47.2853 43.8786 47.2822 44.9579 46.985 44.9579C46.985 45.2556 46.963 45.4586 46.8151 45.6074C46.7192 45.7034 46.5071 45.7352 46.4323 45.8096C46.3897 45.8517 46.2422 45.9369 46.2422 46.0225C46.2422 46.0539 45.9661 46.3098 45.902 46.3098C45.8805 46.3098 45.4457 46.4371 45.4027 46.4586C45.2861 46.4905 45.1476 46.6178 44.9993 46.6178C44.8307 46.6178 44.6815 46.573 44.5286 46.5425C44.4641 46.8383 44.6971 47.1315 44.9881 47.283C45.5044 47.5519 46.3171 46.9692 47.0146 47.0889L39.7736 53.3473C40.5921 53.3266 40.6755 53.3777 40.6899 53.622L40.9211 53.2594L75.3619 22.8837C68.4388 16.3802 59.1324 12.3854 48.9227 12.3854C36.722 12.3854 25.8135 18.0871 18.7188 26.9619C25.9417 17.2453 37.5028 10.925 50.4974 10.925Z" fill="#FF9D00"/>
</svg>
