<svg id="Layer_1" data-name="Layer 1" xmlns="http://www.w3.org/2000/svg" viewBox="0 0 388.89999 293.70999"><defs><style>.cls-1{fill:#fff;}</style></defs><title>cdfoundation-stacked-white</title><path class="cls-1" d="M16.74,287c-6,0-9.06-5.15-9.06-11.32s3.05-11.33,9.06-11.33a8.87,8.87,0,0,1,7.26,3.48l3-2.58a12.58,12.58,0,0,0-10.31-4.84c-8.71,0-13.47,7.22-13.47,15.19s4.65,15.3,13.55,15.3A12.48,12.48,0,0,0,27.05,286l-3-2.77A8.8,8.8,0,0,1,16.74,287Z"/><path class="cls-1" d="M46.3,260.41a40.81948,40.81948,0,0,0-8.78.93v28.43a35.92014,35.92014,0,0,0,8.75,1.13c8.9,0,13.86-7.3,13.86-15.46S55.05,260.41,46.3,260.41Zm-.11,26.43a14.21023,14.21023,0,0,1-4.61-.74v-21.24a21.0002,21.0002,0,0,1,4.61-.51c6.09,0,9.53,5,9.53,11.09C55.72,281.76994,52.51,286.84,46.19,286.84Z"/><path class="cls-1" d="M71.92,285.51994a2.58,2.58,0,1,0,2.49924,2.65833q.002-.06419.00076-.12833A2.52,2.52,0,0,0,71.92,285.51994Z"/><polygon class="cls-1" points="85.36 290.67 89.42 290.67 89.42 277.36 102.97 277.36 103.28 273.57 89.42 273.57 89.42 264.39 104.1 264.39 104.41 260.6 85.36 260.6 85.36 290.67"/><path class="cls-1" d="M126.87,260.41c-8.94,0-13.59,7.26-13.59,15.19s4.65,15.3,13.59,15.3c8.75,0,13.51-7.34,13.51-15.3S135.62,260.41,126.87,260.41Zm0,26.55c-6,0-9.1-5.15-9.1-11.32s3-11.33,9.1-11.33,9.1,5.12,9.1,11.33S132.88,287,126.83,287Z"/><path class="cls-1" d="M167.79,280.67c0,3.17-2.61,6.21-6.87,6.21-4.8,0-7-3-7-6.21V260.6l-4.06.31V281c0,6.75,5.66,9.87,11.09,9.87,5.12,0,10.94-3.27,10.94-9.87V260.6l-4.07.31Z"/><path class="cls-1" d="M202.24,285.70994c-5.12-6.56-11.48-23.15-15.62-25.11h-4v30.07h4.06V266.34c4.8,7.42,10.5,22.49,15.62,24.33h4.06V260.6l-4.06.31Z"/><path class="cls-1" d="M226.41,260.41a40.74947,40.74947,0,0,0-8.78.93v28.43a35.89965,35.89965,0,0,0,8.74,1.13c8.91,0,13.86-7.3,13.86-15.46S235.16,260.41,226.41,260.41Zm-.12,26.43a14.20006,14.20006,0,0,1-4.6-.74v-21.24a20.92917,20.92917,0,0,1,4.6-.51c6.1,0,9.53,5,9.53,11.09,0,6.33-3.2,11.4-9.53,11.4Z"/><path class="cls-1" d="M258.4,260.6c-4.69,9.14-9.46,20-10.86,30.07h4.06a62.59335,62.59335,0,0,1,1.8-8.16h14.17a62.59168,62.59168,0,0,1,1.8,8.16h4.06c-1.41-10-6.17-20.93-10.86-30.07Zm-3.79,18.12a123.616,123.616,0,0,1,5.89-13.94,129.23156,129.23156,0,0,1,5.86,13.94Z"/><polygon class="cls-1" points="279.29 264.04 287.57 264.04 287.57 290.67 291.63 290.67 291.63 264.04 299.48 264.04 299.79 260.6 279.6 260.6 279.29 264.04"/><polygon class="cls-1" points="310.53 290.67 314.59 290.67 314.59 260.6 310.53 260.92 310.53 290.67"/><path class="cls-1" d="M338.8,260.41c-8.94,0-13.59,7.26-13.59,15.19s4.65,15.3,13.59,15.3c8.75,0,13.51-7.34,13.51-15.3S347.55,260.41,338.8,260.41Zm0,26.55c-6.05,0-9.1-5.15-9.1-11.32s3-11.33,9.1-11.33,9.1,5.12,9.1,11.33S344.82,287,338.76,287Z"/><path class="cls-1" d="M381.6,260.91v24.8c-5.11-6.56-11.48-23.15-15.62-25.11h-4v30.07H366V266.34c4.81,7.42,10.51,22.49,15.62,24.33h4.06V260.6Z"/><path class="cls-1" d="M137.17,184.19c1.42-.19,2.8-.44,4.15-.76s2.66-.69,4-1.12c7.72-2.62,14.41-7.41,20.81-14.07l-.08-.1C157.5,177,148.49,182.64,137.17,184.19Z"/><path class="cls-1" d="M177,154.85a127.33989,127.33989,0,0,1-10.95,13.39c-6.4,6.66-13.09,11.45-20.81,14.07a40.378,40.378,0,0,1-4,1.12c-1.39.31-2.73.57-4.15.76-.47.07-.94.13-1.42.18l-.77.07c-.61.05-1.22.1-1.84.13h-2.59a35.73026,35.73026,0,0,1-7.76-.88A42.19032,42.19032,0,0,1,117,182a36.38026,36.38026,0,0,1-3.82-1.65c-1.26-.65-2.5-1.28-3.72-2a50.23011,50.23011,0,0,1-14.44-13c-.87-1.17-1.69-2.39-2.46-3.64-.38-.63-.74-1.26-1.09-1.91a43.886,43.886,0,0,1-1.91-4,39.44,39.44,0,0,1,0-30.75,43.88856,43.88856,0,0,1,1.91-4c.35-.65.71-1.28,1.09-1.91.77-1.25,1.59-2.47,2.46-3.64a50.40984,50.40984,0,0,1,14.44-13c1.22-.72,2.46-1.39,3.72-2q1.87137-.84487,3.82-1.5a42.1906,42.1906,0,0,1,5.83-1.75,35.73078,35.73078,0,0,1,7.76-.88h2.64c.61,0,1.22.08,1.82.13l.88.09.86.1c1.52.2,3,.47,4.45.81.72.17,1.43.36,2.13.56a43.21021,43.21021,0,0,1,10,4.37c1.26.75,2.49,1.56,3.71,2.44a62.87969,62.87969,0,0,1,7.08,6q1.72,1.68,3.43,3.54l.07-.11A134.55979,134.55979,0,0,1,177,126.07c4.59-7.24,11.53-18.12,14-21.73,1-1.45,2-2.92,3.09-4.4C182.66,86,168.91,74.42,150.54,69.48h-.13c-.89-.24-1.78-.46-2.69-.67l-.38-.09c-.88-.19-1.77-.37-2.66-.53l-.53-.1c-1-.18-2.09-.34-3.16-.48h-.12c-.58-.08-1.16-.14-1.75-.2h-.33l-1.58-.14h-.48l-1.48-.1h-.57l-1.5-.06h-2.63C91.34,66.9,57,101.28,57,140.48s34.38,73.59,73.59,73.59h2.65l1.46-.06h.62l1.41-.08h.57l1.44-.13h.48l1.53-.18.35-.05,1.66-.23h.18c1-.16,2-.34,3-.53l.55-.12c.81-.17,1.61-.35,2.41-.54l.49-.12c.85-.22,1.7-.44,2.54-.69l.2-.06c17.5-5.13,30.75-16.37,41.83-29.78-1.72-2.59-2.87-4.53-3.41-5.47Z"/><path class="cls-1" d="M133,184.58h.19c.62,0,1.23-.08,1.84-.13-.61.05-1.22.1-1.85.13Z"/><polygon class="cls-1" points="167.59 114.34 167.52 114.45 167.52 114.45 167.59 114.34"/><path class="cls-1" d="M322.12,2.8V82.71a72.19,72.19,0,0,0-44.4-15.81h-2.63l-1.5.06L273,67l-1.48.1h-.48l-1.58.14h-.33c-.59.06-1.17.12-1.75.2h-.13c-1.06.13-2.11.3-3.15.48l-.53.1c-.9.16-1.78.34-2.66.53l-.38.09c-25.62,5.79-42.49,24.32-56.41,44.59h0c-.59.86-1.14,1.73-1.72,2.59-1.9,2.89-4.61,7.11-7.29,11.31-3.52,5.51-7,11-8.39,13.22l17.41,27.13h0s18.57,34.16,52.07,43.46l.2.06c.84.25,1.69.47,2.54.69l.49.12c.79.2,1.6.37,2.41.54l.55.12c1,.19,2,.37,3,.53h.18l1.66.23.35.05,1.53.18h.48l1.44.13h.57l1.41.08h.62l1.46.06h2.65c46.18,0,72.9-26.14,73.57-71.81h0V2.8Zm-44.4,181.84h-2.59c-.62,0-1.23-.08-1.84-.13l-.77-.07c-.48-.05-.95-.11-1.42-.18a41.431,41.431,0,0,1-8.08-1.92,41.88142,41.88142,0,0,1-5.6-2.39,47.09979,47.09979,0,0,1-5.28-3.18c-.85-.59-1.7-1.21-2.54-1.87a69.55937,69.55937,0,0,1-7.33-6.69l-.08.1h0c-1.06-1.1-2.1-2.27-3.15-3.47-.13-.14-.25-.3-.38-.45-.53-.61-1.06-1.22-1.59-1.87s-.95-1.18-1.42-1.77-.75-.93-1.13-1.42c-1.7-2.19-3.39-4.51-5.11-7-.59-.84-1.18-1.71-1.78-2.58-.32-.48-.65-1-1-1.46-.57-.86-1.15-1.7-1.73-2.58l-.3-.46c-1-1.53-2-3.11-3.08-4.73q2.49-3.89,4.91-7.48c1.61-2.39,3.2-4.69,4.78-6.87s3.14-4.26,4.72-6.23,3.14-3.82,4.73-5.56q1.71-1.86,3.43-3.54c1.16-1.13,2.32-2.19,3.51-3.19s2.37-1.93,3.59-2.81a48.6189,48.6189,0,0,1,6.54-3.9c.28-.14.56-.31.85-.45l.19-.1c1.19-.55,2.4-1,3.63-1.46l.41-.17c.23-.07.47-.12.7-.2.92-.3,1.87-.57,2.82-.8l1.16-.29c1.31-.28,2.64-.53,4-.71l.86-.1.88-.09c.6,0,1.21-.1,1.82-.13h2.64a35.81967,35.81967,0,0,1,3.86.22,40.52978,40.52978,0,0,1,5.85,1.14c1.3.36,2.6.78,3.88,1.27a41.13387,41.13387,0,0,1,3.82,1.65c1.26.61,2.5,1.28,3.72,2s2.42,1.52,3.58,2.35,2.3,1.73,3.4,2.68a49.34984,49.34984,0,0,1,7.46,8c.87,1.17,1.69,2.39,2.46,3.64a43.11,43.11,0,0,1,4.49,10.06,39.99888,39.99888,0,0,1,1,4.36,38.46887,38.46887,0,0,1,.6,6.83C321.87,171,308.25,184.64,277.72,184.64Z"/></svg>